<?xml version="1.0" encoding="UTF-8"?>
<svg version="1.1" xmlns="http://www.w3.org/2000/svg" width="127" height="124">
<path d="M0 0 C12.21 0 24.42 0 37 0 C37 2.64 37 5.28 37 8 C37.79664062 7.98839844 38.59328125 7.97679687 39.4140625 7.96484375 C49.93848858 7.87521968 49.93848858 7.87521968 55 9 C55 11.64 55 14.28 55 17 C56.299375 16.979375 57.59875 16.95875 58.9375 16.9375 C60.29165633 16.91600546 61.64756083 16.92851801 63 17 C65.04698414 19.04698414 64.70045693 23.30411241 65 26 C66.134375 25.979375 67.26875 25.95875 68.4375 25.9375 C72 26 72 26 73 27 C73.23701239 29.85877909 73.42219182 32.69883297 73.5625 35.5625 C73.60568359 36.36880859 73.64886719 37.17511719 73.69335938 38.00585938 C73.79975262 40.00368805 73.90040888 42.0018207 74 44 C75.7015625 43.9690625 75.7015625 43.9690625 77.4375 43.9375 C81 44 81 44 82 45 C82.09500548 47.46444057 82.12557985 49.90074626 82.11352539 52.36547852 C82.11367142 53.13615662 82.11381744 53.90683472 82.1139679 54.7008667 C82.1132686 57.26024139 82.10547545 59.8195442 82.09765625 62.37890625 C82.09579213 64.14867615 82.0943682 65.91844656 82.09336853 67.68821716 C82.08954288 72.35551366 82.0797122 77.02277923 82.06866455 81.69006348 C82.05845144 86.44897035 82.05387113 91.20788221 82.04882812 95.96679688 C82.03808997 105.31121153 82.02101299 114.6556032 82 124 C78.7 124 75.4 124 72 124 C72 121.69 72 119.38 72 117 C69.03 117 66.06 117 63 117 C61.875 111.375 61.875 111.375 63 108 C60.36 108 57.72 108 55 108 C55 110.97 55 113.94 55 117 C52.03 117 49.06 117 46 117 C46 119.31 46 121.62 46 124 C39.73 124 33.46 124 27 124 C27 119.05 27 114.1 27 109 C21.72 109 16.44 109 11 109 C10.67 113.95 10.34 118.9 10 124 C3.73 124 -2.54 124 -9 124 C-9 121.69 -9 119.38 -9 117 C-11.97 117 -14.94 117 -18 117 C-18 114.03 -18 111.06 -18 108 C-20.64 108.33 -23.28 108.66 -26 109 C-26 111.64 -26 114.28 -26 117 C-28.97 117 -31.94 117 -35 117 C-35 119.31 -35 121.62 -35 124 C-38.3 124 -41.6 124 -45 124 C-45 100.9 -45 77.8 -45 54 C-43.02 54 -41.04 54 -39 54 C-38.67 53.34 -38.34 52.68 -38 52 C-37.34 52.33 -36.68 52.66 -36 53 C-36.08378906 52.3915625 -36.16757812 51.783125 -36.25390625 51.15625 C-37.24018477 42.66676404 -36.69178369 34.48233235 -36 26 C-33.03 26 -30.06 26 -27 26 C-27 23.36 -27 20.72 -27 18 C-24.03 17.67 -21.06 17.34 -18 17 C-18 14.36 -18 11.72 -18 9 C-4 7 -4 7 0 9 C0 6.03 0 3.06 0 0 Z " fill="#0735F9" transform="translate(45,0)"/>
<path d="M0 0 C0.66 0.33 1.32 0.66 2 1 C3.33257403 20.00455581 3.33257403 20.00455581 2 28 C-3.94 28 -9.88 28 -16 28 C-16 33.94 -16 39.88 -16 46 C-13.03 46 -10.06 46 -7 46 C-7 48.97 -7 51.94 -7 55 C-13.27 55 -19.54 55 -26 55 C-26 52.03 -26 49.06 -26 46 C-28.97 46 -31.94 46 -35 46 C-35 37.09 -35 28.18 -35 19 C-32.03 19 -29.06 19 -26 19 C-26 16.03 -26 13.06 -26 10 C-19.73 10 -13.46 10 -7 10 C-7 12.97 -7 15.94 -7 19 C-4.36 19 -1.72 19 1 19 C0.67 12.73 0.34 6.46 0 0 Z " fill="#F2F4FB" transform="translate(116,26)"/>
<path d="M0 0 C6.27 0 12.54 0 19 0 C19 2.97 19 5.94 19 9 C21.97 9 24.94 9 28 9 C28 11.97 28 14.94 28 18 C22.06 18 16.12 18 10 18 C10 23.94 10 29.88 10 36 C12.97 36 15.94 36 19 36 C19 38.97 19 41.94 19 45 C12.73 45 6.46 45 0 45 C0 42.03 0 39.06 0 36 C-2.97 36 -5.94 36 -9 36 C-9 27.09 -9 18.18 -9 9 C-6.03 9 -3.06 9 0 9 C0 6.03 0 3.06 0 0 Z " fill="#F4F6FC" transform="translate(45,36)"/>
<path d="M0 0 C5.61 0 11.22 0 17 0 C17 5.94 17 11.88 17 18 C11.39 18 5.78 18 0 18 C0 12.06 0 6.12 0 0 Z " fill="#000005" transform="translate(100,54)"/>
<path d="M0 0 C5.61 0 11.22 0 17 0 C17 5.94 17 11.88 17 18 C11.39 18 5.78 18 0 18 C0 12.06 0 6.12 0 0 Z " fill="#000005" transform="translate(55,54)"/>
<path d="M0 0 C0.81210937 -0.02900391 1.62421875 -0.05800781 2.4609375 -0.08789062 C6.68439151 -0.13260146 8.70214335 -0.04694402 12.328125 2.33203125 C12.96234375 2.98558594 13.5965625 3.63914063 14.25 4.3125 C13.59 4.9725 12.93 5.6325 12.25 6.3125 C11.6074765 8.38124034 11.6074765 8.38124034 11.25 10.3125 C13.56 10.3125 15.87 10.3125 18.25 10.3125 C18.25 10.6425 18.25 10.9725 18.25 11.3125 C15.61 11.3125 12.97 11.3125 10.25 11.3125 C10.25 8.3425 10.25 5.3725 10.25 2.3125 C3.98 2.3125 -2.29 2.3125 -8.75 2.3125 C-8.75 5.2825 -8.75 8.2525 -8.75 11.3125 C-11.39 11.3125 -14.03 11.3125 -16.75 11.3125 C-16.75 10.9825 -16.75 10.6525 -16.75 10.3125 C-14.44 10.3125 -12.13 10.3125 -9.75 10.3125 C-9.76160156 9.67441406 -9.77320313 9.03632812 -9.78515625 8.37890625 C-9.79417969 7.55261719 -9.80320312 6.72632813 -9.8125 5.875 C-9.82410156 5.05128906 -9.83570313 4.22757813 -9.84765625 3.37890625 C-9.61060795 -1.63703575 -3.84215852 0.04488503 0 0 Z " fill="#071FC6" transform="translate(53.75,33.6875)"/>
<path d="M0 0 C3.14588944 -0.02683697 6.29155271 -0.04675902 9.4375 -0.0625 C10.33533203 -0.07087891 11.23316406 -0.07925781 12.15820312 -0.08789062 C13.01220703 -0.09111328 13.86621094 -0.09433594 14.74609375 -0.09765625 C15.93223267 -0.10551147 15.93223267 -0.10551147 17.14233398 -0.11352539 C19 0 19 0 20 1 C20.07319621 3.69654854 20.09242537 6.36691458 20.0625 9.0625 C20.05798828 9.82111328 20.05347656 10.57972656 20.04882812 11.36132812 C20.0370068 13.24091871 20.01907078 15.12046899 20 17 C19.67 17 19.34 17 19 17 C19 12.05 19 7.1 19 2 C13.72 2 8.44 2 3 2 C2.67 6.95 2.34 11.9 2 17 C1.34 17 0.68 17 0 17 C0 11.39 0 5.78 0 0 Z " fill="#5C6DDD" transform="translate(53,107)"/>
<path d="M0 0 C1.05445313 -0.01417969 2.10890625 -0.02835937 3.1953125 -0.04296875 C5.875 0.1875 5.875 0.1875 7.875 2.1875 C4.905 2.8475 1.935 3.5075 -1.125 4.1875 C-1.125 3.5275 -1.125 2.8675 -1.125 2.1875 C-3.765 2.1875 -6.405 2.1875 -9.125 2.1875 C-9.125 4.8275 -9.125 7.4675 -9.125 10.1875 C-10.775 10.1875 -12.425 10.1875 -14.125 10.1875 C-12.805 9.8575 -11.485 9.5275 -10.125 9.1875 C-10.125 6.5475 -10.125 3.9075 -10.125 1.1875 C-6.71740374 0.15863639 -3.5507762 0.02181066 0 0 Z " fill="#6070E3" transform="translate(37.125,7.8125)"/>
<path d="M0 0 C2.64 0 5.28 0 8 0 C8.05391993 1.79133978 8.09275571 3.58313899 8.125 5.375 C8.14820313 6.37273437 8.17140625 7.37046875 8.1953125 8.3984375 C8 11 8 11 6 13 C4.68 13 3.36 13 2 13 C2.41774084 10.57710315 2.69612938 9.29120935 4.5 7.5625 C6.46573078 5.51486377 6.62668561 3.76252651 7 1 C4.69 1 2.38 1 0 1 C0 0.67 0 0.34 0 0 Z " fill="#0527DD" transform="translate(37,72)"/>
<path d="M0 0 C0.99 0.495 0.99 0.495 2 1 C2.59355614 3.64860427 2.74209269 6.29197322 3 9 C5.97 9.495 5.97 9.495 9 10 C9 11.65 9 13.3 9 15 C8.34 14.34 7.68 13.68 7 13 C5.01178687 12.60235737 3.01055661 12.26224651 1 12 C0.67 8.04 0.34 4.08 0 0 Z " fill="#465AE9" transform="translate(107,17)"/>
<path d="M0 0 C1.23556641 0.01740234 1.23556641 0.01740234 2.49609375 0.03515625 C3.32238281 0.04417969 4.14867188 0.05320312 5 0.0625 C5.63808594 0.07410156 6.27617188 0.08570312 6.93359375 0.09765625 C6.93359375 0.42765625 6.93359375 0.75765625 6.93359375 1.09765625 C4.62359375 1.09765625 2.31359375 1.09765625 -0.06640625 1.09765625 C-0.06640625 3.73765625 -0.06640625 6.37765625 -0.06640625 9.09765625 C-0.72640625 9.09765625 -1.38640625 9.09765625 -2.06640625 9.09765625 C-2.9453125 2.9453125 -2.9453125 2.9453125 -3.06640625 1.09765625 C-2.06640625 0.09765625 -2.06640625 0.09765625 0 0 Z " fill="#324EF6" transform="translate(91.06640625,114.90234375)"/>
</svg>
