<svg width="1920" height="496" viewBox="0 0 1920 496" fill="none" xmlns="http://www.w3.org/2000/svg">
<rect x="1920" y="496" width="839" height="4" transform="rotate(-180 1920 496)" fill="#6053FD"/>
<rect x="1920" y="451" width="839" height="4" transform="rotate(-180 1920 451)" fill="#6053FD"/>
<rect x="1081" y="492" width="4" height="4" transform="rotate(-180 1081 492)" fill="#6053FD"/>
<rect width="4" height="4" transform="matrix(1 0 0 -1 1073 459)" fill="#6053FD"/>
<rect x="1077" y="488" width="4" height="4" transform="rotate(-180 1077 488)" fill="#6053FD"/>
<rect width="4" height="4" transform="matrix(1 0 0 -1 1077 455)" fill="#6053FD"/>
<rect x="1073" y="484" width="4" height="25" transform="rotate(-180 1073 484)" fill="#6053FD"/>
<rect x="1706" y="198" width="289" height="4" transform="rotate(-180 1706 198)" fill="#6053FD"/>
<rect x="1706" y="153" width="289" height="4" transform="rotate(-180 1706 153)" fill="#6053FD"/>
<rect x="1417" y="194" width="4" height="4" transform="rotate(-180 1417 194)" fill="#6053FD"/>
<rect width="4" height="4" transform="matrix(1 0 0 -1 1706 194)" fill="#6053FD"/>
<rect width="4" height="4" transform="matrix(1 0 0 -1 1409 161)" fill="#6053FD"/>
<rect x="1714" y="161" width="4" height="4" transform="rotate(-180 1714 161)" fill="#6053FD"/>
<rect x="1413" y="190" width="4" height="4" transform="rotate(-180 1413 190)" fill="#6053FD"/>
<rect width="4" height="4" transform="matrix(1 0 0 -1 1710 190)" fill="#6053FD"/>
<rect width="4" height="4" transform="matrix(1 0 0 -1 1413 157)" fill="#6053FD"/>
<rect x="1710" y="157" width="4" height="4" transform="rotate(-180 1710 157)" fill="#6053FD"/>
<rect x="1409" y="186" width="4" height="25" transform="rotate(-180 1409 186)" fill="#6053FD"/>
<rect width="4" height="25" transform="matrix(1 0 0 -1 1714 186)" fill="#6053FD"/>
<rect x="738" y="198" width="289" height="4" transform="rotate(-180 738 198)" fill="#6053FD"/>
<rect x="738" y="153" width="289" height="4" transform="rotate(-180 738 153)" fill="#6053FD"/>
<rect x="449" y="194" width="4" height="4" transform="rotate(-180 449 194)" fill="#6053FD"/>
<rect width="4" height="4" transform="matrix(1 0 0 -1 738 194)" fill="#6053FD"/>
<rect width="4" height="4" transform="matrix(1 0 0 -1 441 161)" fill="#6053FD"/>
<rect x="746" y="161" width="4" height="4" transform="rotate(-180 746 161)" fill="#6053FD"/>
<rect x="445" y="190" width="4" height="4" transform="rotate(-180 445 190)" fill="#6053FD"/>
<rect width="4" height="4" transform="matrix(1 0 0 -1 742 190)" fill="#6053FD"/>
<rect width="4" height="4" transform="matrix(1 0 0 -1 445 157)" fill="#6053FD"/>
<rect x="742" y="157" width="4" height="4" transform="rotate(-180 742 157)" fill="#6053FD"/>
<rect x="441" y="186" width="4" height="25" transform="rotate(-180 441 186)" fill="#6053FD"/>
<rect width="4" height="25" transform="matrix(1 0 0 -1 746 186)" fill="#6053FD"/>
<rect width="839" height="4" transform="matrix(1 0 0 -1 0 496)" fill="#6053FD"/>
<rect width="839" height="4" transform="matrix(1 0 0 -1 0 451)" fill="#6053FD"/>
<rect width="4" height="4" transform="matrix(1 0 0 -1 839 492)" fill="#6053FD"/>
<rect x="847" y="459" width="4" height="4" transform="rotate(-180 847 459)" fill="#6053FD"/>
<rect width="4" height="4" transform="matrix(1 0 0 -1 843 488)" fill="#6053FD"/>
<rect x="843" y="455" width="4" height="4" transform="rotate(-180 843 455)" fill="#6053FD"/>
<rect width="4" height="25" transform="matrix(1 0 0 -1 847 484)" fill="#6053FD"/>
<rect x="1920" y="347" width="555" height="4" transform="rotate(-180 1920 347)" fill="#6053FD"/>
<rect x="1822" y="302" width="457" height="4" transform="rotate(-180 1822 302)" fill="#6053FD"/>
<rect x="1920" y="302" width="57" height="4" transform="rotate(-180 1920 302)" fill="#6053FD"/>
<rect x="1365" y="343" width="4" height="4" transform="rotate(-180 1365 343)" fill="#6053FD"/>
<rect width="4" height="4" transform="matrix(1 0 0 -1 1357 310)" fill="#6053FD"/>
<rect x="1361" y="339" width="4" height="4" transform="rotate(-180 1361 339)" fill="#6053FD"/>
<rect width="4" height="4" transform="matrix(1 0 0 -1 1361 306)" fill="#6053FD"/>
<rect x="1357" y="335" width="4" height="25" transform="rotate(-180 1357 335)" fill="#6053FD"/>
<rect x="1867" y="302" width="4" height="141" transform="rotate(-180 1867 302)" fill="#6053FD"/>
<rect x="1822" y="302" width="4" height="141" transform="rotate(-180 1822 302)" fill="#6053FD"/>
<rect x="1863" y="161" width="4" height="4" transform="rotate(-180 1863 161)" fill="#6053FD"/>
<rect width="4" height="4" transform="matrix(1 0 0 -1 1822 161)" fill="#6053FD"/>
<rect x="1859" y="157" width="4" height="4" transform="rotate(-180 1859 157)" fill="#6053FD"/>
<rect width="4" height="4" transform="matrix(1 0 0 -1 1826 157)" fill="#6053FD"/>
<rect x="1855" y="153" width="25" height="4" transform="rotate(-180 1855 153)" fill="#6053FD"/>
<rect x="325" y="198" width="289" height="4" transform="rotate(-180 325 198)" fill="#6053FD"/>
<rect x="325" y="153" width="94" height="4" transform="rotate(-180 325 153)" fill="#6053FD"/>
<rect x="190" y="153" width="154" height="4" transform="rotate(-180 190 153)" fill="#6053FD"/>
<rect x="36" y="194" width="4" height="4" transform="rotate(-180 36 194)" fill="#6053FD"/>
<rect width="4" height="4" transform="matrix(1 0 0 -1 325 194)" fill="#6053FD"/>
<rect width="4" height="4" transform="matrix(1 0 0 -1 28 161)" fill="#6053FD"/>
<rect x="333" y="161" width="4" height="4" transform="rotate(-180 333 161)" fill="#6053FD"/>
<rect x="32" y="190" width="4" height="4" transform="rotate(-180 32 190)" fill="#6053FD"/>
<rect width="4" height="4" transform="matrix(1 0 0 -1 329 190)" fill="#6053FD"/>
<rect width="4" height="4" transform="matrix(1 0 0 -1 32 157)" fill="#6053FD"/>
<rect x="329" y="157" width="4" height="4" transform="rotate(-180 329 157)" fill="#6053FD"/>
<rect x="28" y="186" width="4" height="25" transform="rotate(-180 28 186)" fill="#6053FD"/>
<rect width="4" height="25" transform="matrix(1 0 0 -1 333 186)" fill="#6053FD"/>
<rect width="324" height="4" transform="matrix(1 0 0 -1 231 49)" fill="#6053FD"/>
<rect width="555" height="4" transform="matrix(1 0 0 -1 0 4)" fill="#6053FD"/>
<rect width="4" height="4" transform="matrix(1 0 0 -1 555 45)" fill="#6053FD"/>
<rect x="563" y="12" width="4" height="4" transform="rotate(-180 563 12)" fill="#6053FD"/>
<rect width="4" height="4" transform="matrix(1 0 0 -1 559 41)" fill="#6053FD"/>
<rect x="559" y="8" width="4" height="4" transform="rotate(-180 559 8)" fill="#6053FD"/>
<rect width="4" height="25" transform="matrix(1 0 0 -1 563 37)" fill="#6053FD"/>
<rect x="235" y="153" width="4" height="108" transform="rotate(-180 235 153)" fill="#6053FD"/>
<rect x="190" y="153" width="4" height="108" transform="rotate(-180 190 153)" fill="#6053FD"/>
<rect width="190" height="4" transform="matrix(1 0 0 -1 0 49)" fill="#6053FD"/>
<rect width="289" height="4" transform="matrix(-1 0 0 1 534 298)" fill="#6053FD"/>
<rect width="289" height="4" transform="matrix(-1 0 0 1 534 343)" fill="#6053FD"/>
<rect width="4" height="4" transform="matrix(-1 0 0 1 245 302)" fill="#6053FD"/>
<rect x="534" y="302" width="4" height="4" fill="#6053FD"/>
<rect x="237" y="335" width="4" height="4" fill="#6053FD"/>
<rect width="4" height="4" transform="matrix(-1 0 0 1 542 335)" fill="#6053FD"/>
<rect width="4" height="4" transform="matrix(-1 0 0 1 241 306)" fill="#6053FD"/>
<rect x="538" y="306" width="4" height="4" fill="#6053FD"/>
<rect x="241" y="339" width="4" height="4" fill="#6053FD"/>
<rect width="4" height="4" transform="matrix(-1 0 0 1 538 339)" fill="#6053FD"/>
<rect width="4" height="25" transform="matrix(-1 0 0 1 237 310)" fill="#6053FD"/>
<rect x="542" y="310" width="4" height="25" fill="#6053FD"/>
<rect width="121" height="4" transform="matrix(-1 0 0 1 121 298)" fill="#6053FD"/>
<rect width="121" height="4" transform="matrix(-1 0 0 1 121 343)" fill="#6053FD"/>
<rect x="121" y="302" width="4" height="4" fill="#6053FD"/>
<rect width="4" height="4" transform="matrix(-1 0 0 1 129 335)" fill="#6053FD"/>
<rect x="125" y="306" width="4" height="4" fill="#6053FD"/>
<rect width="4" height="4" transform="matrix(-1 0 0 1 125 339)" fill="#6053FD"/>
<rect x="129" y="310" width="4" height="25" fill="#6053FD"/>
</svg>
