<?xml version="1.0" encoding="UTF-8"?>
<svg version="1.1" xmlns="http://www.w3.org/2000/svg" width="753" height="348">
<path d="M0 0 C183.15 0 366.3 0 555 0 C555 1.32 555 2.64 555 4 C371.85 4 188.7 4 0 4 C0 2.68 0 1.36 0 0 Z " fill="#6053FD" transform="translate(0,0)"/>
<path d="M0 0 C106.92 0 213.84 0 324 0 C324 1.32 324 2.64 324 4 C218.4 4 112.8 4 4 4 C4 37 4 70 4 104 C33.7 104 63.4 104 94 104 C94 105.32 94 106.64 94 108 C62.98 108 31.96 108 0 108 C0 72.36 0 36.72 0 0 Z " fill="#6053FD" transform="translate(231,45)"/>
<path d="M0 0 C62.7 0 125.4 0 190 0 C190 35.64 190 71.28 190 108 C139.18 108 88.36 108 36 108 C36 106.68 36 105.36 36 104 C85.5 104 135 104 186 104 C186 71 186 38 186 4 C124.62 4 63.24 4 0 4 C0 2.68 0 1.36 0 0 Z " fill="#6053FD" transform="translate(0,45)"/>
<path d="M0 0 C95.37 0 190.74 0 289 0 C289 1.32 289 2.64 289 4 C193.63 4 98.26 4 0 4 C0 2.68 0 1.36 0 0 Z " fill="#6053FD" transform="translate(245,343)"/>
<path d="M0 0 C95.37 0 190.74 0 289 0 C289 1.32 289 2.64 289 4 C193.63 4 98.26 4 0 4 C0 2.68 0 1.36 0 0 Z " fill="#6053FD" transform="translate(245,298)"/>
<path d="M0 0 C95.37 0 190.74 0 289 0 C289 1.32 289 2.64 289 4 C193.63 4 98.26 4 0 4 C0 2.68 0 1.36 0 0 Z " fill="#6053FD" transform="translate(449,194)"/>
<path d="M0 0 C95.37 0 190.74 0 289 0 C289 1.32 289 2.64 289 4 C193.63 4 98.26 4 0 4 C0 2.68 0 1.36 0 0 Z " fill="#6053FD" transform="translate(36,194)"/>
<path d="M0 0 C95.37 0 190.74 0 289 0 C289 1.32 289 2.64 289 4 C193.63 4 98.26 4 0 4 C0 2.68 0 1.36 0 0 Z " fill="#6053FD" transform="translate(449,149)"/>
<path d="M0 0 C39.93 0 79.86 0 121 0 C121 1.32 121 2.64 121 4 C81.07 4 41.14 4 0 4 C0 2.68 0 1.36 0 0 Z " fill="#6053FD" transform="translate(0,343)"/>
<path d="M0 0 C39.93 0 79.86 0 121 0 C121 1.32 121 2.64 121 4 C81.07 4 41.14 4 0 4 C0 2.68 0 1.36 0 0 Z " fill="#6053FD" transform="translate(0,298)"/>
<path d="M0 0 C1.32 0 2.64 0 4 0 C4 8.25 4 16.5 4 25 C2.68 25 1.36 25 0 25 C0 16.75 0 8.5 0 0 Z " fill="#6053FD" transform="translate(542,310)"/>
<path d="M0 0 C1.32 0 2.64 0 4 0 C4 8.25 4 16.5 4 25 C2.68 25 1.36 25 0 25 C0 16.75 0 8.5 0 0 Z " fill="#6053FD" transform="translate(233,310)"/>
<path d="M0 0 C1.32 0 2.64 0 4 0 C4 8.25 4 16.5 4 25 C2.68 25 1.36 25 0 25 C0 16.75 0 8.5 0 0 Z " fill="#6053FD" transform="translate(129,310)"/>
<path d="M0 0 C1.32 0 2.64 0 4 0 C4 8.25 4 16.5 4 25 C2.68 25 1.36 25 0 25 C0 16.75 0 8.5 0 0 Z " fill="#6053FD" transform="translate(746,161)"/>
<path d="M0 0 C1.32 0 2.64 0 4 0 C4 8.25 4 16.5 4 25 C2.68 25 1.36 25 0 25 C0 16.75 0 8.5 0 0 Z " fill="#6053FD" transform="translate(437,161)"/>
<path d="M0 0 C1.32 0 2.64 0 4 0 C4 8.25 4 16.5 4 25 C2.68 25 1.36 25 0 25 C0 16.75 0 8.5 0 0 Z " fill="#6053FD" transform="translate(333,161)"/>
<path d="M0 0 C1.32 0 2.64 0 4 0 C4 8.25 4 16.5 4 25 C2.68 25 1.36 25 0 25 C0 16.75 0 8.5 0 0 Z " fill="#6053FD" transform="translate(24,161)"/>
<path d="M0 0 C1.32 0 2.64 0 4 0 C4 8.25 4 16.5 4 25 C2.68 25 1.36 25 0 25 C0 16.75 0 8.5 0 0 Z " fill="#6053FD" transform="translate(563,12)"/>
<path d="M0 0 C1.32 0 2.64 0 4 0 C4 1.32 4 2.64 4 4 C2.68 4 1.36 4 0 4 C0 2.68 0 1.36 0 0 Z " fill="#6053FD" transform="translate(534,339)"/>
<path d="M0 0 C1.32 0 2.64 0 4 0 C4 1.32 4 2.64 4 4 C2.68 4 1.36 4 0 4 C0 2.68 0 1.36 0 0 Z " fill="#6053FD" transform="translate(241,339)"/>
<path d="M0 0 C1.32 0 2.64 0 4 0 C4 1.32 4 2.64 4 4 C2.68 4 1.36 4 0 4 C0 2.68 0 1.36 0 0 Z " fill="#6053FD" transform="translate(121,339)"/>
<path d="M0 0 C1.32 0 2.64 0 4 0 C4 1.32 4 2.64 4 4 C2.68 4 1.36 4 0 4 C0 2.68 0 1.36 0 0 Z " fill="#6053FD" transform="translate(538,335)"/>
<path d="M0 0 C1.32 0 2.64 0 4 0 C4 1.32 4 2.64 4 4 C2.68 4 1.36 4 0 4 C0 2.68 0 1.36 0 0 Z " fill="#6053FD" transform="translate(237,335)"/>
<path d="M0 0 C1.32 0 2.64 0 4 0 C4 1.32 4 2.64 4 4 C2.68 4 1.36 4 0 4 C0 2.68 0 1.36 0 0 Z " fill="#6053FD" transform="translate(125,335)"/>
<path d="M0 0 C1.32 0 2.64 0 4 0 C4 1.32 4 2.64 4 4 C2.68 4 1.36 4 0 4 C0 2.68 0 1.36 0 0 Z " fill="#6053FD" transform="translate(538,306)"/>
<path d="M0 0 C1.32 0 2.64 0 4 0 C4 1.32 4 2.64 4 4 C2.68 4 1.36 4 0 4 C0 2.68 0 1.36 0 0 Z " fill="#6053FD" transform="translate(237,306)"/>
<path d="M0 0 C1.32 0 2.64 0 4 0 C4 1.32 4 2.64 4 4 C2.68 4 1.36 4 0 4 C0 2.68 0 1.36 0 0 Z " fill="#6053FD" transform="translate(125,306)"/>
<path d="M0 0 C1.32 0 2.64 0 4 0 C4 1.32 4 2.64 4 4 C2.68 4 1.36 4 0 4 C0 2.68 0 1.36 0 0 Z " fill="#6053FD" transform="translate(534,302)"/>
<path d="M0 0 C1.32 0 2.64 0 4 0 C4 1.32 4 2.64 4 4 C2.68 4 1.36 4 0 4 C0 2.68 0 1.36 0 0 Z " fill="#6053FD" transform="translate(241,302)"/>
<path d="M0 0 C1.32 0 2.64 0 4 0 C4 1.32 4 2.64 4 4 C2.68 4 1.36 4 0 4 C0 2.68 0 1.36 0 0 Z " fill="#6053FD" transform="translate(121,302)"/>
<path d="M0 0 C1.32 0 2.64 0 4 0 C4 1.32 4 2.64 4 4 C2.68 4 1.36 4 0 4 C0 2.68 0 1.36 0 0 Z " fill="#6053FD" transform="translate(738,190)"/>
<path d="M0 0 C1.32 0 2.64 0 4 0 C4 1.32 4 2.64 4 4 C2.68 4 1.36 4 0 4 C0 2.68 0 1.36 0 0 Z " fill="#6053FD" transform="translate(445,190)"/>
<path d="M0 0 C1.32 0 2.64 0 4 0 C4 1.32 4 2.64 4 4 C2.68 4 1.36 4 0 4 C0 2.68 0 1.36 0 0 Z " fill="#6053FD" transform="translate(325,190)"/>
<path d="M0 0 C1.32 0 2.64 0 4 0 C4 1.32 4 2.64 4 4 C2.68 4 1.36 4 0 4 C0 2.68 0 1.36 0 0 Z " fill="#6053FD" transform="translate(32,190)"/>
<path d="M0 0 C1.32 0 2.64 0 4 0 C4 1.32 4 2.64 4 4 C2.68 4 1.36 4 0 4 C0 2.68 0 1.36 0 0 Z " fill="#6053FD" transform="translate(742,186)"/>
<path d="M0 0 C1.32 0 2.64 0 4 0 C4 1.32 4 2.64 4 4 C2.68 4 1.36 4 0 4 C0 2.68 0 1.36 0 0 Z " fill="#6053FD" transform="translate(441,186)"/>
<path d="M0 0 C1.32 0 2.64 0 4 0 C4 1.32 4 2.64 4 4 C2.68 4 1.36 4 0 4 C0 2.68 0 1.36 0 0 Z " fill="#6053FD" transform="translate(329,186)"/>
<path d="M0 0 C1.32 0 2.64 0 4 0 C4 1.32 4 2.64 4 4 C2.68 4 1.36 4 0 4 C0 2.68 0 1.36 0 0 Z " fill="#6053FD" transform="translate(28,186)"/>
<path d="M0 0 C1.32 0 2.64 0 4 0 C4 1.32 4 2.64 4 4 C2.68 4 1.36 4 0 4 C0 2.68 0 1.36 0 0 Z " fill="#6053FD" transform="translate(742,157)"/>
<path d="M0 0 C1.32 0 2.64 0 4 0 C4 1.32 4 2.64 4 4 C2.68 4 1.36 4 0 4 C0 2.68 0 1.36 0 0 Z " fill="#6053FD" transform="translate(441,157)"/>
<path d="M0 0 C1.32 0 2.64 0 4 0 C4 1.32 4 2.64 4 4 C2.68 4 1.36 4 0 4 C0 2.68 0 1.36 0 0 Z " fill="#6053FD" transform="translate(329,157)"/>
<path d="M0 0 C1.32 0 2.64 0 4 0 C4 1.32 4 2.64 4 4 C2.68 4 1.36 4 0 4 C0 2.68 0 1.36 0 0 Z " fill="#6053FD" transform="translate(28,157)"/>
<path d="M0 0 C1.32 0 2.64 0 4 0 C4 1.32 4 2.64 4 4 C2.68 4 1.36 4 0 4 C0 2.68 0 1.36 0 0 Z " fill="#6053FD" transform="translate(738,153)"/>
<path d="M0 0 C1.32 0 2.64 0 4 0 C4 1.32 4 2.64 4 4 C2.68 4 1.36 4 0 4 C0 2.68 0 1.36 0 0 Z " fill="#6053FD" transform="translate(445,153)"/>
<path d="M0 0 C1.32 0 2.64 0 4 0 C4 1.32 4 2.64 4 4 C2.68 4 1.36 4 0 4 C0 2.68 0 1.36 0 0 Z " fill="#6053FD" transform="translate(325,153)"/>
<path d="M0 0 C1.32 0 2.64 0 4 0 C4 1.32 4 2.64 4 4 C2.68 4 1.36 4 0 4 C0 2.68 0 1.36 0 0 Z " fill="#6053FD" transform="translate(32,153)"/>
<path d="M0 0 C1.32 0 2.64 0 4 0 C4 1.32 4 2.64 4 4 C2.68 4 1.36 4 0 4 C0 2.68 0 1.36 0 0 Z " fill="#6053FD" transform="translate(555,41)"/>
<path d="M0 0 C1.32 0 2.64 0 4 0 C4 1.32 4 2.64 4 4 C2.68 4 1.36 4 0 4 C0 2.68 0 1.36 0 0 Z " fill="#6053FD" transform="translate(559,37)"/>
<path d="M0 0 C1.32 0 2.64 0 4 0 C4 1.32 4 2.64 4 4 C2.68 4 1.36 4 0 4 C0 2.68 0 1.36 0 0 Z " fill="#6053FD" transform="translate(559,8)"/>
<path d="M0 0 C1.32 0 2.64 0 4 0 C4 1.32 4 2.64 4 4 C2.68 4 1.36 4 0 4 C0 2.68 0 1.36 0 0 Z " fill="#6053FD" transform="translate(555,4)"/>
</svg>
