<?xml version="1.0" encoding="UTF-8"?>
<svg version="1.1" xmlns="http://www.w3.org/2000/svg" width="850" height="348">
<path d="M0 0 C276.87 0 553.74 0 839 0 C839 1.32 839 2.64 839 4 C562.13 4 285.26 4 0 4 C0 2.68 0 1.36 0 0 Z " fill="#6053FD" transform="translate(11,344)"/>
<path d="M0 0 C276.87 0 553.74 0 839 0 C839 1.32 839 2.64 839 4 C562.13 4 285.26 4 0 4 C0 2.68 0 1.36 0 0 Z " fill="#6053FD" transform="translate(11,299)"/>
<path d="M0 0 C1.32 0 2.64 0 4 0 C4 46.53 4 93.06 4 141 C-146.81 141 -297.62 141 -453 141 C-453 139.68 -453 138.36 -453 137 C-303.51 137 -154.02 137 0 137 C0 91.79 0 46.58 0 0 Z " fill="#6053FD" transform="translate(748,13)"/>
<path d="M0 0 C183.15 0 366.3 0 555 0 C555 1.32 555 2.64 555 4 C371.85 4 188.7 4 0 4 C0 2.68 0 1.36 0 0 Z " fill="#6053FD" transform="translate(295,195)"/>
<path d="M0 0 C95.37 0 190.74 0 289 0 C289 1.32 289 2.64 289 4 C193.63 4 98.26 4 0 4 C0 2.68 0 1.36 0 0 Z " fill="#6053FD" transform="translate(347,46)"/>
<path d="M0 0 C95.37 0 190.74 0 289 0 C289 1.32 289 2.64 289 4 C193.63 4 98.26 4 0 4 C0 2.68 0 1.36 0 0 Z " fill="#6053FD" transform="translate(347,1)"/>
<path d="M0 0 C1.32 0 2.64 0 4 0 C4 45.21 4 90.42 4 137 C21.49 137 38.98 137 57 137 C57 138.32 57 139.64 57 141 C38.19 141 19.38 141 0 141 C0 94.47 0 47.94 0 0 Z " fill="#6053FD" transform="translate(793,13)"/>
<path d="M0 0 C1.32 0 2.64 0 4 0 C4 8.25 4 16.5 4 25 C2.68 25 1.36 25 0 25 C0 16.75 0 8.5 0 0 Z " fill="#6053FD" transform="translate(283,162)"/>
<path d="M0 0 C1.32 0 2.64 0 4 0 C4 8.25 4 16.5 4 25 C2.68 25 1.36 25 0 25 C0 16.75 0 8.5 0 0 Z " fill="#6053FD" transform="translate(644,13)"/>
<path d="M0 0 C1.32 0 2.64 0 4 0 C4 8.25 4 16.5 4 25 C2.68 25 1.36 25 0 25 C0 16.75 0 8.5 0 0 Z " fill="#6053FD" transform="translate(335,13)"/>
<path d="M0 0 C8.25 0 16.5 0 25 0 C25 1.32 25 2.64 25 4 C16.75 4 8.5 4 0 4 C0 2.68 0 1.36 0 0 Z " fill="#6053FD" transform="translate(760,1)"/>
<path d="M0 0 C0.99 0 1.98 0 3 0 C3 8.25 3 16.5 3 25 C2.01 25 1.02 25 0 25 C0 16.75 0 8.5 0 0 Z " fill="#6053FD" transform="translate(0,311)"/>
<path d="M0 0 C1.32 0 2.64 0 4 0 C4 1.32 4 2.64 4 4 C2.68 4 1.36 4 0 4 C0 2.68 0 1.36 0 0 Z " fill="#6053FD" transform="translate(7,340)"/>
<path d="M0 0 C1.32 0 2.64 0 4 0 C4 1.32 4 2.64 4 4 C2.68 4 1.36 4 0 4 C0 2.68 0 1.36 0 0 Z " fill="#6053FD" transform="translate(3,336)"/>
<path d="M0 0 C1.32 0 2.64 0 4 0 C4 1.32 4 2.64 4 4 C2.68 4 1.36 4 0 4 C0 2.68 0 1.36 0 0 Z " fill="#6053FD" transform="translate(3,307)"/>
<path d="M0 0 C1.32 0 2.64 0 4 0 C4 1.32 4 2.64 4 4 C2.68 4 1.36 4 0 4 C0 2.68 0 1.36 0 0 Z " fill="#6053FD" transform="translate(7,303)"/>
<path d="M0 0 C1.32 0 2.64 0 4 0 C4 1.32 4 2.64 4 4 C2.68 4 1.36 4 0 4 C0 2.68 0 1.36 0 0 Z " fill="#6053FD" transform="translate(291,191)"/>
<path d="M0 0 C1.32 0 2.64 0 4 0 C4 1.32 4 2.64 4 4 C2.68 4 1.36 4 0 4 C0 2.68 0 1.36 0 0 Z " fill="#6053FD" transform="translate(287,187)"/>
<path d="M0 0 C1.32 0 2.64 0 4 0 C4 1.32 4 2.64 4 4 C2.68 4 1.36 4 0 4 C0 2.68 0 1.36 0 0 Z " fill="#6053FD" transform="translate(287,158)"/>
<path d="M0 0 C1.32 0 2.64 0 4 0 C4 1.32 4 2.64 4 4 C2.68 4 1.36 4 0 4 C0 2.68 0 1.36 0 0 Z " fill="#6053FD" transform="translate(291,154)"/>
<path d="M0 0 C1.32 0 2.64 0 4 0 C4 1.32 4 2.64 4 4 C2.68 4 1.36 4 0 4 C0 2.68 0 1.36 0 0 Z " fill="#6053FD" transform="translate(636,42)"/>
<path d="M0 0 C1.32 0 2.64 0 4 0 C4 1.32 4 2.64 4 4 C2.68 4 1.36 4 0 4 C0 2.68 0 1.36 0 0 Z " fill="#6053FD" transform="translate(343,42)"/>
<path d="M0 0 C1.32 0 2.64 0 4 0 C4 1.32 4 2.64 4 4 C2.68 4 1.36 4 0 4 C0 2.68 0 1.36 0 0 Z " fill="#6053FD" transform="translate(640,38)"/>
<path d="M0 0 C1.32 0 2.64 0 4 0 C4 1.32 4 2.64 4 4 C2.68 4 1.36 4 0 4 C0 2.68 0 1.36 0 0 Z " fill="#6053FD" transform="translate(339,38)"/>
<path d="M0 0 C1.32 0 2.64 0 4 0 C4 1.32 4 2.64 4 4 C2.68 4 1.36 4 0 4 C0 2.68 0 1.36 0 0 Z " fill="#6053FD" transform="translate(789,9)"/>
<path d="M0 0 C1.32 0 2.64 0 4 0 C4 1.32 4 2.64 4 4 C2.68 4 1.36 4 0 4 C0 2.68 0 1.36 0 0 Z " fill="#6053FD" transform="translate(752,9)"/>
<path d="M0 0 C1.32 0 2.64 0 4 0 C4 1.32 4 2.64 4 4 C2.68 4 1.36 4 0 4 C0 2.68 0 1.36 0 0 Z " fill="#6053FD" transform="translate(640,9)"/>
<path d="M0 0 C1.32 0 2.64 0 4 0 C4 1.32 4 2.64 4 4 C2.68 4 1.36 4 0 4 C0 2.68 0 1.36 0 0 Z " fill="#6053FD" transform="translate(339,9)"/>
<path d="M0 0 C1.32 0 2.64 0 4 0 C4 1.32 4 2.64 4 4 C2.68 4 1.36 4 0 4 C0 2.68 0 1.36 0 0 Z " fill="#6053FD" transform="translate(785,5)"/>
<path d="M0 0 C1.32 0 2.64 0 4 0 C4 1.32 4 2.64 4 4 C2.68 4 1.36 4 0 4 C0 2.68 0 1.36 0 0 Z " fill="#6053FD" transform="translate(756,5)"/>
<path d="M0 0 C1.32 0 2.64 0 4 0 C4 1.32 4 2.64 4 4 C2.68 4 1.36 4 0 4 C0 2.68 0 1.36 0 0 Z " fill="#6053FD" transform="translate(636,5)"/>
<path d="M0 0 C1.32 0 2.64 0 4 0 C4 1.32 4 2.64 4 4 C2.68 4 1.36 4 0 4 C0 2.68 0 1.36 0 0 Z " fill="#6053FD" transform="translate(343,5)"/>
</svg>
