<?xml version="1.0" encoding="UTF-8"?>
<svg version="1.1" xmlns="http://www.w3.org/2000/svg" width="225" height="224">
<path d="M0 0 C2.3664856 -0.36076355 2.3664856 -0.36076355 5.36767578 -0.34057617 C6.48868683 -0.34034958 7.60969788 -0.34012299 8.76467896 -0.33988953 C9.97928802 -0.32440567 11.19389709 -0.30892181 12.4453125 -0.29296875 C14.30553543 -0.28660149 14.30553543 -0.28660149 16.20333862 -0.28010559 C19.50135463 -0.26613216 22.7989335 -0.23917361 26.09680176 -0.20599365 C29.46161542 -0.17531238 32.82649304 -0.16160446 36.19140625 -0.14648438 C42.79444271 -0.1133473 49.39718558 -0.06309697 56 0 C57.32229189 2.64458379 57.09677194 4.67761301 57.0625 7.625 C57.05347656 8.62789062 57.04445312 9.63078125 57.03515625 10.6640625 C57.01775391 11.82035156 57.01775391 11.82035156 57 13 C57.81267334 13.02505615 58.62534668 13.0501123 59.46264648 13.07592773 C63.12110752 13.19149118 66.77928528 13.31439584 70.4375 13.4375 C71.71689453 13.47681641 72.99628906 13.51613281 74.31445312 13.55664062 C75.52939453 13.59853516 76.74433594 13.64042969 77.99609375 13.68359375 C79.68496704 13.73858032 79.68496704 13.73858032 81.40795898 13.79467773 C84 14 84 14 85 15 C85.07244053 17.01964199 85.08377188 19.04167124 85.0625 21.0625 C85.05347656 22.16722656 85.04445312 23.27195312 85.03515625 24.41015625 C85.01775391 25.69212891 85.01775391 25.69212891 85 27 C86.39025391 27.07347656 86.39025391 27.07347656 87.80859375 27.1484375 C89.60490234 27.26058594 89.60490234 27.26058594 91.4375 27.375 C93.22994141 27.47941406 93.22994141 27.47941406 95.05859375 27.5859375 C96.02925781 27.72257812 96.99992188 27.85921875 98 28 C99.32229189 30.64458379 99.09677194 32.67761301 99.0625 35.625 C99.05347656 36.62789062 99.04445312 37.63078125 99.03515625 38.6640625 C99.01775391 39.82035156 99.01775391 39.82035156 99 41 C99.92683594 41.04898438 100.85367188 41.09796875 101.80859375 41.1484375 C103.00613281 41.22320312 104.20367187 41.29796875 105.4375 41.375 C107.22994141 41.47941406 107.22994141 41.47941406 109.05859375 41.5859375 C110.51458984 41.79089844 110.51458984 41.79089844 112 42 C113.76020693 45.52041387 113.44092807 49.55272219 113.625 53.4375 C113.69255493 54.83005005 113.69255493 54.83005005 113.76147461 56.25073242 C114.14017597 65.54505573 113.68852736 74.73136252 113 84 C113.60328125 83.98839844 114.2065625 83.97679688 114.828125 83.96484375 C115.62734375 83.95582031 116.4265625 83.94679688 117.25 83.9375 C118.03890625 83.92589844 118.8278125 83.91429688 119.640625 83.90234375 C121.93924671 83.99748538 123.83050218 84.23683594 126 85 C127.18614696 87.37229392 127.12575995 88.80123489 127.12698364 91.44776917 C127.12980347 92.38304443 127.13262329 93.3183197 127.13552856 94.28193665 C127.13249222 95.82569221 127.13249222 95.82569221 127.12939453 97.40063477 C127.13202301 99.0226329 127.13202301 99.0226329 127.13470459 100.67739868 C127.13911975 104.26541734 127.13618648 107.85338705 127.1328125 111.44140625 C127.13348559 113.9247997 127.13445565 116.40819308 127.13571167 118.8915863 C127.13737754 124.7693858 127.1338684 130.6471674 127.1285609 136.52496427 C127.12480437 141.22001923 127.12613541 145.91505324 127.13037109 150.61010742 C127.13615011 157.0703435 127.1370848 163.53055926 127.13381577 169.99079704 C127.13314632 172.46008242 127.13397552 174.92936865 127.13629532 177.39865303 C127.13882023 180.84204557 127.13498366 184.28537217 127.12939453 187.72875977 C127.13141876 188.75995438 127.13344299 189.79114899 127.13552856 190.85359192 C127.13270874 191.78604736 127.12988892 192.71850281 127.12698364 193.67921448 C127.1264181 194.90176359 127.1264181 194.90176359 127.12584114 196.14901066 C127 198 127 198 126 199 C123.66839945 199.09909302 121.33370058 199.12970504 119 199.125 C117.72125 199.12757813 116.4425 199.13015625 115.125 199.1328125 C112 199 112 199 111 198 C110.92741054 195.81360547 110.91626217 193.62499611 110.9375 191.4375 C110.94652344 190.23996094 110.95554688 189.04242188 110.96484375 187.80859375 C110.98224609 186.41833984 110.98224609 186.41833984 111 185 C109.60974609 185.01740234 109.60974609 185.01740234 108.19140625 185.03515625 C106.39509766 185.04869141 106.39509766 185.04869141 104.5625 185.0625 C103.36753906 185.07410156 102.17257813 185.08570313 100.94140625 185.09765625 C98 185 98 185 97 184 C96.85606543 179.66469082 96.95787939 175.33842269 97 171 C92.71 171 88.42 171 84 171 C84.33 171.99 84.66 172.98 85 174 C85.09267588 175.70632648 85.12998202 177.41616587 85.125 179.125 C85.12757813 180.01445312 85.13015625 180.90390625 85.1328125 181.8203125 C85 184 85 184 84 185 C81.64686445 185.07271741 79.29166332 185.08370868 76.9375 185.0625 C75.64714844 185.05347656 74.35679687 185.04445312 73.02734375 185.03515625 C71.52880859 185.01775391 71.52880859 185.01775391 70 185 C70.08378906 185.59167969 70.16757813 186.18335938 70.25390625 186.79296875 C70.40666016 187.97826172 70.40666016 187.97826172 70.5625 189.1875 C70.66691406 189.96480469 70.77132812 190.74210938 70.87890625 191.54296875 C71.0099664 194.20222149 70.56075096 196.40770686 70 199 C66.03069011 199.02465881 62.06140966 199.04284023 58.09204102 199.05493164 C56.74079614 199.05997057 55.38955674 199.06680177 54.03833008 199.07543945 C52.09979566 199.08752419 50.161222 199.09269828 48.22265625 199.09765625 C47.05484619 199.10289307 45.88703613 199.10812988 44.68383789 199.11352539 C42 199 42 199 41 198 C40.91241997 196.00035018 40.89303424 193.9976389 40.90234375 191.99609375 C40.90484131 190.90224365 40.90733887 189.80839355 40.90991211 188.68139648 C40.91901611 187.28091064 40.92812012 185.8804248 40.9375 184.4375 C40.958125 180.003125 40.97875 175.56875 41 171 C32.09 171 23.18 171 14 171 C14 180.24 14 189.48 14 199 C4.76 199 -4.48 199 -14 199 C-16.08441299 192.74676102 -16.04415948 191.056125 -15 185 C-16.39025391 185.01740234 -16.39025391 185.01740234 -17.80859375 185.03515625 C-19.60490234 185.04869141 -19.60490234 185.04869141 -21.4375 185.0625 C-22.63246094 185.07410156 -23.82742187 185.08570313 -25.05859375 185.09765625 C-28 185 -28 185 -29 184 C-29.14393457 179.66469082 -29.04212061 175.33842269 -29 171 C-33.29 171 -37.58 171 -42 171 C-41.979375 173.124375 -41.95875 175.24875 -41.9375 177.4375 C-41.91626217 179.62499611 -41.92741054 181.81360547 -42 184 C-43 185 -43 185 -45.94140625 185.09765625 C-47.73384766 185.08025391 -47.73384766 185.08025391 -49.5625 185.0625 C-51.35880859 185.04896484 -51.35880859 185.04896484 -53.19140625 185.03515625 C-54.11824219 185.02355469 -55.04507813 185.01195312 -56 185 C-55.98839844 185.92683594 -55.97679688 186.85367188 -55.96484375 187.80859375 C-55.95582031 189.00613281 -55.94679688 190.20367187 -55.9375 191.4375 C-55.92589844 192.63246094 -55.91429688 193.82742187 -55.90234375 195.05859375 C-56 198 -56 198 -57 199 C-59.18639453 199.07258946 -61.37500389 199.08373783 -63.5625 199.0625 C-64.76003906 199.05347656 -65.95757812 199.04445312 -67.19140625 199.03515625 C-68.11824219 199.02355469 -69.04507813 199.01195312 -70 199 C-72.03051349 193.11012065 -72.29079698 187.81558471 -72.2746582 181.61425781 C-72.27976913 180.5939296 -72.28488007 179.57360138 -72.29014587 178.52235413 C-72.3039931 175.16588401 -72.30308961 171.80962019 -72.30078125 168.453125 C-72.30466911 166.11618982 -72.30900397 163.77925534 -72.31376648 161.44232178 C-72.32121691 156.55348413 -72.32094464 151.66471872 -72.31567383 146.77587891 C-72.30986214 140.50200819 -72.32685699 134.22843105 -72.3500185 127.95460892 C-72.3647213 123.13344588 -72.36563258 118.31235427 -72.36250877 113.49117279 C-72.36302311 111.17704433 -72.36828185 108.86291198 -72.37832069 106.54880524 C-72.39060896 103.32172766 -72.38394055 100.0952318 -72.37231445 96.86816406 C-72.37995819 95.90811966 -72.38760193 94.94807526 -72.39547729 93.9589386 C-72.38846298 93.08144455 -72.38144867 92.2039505 -72.3742218 91.29986572 C-72.37438954 90.53741673 -72.37455729 89.77496773 -72.37473011 88.98941422 C-71.89523276 86.44379856 -71.05200184 85.54138703 -69 84 C-66.30078125 83.92578125 -66.30078125 83.92578125 -63.3125 84.3125 C-62.31863281 84.43238281 -61.32476562 84.55226563 -60.30078125 84.67578125 C-59.54152344 84.78277344 -58.78226563 84.88976562 -58 85 C-58.00523682 83.76846191 -58.01047363 82.53692383 -58.01586914 81.26806641 C-58.03393553 76.70964278 -58.04543804 72.15122233 -58.05493164 67.59277344 C-58.0599681 65.61783313 -58.06679751 63.64289657 -58.07543945 61.66796875 C-58.08753508 58.83332395 -58.0932351 55.99872834 -58.09765625 53.1640625 C-58.10281754 52.27756012 -58.10797882 51.39105774 -58.11329651 50.47769165 C-58.11387171 44.22774341 -58.11387171 44.22774341 -57 42 C-52.38 42 -47.76 42 -43 42 C-43.33 40.68 -43.66 39.36 -44 38 C-44.4548495 30.909699 -44.4548495 30.909699 -43 28 C-38.38 28 -33.76 28 -29 28 C-29.185625 25.875625 -29.37125 23.75125 -29.5625 21.5625 C-29.75333792 19.378466 -29.90982004 17.19050021 -30 15 C-29 14 -29 14 -26.31616211 13.88647461 C-25.14835205 13.89171143 -23.98054199 13.89694824 -22.77734375 13.90234375 C-21.51728516 13.90556641 -20.25722656 13.90878906 -18.95898438 13.91210938 C-17.61848891 13.92046597 -16.27799412 13.92893093 -14.9375 13.9375 C-13.59310058 13.9425134 -12.2486994 13.94707658 -10.90429688 13.95117188 C-7.60282059 13.96300512 -4.30143197 13.97949029 -1 14 C-1.16113281 13.41347656 -1.32226562 12.82695312 -1.48828125 12.22265625 C-2.21062096 9.08516547 -2.17490384 6.20657046 -2 3 C-1.34 2.01 -0.68 1.02 0 0 Z " fill="#70FD4B" transform="translate(85,12)"/>
<path d="M0 0 C9.57 0 19.14 0 29 0 C29 4.62 29 9.24 29 14 C33.95 14 38.9 14 44 14 C44.83970643 19.41144142 44.93775473 22.37347162 44 28 C34.43 28 24.86 28 15 28 C15 37.57 15 47.14 15 57 C19.62 57 24.24 57 29 57 C29 61.62 29 66.24 29 71 C19.43 71 9.86 71 0 71 C0 66.38 0 61.76 0 57 C-4.62 57 -9.24 57 -14 57 C-14 42.81 -14 28.62 -14 14 C-9.38 14 -4.76 14 0 14 C0 9.38 0 4.76 0 0 Z " fill="#FAFDFA" transform="translate(154,55)"/>
<path d="M0 0 C9.57 0 19.14 0 29 0 C29 4.62 29 9.24 29 14 C33.62 14 38.24 14 43 14 C43 18.62 43 23.24 43 28 C33.76 28 24.52 28 15 28 C15 37.24 15 46.48 15 56 C19.29 56 23.58 56 28 56 C29 57 29 57 29.1328125 59.90625 C29.13023438 61.0921875 29.12765625 62.278125 29.125 63.5 C29.12886719 65.27890625 29.12886719 65.27890625 29.1328125 67.09375 C29 70 29 70 28 71 C25.92737924 71.08767112 23.85179706 71.10695873 21.77734375 71.09765625 C20.51728516 71.09443359 19.25722656 71.09121094 17.95898438 71.08789062 C16.61848891 71.07953403 15.27799412 71.07106907 13.9375 71.0625 C12.59310058 71.0574866 11.2486994 71.05292342 9.90429688 71.04882812 C6.60284567 71.03699497 3.3014174 71.01905886 0 71 C0 66.38 0 61.76 0 57 C-4.62 57 -9.24 57 -14 57 C-14 42.81 -14 28.62 -14 14 C-9.38 14 -4.76 14 0 14 C0 9.38 0 4.76 0 0 Z " fill="#FBFEFA" transform="translate(70,55)"/>
<path d="M0 0 C9.57 0 19.14 0 29 0 C29 4.29 29 8.58 29 13 C29.66 13.33 30.32 13.66 31 14 C30.01 14.495 30.01 14.495 29 15 C28.67 19.29 28.34 23.58 28 28 C18.76 28 9.52 28 0 28 C0 18.76 0 9.52 0 0 Z " fill="#3E60AC" transform="translate(169,83)"/>
<path d="M0 0 C6.6515625 -0.0309375 6.6515625 -0.0309375 13.4375 -0.0625 C14.83798584 -0.071604 16.23847168 -0.08070801 17.68139648 -0.09008789 C19.32217163 -0.09383423 19.32217163 -0.09383423 20.99609375 -0.09765625 C22.12200928 -0.10289307 23.2479248 -0.10812988 24.40795898 -0.11352539 C27 0 27 0 28 1 C28.08767112 3.07262076 28.10695873 5.14820294 28.09765625 7.22265625 C28.09443359 8.48271484 28.09121094 9.74277344 28.08789062 11.04101562 C28.07953403 12.38151109 28.07106907 13.72200588 28.0625 15.0625 C28.0574866 16.40689942 28.05292342 17.7513006 28.04882812 19.09570312 C28.03699488 22.39717941 28.02050971 25.69856803 28 29 C18.54523999 29.08836224 9.48334889 28.72948838 0 28 C0 18.76 0 9.52 0 0 Z " fill="#3E60AC" transform="translate(85,83)"/>
<path d="M0 0 C3.3 0 6.6 0 10 0 C10 0.99 10 1.98 10 3 C5.545 3.495 5.545 3.495 1 4 C1.00785522 5.76428345 1.00785522 5.76428345 1.01586914 7.56420898 C1.03391663 11.91202031 1.04543108 16.2598283 1.05493164 20.60766602 C1.05997244 22.4924373 1.06680498 24.37720465 1.07543945 26.26196289 C1.08751617 28.96501636 1.09323068 31.66801831 1.09765625 34.37109375 C1.10281754 35.21900986 1.10797882 36.06692596 1.11329651 36.9405365 C1.11349195 38.96071068 1.06206211 40.98077934 1 43 C-2.10017921 46.10017921 -7.63082901 44.63590242 -12 45 C-12.33 81.3 -12.66 117.6 -13 155 C-9.04 155 -5.08 155 -1 155 C-1.020625 153.2675 -1.04125 151.535 -1.0625 149.75 C-1.10545467 146.14180778 -0.88747193 143.54988771 0 140 C4.29 140.33 8.58 140.66 13 141 C12.814375 139.040625 12.62875 137.08125 12.4375 135.0625 C12.24641038 133.04544287 12.09002398 131.02408755 12 129 C13 128 13 128 16.59765625 127.90234375 C18.08596867 127.9090178 19.57426432 127.92097817 21.0625 127.9375 C21.82111328 127.94201172 22.57972656 127.94652344 23.36132812 127.95117188 C25.24091871 127.9629932 27.12046899 127.98092922 29 128 C30.40570876 132.53991867 29.61696372 136.33849636 29 141 C32.63 141 36.26 141 40 141 C40.33 140.01 40.66 139.02 41 138 C41.495 140.475 41.495 140.475 42 143 C39.85423363 143.02685938 37.70837355 143.04633088 35.5625 143.0625 C34.36753906 143.07410156 33.17257813 143.08570313 31.94140625 143.09765625 C29 143 29 143 28 142 C27.85606543 137.66469082 27.95787939 133.33842269 28 129 C23.71 129 19.42 129 15 129 C15.020625 131.124375 15.04125 133.24875 15.0625 135.4375 C15.08373783 137.62499611 15.07258946 139.81360547 15 142 C14 143 14 143 11.05859375 143.09765625 C9.26615234 143.08025391 9.26615234 143.08025391 7.4375 143.0625 C5.64119141 143.04896484 5.64119141 143.04896484 3.80859375 143.03515625 C2.88175781 143.02355469 1.95492188 143.01195312 1 143 C1.01160156 143.92683594 1.02320312 144.85367188 1.03515625 145.80859375 C1.04417969 147.00613281 1.05320312 148.20367187 1.0625 149.4375 C1.07410156 150.63246094 1.08570312 151.82742187 1.09765625 153.05859375 C1 156 1 156 0 157 C-2.18639453 157.07258946 -4.37500389 157.08373783 -6.5625 157.0625 C-7.76003906 157.05347656 -8.95757812 157.04445312 -10.19140625 157.03515625 C-11.11824219 157.02355469 -12.04507812 157.01195312 -13 157 C-15.03051349 151.11012065 -15.29079698 145.81558471 -15.2746582 139.61425781 C-15.27976913 138.5939296 -15.28488007 137.57360138 -15.29014587 136.52235413 C-15.3039931 133.16588401 -15.30308961 129.80962019 -15.30078125 126.453125 C-15.30466911 124.11618982 -15.30900397 121.77925534 -15.31376648 119.44232178 C-15.32121691 114.55348413 -15.32094464 109.66471872 -15.31567383 104.77587891 C-15.30986214 98.50200819 -15.32685699 92.22843105 -15.3500185 85.95460892 C-15.3647213 81.13344588 -15.36563258 76.31235427 -15.36250877 71.49117279 C-15.36302311 69.17704433 -15.36828185 66.86291198 -15.37832069 64.54880524 C-15.39060896 61.32172766 -15.38394055 58.0952318 -15.37231445 54.86816406 C-15.37995819 53.90811966 -15.38760193 52.94807526 -15.39547729 51.9589386 C-15.38846298 51.08144455 -15.38144867 50.2039505 -15.3742218 49.29986572 C-15.37438954 48.53741673 -15.37455729 47.77496773 -15.37473011 46.98941422 C-14.89523276 44.44379856 -14.05200184 43.54138703 -12 42 C-9.30078125 41.92578125 -9.30078125 41.92578125 -6.3125 42.3125 C-5.31863281 42.43238281 -4.32476562 42.55226562 -3.30078125 42.67578125 C-2.54152344 42.78277344 -1.78226563 42.88976562 -1 43 C-1.00523682 41.76846191 -1.01047363 40.53692383 -1.01586914 39.26806641 C-1.03393553 34.70964278 -1.04543804 30.15122233 -1.05493164 25.59277344 C-1.0599681 23.61783313 -1.06679751 21.64289657 -1.07543945 19.66796875 C-1.08753508 16.83332395 -1.0932351 13.99872834 -1.09765625 11.1640625 C-1.10281754 10.27756012 -1.10797882 9.39105774 -1.11329651 8.47769165 C-1.11387171 2.22774341 -1.11387171 2.22774341 0 0 Z " fill="#77E356" transform="translate(28,54)"/>
<path d="M0 0 C0.29197266 0.97066406 0.29197266 0.97066406 0.58984375 1.9609375 C1.05519531 2.63382813 1.52054688 3.30671875 2 4 C5.07934975 4.63157354 5.07934975 4.63157354 8.5625 4.625 C10.71109998 4.68618686 12.86021132 4.7962106 15 5 C17.13079691 9.26159382 16.04502317 15.40763702 16 20 C11.05 20 6.1 20 1 20 C1 15.38 1 10.76 1 6 C-8.57 6 -18.14 6 -28 6 C-28 5.34 -28 4.68 -28 4 C-20.08 4 -12.16 4 -4 4 C-3.67 3.34 -3.34 2.68 -3 2 C-3 2.66 -3 3.32 -3 4 C-2.34 4 -1.68 4 -1 4 C-0.67 2.68 -0.34 1.36 0 0 Z " fill="#71FA4C" transform="translate(182,49)"/>
<path d="M0 0 C1.15435547 -0.00128906 2.30871094 -0.00257813 3.49804688 -0.00390625 C5.30692383 0.00189453 5.30692383 0.00189453 7.15234375 0.0078125 C8.96702148 0.00201172 8.96702148 0.00201172 10.81835938 -0.00390625 C12.54795898 -0.00197266 12.54795898 -0.00197266 14.3125 0 C15.37218994 0.00112793 16.43187988 0.00225586 17.52368164 0.00341797 C20.08984375 0.1328125 20.08984375 0.1328125 22.08984375 1.1328125 C22.41984375 10.0428125 22.74984375 18.9528125 23.08984375 28.1328125 C31.66984375 28.1328125 40.24984375 28.1328125 49.08984375 28.1328125 C49.08984375 24.8328125 49.08984375 21.5328125 49.08984375 18.1328125 C50.07984375 19.1228125 50.07984375 19.1228125 51.08984375 20.1328125 C51.06640625 22.515625 51.06640625 22.515625 50.71484375 25.2578125 C50.60398437 26.16789062 50.493125 27.07796875 50.37890625 28.015625 C50.28351563 28.71429688 50.188125 29.41296875 50.08984375 30.1328125 C46.12053386 30.15747131 42.15125341 30.17565273 38.18188477 30.18774414 C36.83063989 30.19278307 35.47940049 30.19961427 34.12817383 30.20825195 C32.18963941 30.22033669 30.25106575 30.22551078 28.3125 30.23046875 C26.56078491 30.23832397 26.56078491 30.23832397 24.77368164 30.24633789 C22.08984375 30.1328125 22.08984375 30.1328125 21.08984375 29.1328125 C21.00226372 27.13316268 20.98287799 25.1304514 20.9921875 23.12890625 C20.99468506 22.03505615 20.99718262 20.94120605 20.99975586 19.81420898 C21.00885986 18.41372314 21.01796387 17.0132373 21.02734375 15.5703125 C21.04796875 11.1359375 21.06859375 6.7015625 21.08984375 2.1328125 C12.17984375 2.1328125 3.26984375 2.1328125 -5.91015625 2.1328125 C-5.91015625 11.3728125 -5.91015625 20.6128125 -5.91015625 30.1328125 C-15.15015625 30.1328125 -24.39015625 30.1328125 -33.91015625 30.1328125 C-35.99456924 23.87957352 -35.95431573 22.1889375 -34.91015625 16.1328125 C-34.25015625 16.7928125 -33.59015625 17.4528125 -32.91015625 18.1328125 C-33.24015625 21.4328125 -33.57015625 24.7328125 -33.91015625 28.1328125 C-25.33015625 28.1328125 -16.75015625 28.1328125 -7.91015625 28.1328125 C-8.24015625 19.2228125 -8.57015625 10.3128125 -8.91015625 1.1328125 C-5.70156702 0.06328276 -3.37180397 0.00358512 0 0 Z " fill="#77D85C" transform="translate(104.91015625,180.8671875)"/>
<path d="M0 0 C3.3 0 6.6 0 10 0 C10 0.99 10 1.98 10 3 C5.545 3.495 5.545 3.495 1 4 C1.00785522 5.76428345 1.00785522 5.76428345 1.01586914 7.56420898 C1.03391663 11.91202031 1.04543108 16.2598283 1.05493164 20.60766602 C1.05997244 22.4924373 1.06680498 24.37720465 1.07543945 26.26196289 C1.08751617 28.96501636 1.09323068 31.66801831 1.09765625 34.37109375 C1.10281754 35.21900986 1.10797882 36.06692596 1.11329651 36.9405365 C1.11349195 38.96071068 1.06206211 40.98077934 1 43 C-1.6003975 45.6003975 -8.41298305 44.73569349 -12 45 C-12.97734856 56.98137252 -13.20954586 68.91735574 -13.31640625 80.93359375 C-13.33703096 82.90756103 -13.35802863 84.88152445 -13.37937927 86.85548401 C-13.43403134 91.99928617 -13.48368631 97.14312432 -13.53222656 102.2869873 C-13.58286245 107.55659102 -13.63832664 112.82614381 -13.69335938 118.09570312 C-13.80024311 128.3970917 -13.90183682 138.69852489 -14 149 C-14.33 149 -14.66 149 -15 149 C-15.06942177 135.4919292 -15.1227715 121.98390064 -15.15543652 108.47568798 C-15.17111178 102.20369873 -15.19238415 95.93183126 -15.22631836 89.65991211 C-15.25884522 83.61044933 -15.27683899 77.5611039 -15.28463173 71.51156044 C-15.29018723 69.20021021 -15.30103534 66.8888666 -15.31719017 64.57756615 C-15.33887547 61.34738512 -15.34197062 58.11769293 -15.34057617 54.88745117 C-15.351362 53.92576019 -15.36214783 52.96406921 -15.3732605 51.97323608 C-15.36913651 51.09404007 -15.36501251 50.21484406 -15.36076355 49.30900574 C-15.36352893 48.54483935 -15.36629431 47.78067297 -15.36914349 46.99335003 C-14.8966488 44.44191048 -14.05601893 43.54290188 -12 42 C-9.30078125 41.92578125 -9.30078125 41.92578125 -6.3125 42.3125 C-5.31863281 42.43238281 -4.32476562 42.55226562 -3.30078125 42.67578125 C-2.54152344 42.78277344 -1.78226563 42.88976562 -1 43 C-1.00523682 41.76846191 -1.01047363 40.53692383 -1.01586914 39.26806641 C-1.03393553 34.70964278 -1.04543804 30.15122233 -1.05493164 25.59277344 C-1.0599681 23.61783313 -1.06679751 21.64289657 -1.07543945 19.66796875 C-1.08753508 16.83332395 -1.0932351 13.99872834 -1.09765625 11.1640625 C-1.10281754 10.27756012 -1.10797882 9.39105774 -1.11329651 8.47769165 C-1.11387171 2.22774341 -1.11387171 2.22774341 0 0 Z " fill="#85D96B" transform="translate(28,54)"/>
<path d="M0 0 C4.62 0 9.24 0 14 0 C14 0.33 14 0.66 14 1 C9.71 1 5.42 1 1 1 C1 14.53 1 28.06 1 42 C5.95 42 10.9 42 16 42 C16 45.96 16 49.92 16 54 C24.25 54.33 32.5 54.66 41 55 C41 51.04 41 47.08 41 43 C36.71 43 32.42 43 28 43 C28 33.43 28 23.86 28 14 C28.33 14 28.66 14 29 14 C29 23.24 29 32.48 29 42 C33.29 42 37.58 42 42 42 C43 43 43 43 43.1328125 45.90625 C43.13023438 47.0921875 43.12765625 48.278125 43.125 49.5 C43.12886719 51.27890625 43.12886719 51.27890625 43.1328125 53.09375 C43 56 43 56 42 57 C39.92737924 57.08767112 37.85179706 57.10695873 35.77734375 57.09765625 C34.51728516 57.09443359 33.25722656 57.09121094 31.95898438 57.08789062 C30.61848891 57.07953403 29.27799412 57.07106907 27.9375 57.0625 C26.59310058 57.0574866 25.2486994 57.05292342 23.90429688 57.04882812 C20.60284567 57.03699497 17.3014174 57.01905886 14 57 C14 52.38 14 47.76 14 43 C9.38 43 4.76 43 0 43 C0 28.81 0 14.62 0 0 Z " fill="#C7EDCA" transform="translate(56,69)"/>
<path d="M0 0 C9.57 0 19.14 0 29 0 C29 4.62 29 9.24 29 14 C28.67 14 28.34 14 28 14 C27.505 8.06 27.505 8.06 27 2 C14.13 1.505 14.13 1.505 1 1 C1 5.95 1 10.9 1 16 C-3.29 16 -7.58 16 -12 16 C-12 29.2 -12 42.4 -12 56 C-8.04 56 -4.08 56 0 56 C0 56.33 0 56.66 0 57 C-4.62 57 -9.24 57 -14 57 C-14 42.81 -14 28.62 -14 14 C-9.38 14 -4.76 14 0 14 C0 9.38 0 4.76 0 0 Z " fill="#D1FCC4" transform="translate(154,55)"/>
<path d="M0 0 C6.6515625 -0.0309375 6.6515625 -0.0309375 13.4375 -0.0625 C14.83798584 -0.071604 16.23847168 -0.08070801 17.68139648 -0.09008789 C19.32217163 -0.09383423 19.32217163 -0.09383423 20.99609375 -0.09765625 C22.12200928 -0.10289307 23.2479248 -0.10812988 24.40795898 -0.11352539 C27 0 27 0 28 1 C28.08767112 3.07262076 28.10695873 5.14820294 28.09765625 7.22265625 C28.09443359 8.48271484 28.09121094 9.74277344 28.08789062 11.04101562 C28.07953403 12.38151109 28.07106907 13.72200588 28.0625 15.0625 C28.0574866 16.40689942 28.05292342 17.7513006 28.04882812 19.09570312 C28.03699488 22.39717941 28.02050971 25.69856803 28 29 C18.54523999 29.08836224 9.48334889 28.72948838 0 28 C0 18.76 0 9.52 0 0 Z M1 2 C1 10.25 1 18.5 1 27 C9.25 27 17.5 27 26 27 C26 18.75 26 10.5 26 2 C17.75 2 9.5 2 1 2 Z " fill="#4A768E" transform="translate(85,83)"/>
<path d="M0 0 C9.57 0 19.14 0 29 0 C29 4.29 29 8.58 29 13 C29.66 13.33 30.32 13.66 31 14 C30.01 14.495 30.01 14.495 29 15 C28.67 19.29 28.34 23.58 28 28 C18.76 28 9.52 28 0 28 C0 18.76 0 9.52 0 0 Z M1 2 C1 9.26 1 16.52 1 24 C2.98 24.99 2.98 24.99 5 26 C5.66 26.33 6.32 26.66 7 27 C8.44848582 27.08342159 9.90070869 27.10732861 11.3515625 27.09765625 C12.62773437 27.09282227 12.62773437 27.09282227 13.9296875 27.08789062 C15.26386719 27.07532227 15.26386719 27.07532227 16.625 27.0625 C17.5221875 27.05798828 18.419375 27.05347656 19.34375 27.04882812 C21.56256648 27.03702591 23.78125018 27.02056155 26 27 C26.09087891 25.86111328 26.09087891 25.86111328 26.18359375 24.69921875 C26.26738281 23.70535156 26.35117188 22.71148437 26.4375 21.6875 C26.51871094 20.70136719 26.59992188 19.71523437 26.68359375 18.69921875 C27 16 27 16 28 13 C28.09267588 11.29367352 28.12998202 9.58383413 28.125 7.875 C28.12757813 6.98554687 28.13015625 6.09609375 28.1328125 5.1796875 C28.24301985 3.02208912 28.24301985 3.02208912 27 2 C25.07332493 1.91251793 23.14348139 1.89302666 21.21484375 1.90234375 C20.04501953 1.90556641 18.87519531 1.90878906 17.66992188 1.91210938 C16.43822266 1.92048828 15.20652344 1.92886719 13.9375 1.9375 C12.70193359 1.94201172 11.46636719 1.94652344 10.19335938 1.95117188 C7.12888587 1.96300382 4.06443707 1.98093992 1 2 Z " fill="#486791" transform="translate(169,83)"/>
<path d="M0 0 C2.3664856 -0.36076355 2.3664856 -0.36076355 5.36767578 -0.34057617 C6.48868683 -0.34034958 7.60969788 -0.34012299 8.76467896 -0.33988953 C9.97928802 -0.32440567 11.19389709 -0.30892181 12.4453125 -0.29296875 C14.30553543 -0.28660149 14.30553543 -0.28660149 16.20333862 -0.28010559 C19.50135463 -0.26613216 22.7989335 -0.23917361 26.09680176 -0.20599365 C29.46161542 -0.17531238 32.82649304 -0.16160446 36.19140625 -0.14648438 C42.79444271 -0.1133473 49.39718558 -0.06309697 56 0 C57.32229189 2.64458379 57.09677194 4.67761301 57.0625 7.625 C57.05347656 8.62789062 57.04445312 9.63078125 57.03515625 10.6640625 C57.02355469 11.43492188 57.01195312 12.20578125 57 13 C57.81267334 13.02505615 58.62534668 13.0501123 59.46264648 13.07592773 C63.12110752 13.19149118 66.77928528 13.31439584 70.4375 13.4375 C71.71689453 13.47681641 72.99628906 13.51613281 74.31445312 13.55664062 C75.52939453 13.59853516 76.74433594 13.64042969 77.99609375 13.68359375 C79.68496704 13.73858032 79.68496704 13.73858032 81.40795898 13.79467773 C84 14 84 14 85 15 C85.07205511 16.68608966 85.08386068 18.37500659 85.0625 20.0625 C85.05347656 20.98160156 85.04445313 21.90070312 85.03515625 22.84765625 C85.02355469 23.55792969 85.01195312 24.26820312 85 25 C82.23776722 22.23776722 82.42143709 19.79293383 82 16 C80.82642944 15.96241577 80.82642944 15.96241577 79.62915039 15.92407227 C76.10675051 15.80850212 72.5846444 15.68560051 69.0625 15.5625 C67.21495117 15.50352539 67.21495117 15.50352539 65.33007812 15.44335938 C64.16025391 15.40146484 62.99042969 15.35957031 61.78515625 15.31640625 C60.70113525 15.27974854 59.61711426 15.24309082 58.50024414 15.20532227 C56 15 56 15 55 14 C55 9.71 55 5.42 55 1 C37.18 1 19.36 1 1 1 C0.67 5.29 0.34 9.58 0 14 C-2.12893285 9.74213431 -2.33899053 7.66111976 -2 3 C-1.34 2.01 -0.68 1.02 0 0 Z " fill="#86DD69" transform="translate(85,12)"/>
<path d="M0 0 C0.66 0 1.32 0 2 0 C2 3.3 2 6.6 2 10 C2.81267334 10.02505615 3.62534668 10.0501123 4.46264648 10.07592773 C8.12110752 10.19149118 11.77928528 10.31439584 15.4375 10.4375 C16.71689453 10.47681641 17.99628906 10.51613281 19.31445312 10.55664062 C20.52939453 10.59853516 21.74433594 10.64042969 22.99609375 10.68359375 C24.68496704 10.73858032 24.68496704 10.73858032 26.40795898 10.79467773 C29 11 29 11 30 12 C30.07205511 13.68608966 30.08386068 15.37500659 30.0625 17.0625 C30.05347656 17.98160156 30.04445312 18.90070312 30.03515625 19.84765625 C30.02355469 20.55792969 30.01195312 21.26820312 30 22 C27.23776722 19.23776722 27.42143709 16.79293383 27 13 C25.82642944 12.96241577 25.82642944 12.96241577 24.62915039 12.92407227 C21.10675051 12.80850212 17.5846444 12.68560051 14.0625 12.5625 C12.21495117 12.50352539 12.21495117 12.50352539 10.33007812 12.44335938 C9.16025391 12.40146484 7.99042969 12.35957031 6.78515625 12.31640625 C5.70113525 12.27974854 4.61711426 12.24309082 3.50024414 12.20532227 C1 12 1 12 0 11 C-0.07226502 9.14712498 -0.0838122 7.29166122 -0.0625 5.4375 C-0.05347656 4.42558594 -0.04445312 3.41367187 -0.03515625 2.37109375 C-0.02355469 1.58863281 -0.01195312 0.80617188 0 0 Z " fill="#7BDB5E" transform="translate(140,15)"/>
<path d="M0 0 C0.33 0 0.66 0 1 0 C1 1.98 1 3.96 1 6 C-8.57 6 -18.14 6 -28 6 C-28 5.34 -28 4.68 -28 4 C-20.08 4 -12.16 4 -4 4 C-3.67 3.34 -3.34 2.68 -3 2 C-3 2.66 -3 3.32 -3 4 C-2.34 4 -1.68 4 -1 4 C-0.67 2.68 -0.34 1.36 0 0 Z " fill="#81EF66" transform="translate(182,49)"/>
<path d="M0 0 C4.95 0 9.9 0 15 0 C16.21245921 4.84983684 15.65227848 8.07167374 15 13 C18.63 13 22.26 13 26 13 C26.33 12.01 26.66 11.02 27 10 C27.33 11.65 27.66 13.3 28 15 C25.85423363 15.02685938 23.70837355 15.04633088 21.5625 15.0625 C20.36753906 15.07410156 19.17257813 15.08570313 17.94140625 15.09765625 C15 15 15 15 14 14 C13.85606543 9.66469082 13.95787939 5.33842269 14 1 C9.38 1.33 4.76 1.66 0 2 C0 1.34 0 0.68 0 0 Z " fill="#6FCE53" transform="translate(42,182)"/>
<path d="M0 0 C0.99 0 1.98 0 3 0 C5.13079691 4.26159382 4.04502317 10.40763702 4 15 C-0.95 15 -5.9 15 -11 15 C-11 10.38 -11 5.76 -11 1 C-10.67 1 -10.34 1 -10 1 C-10 5.29 -10 9.58 -10 14 C-4.06 13.505 -4.06 13.505 2 13 C2 9.37 2 5.74 2 2 C1.01 1.67 0.02 1.34 -1 1 C-0.67 0.67 -0.34 0.34 0 0 Z " fill="#81E163" transform="translate(194,54)"/>
<path d="M0 0 C0.33 0.99 0.66 1.98 1 3 C-8.57 3 -18.14 3 -28 3 C-28 2.34 -28 1.68 -28 1 C-23.7083573 0.83271225 -19.41668206 0.66627459 -15.125 0.5 C-13.90167969 0.45230469 -12.67835937 0.40460937 -11.41796875 0.35546875 C-9.66806641 0.28779297 -9.66806641 0.28779297 -7.8828125 0.21875 C-6.80402832 0.17685547 -5.72524414 0.13496094 -4.61376953 0.09179688 C-3.07648977 0.03780685 -1.53822755 0 0 0 Z " fill="#82F066" transform="translate(98,52)"/>
<path d="M0 0 C0.33 0 0.66 0 1 0 C1.33 9.24 1.66 18.48 2 28 C4.97 28 7.94 28 11 28 C11.33 28.99 11.66 29.98 12 31 C8.04 31 4.08 31 0 31 C0 20.77 0 10.54 0 0 Z " fill="#F4FFEF" transform="translate(57,80)"/>
<path d="M0 0 C1.4783226 2.95664519 1.06032783 5.74229737 1 9 C0.34 9 -0.32 9 -1 9 C-1.33 7.02 -1.66 5.04 -2 3 C-5.3 2.67 -8.6 2.34 -12 2 C-12 5.63 -12 9.26 -12 13 C-12.33 13 -12.66 13 -13 13 C-13 8.71 -13 4.42 -13 0 C-7.81119904 -1.03776019 -5.08565452 -0.93236999 0 0 Z " fill="#7EE862" transform="translate(211,97)"/>
<path d="M0 0 C4.95 0 9.9 0 15 0 C15.77916092 5.02125926 16.13016601 8.97703996 15 14 C12.19836974 9.7975546 12.85510288 6.99895065 13 2 C8.71 2 4.42 2 0 2 C0 1.34 0 0.68 0 0 Z " fill="#D7EAD0" transform="translate(183,69)"/>
<path d="M0 0 C2 2 2 2 2.1953125 4.8203125 C2.13020833 7.88020833 2.06510417 10.94010417 2 14 C-2.95 14 -7.9 14 -13 14 C-13 13.34 -13 12.68 -13 12 C-8.71 12.33 -4.42 12.66 0 13 C-0.185625 11.040625 -0.37125 9.08125 -0.5625 7.0625 C-0.75358962 5.04544287 -0.90997602 3.02408755 -1 1 C-0.67 0.67 -0.34 0.34 0 0 Z " fill="#7BEA5C" transform="translate(41,182)"/>
<path d="M0 0 C0.33 0 0.66 0 1 0 C1.02689216 1.47906892 1.04634621 2.95827483 1.0625 4.4375 C1.07410156 5.26121094 1.08570313 6.08492187 1.09765625 6.93359375 C1 9 1 9 0 10 C-2.35313555 10.07271741 -4.70833668 10.08370868 -7.0625 10.0625 C-8.35285156 10.05347656 -9.64320313 10.04445312 -10.97265625 10.03515625 C-11.97167969 10.02355469 -12.97070312 10.01195312 -14 10 C-14 9.67 -14 9.34 -14 9 C-7.565 8.505 -7.565 8.505 -1 8 C-1.020625 6.865625 -1.04125 5.73125 -1.0625 4.5625 C-1 1 -1 1 0 0 Z " fill="#6FCF52" transform="translate(169,187)"/>
<path d="M0 0 C0.66 0 1.32 0 2 0 C1.67 2.31 1.34 4.62 1 7 C1.66 7 2.32 7 3 7 C3 9.64 3 12.28 3 15 C1.68 14.34 0.36 13.68 -1 13 C-1.07654536 8.48382401 -1.10228696 4.40914783 0 0 Z " fill="#76F652" transform="translate(43,41)"/>
<path d="M0 0 C2.31309705 0.11341637 4.62550185 0.24103807 6.9375 0.375 C8.86916016 0.47941406 8.86916016 0.47941406 10.83984375 0.5859375 C12.40412109 0.79089844 12.40412109 0.79089844 14 1 C15.4783226 3.95664519 15.06032783 6.74229737 15 10 C13 6 13 6 11 2 C7.7 2.33 4.4 2.66 1 3 C0.67 2.01 0.34 1.02 0 0 Z " fill="#79DC58" transform="translate(169,39)"/>
<path d="M0 0 C0.66 0.33 1.32 0.66 2 1 C2 2.32 2 3.64 2 5 C-2.29 5 -6.58 5 -11 5 C-11 4.34 -11 3.68 -11 3 C-7.37 3 -3.74 3 0 3 C0 2.01 0 1.02 0 0 Z " fill="#76DE57" transform="translate(68,192)"/>
<path d="M0 0 C0 0.99 0 1.98 0 3 C-3.3 3 -6.6 3 -10 3 C-10 3.99 -10 4.98 -10 6 C-11.32 6 -12.64 6 -14 6 C-13.67 4.68 -13.34 3.36 -13 2 C-12.14535156 1.93941406 -11.29070313 1.87882812 -10.41015625 1.81640625 C-8.75306641 1.69072266 -8.75306641 1.69072266 -7.0625 1.5625 C-5.96035156 1.48128906 -4.85820312 1.40007812 -3.72265625 1.31640625 C-1.08890097 1.29581916 -1.08890097 1.29581916 0 0 Z " fill="#75F953" transform="translate(29,96)"/>
<path d="M0 0 C0.33 0.99 0.66 1.98 1 3 C-3.455 3.495 -3.455 3.495 -8 4 C-8 3.01 -8 2.02 -8 1 C-5.36 0.67 -2.72 0.34 0 0 Z " fill="#7AF357" transform="translate(37,54)"/>
</svg>
