<?xml version="1.0" encoding="UTF-8"?>
<svg version="1.1" xmlns="http://www.w3.org/2000/svg" width="139" height="139">
<path d="M0 0 C13.53 0 27.06 0 41 0 C41 1.32 41 2.64 41 4 C42.28777344 3.98839844 43.57554688 3.97679687 44.90234375 3.96484375 C46.58072772 3.9554673 48.25911326 3.94636695 49.9375 3.9375 C51.21270508 3.92493164 51.21270508 3.92493164 52.51367188 3.91210938 C53.32255859 3.90888672 54.13144531 3.90566406 54.96484375 3.90234375 C55.7137085 3.89710693 56.46257324 3.89187012 57.23413086 3.88647461 C59 4 59 4 60 5 C60.45765667 7.98889359 60.70320951 10.98969648 61 14 C63.97 14 66.94 14 70 14 C70 17.3 70 20.6 70 24 C71.629375 23.979375 73.25875 23.95875 74.9375 23.9375 C76.62499341 23.91613932 78.31391034 23.92794489 80 24 C81.88631543 25.88631543 81.24265292 29.14200693 81.31640625 31.66015625 C81.33718735 32.32462265 81.35796844 32.98908905 81.37937927 33.6736908 C81.44493658 35.80318543 81.50378785 37.93280668 81.5625 40.0625 C81.60567939 41.50326847 81.64929349 42.94402399 81.69335938 44.38476562 C81.80062393 47.9230404 81.90187371 51.46145869 82 55 C82.804375 54.979375 83.60875 54.95875 84.4375 54.9375 C87 55 87 55 88 56 C88.09502416 58.49492388 88.12557566 60.96206014 88.11352539 63.45727539 C88.11367142 64.23770706 88.11381744 65.01813873 88.1139679 65.82221985 C88.11326858 68.4140598 88.10547536 71.00582878 88.09765625 73.59765625 C88.09579213 75.3898464 88.0943682 77.18203706 88.09336853 78.97422791 C88.08954284 83.70070797 88.07971212 88.42715752 88.06866455 93.15362549 C88.05845153 97.9728555 88.05387115 102.79209042 88.04882812 107.61132812 C88.03808989 117.07423219 88.02101286 126.53711356 88 136 C87.34 136 86.68 136 86 136 C86 136.99 86 137.98 86 139 C83.03 139 80.06 139 77 139 C77 136.69 77 134.38 77 132 C76.28972656 132.01160156 75.57945313 132.02320313 74.84765625 132.03515625 C73.92855469 132.04417969 73.00945312 132.05320313 72.0625 132.0625 C71.14597656 132.07410156 70.22945313 132.08570313 69.28515625 132.09765625 C67 132 67 132 66 131 C65.92820036 129.48071962 65.91607993 127.95832518 65.9375 126.4375 C65.94652344 125.61121094 65.95554687 124.78492187 65.96484375 123.93359375 C65.97644531 123.29550781 65.98804687 122.65742187 66 122 C64.35 121.67 62.7 121.34 61 121 C60.71125 121.9075 60.4225 122.815 60.125 123.75 C59.23468224 126.32202908 58.28505587 128.61346766 57 131 C54.69 131 52.38 131 50 131 C49.67 132.65 49.34 134.3 49 136 C48.34 136 47.68 136 47 136 C47 136.99 47 137.98 47 139 C40.4 139 33.8 139 27 139 C27 132.73 27 126.46 27 120 C22.05 120 17.1 120 12 120 C12 124.95 12 129.9 12 135 C11.01 135.33 10.02 135.66 9 136 C9 136.99 9 137.98 9 139 C1.08 139 -6.84 139 -15 139 C-15 136.36 -15 133.72 -15 131 C-17.97 130.67 -20.94 130.34 -24 130 C-24 127.03 -24 124.06 -24 121 C-25.65 120.67 -27.3 120.34 -29 120 C-29 121.98 -29 123.96 -29 126 C-29.99 126 -30.98 126 -32 126 C-32 127.32 -32 128.64 -32 130 C-34.31 130 -36.62 130 -39 130 C-39 131.98 -39 133.96 -39 136 C-39.99 136 -40.98 136 -42 136 C-42 136.99 -42 137.98 -42 139 C-44.97 139 -47.94 139 -51 139 C-51.02312343 128.45618688 -51.04091509 117.91237975 -51.05181217 107.36854649 C-51.057041 102.47314626 -51.06413864 97.57776332 -51.07543945 92.68237305 C-51.08626834 87.96212022 -51.09227684 83.24188408 -51.09487724 78.5216198 C-51.09673149 76.71661046 -51.10035209 74.91160208 -51.10573006 73.10659981 C-51.11294052 70.58740356 -51.11399094 68.0682771 -51.11352539 65.54907227 C-51.11712067 64.79525772 -51.12071594 64.04144318 -51.12442017 63.26478577 C-51.11405216 58.11405216 -51.11405216 58.11405216 -50 57 C-47.69 57 -45.38 57 -43 57 C-43 48.42 -43 39.84 -43 31 C-42.01 30.67 -41.02 30.34 -40 30 C-39.67 28.35 -39.34 26.7 -39 25 C-37.02 25 -35.04 25 -33 25 C-33 23.35 -33 21.7 -33 20 C-32.01 19.67 -31.02 19.34 -30 19 C-30 17.68 -30 16.36 -30 15 C-27.69 15 -25.38 15 -23 15 C-23 13.35 -23 11.7 -23 10 C-22.34 9.67 -21.68 9.34 -21 9 C-20.67 7.68 -20.34 6.36 -20 5 C-10.1 4.505 -10.1 4.505 0 4 C0 2.68 0 1.36 0 0 Z M-9 26 C-9.33 28.97 -9.66 31.94 -10 35 C-13.63 35.33 -17.26 35.66 -21 36 C-21 45.24 -21 54.48 -21 64 C-17.37 64.33 -13.74 64.66 -10 65 C-9.67 68.3 -9.34 71.6 -9 75 C-2.73 75 3.54 75 10 75 C10 71.7 10 68.4 10 65 C6.7 65 3.4 65 0 65 C0 58.73 0 52.46 0 46 C6.27 46 12.54 46 19 46 C19 42.7 19 39.4 19 36 C16.03 36 13.06 36 10 36 C10 32.7 10 29.4 10 26 C3.73 26 -2.54 26 -9 26 Z M51 27 C50.67 29.97 50.34 32.94 50 36 C46.37 36.33 42.74 36.66 39 37 C39 46.24 39 55.48 39 65 C42.63 65 46.26 65 50 65 C50 68.3 50 71.6 50 75 C56.6 75 63.2 75 70 75 C70 72.03 70 69.06 70 66 C66.7 65.67 63.4 65.34 60 65 C60 59.06 60 53.12 60 47 C66.27 46.67 72.54 46.34 79 46 C79 43.03 79 40.06 79 37 C76.03 37 73.06 37 70 37 C70 33.7 70 30.4 70 27 C63.73 27 57.46 27 51 27 Z " fill="#C1CE2A" transform="translate(51,0)"/>
<path d="M0 0 C0.33 0 0.66 0 1 0 C1 9.24 1 18.48 1 28 C-1.31 28 -3.62 28 -6 28 C-5.83734146 28.51620911 -5.67468292 29.03241821 -5.50709534 29.56427002 C-4.84610632 32.73919717 -4.88072246 35.72746874 -4.88647461 38.97167969 C-4.88632858 39.6647673 -4.88618256 40.35785492 -4.8860321 41.07194519 C-4.88672693 43.35528733 -4.89449915 45.63854717 -4.90234375 47.921875 C-4.90420946 49.50799515 -4.90563264 51.09411588 -4.90663147 52.68023682 C-4.91044462 56.84936115 -4.92026463 61.0184505 -4.93133545 65.18756104 C-4.94157543 69.44404629 -4.94613463 73.70053722 -4.95117188 77.95703125 C-4.96188798 86.30470353 -4.97894996 94.65234741 -5 103 C-2.36 103 0.28 103 3 103 C3.33 99.37 3.66 95.74 4 92 C6.64 92.33 9.28 92.66 12 93 C12 92.34 12 91.68 12 91 C10.68 90.67 9.36 90.34 8 90 C9.98 89.505 9.98 89.505 12 89 C12 87.02 12 85.04 12 83 C15.96 83 19.92 83 24 83 C26 88.625 26 88.625 26 92 C28.97 92.495 28.97 92.495 32 93 C32 96.63 32 100.26 32 104 C38.27 104 44.54 104 51 104 C51 105.32 51 106.64 51 108 C43.41 108 35.82 108 28 108 C28 105.36 28 102.72 28 100 C25.03 99.67 22.06 99.34 19 99 C19 96.03 19 93.06 19 90 C17.35 89.67 15.7 89.34 14 89 C14 90.98 14 92.96 14 95 C13.01 95 12.02 95 11 95 C11 96.32 11 97.64 11 99 C8.69 99 6.38 99 4 99 C4 100.98 4 102.96 4 105 C3.01 105 2.02 105 1 105 C1 105.99 1 106.98 1 108 C-1.97 108 -4.94 108 -8 108 C-8.02312343 97.45618688 -8.04091509 86.91237975 -8.05181217 76.36854649 C-8.057041 71.47314626 -8.06413864 66.57776332 -8.07543945 61.68237305 C-8.08626834 56.96212022 -8.09227684 52.24188408 -8.09487724 47.5216198 C-8.09673149 45.71661046 -8.10035209 43.91160208 -8.10573006 42.10659981 C-8.11294052 39.58740356 -8.11399094 37.0682771 -8.11352539 34.54907227 C-8.11712067 33.79525772 -8.12071594 33.04144318 -8.12442017 32.26478577 C-8.11405216 27.11405216 -8.11405216 27.11405216 -7 26 C-4.69 26 -2.38 26 0 26 C0 17.42 0 8.84 0 0 Z " fill="#C3C949" transform="translate(8,31)"/>
<path d="M0 0 C1.18613892 0.07069702 1.18613892 0.07069702 2.39624023 0.14282227 C3.67724609 0.21533203 3.67724609 0.21533203 4.98413086 0.28930664 C5.88196289 0.34538086 6.77979492 0.40145508 7.70483398 0.45922852 C8.6065332 0.51143555 9.50823242 0.56364258 10.43725586 0.61743164 C12.67255851 0.74752862 14.90748632 0.88403648 17.14233398 1.02172852 C17.14233398 6.96172852 17.14233398 12.90172852 17.14233398 19.02172852 C10.54233398 19.02172852 3.94233398 19.02172852 -2.85766602 19.02172852 C-2.87829102 16.07235352 -2.89891602 13.12297852 -2.92016602 10.08422852 C-2.92927002 9.15360596 -2.93837402 8.2229834 -2.94775391 7.26416016 C-2.95025146 6.53575928 -2.95274902 5.8073584 -2.95532227 5.05688477 C-2.96055908 4.30802002 -2.9657959 3.55915527 -2.97119141 2.78759766 C-2.81215092 0.31374858 -2.48185875 0.0290295 0 0 Z " fill="#402252" transform="translate(112.857666015625,45.978271484375)"/>
<path d="M0 0 C6.27 0 12.54 0 19 0 C19 5.94 19 11.88 19 18 C12.73 18 6.46 18 0 18 C0 12.06 0 6.12 0 0 Z " fill="#3E204F" transform="translate(51,47)"/>
<path d="M0 0 C3.31248187 -0.02888146 6.62493167 -0.04675799 9.9375 -0.0625 C10.88302734 -0.07087891 11.82855469 -0.07925781 12.80273438 -0.08789062 C14.15141602 -0.09272461 14.15141602 -0.09272461 15.52734375 -0.09765625 C16.77632446 -0.10551147 16.77632446 -0.10551147 18.05053711 -0.11352539 C20 0 20 0 21 1 C21.08631874 2.34267413 21.10706473 3.68974322 21.09765625 5.03515625 C21.09443359 5.84404297 21.09121094 6.65292969 21.08789062 7.48632812 C21.07951172 8.33646484 21.07113281 9.18660156 21.0625 10.0625 C21.05798828 10.91650391 21.05347656 11.77050781 21.04882812 12.65039062 C21.03700373 14.76695663 21.01906769 16.88348685 21 19 C26.28 19 31.56 19 37 19 C37 16.36 37 13.72 37 11 C39.64 11 42.28 11 45 11 C45 12.32 45 13.64 45 15 C42.69 15 40.38 15 38 15 C38 16.98 38 18.96 38 21 C37.34 21 36.68 21 36 21 C36 21.99 36 22.98 36 24 C29.4 24 22.8 24 16 24 C16 17.73 16 11.46 16 5 C10.72 5 5.44 5 0 5 C0 3.35 0 1.7 0 0 Z " fill="#756853" transform="translate(62,115)"/>
<path d="M0 0 C2.97 0 5.94 0 9 0 C9 3.3 9 6.6 9 10 C10.629375 9.979375 12.25875 9.95875 13.9375 9.9375 C15.62499341 9.91613932 17.31391034 9.92794489 19 10 C20.88631543 11.88631543 20.24265292 15.14200693 20.31640625 17.66015625 C20.33718735 18.32462265 20.35796844 18.98908905 20.37937927 19.6736908 C20.44493658 21.80318543 20.50378785 23.93280668 20.5625 26.0625 C20.60567939 27.50326847 20.64929349 28.94402399 20.69335938 30.38476562 C20.80062393 33.9230404 20.90187371 37.46145869 21 41 C22.65 41 24.3 41 26 41 C26 41.66 26 42.32 26 43 C24.02 43 22.04 43 20 43 C19.67 45.31 19.34 47.62 19 50 C18.67 50 18.34 50 18 50 C18 44.39 18 38.78 18 33 C13.71 33 9.42 33 5 33 C5 32.67 5 32.34 5 32 C9.29 32 13.58 32 18 32 C18 29.03 18 26.06 18 23 C15.03 23 12.06 23 9 23 C9 19.7 9 16.4 9 13 C2.73 13 -3.54 13 -10 13 C-10 14.65 -10 16.3 -10 18 C-10.33 18 -10.66 18 -11 18 C-11 16.02 -11 14.04 -11 12 C-4.73 11.67 1.54 11.34 8 11 C8 7.7 8 4.4 8 1 C5.36 1 2.72 1 0 1 C0 0.67 0 0.34 0 0 Z " fill="#E5E9BC" transform="translate(112,14)"/>
<path d="M0 0 C2.64 0 5.28 0 8 0 C8 3.3 8 6.6 8 10 C11.3 10 14.6 10 18 10 C18 12.97 18 15.94 18 19 C24.27 19 30.54 19 37 19 C37 20.32 37 21.64 37 23 C29.41 23 21.82 23 14 23 C14 20.36 14 17.72 14 15 C11.03 14.67 8.06 14.34 5 14 C5 11.03 5 8.06 5 5 C3.35 4.67 1.7 4.34 0 4 C0 2.68 0 1.36 0 0 Z " fill="#4D3757" transform="translate(22,116)"/>
<path d="M0 0 C3.63 0 7.26 0 11 0 C11 3.63 11 7.26 11 11 C14.3 11 17.6 11 21 11 C21 13.64 21 16.28 21 19 C22.65 19 24.3 19 26 19 C26 20.32 26 21.64 26 23 C23.36 23 20.72 23 18 23 C18 20.69 18 18.38 18 16 C17.28972656 16.01160156 16.57945313 16.02320313 15.84765625 16.03515625 C14.92855469 16.04417969 14.00945312 16.05320313 13.0625 16.0625 C12.14597656 16.07410156 11.22945312 16.08570313 10.28515625 16.09765625 C8 16 8 16 7 15 C6.92820036 13.48071962 6.91607993 11.95832518 6.9375 10.4375 C6.94652344 9.61121094 6.95554687 8.78492187 6.96484375 7.93359375 C6.97644531 7.29550781 6.98804687 6.65742187 7 6 C4.69 5.34 2.38 4.68 0 4 C0 2.68 0 1.36 0 0 Z " fill="#432E2A" transform="translate(110,116)"/>
<path d="M0 0 C3.96 0 7.92 0 12 0 C14 5.625 14 5.625 14 9 C16.97 9.495 16.97 9.495 20 10 C19.67 10.66 19.34 11.32 19 12 C16.03 12 13.06 12 10 12 C10 8.7 10 5.4 10 2 C7.36 2 4.72 2 2 2 C2 5.3 2 8.6 2 12 C1.01 12 0.02 12 -1 12 C-1 13.32 -1 14.64 -1 16 C-3.31 16 -5.62 16 -8 16 C-8 13.69 -8 11.38 -8 9 C-5.36 9.33 -2.72 9.66 0 10 C0 9.34 0 8.68 0 8 C-1.32 7.67 -2.64 7.34 -4 7 C-2.68 6.67 -1.36 6.34 0 6 C0 4.02 0 2.04 0 0 Z " fill="#B2B445" transform="translate(20,114)"/>
<path d="M0 0 C0 6.6 0 13.2 0 20 C5.28 20 10.56 20 16 20 C16 20.99 16 21.98 16 23 C10.06 23 4.12 23 -2 23 C-2 16.4 -2 9.8 -2 3 C-7.28 3 -12.56 3 -18 3 C-18 2.34 -18 1.68 -18 1 C-15.37504621 0.83257698 -12.75004205 0.6660283 -10.125 0.5 C-9.00544922 0.42845703 -9.00544922 0.42845703 -7.86328125 0.35546875 C-2.2265625 0 -2.2265625 0 0 0 Z " fill="#321742" transform="translate(81,116)"/>
<path d="M0 0 C0.33 0 0.66 0 1 0 C1 24.09 1 48.18 1 73 C3.64 73 6.28 73 9 73 C9 74.32 9 75.64 9 77 C6.03 77 3.06 77 0 77 C0 51.59 0 26.18 0 0 Z " fill="#59501E" transform="translate(0,62)"/>
<path d="M0 0 C0.33 0 0.66 0 1 0 C1 9.24 1 18.48 1 28 C-1.31 28 -3.62 28 -6 28 C-6 46.15 -6 64.3 -6 83 C-6.33 83 -6.66 83 -7 83 C-7.1536152 75.71589121 -7.30179684 68.43169354 -7.4429636 61.14733219 C-7.50867923 57.76523329 -7.57629498 54.38319426 -7.64819336 51.0012207 C-7.73069127 47.11680222 -7.8050324 43.23224873 -7.87890625 39.34765625 C-7.90594131 38.12788589 -7.93297638 36.90811554 -7.96083069 35.65138245 C-7.98092697 34.53029587 -8.00102325 33.40920929 -8.02172852 32.25415039 C-8.04171402 31.26153702 -8.06169952 30.26892365 -8.08229065 29.24623108 C-8 27 -8 27 -7 26 C-4.69 26 -2.38 26 0 26 C0 17.42 0 8.84 0 0 Z " fill="#D4D88B" transform="translate(8,31)"/>
<path d="M0 0 C0 3.63 0 7.26 0 11 C-2.97 11 -5.94 11 -9 11 C-9 7.7 -9 4.4 -9 1 C-1.125 0 -1.125 0 0 0 Z " fill="#BFCC22" transform="translate(131,25)"/>
<path d="M0 0 C0.99 0 1.98 0 3 0 C3 9.24 3 18.48 3 28 C2.01 28 1.02 28 0 28 C0 18.76 0 9.52 0 0 Z " fill="#44323A" transform="translate(9,30)"/>
<path d="M0 0 C6.6 0 13.2 0 20 0 C20 1.32 20 2.64 20 4 C13.07 4 6.14 4 -1 4 C-0.67 2.68 -0.34 1.36 0 0 Z " fill="#452D40" transform="translate(39,135)"/>
<path d="M0 0 C0.33 3.3 0.66 6.6 1 10 C4.3 10.33 7.6 10.66 11 11 C10.67 14.63 10.34 18.26 10 22 C9.67 22 9.34 22 9 22 C9 19.69 9 17.38 9 15 C8.28972656 15.01160156 7.57945313 15.02320313 6.84765625 15.03515625 C5.92855469 15.04417969 5.00945312 15.05320313 4.0625 15.0625 C3.14597656 15.07410156 2.22945313 15.08570313 1.28515625 15.09765625 C-1 15 -1 15 -2 14 C-1.9910102 11.70310483 -1.86734539 9.42224061 -1.7421875 7.12890625 C-1.82726562 6.42636719 -1.91234375 5.72382812 -2 5 C-2.99 4.34 -3.98 3.68 -5 3 C-2.25 0 -2.25 0 0 0 Z " fill="#6E5A7E" transform="translate(119,117)"/>
<path d="M0 0 C0.33 0 0.66 0 1 0 C1 2.97 1 5.94 1 9 C1.69867188 8.96519531 2.39734375 8.93039063 3.1171875 8.89453125 C4.48230469 8.85392578 4.48230469 8.85392578 5.875 8.8125 C7.23238281 8.76029297 7.23238281 8.76029297 8.6171875 8.70703125 C9.79667969 8.85205078 9.79667969 8.85205078 11 9 C13 12 13 12 12.625 14.6875 C12.41875 15.450625 12.2125 16.21375 12 17 C13.65 17.33 15.3 17.66 17 18 C17 12.72 17 7.44 17 2 C17.33 2 17.66 2 18 2 C18 7.94 18 13.88 18 20 C17.34 20 16.68 20 16 20 C15.67 20.99 15.34 21.98 15 23 C15 21.68 15 20.36 15 19 C13.35 19 11.7 19 10 19 C10 16.36 10 13.72 10 11 C6.7 11 3.4 11 0 11 C0 7.37 0 3.74 0 0 Z " fill="#C4C45F" transform="translate(121,116)"/>
<path d="M0 0 C0.33 0 0.66 0 1 0 C1.33 9.9 1.66 19.8 2 30 C3.65 30 5.3 30 7 30 C7 30.66 7 31.32 7 32 C5.02 32 3.04 32 1 32 C0.67 34.31 0.34 36.62 0 39 C-0.33 39 -0.66 39 -1 39 C-1 33.39 -1 27.78 -1 22 C-5.29 22 -9.58 22 -14 22 C-14 21.67 -14 21.34 -14 21 C-9.71 21 -5.42 21 -1 21 C-1.020625 19.576875 -1.04125 18.15375 -1.0625 16.6875 C-1.07051774 11.08309752 -0.59290281 5.56905142 0 0 Z " fill="#D9D7A1" transform="translate(131,25)"/>
<path d="M0 0 C0.33 0 0.66 0 1 0 C1 5.94 1 11.88 1 18 C6.28 18 11.56 18 17 18 C17 15.36 17 12.72 17 10 C19.64 10 22.28 10 25 10 C25 11.32 25 12.64 25 14 C22.69 14 20.38 14 18 14 C18 15.98 18 17.96 18 20 C17.34 20 16.68 20 16 20 C15.67 20.99 15.34 21.98 15 23 C15 21.68 15 20.36 15 19 C10.05 19 5.1 19 0 19 C0 12.73 0 6.46 0 0 Z " fill="#C6C95A" transform="translate(82,116)"/>
<path d="M0 0 C0.33 0 0.66 0 1 0 C1.04254356 1.99954746 1.04080783 4.00041636 1 6 C0.67 6.33 0.34 6.66 0 7 C-1.65 7 -3.3 7 -5 7 C-5 17.23 -5 27.46 -5 38 C-5.33 38 -5.66 38 -6 38 C-6.16725986 33.46122739 -6.32785453 28.92228756 -6.48217773 24.38305664 C-6.5356662 22.8377441 -6.59100068 21.29249433 -6.64819336 19.74731445 C-6.72991433 17.53089949 -6.8050717 15.31434616 -6.87890625 13.09765625 C-6.90594131 12.4028566 -6.93297638 11.70805695 -6.96083069 10.99220276 C-7.01301108 9.32890224 -7.01185107 7.66407661 -7 6 C-6 5 -6 5 -2.9375 4.9375 C-1.4834375 4.9684375 -1.4834375 4.9684375 0 5 C0 3.35 0 1.7 0 0 Z " fill="#C7C949" transform="translate(18,20)"/>
<path d="M0 0 C3.63 0 7.26 0 11 0 C11 2.64 11 5.28 11 8 C12.65 8 14.3 8 16 8 C16 9.32 16 10.64 16 12 C13.69 12 11.38 12 9 12 C8.875 4.375 8.875 4.375 10 1 C6.7 1 3.4 1 0 1 C0 0.67 0 0.34 0 0 Z " fill="#2C132D" transform="translate(120,127)"/>
<path d="M0 0 C6.27 0 12.54 0 19 0 C19 0.66 19 1.32 19 2 C16.69 2 14.38 2 12 2 C12 4.31 12 6.62 12 9 C11.01 9.495 11.01 9.495 10 10 C10 7.03 10 4.06 10 1 C6.7 1 3.4 1 0 1 C0 0.67 0 0.34 0 0 Z " fill="#D1D28C" transform="translate(111,65)"/>
<path d="M0 0 C2.31 0 4.62 0 7 0 C7 0.33 7 0.66 7 1 C5.02 1 3.04 1 1 1 C1.33 3.97 1.66 6.94 2 10 C0.35 10 -1.3 10 -3 10 C-3 8.02 -3 6.04 -3 4 C-2.34 3.67 -1.68 3.34 -1 3 C-0.67 2.01 -0.34 1.02 0 0 Z " fill="#919248" transform="translate(31,6)"/>
<path d="M0 0 C6.625 -0.25 6.625 -0.25 10 2 C7.36 2 4.72 2 2 2 C2 4.64 2 7.28 2 10 C1.01 10.495 1.01 10.495 0 11 C0 9.02 0 7.04 0 5 C-0.66 4.67 -1.32 4.34 -2 4 C-1.34 4 -0.68 4 0 4 C0 2.68 0 1.36 0 0 Z " fill="#C5CC6B" transform="translate(21,15)"/>
<path d="M0 0 C0.33 0 0.66 0 1 0 C1 4.95 1 9.9 1 15 C0.01 15.33 -0.98 15.66 -2 16 C-2.33 16.99 -2.66 17.98 -3 19 C-3 17.35 -3 15.7 -3 14 C-2.34 14 -1.68 14 -1 14 C-1.0309375 12.205625 -1.0309375 12.205625 -1.0625 10.375 C-1.06882571 6.81995131 -0.69888875 3.49444376 0 0 Z " fill="#DBDEA1" transform="translate(62,120)"/>
<path d="M0 0 C1.98 0 3.96 0 6 0 C6 1.65 6 3.3 6 5 C4.02 5 2.04 5 0 5 C0 3.35 0 1.7 0 0 Z " fill="#46343D" transform="translate(12,125)"/>
<path d="M0 0 C2.31 0 4.62 0 7 0 C7 1.32 7 2.64 7 4 C4.69 4 2.38 4 0 4 C0 2.68 0 1.36 0 0 Z " fill="#392132" transform="translate(100,126)"/>
<path d="M0 0 C2.97 0 5.94 0 9 0 C9 0.99 9 1.98 9 3 C6.03 3 3.06 3 0 3 C0 2.01 0 1.02 0 0 Z " fill="#331842" transform="translate(0,136)"/>
<path d="M0 0 C0.33 0 0.66 0 1 0 C1.04254356 1.99954746 1.04080783 4.00041636 1 6 C0 7 0 7 -2.5625 7.0625 C-3.7690625 7.0315625 -3.7690625 7.0315625 -5 7 C-5 7.99 -5 8.98 -5 10 C-5.66 10 -6.32 10 -7 10 C-6.67 8.35 -6.34 6.7 -6 5 C-4.02 5 -2.04 5 0 5 C0 3.35 0 1.7 0 0 Z " fill="#CED393" transform="translate(18,20)"/>
<path d="M0 0 C3.63 0 7.26 0 11 0 C11.33 1.65 11.66 3.3 12 5 C11.34 5 10.68 5 10 5 C9.67 4.34 9.34 3.68 9 3 C6.88153715 2.31270746 6.88153715 2.31270746 4.4375 1.875 C3.61121094 1.70742187 2.78492187 1.53984375 1.93359375 1.3671875 C1.29550781 1.24601562 0.65742187 1.12484375 0 1 C0 0.67 0 0.34 0 0 Z " fill="#C9D26E" transform="translate(90,65)"/>
<path d="M0 0 C2.31 0.33 4.62 0.66 7 1 C7.33 1.99 7.66 2.98 8 4 C2.25 5.125 2.25 5.125 0 4 C0 2.68 0 1.36 0 0 Z " fill="#42294C" transform="translate(110,116)"/>
<path d="M0 0 C1.75710133 3.51420266 3 6.10418447 3 10 C1.68 10 0.36 10 -1 10 C-0.67 6.7 -0.34 3.4 0 0 Z " fill="#C2CB37" transform="translate(131,56)"/>
<path d="M0 0 C0.66 0.66 1.32 1.32 2 2 C3.98821313 2.39764263 5.98944339 2.73775349 8 3 C8 3.33 8 3.66 8 4 C3.38 4 -1.24 4 -6 4 C-5.67 3.34 -5.34 2.68 -5 2 C-3.02 2.495 -3.02 2.495 -1 3 C-0.67 2.01 -0.34 1.02 0 0 Z " fill="#351B41" transform="translate(61,60)"/>
<path d="M0 0 C3.3 0 6.6 0 10 0 C10 0.99 10 1.98 10 3 C9.1646875 2.7834375 9.1646875 2.7834375 8.3125 2.5625 C5.88615805 1.97230872 3.45093655 1.476571 1 1 C1 1.66 1 2.32 1 3 C0.34 2.67 -0.32 2.34 -1 2 C-0.67 1.34 -0.34 0.68 0 0 Z " fill="#C3D036" transform="translate(91,5)"/>
<path d="M0 0 C3.3 0 6.6 0 10 0 C10 0.99 10 1.98 10 3 C9.01 3.33 8.02 3.66 7 4 C7 3.01 7 2.02 7 1 C4.69 1 2.38 1 0 1 C0 0.67 0 0.34 0 0 Z " fill="#C5CF3D" transform="translate(110,15)"/>
<path d="M0 0 C2 1 2 1 2 1 Z " fill="#FDFDFD" transform="translate(14,131)"/>
<path d="" fill="#FEFEFE" transform="translate(0,0)"/>
<path d="" fill="#FEFEFE" transform="translate(0,0)"/>
<path d="" fill="#FEFEFE" transform="translate(0,0)"/>
</svg>
