<svg xmlns="http://www.w3.org/2000/svg" width="626" height="481"><path d="M0 0h626v481H0V0Z" fill="#8B9FFD"/><path d="M294 98h10v2h6v2h2v2h2v2h2v4h2v8h24v4h2v19a8850.88 8850.88 0 0 1 27.277-.104c4.222-.01 8.443-.024 12.665-.047 4.072-.022 8.144-.034 12.216-.039 1.555-.003 3.111-.01 4.667-.021 2.174-.015 4.348-.017 6.522-.016l3.755-.014C414 141 414 141 416 143c.24 2.253.24 2.253.227 5.092v3.215l-.032 3.482-.008 3.556c-.011 3.76-.037 7.52-.062 11.28-.01 2.544-.02 5.089-.027 7.633-.022 6.247-.056 12.495-.098 18.742h8v2h10v2h6v2h6v2h4v2h4v2h4v2h4v2h4v2h2v2h2v2h4v2h2v2h2v2h2v2h2v2h2v2h2v2h2v2h2v4h2v2h2v4h2v2h2v4h2v4h2v4h2v4h2v6h2v6h2v8h2v38h-2v6h-2v8h-2v6h-2v4h-2l-.438 2.875C501 350 501 350 500 352h-2v4h-2v2h-2v4h-2v2h-2l-.438 1.875C489 368 489 368 488 370h-2v2h-2v2h-2v2h-2v2h-2v2h-2v2l2.327.011c7.24.038 14.478.095 21.717.173 3.722.04 7.443.072 11.165.087 3.592.015 7.184.05 10.776.097 1.37.015 2.74.023 4.11.024 1.92.002 3.84.032 5.76.062l3.31.027c3.501.641 4.692 1.724 6.835 4.519.496 2.91.496 2.91.438 6.063l-.004 3.16C542 399 542 399 540.902 400.653c-2.877 2.038-5.265 1.706-8.76 1.688h-2.1a733.643 733.643 0 0 1-6.866-.048 2408.282 2408.282 0 0 1-17.295-.087c-4.263-.03-8.526-.044-12.79-.06-8.363-.032-16.727-.083-25.091-.146l-1 4h-7v-2h-2v-2c-3.5.082-7 .195-10.5.313l-2.977.068-2.93.107-2.665.08c-2.583.381-4.324.946-6.699 1.932-4.528 1.784-8.666 1.984-13.495 2.004l-2.647.03c-1.845.015-3.69.022-5.536.022-2.753.006-5.502.06-8.254.118-14.77.138-27.688-3.015-41.297-8.674l-1.504 1.75c-5.584 6.103-5.584 6.103-10.371 6.875C346 406 346 406 344 404c0-5.277 3.631-8.366 7-12-7.432-6.625-14.281-6.835-23.883-6.681-1.513.002-3.026 0-4.539-.002-4.03-.002-8.058.033-12.088.075-3.79.035-7.578.036-11.368.04-11.062.032-22.123.116-33.185.193L191 386V211l8-3 1 3c2.015.733 2.015.733 4 1l-.938-2.5c-.82-2.701-1.308-4.925-1.625-7.688-.295-3.729-.295-3.729-1.437-6.812-3.832-2.029-7.73-2.498-12-3v-2h-2v-6h4v2h2l-.016-3.748c-.018-4.571-.03-9.143-.039-13.714-.005-1.982-.012-3.964-.02-5.945a3167.58 3167.58 0 0 1-.023-8.527l-.015-2.702c0-2.121.05-4.243.113-6.364 1-1 1-1 2.766-1.114l2.27.016 2.45.01 2.577.025 2.587.014c2.117.012 4.233.03 6.35.049l.684 6.836c.207 2.207.207 2.207 1.316 4.164l1.758-.035c4.542-.053 8.77.117 13.242 1.035 1.473-4.312 2.745-8.608 4-13h24v-21h2v-2h2v-2h22v-8h2v-4h2v-2h2v-2h4v-2h2v-2Z" fill="#FCFCFC"/><path d="M176 124h2c.027 1.792.046 3.583.063 5.375l.035 3.023C178 135 178 135 177 137a90.83 90.83 0 0 0-.316 4.79l-.127 2.85-.12 2.985-.13 3.008c-.107 2.455-.209 4.911-.307 7.367h-4l2 8h2v-2h6v-2h10v24h-2v-2h-4v6h2v2l3.188-.188c4.026.199 5.668.763 8.812 3.188 1.96 2.94 2.483 4.55 3.125 7.938l.508 2.59C204 208 204 208 204 212c-2.867-.573-3.861-.861-6-3l-3 2h-4v175l78.437-.658 11.306-.093 7.404-.063 3.826-.033 3.803-.033c2.463-.018 4.926-.032 7.39-.04 6.19-.023 12.367-.12 18.554-.34l3.817-.097c2.38-.06 4.76-.149 7.138-.27 8.365-.166 13.048 2.155 19.325 7.627l-1.365 1.473c-4.265 4.564-4.265 4.564-5.635 10.527 1.135 1.324 1.135 1.324 4.063 1.563 5.8-.829 8.195-4.326 11.937-8.563l1.864.627c2.795.938 5.59 1.874 8.386 2.81l2.934.987a573646995.369 573646995.369 0 0 0 5.434 1.82c3.597 1.142 6.78 1.88 10.565 1.917l2.469.03 2.645.012 2.75.017c1.92.01 3.84.016 5.76.02 2.919.01 5.837.04 8.755.072 1.87.007 3.74.012 5.61.016l2.62.038c5.019-.019 8.804-.745 13.424-2.69 2.494-.945 4.726-1.016 7.378-.969l2.93.03 2.976.075 3.07.042c2.477.035 4.953.084 7.43.146v2h2v2l7-1 1-3 2.682-.025c8.329-.077 16.657-.165 24.986-.263 4.282-.05 8.564-.096 12.847-.134 4.13-.037 8.26-.083 12.39-.136 1.578-.019 3.156-.034 4.735-.045 2.205-.017 4.41-.046 6.615-.078l3.81-.04c3.057.024 3.057.024 4.935-2.279.358-2.793.358-2.793.313-5.938l.05-3.214c-.134-2.785-.134-2.785-1.497-4.499-2.698-1.95-4.773-1.749-8.082-1.781l-3.882-.06-4.195-.02-4.292-.054c-3.763-.048-7.526-.077-11.289-.104-3.84-.03-7.682-.076-11.522-.121A5588.27 5588.27 0 0 0 474 383l2-1v-2h2v-2c8.11-.07 16.22-.123 24.332-.155 3.766-.016 7.532-.037 11.299-.071 3.637-.033 7.275-.05 10.912-.059 1.385-.005 2.77-.016 4.155-.032 1.946-.022 3.892-.023 5.838-.024l3.35-.02c3.634.421 6.005 1.457 9.114 3.361 2.526 3.79 2.404 6.916 2.438 11.313.032.747.065 1.494.1 2.263.039 4.11-.304 6.66-2.94 9.904-3.997 3.877-6.766 3.663-12.086 3.646l-2.38.004c-2.66.004-5.319 0-7.978-.003l-5.745.005c-5.285.004-10.57.002-15.855-.001-5.693-.003-11.385 0-17.078.004-11.166.004-22.333.003-33.5 0-9.084-.002-18.168-.002-27.252-.001h-3.915l-7.872.001c-23.943.003-47.886 0-71.83-.005-21.818-.005-43.637-.004-65.455 0a213962.351 213962.351 0 0 1-81.432.004h-3.908c-9.054-.002-18.11 0-27.164.002-11.063.003-22.127.002-33.19-.003-5.638-.003-11.275-.004-16.912 0-38.846.02-38.846.02-53.587-.454l-2.815-.066c-4.557-.192-8.09-.433-11.644-3.613 0-4 0-4 1.063-5.625 5.198-3.69 11.376-3.666 17.5-3.563l2.208.002c4.177.034 8.116.374 12.229 1.186v-2h-2v-2h-2l-.512-2.824c-1.233-3.515-1.233-3.515-5.008-4.82a127.89 127.89 0 0 0-4.293-1.168l-2.158-.616A122.025 122.025 0 0 0 51 380l1-4 3.508-.113c1.539-.066 3.078-.132 4.617-.2l2.305-.068c4.868-.23 8.325-1 12.57-3.619l1.5-1.75L78 369c3.188.313 3.188.313 6 1v-2h2l.336-1.688c.773-2.692 1.925-4.857 3.289-7.304l1.637-2.94c2.88-5.084 5.794-10.146 8.738-15.193l1.79-3.09c3.154-5.412 6.426-10.688 9.941-15.872 1.536-2.315 2.864-4.698 4.144-7.163 3.098-5.788 6.516-11.342 9.986-16.913 2.065-3.33 4.1-6.679 6.139-10.024 4.389-7.188 8.79-14.368 13.2-21.543 1.019-1.657 2.036-3.314 3.054-4.972l1.95-3.17 1.9-3.093a302.748 302.748 0 0 1 3.904-6.084l1.918-2.912 1.724-2.568c2.101-3.846 2.279-7.128 2.35-11.471h-2v-6h-2v2h-2v2h-2v2h-2v2h-4v2h-10v-2h-2v-42h2v-6h2v-4h2v-2h2v-2h2v-2h4v-2h4v-2h6v-12l-2.75-.688c-4.952-2-7.137-5.563-9.25-10.312-1.085-4.493-.62-7.851 1.578-11.926 3.623-5.22 6.434-8.618 12.422-11.074 4.137-.345 7.933.225 12 1l2-3Z" fill="#0A2D39"/><path d="M403.726 217.74c2.137.01 4.274 0 6.41-.013 7.495-.007 14.593.35 21.864 2.273v2l2.5.313c4.093.803 7.625 2.15 11.5 3.687v2h2v2h4v2h2v2h4v2h2v2h2v2h2v2h2v2h2v2h2v2h2v2h2v4h2v2h2v4h2v4h2v4h2a556.32 556.32 0 0 1 2 5.625l1.125 3.164c.88 3.229 1.035 5.883.875 9.211h2c.437 14.689.472 27.931-4 42-.7 2.66-1.35 5.327-2 8h-2v2h-2v4h-2v4h-2v2h-2v4h-2v2h-2v2h-2v2h-2v2h-2v2h-2v2h-2v2h-2v2l-6 2v2c-20.363 11.43-44.635 16.85-67.797 10.648-4.181-1.306-8.201-2.87-12.203-4.648v-2h-4v-2h-4v-2l-6-2v-2h-2v-2h-4v-2h-2v-2h-2v-2h-2v-2h-2v-2h-2v-2h-2v-4h-2v-2h-2v-4h-2v-2h-2v-4h-2c-9.541-27.79-8.5-50.7 2-78h2v-2h2v-4h2v-2h2v-4h2v-2h2v-2h2v-2h2v-2h2v-2h2v-2h4v-2h2v-2h2v-2h4v-2h4v-2h4v-2c3.62-1.316 6.096-2 10-2v-2c7.17-2.346 14.252-2.305 21.726-2.26Z" fill="#F8F8F7"/><path d="M406.75 195.813c1.68.015 3.36.028 5.04.04 4.07.033 8.14.085 12.21.147v2h10v2h6v2h6v2h4v2h4v2h4v2h4v2h4v2h2v2h2v2h4v2h2v2h2v2h2v2h2v2h2v2h2v2h2v2h2v4h2v2h2v4h2v2h2v4h2v4h2v4h2v4h2v6h2v6h2v8h2v38h-2v6h-2v8h-2v6h-2v4h-2l-.438 2.875C501 350 501 350 500 352h-2v4h-2v2h-2v4h-2v2h-2l-.438 1.875C489 368 489 368 488 370h-2v2h-2v2h-2v2h-2v2h-2v2h-2v2l2.327.011c7.24.038 14.478.095 21.717.173 3.722.04 7.443.072 11.165.087 3.592.015 7.184.05 10.776.097 1.37.015 2.74.023 4.11.024 1.92.002 3.84.032 5.76.062l3.31.027c3.501.641 4.692 1.724 6.835 4.519.496 2.91.496 2.91.438 6.063l-.004 3.16C542 399 542 399 540.902 400.653c-2.877 2.038-5.265 1.706-8.76 1.688h-2.1a733.643 733.643 0 0 1-6.866-.048 2408.282 2408.282 0 0 1-17.295-.087c-4.263-.03-8.526-.044-12.79-.06-8.363-.032-16.727-.083-25.091-.146l-1 4h-7v-2h-2v-2c-3.5.082-7 .195-10.5.313l-2.977.068-2.93.107-2.665.08c-2.583.381-4.324.946-6.699 1.932-4.528 1.784-8.666 1.984-13.495 2.004l-2.647.03c-1.845.015-3.69.022-5.536.022-2.753.006-5.502.06-8.254.118-14.77.138-27.688-3.015-41.297-8.674l-1.504 1.75c-5.584 6.103-5.584 6.103-10.371 6.875C346 406 346 406 344 404c0-5.25 3.61-8.402 7-12l-1.969-1.242-2.531-1.633-2.531-1.617L342 386v-2h-2v-2l-1.688-.188c-3.277-1.151-4.932-3.315-7.312-5.812l-2.813-2.063L326 372v-4h-2v-2h-2v-2h-2v-4h-2v-2h-2v-4h-2v-2h-2c-1.316-3.62-2-6.096-2-10h-2c-.966-3.123-1.922-6.248-2.875-9.375l-.816-2.637c-2.764-9.098-4.7-17.824-4.684-27.363l-.004-2.554c.156-9.596 2.162-18.769 4.379-28.071h2l-.125-2.625c.13-3.499.885-6.12 2.125-9.375h2l.313-2.625c.721-3.542 1.958-6.218 3.687-9.375h2v-4h2l2-6h2v-2h2l2-4h2v-4c1.426-1.703 1.426-1.703 3.313-3.25l1.863-1.578C335 222 335 222 338 222v-2h2v-2h2v-2h2v-2h4v-2l6-2v-2h4v-2h4v-2c2.08-.779 4.165-1.547 6.25-2.313l3.516-1.3c1.408-.472 2.82-.933 4.234-1.387l2.503-.83c9.389-2.76 18.564-2.51 28.247-2.357ZM382 220v2l-2.75.438c-2.465.426-4.838.913-7.25 1.562v2h-4v2h-4v2h-4v2h-2v2h-2v2h-4v2h-2v2h-2v2h-2v2h-2v2h-2v2h-2v4h-2v2h-2v4h-2v2h-2c-.96 2.541-1.918 5.083-2.875 7.625l-.816 2.16A983.713 983.713 0 0 0 326 276l-1.133 3.023c-1.904 6.537-2.027 13.098-1.992 19.852l-.012 2.238c.017 9.666 1.257 18.294 4.2 27.512l.853 2.754c.686 2.21 1.38 4.416 2.084 6.621h2v4h2v2h2v4h2v2h2v4h2v2h2v2h2v2h2v2h2v2h2v2h4v2h2v2l6 2v2h4v2h4v2c19.479 8.657 43.865 9.493 64 2 5.513-2.336 10.782-5.071 16-8v-2l6-2v-2h2v-2h2v-2h2v-2h2v-2h2v-2h2v-2h2v-2h2v-4h2v-2h2v-4h2v-4h2v-2h2l.55-2.203C487 324 487 324 487.769 321.384c2.195-7.834 2.598-15.028 2.42-23.134l-.042-3.594c-.034-2.886-.083-5.77-.146-8.656h-2l.125-2.602c-.134-3.64-.908-6.35-2.125-9.773l-1.125-3.21L484 268h-2v-4h-2v-4h-2v-4h-2v-2h-2v-4h-2v-2h-2v-2h-2v-2h-2v-2h-2v-2h-2v-2h-2v-2h-2v-2h-4v-2h-2v-2h-4v-2h-2v-2c-1.58-.675-3.164-1.34-4.75-2l-2.672-1.125c-2.756-1.09-2.756-1.09-6.578-.875v-2c-7.959-2.105-15.803-2.31-23.987-2.26-2.141.01-4.282 0-6.423-.013-6.808-.006-13.08.143-19.59 2.273Z" fill="#FCA328"/><path d="M190 261h1v125l78.437-.658 11.306-.093 7.404-.063 3.826-.033 3.803-.033c2.463-.018 4.926-.032 7.39-.04 6.19-.023 12.367-.12 18.554-.34l3.817-.097c2.38-.06 4.76-.149 7.138-.27 8.365-.166 13.048 2.155 19.325 7.627l-1.365 1.473c-4.265 4.564-4.265 4.564-5.635 10.527 1.135 1.324 1.135 1.324 4.063 1.563 5.8-.829 8.195-4.326 11.937-8.563l1.864.627c2.795.938 5.59 1.874 8.386 2.81l2.934.987 2.832.947 2.602.873c3.597 1.142 6.78 1.88 10.565 1.917l2.469.03 2.645.012 2.75.017c1.92.01 3.84.016 5.76.02 2.919.01 5.837.04 8.755.072 1.87.007 3.74.012 5.61.016l2.62.038c5.019-.019 8.804-.745 13.424-2.69 2.494-.945 4.726-1.016 7.378-.969l2.93.03 2.976.075 3.07.042c2.477.035 4.953.084 7.43.146v2h2v2l7-1 1-3 2.682-.025c8.329-.077 16.657-.165 24.986-.263 4.282-.05 8.564-.096 12.847-.134 4.13-.037 8.26-.083 12.39-.136 1.578-.019 3.156-.034 4.735-.045 2.205-.017 4.41-.046 6.615-.078l3.81-.04c3.057.024 3.057.024 4.935-2.279.358-2.793.358-2.793.313-5.938l.05-3.214c-.134-2.785-.134-2.785-1.497-4.499-2.698-1.95-4.773-1.749-8.082-1.781l-3.882-.06-4.195-.02-4.292-.054c-3.763-.048-7.526-.077-11.289-.104-3.84-.03-7.682-.076-11.522-.121A5588.27 5588.27 0 0 0 474 383l2-1v-2h2v-2c8.11-.07 16.22-.123 24.332-.155 3.766-.016 7.532-.037 11.299-.071 3.637-.033 7.275-.05 10.912-.059 1.385-.005 2.77-.016 4.155-.032 1.946-.022 3.892-.023 5.838-.024l3.35-.02c3.634.421 6.005 1.457 9.114 3.361 2.526 3.79 2.404 6.916 2.438 11.313.032.747.065 1.494.1 2.263.039 4.11-.304 6.66-2.94 9.904-3.997 3.877-6.766 3.663-12.086 3.646l-2.38.004c-2.66.004-5.319 0-7.978-.003l-5.745.005c-5.285.004-10.57.002-15.855-.001-5.693-.003-11.385 0-17.078.004-11.166.004-22.333.003-33.5 0-9.084-.002-18.168-.002-27.252-.001h-3.915l-7.872.001c-23.943.003-47.886 0-71.83-.005-21.818-.005-43.637-.004-65.455 0a213962.351 213962.351 0 0 1-81.432.004h-3.908c-9.054-.002-18.11 0-27.164.002-11.063.003-22.127.002-33.19-.003-5.638-.003-11.275-.004-16.912 0-38.846.02-38.846.02-53.587-.454l-2.815-.066c-4.557-.192-8.09-.433-11.644-3.613 0-4 0-4 1.063-5.625 5.198-3.69 11.376-3.666 17.5-3.563l2.208.002c4.177.034 8.116.374 12.229 1.186v-2h-2v-2h-2l-1-6c6.338.587 11.933 2.062 18 4l1-16h2v-2h2v-2l10 2 1.11-1.906c3.25-5.139 6.25-8.64 11.453-11.844 22.367-13.913 36.755-39.556 50.535-61.27 1.93-3.025 3.854-6.033 5.902-8.98h1c.027 2.25.046 4.5.063 6.75l.035 3.797C176 302 176 302 175.528 303.834c-2.481 10.173-1.714 21.678-1.713 32.109-.003 2.384-.02 4.768-.04 7.153-.257 12.28-.257 12.28 3.225 23.904l2.016.742L181 369c.61 2.82.61 2.82.75 6.125l.172 3.32L182 381l7 1 1-10-6-1v-2l5 1 1-109Z" fill="#6E8FF9"/><path d="M478 378c8.11-.07 16.22-.123 24.332-.155 3.766-.016 7.532-.037 11.299-.071 3.637-.033 7.275-.05 10.912-.059 1.385-.005 2.77-.016 4.155-.032 1.946-.022 3.892-.023 5.838-.024l3.35-.02c3.634.421 6.005 1.457 9.114 3.361 2.526 3.79 2.404 6.916 2.438 11.313.032.747.065 1.494.1 2.263.039 4.11-.304 6.66-2.94 9.904-3.844 3.729-5.671 3.645-10.935 3.643l-2.002.004c-2.236.002-4.472-.002-6.707-.007l-4.832.003c-4.442.002-8.884-.002-13.326-.007-4.784-.004-9.568-.003-14.352-.002-8.294 0-16.588-.003-24.882-.008-11.992-.008-23.984-.011-35.976-.012-19.454-.002-38.908-.01-58.363-.019-18.902-.009-37.805-.016-56.707-.02h-3.528l-17.524-.005c-48.488-.01-96.976-.028-145.464-.05v-1l17-1-6-4c-4.056-4.345-5.128-9.192-5-15 19.856-.263 39.713-.524 59.569-.782 9.223-.12 18.446-.241 27.668-.364 8.053-.106 16.106-.212 24.16-.316a24684.42 24684.42 0 0 0 20.053-.266c3.867-.05 7.733-.096 11.6-.129l4.43-.038 2.17-.019c4.177-.042 8.347-.14 12.521-.29 1.95-.068 3.902-.118 5.853-.167 2.34-.06 4.68-.147 7.02-.267 8.195-.16 12.795 2.318 18.956 7.638l-1.365 1.473c-4.265 4.564-4.265 4.564-5.635 10.527 1.135 1.324 1.135 1.324 4.063 1.563 5.8-.829 8.195-4.326 11.937-8.563l1.864.627c2.795.938 5.59 1.874 8.386 2.81l2.934.987a573646995.369 573646995.369 0 0 0 5.434 1.82c3.597 1.142 6.78 1.88 10.565 1.917l2.469.03 2.645.012 2.75.017c1.92.01 3.84.016 5.76.02 2.919.01 5.837.04 8.755.072 1.87.007 3.74.012 5.61.016l2.62.038c5.019-.019 8.804-.745 13.424-2.69 2.494-.945 4.726-1.016 7.378-.969l2.93.03 2.976.075 3.07.042c2.477.035 4.953.084 7.43.146v2h2v2l7-1 1-3 2.682-.025c8.329-.077 16.657-.165 24.986-.263 4.282-.05 8.564-.096 12.847-.134 4.13-.037 8.26-.083 12.39-.136 1.578-.019 3.156-.034 4.735-.045 2.205-.017 4.41-.046 6.615-.078l3.81-.04c3.057.024 3.057.024 4.935-2.279.358-2.793.358-2.793.313-5.938l.05-3.214c-.134-2.785-.134-2.785-1.497-4.499-2.698-1.95-4.773-1.749-8.082-1.781l-3.882-.06-4.195-.02-4.292-.054c-3.763-.048-7.526-.077-11.289-.104-3.84-.03-7.682-.076-11.522-.121A5588.27 5588.27 0 0 0 474 383l2-1v-2h2v-2Z" fill="#092A39"/><path d="M176 124h2c.027 1.792.046 3.583.063 5.375l.035 3.023C178 135 178 135 177 137a90.83 90.83 0 0 0-.316 4.79l-.127 2.85-.12 2.985-.13 3.008c-.107 2.455-.209 4.911-.307 7.367h-4l2 8h2v-2h6v-2h10v24h-2v-2h-4v6h2v2l3.188-.188c4.026.199 5.668.763 8.812 3.188 1.96 2.94 2.483 4.55 3.125 7.938l.508 2.59C204 208 204 208 204 212c-2.867-.573-3.861-.861-6-3l-3 2h-4v35c-12.666 0-12.666 0-19.563-2.438l-2.11-.697c-2.512-.838-4.956-1.68-7.327-2.865v-8h-2v-6h-2v2h-2v2h-2v2h-2v2h-4v2h-10v-2h-2v-42h2v-6h2v-4h2v-2h2v-2h2v-2h4v-2h4v-2h6v-12l-2.75-.688c-4.952-2-7.137-5.563-9.25-10.312-1.085-4.493-.62-7.851 1.578-11.926 3.623-5.22 6.434-8.618 12.422-11.074 4.137-.345 7.933.225 12 1l2-3Z" fill="#FDA628"/><path d="M555.098 338.906c5.471 3.098 5.471 3.098 7.109 6.883 2.132 8.632 1.614 16.315-2.836 24.043L558 372l-1.152 1.95c-1.035 1.675-1.035 1.675-2.848 4.05h-2v2l3.438-2c4.367-2.188 8.727-3.113 13.562-2 2 3 2 3 1.938 6.313-1.153 4.532-2.884 6.222-5.938 9.687l2.427-.048c3.67-.062 7.34-.101 11.01-.14l3.819-.076c8.35-.065 14.872.769 22.307 4.577C606 398 606 398 606.25 401.188L606 404c-4.201 2.356-7.313 3.39-12.121 3.512l-3.554.107-3.763.068-3.865.102c-11.565.277-23.13.322-34.697.211v-2l-3-1 1.473-1.469c2.16-3.579 2.002-6.974 1.965-11.031l.06-2.3c-.003-3.595-.162-5.749-2.338-8.669-3.668-2.6-6.725-2.673-11.1-2.736l-3.7-.06-3.997-.051-4.09-.063c-3.585-.056-7.17-.105-10.756-.153-3.66-.05-7.32-.106-10.98-.161-7.179-.108-14.358-.21-21.537-.307v-2h2v-2h2v-2h2v-2h2l2-6h2v-2h2v-4h2v-2h2v-4h2l2-8h2v-2c3.226-1.613 6.747-1.12 10.29-1.098l2.48.005c2.618.005 5.236.018 7.855.03 1.773.006 3.547.01 5.32.014 4.352.011 8.703.028 13.055.049l1-2c4.039-1.346 7.08-1.83 11.098-.094Z" fill="#708FFA"/><path d="M294 98h10v2h6v2h2v2h2v2h2v4h2v8h24v4h2v28c-29.027 1.79-57.921 2.25-87 2-.586-4.834-1.128-9.596-1.098-14.473l.01-2.783.025-2.806.014-2.913c.012-2.341.028-4.683.049-7.025h2v-2h2v-2h22v-8h2v-4h2v-2h2v-2h4v-2h2v-2Z" fill="#FDA72B"/><path d="m188 191.75 3.625-.078c3.67.357 5.468 1.106 8.375 3.328 1.96 2.94 2.483 4.55 3.125 7.938l.508 2.59C204 208 204 208 204 212c-2.867-.573-3.861-.861-6-3l-3 2h-4v35c-12.666 0-12.666 0-19.563-2.438l-2.11-.697c-2.512-.838-4.956-1.68-7.327-2.865v-8h-2v-6h-2v2h-2v2h-2v2h-2v2h-4v2h-10v-2h-2v-29l9.875-.125c8.622-.288 14.242-1.45 21.125-6.875 1.585-.969 3.19-1.907 4.813-2.813l2.082-1.207c4.547-2.117 9.149-2.166 14.105-2.23Z" fill="#E06008"/><path d="M540.75 283.563c4.235 1.873 6.754 4.56 9.25 8.437v2h2a224.95 224.95 0 0 1 1 9l.242 2.52c.302 5.93-.714 10.897-2.554 16.48l-.646 1.961c-1.194 3.374-2.344 5.686-5.042 8.039-.714 2.103-.714 2.103-1 4h-2v2h-2v2h-34v-6h2v-8h2v-6h2l-.127-2.383c-.167-3.58-.27-7.16-.373-10.742l-.203-3.75c-.194-9.004-.194-9.004 2.4-12.248 2.038-1.532 4.038-2.716 6.303-3.877.568-.405 1.137-.81 1.722-1.229 6.01-4.168 12.177-3.236 19.028-2.209Z" fill="#7091FB"/><path d="M478 378c8.11-.07 16.22-.123 24.332-.155 3.766-.016 7.532-.037 11.299-.071 3.637-.033 7.275-.05 10.912-.059 1.385-.005 2.77-.016 4.155-.032 1.946-.022 3.892-.023 5.838-.024l3.35-.02c3.634.421 6.005 1.457 9.114 3.361 2.526 3.79 2.404 6.916 2.438 11.313.032.747.065 1.494.1 2.263.039 4.11-.304 6.66-2.94 9.904-3.844 3.729-5.671 3.645-10.935 3.643l-2.002.004c-2.236.002-4.472-.002-6.707-.007l-4.832.003c-4.442.002-8.884-.002-13.326-.007-4.784-.004-9.568-.003-14.352-.002-8.294 0-16.588-.003-24.882-.008-11.992-.008-23.984-.011-35.976-.012-19.454-.002-38.908-.01-58.363-.019-18.902-.009-37.805-.016-56.707-.02h-3.528l-17.524-.005c-48.488-.01-96.976-.028-145.464-.05v-1c18.085-1.327 36.19-1.103 54.31-1.045 5.77.019 11.542.028 17.313.036 16.393.024 32.786.06 49.18.105 9.09.025 18.18.042 27.271.052 5.733.006 11.467.022 17.2.044 3.56.012 7.12.015 10.68.016 1.647.002 3.293.008 4.94.017 2.252.012 4.503.012 6.755.009l3.812.01c5.888-.406 10.45-1.43 14.476-5.869l1.778-1.914L361 397l1.864.627c2.795.938 5.59 1.874 8.386 2.81l2.934.987a573646995.369 573646995.369 0 0 0 5.434 1.82c3.597 1.142 6.78 1.88 10.565 1.917l2.469.03 2.645.012 2.75.017c1.92.01 3.84.016 5.76.02 2.919.01 5.837.04 8.755.072 1.87.007 3.74.012 5.61.016l2.62.038c5.019-.019 8.804-.745 13.424-2.69 2.494-.945 4.726-1.016 7.378-.969l2.93.03 2.976.075 3.07.042c2.477.035 4.953.084 7.43.146v2h2v2l7-1 1-3 2.682-.025c8.329-.077 16.657-.165 24.986-.263 4.282-.05 8.564-.096 12.847-.134 4.13-.037 8.26-.083 12.39-.136 1.578-.019 3.156-.034 4.735-.045 2.205-.017 4.41-.046 6.615-.078l3.81-.04c3.057.024 3.057.024 4.935-2.279.358-2.793.358-2.793.313-5.938l.05-3.214c-.134-2.785-.134-2.785-1.497-4.499-2.698-1.95-4.773-1.749-8.082-1.781l-3.882-.06-4.195-.02-4.292-.054c-3.763-.048-7.526-.077-11.289-.104-3.84-.03-7.682-.076-11.522-.121A5588.27 5588.27 0 0 0 474 383l2-1v-2h2v-2Z" fill="#09357E"/><path d="M480.493 382.596c1.902-.02 1.902-.02 3.842-.038l4.11.008c1.417-.004 2.834-.01 4.25-.015 2.961-.01 5.921-.007 8.882.003 3.79.011 7.58-.009 11.372-.038 2.922-.018 5.843-.018 8.765-.012 1.398 0 2.796-.006 4.194-.019 1.953-.015 3.905-.001 5.858.013h3.364c3.536.618 4.716 1.68 6.87 4.502.496 2.91.496 2.91.438 6.062l-.004 3.16C542 399 542 399 540.902 400.653c-2.877 2.04-5.265 1.707-8.76 1.689h-2.1a733.642 733.642 0 0 1-6.866-.048 2408.285 2408.285 0 0 1-17.295-.087c-4.263-.03-8.526-.044-12.79-.06-8.363-.032-16.727-.083-25.091-.146v-4h-2v-2h-2v-2l-3-1 1-3c3.063-1.188 3.063-1.188 6-2v-2c4.357-2.477 7.494-3.38 12.493-3.404Z" fill="#F5F5F7"/><path d="m502 344 2 1c2.478.156 4.933.258 7.414.316l2.211.063c2.333.066 4.667.125 7 .183l4.742.131c3.878.108 7.755.207 11.633.307v27h-53l2-1v-2h2l2-6h2v-2h2v-4h2v-2h2v-4h2l2-8Z" fill="#F7F7F6"/><path d="m232 283.813 3.969-.038 3.781-.005 3.484-.013C246 284 246 284 248 286c.259 2.95.259 2.95.266 6.688l.005 1.994a598.56 598.56 0 0 1-.01 4.176c-.011 2.134 0 4.266.012 6.4a7944952894.05 7944952894.05 0 0 1-.015 7.793C248 316 248 316 246 318c-2.75.243-2.75.243-6.215.23l-3.767-.005-3.956-.038-3.943-.001c-9.698-.046-9.698-.046-13.119-1.186-.025-4.075-.043-8.15-.055-12.225-.005-1.386-.012-2.772-.02-4.159a1656.66 1656.66 0 0 1-.023-5.98l-.016-3.633C215 288 215 288 216 285c4.577-2.288 10.975-1.185 16-1.188Z" fill="#D7DFF8"/><path d="M229.376 337.574c2.051-.011 4.1-.06 6.15-.111l3.908-.022 3.595-.04c2.971.599 2.971.599 4.856 2.768 1.221 3.1 1.502 5.358 1.513 8.683l.012 3.328-.035 3.445.035 3.469a488809292.403 488809292.403 0 0 0-.022 6.35C249 368 249 368 247.885 369.826c-2.818 1.755-5.154 1.546-8.451 1.537l-3.909-.002-2.032-.025c-2.052-.023-4.103-.02-6.155-.014-10.071-.055-10.071-.055-12.338-2.322-.259-2.857-.259-2.857-.266-6.469l-.007-3.918.012-2.044c.011-2.061 0-4.121-.012-6.182l.007-3.918.007-3.612c.668-7.378 8.936-5.267 14.635-5.283Z" fill="#D6E0F9"/><path d="M217 231c2.642-.372 2.642-.372 5.96-.363l3.618.002 3.797.048 3.773-.01c10.138.06 10.138.06 13.852 2.323.074 4.075.129 8.15.165 12.225.015 1.386.035 2.773.061 4.159.037 1.993.052 3.986.067 5.98l.048 3.633C248 262 248 262 246.865 263.894c-2.71 1.608-4.858 1.46-7.994 1.434l-3.635-.015-3.798-.063-3.811-.016c-9.319-.08-9.319-.08-11.627-1.234-1.765-5.296-1.185-10.958-1.188-16.5l-.037-3.785-.005-3.621-.013-3.323C215 234 215 234 217 231Z" fill="#D7E0F8"/><path d="M176 124h2c.027 1.792.046 3.583.063 5.375l.035 3.023C178 135 178 135 177 137a90.83 90.83 0 0 0-.316 4.79l-.127 2.85-.12 2.985-.13 3.008c-.107 2.455-.209 4.911-.307 7.367h-4l.91 2.266c.38.984.76 1.97 1.153 2.984l1.16 2.953c.79 2.842.95 4.122-.223 6.797-2.34 1.17-3.774 1.134-6.375 1.125l-2.336.008C164 174 164 174 160 173v-13l-6-2c-4.386-4.63-6.705-9.03-6.578-15.418 1.2-5.356 4.796-9.724 8.578-13.582 6.338-3.707 10.937-3.345 18-2l2-3Z" fill="#DD5F09"/><path d="M179.7 206.113C182 207 182 207 184 208c3.378.144 5.774.075 9-1v3l2 1h-4v35c-12.666 0-12.666 0-19.563-2.438l-2.11-.697c-2.512-.838-4.956-1.68-7.327-2.865v-8h-2c-.366-6.35-.366-6.35 1.375-9.438C163 221 163 221 165 221l.7-1.637c1.694-3.08 3.8-5.53 6.113-8.175l2.582-3.02C177 206 177 206 179.699 206.113Z" fill="#FBA528"/><path d="M133 346h1l.438 3.625c1.877 8.684 8.25 16.457 13.562 23.375-2.837-1.117-5.572-2.28-8.313-3.625-5.197-1.938-9.318-2.165-14.687-.375l-2 1c-.462 5.486-.462 5.486 1.5 10.375L126 382v2l1.688.75c2.71 1.465 4.928 3.305 7.312 5.25l-2.473-.438c-8.228-1.289-16.257-1.755-24.59-1.75l-2.99-.001c-4.864.036-9.09.38-13.947 1.189l1-15h2v-2h2v-2l10 2 1.11-1.906c4.116-6.508 8.414-10.118 14.937-14.133 3.668-2.436 6.542-5.278 9.527-8.492L133 346Z" fill="#537EEE"/><path d="M405.938 245.875C409 246 409 246 411 247l.012 3.976c.022 4.868.076 9.735.14 14.603.024 2.107.038 4.214.044 6.32.009 3.03.05 6.057.097 9.085l-.012 2.854c.02 5.429.02 5.429 3.224 9.624L417 295c1.207 5.03.773 9.667-1.813 14.125-3.67 3.146-7.305 3.298-11.957 3.2-2.23-.325-2.23-.325-5.293-2.137-2.425-3.992-2.537-6.876-2.601-11.47C396 296 396 296 398.5 293.96c3.573-4.23 3.213-7.661 3.172-13.038l.039-2.931c.036-3.08.039-6.16.039-9.241.022-3.095.05-6.19.082-9.284.018-1.924.028-3.848.03-5.772l.012-2.62.001-2.317c.217-3.06.963-2.75 4.063-2.882Z" fill="#836AF8"/><path d="m361 397 1.864.627c2.795.938 5.59 1.874 8.386 2.81l2.934.987a573639027.091 573639027.091 0 0 0 5.434 1.82c3.597 1.142 6.78 1.88 10.565 1.917l2.469.03 2.645.012 2.75.017c1.92.01 3.84.016 5.76.02 2.919.01 5.837.04 8.755.072 1.87.007 3.74.012 5.61.016l2.62.038c5.019-.019 8.804-.745 13.424-2.69 2.494-.945 4.726-1.016 7.378-.969l2.93.03 2.976.075 3.07.042c2.477.035 4.953.084 7.43.146v2h2v2l82 1v1H152v-1c18.085-1.327 36.19-1.103 54.31-1.045 5.77.019 11.542.028 17.313.036 16.393.024 32.786.06 49.18.105 9.09.025 18.18.042 27.271.052 5.733.006 11.467.022 17.2.044 3.56.012 7.12.015 10.68.016 1.647.002 3.293.008 4.94.017 2.252.012 4.503.012 6.755.009l3.812.01c5.888-.406 10.45-1.43 14.476-5.869l1.778-1.914L361 397Z" fill="#576078"/><path d="M109.688 308.813A96.696 96.696 0 0 1 117 313c-3.193 6.801-6.88 13.16-10.863 19.527-3.555 5.72-6.83 11.607-10.137 17.473-6.961-6.612-8.112-15.4-8.438-24.563.12-8.003.12-8.003 2.563-11.687 5.93-5.672 11.592-7.347 19.563-4.938Z" fill="#537EEE"/><path d="M252 184c-.731 4.267-2.893 6.288-5.82 9.316L245 195l1 3c.729 6.832.27 11.527-4 17-3.34 2.786-6.181 3.898-10.5 4.438-5.144-.643-8.947-1.972-12.75-5.563-3.14-5.158-4.79-10.927-5.75-16.875 3.99.56 6.526 1.757 9.813 4.063l2.394 1.66L227 204c5.733-4.771 10.907-9.887 16.014-15.316l1.779-1.832 1.579-1.662C248 184 248 184 252 184Z" fill="#D6DFF6"/><path d="M294 98h10v2h6v2h2v2h2v2h2v4h2v8h-36v-8h2v-4h2v-2h2v-2h4v-2h2v-2Z" fill="#FBA62D"/><path d="M86 366c3.487 1.11 6.775 2.263 10 4v2h-2v2h-2l.035 2.992.028 3.883.035 3.867C92 388 92 388 91 390c-6.104-.691-11.843-2.216-17.75-3.875l-2.805-.777A2524.93 2524.93 0 0 0 51 380l1-4 3.508-.113c1.539-.066 3.078-.132 4.617-.2l2.305-.068c4.868-.23 8.325-1 12.57-3.619l1.5-1.75L78 369c3.188.313 3.188.313 6 1v-2h2v-2Z" fill="#112E3A"/><path d="m63.563 394.813 2.208.001c4.177.034 8.116.374 12.229 1.186l.313 2.875c.372 3.416.372 3.416 3.687 5.125v2h38v2c-45.77.19-45.77.19-60.563-.313l-2.796-.068c-4.556-.194-8.087-.443-11.641-3.619 0-4 0-4 1.063-5.625 5.198-3.69 11.376-3.666 17.5-3.563Z" fill="#557BE1"/><path d="M176 124h2c.081 1.75.14 3.5.188 5.25l.105 2.953c-.351 3.35-.726 4.597-3.293 6.797-2.685.458-4.997.695-7.688.75l-2.126.09c-1.728.07-3.457.117-5.186.16v6h-7c-.417 2.874-.417 2.874 0 6 2.463 1.645 2.463 1.645 5 3v4c-3.818-.873-5.638-2.437-7.813-5.563-2.549-4.543-3.616-8.334-2.187-13.437 3.53-6.461 7.073-11.159 14-14 4.137-.345 7.933.225 12 1l2-3Z" fill="#101937"/><path d="M405.688 289.688c4.763.034 7.94 1.94 11.312 5.312.528 5.164.83 9.568-1.813 14.125-3.67 3.146-7.305 3.298-11.957 3.2-2.23-.325-2.23-.325-5.293-2.137-2.828-4.654-2.966-8.877-1.937-14.188 2.438-3.125 2.438-3.125 5-5 1-1 1-1 4.688-1.313Z" fill="#063B8B"/><path d="M206 138h4v4h2v-4h14v2h6c.465 6.503-.674 10.417-4 16-2.48.027-4.958.047-7.438.063l-2.142.025c-1.807.009-3.614-.036-5.42-.088-1-1-1-1-1.098-3.723l.036-3.34.027-3.347L212 143h-6v-5Z" fill="#DF6212"/><path d="M395 297h1l.043 1.977.144 2.648.106 2.602c.722 2.833 1.387 3.8 3.251 5.946L402 313a1133.582 1133.582 0 0 1-9.442 9.772 456.475 456.475 0 0 0-3.203 3.326 446.111 446.111 0 0 1-4.64 4.773l-1.415 1.509c-3.548 3.551-6.348 4.337-11.3 4.62-.806-3.165-.806-3.165-1-7 1.982-2.747 1.982-2.747 4.898-5.363a82269 82269 0 0 0 3.141-2.94 947.095 947.095 0 0 1 5.004-4.5c7.804-6.627 7.804-6.627 11.184-15.927.003-2.378.003-2.378-.227-4.27Z" fill="#836CF2"/><path d="M496.266 364.886h2.67l2.884.016 2.951.005c3.118.005 6.236.018 9.354.03 2.11.006 4.221.01 6.332.014 5.181.011 10.362.028 15.543.049v7h-50v-2h2l.875-1.938c1.847-3.386 3.812-3.186 7.391-3.176Z" fill="#FCFCFC"/><path d="M543 373v4l2 1-1 2-3-1a133.26 133.26 0 0 0-5.94-.205l-3.7-.06-3.997-.051-4.09-.063c-3.585-.056-7.17-.105-10.756-.153-3.66-.05-7.32-.106-10.98-.161-7.179-.108-14.358-.21-21.537-.307v-2h2v-2c2.483-1.242 4.219-1.165 6.997-1.221l3.156-.07 3.425-.06 3.513-.07c2.458-.048 4.916-.094 7.374-.137 3.756-.066 7.51-.144 11.265-.223 2.387-.045 4.774-.09 7.16-.133l3.4-.072c5.027-.08 9.773-.126 14.71.986Z" fill="#8465FD"/><path d="m502 344 2 1c2.478.156 4.933.258 7.414.316l2.211.063c2.333.066 4.667.125 7 .183l4.742.131c3.878.108 7.755.207 11.633.307v27h-53v-1h52v-20l-7.367.07c-2.35.016-4.7.028-7.05.04-1.635.01-3.27.024-4.906.04-2.348.025-4.696.036-7.044.045l-2.223.032c-1.805 0-3.61-.105-5.41-.227l-2-2 2-6Z" fill="#E0DFF4"/><path d="m424 96-6 16c-3.676-.92-6.293-2.076-9.625-3.813a148.909 148.909 0 0 0-14.414-6.425C392 101 392 101 390 100v-2c11.417-1.376 22.497-2.228 34-2Z" fill="#B6C5FB"/><path d="M468 402h69l-1 3 4 1h-72v-4Z" fill="#074296"/><path d="m293.137 110.867 2.06-.003c1.432 0 2.863.001 4.294.006 2.2.005 4.398 0 6.597-.007 1.391 0 2.782.002 4.174.004l3.842.004C317 111 317 111 318 112v6h-36v-6c3.72-1.177 7.255-1.13 11.137-1.133Z" fill="#F47907"/><path d="M252 184c-.589 3.43-1.743 5.146-4.133 7.645l-1.945 2.052-2.047 2.115-1.977 2.08c-4.231 4.438-8.543 8.792-12.898 13.108-4.054-1.438-7.308-3.389-10.813-5.875l-2.957-2.055L213 201v-4c3.99.56 6.526 1.757 9.813 4.063l2.394 1.66L227 204c5.733-4.771 10.907-9.887 16.014-15.316l1.779-1.832 1.579-1.662C248 184 248 184 252 184Z" fill="#846BF4"/><path d="m238 189.5 3 1.5a185.904 185.904 0 0 1-13 14c-8.387-4.516-8.387-4.516-11-8 .25-2.25.25-2.25 1-4l4-1v-2c4.979-3.32 10.744-2.75 16-.5Z" fill="#D9E1F7"/><path d="M424.75 88.063c4.318 1.245 4.909 3.014 7.188 6.812C435 100.569 435 100.569 435 103l-13-1 1-5h-27c2.46-2.46 4.067-2.662 7.438-3.438 4.164-.978 8.27-2.044 12.375-3.25 2.974-.768 5.956-1.504 8.937-2.25Z" fill="#6284F9"/><path d="M190 261h1v125h39v1h-46v-5h5l1-10-6-1v-2l5 1 1-109Z" fill="#858F94"/><path d="m514.29 340.902 2.48.005c2.618.005 5.236.018 7.855.03 1.773.006 3.547.01 5.32.014 4.352.011 8.703.028 13.055.049v5h-40l1-4c3.226-1.613 6.747-1.12 10.29-1.098Z" fill="#7E64FB"/><path d="M230 386c21.781-.1 43.555.178 65.334.464 4.714.061 9.428.12 14.143.18 9.174.117 18.349.236 27.523.356v1c-13.48.173-26.958.34-40.438.5l-3.019.036c-33.85.401-67.69.604-101.543.464v-1l38-1v-1Z" fill="#1D3543"/><path d="m361 397 1.769.61c2.7.929 5.403 1.847 8.106 2.765l2.781.96A120.775 120.775 0 0 0 392 406v1h-40c6-7 6-7 9-10Z" fill="#0E202E"/><path d="M432 80c-2.477 7.098-2.477 7.098-5.824 9.08-2.213.733-4.392 1.264-6.676 1.733l-2.422.576c-1.606.38-3.214.748-4.825 1.103-3.07.693-6.093 1.548-9.128 2.383-3.484.943-5.679 1.295-9.125.125 1.52-.773 3.04-1.544 4.563-2.313l2.566-1.3c3.249-1.57 6.554-2.968 9.871-4.387 3.262-1.495 6.503-3.034 9.746-4.57 7.689-3.618 7.689-3.618 11.254-2.43Z" fill="#B5C5FA"/><path d="m94 358 2.047.621 2.703.817 2.672.808c2.184.639 4.366 1.222 6.578 1.754v2h3c-1.256 3.477-2.733 6.094-5 9-1.918-.452-3.834-.912-5.75-1.375l-3.234-.773c-2.575-.727-4.692-1.555-7.016-2.852v-2h4v-4h2v-2h-2v-2Z" fill="#1A354F"/><path d="m460 392 4 2v2h2v2h2c.042 2.333.04 4.667 0 7-1 1-1 1-4.563 1.063L460 406v-2h-2v-2h-16v-2h4v-2c5.75-1.125 5.75-1.125 8 0v2h2l-1-3 5-5Z" fill="#FBAA2C"/><path d="M440 396h10v2h-4v2h-4v2l-2.555.621-3.32.817-3.305.808c-2.745.633-2.745.633-4.82 1.754-2.554.087-5.08.116-7.633.098l-2.278-.005c-2.405-.005-4.81-.018-7.214-.03-1.629-.006-3.258-.01-4.887-.014-3.996-.011-7.992-.028-11.988-.049v-2h26v-2h12v-2h8v-4Z" fill="#F59221"/><path d="m92 352 1 2a112.654 112.654 0 0 1-3.438 7.125l-1.025 1.996A775.091 775.091 0 0 1 86 368h-2v2l-6-1c1.108-11.98 1.108-11.98 4.75-15.25 3.469-1.868 5.377-2.211 9.25-1.75Z" fill="#5980EE"/><path d="m447.375 401.875 3.098.027c2.509.024 5.018.057 7.527.098v2h2l1 3h-41v-1l1.977-.367 2.648-.508 2.602-.492c2.794-.56 2.794-.56 5.398-1.695 4.92-1.367 9.672-1.148 14.75-1.063Z" fill="#10387E"/><path d="M492.633 368.886h2.912l3.15.016 3.22.005c3.404.005 6.807.018 10.21.03 2.303.006 4.607.01 6.91.014 5.655.011 11.31.028 16.965.049v3h-50v-2c2.418-1.209 3.933-1.12 6.633-1.114Z" fill="#F5F7F2"/><path d="M256 192h134l-1 3h-2v-2H256v-1Z" fill="#EEF3FE"/><path d="M372 114c3.578-.325 5.395-.43 8.375 1.688C382 118 382 118 382.438 120.561c-.438 2.438-.438 2.438-1.5 4.25-3.032 1.858-5.472 1.56-8.938 1.188-2-1.063-2-1.063-3-3 .313-3.688.313-3.688 1-7h2v-2Z" fill="#CED9F4"/><path d="m73 376-1 2 3.188-.875C79 377 79 377 80.578 378.235 84 382.364 84 382.364 84 384h-8v-2h-6v-2h-7l1-2h-8v2h-5l1-4c2.75-.195 5.5-.381 8.25-.563l2.355-.17 2.286-.146 2.094-.143c2.151.023 3.956.422 6.015 1.022Z" fill="#062B35"/><path d="M69 377v1l-5 1 6 1v2h6v2l3.75.438c2.815.349 5.52.766 8.25 1.562v2c-5.911.302-10.886-.787-16.563-2.375l-2.498-.672c-4.362-1.186-8.666-2.47-12.939-3.953v-3c4.394-.857 8.526-1.09 13-1Z" fill="#5B2843"/><path d="M86 366c3.487 1.11 6.775 2.263 10 4v2h-2v2h-2v4h-6v-2h-2v-5l-2-1h2v-2h2v-2Z" fill="#D36124"/><path d="M206 138h4v4h2v-2h2v2h2v-2h2c.054 1.583.093 3.166.125 4.75l.07 2.672c-.21 2.771-.578 4.32-2.195 6.578l-4 1v-12h-6v-5Z" fill="#E25B08"/><path d="M342 126h2v24h-24v-2h22v-22Z" fill="#FFA707"/><path d="M304 330c3.459 3.459 4 7.219 4 12h2l-.48 1.675c-.57 2.546-.73 4.922-.836 7.528l-.127 2.969-.12 3.078-.13 3.125c-.106 2.542-.208 5.083-.307 7.625h-1v-28c-3.2-1.066-5.514-1.13-8.875-1.133l-3.484-.004-3.641.012-3.64-.012-3.485.004-3.195.004c-2.782.013-2.782.013-5.68 1.129v-2c2.766-1.383 5.01-1.112 8.102-1.098l3.671.01 3.852.026 3.875.013c3.167.012 6.333.028 9.5.049v-7Z" fill="#E4E7EB"/><path d="M182 162h10v24h-2v-2h-4v2h-2v-4h6v-18h-8v-2Z" fill="#E8A376"/><path d="M543 373v4l2 1-1 2-4-2v-4h-56v-1c7.438-.169 14.876-.328 22.314-.482 2.53-.054 5.06-.109 7.59-.166 3.638-.082 7.277-.157 10.916-.23l3.42-.083 3.214-.06 2.812-.061c2.986.09 5.802.53 8.734 1.082Z" fill="#6E5BDA"/><path d="M136 206h2v26h2v2h6v2h-8v-2h-2v-28Z" fill="#EC5F05"/><path d="m500 351 36 1v2h-36v-3Z" fill="#FCFDFD"/><path d="M406.5 220.75c2.5.25 2.5.25 4.5 2.25.188 3.063.188 3.063 0 6-1 1-1 1-3.938 1.188C404 230 404 230 402 228c-.25-2.5-.25-2.5 0-5 2-2 2-2 4.5-2.25Z" fill="#8F7BEF"/><path d="M73 386c4.714.48 8.666.968 13 3l-1 2h-2v2l-7 1v-2h-2l-1-6Z" fill="#5581EE"/><path d="m468 386 35 1v1c-4.211 1.024-8.162 1.115-12.488 1.098l-2.131-.005c-2.231-.005-4.462-.018-6.693-.03A4295.47 4295.47 0 0 1 466 389l2-1v-2Z" fill="#ECECEC"/><path d="M538.438 202.813C541 203 541 203 543 205c.25 2.5.25 2.5 0 5-2 2-2 2-4.5 2.313L536 212c-2-3-2-3-1.688-5.625.961-3.32.961-3.32 4.125-3.563Z" fill="#C4CEF5"/><path d="M545 146h3v4h4v4h-4v4l-3-1v-3h-3l-1-3 4-1v-4Z" fill="#A3B0F8"/><path d="m331 226 1 4h-2l-.688 2.813C328 236 328 236 325.563 237.313c-3.908 2.574-4.431 6.302-5.562 10.687h-2v-2h-2v-2h2l2-6h2v-2h2l2-4h2v-4l3-2Z" fill="#F9BA3D"/><path d="M256 78c2.875-.125 2.875-.125 6 0l2 2c-.375 2.625-.375 2.625-1 5-2.875.625-2.875.625-6 1l-2-2c.375-3.125.375-3.125 1-6Z" fill="#CCD7F5"/><path d="M479 297c2-.043 4-.04 6 0 1 1 1 1 1.125 4-.125 3-.125 3-1.125 4-3 .125-3 .125-6 0l-1-1c.287-2.34.62-4.674 1-7Z" fill="#836AF0"/><path d="M403 373c2-.043 4-.04 6 0 1 1 1 1 1.125 4-.125 3-.125 3-1.125 4-2.438.188-2.438.188-5 0l-2-2c.375-3.125.375-3.125 1-6Z" fill="#826AF2"/><path d="M330.438 296.813C333 297 333 297 335 299c-.556 4.556-.556 4.556-2 6-2.5.125-2.5.125-5 0-1-1-1-1-1.125-4 .164-3.926.164-3.926 3.563-4.188Z" fill="#7E69EA"/><path d="M230 140h2c.465 6.503-.674 10.417-4 16h-4v-2h2l2-12h2v-2Z" fill="#E16A1E"/><path d="M69 382h7v2l3.75.438c2.815.349 5.52.766 8.25 1.562v2c-6.675.455-12.594-1.233-19-3v-3Z" fill="#8C2C4D"/><path d="M458 398h4v2h2v2h2v2l2 1c-1 1-1 1-4.563 1.063L460 406v-2h-2c-1.125-3.75-1.125-3.75 0-6Z" fill="#F8A628"/><path d="M191 207h2v3l2 1h-4v34h-1a6589.6 6589.6 0 0 1-.055-15.753c-.005-1.788-.012-3.576-.02-5.363-.013-2.565-.018-5.129-.023-7.693l-.015-2.436c0-1.919.051-3.837.113-5.755l1-1Z" fill="#E1A968"/><path d="M454 398v2h2v2h-14v-2h4v-2c3.053-.981 4.947-.981 8 0Z" fill="#E6E5E6"/><path d="M324 286h2l.184 2.117.253 2.758.247 2.742c.186 2.394.186 2.394 1.316 4.383-.281 2.008-.61 4.01-1 6l-3 1v-19Z" fill="#EAFAFE"/><path d="M375.5 116.875C378 117 378 117 379 118c.125 2.5.125 2.5 0 5-1 1-1 1-4.063 1.063L372 124c-.043-2-.04-4 0-6 1-1 1-1 3.5-1.125Z" fill="#8EA3F7"/><path d="M158 92h2v6h4v2h-4v5l-2-1v-4h-6v-2h6v-6Z" fill="#B2BFF7"/><path d="M186 184h4v2h2l2 6h-6v-2h-2v-6Z" fill="#5277F2"/><path d="M157 316h2l1 4h2v2h2v2h2v2c-4.194-.671-7.403-2.856-11-5 .875-3.875.875-3.875 2-5Z" fill="#7F9BF7"/><path d="M307 234h1l.076 1.956c.116 2.932.239 5.863.361 8.794l.12 3.078.127 2.969.11 2.73c.19 2.269.58 4.289 1.206 6.473h-2l-1 6-2-3 1-1c.158-2.07.251-4.147.316-6.223l.127-3.818.12-4.022.13-4.033c.107-3.301.209-6.602.307-9.904Z" fill="#E4E5E6"/><path d="M252 184c-.176 2.38-.697 3.702-2.402 5.379-1.504 1.242-3.05 2.435-4.598 3.621l-2-4c4.5-5 4.5-5 9-5Z" fill="#7D64F5"/><path d="M80 362h2v2h4v-2h2l-2 6h-2v2h-4v-8Z" fill="#4A7DEF"/><path d="M342 216h2c-.365 2.702-.699 4.584-2.313 6.813C340 224 340 224 336 224v2l-4-1c1.313-1.5 1.313-1.5 3-3h3v-2h2v-2h2v-2Z" fill="#FAB837"/><path d="M61 280h2v3h3v3h-3v3h-2v-3h-4v-3h4v-3Z" fill="#B0C0FC"/><path d="M416 95v1c-6.656 1.238-13.247 1.091-20 1 5.003-5.003 13.62-3.276 20-2Z" fill="#6584F2"/><path d="M227 144h1c.18 3.947.094 6.598-2 10h-2v2h-2c-.195-6.055-.195-6.055 0-8l2-2v4h2l1-6Z" fill="#DA5B05"/><path d="M424 96h2v2l2.938.875C432 100 432 100 433 102h-11c1-5 1-5 2-6Z" fill="#2D69F7"/><path d="M557 288c2.125.375 2.125.375 4 1 .625 1.875.625 1.875 1 4l-2 2c-2.125-.375-2.125-.375-4-1-.625-1.875-.625-1.875-1-4l2-2Z" fill="#C9CEF4"/><path d="M468 216h2v2h4v2h2l1 3-3 1v-2l-6 1v-7Z" fill="#F99223"/><path d="M488 236h2l-.875 1.625c-1.245 2.45-1.245 2.45-2 5.563L486 246c-2.125.875-2.125.875-4 1v-7h4v-2h2v-2Z" fill="#FD961B"/><path d="M348 52h2v4h4v2h-4v4h-2v-4h-4v-2h4v-4Z" fill="#AFBDF6"/><path d="M490 242h2v2h4v2l-3 1 1 3-4 1v-3h-2v-2h2v-4Z" fill="#FE9121"/><path d="M354 208h2l1 3c-2.53 3.092-5.225 3.91-9 5v-4l6-2v-2Z" fill="#FAB73B"/><path d="M175 288h1v14h-1l-1-7-4 3c1.15-3.892 2.292-6.939 5-10Z" fill="#5473CC"/><path d="M484 232h4v2h2v2h-2v2h-2v2h-2v-8Z" fill="#F8932E"/><path d="m151 148 .688 1.813c1.202 2.408 1.202 2.408 3.937 3.687L158 155v4c-3.842-1.246-6.115-2.334-8-6 .313-2.75.313-2.75 1-5Z" fill="#101232"/><path d="M52 376h10v2h-6v2h-5l1-4Z" fill="#113538"/><path d="M537 204c2.063.438 2.063.438 4 1 .563 1.938.563 1.938 1 4-1 1-1 1-3.563 1.063L536 210a99.984 99.984 0 0 1 0-5l1-1Z" fill="#899CF9"/><path d="M308 236h1v16l3 1-2 4-2-1v-20Z" fill="#F6F5F4"/><path d="M213 197c4.75.75 4.75.75 7 3l-3 4c-2-1.25-2-1.25-4-3v-4Z" fill="#8571E9"/><path d="m432 80-3 6-2-1v-3l-3 2c-2.188-.375-2.188-.375-4-1 1.432-.7 2.87-1.384 4.313-2.063l2.425-1.16C429 79 429 79 432 80Z" fill="#ACBFFB"/><path d="M346 398h2v6l4 1c-2.875.625-2.875.625-6 1l-2-2c.556-4.556.556-4.556 2-6Z" fill="#EE9E26"/><path d="M184 382h5l1 5h-6v-5Z" fill="#C75C30"/><path d="M372 403c1.691.09 3.38.246 5.063.438l2.785.308L382 404v2h-15l4-2 1-1Z" fill="#0C2F45"/><path d="M159 244h1v8h-2v2h-2c-.75-1.625-.75-1.625-1-4 1.875-3.25 1.875-3.25 4-6Z" fill="#0E2E3F"/><path d="M450 206h4v2h4v2h-6v2h-2v-6Z" fill="#FC9515"/><path d="M119 193h2v3h3v2h-3v3h-2v-3h-3v-2h3v-3Z" fill="#E6EEF6"/><path d="M221 200h9l-1 4-2 1a250 250 0 0 1-6-4v-1Z" fill="#D0DCF0"/><path d="M302 320h2v2h2v10c-2.421-2.421-2.528-3.801-3.125-7.125l-.508-2.758L302 320Z" fill="#F6BB41"/><path d="M69 382h7v3l2 1-9-1v-3Z" fill="#6D2F4F"/><path d="m376 200-2 4h-8c5.217-4 5.217-4 10-4Z" fill="#F8B942"/><path d="m468 386 18 1v1l-20 1 2-1v-2Z" fill="#E3E4E4"/><path d="M537 372c2.007.287 4.009.619 6 1v4l2 1-1 2-4-2v-4l-4-1 1-1Z" fill="#6F6DED"/><path d="M84 372h2v2h4v4h-4v-2h-2v-4Z" fill="#CB5A09"/><path d="M508 312h4v8h-2v-4h-2v-4Z" fill="#E69154"/><path d="M458 210h4v2h4v4h-2v-2h-4v-2h-2v-2Z" fill="#F59422"/><path d="M408 93v1c-1.58.365-3.165.717-4.75 1.063l-2.672.597c-2.565.338-4.149.152-6.578-.66 5.234-3.271 8.166-3.106 14-2Z" fill="#ADBEF6"/><path d="m73 386 8 1-1 3-6-1-1-3Z" fill="#4576DB"/><path d="M453 348c3 0 3 0 5.688 2.375C461 353 461 353 461 355c-3.786-.54-5.554-2.117-8-5v-2Z" fill="#8E79EC"/><path d="m173 140-1 2h-10v-2c3.818-1.374 7.073-.68 11 0Z" fill="#EB5E04"/><path d="M470 122h2c-.672 3.806-1.727 7.352-3 11h-1l-1-6h2l1-5Z" fill="#B3C1F2"/><path d="m326 296 2 2c-.375 3.125-.375 3.125-1 6l-3 1v-7h2v-2Z" fill="#EAEBF9"/><path d="M341.563 243.938 344 244v2h-2v2h-2v2h-2a99.984 99.984 0 0 1 0-5c1-1 1-1 3.563-1.063Z" fill="#FEA814"/><path d="M206 138h4v4l2 1h-6v-5Z" fill="#A94638"/><path d="M409 96h15l-2 4-2-1v-2h-11v-1Z" fill="#ADBDF4"/><path d="M543 387h1c.054 2.125.093 4.25.125 6.375l.07 3.586C544 400 544 400 542 402l-3-1 4-2v-12Z" fill="#203C92"/><path d="M462 362h2l1 3-3 1v4h-2v-6h2v-2Z" fill="#FAAB3B"/><path d="M200 206h3l1 6c-1.938-.313-1.938-.313-4-1l-1-3 1-2Z" fill="#3C59AD"/><path d="m258 79 4 1-1 4-4-1 1-4Z" fill="#8FA1F1"/><path d="m348 391 4 1-5 6-1-4h2v-3Z" fill="#383230"/><path d="M94 372h2v4h-2v4h-2v-6h2v-2Z" fill="#4483F7"/><path d="M510 324h2v6h-4v-4h2v-2Z" fill="#8392DE"/><path d="M504 264h2v4h-2v4h-2v-6h2v-2Z" fill="#FE9314"/><path d="M191 207h2v3l2 1h-4v7h-1a757.916 757.916 0 0 1-.063-4.938l-.035-2.777C190 208 190 208 191 207Z" fill="#E9AC76"/><path d="M334 118h8v4h-2v-2h-6v-2Z" fill="#F8A717"/><path d="M352 247c2.867 1.285 4.976 2.571 7 5v2c-2.867-1.285-4.976-2.571-7-5v-2Z" fill="#806BEA"/><path d="m172 158 1.313 2 1.687 2h3v2h-2v2h-2c-1.765-3.088-2-4.233-2-8Z" fill="#9892D3"/><path d="M546 147h2v4l3 1-3 1-2 4v-10Z" fill="#B3BCF9"/><path d="M424 96h2v4l2 2h-6c.875-4.875.875-4.875 2-6Z" fill="#4072F4"/><path d="M454 398v2h-8v-2c3.053-.981 4.947-.981 8 0Z" fill="#D1C9C2"/><path d="m459 247 2 1a158.814 158.814 0 0 1-5 6h-2c1.293-2.884 2.66-4.872 5-7Z" fill="#866DE4"/><path d="M348 240h2c-.573 2.867-.861 3.861-3 6h-3v-2h2v-2h2v-2Z" fill="#EDE7E2"/><path d="M358 348c0 3 0 3-2 5.188L354 355l-2-1c3.75-4.875 3.75-4.875 6-6Z" fill="#806BEE"/></svg>