<svg xmlns="http://www.w3.org/2000/svg" width="282" height="282" fill="none"><path fill="#fff" d="M29 55h226v217H29z"/><path fill="#6B87C8" d="M0 27.46h28.517v227.079H0zM28.517 0h226.022v27.461H28.517z"/><path fill="#4762A2" d="M254.539 27.46H282v227.079h-27.461zM28.517 254.54h226.022v27.461H28.517z"/><path fill="#5974B5" d="M28.517 239.753h226.022v14.787H28.517zM28.517 27.46h226.022v14.787H28.517zM28.517 42.247h226.022v14.787H28.517zM84.494 70.764h114.067v14.787H84.494zM84.494 126.742h29.573v58.09H84.494zM168.988 126.742h29.573v58.09h-29.573z"/><path fill="#5974B5" d="M127.798 141.528v28.517H70.764v-28.517zM212.292 141.528v28.517h-57.034v-28.517zM168.988 197.506h29.573v14.787h-29.573zM84.494 197.506h29.573v14.787H84.494zM70.764 84.494h28.517v14.787H70.764zM55.977 99.281h14.787v14.787H55.977zM212.292 84.495h-28.517v14.787h28.517z"/><path fill="#5974B5" d="M227.078 99.281h-14.787v14.787h14.787zM114.067 212.292h54.921v27.461h-54.921z"/><path fill="#5974B5" d="M99.281 226.022h14.787v13.73H99.281zM168.988 226.022h14.787v13.73h-14.787zM239.753 211.236h14.787v28.517h-14.787z"/><path fill="#5974B5" d="M254.539 224.966v14.787h-28.517v-14.787zM43.303 212.292H28.516v28.517h14.787z"/><path fill="#5974B5" d="M28.517 226.023v14.787h28.517v-14.787zM43.303 57.034H28.516V85.55h14.787z"/><path fill="#5974B5" d="M28.517 70.764v14.787h28.517V70.764zM240.81 55.977h-14.787v29.574h14.787z"/><path fill="#5974B5" d="M226.023 70.216V85.55h28.517V70.216zM35.91 55.977h21.124V71.82H35.91zM28.517 85.551h14.787v42.247H28.517z"/><path fill="#5974B5" d="M239.753 55.977h15.843v71.82h-15.843zM113.012 57.034h57.034v13.73h-57.034zM13.73 12.674h14.787v14.787H13.73zM254.539 12.674h14.787v14.787h-14.787zM13.73 254.54h14.787v14.787H13.73zM254.539 254.54h14.787v14.787h-14.787z"/></svg>