<svg xmlns="http://www.w3.org/2000/svg" width="282" height="282" fill="none"><path fill="#FA9F37" d="M70.5 211.5h58.75v35.25H70.5zM129.25 223.25H188v23.5h-58.75zM47 223.25h23.5v23.5H47zM34.075 223.25H47V235H34.075zM188 235h11.75v11.75H188z"/><path fill="#FA7837" d="M199.75 223.25h23.5v23.5h-23.5z"/><path fill="#FA7837" d="M188 211.5h23.5V235H188zM129.25 211.5H188v11.75h-58.75zM58.75 199.75h48.175v11.75H58.75zM58.75 211.5H70.5v11.75H58.75zM35.25 211.5H47v11.75H35.25z"/><path fill="#FA652F" d="M188 188h23.5v23.5H188zM211.5 211.5h11.75v11.75H211.5zM223.25 235H235v11.75h-11.75zM47 188h47v11.75H47zM35.25 199.75h23.5v11.75h-23.5z"/><path fill="#FA652F" d="M58.75 199.75v23.5H47v-23.5z"/><path fill="#FA482D" d="M35.25 176.25h47V188h-47zM94 164.5h94v11.75H94zM94 152.75h94v11.75H94zM94 141h47v11.75H94zM70.5 141v35.25H58.75V141z"/><path fill="#FA482D" d="M70.5 164.5H35.25v-11.75H70.5zM35.25 164.5H70.5v11.75H35.25zM223.25 188h23.5v47h-23.5zM211.5 176.25h11.75v35.25H211.5z"/><path fill="#FA482D" d="M223.25 176.25V188h-23.5v-11.75z"/><path fill="#FA3296" d="M211.5 141H235v35.25h-23.5z"/><path fill="#FA3296" d="M223.25 152.75h23.5V188h-23.5zM188 129.25v23.5h-35.25v-23.5z"/><path fill="#FA3296" d="M176.25 129.25v23.5H141v-23.5zM129.25 117.5V141H94v-23.5zM70.5 117.5V141H35.25v-23.5zM58.75 141v11.75h-23.5V141z"/><path fill="#FA3296" d="M152.75 129.25V141H117.5v-11.75zM47 105.75h11.75v11.75H47z"/><path fill="#FA34C5" d="M129.25 105.75H188v23.5h-58.75z"/><path fill="#FA34C5" d="M105.75 94h47v23.5h-47zM94 105.75h11.75v11.75H94zM47 94h35.25v11.75H47z"/><path fill="#FA34C5" d="M70.5 94v23.5H58.75V94zM35.25 105.75H47v11.75H35.25zM211.5 117.5h11.75V141H211.5zM223.25 129.25H235V141h-11.75zM235 141h11.75v11.75H235z"/><path fill="#FA37ED" d="M223.25 117.5h23.5v11.75h-23.5z"/><path fill="#FA37ED" d="M246.75 117.5V141H235v-23.5zM211.5 105.75h11.75v11.75H211.5zM152.75 94h23.5v11.75h-23.5zM58.75 82.25H94V94H58.75zM35.25 94H47v11.75H35.25z"/><path fill="#D937FA" d="M223.25 70.5H235v47h-11.75zM235 82.25h11.75v35.25H235zM211.5 82.25h11.75v23.5H211.5zM199.75 70.5h11.75v35.25h-11.75zM188 70.5h11.75V94H188zM176.25 47H188v35.25h-11.75zM94 47h82.25v23.5H94z"/><path fill="#D937FA" d="M70.5 58.75h35.25v23.5H70.5zM35.25 70.5h23.5V94h-23.5z"/><path fill="#D937FA" d="M52.875 70.5h23.5v11.75h-23.5z"/><path fill="#C13CFA" d="M188 58.75h11.75V70.5H188zM235 70.5h11.75v11.75H235z"/><path fill="#9E41FA" d="M47 34.075h188V47H47zM35.25 47H94v12.925H35.25zM35.25 59.925H70.5V70.5H35.25zM188 47h23.5v11.75H188zM223.25 47h23.5v11.75h-23.5z"/><path fill="#9E41FA" d="M246.75 47v23.5H235V47zM199.75 47v23.5H188V47z"/><path fill="#FAFAFA" d="M246.75 47h23.5v188h-23.5zM235 10.575v23.5H47v-23.5zM235 244.4v25.85H47V244.4zM36.425 235h-25.85V47h25.85zM23.5 235H47v11.75H23.5z"/><path fill="#FAFAFA" d="M47 235v23.5H35.25V235zM258.5 235H235v11.75h23.5z"/><path fill="#FAFAFA" d="M235 235v23.5h11.75V235zM258.5 47H235V35.25h23.5z"/><path fill="#FAFAFA" d="M235 47V23.5h11.75V47zM23.5 47H47V35.25H23.5z"/><path fill="#FAFAFA" d="M47 47V23.5H35.25V47zM106.925 188h69.325v23.5h-69.325zM211.5 105.75v70.5H188v-70.5zM176.25 94h-70.5V70.5h70.5zM94 105.75v70.5H70.5v-70.5zM94 82.25h11.75v23.5H94z"/><path fill="#FAFAFA" d="M105.75 94v11.75h-23.5V94zM188 82.25h-11.75v23.5H188z"/><path fill="#FAFAFA" d="M176.25 94v11.75h23.5V94zM188 199.75h-11.75v-23.5H188z"/><path fill="#FAFAFA" d="M176.25 188v-11.75h23.5V188zM94 199.75h11.75v-23.5H94z"/><path fill="#FAFAFA" d="M105.75 188v-11.75h-23.5V188zM98.7 188h12.925v11.75H98.7zM211.5 47h11.75v35.25H211.5z"/><path fill="#FAFAFA" d="M235 58.75V70.5h-35.25V58.75z"/><path fill="#5044FA" d="M235 0h23.5v23.5H235zM23.5 0H47v23.5H23.5z"/><path fill="#5044FA" d="M11.75 11.75h23.5v23.5h-23.5zM0 23.5h11.75V47H0zM246.75 11.75h23.5v23.5h-23.5z"/><path fill="#5044FA" d="M258.5 23.5H282V47h-23.5zM41.125 0H235v10.575H41.125z"/><path fill="#7646FA" d="M270.25 47H282v23.5h-11.75zM10.575 35.25H23.5V47H10.575zM0 47h10.575v11.75H0z"/><path fill="#9E41FA" d="M0 58.75h10.575v47H0zM270.25 70.5H282v11.75h-11.75z"/><path fill="#C13CFA" d="M270.25 82.25H282v23.5h-11.75z"/><path fill="#D937FA" d="M270.25 105.75H282v23.5h-11.75z"/><path fill="#FA37ED" d="M270.25 129.25H282v35.25h-11.75z"/><path fill="#FA34C5" d="M270.25 164.5H282v25.85h-11.75z"/><path fill="#FA3296" d="M270.25 190.35H282v66.975h-11.75z"/><path fill="#FA4444" d="M246.75 246.75h23.5v23.5h-23.5zM258.5 235h11.75v11.75H258.5zM246.75 270.25h11.75V282h-11.75z"/><path fill="#FA652F" d="M235 258.5h11.75v11.75H235z"/><path fill="#FA37ED" d="M0 105.75h10.575v11.75H0z"/><path fill="#FA34C5" d="M0 117.5h10.575V141H0z"/><path fill="#FA3296" d="M0 141h10.575v23.5H0z"/><path fill="#FA482D" d="M0 164.5h10.575v47H0z"/><path fill="#FA7837" d="M0 211.5h10.575v35.25H0z"/><path fill="#FA9F37" d="M35.25 246.75v11.75H0v-11.75z"/><path fill="#FA9F37" d="M23.5 270.25H11.75V235H23.5z"/><path fill="#FAF339" d="M141 270.25h23.5V282H141z"/><path fill="#FAFA5D" d="M23.5 270.25H141V282H23.5z"/><path fill="#FAF339" d="M35.25 282H23.5v-23.5h11.75z"/><path fill="#FAF339" d="M22.325 270.25V258.5H47v11.75z"/><path fill="#FA7837" d="M211.5 270.25h35.25V282H211.5z"/><path fill="#FA9F37" d="M164.5 270.25h47V282h-47z"/><path fill="#FA652F" d="M105.75 176.25h70.5V188h-70.5z"/><path fill="#FA482D" d="M31.725 185.65H42.3v11.75H31.725z"/></svg>