<svg width="282" height="282" viewBox="0 0 282 282" fill="none" xmlns="http://www.w3.org/2000/svg">
<rect x="70.5" y="211.5" width="58.75" height="35.25" fill="#FA9F37"/>
<rect x="129.25" y="223.25" width="58.75" height="23.5" fill="#FA9F37"/>
<rect x="47" y="223.25" width="23.5" height="23.5" fill="#FA9F37"/>
<rect x="34.0752" y="223.25" width="12.925" height="11.75" fill="#FA9F37"/>
<rect x="188" y="235" width="11.75" height="11.75" fill="#FA9F37"/>
<rect x="199.75" y="223.25" width="23.5" height="23.5" fill="#FA7837"/>
<rect x="188" y="211.5" width="23.5" height="23.5" fill="#FA7837"/>
<rect x="129.25" y="211.5" width="58.75" height="11.75" fill="#FA7837"/>
<rect x="58.75" y="199.75" width="48.175" height="11.75" fill="#FA7837"/>
<rect x="58.75" y="211.5" width="11.75" height="11.75" fill="#FA7837"/>
<rect x="35.25" y="211.5" width="11.75" height="11.75" fill="#FA7837"/>
<rect x="188" y="188" width="23.5" height="23.5" fill="#FA652F"/>
<rect x="211.5" y="211.5" width="11.75" height="11.75" fill="#FA652F"/>
<rect x="223.25" y="235" width="11.75" height="11.75" fill="#FA652F"/>
<rect x="47" y="188" width="47" height="11.75" fill="#FA652F"/>
<rect x="35.25" y="199.75" width="23.5" height="11.75" fill="#FA652F"/>
<rect x="58.75" y="199.75" width="23.5" height="11.75" transform="rotate(90 58.75 199.75)" fill="#FA652F"/>
<rect x="35.25" y="176.25" width="47" height="11.75" fill="#FA482D"/>
<rect x="94" y="164.5" width="94" height="11.75" fill="#FA482D"/>
<rect x="94" y="152.75" width="94" height="11.75" fill="#FA482D"/>
<rect x="94" y="141" width="47" height="11.75" fill="#FA482D"/>
<rect x="70.5" y="141" width="35.25" height="11.75" transform="rotate(90 70.5 141)" fill="#FA482D"/>
<rect x="70.5" y="164.5" width="35.25" height="11.75" transform="rotate(-180 70.5 164.5)" fill="#FA482D"/>
<rect x="35.25" y="164.5" width="35.25" height="11.75" fill="#FA482D"/>
<rect x="223.25" y="188" width="23.5" height="47" fill="#FA482D"/>
<rect x="211.5" y="176.25" width="11.75" height="35.25" fill="#FA482D"/>
<rect x="223.25" y="176.25" width="11.75" height="23.5" transform="rotate(90 223.25 176.25)" fill="#FA482D"/>
<rect x="211.5" y="141" width="23.5" height="35.25" fill="#FA3296"/>
<rect x="223.25" y="152.75" width="23.5" height="35.25" fill="#FA3296"/>
<rect x="188" y="129.25" width="23.5" height="35.25" transform="rotate(90 188 129.25)" fill="#FA3296"/>
<rect x="176.25" y="129.25" width="23.5" height="35.25" transform="rotate(90 176.25 129.25)" fill="#FA3296"/>
<rect x="129.25" y="117.5" width="23.5" height="35.25" transform="rotate(90 129.25 117.5)" fill="#FA3296"/>
<rect x="70.5" y="117.5" width="23.5" height="35.25" transform="rotate(90 70.5 117.5)" fill="#FA3296"/>
<rect x="58.75" y="141" width="11.75" height="23.5" transform="rotate(90 58.75 141)" fill="#FA3296"/>
<rect x="152.75" y="129.25" width="11.75" height="35.25" transform="rotate(90 152.75 129.25)" fill="#FA3296"/>
<rect x="47" y="105.75" width="11.75" height="11.75" fill="#FA3296"/>
<rect x="129.25" y="105.75" width="58.75" height="23.5" fill="#FA34C5"/>
<rect x="105.75" y="94" width="47" height="23.5" fill="#FA34C5"/>
<rect x="94" y="105.75" width="11.75" height="11.75" fill="#FA34C5"/>
<rect x="47" y="94" width="35.25" height="11.75" fill="#FA34C5"/>
<rect x="70.5" y="94" width="23.5" height="11.75" transform="rotate(90 70.5 94)" fill="#FA34C5"/>
<rect x="35.25" y="105.75" width="11.75" height="11.75" fill="#FA34C5"/>
<rect x="211.5" y="117.5" width="11.75" height="23.5" fill="#FA34C5"/>
<rect x="223.25" y="129.25" width="11.75" height="11.75" fill="#FA34C5"/>
<rect x="235" y="141" width="11.75" height="11.75" fill="#FA34C5"/>
<rect x="223.25" y="117.5" width="23.5" height="11.75" fill="#FA37ED"/>
<rect x="246.75" y="117.5" width="23.5" height="11.75" transform="rotate(90 246.75 117.5)" fill="#FA37ED"/>
<rect x="211.5" y="105.75" width="11.75" height="11.75" fill="#FA37ED"/>
<rect x="152.75" y="94" width="23.5" height="11.75" fill="#FA37ED"/>
<rect x="58.75" y="82.25" width="35.25" height="11.75" fill="#FA37ED"/>
<rect x="35.25" y="94" width="11.75" height="11.75" fill="#FA37ED"/>
<rect x="223.25" y="70.5" width="11.75" height="47" fill="#D937FA"/>
<rect x="235" y="82.25" width="11.75" height="35.25" fill="#D937FA"/>
<rect x="211.5" y="82.25" width="11.75" height="23.5" fill="#D937FA"/>
<rect x="199.75" y="70.5" width="11.75" height="35.25" fill="#D937FA"/>
<rect x="188" y="70.5" width="11.75" height="23.5" fill="#D937FA"/>
<rect x="176.25" y="47" width="11.75" height="35.25" fill="#D937FA"/>
<rect x="94" y="47" width="82.25" height="23.5" fill="#D937FA"/>
<rect x="70.5" y="58.75" width="35.25" height="23.5" fill="#D937FA"/>
<rect x="35.25" y="70.5" width="23.5" height="23.5" fill="#D937FA"/>
<rect x="52.875" y="70.5" width="23.5" height="11.75" fill="#D937FA"/>
<rect x="188" y="58.75" width="11.75" height="11.75" fill="#C13CFA"/>
<rect x="235" y="70.5" width="11.75" height="11.75" fill="#C13CFA"/>
<rect x="47" y="34.0752" width="188" height="12.925" fill="#9E41FA"/>
<rect x="35.25" y="47" width="58.75" height="12.925" fill="#9E41FA"/>
<rect x="35.25" y="59.9248" width="35.25" height="10.575" fill="#9E41FA"/>
<rect x="188" y="47" width="23.5" height="11.75" fill="#9E41FA"/>
<rect x="223.25" y="47" width="23.5" height="11.75" fill="#9E41FA"/>
<rect x="246.75" y="47" width="23.5" height="11.75" transform="rotate(90 246.75 47)" fill="#9E41FA"/>
<rect x="199.75" y="47" width="23.5" height="11.75" transform="rotate(90 199.75 47)" fill="#9E41FA"/>
<rect x="246.75" y="47" width="23.5" height="188" fill="#FAFAFA"/>
<rect x="235" y="10.5752" width="23.5" height="188" transform="rotate(90 235 10.5752)" fill="#FAFAFA"/>
<rect x="235" y="244.4" width="25.85" height="188" transform="rotate(90 235 244.4)" fill="#FAFAFA"/>
<rect x="36.4248" y="235" width="25.85" height="188" transform="rotate(-180 36.4248 235)" fill="#FAFAFA"/>
<rect x="23.5" y="235" width="23.5" height="11.75" fill="#FAFAFA"/>
<rect x="47" y="235" width="23.5" height="11.75" transform="rotate(90 47 235)" fill="#FAFAFA"/>
<rect width="23.5" height="11.75" transform="matrix(-1 0 0 1 258.5 235)" fill="#FAFAFA"/>
<rect width="23.5" height="11.75" transform="matrix(4.37114e-08 1 1 -4.37114e-08 235 235)" fill="#FAFAFA"/>
<rect x="258.5" y="47" width="23.5" height="11.75" transform="rotate(-180 258.5 47)" fill="#FAFAFA"/>
<rect x="235" y="47" width="23.5" height="11.75" transform="rotate(-90 235 47)" fill="#FAFAFA"/>
<rect width="23.5" height="11.75" transform="matrix(1 0 0 -1 23.5 47)" fill="#FAFAFA"/>
<rect width="23.5" height="11.75" transform="matrix(-4.37114e-08 -1 -1 4.37114e-08 47 47)" fill="#FAFAFA"/>
<rect x="106.925" y="188" width="69.325" height="23.5" fill="#FAFAFA"/>
<rect x="211.5" y="105.75" width="70.5" height="23.5" transform="rotate(90 211.5 105.75)" fill="#FAFAFA"/>
<rect x="176.25" y="94" width="70.5" height="23.5" transform="rotate(-180 176.25 94)" fill="#FAFAFA"/>
<rect x="94" y="105.75" width="70.5" height="23.5" transform="rotate(90 94 105.75)" fill="#FAFAFA"/>
<rect x="94" y="82.25" width="11.75" height="23.5" fill="#FAFAFA"/>
<rect x="105.75" y="94" width="11.75" height="23.5" transform="rotate(90 105.75 94)" fill="#FAFAFA"/>
<rect width="11.75" height="23.5" transform="matrix(-1 0 0 1 188 82.25)" fill="#FAFAFA"/>
<rect width="11.75" height="23.5" transform="matrix(4.37114e-08 1 1 -4.37114e-08 176.25 94)" fill="#FAFAFA"/>
<rect x="188" y="199.75" width="11.75" height="23.5" transform="rotate(-180 188 199.75)" fill="#FAFAFA"/>
<rect x="176.25" y="188" width="11.75" height="23.5" transform="rotate(-90 176.25 188)" fill="#FAFAFA"/>
<rect width="11.75" height="23.5" transform="matrix(1 0 0 -1 94 199.75)" fill="#FAFAFA"/>
<rect width="11.75" height="23.5" transform="matrix(-4.37114e-08 -1 -1 4.37114e-08 105.75 188)" fill="#FAFAFA"/>
<rect x="98.7002" y="188" width="12.925" height="11.75" fill="#FAFAFA"/>
<rect x="211.5" y="47" width="11.75" height="35.25" fill="#FAFAFA"/>
<rect x="235" y="58.75" width="11.75" height="35.25" transform="rotate(90 235 58.75)" fill="#FAFAFA"/>
<rect x="235" width="23.5" height="23.5" fill="#5044FA"/>
<rect x="23.5" width="23.5" height="23.5" fill="#5044FA"/>
<rect x="11.75" y="11.75" width="23.5" height="23.5" fill="#5044FA"/>
<rect y="23.5" width="11.75" height="23.5" fill="#5044FA"/>
<rect x="246.75" y="11.75" width="23.5" height="23.5" fill="#5044FA"/>
<rect x="258.5" y="23.5" width="23.5" height="23.5" fill="#5044FA"/>
<rect x="41.125" width="193.875" height="10.575" fill="#5044FA"/>
<rect x="270.25" y="47" width="11.75" height="23.5" fill="#7646FA"/>
<rect x="10.5752" y="35.25" width="12.925" height="11.75" fill="#7646FA"/>
<rect y="47" width="10.575" height="11.75" fill="#7646FA"/>
<rect y="58.75" width="10.575" height="47" fill="#9E41FA"/>
<rect x="270.25" y="70.5" width="11.75" height="11.75" fill="#9E41FA"/>
<rect x="270.25" y="82.25" width="11.75" height="23.5" fill="#C13CFA"/>
<rect x="270.25" y="105.75" width="11.75" height="23.5" fill="#D937FA"/>
<rect x="270.25" y="129.25" width="11.75" height="35.25" fill="#FA37ED"/>
<rect x="270.25" y="164.5" width="11.75" height="25.85" fill="#FA34C5"/>
<rect x="270.25" y="190.35" width="11.75" height="66.975" fill="#FA3296"/>
<rect x="246.75" y="246.75" width="23.5" height="23.5" fill="#FA4444"/>
<rect x="258.5" y="235" width="11.75" height="11.75" fill="#FA4444"/>
<rect x="246.75" y="270.25" width="11.75" height="11.75" fill="#FA4444"/>
<rect x="235" y="258.5" width="11.75" height="11.75" fill="#FA652F"/>
<rect y="105.75" width="10.575" height="11.75" fill="#FA37ED"/>
<rect y="117.5" width="10.575" height="23.5" fill="#FA34C5"/>
<rect y="141" width="10.575" height="23.5" fill="#FA3296"/>
<rect y="164.5" width="10.575" height="47" fill="#FA482D"/>
<rect y="211.5" width="10.575" height="35.25" fill="#FA7837"/>
<rect x="35.25" y="246.75" width="11.75" height="35.25" transform="rotate(90 35.25 246.75)" fill="#FA9F37"/>
<rect x="23.5" y="270.25" width="11.75" height="35.25" transform="rotate(-180 23.5 270.25)" fill="#FA9F37"/>
<rect x="141" y="270.25" width="23.5" height="11.75" fill="#FAF339"/>
<rect x="23.5" y="270.25" width="117.5" height="11.75" fill="#FAFA5D"/>
<rect x="35.25" y="282" width="11.75" height="23.5" transform="rotate(-180 35.25 282)" fill="#FAF339"/>
<rect x="22.3252" y="270.25" width="11.75" height="24.675" transform="rotate(-90 22.3252 270.25)" fill="#FAF339"/>
<rect x="211.5" y="270.25" width="35.25" height="11.75" fill="#FA7837"/>
<rect x="164.5" y="270.25" width="47" height="11.75" fill="#FA9F37"/>
<rect x="105.75" y="176.25" width="70.5" height="11.75" fill="#FA652F"/>
<rect x="31.7246" y="185.65" width="10.575" height="11.75" fill="#FA482D"/>
</svg>
