<svg xmlns="http://www.w3.org/2000/svg" width="282" height="282" fill="none"><path fill="#0078B5" d="M36 18h211v247H36zM18 247h18v18H18z"/><path fill="#00669A" d="M36 264h18v18H36zM54 264h18v18H54zM72 264h18v18H72zM90 264h18v18H90zM108 264h18v18h-18zM126 264h18v18h-18zM144 264h18v18h-18zM162 264h18v18h-18zM180 264h18v18h-18zM198 264h18v18h-18zM216 264h18v18h-18z"/><path fill="#00669A" d="M229 264h18v18h-18zM247 246h18v18h-18zM264 228h18v18h-18zM264 210h18v18h-18zM264 192h18v18h-18zM264 174h18v18h-18zM264 156h18v18h-18zM264 138h18v18h-18zM264 120h18v18h-18zM264 102h18v18h-18zM264 84h18v18h-18zM264 66h18v18h-18zM264 48h18v18h-18z"/><path fill="#00669A" d="M264 35h18v18h-18z"/><path fill="#0078B5" d="M247 17h18v18h-18z"/><path fill="#278CC0" d="M229 0h18v18h-18zM211 0h18v18h-18zM193 0h18v18h-18zM175 0h18v18h-18zM157 0h18v18h-18zM139 0h18v18h-18zM121 0h18v18h-18zM103 0h18v18h-18zM85 0h18v18H85zM67 0h18v18H67zM49 0h18v18H49z"/><path fill="#278CC0" d="M36 0h18v18H36zM18 18h18v18H18zM0 35h18v18H0zM0 71h18v18H0zM0 107h18v18H0zM0 143h18v18H0zM0 179h18v18H0zM0 53h18v18H0zM0 89h18v18H0zM0 125h18v18H0zM0 161h18v18H0zM0 197h18v18H0zM0 229h18v18H0z"/><path fill="#278CC0" d="M0 215h18v18H0z"/><path fill="#fff" d="M52 53h36v36H52zM52 105h36v124H52zM123 105h36v124h-36zM194 123h36v106h-36z"/><path fill="#fff" d="M159 123h53v18h-53zM175 105h37v18h-37z"/><path fill="#0078B5" d="M18 35h18v212H18zM247 35h18v211h-18z"/></svg>