<svg width="282" height="282" viewBox="0 0 282 282" fill="none" xmlns="http://www.w3.org/2000/svg">
<rect x="36" y="18" width="211" height="247" fill="#0078B5"/>
<rect x="18" y="247" width="18" height="18" fill="#0078B5"/>
<rect x="36" y="264" width="18" height="18" fill="#00669A"/>
<rect x="54" y="264" width="18" height="18" fill="#00669A"/>
<rect x="72" y="264" width="18" height="18" fill="#00669A"/>
<rect x="90" y="264" width="18" height="18" fill="#00669A"/>
<rect x="108" y="264" width="18" height="18" fill="#00669A"/>
<rect x="126" y="264" width="18" height="18" fill="#00669A"/>
<rect x="144" y="264" width="18" height="18" fill="#00669A"/>
<rect x="162" y="264" width="18" height="18" fill="#00669A"/>
<rect x="180" y="264" width="18" height="18" fill="#00669A"/>
<rect x="198" y="264" width="18" height="18" fill="#00669A"/>
<rect x="216" y="264" width="18" height="18" fill="#00669A"/>
<rect x="229" y="264" width="18" height="18" fill="#00669A"/>
<rect x="247" y="246" width="18" height="18" fill="#00669A"/>
<rect x="264" y="228" width="18" height="18" fill="#00669A"/>
<rect x="264" y="210" width="18" height="18" fill="#00669A"/>
<rect x="264" y="192" width="18" height="18" fill="#00669A"/>
<rect x="264" y="174" width="18" height="18" fill="#00669A"/>
<rect x="264" y="156" width="18" height="18" fill="#00669A"/>
<rect x="264" y="138" width="18" height="18" fill="#00669A"/>
<rect x="264" y="120" width="18" height="18" fill="#00669A"/>
<rect x="264" y="102" width="18" height="18" fill="#00669A"/>
<rect x="264" y="84" width="18" height="18" fill="#00669A"/>
<rect x="264" y="66" width="18" height="18" fill="#00669A"/>
<rect x="264" y="48" width="18" height="18" fill="#00669A"/>
<rect x="264" y="35" width="18" height="18" fill="#00669A"/>
<rect x="247" y="17" width="18" height="18" fill="#0078B5"/>
<rect x="229" width="18" height="18" fill="#278CC0"/>
<rect x="211" width="18" height="18" fill="#278CC0"/>
<rect x="193" width="18" height="18" fill="#278CC0"/>
<rect x="175" width="18" height="18" fill="#278CC0"/>
<rect x="157" width="18" height="18" fill="#278CC0"/>
<rect x="139" width="18" height="18" fill="#278CC0"/>
<rect x="121" width="18" height="18" fill="#278CC0"/>
<rect x="103" width="18" height="18" fill="#278CC0"/>
<rect x="85" width="18" height="18" fill="#278CC0"/>
<rect x="67" width="18" height="18" fill="#278CC0"/>
<rect x="49" width="18" height="18" fill="#278CC0"/>
<rect x="36" width="18" height="18" fill="#278CC0"/>
<rect x="18" y="18" width="18" height="18" fill="#278CC0"/>
<rect y="35" width="18" height="18" fill="#278CC0"/>
<rect y="71" width="18" height="18" fill="#278CC0"/>
<rect y="107" width="18" height="18" fill="#278CC0"/>
<rect y="143" width="18" height="18" fill="#278CC0"/>
<rect y="179" width="18" height="18" fill="#278CC0"/>
<rect y="53" width="18" height="18" fill="#278CC0"/>
<rect y="89" width="18" height="18" fill="#278CC0"/>
<rect y="125" width="18" height="18" fill="#278CC0"/>
<rect y="161" width="18" height="18" fill="#278CC0"/>
<rect y="197" width="18" height="18" fill="#278CC0"/>
<rect y="229" width="18" height="18" fill="#278CC0"/>
<rect y="215" width="18" height="18" fill="#278CC0"/>
<rect x="52" y="53" width="36" height="36" fill="white"/>
<rect x="52" y="105" width="36" height="124" fill="white"/>
<rect x="123" y="105" width="36" height="124" fill="white"/>
<rect x="194" y="123" width="36" height="106" fill="white"/>
<rect x="159" y="123" width="53" height="18" fill="white"/>
<rect x="175" y="105" width="37" height="18" fill="white"/>
<rect x="18" y="35" width="18" height="212" fill="#0078B5"/>
<rect x="247" y="35" width="18" height="211" fill="#0078B5"/>
</svg>
