<svg xmlns="http://www.w3.org/2000/svg" version="1.1" viewBox="102 140.87 296 218.27">
<path d="M0 0 C0.78032528 0.00037972 1.56065056 0.00075944 2.36462206 0.00115067 C3.26184577 -0.00084038 4.15906948 -0.00283143 5.08348179 -0.00488281 C6.57907309 -0.00051355 6.57907309 -0.00051355 8.10487837 0.00394398 C9.15520575 0.00308955 10.20553313 0.00223513 11.28768861 0.00135481 C14.83622006 -0.00030312 18.38470509 0.00522649 21.93323225 0.01067311 C24.46536725 0.01095494 26.99750233 0.01079733 29.52963728 0.0102306 C34.99609502 0.01000228 40.46253759 0.01285377 45.92899221 0.01846844 C53.832653 0.02658113 61.736308 0.02919842 69.6399725 0.03045643 C82.46185011 0.03264732 95.28372137 0.03930839 108.10559553 0.04875904 C120.56392854 0.05793222 133.02225983 0.06501351 145.48059553 0.06926686 C146.24799067 0.06952958 147.01538581 0.0697923 147.80603535 0.07006299 C151.65567101 0.07136799 155.50530669 0.0726317 159.35494238 0.07387489 C191.31260305 0.08424864 223.27025518 0.10214235 255.22790998 0.1241985 C255.22790998 6.7241985 255.22790998 13.3241985 255.22790998 20.1241985 C261.49790998 20.1241985 267.76790998 20.1241985 274.22790998 20.1241985 C274.22790998 78.8641985 274.22790998 137.6041985 274.22790998 198.1241985 C267.95790998 198.1241985 261.68790998 198.1241985 255.22790998 198.1241985 C255.26749025 204.33212764 255.26749025 204.33212764 255.31799787 210.53996998 C255.32174421 211.6934795 255.32174421 211.6934795 255.32556623 212.87029225 C255.33342146 214.05643116 255.33342146 214.05643116 255.34143537 215.26653248 C255.22790998 217.1241985 255.22790998 217.1241985 254.22790998 218.1241985 C252.85795448 218.22151792 251.48301642 218.24975257 250.10960859 218.25003964 C249.21648497 218.25264738 248.32336136 218.25525513 247.40317339 218.2579419 C246.41068558 218.25571118 245.41819778 218.25348046 244.39563459 218.25118214 C243.35009633 218.25274213 242.30455806 218.25430212 241.22733682 218.25590938 C237.6949618 218.25992431 234.16262914 218.25672784 230.63025373 218.25359303 C228.10959307 218.25494685 225.58893261 218.25672667 223.06827253 218.25890309 C216.91517373 218.26300356 210.76209083 218.26238407 204.6089918 218.25949045 C199.61045269 218.25723663 194.61191699 218.2569238 189.61337751 218.25801426 C188.90330925 218.25816749 188.19324098 218.25832073 187.4616555 218.2584786 C186.01939076 218.25879831 184.57712603 218.25912253 183.13486129 218.2594512 C169.59487778 218.26230615 156.05490103 218.25901872 142.51491863 218.25365083 C130.88441496 218.24918278 119.25392128 218.2499587 107.62341779 218.25456959 C94.13353174 218.25991508 80.64365163 218.26203146 67.15376467 218.25895733 C65.71665726 218.25863876 64.27954986 218.25832439 62.84244245 218.25801426 C62.13526592 218.25785999 61.4280894 218.25770571 60.69948328 218.25754676 C55.70406442 218.25668153 50.70864931 218.25814461 45.71323103 218.26049381 C38.99597771 218.26358316 32.27874624 218.26139943 25.56149381 218.25559956 C23.08825042 218.2542712 20.61500545 218.25466734 18.14176267 218.25686222 C14.78121498 218.25957078 11.42072906 218.25619622 8.06018537 218.25118214 C7.06769757 218.25341286 6.07520977 218.25564358 5.05264658 218.2579419 C4.15952296 218.25533415 3.26639934 218.25272641 2.34621137 218.25003964 C1.18109321 218.24979611 1.18109321 218.24979611 -0.0075627 218.24954766 C-1.77209002 218.1241985 -1.77209002 218.1241985 -2.77209002 217.1241985 C-2.85860613 215.70849726 -2.87913906 214.28860349 -2.86974627 212.87029225 C-2.86724871 212.1012859 -2.86475115 211.33227955 -2.86217791 210.53996998 C-2.8530739 209.55714039 -2.8439699 208.5743108 -2.83459002 207.5616985 C-2.81396502 204.4473235 -2.79334002 201.3329485 -2.77209002 198.1241985 C-9.04209002 198.1241985 -15.31209002 198.1241985 -21.77209002 198.1241985 C-21.77209002 139.3841985 -21.77209002 80.6441985 -21.77209002 20.1241985 C-15.50209002 20.1241985 -9.23209002 20.1241985 -2.77209002 20.1241985 C-2.81167029 13.91626936 -2.81167029 13.91626936 -2.86217791 7.70842701 C-2.86467547 6.93942066 -2.86717303 6.17041432 -2.86974627 5.37810475 C-2.87760149 4.19196583 -2.87760149 4.19196583 -2.88561541 2.98186451 C-2.7346112 0.51091603 -2.47304082 0.17332525 0 0 Z " fill="#41427E" transform="translate(123.77209001779556,140.8758015036583)"/>
<path d="M0 0 C6.6 0 13.2 0 20 0 C20 6.6 20 13.2 20 20 C26.27 20 32.54 20 39 20 C39 26.6 39 33.2 39 40 C45.6 40 52.2 40 59 40 C59 46.27 59 52.54 59 59 C65.6 59 72.2 59 79 59 C79 65.6 79 72.2 79 79 C85.27 79 91.54 79 98 79 C98 85.6 98 92.2 98 99 C117.8 99 137.6 99 158 99 C158 92.4 158 85.8 158 79 C164.27 79 170.54 79 177 79 C177 72.4 177 65.8 177 59 C183.6 59 190.2 59 197 59 C197 52.73 197 46.46 197 40 C203.6 40 210.2 40 217 40 C217 33.4 217 26.8 217 20 C223.27 20 229.54 20 236 20 C236 13.4 236 6.8 236 0 C242.6 0 249.2 0 256 0 C256 45.54 256 91.08 256 138 C249.73 138 243.46 138 237 138 C237 144.6 237 151.2 237 158 C165.39 158 93.78 158 20 158 C20 151.4 20 144.8 20 138 C13.4 138 6.8 138 0 138 C0 92.46 0 46.92 0 0 Z " fill="#7CD7F9" transform="translate(122,181)"/>
<path d="M0 0 C6.6 0 13.2 0 20 0 C20 6.6 20 13.2 20 20 C26.27 20 32.54 20 39 20 C39 26.6 39 33.2 39 40 C45.6 40 52.2 40 59 40 C59 46.27 59 52.54 59 59 C65.6 59 72.2 59 79 59 C79 65.6 79 72.2 79 79 C85.27 79 91.54 79 98 79 C98 85.6 98 92.2 98 99 C111.2 99 124.4 99 138 99 C138 105.27 138 111.54 138 118 C124.8 118 111.6 118 98 118 C98 124.6 98 131.2 98 138 C91.73 138 85.46 138 79 138 C79 144.27 79 150.54 79 157 C59.53 157 40.06 157 20 157 C20 150.73 20 144.46 20 138 C13.4 138 6.8 138 0 138 C0 92.46 0 46.92 0 0 Z " fill="#ADEEFD" transform="translate(122,181)"/>
<path d="M0 0 C58.74 0 117.48 0 178 0 C178 6.6 178 13.2 178 20 C171.4 20 164.8 20 158 20 C158 26.6 158 33.2 158 40 C151.4 40 144.8 40 138 40 C138 46.27 138 52.54 138 59 C131.4 59 124.8 59 118 59 C118 65.6 118 72.2 118 79 C111.73 79 105.46 79 99 79 C99 85.6 99 92.2 99 99 C92.4 99 85.8 99 79 99 C79 92.4 79 85.8 79 79 C72.73 79 66.46 79 60 79 C60 72.4 60 65.8 60 59 C53.4 59 46.8 59 40 59 C40 52.73 40 46.46 40 40 C33.4 40 26.8 40 20 40 C20 33.4 20 26.8 20 20 C13.4 20 6.8 20 0 20 C0 13.4 0 6.8 0 0 Z " fill="#FDE564" transform="translate(161,161)"/>
<path d="M0 0 C5.94 0 11.88 0 18 0 C18 19.47 18 38.94 18 59 C11.73 59 5.46 59 -1 59 C-1.02255549 51.45501411 -1.04091769 43.91004069 -1.05181217 36.36502934 C-1.05703989 32.86191115 -1.0641355 29.35881715 -1.07543945 25.85571289 C-1.08834206 21.83219159 -1.09322912 17.80869586 -1.09765625 13.78515625 C-1.10539818 11.88987938 -1.10539818 11.88987938 -1.11329651 9.95631409 C-1.11337204 8.795186 -1.11344757 7.63405792 -1.11352539 6.43774414 C-1.11685631 4.8955294 -1.11685631 4.8955294 -1.12025452 3.32215881 C-1 1 -1 1 0 0 Z " fill="#EEFDFE" transform="translate(143,201)"/>
<path d="M0 0 C0.33 0 0.66 0 1 0 C1 58.41 1 116.82 1 177 C-5.27 177 -11.54 177 -18 177 C-17.96041973 183.20792914 -17.96041973 183.20792914 -17.90991211 189.41577148 C-17.90616577 190.56928101 -17.90616577 190.56928101 -17.90234375 191.74609375 C-17.89448853 192.93223267 -17.89448853 192.93223267 -17.88647461 194.14233398 C-18 196 -18 196 -19 197 C-20.3699555 197.09731942 -21.74489356 197.12555408 -23.11830139 197.12584114 C-24.01142501 197.12844889 -24.90454863 197.13105664 -25.8247366 197.13374341 C-26.8172244 197.13151268 -27.8097122 197.12928196 -28.83227539 197.12698364 C-29.87781365 197.12854363 -30.92335192 197.13010362 -32.00057316 197.13171089 C-35.53294818 197.13572581 -39.06528085 197.13252934 -42.59765625 197.12939453 C-45.11831691 197.13074835 -47.63897737 197.13252818 -50.15963745 197.13470459 C-56.31273625 197.13880506 -62.46581915 197.13818558 -68.61891818 197.13529195 C-73.6174573 197.13303813 -78.61599299 197.1327253 -83.61453247 197.13381577 C-84.32460074 197.133969 -85.034669 197.13412223 -85.76625448 197.13428011 C-87.20851922 197.13459982 -88.65078396 197.13492403 -90.09304869 197.1352527 C-103.6330322 197.13810765 -117.17300895 197.13482023 -130.71299136 197.12945233 C-142.34349502 197.12498428 -153.9739887 197.12576021 -165.60449219 197.13037109 C-179.09437824 197.13571658 -192.58425836 197.13783296 -206.07414532 197.13475883 C-207.51125272 197.13444026 -208.94836012 197.13412589 -210.38546753 197.13381577 C-211.09264406 197.13366149 -211.79982059 197.13350721 -212.52842671 197.13334826 C-217.52384557 197.13248303 -222.51926068 197.13394612 -227.51467896 197.13629532 C-234.23193227 197.13938466 -240.94916374 197.13720094 -247.66641617 197.13140106 C-250.13965956 197.13007271 -252.61290453 197.13046884 -255.08614731 197.13266373 C-258.446695 197.13537228 -261.80718092 197.13199773 -265.16772461 197.12698364 C-266.16021241 197.12921436 -267.15270021 197.13144509 -268.1752634 197.13374341 C-269.06838702 197.13113566 -269.96151064 197.12852791 -270.88169861 197.12584114 C-272.04681677 197.12559761 -272.04681677 197.12559761 -273.23547268 197.12534916 C-275 197 -275 197 -276 196 C-276.08651611 194.58429877 -276.10704904 193.164405 -276.09765625 191.74609375 C-276.09443359 190.89208984 -276.09121094 190.03808594 -276.08789062 189.15820312 C-276.07951172 188.26037109 -276.07113281 187.36253906 -276.0625 186.4375 C-276.05798828 185.53580078 -276.05347656 184.63410156 -276.04882812 183.70507812 C-276.03700225 181.46998686 -276.0205222 179.23502563 -276 177 C-275.34 177 -274.68 177 -274 177 C-274 182.28 -274 187.56 -274 193 C-271.69008231 194.15495884 -270.37332573 194.12976593 -267.80270958 194.1386652 C-266.47478781 194.14687687 -266.47478781 194.14687687 -265.12003934 194.15525442 C-264.14145511 194.15623253 -263.16287087 194.15721064 -262.15463257 194.15821838 C-261.11978497 194.16315636 -260.08493737 194.16809434 -259.01873076 194.17318195 C-255.52860215 194.18861947 -252.03849201 194.19693445 -248.54833984 194.20532227 C-246.05546403 194.21489588 -243.56258985 194.22490565 -241.06971741 194.23532104 C-235.6911409 194.25680663 -230.31256701 194.27524002 -224.93397141 194.29092598 C-217.15736682 194.31361064 -209.38078959 194.3417554 -201.60420819 194.37124526 C-188.98810398 194.4189384 -176.37198861 194.46219791 -163.75585938 194.50268555 C-151.49836355 194.54203172 -139.24087766 194.58345582 -126.98339844 194.62768555 C-126.228214 194.63040982 -125.47302957 194.63313409 -124.69496076 194.63594092 C-120.90653188 194.64962025 -117.11810314 194.66334055 -113.32967448 194.67708123 C-81.88647014 194.79107306 -50.44324499 194.89780282 -19 195 C-19.33 194.34 -19.66 193.68 -20 193 C-20.07194869 190.11629667 -20.09291708 187.25760336 -20.0625 184.375 C-20.05798828 183.57320312 -20.05347656 182.77140625 -20.04882812 181.9453125 C-20.03703168 179.96350994 -20.01909605 177.98174567 -20 176 C-15.71702469 174.94380997 -11.57014354 174.88297908 -7.1875 174.9375 C-6.49462891 174.94201172 -5.80175781 174.94652344 -5.08789062 174.95117188 C-3.39188932 174.96286844 -1.69593297 174.98080076 0 175 C-0.00607553 174.32289128 -0.01215105 173.64578257 -0.01841068 172.9481554 C-0.16752438 156.27821333 -0.30914329 139.6082248 -0.4429636 122.93815327 C-0.5078555 114.87580796 -0.57508872 106.81349606 -0.64819336 98.7512207 C-1.27585704 29.26466289 -1.27585704 29.26466289 0 0 Z " fill="#38355A" transform="translate(397,162)"/>
<path d="M0 0 C58.74 0 117.48 0 178 0 C178 6.6 178 13.2 178 20 C171.4 20 164.8 20 158 20 C158 26.6 158 33.2 158 40 C151.4 40 144.8 40 138 40 C138 46.27 138 52.54 138 59 C131.73 59 125.46 59 119 59 C119 58.34 119 57.68 119 57 C126.92 56.505 126.92 56.505 135 56 C135.24912148 50.86996208 135.24912148 50.86996208 135.47802734 45.73901367 C135.68367265 42.03041921 135.90155637 40.14766544 138 37 C139.87939453 36.65942383 139.87939453 36.65942383 142.1328125 36.70703125 C143.22166748 36.71827026 143.22166748 36.71827026 144.33251953 36.72973633 C145.25403809 36.75704834 146.17555664 36.78436035 147.125 36.8125 C151.518125 36.9053125 151.518125 36.9053125 156 37 C156 31.06 156 25.12 156 19 C158.296537 17.8517315 159.58313167 17.88438825 162.1328125 17.90234375 C162.93847656 17.90556641 163.74414062 17.90878906 164.57421875 17.91210938 C165.41597656 17.92048828 166.25773438 17.92886719 167.125 17.9375 C167.97449219 17.94201172 168.82398438 17.94652344 169.69921875 17.95117188 C171.79950909 17.96297126 173.8997633 17.98090694 176 18 C176 12.72 176 7.44 176 2 C118.58 2 61.16 2 2 2 C2 7.28 2 12.56 2 18 C3.26457031 17.96519531 4.52914062 17.93039063 5.83203125 17.89453125 C7.49217423 17.86639323 9.15233156 17.83909309 10.8125 17.8125 C11.64587891 17.78736328 12.47925781 17.76222656 13.33789062 17.73632812 C14.54155273 17.72182617 14.54155273 17.72182617 15.76953125 17.70703125 C16.50792236 17.6913208 17.24631348 17.67561035 18.00708008 17.65942383 C20.60866115 18.10401596 21.4734239 18.86760158 23 21 C23.2487793 22.90112305 23.2487793 22.90112305 23.07421875 25.01171875 C23.02612061 25.69451904 22.97802246 26.37731934 22.9284668 27.08081055 C22.84894775 27.94101807 22.76942871 28.80122559 22.6875 29.6875 C22.460625 32.430625 22.23375 35.17375 22 38 C27.94 38 33.88 38 40 38 C40 38.66 40 39.32 40 40 C33.4 40 26.8 40 20 40 C20 33.4 20 26.8 20 20 C13.4 20 6.8 20 0 20 C0 13.4 0 6.8 0 0 Z " fill="#D9CB8A" transform="translate(161,161)"/>
<path d="M0 0 C23.17375436 -0.06999755 46.34749135 -0.1229427 69.52132988 -0.15543652 C80.28069461 -0.17092316 91.03999376 -0.19204691 101.79931641 -0.22631836 C111.17419703 -0.2561658 120.54903017 -0.27556191 129.92395699 -0.28226548 C134.8905863 -0.28618566 139.85707974 -0.2954357 144.82366562 -0.31719017 C149.49393716 -0.3374819 154.16401626 -0.34384871 158.8343277 -0.33932304 C160.55248432 -0.34015154 162.27064708 -0.34616061 163.98876572 -0.35761642 C166.32672473 -0.37244652 168.66394813 -0.36898895 171.00192261 -0.36076355 C172.31271223 -0.36352893 173.62350185 -0.36629431 174.97401237 -0.36914349 C175.97258829 -0.24732614 176.97116421 -0.12550879 178 0 C180.06935577 3.10403365 180.25517909 3.81900019 180.265625 7.34375 C180.26820313 8.17777344 180.27078125 9.01179687 180.2734375 9.87109375 C180.26570312 10.73863281 180.25796875 11.60617188 180.25 12.5 C180.25773438 13.36753906 180.26546875 14.23507813 180.2734375 15.12890625 C180.27085937 15.96292969 180.26828125 16.79695313 180.265625 17.65625 C180.26336914 18.41744141 180.26111328 19.17863281 180.25878906 19.96289062 C180 22 180 22 178 25 C176.12060547 25.2487793 176.12060547 25.2487793 173.8671875 25.07421875 C173.14128418 25.02612061 172.41538086 24.97802246 171.66748047 24.9284668 C170.74596191 24.84894775 169.82444336 24.76942871 168.875 24.6875 C164.481875 24.3471875 164.481875 24.3471875 160 24 C160 30.27 160 36.54 160 43 C157.703463 44.1482685 156.41686833 44.11561175 153.8671875 44.09765625 C153.06152344 44.09443359 152.25585938 44.09121094 151.42578125 44.08789062 C150.16314453 44.07532227 150.16314453 44.07532227 148.875 44.0625 C147.60076172 44.05573242 147.60076172 44.05573242 146.30078125 44.04882812 C144.20049091 44.03702874 142.1002367 44.01909306 140 44 C140 49.61 140 55.22 140 61 C139.34 61 138.68 61 138 61 C138 54.73 138 48.46 138 42 C144.6 42 151.2 42 158 42 C158 35.4 158 28.8 158 22 C164.6 22 171.2 22 178 22 C178 15.4 178 8.8 178 2 C119.26 2 60.52 2 0 2 C0 1.34 0 0.68 0 0 Z " fill="#48435A" transform="translate(161,159)"/>
<path d="M0 0 C6.6 0 13.2 0 20 0 C20 45.54 20 91.08 20 138 C13.73 138 7.46 138 1 138 C1 144.6 1 151.2 1 158 C-70.61 158 -142.22 158 -216 158 C-216 157.67 -216 157.34 -216 157 C-144.72 157 -73.44 157 0 157 C0 150.4 0 143.8 0 137 C1 136 1 136 2.76586914 135.88647461 C3.51473389 135.89171143 4.26359863 135.89694824 5.03515625 135.90234375 C5.84404297 135.90556641 6.65292969 135.90878906 7.48632812 135.91210938 C8.33646484 135.92048828 9.18660156 135.92886719 10.0625 135.9375 C10.91650391 135.94201172 11.77050781 135.94652344 12.65039062 135.95117188 C14.76695663 135.96299627 16.88348685 135.98093231 19 136 C18.67 135.01 18.34 134.02 18 133 C17.91472553 131.30721279 17.88750211 129.6112089 17.89465332 127.91629028 C17.89672539 126.88464689 17.89879745 125.8530035 17.90093231 124.79009819 C17.90848793 123.67358942 17.91604355 122.55708065 17.92382812 121.40673828 C17.92797981 120.24405993 17.9321315 119.08138157 17.936409 117.88347054 C17.95145792 114.25558331 17.97446611 110.62782749 18 107 C18.00703949 105.92400291 18.01407898 104.84800583 18.02133179 103.73940277 C18.07205586 96.32350289 18.14364977 88.9078743 18.21875 81.4921875 C18.24128007 79.17522283 18.26369798 76.85825706 18.28601074 74.54129028 C18.34408598 68.54108573 18.40364976 62.54089691 18.46356201 56.54071045 C18.52481367 50.37871186 18.58460448 44.21669909 18.64453125 38.0546875 C18.76161979 26.03644432 18.88028648 14.0182173 19 2 C13.39 2 7.78 2 2 2 C2 8.27 2 14.54 2 21 C-1.06533164 22.53266582 -4.26754272 22.10276471 -7.625 22.0625 C-8.33140625 22.05798828 -9.0378125 22.05347656 -9.765625 22.04882812 C-11.51045275 22.03703875 -13.255237 22.01910324 -15 22 C-15 21.67 -15 21.34 -15 21 C-10.38 20.67 -5.76 20.34 -1 20 C-0.67 13.4 -0.34 6.8 0 0 Z " fill="#7FB3E0" transform="translate(358,181)"/>
<path d="M0 0 C1.16593127 0.00512622 1.16593127 0.00512622 2.35541672 0.01035601 C3.69602719 0.01259453 3.69602719 0.01259453 5.0637207 0.01487827 C6.05689063 0.02168206 7.05006055 0.02848585 8.07332653 0.03549582 C9.64269227 0.04033951 9.64269227 0.04033951 11.24376237 0.04528105 C14.77849317 0.05742418 18.31314881 0.07678265 21.8478474 0.09605795 C24.37012863 0.10619354 26.89241165 0.11588799 29.41469616 0.12517172 C34.85988471 0.14621277 40.30504583 0.17034557 45.75020832 0.19725233 C53.62308388 0.23615013 61.49597514 0.26953113 69.36888134 0.30154759 C82.14086002 0.35363758 94.91281474 0.41021512 107.68476146 0.46959311 C120.0945827 0.52727798 132.5044104 0.58286283 144.91425365 0.63560873 C146.06086587 0.64048331 146.06086587 0.64048331 147.23064197 0.64545637 C151.06529343 0.66174557 154.89994506 0.67799333 158.73459679 0.69422048 C190.56786834 0.82898347 222.40110313 0.97109458 254.23432201 1.11778647 C254.23432201 7.38778647 254.23432201 13.65778647 254.23432201 20.11778647 C253.90432201 20.11778647 253.57432201 20.11778647 253.23432201 20.11778647 C253.23432201 14.17778647 253.23432201 8.23778647 253.23432201 2.11778647 C169.41432201 2.11778647 85.59432201 2.11778647 -0.76567799 2.11778647 C-0.76567799 8.05778647 -0.76567799 13.99778647 -0.76567799 20.11778647 C-1.42567799 19.78778647 -2.08567799 19.45778647 -2.76567799 19.11778647 C-2.79251786 16.13856053 -2.81243836 13.15957352 -2.82817799 10.18028647 C-2.83655689 9.33014975 -2.8449358 8.48001303 -2.85356861 7.60411459 C-2.85679127 6.79522787 -2.86001393 5.98634115 -2.86333424 5.15294272 C-2.86857105 4.40407797 -2.87380787 3.65521322 -2.87920338 2.88365561 C-2.72428128 0.47386732 -2.40895014 0.16069846 0 0 Z " fill="#2F2E59" transform="translate(123.7656779885292,140.88221353292465)"/>
<path d="M0 0 C0.33 0 0.66 0 1 0 C1 6.27 1 12.54 1 19 C71.62 19 142.24 19 215 19 C215 19.33 215 19.66 215 20 C143.06 20.33 71.12 20.66 -3 21 C-2.34 19.35 -1.68 17.7 -1 16 C-0.64750648 13.98496268 -0.64750648 13.98496268 -0.5859375 12.01171875 C-0.54726562 11.30595703 -0.50859375 10.60019531 -0.46875 9.87304688 C-0.4378125 9.15181641 -0.406875 8.43058594 -0.375 7.6875 C-0.33632812 6.94693359 -0.29765625 6.20636719 -0.2578125 5.44335938 C-0.16418295 3.62928691 -0.08103149 1.81467884 0 0 Z " fill="#2C477D" transform="translate(140,320)"/>
<path d="M0 0 C0.66 0 1.32 0 2 0 C2 6.6 2 13.2 2 20 C-4.27 20 -10.54 20 -17 20 C-17 26.6 -17 33.2 -17 40 C-23.6 40 -30.2 40 -37 40 C-37 33.4 -37 26.8 -37 20 C-36.01 20.33 -35.02 20.66 -34 21 C-33.67 26.28 -33.34 31.56 -33 37 C-26.07 37.495 -26.07 37.495 -19 38 C-19 31.73 -19 25.46 -19 19 C-14.94877091 16.97438545 -12.74493381 16.67078599 -8.3125 16.4375 C-4.33729387 16.56917186 -4.33729387 16.56917186 -1 15 C-0.76346477 12.47403741 -0.57826308 9.96892793 -0.4375 7.4375 C-0.37272461 6.37112305 -0.37272461 6.37112305 -0.30664062 5.28320312 C-0.20028223 3.52238088 -0.09961154 1.7612168 0 0 Z " fill="#E5D986" transform="translate(277,220)"/>
<path d="M0 0 C6.6 0 13.2 0 20 0 C20 6.6 20 13.2 20 20 C19.67 20 19.34 20 19 20 C19 13.73 19 7.46 19 1 C13.06 1 7.12 1 1 1 C1.33 45.22 1.66 89.44 2 135 C7.94 135.33 13.88 135.66 20 136 C20 136.66 20 137.32 20 138 C13.4 138 6.8 138 0 138 C0 92.46 0 46.92 0 0 Z " fill="#ABD8F1" transform="translate(122,181)"/>
<path d="M0 0 C0.66 0 1.32 0 2 0 C2.05807043 3.10408807 2.09361914 6.2080364 2.125 9.3125 C2.14175781 10.19357422 2.15851563 11.07464844 2.17578125 11.98242188 C2.18544922 13.25375977 2.18544922 13.25375977 2.1953125 14.55078125 C2.21102295 15.72120972 2.21102295 15.72120972 2.22705078 16.9152832 C2 19 2 19 0 22 C-1.87939453 22.2487793 -1.87939453 22.2487793 -4.1328125 22.07421875 C-4.85871582 22.02612061 -5.58461914 21.97802246 -6.33251953 21.9284668 C-7.25403809 21.84894775 -8.17555664 21.76942871 -9.125 21.6875 C-13.518125 21.3471875 -13.518125 21.3471875 -18 21 C-18 27.27 -18 33.54 -18 40 C-20.296537 41.1482685 -21.58313167 41.11561175 -24.1328125 41.09765625 C-24.93847656 41.09443359 -25.74414062 41.09121094 -26.57421875 41.08789062 C-27.83685547 41.07532227 -27.83685547 41.07532227 -29.125 41.0625 C-29.97449219 41.05798828 -30.82398438 41.05347656 -31.69921875 41.04882812 C-33.79950909 41.03702874 -35.8997633 41.01909306 -38 41 C-38 46.61 -38 52.22 -38 58 C-38.66 58 -39.32 58 -40 58 C-40 51.73 -40 45.46 -40 39 C-33.4 39 -26.8 39 -20 39 C-20 32.4 -20 25.8 -20 19 C-13.4 19 -6.8 19 0 19 C0 12.73 0 6.46 0 0 Z " fill="#524B56" transform="translate(339,162)"/>
<path d="M0 0 C0.33 0 0.66 0 1 0 C1 6.6 1 13.2 1 20 C-50.81 20 -102.62 20 -156 20 C-155.505 18.515 -155.505 18.515 -155 17 C-155 17.66 -155 18.32 -155 19 C-135.06851121 18.89290385 -115.13706199 18.78016852 -95.20564365 18.66066074 C-85.95180607 18.60530768 -76.69796464 18.55182232 -67.4440918 18.50268555 C-59.38141381 18.45986917 -51.31876445 18.41359771 -43.25613064 18.36312145 C-38.9843316 18.33649992 -34.71253832 18.31164643 -30.44070625 18.29092598 C-26.42461261 18.27139151 -22.40857357 18.24725751 -18.39252853 18.21950912 C-16.91424357 18.21012172 -15.43594661 18.20245256 -13.95764351 18.19658089 C-11.94798058 18.18834839 -9.93834801 18.17348277 -7.9287262 18.15821838 C-6.80137338 18.15176583 -5.67402056 18.14531328 -4.51250553 18.1386652 C-2.06120812 18.28356358 -2.06120812 18.28356358 -1 17 C-0.76298761 14.14122091 -0.57780818 11.30116703 -0.4375 8.4375 C-0.37272461 7.22803711 -0.37272461 7.22803711 -0.30664062 5.99414062 C-0.20024738 3.99631195 -0.09959112 1.9981793 0 0 Z " fill="#8DD4FA" transform="translate(357,318)"/>
<path d="M0 0 C6.6 0 13.2 0 20 0 C20 6.6 20 13.2 20 20 C26.27 20 32.54 20 39 20 C39 26.6 39 33.2 39 40 C45.6 40 52.2 40 59 40 C59 40.66 59 41.32 59 42 C55.75017 42.08728882 52.5006425 42.14048658 49.25 42.1875 C48.32960937 42.21263672 47.40921875 42.23777344 46.4609375 42.26367188 C45.57148438 42.27333984 44.68203125 42.28300781 43.765625 42.29296875 C42.94868164 42.3086792 42.13173828 42.32438965 41.29003906 42.34057617 C38.42475066 41.91444853 37.0571219 41.0172895 35 39 C35 38.01 35 37.02 35 36 C35.66 36 36.32 36 37 36 C37 31.38 37 26.76 37 22 C35.30230469 22.01740234 35.30230469 22.01740234 33.5703125 22.03515625 C32.08854331 22.04453454 30.60677235 22.0536347 29.125 22.0625 C28.37863281 22.07087891 27.63226563 22.07925781 26.86328125 22.08789062 C21.2265625 22.11328125 21.2265625 22.11328125 19 21 C19 14.4 19 7.8 19 1 C12.73 1 6.46 1 0 1 C0 0.67 0 0.34 0 0 Z " fill="#625C5E" transform="translate(201,220)"/>
<path d="M0 0 C6.6 0 13.2 0 20 0 C20 6.6 20 13.2 20 20 C26.6 20 33.2 20 40 20 C40 26.27 40 32.54 40 39 C39.34 39 38.68 39 38 39 C38 33.39 38 27.78 38 22 C36.64003906 22.01160156 35.28007812 22.02320313 33.87890625 22.03515625 C32.1067722 22.04453262 30.33463667 22.05363298 28.5625 22.0625 C27.66466797 22.07087891 26.76683594 22.07925781 25.84179688 22.08789062 C24.56079102 22.09272461 24.56079102 22.09272461 23.25390625 22.09765625 C22.06776733 22.10551147 22.06776733 22.10551147 20.85766602 22.11352539 C19 22 19 22 18 21 C17.91348389 19.58429877 17.89295096 18.164405 17.90234375 16.74609375 C17.90556641 15.89208984 17.90878906 15.03808594 17.91210938 14.15820312 C17.92048828 13.26037109 17.92886719 12.36253906 17.9375 11.4375 C17.94201172 10.53580078 17.94652344 9.63410156 17.95117188 8.70507812 C17.96299756 6.47002411 17.98093362 4.23500398 18 2 C12.39 2 6.78 2 1 2 C0.67 1.34 0.34 0.68 0 0 Z " fill="#524B54" transform="translate(161,181)"/>
<path d="M0 0 C6.6 0 13.2 0 20 0 C20 0.33 20 0.66 20 1 C13.73 1 7.46 1 1 1 C1 7.93 1 14.86 1 22 C-4.94 22 -10.88 22 -17 22 C-17 27.61 -17 33.22 -17 39 C-17.66 39 -18.32 39 -19 39 C-19 32.73 -19 26.46 -19 20 C-12.73 20 -6.46 20 0 20 C0 13.4 0 6.8 0 0 Z " fill="#6D6760" transform="translate(279,220)"/>
<path d="M0 0 C0.66 0 1.32 0 2 0 C2 6.6 2 13.2 2 20 C-4.6 20 -11.2 20 -18 20 C-18.33 20.66 -18.66 21.32 -19 22 C-18.6875 20.0625 -18.6875 20.0625 -18 18 C-13.68193184 16.56064395 -9.36075802 16.56092986 -4.8359375 16.28125 C-2.10130637 16.31259668 -2.10130637 16.31259668 -1 15 C-0.76346477 12.47403741 -0.57826308 9.96892793 -0.4375 7.4375 C-0.39431641 6.72658203 -0.35113281 6.01566406 -0.30664062 5.28320312 C-0.20028223 3.52238088 -0.09961154 1.7612168 0 0 Z " fill="#F5E580" transform="translate(277,220)"/>
<path d="M0 0 C0.66 0 1.32 0 2 0 C2.33 5.28 2.66 10.56 3 16 C7.95 16.33 12.9 16.66 18 17 C18.33 17.99 18.66 18.98 19 20 C12.73 20 6.46 20 0 20 C0 13.4 0 6.8 0 0 Z " fill="#F6E581" transform="translate(221,220)"/>
<path d="M0 0 C0.33 0 0.66 0 1 0 C1 6.27 1 12.54 1 19 C20.8 19 40.6 19 61 19 C61 19.33 61 19.66 61 20 C39.88 20.33 18.76 20.66 -3 21 C-2.34 19.35 -1.68 17.7 -1 16 C-0.64750648 13.98496268 -0.64750648 13.98496268 -0.5859375 12.01171875 C-0.54726562 11.30595703 -0.50859375 10.60019531 -0.46875 9.87304688 C-0.4378125 9.15181641 -0.406875 8.43058594 -0.375 7.6875 C-0.33632812 6.94693359 -0.29765625 6.20636719 -0.2578125 5.44335938 C-0.16418295 3.62928691 -0.08103149 1.81467884 0 0 Z " fill="#324473" transform="translate(140,320)"/>
<path d="M0 0 C0.33 0 0.66 0 1 0 C1 4.95 1 9.9 1 15 C1.66 15.33 2.32 15.66 3 16 C3 16.99 3 17.98 3 19 C-0.10085571 21.06723714 -0.72931681 21.24497423 -4.23046875 21.1953125 C-4.95387451 21.19031738 -5.67728027 21.18532227 -6.42260742 21.18017578 C-7.33502197 21.16196777 -8.24743652 21.14375977 -9.1875 21.125 C-12.095625 21.08375 -15.00375 21.0425 -18 21 C-18.33 26.94 -18.66 32.88 -19 39 C-19.33 39 -19.66 39 -20 39 C-20 32.4 -20 25.8 -20 19 C-13.4 19 -6.8 19 0 19 C0 12.73 0 6.46 0 0 Z " fill="#8CD1F9" transform="translate(300,241)"/>
<path d="M0 0 C0.33 0 0.66 0 1 0 C1 6.93 1 13.86 1 21 C-4.28 21 -9.56 21 -15 21 C-15 21.66 -15 22.32 -15 23 C-15.99 23 -16.98 23 -18 23 C-18.33 28.28 -18.66 33.56 -19 39 C-19.33 39 -19.66 39 -20 39 C-20 32.4 -20 25.8 -20 19 C-13.4 19 -6.8 19 0 19 C0 12.73 0 6.46 0 0 Z " fill="#81BBE5" transform="translate(319,221)"/>
<path d="M0 0 C6.27 0 12.54 0 19 0 C19 6.6 19 13.2 19 20 C19.66 20.33 20.32 20.66 21 21 C20.34 21.66 19.68 22.32 19 23 C19 22.34 19 21.68 19 21 C18.01 21 17.02 21 16 21 C16.33 14.73 16.66 8.46 17 2 C11.39 2 5.78 2 0 2 C0 1.34 0 0.68 0 0 Z " fill="#44405E" transform="translate(201,221)"/>
<path d="M0 0 C0.66 0 1.32 0 2 0 C2 5.28 2 10.56 2 16 C5.27315509 17.63657754 8.90622231 17.2430807 12.5078125 17.31640625 C13.34843231 17.33718735 14.18905212 17.35796844 15.05514526 17.37937927 C17.74501235 17.44485439 20.43497843 17.5037502 23.125 17.5625 C24.94662489 17.60568716 26.76823971 17.64930152 28.58984375 17.69335938 C33.05979394 17.80053368 37.52984386 17.90180685 42 18 C42 18.33 42 18.66 42 19 C28.14 19 14.28 19 0 19 C0 12.73 0 6.46 0 0 Z " fill="#2E2957" transform="translate(121,339)"/>
<path d="M0 0 C2.625 -0.1875 2.625 -0.1875 5 0 C3.02 0.99 3.02 0.99 1 2 C0.67 8.6 0.34 15.2 0 22 C-6.27 22 -12.54 22 -19 22 C-19 21.34 -19 20.68 -19 20 C-13.72 19.67 -8.44 19.34 -3 19 C-2.75087852 13.86996208 -2.75087852 13.86996208 -2.52197266 8.73901367 C-2.31632735 5.03041921 -2.09844363 3.14766544 0 0 Z " fill="#F2E682" transform="translate(299,198)"/>
<path d="M0 0 C0.66 0 1.32 0 2 0 C2 6.93 2 13.86 2 21 C-4.6 21 -11.2 21 -18 21 C-17.67 20.34 -17.34 19.68 -17 19 C-8.585 18.505 -8.585 18.505 0 18 C0 12.06 0 6.12 0 0 Z " fill="#E4D888" transform="translate(317,180)"/>
<path d="M0 0 C0.99 0.33 1.98 0.66 3 1 C2.67 6.94 2.34 12.88 2 19 C7.94 19 13.88 19 20 19 C20 19.66 20 20.32 20 21 C13.4 21 6.8 21 0 21 C0 14.07 0 7.14 0 0 Z " fill="#E2D785" transform="translate(181,180)"/>
<path d="M0 0 C6.27 0.33 12.54 0.66 19 1 C19 1.33 19 1.66 19 2 C13.39 2 7.78 2 2 2 C2 8.27 2 14.54 2 21 C-1.06533164 22.53266582 -4.26754272 22.10276471 -7.625 22.0625 C-8.33140625 22.05798828 -9.0378125 22.05347656 -9.765625 22.04882812 C-11.51045275 22.03703875 -13.255237 22.01910324 -15 22 C-15 21.67 -15 21.34 -15 21 C-10.38 20.67 -5.76 20.34 -1 20 C-0.67 13.4 -0.34 6.8 0 0 Z " fill="#80C5ED" transform="translate(358,181)"/>
<path d="M0 0 C6.6 0 13.2 0 20 0 C19.67 0.66 19.34 1.32 19 2 C10.585 2.495 10.585 2.495 2 3 C2.04125 5.26875 2.0825 7.5375 2.125 9.875 C2.1953125 13.7421875 2.1953125 13.7421875 2 17 C1.34 17.66 0.68 18.32 0 19 C0 12.73 0 6.46 0 0 Z " fill="#45405C" transform="translate(280,221)"/>
<path d="M0 0 C0.33 0 0.66 0 1 0 C1 6.6 1 13.2 1 20 C-5.6 20 -12.2 20 -19 20 C-19.33 20.66 -19.66 21.32 -20 22 C-20 20.68 -20 19.36 -20 18 C-13.73 17.67 -7.46 17.34 -1 17 C-0.67 11.39 -0.34 5.78 0 0 Z " fill="#334F85" transform="translate(298,240)"/>
<path d="M0 0 C6.27 0 12.54 0 19 0 C18.67 0.66 18.34 1.32 18 2 C15.45058627 2.31241371 12.99638487 2.51303421 10.4375 2.625 C9.37112305 2.68300781 9.37112305 2.68300781 8.28320312 2.7421875 C6.52257575 2.83671783 4.76132272 2.91945817 3 3 C1.89485234 6.31544299 1.67892369 9.20410111 1.4375 12.6875 C1.35371094 13.86699219 1.26992188 15.04648437 1.18359375 16.26171875 C1.12300781 17.16535156 1.06242187 18.06898438 1 19 C0.67 19 0.34 19 0 19 C0 12.73 0 6.46 0 0 Z " fill="#304B81" transform="translate(359,319)"/>
<path d="M0 0 C0.99 0.495 0.99 0.495 2 1 C2.28628332 3.5263765 2.46717192 5.96566825 2.5625 8.5 C2.35294651 13.12221389 2.35294651 13.12221389 4 17 C5.84891946 17.23363881 7.70488031 17.41303635 9.5625 17.5625 C10.57441406 17.64628906 11.58632812 17.73007812 12.62890625 17.81640625 C13.80259766 17.90728516 13.80259766 17.90728516 15 18 C15 18.33 15 18.66 15 19 C10.05 19 5.1 19 0 19 C0 12.73 0 6.46 0 0 Z " fill="#374874" transform="translate(201,240)"/>
<path d="M0 0 C0.66 0 1.32 0 2 0 C2 5.28 2 10.56 2 16 C2.66 16.33 3.32 16.66 4 17 C2.02 17.99 2.02 17.99 0 19 C0 12.73 0 6.46 0 0 Z " fill="#3D395D" transform="translate(121,339)"/>
<path d="M0 0 C6.27 0 12.54 0 19 0 C14.88081437 2.05959281 13.26446586 2.19806534 8.8125 2.0625 C6.87563691 2.00863319 4.93750336 1.97948181 3 2 C1.03177114 3.96822886 1.33751619 7.34808709 1 10 C0.67 10 0.34 10 0 10 C0 6.7 0 3.4 0 0 Z " fill="#85D5ED" transform="translate(201,319)"/>
<path d="M0 0 C1.65 0 3.3 0 5 0 C4.51917969 0.33644531 4.03835937 0.67289062 3.54296875 1.01953125 C1.24390033 3.97048742 1.43016048 7.08708942 1.3125 10.6875 C1.27833984 11.38939453 1.24417969 12.09128906 1.20898438 12.81445312 C1.12670053 14.54241387 1.0616676 16.27118072 1 18 C0.67 18 0.34 18 0 18 C0 12.06 0 6.12 0 0 Z " fill="#80D2ED" transform="translate(221,300)"/>
<path d="M0 0 C0.99 0 1.98 0 3 0 C3 5.61 3 11.22 3 17 C2.67 17 2.34 17 2 17 C1.93941406 16.02417969 1.87882813 15.04835938 1.81640625 14.04296875 C1.73261719 12.77066406 1.64882812 11.49835938 1.5625 10.1875 C1.48128906 8.92292969 1.40007812 7.65835937 1.31640625 6.35546875 C1.12815453 3.00818107 1.12815453 3.00818107 0 0 Z " fill="#BCEDFE" transform="translate(217,261)"/>
<path d="" fill="#FFFFFF" transform="translate(0,0)"/>
<path d="" fill="#FFFFFF" transform="translate(0,0)"/>
<path d="" fill="#FFFFFF" transform="translate(0,0)"/>
<path d="" fill="#FFFFFF" transform="translate(0,0)"/>
<path d="" fill="#FFFFFF" transform="translate(0,0)"/>
<path d="" fill="#FFFFFF" transform="translate(0,0)"/>
<path d="" fill="#FFFFFF" transform="translate(0,0)"/>
<path d="" fill="#FFFFFF" transform="translate(0,0)"/>
<path d="" fill="#FFFFFF" transform="translate(0,0)"/>
<path d="" fill="#FFFFFF" transform="translate(0,0)"/>
<path d="" fill="#FFFFFF" transform="translate(0,0)"/>
<path d="" fill="#FFFFFF" transform="translate(0,0)"/>
<path d="" fill="#FFFFFF" transform="translate(0,0)"/>
<path d="" fill="#FFFFFF" transform="translate(0,0)"/>
<path d="" fill="#FFFFFF" transform="translate(0,0)"/>
<path d="" fill="#FFFFFF" transform="translate(0,0)"/>
<path d="" fill="#FFFFFF" transform="translate(0,0)"/>
<path d="" fill="#FFFFFF" transform="translate(0,0)"/>
<path d="" fill="#FFFFFF" transform="translate(0,0)"/>
<path d="" fill="#FFFFFF" transform="translate(0,0)"/>
<path d="" fill="#FFFFFF" transform="translate(0,0)"/>
<path d="" fill="#FFFFFF" transform="translate(0,0)"/>
<path d="" fill="#FFFFFF" transform="translate(0,0)"/>
<path d="" fill="#FFFFFF" transform="translate(0,0)"/>
<path d="" fill="#FFFFFF" transform="translate(0,0)"/>
<path d="" fill="#FFFFFF" transform="translate(0,0)"/>
<path d="" fill="#FFFFFF" transform="translate(0,0)"/>
<path d="" fill="#FFFFFF" transform="translate(0,0)"/>
<path d="" fill="#FFFFFF" transform="translate(0,0)"/>
<path d="" fill="#FFFFFF" transform="translate(0,0)"/>
<path d="" fill="#FFFFFF" transform="translate(0,0)"/>
<path d="" fill="#FFFFFF" transform="translate(0,0)"/>
<path d="" fill="#FFFFFF" transform="translate(0,0)"/>
<path d="" fill="#FFFFFF" transform="translate(0,0)"/>
<path d="" fill="#FFFFFF" transform="translate(0,0)"/>
<path d="" fill="#FFFFFF" transform="translate(0,0)"/>
<path d="" fill="#FFFFFF" transform="translate(0,0)"/>
<path d="" fill="#FFFFFF" transform="translate(0,0)"/>
<path d="" fill="#FFFFFF" transform="translate(0,0)"/>
<path d="" fill="#FFFFFF" transform="translate(0,0)"/>
<path d="" fill="#FFFFFF" transform="translate(0,0)"/>
<path d="" fill="#FFFFFF" transform="translate(0,0)"/>
<path d="" fill="#FFFFFF" transform="translate(0,0)"/>
<path d="" fill="#FFFFFF" transform="translate(0,0)"/>
<path d="" fill="#FFFFFF" transform="translate(0,0)"/>
<path d="" fill="#FFFFFF" transform="translate(0,0)"/>
<path d="" fill="#FFFFFF" transform="translate(0,0)"/>
<path d="" fill="#FFFFFF" transform="translate(0,0)"/>
<path d="" fill="#FFFFFF" transform="translate(0,0)"/>
<path d="" fill="#FFFFFF" transform="translate(0,0)"/>
<path d="" fill="#FFFFFF" transform="translate(0,0)"/>
<path d="" fill="#FFFFFF" transform="translate(0,0)"/>
<path d="" fill="#FFFFFF" transform="translate(0,0)"/>
<path d="" fill="#FFFFFF" transform="translate(0,0)"/>
<path d="" fill="#FFFFFF" transform="translate(0,0)"/>
<path d="" fill="#FFFFFF" transform="translate(0,0)"/>
</svg>