<svg xmlns="http://www.w3.org/2000/svg" width="282" height="282" fill="none"><path fill="#0378B9" d="M263.921 281.994H16.95c-.786-.751-1.13-1.678-1.142-2.764-.045-4.295-.073-8.59.017-12.886.023-.961.283-1.842.95-2.571.808-.747 1.803-.944 2.86-.967.842-.023 1.69-.034 2.531-.034 78.861 0 157.728 0 236.589.011 1.577 0 3.205-.265 4.714.492.35.17.644.407.887.707.605.887.707 1.899.718 2.939.034 3.916.022 7.839.006 11.756 0 1.249-.176 2.424-1.159 3.323v-.006Z"/><path fill="#2DC4ED" d="M281.967 16.965v140.976c-.752.78-1.673 1.13-2.752 1.141-4.284.051-8.569.057-12.853 0-.961-.017-1.837-.271-2.6-.864-.763-.803-.972-1.798-.972-2.855 0-4.979-.192-9.953.113-14.926a37.829 37.829 0 0 1-.164-3.657c0-38.246 0-76.493.017-114.74 0-1.751-.339-3.605.922-5.154 2.865-1.61 15.757-1.543 18.289.096v-.017Z"/><path fill="#0378B9" d="m263.927 157.975 18.041-.034v106.013c-.819.881-1.859 1.147-3.024 1.153-3.996.028-7.991.028-11.982 0-1.164-.012-2.21-.266-3.029-1.148l-.017-.017c-1.102-.977-1.164-2.283-1.164-3.617-.023-32.922-.023-65.845.005-98.773 0-1.305-.079-2.667 1.17-3.583v.006Z"/><path fill="#18ABE3" d="M263.927 157.974c0 35.325-.006 70.649-.011 105.974-80.845 0-161.69 0-242.535.005-1.503 0-3.006.012-4.504.017l.056.034c-1.503-1.424-1.153-3.295-1.158-5.047-.023-32.419-.012-64.844-.017-97.264 0-1.22.034-2.441.164-3.656-.294-4.94-.119-9.88-.125-14.825 0-1.046.142-2.052.837-2.894 1.04-1.006 2.362-1.017 3.685-1.023 9.467-.028 18.94-.051 28.406.011 3.85.023 4.821 1.023 4.895 4.838.062 3.188.04 6.376.017 9.563-.017 2.12.904 3.075 3.04 3.058 3.375-.023 6.755-.073 10.123.034 3.143.102 4.171 1.13 4.273 4.295.113 3.465-.017 6.941.062 10.405.068 2.832.47 3.228 3.318 3.29 3.187.068 6.375 0 9.563.028 1.226.011 2.447.023 3.487.825 1.04 1.018 1.051 2.34 1.068 3.663.04 3.374.04 6.748.011 10.122-.016 2.012.837 2.888 2.866 2.871a581.52 581.52 0 0 1 10.4.006c1.316.011 2.639-.011 3.73.921.995 1.04 1.023 2.352 1.034 3.668.028 2.894 0 5.794.017 8.687.023 4.07.13 4.172 4.318 4.189 2.894.011 5.793-.017 8.687.016 1.227.012 2.436.068 3.436.933.989 1.046 1.012 2.363 1.023 3.679.034 3.182-.028 6.359.029 9.541.051 2.899.39 3.244 3.227 3.301 3.176.062 6.358 0 9.54.028 1.317.011 2.634.011 3.702.972.978 1.062.967 2.391.984 3.708.039 3.47.034 6.946.011 10.416-.011 1.984.791 2.922 2.837 2.922 15.017 0 30.035.011 45.052 0 2.096 0 2.78-1.063 2.769-2.995-.017-3.38-.023-6.76.011-10.134.012-1.317-.034-2.645.854-3.764 1.011-1.046 2.328-1.103 3.657-1.12 3.289-.039 6.578-.079 9.862 0 2.317.057 3.205-.926 3.126-3.199-.096-2.91.017-5.821-.034-8.732-.051-2.837-.396-3.17-3.329-3.221-3.194-.057-6.387 0-9.58-.029-1.328-.017-2.645-.062-3.68-1.09-.683-.848-.864-1.849-.859-2.9.017-4.866-.198-9.738.13-14.604-.311-4.872-.186-9.755-.101-14.633.045-2.832 1.136-3.883 3.962-4.007 3.374-.147 6.754 0 10.133-.074 2.86-.062 3.25-.452 3.312-3.289.074-3.47-.05-6.946.057-10.417.096-3.204 1.085-4.193 4.261-4.289 3.375-.102 6.754-.063 10.134-.029 2.142.023 3.064-.91 3.052-3.04-.017-3.38-.079-6.76.04-10.134.107-3.143 1.147-4.239 4.307-4.267 9.755-.097 19.516-.057 29.276-.023 1.17 0 2.239.232 3.069 1.13.006 5.844.012 11.694.023 17.538v.011Z"/><path fill="#A3DDF3" d="M263.91 140.431c-10.784.012-21.568.085-32.351-.022-2.391-.023-3.358.503-3.216 3.091.22 3.928-.057 7.879.101 11.813.085 2.17-.723 2.735-2.769 2.667-4.12-.13-8.252.034-12.378-.073-1.854-.045-2.453.622-2.407 2.442.096 4.402-.034 8.817.062 13.219.039 1.815-.543 2.493-2.402 2.448-4.03-.108-8.071.084-12.095-.079-2.272-.091-3.143.531-3.064 2.95.159 4.872 0 9.749-.022 14.627-.611.639-1.334 1.04-2.227 1.057-4.414.107-8.828.13-13.243-.023-.763-.028-1.452-.35-2.051-.848-1.018-1.034-1.029-2.362-1.046-3.679-.039-3.097.023-6.194-.028-9.297-.051-3.143-.418-3.499-3.64-3.55-3.193-.051-6.387.034-9.574-.034-3.719-.079-4.753-1.034-4.782-4.662-.068-9.484-.062-18.968 0-28.446.023-3.669 1.035-4.686 4.714-4.72 8.919-.079 17.837 0 26.756-.039 3.708-.017 3.985-.322 4.019-4.036.028-2.911-.012-5.821.017-8.732.011-1.226.005-2.453.802-3.498 1.063-1.148 2.476-1.165 3.889-1.182 3.272-.034 6.545-.056 9.811 0 2.154.034 3.041-.881 2.99-3.024-.073-3.08-.056-6.166-.005-9.252.028-2-.797-2.905-2.826-2.888-3.273.028-6.54.023-9.812-.011-1.407-.017-2.826.017-3.945-1.068-.927-1.097-.888-2.431-.899-3.748-.028-3.193.023-6.386-.022-9.574-.046-3.221-.385-3.594-3.572-3.617-7.981-.045-15.961-.011-23.942-.017-.848 0-1.69 0-2.538-.006-4.651-.05-5.442-.79-5.454-5.386-.034-14.18 0-28.355-.017-42.536 0-4.318-.186-4.505-4.391-4.51-13.802-.012-27.604-.017-41.406 0-4.081 0-4.25.203-4.278 4.329-.023 3.007.022 6.008-.029 9.015-.022 1.147-.158 2.255-.983 3.148-1.063.983-2.397.955-3.719.972-3.29.04-6.579-.034-9.863.034-2.961.062-3.34.48-3.436 3.51-.034 1.125-.011 2.255-.011 3.38 0 36.737.011 73.474-.029 110.212 0 1.797.588 3.826-1.22 5.245-4.788-.017-9.58-.187-14.362 0-2.577.101-3.204-.803-3.103-3.216.181-4.126-.04-8.263.085-12.389.062-2.018-.695-2.583-2.617-2.532-4.126.113-8.263-.057-12.394.073-2.007.062-2.6-.667-2.544-2.6.113-4.126-.05-8.263.074-12.394.062-1.99-.645-2.572-2.589-2.561-10.987.068-21.969.017-32.956.012-1.35-.995-1.17-2.476-1.176-3.861-.045-8.07-.017-16.147-.017-24.218 0-30.04-.01-60.074.017-90.114 0-1.831-.418-3.81 1.159-5.318l-.04.04c.843-.865 1.888-1.165 3.07-1.154.938.006 1.876-.022 2.82-.022 78.431 0 156.862 0 235.294.022 2.006 0 4.188-.56 5.884 1.153l-.029-.05-.034 123.522-.011.005Z"/><path fill="#2DC4ED" d="M263.967 16.96H16.899c.017-4.883.085-9.772.017-14.656-.022-1.661.419-2.498 2.205-2.266.553.073 1.124.011 1.69.011 79.748 0 159.502 0 239.25.006 4.386 0 3.815-.52 3.855 3.94.039 4.317.034 8.641.051 12.96v.005Z"/><path fill="#2DC4ED" d="M16.939 16.92c.006 41.169.017 82.343.023 123.511-.006 5.844-.012 11.694-.023 17.538-2.628 1.656-14.282 1.639-16.82-.017-.028-1.028-.085-2.063-.085-3.091V20.532c0-2.374 1.225-3.563 3.674-3.566 4.414-.012 8.822-.029 13.237-.046h-.006Z"/><path fill="#0378B9" d="m.119 157.958 16.82.016c0 35.342 0 70.689-.006 106.03-4.973-.017-9.953-.068-14.927-.028-1.345.011-2.012-.204-2.006-1.809.068-34.736.09-69.473.119-104.209Z"/><path fill="#fff" d="M87.367 176.038c.023-18.109.057-36.212.062-54.32.012-22.049.046-44.097-.05-66.139-.012-2.51.723-3.233 3.181-3.142 4.968.18 9.942.05 14.916.05.147.12.288.243.435.362.837 1.046.729 2.295.729 3.504.023 44.402.023 88.803 0 133.204 0 1.21.113 2.465-.706 3.516-.142.124-.289.243-.436.362-5.137.005-10.28-.074-15.412.067-2.04.057-2.77-.452-2.702-2.616.147-4.946.006-9.903-.011-14.854l-.006.006ZM193.414 228.403c.005 5.166-.057 10.337.062 15.503.039 1.865-.356 2.623-2.442 2.611a4609.443 4609.443 0 0 0-48.199 0c-2.08.012-2.481-.746-2.442-2.611.113-5.166.051-10.337.062-15.503.119-.141.243-.283.362-.424 1.046-.819 2.295-.712 3.504-.712 15.074-.023 30.153-.023 45.227 0 1.209 0 2.453-.113 3.504.706.119.142.237.289.356.43h.006Z"/><path fill="#fff" d="M122.98 210.922c-5.149.005-10.298-.034-15.447.05-1.588.029-2.108-.497-2.08-2.085.085-5.149.045-10.298.051-15.447l-.039.04c.825-.882 1.859-1.165 3.035-1.17 3.826-.028 7.652-.085 11.479.022 3.006.085 4.029 1.097 4.12 4.087.113 3.826.062 7.652.017 11.479-.012.944-.079 1.871-.69 2.656-.147.125-.294.249-.441.368h-.005ZM175.961 193.463l17.402.051.051 17.453c-.124.141-.243.282-.367.429-1.509 1.063-3.245.679-4.895.707-3.176.051-6.347.056-9.523-.017-2.012-.045-3.589-.854-3.708-3.007-.249-4.657-.271-9.331.028-13.994.028-.469.294-.882.571-1.26l.441-.356v-.006Z"/><path fill="#fff" d="M140.462 228.403c-5.149.006-10.304-.034-15.447.051-1.588.028-2.108-.492-2.086-2.086.085-5.149.046-10.298.051-15.452l-.039.039c.825-.881 1.865-1.164 3.035-1.175 3.832-.034 7.664-.091 11.496.022 3.024.091 4.013 1.08 4.103 4.104.113 3.832.057 7.664.023 11.496-.012 1.175-.294 2.215-1.176 3.035l.04-.04v.006ZM193.414 210.967c4.98-.006 9.959.056 14.938-.057 1.86-.045 2.691.345 2.611 2.436a169.58 169.58 0 0 0 0 12.677c.08 2.097-.751 2.481-2.611 2.436-4.973-.113-9.958-.051-14.938-.056l.04.039c-.876-.819-1.164-1.854-1.17-3.029a782.02 782.02 0 0 1 0-11.462c.011-1.17.294-2.204 1.17-3.03l-.04.04v.006ZM105.476 52.493c0-4.979.074-9.958-.033-14.932-.046-1.972.627-2.589 2.588-2.583 15.78.062 31.56.074 47.335-.011 2.277-.011 2.588.95 2.583 2.871-.057 15.401.034 30.809-.091 46.21-.022 2.702.724 3.51 3.448 3.465 9.766-.159 19.533 0 29.305-.108 2.221-.022 2.945.639 2.877 2.877-.147 5.07-.045 10.145-.045 15.215-.119.141-.238.288-.356.43-1.04.836-2.295.729-3.505.729-15.101.022-30.209.039-45.311-.006-4.007-.011-4.974-.989-4.991-5.025-.056-14.446-.005-28.892-.028-43.344-.005-4.454-.158-4.606-4.572-4.612-8.348-.017-16.696.006-25.049-.011-1.504 0-3.035.096-4.177-1.193l.017.017.005.011ZM193.442 122.978c0 4.883-.102 9.767.045 14.65.068 2.227-.65 2.899-2.877 2.877-9.953-.108-19.906.011-29.859-.091-2.215-.022-2.905.639-2.882 2.871.107 9.953.101 19.906 0 29.859-.023 2.21.621 2.968 2.865 2.888 4.312-.158 8.636.012 12.954-.067 1.707-.034 2.318.587 2.289 2.294-.073 5.07-.022 10.14-.022 15.21l.017-.017c-.973 1.096-2.272 1.186-3.612 1.192-9.478.023-18.951.051-28.429-.017-3.657-.022-4.646-1.017-4.657-4.747-.057-21.11-.057-42.226 0-63.336.011-3.719.983-4.696 4.685-4.713 15.294-.062 30.588-.04 45.882-.012 1.119 0 2.272-.05 3.228.718.124.147.243.3.361.447l.012-.006Z"/><path fill="#fff" d="M193.443 105.497c4.973 0 9.953.073 14.926-.034 1.961-.046 2.645.604 2.589 2.583-.119 4.222-.091 8.449-.012 12.671.034 1.713-.593 2.312-2.294 2.289-5.07-.073-10.14-.022-15.209-.022l.016.016c-.876-.819-1.164-1.853-1.175-3.029a782.02 782.02 0 0 1 0-11.462c.011-1.176.299-2.204 1.175-3.029l-.016.017Z"/><path fill="#26C4F0" d="M193.459 105.48v17.521c-16.814-.006-33.629.028-50.443-.068-2.187-.012-2.628.712-2.623 2.741.068 21.698.08 43.401-.017 65.098-.011 2.363.831 2.759 2.911 2.742 10.897-.091 21.794-.051 32.691-.063-.006 5.144.034 10.293-.045 15.436-.023 1.582.503 2.119 2.091 2.091 5.143-.079 10.286-.04 15.435-.045v17.515h-53.037c0-5.143-.034-10.292.045-15.435.022-1.583-.509-2.114-2.091-2.091-5.144.079-10.287.039-15.436.045 0-5.143-.034-10.292.046-15.436.022-1.582-.509-2.113-2.092-2.091-5.143.079-10.286.04-15.435.045V52.476c10.518.006 21.042.141 31.56-.062 2.99-.056 3.504.899 3.482 3.623-.125 15.497-.017 30.995-.113 46.492-.012 2.272.497 3.041 2.916 3.024 16.718-.113 33.437-.068 50.155-.079v.006Z"/></svg>