<svg width="282" height="282" viewBox="0 0 282 282" fill="none" xmlns="http://www.w3.org/2000/svg">
<rect x="29" y="55" width="226" height="217" fill="white"/>
<rect y="27.4604" width="28.5169" height="227.079" fill="#6B87C8"/>
<rect x="28.5166" width="226.022" height="27.4607" fill="#6B87C8"/>
<rect x="254.539" y="27.4604" width="27.4607" height="227.079" fill="#4762A2"/>
<rect x="28.5166" y="254.54" width="226.022" height="27.4607" fill="#4762A2"/>
<rect x="28.5166" y="239.753" width="226.022" height="14.7865" fill="#5974B5"/>
<rect x="28.5166" y="27.4604" width="226.022" height="14.7865" fill="#5974B5"/>
<rect x="28.5166" y="42.2471" width="226.022" height="14.7865" fill="#5974B5"/>
<rect x="84.4941" y="70.7642" width="114.067" height="14.7865" fill="#5974B5"/>
<rect x="84.4941" y="126.742" width="29.573" height="58.0899" fill="#5974B5"/>
<rect x="168.988" y="126.742" width="29.573" height="58.0899" fill="#5974B5"/>
<rect x="127.798" y="141.528" width="28.5169" height="57.0337" transform="rotate(90 127.798 141.528)" fill="#5974B5"/>
<rect x="212.292" y="141.528" width="28.5169" height="57.0337" transform="rotate(90 212.292 141.528)" fill="#5974B5"/>
<rect x="168.988" y="197.506" width="29.573" height="14.7865" fill="#5974B5"/>
<rect x="84.4941" y="197.506" width="29.573" height="14.7865" fill="#5974B5"/>
<rect x="70.7637" y="84.4941" width="28.5169" height="14.7865" fill="#5974B5"/>
<rect x="55.9775" y="99.2808" width="14.7865" height="14.7865" fill="#5974B5"/>
<rect width="28.5169" height="14.7865" transform="matrix(-1 0 0 1 212.292 84.4946)" fill="#5974B5"/>
<rect width="14.7865" height="14.7865" transform="matrix(-1 0 0 1 227.078 99.2812)" fill="#5974B5"/>
<rect x="114.067" y="212.292" width="54.9213" height="27.4607" fill="#5974B5"/>
<rect x="99.2812" y="226.022" width="14.7865" height="13.7303" fill="#5974B5"/>
<rect x="168.988" y="226.022" width="14.7865" height="13.7303" fill="#5974B5"/>
<rect x="239.753" y="211.236" width="14.7865" height="28.5169" fill="#5974B5"/>
<rect x="254.539" y="224.966" width="14.7865" height="28.5169" transform="rotate(90 254.539 224.966)" fill="#5974B5"/>
<rect width="14.7865" height="28.5169" transform="matrix(-1 0 0 1 43.3027 212.292)" fill="#5974B5"/>
<rect width="14.7865" height="28.5169" transform="matrix(4.37114e-08 1 1 -4.37114e-08 28.5166 226.023)" fill="#5974B5"/>
<rect width="14.7865" height="28.5169" transform="matrix(-1 0 0 1 43.3027 57.0337)" fill="#5974B5"/>
<rect width="14.7865" height="28.5169" transform="matrix(4.37114e-08 1 1 -4.37114e-08 28.5166 70.7642)" fill="#5974B5"/>
<rect width="14.7865" height="29.573" transform="matrix(-1 0 0 1 240.81 55.9775)" fill="#5974B5"/>
<rect width="15.3342" height="28.5169" transform="matrix(4.21503e-08 1 1 -4.53303e-08 226.023 70.2163)" fill="#5974B5"/>
<rect x="35.9102" y="55.9775" width="21.1236" height="15.8427" fill="#5974B5"/>
<rect x="28.5166" y="85.5508" width="14.7865" height="42.2472" fill="#5974B5"/>
<rect x="239.753" y="55.9775" width="15.8427" height="71.8202" fill="#5974B5"/>
<rect x="113.012" y="57.0337" width="57.0337" height="13.7303" fill="#5974B5"/>
<rect x="13.7305" y="12.6743" width="14.7865" height="14.7865" fill="#5974B5"/>
<rect x="254.539" y="12.6743" width="14.7865" height="14.7865" fill="#5974B5"/>
<rect x="13.7305" y="254.54" width="14.7865" height="14.7865" fill="#5974B5"/>
<rect x="254.539" y="254.54" width="14.7865" height="14.7865" fill="#5974B5"/>
</svg>
