<svg width="282" height="282" viewBox="0 0 282 282" fill="none" xmlns="http://www.w3.org/2000/svg">
<path d="M263.921 281.994H16.9498C16.1642 281.243 15.8194 280.316 15.8081 279.23C15.7629 274.935 15.7346 270.64 15.8251 266.344C15.8477 265.383 16.1077 264.502 16.7746 263.773C17.5828 263.026 18.5775 262.829 19.6344 262.806C20.4766 262.783 21.3244 262.772 22.1665 262.772C101.027 262.772 179.894 262.772 258.755 262.783C260.332 262.783 261.96 262.518 263.469 263.275C263.819 263.445 264.113 263.682 264.356 263.982C264.961 264.869 265.063 265.881 265.074 266.921C265.108 270.837 265.096 274.76 265.08 278.677C265.08 279.926 264.904 281.101 263.921 282V281.994Z" fill="#0378B9"/>
<path d="M281.967 16.9654V157.941C281.215 158.721 280.294 159.071 279.215 159.082C274.931 159.133 270.646 159.139 266.362 159.082C265.401 159.065 264.525 158.811 263.762 158.218C262.999 157.415 262.79 156.42 262.79 155.363C262.79 150.384 262.598 145.41 262.903 140.437C262.785 139.222 262.739 138.001 262.739 136.78C262.739 98.5336 262.739 60.2872 262.756 22.0408C262.756 20.2887 262.417 18.4349 263.678 16.8863C266.543 15.2755 279.435 15.3433 281.967 16.9824V16.9654Z" fill="#2DC4ED"/>
<path d="M263.927 157.975C269.941 157.964 275.954 157.952 281.968 157.941V263.954C281.149 264.835 280.109 265.101 278.944 265.107C274.948 265.135 270.953 265.135 266.962 265.107C265.798 265.095 264.752 264.841 263.933 263.959L263.916 263.942C262.814 262.965 262.752 261.659 262.752 260.325C262.729 227.403 262.729 194.48 262.757 161.552C262.757 160.247 262.678 158.885 263.927 157.969V157.975Z" fill="#0378B9"/>
<path d="M263.927 157.974C263.927 193.299 263.921 228.623 263.916 263.948C183.071 263.948 102.226 263.948 21.3814 263.953C19.878 263.953 18.3746 263.965 16.8769 263.97L16.9334 264.004C15.43 262.58 15.7804 260.709 15.7747 258.957C15.7521 226.538 15.7634 194.113 15.7578 161.693C15.7578 160.473 15.7917 159.252 15.9217 158.037C15.6278 153.097 15.803 148.157 15.7974 143.212C15.7974 142.166 15.9387 141.16 16.6338 140.318C17.6738 139.312 18.9963 139.301 20.3189 139.295C29.7858 139.267 39.2584 139.244 48.7253 139.306C52.5743 139.329 53.5464 140.329 53.6199 144.144C53.682 147.332 53.6594 150.52 53.6368 153.707C53.6199 155.827 54.5411 156.782 56.6775 156.765C60.0517 156.742 63.4316 156.692 66.8001 156.799C69.9426 156.901 70.9712 157.929 71.0729 161.094C71.186 164.559 71.056 168.035 71.1351 171.499C71.2029 174.331 71.6042 174.727 74.4528 174.789C77.6404 174.857 80.8281 174.789 84.0158 174.817C85.2422 174.828 86.4631 174.84 87.503 175.642C88.543 176.66 88.5543 177.982 88.5712 179.305C88.6108 182.679 88.6108 186.053 88.5825 189.427C88.5656 191.439 89.419 192.315 91.448 192.298C94.9127 192.27 98.3829 192.27 101.848 192.304C103.164 192.315 104.487 192.293 105.578 193.225C106.573 194.265 106.601 195.577 106.612 196.893C106.64 199.787 106.612 202.687 106.629 205.58C106.652 209.65 106.759 209.752 110.947 209.769C113.841 209.78 116.74 209.752 119.634 209.785C120.861 209.797 122.07 209.853 123.07 210.718C124.059 211.764 124.082 213.081 124.093 214.397C124.127 217.579 124.065 220.756 124.122 223.938C124.173 226.837 124.512 227.182 127.349 227.239C130.525 227.301 133.707 227.239 136.889 227.267C138.206 227.278 139.523 227.278 140.591 228.239C141.569 229.301 141.558 230.63 141.575 231.947C141.614 235.417 141.609 238.893 141.586 242.363C141.575 244.347 142.377 245.285 144.423 245.285C159.44 245.285 174.458 245.296 189.475 245.285C191.571 245.285 192.255 244.222 192.244 242.29C192.227 238.91 192.221 235.53 192.255 232.156C192.267 230.839 192.221 229.511 193.109 228.392C194.12 227.346 195.437 227.289 196.766 227.272C200.055 227.233 203.344 227.193 206.628 227.272C208.945 227.329 209.833 226.346 209.754 224.073C209.658 221.163 209.771 218.252 209.72 215.341C209.669 212.504 209.324 212.171 206.391 212.12C203.197 212.063 200.004 212.12 196.811 212.091C195.483 212.074 194.166 212.029 193.131 211.001C192.448 210.153 192.267 209.152 192.272 208.101C192.289 203.235 192.074 198.363 192.402 193.497C192.091 188.625 192.216 183.742 192.301 178.864C192.346 176.032 193.437 174.981 196.263 174.857C199.637 174.71 203.017 174.857 206.396 174.783C209.256 174.721 209.646 174.331 209.708 171.494C209.782 168.024 209.658 164.548 209.765 161.077C209.861 157.873 210.85 156.884 214.026 156.788C217.401 156.686 220.78 156.725 224.16 156.759C226.302 156.782 227.224 155.849 227.212 153.719C227.195 150.339 227.133 146.959 227.252 143.585C227.359 140.442 228.399 139.346 231.559 139.318C241.314 139.221 251.075 139.261 260.835 139.295C262.005 139.295 263.074 139.527 263.904 140.425C263.91 146.269 263.916 152.119 263.927 157.963V157.974Z" fill="#18ABE3"/>
<path d="M263.91 140.431C253.126 140.443 242.342 140.516 231.559 140.409C229.168 140.386 228.201 140.912 228.343 143.5C228.563 147.428 228.286 151.379 228.444 155.313C228.529 157.483 227.721 158.048 225.675 157.98C221.555 157.85 217.423 158.014 213.297 157.907C211.443 157.862 210.844 158.529 210.89 160.349C210.986 164.751 210.856 169.166 210.952 173.568C210.991 175.383 210.409 176.061 208.55 176.016C204.52 175.908 200.479 176.1 196.455 175.937C194.183 175.846 193.312 176.468 193.391 178.887C193.55 183.759 193.391 188.636 193.369 193.514C192.758 194.153 192.035 194.554 191.142 194.571C186.728 194.678 182.314 194.701 177.899 194.548C177.136 194.52 176.447 194.198 175.848 193.7C174.83 192.666 174.819 191.338 174.802 190.021C174.763 186.924 174.825 183.827 174.774 180.724C174.723 177.581 174.356 177.225 171.134 177.174C167.941 177.123 164.747 177.208 161.56 177.14C157.841 177.061 156.807 176.106 156.778 172.478C156.71 162.994 156.716 153.51 156.778 144.032C156.801 140.363 157.813 139.346 161.492 139.312C170.411 139.233 179.329 139.312 188.248 139.273C191.956 139.256 192.233 138.951 192.267 135.237C192.295 132.326 192.255 129.416 192.284 126.505C192.295 125.279 192.289 124.052 193.086 123.007C194.149 121.859 195.562 121.842 196.975 121.825C200.247 121.791 203.52 121.769 206.786 121.825C208.94 121.859 209.827 120.944 209.776 118.801C209.703 115.721 209.72 112.635 209.771 109.549C209.799 107.549 208.974 106.644 206.945 106.661C203.672 106.689 200.405 106.684 197.133 106.65C195.726 106.633 194.307 106.667 193.188 105.582C192.261 104.485 192.3 103.151 192.289 101.834C192.261 98.6412 192.312 95.4478 192.267 92.2602C192.221 89.0386 191.882 88.6656 188.695 88.643C180.714 88.5977 172.734 88.6317 164.753 88.626C163.905 88.626 163.063 88.626 162.215 88.6203C157.564 88.5695 156.773 87.8291 156.761 83.2341C156.727 69.0535 156.761 54.8785 156.744 40.6979C156.744 36.3798 156.558 36.1933 152.353 36.1877C138.551 36.1764 124.749 36.1707 110.947 36.1877C106.866 36.1877 106.697 36.3911 106.669 40.517C106.646 43.5238 106.691 46.525 106.64 49.5318C106.618 50.6791 106.482 51.7869 105.657 52.6799C104.594 53.6633 103.26 53.6351 101.938 53.652C98.6485 53.6916 95.3591 53.6181 92.0753 53.686C89.1138 53.7481 88.7351 54.1664 88.639 57.1958C88.6051 58.3205 88.6277 59.4509 88.6277 60.5756C88.6277 97.313 88.639 134.05 88.5994 170.788C88.5994 172.585 89.1872 174.614 87.3786 176.033C82.5915 176.016 77.7987 175.846 73.0171 176.033C70.4399 176.134 69.8125 175.23 69.9143 172.817C70.0951 168.691 69.8747 164.554 69.999 160.428C70.0612 158.41 69.3038 157.845 67.3822 157.896C63.2563 158.009 59.1191 157.839 54.9876 157.969C52.9812 158.031 52.3877 157.302 52.4442 155.369C52.5573 151.243 52.3934 147.106 52.5177 142.975C52.5799 140.985 51.8734 140.403 49.9291 140.414C38.9418 140.482 27.9602 140.431 16.9729 140.426C15.6221 139.431 15.803 137.95 15.7973 136.565C15.7521 128.495 15.7804 120.418 15.7804 112.347C15.7804 82.3072 15.7691 52.273 15.7973 22.2331C15.7973 20.4019 15.3791 18.4237 16.956 16.9147L16.9164 16.9542C17.7585 16.0895 18.8041 15.79 19.9854 15.8013C20.9236 15.8069 21.8618 15.7787 22.8057 15.7787C101.237 15.7787 179.668 15.7787 258.1 15.8013C260.106 15.8013 262.288 15.2417 263.984 16.9542L263.955 16.9034C263.944 58.0775 263.933 99.2516 263.921 140.426L263.91 140.431Z" fill="#A3DDF3"/>
<path d="M263.967 16.9598C181.613 16.9598 99.2532 16.9598 16.8994 16.9598C16.9164 12.0766 16.9842 7.18767 16.9164 2.30443C16.8938 0.642771 17.3346 -0.19371 19.1206 0.0380178C19.6745 0.111492 20.2453 0.0493216 20.8105 0.0493216C100.559 0.0493216 180.313 0.0493216 260.061 0.0549735C264.447 0.0549735 263.876 -0.465001 263.916 3.99435C263.955 8.3124 263.95 12.6361 263.967 16.9542V16.9598Z" fill="#2DC4ED"/>
<path d="M16.939 16.9204C16.9447 58.0888 16.956 99.2629 16.9616 140.431C16.956 146.275 16.9503 152.125 16.939 157.969C14.3109 159.625 2.65666 159.608 0.118958 157.952C0.0906987 156.924 0.0341797 155.889 0.0341797 154.861C0.0341797 110.086 0.0341797 65.3063 0.0341797 20.532C0.0341797 18.1582 1.25876 16.9694 3.70791 16.9656C8.12205 16.9543 12.5305 16.9374 16.9447 16.9204H16.939Z" fill="#2DC4ED"/>
<path d="M0.118726 157.958C5.72541 157.963 11.3321 157.969 16.9388 157.974C16.9388 193.316 16.9388 228.663 16.9331 264.004C11.9595 263.987 6.98013 263.936 2.00646 263.976C0.661308 263.987 -0.00561628 263.772 3.56208e-05 262.167C0.0678584 227.431 0.090466 192.694 0.118726 157.958V157.958Z" fill="#0378B9"/>
<path d="M87.3672 176.038C87.3898 157.929 87.4237 139.826 87.4294 121.718C87.4407 99.6695 87.4746 77.6214 87.3785 55.579C87.3672 53.0696 88.1019 52.3461 90.5605 52.4366C95.5285 52.6174 100.502 52.4874 105.476 52.4874C105.623 52.6061 105.764 52.7305 105.911 52.8492C106.748 53.8948 106.64 55.1438 106.64 56.3533C106.663 100.755 106.663 145.156 106.64 189.557C106.64 190.767 106.753 192.022 105.934 193.073C105.792 193.197 105.645 193.316 105.498 193.435C100.361 193.44 95.2177 193.361 90.0858 193.502C88.0454 193.559 87.3163 193.05 87.3841 190.886C87.5311 185.94 87.3898 180.983 87.3728 176.032L87.3672 176.038Z" fill="white"/>
<path d="M193.414 228.403C193.419 233.569 193.357 238.74 193.476 243.906C193.515 245.771 193.12 246.529 191.034 246.517C174.966 246.433 158.903 246.433 142.835 246.517C140.755 246.529 140.354 245.771 140.393 243.906C140.506 238.74 140.444 233.569 140.455 228.403C140.574 228.262 140.698 228.12 140.817 227.979C141.863 227.16 143.112 227.267 144.321 227.267C159.395 227.244 174.474 227.244 189.548 227.267C190.757 227.267 192.001 227.154 193.052 227.973C193.171 228.115 193.289 228.262 193.408 228.403H193.414Z" fill="white"/>
<path d="M122.98 210.922C117.831 210.927 112.682 210.888 107.533 210.972C105.945 211.001 105.425 210.475 105.453 208.887C105.538 203.738 105.498 198.589 105.504 193.44L105.465 193.48C106.29 192.598 107.324 192.315 108.5 192.31C112.326 192.282 116.152 192.225 119.979 192.332C122.985 192.417 124.008 193.429 124.099 196.419C124.212 200.245 124.161 204.071 124.116 207.898C124.104 208.842 124.037 209.769 123.426 210.554C123.279 210.679 123.132 210.803 122.985 210.922H122.98Z" fill="white"/>
<path d="M175.961 193.463C181.76 193.48 187.564 193.497 193.363 193.514C193.38 199.33 193.397 205.151 193.414 210.967C193.29 211.108 193.171 211.249 193.047 211.396C191.538 212.459 189.802 212.075 188.152 212.103C184.976 212.154 181.805 212.159 178.629 212.086C176.617 212.041 175.04 211.232 174.921 209.079C174.672 204.422 174.65 199.748 174.949 195.085C174.977 194.616 175.243 194.203 175.52 193.825C175.667 193.706 175.814 193.587 175.961 193.469V193.463Z" fill="white"/>
<path d="M140.462 228.403C135.313 228.409 130.158 228.369 125.015 228.454C123.427 228.482 122.907 227.962 122.929 226.368C123.014 221.219 122.975 216.07 122.98 210.916L122.941 210.955C123.766 210.074 124.806 209.791 125.976 209.78C129.808 209.746 133.64 209.689 137.472 209.802C140.496 209.893 141.485 210.882 141.575 213.906C141.688 217.738 141.632 221.57 141.598 225.402C141.586 226.577 141.304 227.617 140.422 228.437L140.462 228.397V228.403Z" fill="white"/>
<path d="M193.414 210.967C198.394 210.961 203.373 211.023 208.352 210.91C210.212 210.865 211.043 211.255 210.963 213.346C210.805 217.568 210.805 221.801 210.963 226.023C211.043 228.12 210.212 228.504 208.352 228.459C203.379 228.346 198.394 228.408 193.414 228.403L193.454 228.442C192.578 227.623 192.29 226.588 192.284 225.413C192.256 221.592 192.256 217.772 192.284 213.951C192.295 212.781 192.578 211.747 193.454 210.921L193.414 210.961V210.967Z" fill="white"/>
<path d="M105.476 52.4934C105.476 47.5141 105.55 42.5348 105.443 37.5611C105.397 35.5886 106.07 34.9725 108.031 34.9782C123.811 35.0404 139.591 35.0517 155.366 34.9669C157.643 34.9556 157.954 35.9164 157.949 37.8381C157.892 53.2395 157.983 68.6466 157.858 84.048C157.836 86.7496 158.582 87.5578 161.306 87.5126C171.072 87.3544 180.839 87.5126 190.611 87.4052C192.832 87.3826 193.556 88.0439 193.488 90.282C193.341 95.3518 193.443 100.427 193.443 105.497C193.324 105.638 193.205 105.785 193.087 105.927C192.047 106.763 190.792 106.656 189.582 106.656C174.481 106.678 159.373 106.695 144.271 106.65C140.264 106.639 139.297 105.661 139.28 101.625C139.224 87.1792 139.275 72.7329 139.252 58.281C139.247 53.8273 139.094 53.6747 134.68 53.669C126.332 53.6521 117.984 53.6747 109.631 53.6577C108.127 53.6577 106.596 53.7538 105.454 52.4652L105.471 52.4821L105.476 52.4934Z" fill="white"/>
<path d="M193.442 122.978C193.442 127.861 193.34 132.745 193.487 137.628C193.555 139.855 192.837 140.527 190.61 140.505C180.657 140.397 170.704 140.516 160.751 140.414C158.536 140.392 157.846 141.053 157.869 143.285C157.976 153.238 157.97 163.191 157.869 173.144C157.846 175.354 158.49 176.112 160.734 176.032C165.046 175.874 169.37 176.044 173.688 175.965C175.395 175.931 176.006 176.552 175.977 178.259C175.904 183.329 175.955 188.399 175.955 193.469L175.972 193.452C174.999 194.548 173.7 194.638 172.36 194.644C162.882 194.667 153.409 194.695 143.931 194.627C140.274 194.605 139.285 193.61 139.274 189.88C139.217 168.77 139.217 147.654 139.274 126.544C139.285 122.825 140.257 121.848 143.959 121.831C159.253 121.769 174.547 121.791 189.841 121.819C190.96 121.819 192.113 121.769 193.069 122.537C193.193 122.684 193.312 122.837 193.43 122.984L193.442 122.978Z" fill="white"/>
<path d="M193.443 105.497C198.416 105.497 203.396 105.57 208.369 105.463C210.33 105.417 211.014 106.067 210.958 108.046C210.839 112.268 210.867 116.495 210.946 120.717C210.98 122.43 210.353 123.029 208.652 123.006C203.582 122.933 198.512 122.984 193.443 122.984L193.459 123C192.583 122.181 192.295 121.147 192.284 119.971C192.256 116.15 192.256 112.33 192.284 108.509C192.295 107.333 192.583 106.305 193.459 105.48L193.443 105.497V105.497Z" fill="white"/>
<path d="M193.459 105.48C193.459 111.318 193.459 117.162 193.459 123.001C176.645 122.995 159.83 123.029 143.016 122.933C140.829 122.921 140.388 123.645 140.393 125.674C140.461 147.372 140.473 169.075 140.376 190.772C140.365 193.135 141.207 193.531 143.287 193.514C154.184 193.423 165.081 193.463 175.978 193.451C175.972 198.595 176.012 203.744 175.933 208.887C175.91 210.469 176.436 211.006 178.024 210.978C183.167 210.899 188.31 210.938 193.459 210.933C193.459 216.771 193.459 222.61 193.459 228.448H140.422C140.422 223.305 140.388 218.156 140.467 213.013C140.489 211.43 139.958 210.899 138.376 210.922C133.232 211.001 128.089 210.961 122.94 210.967C122.94 205.824 122.906 200.675 122.986 195.531C123.008 193.949 122.477 193.418 120.894 193.44C115.751 193.519 110.608 193.48 105.459 193.485C105.459 146.484 105.459 99.4773 105.459 52.4761C115.977 52.4818 126.501 52.6174 137.019 52.414C140.009 52.3575 140.523 53.3126 140.501 56.0368C140.376 71.5343 140.484 87.0319 140.388 102.529C140.376 104.801 140.885 105.57 143.304 105.553C160.022 105.44 176.741 105.485 193.459 105.474V105.48Z" fill="#26C4F0"/>
</svg>
