<?xml version="1.0" encoding="UTF-8"?>
<svg version="1.1" xmlns="http://www.w3.org/2000/svg" width="499" height="499">
<path d="M0 0 C57.09 0 114.18 0 173 0 C173 8.25 173 16.5 173 25 C181.25 25 189.5 25 198 25 C198 33.25 198 41.5 198 50 C206.25 50 214.5 50 223 50 C223 57.92 223 65.84 223 74 C230.85342779 73.96041007 230.85342779 73.96041007 238.70678711 73.90991211 C240.16483765 73.90616577 240.16483765 73.90616577 241.65234375 73.90234375 C243.15269165 73.89448853 243.15269165 73.89448853 244.68334961 73.88647461 C247 74 247 74 248 75 C248.09658904 76.91094939 248.12187192 78.82551866 248.12025452 80.73890686 C248.12231651 82.60891106 248.12231651 82.60891106 248.12442017 84.51669312 C248.12088056 85.91094994 248.11724574 87.30520653 248.11352539 88.69946289 C248.11324353 90.15771991 248.11340124 91.61597707 248.1139679 93.07423401 C248.1142559 97.04513485 248.10835877 101.01600575 248.10139394 104.98689961 C248.09516081 109.13225101 248.09455663 113.27760302 248.09336853 117.42295837 C248.09025509 125.27819327 248.08204154 133.13341432 248.07201904 140.98864311 C248.06085829 149.92924399 248.05534755 158.86984552 248.05032361 167.81045163 C248.03985893 186.20697583 248.02205883 204.6034863 248 223 C239.75 223 231.5 223 223 223 C223.01160156 226.52558594 223.02320313 230.05117187 223.03515625 233.68359375 C223.04294563 237.08243723 223.04902307 240.48127974 223.05493164 243.88012695 C223.05997341 246.24992312 223.06680665 248.61971615 223.07543945 250.98950195 C223.0875119 254.38754039 223.09322971 257.78553785 223.09765625 261.18359375 C223.10281754 262.25024765 223.10797882 263.31690155 223.11329651 264.4158783 C223.11340981 265.88729027 223.11340981 265.88729027 223.11352539 267.38842773 C223.115746 268.25668686 223.11796661 269.12494598 223.12025452 270.01951599 C223 272 223 272 222 273 C220.21928754 273.08726223 218.4351686 273.10699041 216.65234375 273.09765625 C215.57275391 273.09443359 214.49316406 273.09121094 213.38085938 273.08789062 C211.67639648 273.07532227 211.67639648 273.07532227 209.9375 273.0625 C208.79732422 273.05798828 207.65714844 273.05347656 206.48242188 273.04882812 C203.65489649 273.03699747 200.8274736 273.0205141 198 273 C198.03552979 273.91587891 198.07105957 274.83175781 198.10766602 275.77539062 C198.23885479 279.25682103 198.36277231 282.73836755 198.48217773 286.22021484 C198.53472021 287.71152692 198.58994985 289.20274736 198.64819336 290.69384766 C199.05709983 301.22585613 198.8028454 311.48569881 198 322 C186.12 322.495 186.12 322.495 174 323 C173.67 339.17 173.34 355.34 173 372 C165.08 372 157.16 372 149 372 C149.01160156 375.45339844 149.02320313 378.90679687 149.03515625 382.46484375 C149.04294569 385.79418852 149.04902309 389.12353229 149.05493164 392.45288086 C149.05997333 394.77417451 149.06680651 397.09546497 149.07543945 399.41674805 C149.08751225 402.74528795 149.09322979 406.07378602 149.09765625 409.40234375 C149.10281754 410.44712387 149.10797882 411.49190399 149.11329651 412.56834412 C149.11337204 413.52926468 149.11344757 414.49018524 149.11352539 415.48022461 C149.115746 416.33071884 149.11796661 417.18121307 149.12025452 418.05747986 C149 420 149 420 148 421 C146.21928754 421.08726223 144.4351686 421.10699041 142.65234375 421.09765625 C141.68031006 421.09515869 140.70827637 421.09266113 139.70678711 421.09008789 C138.46292236 421.08098389 137.21905762 421.07187988 135.9375 421.0625 C131.998125 421.041875 128.05875 421.02125 124 421 C124 429.25 124 437.5 124 446 C115.75 446 107.5 446 99 446 C99 454.25 99 462.5 99 471 C90.75 471 82.5 471 74 471 C74 462.75 74 454.5 74 446 C65.75 446 57.5 446 49 446 C49 437.75 49 429.5 49 421 C41.08 421 33.16 421 25 421 C24.3377682 414.37768205 23.85980471 408.09781575 23.90234375 401.4921875 C23.9037587 400.64069122 23.90517365 399.78919495 23.90663147 398.91189575 C23.91216081 396.23289241 23.92469926 393.55397743 23.9375 390.875 C23.94252416 389.04166789 23.94708545 387.20833444 23.95117188 385.375 C23.96124962 380.9166065 23.98083782 376.45840037 24 372 C16.08 372 8.16 372 0 372 C0 355.5 0 339 0 322 C-8.25 322 -16.5 322 -25 322 C-25 305.83 -25 289.66 -25 273 C-32.92 273 -40.84 273 -49 273 C-50 272 -50 272 -50.12025452 270.01951599 C-50.11803391 269.15125687 -50.11581329 268.28299774 -50.11352539 267.38842773 C-50.11344986 266.40748642 -50.11337433 265.4265451 -50.11329651 264.4158783 C-50.10813522 263.3492244 -50.10297394 262.2825705 -50.09765625 261.18359375 C-50.0962413 260.0974025 -50.09482635 259.01121124 -50.09336853 257.8921051 C-50.08775048 254.40720925 -50.07519492 250.92237658 -50.0625 247.4375 C-50.05748733 245.08138113 -50.05292402 242.72526126 -50.04882812 240.36914062 C-50.03862411 234.57938289 -50.01905224 228.78976255 -50 223 C-57.92 223 -65.84 223 -74 223 C-75.12504285 211.74957147 -75.12504285 211.74957147 -75.12698364 206.56517029 C-75.12980347 205.39171555 -75.13262329 204.2182608 -75.13552856 203.00924683 C-75.13350433 201.75636871 -75.1314801 200.5034906 -75.12939453 199.21264648 C-75.13075242 197.85320489 -75.13253452 196.49376366 -75.13470459 195.13432312 C-75.13922894 191.47379855 -75.13751115 187.81330244 -75.1343255 184.15277743 C-75.13178058 180.31490936 -75.13414493 176.47704359 -75.13571167 172.63917542 C-75.13752518 166.20630457 -75.13514651 159.77344526 -75.13037109 153.34057617 C-75.12490919 145.8968182 -75.12670833 138.45308754 -75.1321975 131.00933021 C-75.13672718 124.61086208 -75.13738053 118.21240218 -75.13475883 111.81393296 C-75.13319793 107.994989 -75.13299763 104.17605792 -75.13629532 100.35711479 C-75.13917261 96.77592109 -75.13720103 93.19476292 -75.13140106 89.61357307 C-75.12943812 87.66604792 -75.13242712 85.71851977 -75.13552856 83.77099609 C-75.13129883 82.04888161 -75.13129883 82.04888161 -75.12698364 80.29197693 C-75.12660662 79.28822745 -75.12622959 78.28447798 -75.12584114 77.25031185 C-75 75 -75 75 -74 74 C-72.21928754 73.91273777 -70.4351686 73.89300959 -68.65234375 73.90234375 C-67.68031006 73.90484131 -66.70827637 73.90733887 -65.70678711 73.90991211 C-63.84098999 73.92356812 -63.84098999 73.92356812 -61.9375 73.9375 C-57.998125 73.958125 -54.05875 73.97875 -50 74 C-50 66.08 -50 58.16 -50 50 C-41.75 50 -33.5 50 -25 50 C-25 41.75 -25 33.5 -25 25 C-16.75 25 -8.5 25 0 25 C0 16.75 0 8.5 0 0 Z M50 89 C50 97.25 50 105.5 50 114 C41.75 114 33.5 114 25 114 C25 138.42 25 162.84 25 188 C33.25 188 41.5 188 50 188 C50 196.25 50 204.5 50 213 C74.09 213 98.18 213 123 213 C123.33 205.08 123.66 197.16 124 189 C131.92 188.67 139.84 188.34 148 188 C148 163.58 148 139.16 148 114 C140.08 113.67 132.16 113.34 124 113 C123.67 105.08 123.34 97.16 123 89 C98.91 89 74.82 89 50 89 Z " fill="#FC0000" transform="translate(163,14)"/>
<path d="M0 0 C57.09 0 114.18 0 173 0 C173 8.25 173 16.5 173 25 C181.25 25 189.5 25 198 25 C198 33.25 198 41.5 198 50 C206.25 50 214.5 50 223 50 C223 57.92 223 65.84 223 74 C230.85342779 73.96041007 230.85342779 73.96041007 238.70678711 73.90991211 C240.16483765 73.90616577 240.16483765 73.90616577 241.65234375 73.90234375 C243.15269165 73.89448853 243.15269165 73.89448853 244.68334961 73.88647461 C247 74 247 74 248 75 C248.09658904 76.91094939 248.12187192 78.82551866 248.12025452 80.73890686 C248.12231651 82.60891106 248.12231651 82.60891106 248.12442017 84.51669312 C248.12088056 85.91094994 248.11724574 87.30520653 248.11352539 88.69946289 C248.11324353 90.15771991 248.11340124 91.61597707 248.1139679 93.07423401 C248.1142559 97.04513485 248.10835877 101.01600575 248.10139394 104.98689961 C248.09516081 109.13225101 248.09455663 113.27760302 248.09336853 117.42295837 C248.09025509 125.27819327 248.08204154 133.13341432 248.07201904 140.98864311 C248.06085829 149.92924399 248.05534755 158.86984552 248.05032361 167.81045163 C248.03985893 186.20697583 248.02205883 204.6034863 248 223 C239.75 223 231.5 223 223 223 C223.01160156 226.52558594 223.02320313 230.05117187 223.03515625 233.68359375 C223.04294563 237.08243723 223.04902307 240.48127974 223.05493164 243.88012695 C223.05997341 246.24992312 223.06680665 248.61971615 223.07543945 250.98950195 C223.0875119 254.38754039 223.09322971 257.78553785 223.09765625 261.18359375 C223.10281754 262.25024765 223.10797882 263.31690155 223.11329651 264.4158783 C223.11340981 265.88729027 223.11340981 265.88729027 223.11352539 267.38842773 C223.115746 268.25668686 223.11796661 269.12494598 223.12025452 270.01951599 C223 272 223 272 222 273 C220.21928754 273.08726223 218.4351686 273.10699041 216.65234375 273.09765625 C215.57275391 273.09443359 214.49316406 273.09121094 213.38085938 273.08789062 C211.67639648 273.07532227 211.67639648 273.07532227 209.9375 273.0625 C208.79732422 273.05798828 207.65714844 273.05347656 206.48242188 273.04882812 C203.65489649 273.03699747 200.8274736 273.0205141 198 273 C198.03552979 273.91587891 198.07105957 274.83175781 198.10766602 275.77539062 C198.23885479 279.25682103 198.36277231 282.73836755 198.48217773 286.22021484 C198.53472021 287.71152692 198.58994985 289.20274736 198.64819336 290.69384766 C199.05709983 301.22585613 198.8028454 311.48569881 198 322 C186.12 322.495 186.12 322.495 174 323 C173.67 339.17 173.34 355.34 173 372 C165.08 372 157.16 372 149 372 C149.01160156 375.45339844 149.02320313 378.90679687 149.03515625 382.46484375 C149.04294569 385.79418852 149.04902309 389.12353229 149.05493164 392.45288086 C149.05997333 394.77417451 149.06680651 397.09546497 149.07543945 399.41674805 C149.08751225 402.74528795 149.09322979 406.07378602 149.09765625 409.40234375 C149.10281754 410.44712387 149.10797882 411.49190399 149.11329651 412.56834412 C149.11337204 413.52926468 149.11344757 414.49018524 149.11352539 415.48022461 C149.115746 416.33071884 149.11796661 417.18121307 149.12025452 418.05747986 C149 420 149 420 148 421 C146.21928754 421.08726223 144.4351686 421.10699041 142.65234375 421.09765625 C141.68031006 421.09515869 140.70827637 421.09266113 139.70678711 421.09008789 C138.46292236 421.08098389 137.21905762 421.07187988 135.9375 421.0625 C131.998125 421.041875 128.05875 421.02125 124 421 C124 429.25 124 437.5 124 446 C115.75 446 107.5 446 99 446 C99 454.25 99 462.5 99 471 C90.75 471 82.5 471 74 471 C74 462.75 74 454.5 74 446 C65.75 446 57.5 446 49 446 C49 437.75 49 429.5 49 421 C41.08 421 33.16 421 25 421 C24.3377682 414.37768205 23.85980471 408.09781575 23.90234375 401.4921875 C23.9037587 400.64069122 23.90517365 399.78919495 23.90663147 398.91189575 C23.91216081 396.23289241 23.92469926 393.55397743 23.9375 390.875 C23.94252416 389.04166789 23.94708545 387.20833444 23.95117188 385.375 C23.96124962 380.9166065 23.98083782 376.45840037 24 372 C16.08 372 8.16 372 0 372 C0 355.5 0 339 0 322 C-8.25 322 -16.5 322 -25 322 C-25 305.83 -25 289.66 -25 273 C-32.92 273 -40.84 273 -49 273 C-50 272 -50 272 -50.12025452 270.01951599 C-50.11803391 269.15125687 -50.11581329 268.28299774 -50.11352539 267.38842773 C-50.11344986 266.40748642 -50.11337433 265.4265451 -50.11329651 264.4158783 C-50.10813522 263.3492244 -50.10297394 262.2825705 -50.09765625 261.18359375 C-50.0962413 260.0974025 -50.09482635 259.01121124 -50.09336853 257.8921051 C-50.08775048 254.40720925 -50.07519492 250.92237658 -50.0625 247.4375 C-50.05748733 245.08138113 -50.05292402 242.72526126 -50.04882812 240.36914062 C-50.03862411 234.57938289 -50.01905224 228.78976255 -50 223 C-57.92 223 -65.84 223 -74 223 C-75.12504285 211.74957147 -75.12504285 211.74957147 -75.12698364 206.56517029 C-75.12980347 205.39171555 -75.13262329 204.2182608 -75.13552856 203.00924683 C-75.13350433 201.75636871 -75.1314801 200.5034906 -75.12939453 199.21264648 C-75.13075242 197.85320489 -75.13253452 196.49376366 -75.13470459 195.13432312 C-75.13922894 191.47379855 -75.13751115 187.81330244 -75.1343255 184.15277743 C-75.13178058 180.31490936 -75.13414493 176.47704359 -75.13571167 172.63917542 C-75.13752518 166.20630457 -75.13514651 159.77344526 -75.13037109 153.34057617 C-75.12490919 145.8968182 -75.12670833 138.45308754 -75.1321975 131.00933021 C-75.13672718 124.61086208 -75.13738053 118.21240218 -75.13475883 111.81393296 C-75.13319793 107.994989 -75.13299763 104.17605792 -75.13629532 100.35711479 C-75.13917261 96.77592109 -75.13720103 93.19476292 -75.13140106 89.61357307 C-75.12943812 87.66604792 -75.13242712 85.71851977 -75.13552856 83.77099609 C-75.13129883 82.04888161 -75.13129883 82.04888161 -75.12698364 80.29197693 C-75.12660662 79.28822745 -75.12622959 78.28447798 -75.12584114 77.25031185 C-75 75 -75 75 -74 74 C-72.21928754 73.91273777 -70.4351686 73.89300959 -68.65234375 73.90234375 C-67.68031006 73.90484131 -66.70827637 73.90733887 -65.70678711 73.90991211 C-63.84098999 73.92356812 -63.84098999 73.92356812 -61.9375 73.9375 C-57.998125 73.958125 -54.05875 73.97875 -50 74 C-50 66.08 -50 58.16 -50 50 C-41.75 50 -33.5 50 -25 50 C-25 41.75 -25 33.5 -25 25 C-16.75 25 -8.5 25 0 25 C0 16.75 0 8.5 0 0 Z M0 26 C-0.33 33.92 -0.66 41.84 -1 50 C-8.26 50.33 -15.52 50.66 -23 51 C-23.09087891 53.58134766 -23.09087891 53.58134766 -23.18359375 56.21484375 C-23.26797891 58.4557386 -23.35262791 60.69662353 -23.4375 62.9375 C-23.47681641 64.07380859 -23.51613281 65.21011719 -23.55664062 66.38085938 C-23.59853516 67.46044922 -23.64042969 68.54003906 -23.68359375 69.65234375 C-23.72025146 70.65257568 -23.75690918 71.65280762 -23.79467773 72.68334961 C-24 75 -24 75 -25 76 C-32.59 76.33 -40.18 76.66 -48 77 C-48 124.52 -48 172.04 -48 221 C-40.74 221.33 -33.48 221.66 -26 222 C-25.34 222.33 -24.68 222.66 -24 223 C-23.67 238.84 -23.34 254.68 -23 271 C-15.08 271 -7.16 271 1 271 C1 287.5 1 304 1 321 C8.92 321 16.84 321 25 321 C25 337.83 25 354.66 25 372 C32.92 372 40.84 372 49 372 C49 388.17 49 404.34 49 421 C57.25 421.33 65.5 421.66 74 422 C74.4375 432.9375 74.4375 432.9375 74.56811523 436.39038086 C74.60622314 437.28120361 74.64433105 438.17202637 74.68359375 439.08984375 C74.72025146 440.00628662 74.75690918 440.92272949 74.79467773 441.86694336 C74.77003864 443.9820728 74.77003864 443.9820728 76 445 C77.37999937 445.09865116 78.76491799 445.13079023 80.1484375 445.1328125 C80.98890625 445.13410156 81.829375 445.13539063 82.6953125 445.13671875 C83.57960937 445.13285156 84.46390625 445.12898438 85.375 445.125 C86.2515625 445.12886719 87.128125 445.13273437 88.03125 445.13671875 C88.87429687 445.13542969 89.71734375 445.13414062 90.5859375 445.1328125 C91.74681885 445.13112061 91.74681885 445.13112061 92.93115234 445.12939453 C95.19826574 445.07635147 95.19826574 445.07635147 98 444 C98.33 436.08 98.66 428.16 99 420 C110.4375 420.0625 110.4375 420.0625 114.04858398 420.09008789 C114.98001221 420.09258545 115.91144043 420.09508301 116.87109375 420.09765625 C117.82943115 420.10289307 118.78776855 420.10812988 119.77514648 420.11352539 C121.97285339 420.2505313 121.97285339 420.2505313 123 419 C123.16261498 415.95092085 123.26061227 412.92282256 123.31640625 409.87109375 C123.33723267 408.91392456 123.35805908 407.95675537 123.3795166 406.97058105 C123.44626502 403.79297471 123.50482854 400.61528324 123.5625 397.4375 C123.59426834 395.81704269 123.59426834 395.81704269 123.62667847 394.16384888 C124.09500492 370.10942313 124.10521171 346.05787041 124 322 C124.72179443 322.00523682 125.44358887 322.01047363 126.18725586 322.01586914 C129.43732849 322.03657358 132.68738728 322.04963918 135.9375 322.0625 C137.07380859 322.07087891 138.21011719 322.07925781 139.38085938 322.08789062 C140.46044922 322.09111328 141.54003906 322.09433594 142.65234375 322.09765625 C143.65257568 322.10289307 144.65280762 322.10812988 145.68334961 322.11352539 C147.96207228 322.26181095 147.96207228 322.26181095 149 321 C149.09311889 319.49581261 149.11746028 317.98728644 149.11352539 316.48022461 C149.11344986 315.51930405 149.11337433 314.55838348 149.11329651 313.56834412 C149.10813522 312.523564 149.10297394 311.47878387 149.09765625 310.40234375 C149.0962413 309.33834854 149.09482635 308.27435333 149.09336853 307.17811584 C149.08775064 303.76454917 149.07519511 300.351047 149.0625 296.9375 C149.05748731 294.62955824 149.052924 292.32161545 149.04882812 290.01367188 C149.0377754 284.34242574 149.02101987 278.67121747 149 273 C150.24136719 272.93941406 151.48273438 272.87882813 152.76171875 272.81640625 C154.40365577 272.73196377 156.04558232 272.64731764 157.6875 272.5625 C158.50412109 272.52318359 159.32074219 272.48386719 160.16210938 272.44335938 C164.19655811 272.23101997 168.05747309 271.95552078 172 271 C173.29666891 266.06009526 173.12624049 261.17162871 173.09765625 256.10546875 C173.0962413 255.15811356 173.09482635 254.21075836 173.09336853 253.23469543 C173.08778611 250.21893105 173.07523682 247.20324182 173.0625 244.1875 C173.05748273 242.13867295 173.05292022 240.08984473 173.04882812 238.04101562 C173.03782243 233.02731494 173.02056988 228.0136702 173 223 C173.98395752 223.01571045 173.98395752 223.01571045 174.98779297 223.03173828 C177.95015658 223.07322503 180.91245916 223.09930262 183.875 223.125 C185.42380859 223.15013672 185.42380859 223.15013672 187.00390625 223.17578125 C187.99003906 223.18222656 188.97617187 223.18867188 189.9921875 223.1953125 C190.90339355 223.20578613 191.81459961 223.21625977 192.75341797 223.22705078 C195.20290436 223.21870993 195.20290436 223.21870993 197 221 C197.30219442 218.4129027 197.30219442 218.4129027 197.24723816 215.34411621 C197.25143265 214.14103317 197.25562714 212.93795013 197.25994873 211.69841003 C197.25446486 210.35818401 197.24878186 209.0179588 197.24291992 207.67773438 C197.2439924 206.27183443 197.24593057 204.86593491 197.24867249 203.46003723 C197.25352949 199.63571973 197.24585452 195.81151849 197.23571944 191.98721504 C197.22695259 187.99094901 197.22869612 183.99468677 197.2290802 179.99841309 C197.22814292 173.28651986 197.21945043 166.57467177 197.20581055 159.86279297 C197.19008435 152.09543836 197.18481241 144.32813321 197.1855461 136.56076384 C197.18615586 129.09847036 197.18105519 121.63619304 197.17275429 114.17390442 C197.1692177 110.99371718 197.1673905 107.81353567 197.16686058 104.63334656 C197.16585811 100.89055754 197.15976932 97.14781027 197.14969444 93.40503502 C197.14676661 92.02875207 197.14554464 90.65246431 197.14612198 89.27617836 C197.14661058 87.40274233 197.14035414 85.52930811 197.13371277 83.65588379 C197.13203692 82.60579384 197.13036108 81.55570389 197.12863445 80.47379303 C197.16528207 77.99709434 197.16528207 77.99709434 196 76 C185.11 75.505 185.11 75.505 174 75 C173.34 59.16 172.68 43.32 172 27 C151.83699586 26.14352828 151.83699586 26.14352828 131.68945312 25.88647461 C130.22780357 25.88675839 128.76615387 25.88659505 127.30450439 25.8860321 C123.43000287 25.88575156 119.55553393 25.89152464 115.68103981 25.89860606 C111.59721681 25.90496664 107.51339262 25.90545323 103.42956543 25.90663147 C95.7380096 25.90970808 88.04646841 25.91787061 80.35491896 25.92798096 C71.58064988 25.93925785 62.80638 25.94468136 54.03210545 25.94967639 C36.02139517 25.96005742 18.01069932 25.9777913 0 26 Z " fill="#CA0101" transform="translate(163,14)"/>
<path d="M0 0 C57.09 0 114.18 0 173 0 C173 8.25 173 16.5 173 25 C181.25 25 189.5 25 198 25 C198 33.25 198 41.5 198 50 C206.25 50 214.5 50 223 50 C223 57.92 223 65.84 223 74 C214.75 74 206.5 74 198 74 C197.67 66.08 197.34 58.16 197 50 C188.75 50 180.5 50 172 50 C172 42.41 172 34.82 172 27 C115.24 26.67 58.48 26.34 0 26 C0 33.92 0 41.84 0 50 C-1 51 -1 51 -3.13305664 51.11352539 C-4.50772095 51.10567017 -4.50772095 51.10567017 -5.91015625 51.09765625 C-6.89951172 51.09443359 -7.88886719 51.09121094 -8.90820312 51.08789062 C-9.94912109 51.07951172 -10.99003906 51.07113281 -12.0625 51.0625 C-13.10728516 51.05798828 -14.15207031 51.05347656 -15.22851562 51.04882812 C-17.8190666 51.03699913 -20.40950559 51.02051689 -23 51 C-22.98428955 52.07483643 -22.98428955 52.07483643 -22.96826172 53.17138672 C-22.92678701 56.40588905 -22.90070108 59.64033553 -22.875 62.875 C-22.85824219 64.00292969 -22.84148437 65.13085938 -22.82421875 66.29296875 C-22.81455078 67.90751953 -22.81455078 67.90751953 -22.8046875 69.5546875 C-22.78897705 71.04718018 -22.78897705 71.04718018 -22.77294922 72.56982422 C-23 75 -23 75 -25 77 C-32.59 77 -40.18 77 -48 77 C-48 124.52 -48 172.04 -48 221 C-40.74 221 -33.48 221 -26 221 C-25.01 221.66 -24.02 222.32 -23 223 C-22.63923645 225.06277466 -22.63923645 225.06277466 -22.65942383 227.63330078 C-22.65976372 229.07456833 -22.65976372 229.07456833 -22.66011047 230.54495239 C-22.67559433 231.58457123 -22.69107819 232.62419006 -22.70703125 233.6953125 C-22.71127609 234.75789276 -22.71552094 235.82047302 -22.71989441 236.91525269 C-22.73672611 240.31875646 -22.77438697 243.72167433 -22.8125 247.125 C-22.82754101 249.42837688 -22.84123042 251.73176302 -22.85351562 254.03515625 C-22.88409614 259.69051307 -22.94281055 265.34459852 -23 271 C-15.08 271 -7.16 271 1 271 C1 287.5 1 304 1 321 C8.92 321 16.84 321 25 321 C25 337.83 25 354.66 25 372 C32.92 372 40.84 372 49 372 C49 388.17 49 404.34 49 421 C41.08 421 33.16 421 25 421 C24.3377682 414.37768205 23.85980471 408.09781575 23.90234375 401.4921875 C23.9037587 400.64069122 23.90517365 399.78919495 23.90663147 398.91189575 C23.91216081 396.23289241 23.92469926 393.55397743 23.9375 390.875 C23.94252416 389.04166789 23.94708545 387.20833444 23.95117188 385.375 C23.96124962 380.9166065 23.98083782 376.45840037 24 372 C16.08 372 8.16 372 0 372 C0 355.5 0 339 0 322 C-8.25 322 -16.5 322 -25 322 C-25 305.83 -25 289.66 -25 273 C-32.92 273 -40.84 273 -49 273 C-50 272 -50 272 -50.12025452 270.01951599 C-50.11803391 269.15125687 -50.11581329 268.28299774 -50.11352539 267.38842773 C-50.11344986 266.40748642 -50.11337433 265.4265451 -50.11329651 264.4158783 C-50.10813522 263.3492244 -50.10297394 262.2825705 -50.09765625 261.18359375 C-50.0962413 260.0974025 -50.09482635 259.01121124 -50.09336853 257.8921051 C-50.08775048 254.40720925 -50.07519492 250.92237658 -50.0625 247.4375 C-50.05748733 245.08138113 -50.05292402 242.72526126 -50.04882812 240.36914062 C-50.03862411 234.57938289 -50.01905224 228.78976255 -50 223 C-57.92 223 -65.84 223 -74 223 C-75.12504285 211.74957147 -75.12504285 211.74957147 -75.12698364 206.56517029 C-75.12980347 205.39171555 -75.13262329 204.2182608 -75.13552856 203.00924683 C-75.13350433 201.75636871 -75.1314801 200.5034906 -75.12939453 199.21264648 C-75.13075242 197.85320489 -75.13253452 196.49376366 -75.13470459 195.13432312 C-75.13922894 191.47379855 -75.13751115 187.81330244 -75.1343255 184.15277743 C-75.13178058 180.31490936 -75.13414493 176.47704359 -75.13571167 172.63917542 C-75.13752518 166.20630457 -75.13514651 159.77344526 -75.13037109 153.34057617 C-75.12490919 145.8968182 -75.12670833 138.45308754 -75.1321975 131.00933021 C-75.13672718 124.61086208 -75.13738053 118.21240218 -75.13475883 111.81393296 C-75.13319793 107.994989 -75.13299763 104.17605792 -75.13629532 100.35711479 C-75.13917261 96.77592109 -75.13720103 93.19476292 -75.13140106 89.61357307 C-75.12943812 87.66604792 -75.13242712 85.71851977 -75.13552856 83.77099609 C-75.13129883 82.04888161 -75.13129883 82.04888161 -75.12698364 80.29197693 C-75.12660662 79.28822745 -75.12622959 78.28447798 -75.12584114 77.25031185 C-75 75 -75 75 -74 74 C-72.21928754 73.91273777 -70.4351686 73.89300959 -68.65234375 73.90234375 C-67.68031006 73.90484131 -66.70827637 73.90733887 -65.70678711 73.90991211 C-63.84098999 73.92356812 -63.84098999 73.92356812 -61.9375 73.9375 C-57.998125 73.958125 -54.05875 73.97875 -50 74 C-50 66.08 -50 58.16 -50 50 C-41.75 50 -33.5 50 -25 50 C-25 41.75 -25 33.5 -25 25 C-16.75 25 -8.5 25 0 25 C0 16.75 0 8.5 0 0 Z " fill="#521E0A" transform="translate(163,14)"/>
<path d="M0 0 C9.4489342 -0.02259014 18.89785048 -0.04093781 28.34680557 -0.05181217 C32.73430637 -0.05703125 37.12178773 -0.06411124 41.50927734 -0.07543945 C45.74325502 -0.08630293 49.977214 -0.0922842 54.21120453 -0.09487724 C55.82673181 -0.09672524 57.44225807 -0.10033388 59.0577774 -0.10573006 C61.3201163 -0.11298637 63.5823779 -0.113989 65.84472656 -0.11352539 C67.13268127 -0.115746 68.42063599 -0.11796661 69.74761963 -0.12025452 C73 0 73 0 77 1 C77.495 12.385 77.495 12.385 78 24 C84.82084078 24.2890278 84.82084078 24.2890278 91.64208984 24.56811523 C92.48980957 24.60622314 93.3375293 24.64433105 94.2109375 24.68359375 C95.08024902 24.72025146 95.94956055 24.75690918 96.84521484 24.79467773 C99 25 99 25 101 26 C101 33.92 101 41.84 101 50 C108.85342779 49.96041007 108.85342779 49.96041007 116.70678711 49.90991211 C118.16483765 49.90616577 118.16483765 49.90616577 119.65234375 49.90234375 C121.15269165 49.89448853 121.15269165 49.89448853 122.68334961 49.88647461 C125 50 125 50 126 51 C126.09971155 53.29511496 126.12799866 55.59334549 126.12939453 57.890625 C126.13202301 58.97108093 126.13202301 58.97108093 126.13470459 60.07336426 C126.13912288 62.46560034 126.13618521 64.8577631 126.1328125 67.25 C126.13348555 68.90527358 126.13445558 70.56054707 126.13571167 72.21582031 C126.13718861 75.68946267 126.13503421 79.16307937 126.13037109 82.63671875 C126.1246738 87.09932498 126.12795283 91.56187108 126.13394356 96.0244751 C126.13754927 99.4438523 126.13641054 102.86321515 126.13381577 106.28259277 C126.13314652 107.92850756 126.13397482 109.57442363 126.13629532 111.22033691 C126.13882202 113.51671831 126.13498103 115.81300099 126.12939453 118.109375 C126.12859894 119.41874023 126.12780334 120.72810547 126.12698364 122.07714844 C126 125 126 125 125 126 C123.29227642 126.08713831 121.58101351 126.10700007 119.87109375 126.09765625 C118.31938477 126.09282227 118.31938477 126.09282227 116.73632812 126.08789062 C115.64771484 126.07951172 114.55910156 126.07113281 113.4375 126.0625 C111.7987793 126.05573242 111.7987793 126.05573242 110.12695312 126.04882812 C107.41791505 126.03699826 104.70898401 126.02051543 102 126 C101.96241577 127.0372522 101.96241577 127.0372522 101.92407227 128.09545898 C101.80847839 131.20967866 101.68558758 134.32356789 101.5625 137.4375 C101.52318359 138.52611328 101.48386719 139.61472656 101.44335938 140.73632812 C101.38051758 142.28803711 101.38051758 142.28803711 101.31640625 143.87109375 C101.26141968 145.30859985 101.26141968 145.30859985 101.20532227 146.77514648 C101 149 101 149 100 150 C98.21928754 150.08726223 96.4351686 150.10699041 94.65234375 150.09765625 C93.68031006 150.09515869 92.70827637 150.09266113 91.70678711 150.09008789 C89.84098999 150.07643188 89.84098999 150.07643188 87.9375 150.0625 C83.998125 150.041875 80.05875 150.02125 76 150 C76 158.25 76 166.5 76 175 C51.58 175 27.16 175 2 175 C1.505 162.13 1.505 162.13 1 149 C-6.92 149 -14.84 149 -23 149 C-23 141.08 -23 133.16 -23 125 C-31.91 125 -40.82 125 -50 125 C-50 99.92 -50 74.84 -50 49 C-41 47.875 -41 47.875 -37.5 48.12109375 C-36.8296875 48.16419678 -36.159375 48.2072998 -35.46875 48.25170898 C-34.24671875 48.34367554 -34.24671875 48.34367554 -33 48.4375 C-30.36 48.623125 -27.72 48.80875 -25 49 C-25 41.08 -25 33.16 -25 25 C-16.75 25 -8.5 25 0 25 C0 16.75 0 8.5 0 0 Z M2 26 C2 34.25 2 42.5 2 51 C-6.25 51 -14.5 51 -23 51 C-23 75.42 -23 99.84 -23 125 C-14.75 125 -6.5 125 2 125 C2 133.25 2 141.5 2 150 C26.09 150 50.18 150 75 150 C75.33 142.08 75.66 134.16 76 126 C83.92 125.67 91.84 125.34 100 125 C100 100.58 100 76.16 100 51 C92.08 50.67 84.16 50.34 76 50 C75.67 42.08 75.34 34.16 75 26 C50.91 26 26.82 26 2 26 Z " fill="#4C1C09" transform="translate(211,77)"/>
<path d="M0 0 C8.25 0 16.5 0 25 0 C25 7.92 25 15.84 25 24 C17.08 24.33 9.16 24.66 1 25 C0.67 73.84 0.34 122.68 0 173 C-7.92 173 -15.84 173 -24 173 C-25.12504285 161.74957147 -25.12504285 161.74957147 -25.12698364 156.56517029 C-25.12980347 155.39171555 -25.13262329 154.2182608 -25.13552856 153.00924683 C-25.13350433 151.75636871 -25.1314801 150.5034906 -25.12939453 149.21264648 C-25.13075242 147.85320489 -25.13253452 146.49376366 -25.13470459 145.13432312 C-25.13922894 141.47379855 -25.13751115 137.81330244 -25.1343255 134.15277743 C-25.13178058 130.31490936 -25.13414493 126.47704359 -25.13571167 122.63917542 C-25.13752518 116.20630457 -25.13514651 109.77344526 -25.13037109 103.34057617 C-25.12490919 95.8968182 -25.12670833 88.45308754 -25.1321975 81.00933021 C-25.13672718 74.61086208 -25.13738053 68.21240218 -25.13475883 61.81393296 C-25.13319793 57.994989 -25.13299763 54.17605792 -25.13629532 50.35711479 C-25.13917261 46.77592109 -25.13720103 43.19476292 -25.13140106 39.61357307 C-25.12943812 37.66604792 -25.13242712 35.71851977 -25.13552856 33.77099609 C-25.13129883 32.04888161 -25.13129883 32.04888161 -25.12698364 30.29197693 C-25.12660662 29.28822745 -25.12622959 28.28447798 -25.12584114 27.25031185 C-25 25 -25 25 -24 24 C-22.21928754 23.91273777 -20.4351686 23.89300959 -18.65234375 23.90234375 C-17.68031006 23.90484131 -16.70827637 23.90733887 -15.70678711 23.90991211 C-13.84098999 23.92356812 -13.84098999 23.92356812 -11.9375 23.9375 C-7.998125 23.958125 -4.05875 23.97875 0 24 C0 16.08 0 8.16 0 0 Z " fill="#412009" transform="translate(113,64)"/>
<path d="M0 0 C0.0252689 6.81761894 0.04283244 13.63522589 0.05493164 20.45288086 C0.05997333 22.77417451 0.06680651 25.09546497 0.07543945 27.41674805 C0.08751225 30.74528795 0.09322979 34.07378602 0.09765625 37.40234375 C0.10281754 38.44712387 0.10797882 39.49190399 0.11329651 40.56834412 C0.11337204 41.52926468 0.11344757 42.49018524 0.11352539 43.48022461 C0.115746 44.33071884 0.11796661 45.18121307 0.12025452 46.05747986 C0 48 0 48 -1 49 C-2.78071246 49.08726223 -4.5648314 49.10699041 -6.34765625 49.09765625 C-7.42724609 49.09443359 -8.50683594 49.09121094 -9.61914062 49.08789062 C-10.75544922 49.07951172 -11.89175781 49.07113281 -13.0625 49.0625 C-14.20267578 49.05798828 -15.34285156 49.05347656 -16.51757812 49.04882812 C-19.34510351 49.03699747 -22.1725264 49.0205141 -25 49 C-24.94670532 50.37381836 -24.94670532 50.37381836 -24.89233398 51.77539062 C-24.76114521 55.25682103 -24.63722769 58.73836755 -24.51782227 62.22021484 C-24.46527979 63.71152692 -24.41005015 65.20274736 -24.35180664 66.69384766 C-23.94290017 77.22585613 -24.1971546 87.48569881 -25 98 C-32.92 98.33 -40.84 98.66 -49 99 C-49.33 114.84 -49.66 130.68 -50 147 C-57.92 147 -65.84 147 -74 147 C-74 130.83 -74 114.66 -74 98 C-66.08 98 -58.16 98 -50 98 C-50 81.17 -50 64.34 -50 47 C-42.41 47 -34.82 47 -27 47 C-26.93941406 43.69097656 -26.87882812 40.38195312 -26.81640625 36.97265625 C-26.7546706 33.78228341 -26.69126067 30.59194797 -26.62768555 27.40161133 C-26.58426412 25.17736104 -26.54259455 22.95307585 -26.50268555 20.72875977 C-26.44515694 17.53911805 -26.38141316 14.3496532 -26.31640625 11.16015625 C-26.29969376 10.15912369 -26.28298126 9.15809113 -26.26576233 8.12672424 C-26.24581711 7.20584518 -26.22587189 6.28496613 -26.20532227 5.33618164 C-26.18977798 4.52121719 -26.1742337 3.70625275 -26.15821838 2.86659241 C-26 1 -26 1 -25 0 C-21.20054187 -0.38320261 -17.37735217 -0.47012839 -13.5625 -0.625 C-12.48677734 -0.6765625 -11.41105469 -0.728125 -10.30273438 -0.78125 C-9.27599609 -0.82507813 -8.24925781 -0.86890625 -7.19140625 -0.9140625 C-6.24467041 -0.9548291 -5.29793457 -0.9955957 -4.32250977 -1.03759766 C-2 -1 -2 -1 0 0 Z " fill="#42200B" transform="translate(386,238)"/>
<path d="M0 0 C7.92 0 15.84 0 24 0 C25 1 25 1 25.12304783 3.43441868 C25.12212604 4.52489978 25.12120424 5.61538088 25.12025452 6.73890686 C25.12162918 7.98557632 25.12300385 9.23224579 25.12442017 10.51669312 C25.12088056 11.91094994 25.11724574 13.30520653 25.11352539 14.69946289 C25.11324353 16.15771991 25.11340124 17.61597707 25.1139679 19.07423401 C25.1142559 23.04513485 25.10835877 27.01600575 25.10139394 30.98689961 C25.09516081 35.13225101 25.09455663 39.27760302 25.09336853 43.42295837 C25.09025509 51.27819327 25.08204154 59.13341432 25.07201904 66.98864311 C25.06085829 75.92924399 25.05534755 84.86984552 25.05032361 93.81045163 C25.03985893 112.20697583 25.02205883 130.6034863 25 149 C16.75 149 8.5 149 0 149 C0 99.83 0 50.66 0 0 Z " fill="#41200B" transform="translate(386,88)"/>
<path d="M0 0 C8.25 0 16.5 0 25 0 C25 16.17 25 32.34 25 49 C17.08 49 9.16 49 1 49 C1 57.25 1 65.5 1 74 C-7.25 74 -15.5 74 -24 74 C-24 82.25 -24 90.5 -24 99 C-32.25 99 -40.5 99 -49 99 C-49 90.75 -49 82.5 -49 74 C-57.25 74 -65.5 74 -74 74 C-74 65.75 -74 57.5 -74 49 C-67.8434375 48.9690625 -67.8434375 48.9690625 -61.5625 48.9375 C-59.61839233 48.92384399 -59.61839233 48.92384399 -57.63500977 48.90991211 C-56.11605103 48.90616577 -56.11605103 48.90616577 -54.56640625 48.90234375 C-53.52427979 48.89710693 -52.48215332 48.89187012 -51.40844727 48.88647461 C-49 49 -49 49 -48 50 C-47.84285346 51.63256758 -47.74914586 53.27135338 -47.68359375 54.91015625 C-47.62643188 56.24639038 -47.62643188 56.24639038 -47.56811523 57.60961914 C-47.52501221 58.74906982 -47.48190918 59.88852051 -47.4375 61.0625 C-47.293125 64.671875 -47.14875 68.28125 -47 72 C-39.74 72 -32.48 72 -25 72 C-25.03949815 65.2239586 -25.03949815 65.2239586 -25.09008789 58.44799805 C-25.09258545 57.60277588 -25.09508301 56.75755371 -25.09765625 55.88671875 C-25.10289307 55.02264404 -25.10812988 54.15856934 -25.11352539 53.26831055 C-25 51 -25 51 -24 48 C-12.615 47.505 -12.615 47.505 -1 47 C-0.67 31.49 -0.34 15.98 0 0 Z " fill="#451E0B" transform="translate(286,386)"/>
<path d="M0 0 C8.25 0 16.5 0 25 0 C25 8.58 25 17.16 25 26 C17.08 26 9.16 26 1 26 C1 34.25 1 42.5 1 51 C-7.25 51 -15.5 51 -24 51 C-24 67.17 -24 83.34 -24 100 C-32.25 100 -40.5 100 -49 100 C-49 83.5 -49 67 -49 50 C-41.08 50 -33.16 50 -25 50 C-25 41.75 -25 33.5 -25 25 C-16.75 25 -8.5 25 0 25 C0 16.75 0 8.5 0 0 Z " fill="#FD7F7D" transform="translate(177,53)"/>
<path d="M0 0 C8.25 0 16.5 0 25 0 C25 16.5 25 33 25 50 C32.92 50 40.84 50 49 50 C49 66.17 49 82.34 49 99 C41.08 99 33.16 99 25 99 C24.3377682 92.37768205 23.85980471 86.09781575 23.90234375 79.4921875 C23.9037587 78.64069122 23.90517365 77.78919495 23.90663147 76.91189575 C23.91216081 74.23289241 23.92469926 71.55397743 23.9375 68.875 C23.94252416 67.04166789 23.94708545 65.20833444 23.95117188 63.375 C23.96124962 58.9166065 23.98083782 54.45840037 24 50 C16.08 50 8.16 50 0 50 C0 33.5 0 17 0 0 Z " fill="#482613" transform="translate(163,336)"/>
<path d="M0 0 C7.92 0 15.84 0 24 0 C24.33 16.17 24.66 32.34 25 49 C32.92 49.33 40.84 49.66 49 50 C49 66.17 49 82.34 49 99 C40.75 99 32.5 99 24 99 C24 82.83 24 66.66 24 50 C16.08 50 8.16 50 0 50 C0 33.5 0 17 0 0 Z " fill="#40210A" transform="translate(114,237)"/>
<path d="M0 0 C8.25 0 16.5 0 25 0 C25 24.42 25 48.84 25 74 C16.75 74 8.5 74 0 74 C0 49.58 0 25.16 0 0 Z " fill="#421E0A" transform="translate(163,128)"/>
<path d="M0 0 C7.92 0.33 15.84 0.66 24 1 C24 24.76 24 48.52 24 73 C16.08 73 8.16 73 0 73 C0 48.91 0 24.82 0 0 Z " fill="#3F1F0A" transform="translate(311,128)"/>
<path d="M0 0 C8.96193704 -0.02314078 17.92386384 -0.04092397 26.8858242 -0.05181217 C31.04694039 -0.05703719 35.20803618 -0.06412795 39.36914062 -0.07543945 C43.38265815 -0.08628184 47.39615601 -0.09227972 51.40968704 -0.09487724 C52.94313491 -0.09672905 54.47658168 -0.100345 56.01002121 -0.10573006 C58.15302632 -0.1129584 60.29594956 -0.11399018 62.43896484 -0.11352539 C64.27096939 -0.11685631 64.27096939 -0.11685631 66.13998413 -0.12025452 C69 0 69 0 71 1 C71 8.26 71 15.52 71 23 C47.24 23 23.48 23 -1 23 C-0.34 21.68 0.32 20.36 1 19 C0.67 18.34 0.34 17.68 0 17 C-0.07194869 14.11629667 -0.09291708 11.25760336 -0.0625 8.375 C-0.05798828 7.57320313 -0.05347656 6.77140625 -0.04882812 5.9453125 C-0.03703168 3.96350994 -0.01909605 1.98174567 0 0 Z " fill="#3F2009" transform="translate(214,80)"/>
<path d="M0 0 C6.1565625 -0.0309375 6.1565625 -0.0309375 12.4375 -0.0625 C14.38160767 -0.07615601 14.38160767 -0.07615601 16.36499023 -0.09008789 C17.88394897 -0.09383423 17.88394897 -0.09383423 19.43359375 -0.09765625 C20.47572021 -0.10289307 21.51784668 -0.10812988 22.59155273 -0.11352539 C25 0 25 0 26 1 C26.15714654 2.63256758 26.25085414 4.27135338 26.31640625 5.91015625 C26.37356812 7.24639038 26.37356812 7.24639038 26.43188477 8.60961914 C26.47498779 9.74906982 26.51809082 10.88852051 26.5625 12.0625 C26.706875 15.671875 26.85125 19.28125 27 23 C34.26 23 41.52 23 49 23 C49 16.07 49 9.14 49 2 C49.33 2 49.66 2 50 2 C50 9.26 50 16.52 50 24 C57.92 24 65.84 24 74 24 C74 16.08 74 8.16 74 0 C74.33 0 74.66 0 75 0 C75 8.25 75 16.5 75 25 C66.75 25 58.5 25 50 25 C50 33.25 50 41.5 50 50 C41.75 50 33.5 50 25 50 C25 41.75 25 33.5 25 25 C16.75 25 8.5 25 0 25 C0 16.75 0 8.5 0 0 Z " fill="#572F20" transform="translate(212,435)"/>
<path d="M0 0 C0.0252689 6.81761894 0.04283244 13.63522589 0.05493164 20.45288086 C0.05997333 22.77417451 0.06680651 25.09546497 0.07543945 27.41674805 C0.08751225 30.74528795 0.09322979 34.07378602 0.09765625 37.40234375 C0.10281754 38.44712387 0.10797882 39.49190399 0.11329651 40.56834412 C0.11337204 41.52926468 0.11344757 42.49018524 0.11352539 43.48022461 C0.115746 44.33071884 0.11796661 45.18121307 0.12025452 46.05747986 C0 48 0 48 -1 49 C-2.78071246 49.08726223 -4.5648314 49.10699041 -6.34765625 49.09765625 C-7.42724609 49.09443359 -8.50683594 49.09121094 -9.61914062 49.08789062 C-10.75544922 49.07951172 -11.89175781 49.07113281 -13.0625 49.0625 C-14.20267578 49.05798828 -15.34285156 49.05347656 -16.51757812 49.04882812 C-19.34510351 49.03699747 -22.1725264 49.0205141 -25 49 C-24.94670532 50.37381836 -24.94670532 50.37381836 -24.89233398 51.77539062 C-24.76114521 55.25682103 -24.63722769 58.73836755 -24.51782227 62.22021484 C-24.46527979 63.71152692 -24.41005015 65.20274736 -24.35180664 66.69384766 C-23.94370545 77.2051148 -24.14896229 87.51422153 -25 98 C-25.33 98 -25.66 98 -26 98 C-26 81.83 -26 65.66 -26 49 C-33.92 49 -41.84 49 -50 49 C-50 48.34 -50 47.68 -50 47 C-42.41 47 -34.82 47 -27 47 C-26.93941406 43.69097656 -26.87882812 40.38195312 -26.81640625 36.97265625 C-26.7546706 33.78228341 -26.69126067 30.59194797 -26.62768555 27.40161133 C-26.58426412 25.17736104 -26.54259455 22.95307585 -26.50268555 20.72875977 C-26.44515694 17.53911805 -26.38141316 14.3496532 -26.31640625 11.16015625 C-26.29969376 10.15912369 -26.28298126 9.15809113 -26.26576233 8.12672424 C-26.24581711 7.20584518 -26.22587189 6.28496613 -26.20532227 5.33618164 C-26.18977798 4.52121719 -26.1742337 3.70625275 -26.15821838 2.86659241 C-26 1 -26 1 -25 0 C-21.20054187 -0.38320261 -17.37735217 -0.47012839 -13.5625 -0.625 C-12.48677734 -0.6765625 -11.41105469 -0.728125 -10.30273438 -0.78125 C-9.27599609 -0.82507813 -8.24925781 -0.86890625 -7.19140625 -0.9140625 C-6.24467041 -0.9548291 -5.29793457 -0.9955957 -4.32250977 -1.03759766 C-2 -1 -2 -1 0 0 Z " fill="#43220D" transform="translate(386,238)"/>
<path d="M0 0 C8.25 0 16.5 0 25 0 C25 8.25 25 16.5 25 25 C33.25 25 41.5 25 50 25 C50 32.92 50 40.84 50 49 C41.75 49 33.5 49 25 49 C24.505 37.12 24.505 37.12 24 25 C16.08 25 8.16 25 0 25 C0 16.75 0 8.5 0 0 Z " fill="#482814" transform="translate(336,39)"/>
<path d="M0 0 C7.92 0 15.84 0 24 0 C24 16.17 24 32.34 24 49 C16.08 49 8.16 49 0 49 C0 32.83 0 16.66 0 0 Z " fill="#411E0A" transform="translate(114,237)"/>
<path d="M0 0 C7.92 0 15.84 0 24 0 C24 16.17 24 32.34 24 49 C16.08 49 8.16 49 0 49 C0 32.83 0 16.66 0 0 Z " fill="#FD7F81" transform="translate(128,103)"/>
<path d="M0 0 C7.92 0 15.84 0 24 0 C24.02290404 6.67525404 24.04283264 13.3503728 24.05493164 20.02563477 C24.05997325 22.29842591 24.06680637 24.5712138 24.07543945 26.84399414 C24.08751261 30.10303551 24.09322987 33.36203417 24.09765625 36.62109375 C24.10281754 37.64400009 24.10797882 38.66690643 24.11329651 39.72080994 C24.11340981 41.13215965 24.11340981 41.13215965 24.11352539 42.57202148 C24.115746 43.40475082 24.11796661 44.23748016 24.12025452 45.09544373 C24 47 24 47 23 48 C15.41 48 7.82 48 0 48 C0 32.16 0 16.32 0 0 Z " fill="#CA0101" transform="translate(262,386)"/>
<path d="M0 0 C7.59 0 15.18 0 23 0 C23 16.17 23 32.34 23 49 C15.08 49.33 7.16 49.66 -1 50 C-0.67 33.5 -0.34 17 0 0 Z " fill="#CC0001" transform="translate(287,336)"/>
<path d="M0 0 C7.59 0 15.18 0 23 0 C23 15.84 23 31.68 23 48 C11.615 47.505 11.615 47.505 0 47 C0 31.49 0 15.98 0 0 Z " fill="#41200B" transform="translate(189,386)"/>
<path d="M0 0 C8.25 0 16.5 0 25 0 C25 7.92 25 15.84 25 24 C13.1875 24.375 13.1875 24.375 9.47338867 24.47802734 C8.5063501 24.5136377 7.53931152 24.54924805 6.54296875 24.5859375 C5.0583313 24.63306885 5.0583313 24.63306885 3.54370117 24.68115234 C0.75924906 24.83773433 0.75924906 24.83773433 -2 27 C-3.90112305 27.31884766 -3.90112305 27.31884766 -6.01171875 27.4140625 C-6.76904297 27.45273438 -7.52636719 27.49140625 -8.30664062 27.53125 C-9.09232422 27.5621875 -9.87800781 27.593125 -10.6875 27.625 C-11.48478516 27.66367188 -12.28207031 27.70234375 -13.10351562 27.7421875 C-15.06863475 27.83632494 -17.0342854 27.91924632 -19 28 C-20.98316015 31.31982217 -21.25736793 33.84096248 -21.2784729 37.68206787 C-21.28963638 38.84030563 -21.30079987 39.9985434 -21.31230164 41.19187927 C-21.31446182 42.45854935 -21.31662201 43.72521942 -21.31884766 45.03027344 C-21.32814805 46.38060607 -21.33831689 47.73093296 -21.34928894 49.08125305 C-21.37659059 52.74411033 -21.39173879 56.40692914 -21.40471697 60.06986141 C-21.4203468 63.89893442 -21.44713749 67.72792888 -21.4727478 71.5569458 C-21.51953821 78.80643155 -21.55628104 86.05593208 -21.58942068 93.30549169 C-21.62764022 101.55940579 -21.67705081 109.813241 -21.72740483 118.0670886 C-21.83072858 135.04466867 -21.91998753 152.0222944 -22 169 C-19.1549997 170.48782258 -17.11056361 171.26770165 -13.890625 171.4140625 C-12.75947266 171.47207031 -12.75947266 171.47207031 -11.60546875 171.53125 C-10.82816406 171.5621875 -10.05085938 171.593125 -9.25 171.625 C-8.06083984 171.68300781 -8.06083984 171.68300781 -6.84765625 171.7421875 C-4.89880584 171.836108 -2.94943549 171.91912822 -1 172 C-1 172.33 -1 172.66 -1 173 C-8.59 173 -16.18 173 -24 173 C-25.12504285 161.74957147 -25.12504285 161.74957147 -25.12698364 156.56517029 C-25.12980347 155.39171555 -25.13262329 154.2182608 -25.13552856 153.00924683 C-25.13350433 151.75636871 -25.1314801 150.5034906 -25.12939453 149.21264648 C-25.13075242 147.85320489 -25.13253452 146.49376366 -25.13470459 145.13432312 C-25.13922894 141.47379855 -25.13751115 137.81330244 -25.1343255 134.15277743 C-25.13178058 130.31490936 -25.13414493 126.47704359 -25.13571167 122.63917542 C-25.13752518 116.20630457 -25.13514651 109.77344526 -25.13037109 103.34057617 C-25.12490919 95.8968182 -25.12670833 88.45308754 -25.1321975 81.00933021 C-25.13672718 74.61086208 -25.13738053 68.21240218 -25.13475883 61.81393296 C-25.13319793 57.994989 -25.13299763 54.17605792 -25.13629532 50.35711479 C-25.13917261 46.77592109 -25.13720103 43.19476292 -25.13140106 39.61357307 C-25.12943812 37.66604792 -25.13242712 35.71851977 -25.13552856 33.77099609 C-25.13129883 32.04888161 -25.13129883 32.04888161 -25.12698364 30.29197693 C-25.12660662 29.28822745 -25.12622959 28.28447798 -25.12584114 27.25031185 C-25 25 -25 25 -24 24 C-22.21928754 23.91273777 -20.4351686 23.89300959 -18.65234375 23.90234375 C-17.68031006 23.90484131 -16.70827637 23.90733887 -15.70678711 23.90991211 C-13.84098999 23.92356812 -13.84098999 23.92356812 -11.9375 23.9375 C-7.998125 23.958125 -4.05875 23.97875 0 24 C0 16.08 0 8.16 0 0 Z " fill="#421F0B" transform="translate(113,64)"/>
<path d="M0 0 C18.88230398 -0.02328346 37.76460381 -0.04106281 56.64691925 -0.05181217 C65.4169616 -0.05693894 74.18699479 -0.06391146 82.95703125 -0.07543945 C90.61302049 -0.08549815 98.26900309 -0.09187964 105.92499876 -0.09408849 C109.96783491 -0.09537689 114.01065208 -0.09834097 118.05348206 -0.10573006 C136.06737369 -0.13741841 154.00164807 0.09570172 172 1 C172 8.59 172 16.18 172 24 C164.08 24 156.16 24 148 24 C144.70690959 17.41381918 146.36771934 9.35438677 146 2 C74.225 1.505 74.225 1.505 1 1 C1 8.59 1 16.18 1 24 C0.67 24 0.34 24 0 24 C0 16.08 0 8.16 0 0 Z " fill="#D20404" transform="translate(163,40)"/>
<path d="M0 0 C8.25 0 16.5 0 25 0 C25 7.92 25 15.84 25 24 C16.75 24 8.5 24 0 24 C0 16.08 0 8.16 0 0 Z " fill="#412008" transform="translate(188,104)"/>
<path d="M0 0 C8.25 0 16.5 0 25 0 C25 7.92 25 15.84 25 24 C21.060625 24.020625 17.12125 24.04125 13.0625 24.0625 C11.19670288 24.07615601 11.19670288 24.07615601 9.29321289 24.09008789 C8.3211792 24.09258545 7.34914551 24.09508301 6.34765625 24.09765625 C4.84730835 24.10551147 4.84730835 24.10551147 3.31665039 24.11352539 C1 24 1 24 0 23 C-0.08713831 21.29227642 -0.10700007 19.58101351 -0.09765625 17.87109375 C-0.09515869 16.93966553 -0.09266113 16.0082373 -0.09008789 15.04858398 C-0.08098389 13.85692627 -0.07187988 12.66526855 -0.0625 11.4375 C-0.041875 7.663125 -0.02125 3.88875 0 0 Z " fill="#431F09" transform="translate(286,104)"/>
<path d="M0 0 C7.92 0 15.84 0 24 0 C24 7.92 24 15.84 24 24 C16.08 24 8.16 24 0 24 C0 16.08 0 8.16 0 0 Z " fill="#FD7F7F" transform="translate(153,79)"/>
<path d="M0 0 C7.92 0 15.84 0 24 0 C24 7.92 24 15.84 24 24 C16.08 24 8.16 24 0 24 C0 16.08 0 8.16 0 0 Z " fill="#441D0B" transform="translate(139,40)"/>
<path d="M0 0 C8.25 0 16.5 0 25 0 C25.87630759 7.88676831 26.07664396 15.105672 26 23 C17.75 23 9.5 23 1 23 C0.67 15.41 0.34 7.82 0 0 Z " fill="#3F1F0B" transform="translate(360,65)"/>
<path d="M0 0 C1.00023193 0.00523682 2.00046387 0.01047363 3.03100586 0.01586914 C4.1105957 0.0190918 5.19018555 0.02231445 6.30249023 0.02563477 C8.00695312 0.03820312 8.00695312 0.03820312 9.74584961 0.05102539 C11.45611328 0.05779297 11.45611328 0.05779297 13.20092773 0.06469727 C16.02842379 0.07652779 18.85589306 0.09446389 21.68334961 0.11352539 C21.35334961 7.70352539 21.02334961 15.29352539 20.68334961 23.11352539 C16.90897461 23.13415039 13.13459961 23.15477539 9.24584961 23.17602539 C8.05419189 23.18512939 6.86253418 23.1942334 5.63476562 23.20361328 C4.23762329 23.20735962 4.23762329 23.20735962 2.81225586 23.21118164 C1.85391846 23.21641846 0.89558105 23.22165527 -0.09179688 23.22705078 C-2.31665039 23.11352539 -2.31665039 23.11352539 -3.31665039 22.11352539 C-3.41564562 20.5639698 -3.44744563 19.00998866 -3.44946289 17.45727539 C-3.45075195 16.51754883 -3.45204102 15.57782227 -3.45336914 14.60961914 C-3.44950195 13.6209082 -3.44563477 12.63219727 -3.44165039 11.61352539 C-3.44551758 10.62481445 -3.44938477 9.63610352 -3.45336914 8.61743164 C-3.45208008 7.67770508 -3.45079102 6.73797852 -3.44946289 5.76977539 C-3.44833496 4.9015918 -3.44720703 4.0334082 -3.44604492 3.13891602 C-3.25908265 0.21242725 -2.93591088 0.1438717 0 0 Z " fill="#41210C" transform="translate(289.316650390625,201.886474609375)"/>
<path d="M0 0 C3.774375 -0.020625 7.54875 -0.04125 11.4375 -0.0625 C12.62915771 -0.071604 13.82081543 -0.08070801 15.04858398 -0.09008789 C16.44572632 -0.09383423 16.44572632 -0.09383423 17.87109375 -0.09765625 C18.82943115 -0.10289307 19.78776855 -0.10812988 20.77514648 -0.11352539 C23 0 23 0 24 1 C24.08700342 2.63472882 24.10701063 4.27314055 24.09765625 5.91015625 C24.09515869 6.800979 24.09266113 7.69180176 24.09008789 8.60961914 C24.08098389 9.74906982 24.07187988 10.88852051 24.0625 12.0625 C24.041875 15.671875 24.02125 19.28125 24 23 C16.08 23 8.16 23 0 23 C0 15.41 0 7.82 0 0 Z " fill="#411F0C" transform="translate(213,436)"/>
<path d="M0 0 C8.25 0 16.5 0 25 0 C24.67 7.59 24.34 15.18 24 23 C21.20127394 23.93290869 19.48011055 24.12859447 16.5859375 24.1328125 C15.32136719 24.13474609 15.32136719 24.13474609 14.03125 24.13671875 C13.1546875 24.13285156 12.278125 24.12898438 11.375 24.125 C10.49070313 24.12886719 9.60640625 24.13273437 8.6953125 24.13671875 C7.85484375 24.13542969 7.014375 24.13414062 6.1484375 24.1328125 C5.37677246 24.13168457 4.60510742 24.13055664 3.81005859 24.12939453 C2 24 2 24 1 23 C0.84259395 21.29436222 0.74906608 19.58272756 0.68359375 17.87109375 C0.64548584 16.93966553 0.60737793 16.0082373 0.56811523 15.04858398 C0.50346069 13.26109741 0.50346069 13.26109741 0.4375 11.4375 C0.293125 7.663125 0.14875 3.88875 0 0 Z " fill="#C90103" transform="translate(237,435)"/>
<path d="M0 0 C9.4489342 -0.02259014 18.89785048 -0.04093781 28.34680557 -0.05181217 C32.73430637 -0.05703125 37.12178773 -0.06411124 41.50927734 -0.07543945 C45.74325502 -0.08630293 49.977214 -0.0922842 54.21120453 -0.09487724 C55.82673181 -0.09672524 57.44225807 -0.10033388 59.0577774 -0.10573006 C61.3201163 -0.11298637 63.5823779 -0.113989 65.84472656 -0.11352539 C67.13268127 -0.115746 68.42063599 -0.11796661 69.74761963 -0.12025452 C73 0 73 0 77 1 C77.495 12.385 77.495 12.385 78 24 C84.93 24.33 91.86 24.66 99 25 C99 25.33 99 25.66 99 26 C95.18751574 26.02887236 91.3750593 26.04675492 87.5625 26.0625 C86.47388672 26.07087891 85.38527344 26.07925781 84.26367188 26.08789062 C83.22919922 26.09111328 82.19472656 26.09433594 81.12890625 26.09765625 C80.17056885 26.10289307 79.21223145 26.10812988 78.22485352 26.11352539 C76 26 76 26 75 25 C75 17.41 75 9.82 75 2 C50.58 2 26.16 2 1 2 C1 9.92 1 17.84 1 26 C-6.92 26 -14.84 26 -23 26 C-23 34.25 -23 42.5 -23 51 C-31.25 51 -39.5 51 -48 51 C-48 75.42 -48 99.84 -48 125 C-48.66 125 -49.32 125 -50 125 C-50 99.92 -50 74.84 -50 49 C-41 47.875 -41 47.875 -37.5 48.12109375 C-36.8296875 48.16419678 -36.159375 48.2072998 -35.46875 48.25170898 C-34.24671875 48.34367554 -34.24671875 48.34367554 -33 48.4375 C-30.36 48.623125 -27.72 48.80875 -25 49 C-25 41.08 -25 33.16 -25 25 C-16.75 25 -8.5 25 0 25 C0 16.75 0 8.5 0 0 Z " fill="#D4110C" transform="translate(211,77)"/>
<path d="M0 0 C0.33 0 0.66 0 1 0 C1.08676908 4.12486838 1.14031295 8.24950384 1.1875 12.375 C1.21263672 13.550625 1.23777344 14.72625 1.26367188 15.9375 C1.27333984 17.05898437 1.28300781 18.18046875 1.29296875 19.3359375 C1.3086792 20.37282715 1.32438965 21.4097168 1.34057617 22.47802734 C1.22818604 23.31027832 1.1157959 24.1425293 1 25 C-1.96348429 26.9756562 -2.68020373 27.26376859 -6.01171875 27.4140625 C-6.76904297 27.45273438 -7.52636719 27.49140625 -8.30664062 27.53125 C-9.09232422 27.5621875 -9.87800781 27.593125 -10.6875 27.625 C-11.48478516 27.66367188 -12.28207031 27.70234375 -13.10351562 27.7421875 C-15.06863475 27.83632494 -17.0342854 27.91924632 -19 28 C-20.98316015 31.31982217 -21.25736793 33.84096248 -21.2784729 37.68206787 C-21.28963638 38.84030563 -21.30079987 39.9985434 -21.31230164 41.19187927 C-21.31446182 42.45854935 -21.31662201 43.72521942 -21.31884766 45.03027344 C-21.32814805 46.38060607 -21.33831689 47.73093296 -21.34928894 49.08125305 C-21.37659059 52.74411033 -21.39173879 56.40692914 -21.40471697 60.06986141 C-21.4203468 63.89893442 -21.44713749 67.72792888 -21.4727478 71.5569458 C-21.51953821 78.80643155 -21.55628104 86.05593208 -21.58942068 93.30549169 C-21.62764022 101.55940579 -21.67705081 109.813241 -21.72740483 118.0670886 C-21.83072858 135.04466867 -21.91998753 152.0222944 -22 169 C-19.1549997 170.48782258 -17.11056361 171.26770165 -13.890625 171.4140625 C-12.75947266 171.47207031 -12.75947266 171.47207031 -11.60546875 171.53125 C-10.82816406 171.5621875 -10.05085938 171.593125 -9.25 171.625 C-8.06083984 171.68300781 -8.06083984 171.68300781 -6.84765625 171.7421875 C-4.89880584 171.836108 -2.94943549 171.91912822 -1 172 C-1 172.33 -1 172.66 -1 173 C-8.59 173 -16.18 173 -24 173 C-25.12504285 161.74957147 -25.12504285 161.74957147 -25.12698364 156.56517029 C-25.12980347 155.39171555 -25.13262329 154.2182608 -25.13552856 153.00924683 C-25.13350433 151.75636871 -25.1314801 150.5034906 -25.12939453 149.21264648 C-25.13075242 147.85320489 -25.13253452 146.49376366 -25.13470459 145.13432312 C-25.13922894 141.47379855 -25.13751115 137.81330244 -25.1343255 134.15277743 C-25.13178058 130.31490936 -25.13414493 126.47704359 -25.13571167 122.63917542 C-25.13752518 116.20630457 -25.13514651 109.77344526 -25.13037109 103.34057617 C-25.12490919 95.8968182 -25.12670833 88.45308754 -25.1321975 81.00933021 C-25.13672718 74.61086208 -25.13738053 68.21240218 -25.13475883 61.81393296 C-25.13319793 57.994989 -25.13299763 54.17605792 -25.13629532 50.35711479 C-25.13917261 46.77592109 -25.13720103 43.19476292 -25.13140106 39.61357307 C-25.12943812 37.66604792 -25.13242712 35.71851977 -25.13552856 33.77099609 C-25.13129883 32.04888161 -25.13129883 32.04888161 -25.12698364 30.29197693 C-25.12660662 29.28822745 -25.12622959 28.28447798 -25.12584114 27.25031185 C-25 25 -25 25 -24 24 C-22.21928754 23.91273777 -20.4351686 23.89300959 -18.65234375 23.90234375 C-17.68031006 23.90484131 -16.70827637 23.90733887 -15.70678711 23.90991211 C-13.84098999 23.92356812 -13.84098999 23.92356812 -11.9375 23.9375 C-7.998125 23.958125 -4.05875 23.97875 0 24 C0 16.08 0 8.16 0 0 Z " fill="#38261B" transform="translate(113,64)"/>
<path d="M0 0 C57.09 0 114.18 0 173 0 C168.57583778 3.31812167 167.55103686 3.37860548 162.25494385 3.39872742 C161.23913809 3.40869766 161.23913809 3.40869766 160.202811 3.41886932 C157.93485902 3.43751384 155.66743392 3.43489316 153.39941406 3.43237305 C151.77322137 3.44138935 150.1470355 3.45171625 148.52085876 3.46325684 C144.1059293 3.49086851 139.69112864 3.50011699 135.276124 3.50611091 C130.66228174 3.51548374 126.0485361 3.54168623 121.43475342 3.56611633 C112.69778662 3.60981507 103.96083854 3.6383413 95.22379565 3.66143972 C85.27704101 3.68847331 75.3303834 3.73238594 65.38369799 3.77772844 C44.9225175 3.87062303 24.46130796 3.94228172 4 4 C2.88176185 6.23647631 2.80603939 7.64891529 2.68359375 10.1328125 C2.64169922 10.93847656 2.59980469 11.74414062 2.55664062 12.57421875 C2.49766602 13.83685547 2.49766602 13.83685547 2.4375 15.125 C2.39431641 15.97449219 2.35113281 16.82398437 2.30664062 17.69921875 C2.20045764 19.79928223 2.09971503 21.89961948 2 24 C1.34 24.33 0.68 24.66 0 25 C0 16.75 0 8.5 0 0 Z " fill="#746458" transform="translate(163,14)"/>
<path d="M0 0 C0.33 0 0.66 0 1 0 C1 24.75 1 49.5 1 75 C9.25 75 17.5 75 26 75 C27 76 27 76 27.12025452 77.94252014 C27.1169236 79.21826149 27.1169236 79.21826149 27.11352539 80.51977539 C27.11344986 81.48069595 27.11337433 82.44161652 27.11329651 83.43165588 C27.10813522 84.476436 27.10297394 85.52121613 27.09765625 86.59765625 C27.0962413 87.66165146 27.09482635 88.72564667 27.09336853 89.82188416 C27.08775064 93.23545083 27.07519511 96.648953 27.0625 100.0625 C27.05748731 102.37044176 27.052924 104.67838455 27.04882812 106.98632812 C27.03862433 112.65759721 27.01905243 118.32872601 27 124 C34.92 124 42.84 124 51 124 C51 140.5 51 157 51 174 C58.92 174 66.84 174 75 174 C75 174.33 75 174.66 75 175 C66.75 175 58.5 175 50 175 C50 158.83 50 142.66 50 126 C42.08 126 34.16 126 26 126 C25 125 25 125 24.87974548 123.01951599 C24.88196609 122.15125687 24.88418671 121.28299774 24.88647461 120.38842773 C24.88655014 119.40748642 24.88662567 118.4265451 24.88670349 117.4158783 C24.89186478 116.3492244 24.89702606 115.2825705 24.90234375 114.18359375 C24.9037587 113.0974025 24.90517365 112.01121124 24.90663147 110.8921051 C24.91224952 107.40720925 24.92480508 103.92237658 24.9375 100.4375 C24.94251267 98.08138113 24.94707598 95.72526126 24.95117188 93.36914062 C24.96137589 87.57938289 24.98094776 81.78976255 25 76 C17.08 76 9.16 76 1 76 C1 92.17 1 108.34 1 125 C0.67 125 0.34 125 0 125 C0 83.75 0 42.5 0 0 Z " fill="#BB2721" transform="translate(113,161)"/>
<path d="M0 0 C3.81248426 -0.02887236 7.6249407 -0.04675492 11.4375 -0.0625 C12.52611328 -0.07087891 13.61472656 -0.07925781 14.73632812 -0.08789062 C15.77080078 -0.09111328 16.80527344 -0.09433594 17.87109375 -0.09765625 C18.82943115 -0.10289307 19.78776855 -0.10812988 20.77514648 -0.11352539 C23 0 23 0 24 1 C24.0987544 2.89597306 24.12632197 4.79567079 24.12698364 6.69421387 C24.12980347 7.93102402 24.13262329 9.16783417 24.13552856 10.44212341 C24.13358397 11.82534804 24.13153578 13.20857253 24.12939453 14.59179688 C24.13074853 16.03857975 24.13252845 17.48536229 24.13470459 18.93214417 C24.13927909 22.87211762 24.1374893 26.81206502 24.1343255 30.75203896 C24.13180199 34.86622821 24.13413942 38.98041516 24.13571167 43.09460449 C24.13753339 50.00496829 24.13512699 56.91532142 24.13037109 63.82568359 C24.12492847 71.82649767 24.12669112 79.82728627 24.1321975 87.82809973 C24.13672856 94.68498119 24.13737921 101.54185496 24.13475883 108.39873743 C24.13319602 112.49950739 24.13300241 116.60026535 24.13629532 120.70103455 C24.13917393 124.55542639 24.13719853 128.40978524 24.13140106 132.26417351 C24.13007341 133.68280418 24.13046767 135.10143762 24.13266373 136.52006721 C24.13537499 138.44863921 24.13138062 140.37721724 24.12698364 142.30578613 C24.12660662 143.38759407 24.12622959 144.46940201 24.12584114 145.583992 C24 148 24 148 23 149 C21.29227642 149.08713831 19.58101351 149.10700007 17.87109375 149.09765625 C16.31938477 149.09282227 16.31938477 149.09282227 14.73632812 149.08789062 C13.64771484 149.07951172 12.55910156 149.07113281 11.4375 149.0625 C9.7987793 149.05573242 9.7987793 149.05573242 8.12695312 149.04882812 C5.41791505 149.03699826 2.70898401 149.02051543 0 149 C0.00444122 149.58437836 0.00888245 150.16875671 0.01345825 150.77084351 C0.05760762 156.83743858 0.08783134 162.90398823 0.10986328 168.97070312 C0.11993859 171.23667249 0.13359918 173.50262881 0.15087891 175.76855469 C0.17506011 179.02021501 0.18646763 182.27170387 0.1953125 185.5234375 C0.20563507 186.54118256 0.21595764 187.55892761 0.22659302 188.60751343 C0.22674408 189.54833771 0.22689514 190.48916199 0.22705078 191.45849609 C0.231492 192.28900482 0.23593323 193.11951355 0.24050903 193.97518921 C0 196 0 196 -2 198 C-3.83178711 198.30297852 -3.83178711 198.30297852 -6.02734375 198.37890625 C-6.81947266 198.41306641 -7.61160156 198.44722656 -8.42773438 198.48242188 C-9.25595703 198.50884766 -10.08417969 198.53527344 -10.9375 198.5625 C-12.57175659 198.62255478 -14.20588578 198.68621181 -15.83984375 198.75390625 C-16.56550537 198.77783447 -17.29116699 198.8017627 -18.03881836 198.82641602 C-20.21369159 198.94269972 -20.21369159 198.94269972 -23 200 C-23.33 213.86 -23.66 227.72 -24 242 C-26.25028172 237.49943656 -26.25028172 237.49943656 -26.24291992 233.88989258 C-26.24753487 232.69394218 -26.24753487 232.69394218 -26.25224304 231.47383118 C-26.24505753 230.6226622 -26.23787201 229.77149323 -26.23046875 228.89453125 C-26.23001053 228.01472092 -26.22955231 227.13491058 -26.2290802 226.22843933 C-26.22606426 224.37338915 -26.21819767 222.51834135 -26.20581055 220.66333008 C-26.18750046 217.81257239 -26.18530131 214.9621386 -26.18554688 212.11132812 C-26.18063353 210.309893 -26.17480602 208.5084601 -26.16796875 206.70703125 C-26.16685593 205.84978958 -26.1657431 204.99254791 -26.16459656 204.10932922 C-26.11606391 198.11606391 -26.11606391 198.11606391 -25 197 C-17.41 196.67 -9.82 196.34 -2 196 C-1.67 180.16 -1.34 164.32 -1 148 C6.26 147.67 13.52 147.34 21 147 C22.26961958 145.95363902 22.26961958 145.95363902 22.12304783 143.61243343 C22.12212604 142.54407537 22.12120424 141.4757173 22.12025452 140.37498474 C22.12162918 139.15355774 22.12300385 137.93213074 22.12442017 136.6736908 C22.12088056 135.30776953 22.11724574 133.94184852 22.11352539 132.57592773 C22.11324352 131.14722699 22.11340124 129.7185261 22.1139679 128.28982544 C22.11425589 124.39950028 22.10835887 120.50920569 22.10139394 116.61888766 C22.0951607 112.55761795 22.09455663 108.49634761 22.09336853 104.43507385 C22.09025512 96.73921067 22.08204161 89.04336162 22.07201904 81.34750468 C22.06085819 72.58827886 22.05534753 63.82905239 22.05032361 55.06982124 C22.03985901 37.04653925 22.02205896 19.02327127 22 1 C14.74 1 7.48 1 0 1 C0 0.67 0 0.34 0 0 Z " fill="#E20303" transform="translate(337,89)"/>
<path d="M0 0 C7.92 0 15.84 0 24 0 C24 7.92 24 15.84 24 24 C31.92 24 39.84 24 48 24 C51.87871686 31.75743371 49 41.32692545 49 50 C73.42 50 97.84 50 123 50 C123 41.75 123 33.5 123 25 C134.88 24.505 134.88 24.505 147 24 C147.33 17.07 147.66 10.14 148 3 C148.33 3 148.66 3 149 3 C149.25413123 6.62370661 149.47405533 10.24868737 149.6875 13.875 C149.76033203 14.90753906 149.83316406 15.94007813 149.90820312 17.00390625 C149.96298828 17.99003906 150.01777344 18.97617188 150.07421875 19.9921875 C150.13182373 20.90339355 150.18942871 21.81459961 150.2487793 22.75341797 C150.12563354 23.86547607 150.12563354 23.86547607 150 25 C146.69711664 27.20192224 145.72537273 27.23959968 141.89453125 27.1953125 C140.91162109 27.18886719 139.92871094 27.18242187 138.91601562 27.17578125 C137.89185547 27.15902344 136.86769531 27.14226562 135.8125 27.125 C134.77673828 27.11597656 133.74097656 27.10695312 132.67382812 27.09765625 C130.11565315 27.0740786 127.55794252 27.0411703 125 27 C125.00523682 27.69150146 125.01047363 28.38300293 125.01586914 29.09545898 C125.036575 32.20946352 125.04963963 35.32345361 125.0625 38.4375 C125.07087891 39.52611328 125.07925781 40.61472656 125.08789062 41.73632812 C125.09111328 42.77080078 125.09433594 43.80527344 125.09765625 44.87109375 C125.10289307 45.82943115 125.10812988 46.78776855 125.11352539 47.77514648 C125 50 125 50 124 51 C121.63238425 51.10025695 119.29392927 51.13618935 116.92578125 51.12939453 C116.18597015 51.13114685 115.44615906 51.13289917 114.68392944 51.13470459 C112.22676277 51.1391231 109.76966747 51.13618513 107.3125 51.1328125 C105.61238593 51.13348554 103.91227195 51.13445557 102.2121582 51.13571167 C98.64435919 51.13718864 95.07658517 51.13503411 91.50878906 51.13037109 C86.92511506 51.1246738 82.34149961 51.12795281 77.75782776 51.13394356 C74.24580439 51.13754919 70.73379502 51.13641057 67.22177124 51.13381577 C65.53119907 51.1331465 63.84062564 51.13397489 62.15005493 51.13629532 C59.79140843 51.13882189 57.43285805 51.13498121 55.07421875 51.12939453 C54.36872894 51.13141876 53.66323914 51.13344299 52.93637085 51.13552856 C48.11426271 51.11426271 48.11426271 51.11426271 47 50 C46.91273777 48.21928754 46.89300959 46.4351686 46.90234375 44.65234375 C46.90484131 43.68031006 46.90733887 42.70827637 46.90991211 41.70678711 C46.91901611 40.46292236 46.92812012 39.21905762 46.9375 37.9375 C46.958125 33.998125 46.97875 30.05875 47 26 C39.08 26 31.16 26 23 26 C22.505 14.12 22.505 14.12 22 2 C14.74 1.67 7.48 1.34 0 1 C0 0.67 0 0.34 0 0 Z " fill="#CF110D" transform="translate(164,202)"/>
<path d="M0 0 C3.81248426 -0.02887236 7.6249407 -0.04675492 11.4375 -0.0625 C12.52611328 -0.07087891 13.61472656 -0.07925781 14.73632812 -0.08789062 C15.77080078 -0.09111328 16.80527344 -0.09433594 17.87109375 -0.09765625 C18.82943115 -0.10289307 19.78776855 -0.10812988 20.77514648 -0.11352539 C23 0 23 0 24 1 C24.09650437 2.86028034 24.12187292 4.72427029 24.12025452 6.58705139 C24.12162918 7.80006424 24.12300385 9.01307709 24.12442017 10.2628479 C24.12088056 11.61932397 24.11724575 12.9757998 24.11352539 14.33227539 C24.11324352 15.75112404 24.11340124 17.16997284 24.1139679 18.58882141 C24.11425589 22.45228801 24.1083589 26.31572383 24.10139394 30.17918324 C24.09516067 34.21242573 24.09455662 38.24566885 24.09336853 42.27891541 C24.09025514 49.92165468 24.08204164 57.56437973 24.07201904 65.20711273 C24.06085816 73.90588019 24.05534752 82.60464831 24.05032361 91.30342114 C24.03985903 109.20228884 24.02225943 127.10114328 24 145 C23.34 145.33 22.68 145.66 22 146 C22 98.48 22 50.96 22 2 C14.74 2 7.48 2 0 2 C0 1.34 0 0.68 0 0 Z " fill="#240D04" transform="translate(387,88)"/>
<path d="M0 0 C8.25 0 16.5 0 25 0 C25 0.33 25 0.66 25 1 C17.08 1 9.16 1 1 1 C1 8.92 1 16.84 1 25 C8.92 25 16.84 25 25 25 C25 25.33 25 25.66 25 26 C17.08 26 9.16 26 1 26 C1 34.25 1 42.5 1 51 C-7.25 51 -15.5 51 -24 51 C-24 67.17 -24 83.34 -24 100 C-32.25 100 -40.5 100 -49 100 C-49 99.67 -49 99.34 -49 99 C-41.08 99 -33.16 99 -25 99 C-25 74.58 -25 50.16 -25 25 C-16.75 25 -8.5 25 0 25 C0 16.75 0 8.5 0 0 Z M-24 26 C-24 33.92 -24 41.84 -24 50 C-16.08 50 -8.16 50 0 50 C0 42.08 0 34.16 0 26 C-7.92 26 -15.84 26 -24 26 Z " fill="#F64645" transform="translate(177,53)"/>
<path d="M0 0 C8.25 0 16.5 0 25 0 C25 49.5 25 99 25 150 C16.75 150 8.5 150 0 150 C0.99 149.01 0.99 149.01 2 148 C9.26 148 16.52 148 24 148 C23.67 100.15 23.34 52.3 23 3 C16.07 2.67 9.14 2.34 2 2 C1.34 1.34 0.68 0.68 0 0 Z " fill="#911006" transform="translate(361,88)"/>
<path d="M0 0 C24.42 0 48.84 0 74 0 C74.495 11.385 74.495 11.385 75 23 C82.59 23.33 90.18 23.66 98 24 C98 24.33 98 24.66 98 25 C94.02084841 25.02886984 90.04172347 25.04675406 86.0625 25.0625 C84.35803711 25.07506836 84.35803711 25.07506836 82.61914062 25.08789062 C81.53955078 25.09111328 80.45996094 25.09433594 79.34765625 25.09765625 C77.84730835 25.10551147 77.84730835 25.10551147 76.31665039 25.11352539 C74 25 74 25 73 24 C73 16.74 73 9.48 73 2 C37.855 1.505 37.855 1.505 2 1 C2.13736643 11.16612805 2.13736643 11.16612805 4 21 C2.92260742 23.16308594 2.92260742 23.16308594 1 25 C-1.63549805 25.45410156 -1.63549805 25.45410156 -4.76171875 25.390625 C-5.87998047 25.37773438 -6.99824219 25.36484375 -8.15039062 25.3515625 C-9.31763672 25.31804687 -10.48488281 25.28453125 -11.6875 25.25 C-12.86634766 25.23195313 -14.04519531 25.21390625 -15.25976562 25.1953125 C-18.17398926 25.14811859 -21.08659031 25.08229077 -24 25 C-24 24.67 -24 24.34 -24 24 C-16.08 24 -8.16 24 0 24 C0 16.08 0 8.16 0 0 Z " fill="#640E02" transform="translate(212,79)"/>
<path d="M0 0 C0.66 0 1.32 0 2 0 C2 16.17 2 32.34 2 49 C9.92 49 17.84 49 26 49 C26 49.33 26 49.66 26 50 C18.08 50 10.16 50 2 50 C2 65.84 2 81.68 2 98 C1.67 98 1.34 98 1 98 C1 82.16 1 66.32 1 50 C-6.92 50 -14.84 50 -23 50 C-23 49.67 -23 49.34 -23 49 C-15.41 49 -7.82 49 0 49 C0 32.83 0 16.66 0 0 Z " fill="#A14D45" transform="translate(310,336)"/>
<path d="M0 0 C7.92 0 15.84 0 24 0 C24 16.17 24 32.34 24 49 C23.34 48.67 22.68 48.34 22 48 C22 32.82 22 17.64 22 2 C15.07 2 8.14 2 1 2 C1 17.18 1 32.36 1 48 C0.67 48 0.34 48 0 48 C0 32.16 0 16.32 0 0 Z " fill="#521003" transform="translate(139,287)"/>
<path d="M0 0 C0.33 0 0.66 0 1 0 C1 15.51 1 31.02 1 47 C8.92 47 16.84 47 25 47 C25 47.33 25 47.66 25 48 C17.08 48 9.16 48 1 48 C1.12568359 51.29484375 1.12568359 51.29484375 1.25390625 54.65625 C1.33187069 56.84417828 1.40714207 59.03218438 1.48217773 61.22021484 C1.53472021 62.71152692 1.58994985 64.20274736 1.64819336 65.69384766 C2.05629455 76.2051148 1.85103771 86.51422153 1 97 C0.67 97 0.34 97 0 97 C0 80.83 0 64.66 0 48 C-7.92 48 -15.84 48 -24 48 C-24 47.34 -24 46.68 -24 46 C-16.41 46 -8.82 46 -1 46 C-0.67 30.82 -0.34 15.64 0 0 Z " fill="#8D3E35" transform="translate(360,239)"/>
<path d="M0 0 C4.12486838 -0.08676908 8.24950384 -0.14031295 12.375 -0.1875 C13.550625 -0.21263672 14.72625 -0.23777344 15.9375 -0.26367188 C17.61972656 -0.27817383 17.61972656 -0.27817383 19.3359375 -0.29296875 C20.37282715 -0.3086792 21.4097168 -0.32438965 22.47802734 -0.34057617 C23.31027832 -0.22818604 24.1425293 -0.1157959 25 0 C27.054869 3.0823035 27.25525214 3.77976373 27.30297852 7.27197266 C27.31962051 8.12941071 27.33626251 8.98684875 27.35340881 9.87026978 C27.36182297 10.79222137 27.37023712 11.71417297 27.37890625 12.6640625 C27.39590073 13.61187592 27.4128952 14.55968933 27.43040466 15.53622437 C27.48357583 18.56574848 27.52386023 21.59525837 27.5625 24.625 C27.60636935 27.66181355 27.65300655 30.69851864 27.70530701 33.73519897 C27.73736429 35.62592445 27.76422271 37.5167462 27.78553772 39.40762329 C27.79902756 40.25875702 27.8125174 41.10989075 27.82641602 41.98681641 C27.83592789 42.73943756 27.84543976 43.49205872 27.85523987 44.26748657 C27.81473555 46.02999362 27.81473555 46.02999362 29 47 C30.34015221 47.15582303 31.68758903 47.25044142 33.03515625 47.31640625 C34.24848633 47.37924805 34.24848633 47.37924805 35.48632812 47.44335938 C36.7615332 47.50233398 36.7615332 47.50233398 38.0625 47.5625 C39.34350586 47.62727539 39.34350586 47.62727539 40.65039062 47.69335938 C42.76672037 47.79976702 44.88333813 47.90041731 47 48 C47.33 48.66 47.66 49.32 48 50 C40.08 50 32.16 50 24 50 C24 33.83 24 17.66 24 1 C16.08 1 8.16 1 0 1 C0 0.67 0 0.34 0 0 Z " fill="#594A41" transform="translate(114,286)"/>
<path d="M0 0 C3.81248426 -0.02887236 7.6249407 -0.04675492 11.4375 -0.0625 C12.52611328 -0.07087891 13.61472656 -0.07925781 14.73632812 -0.08789062 C15.77080078 -0.09111328 16.80527344 -0.09433594 17.87109375 -0.09765625 C18.82943115 -0.10289307 19.78776855 -0.10812988 20.77514648 -0.11352539 C23 0 23 0 24 1 C24.09526806 3.95246354 24.12552452 6.88148421 24.11352539 9.83422852 C24.11367142 10.76096375 24.11381744 11.68769897 24.1139679 12.64251709 C24.11326838 15.72133687 24.10547421 18.80009697 24.09765625 21.87890625 C24.09579221 24.00740018 24.09436824 26.13589453 24.09336853 28.26438904 C24.08954228 33.8786232 24.07971108 39.49283168 24.06866455 45.10705566 C24.05845273 50.83113253 24.0538714 56.55521353 24.04882812 62.27929688 C24.03808891 73.51954256 24.0210112 84.75976915 24 96 C23.67 96 23.34 96 23 96 C22.67 64.98 22.34 33.96 22 2 C14.74 2 7.48 2 0 2 C0 1.34 0 0.68 0 0 Z " fill="#281A16" transform="translate(387,88)"/>
<path d="M0 0 C24.75 0 49.5 0 75 0 C75.495 11.385 75.495 11.385 76 23 C82.93 23.33 89.86 23.66 97 24 C97 24.33 97 24.66 97 25 C93.18751574 25.02887236 89.3750593 25.04675492 85.5625 25.0625 C84.47388672 25.07087891 83.38527344 25.07925781 82.26367188 25.08789062 C81.22919922 25.09111328 80.19472656 25.09433594 79.12890625 25.09765625 C78.17056885 25.10289307 77.21223145 25.10812988 76.22485352 25.11352539 C74 25 74 25 73 24 C73 16.41 73 8.82 73 1 C48.91 1 24.82 1 0 1 C0 0.67 0 0.34 0 0 Z " fill="#A4170E" transform="translate(213,78)"/>
<path d="M0 0 C7.92 0 15.84 0 24 0 C24 0.33 24 0.66 24 1 C16.41 1 8.82 1 1 1 C1 16.18 1 31.36 1 47 C11.67981198 47.60805134 11.67981198 47.60805134 22 46 C22.33 34.78 22.66 23.56 23 12 C23.33 12 23.66 12 24 12 C24 24.21 24 36.42 24 49 C16.08 49 8.16 49 0 49 C0 32.83 0 16.66 0 0 Z " fill="#FF7473" transform="translate(128,103)"/>
<path d="M0 0 C0.66 0 1.32 0 2 0 C2 7.92 2 15.84 2 24 C-6.25 24 -14.5 24 -23 24 C-22.67 22.68 -22.34 21.36 -22 20 C-15.07 20 -8.14 20 -1 20 C-1.03958027 13.79207086 -1.03958027 13.79207086 -1.09008789 7.58422852 C-1.09258545 6.81522217 -1.09508301 6.04621582 -1.09765625 5.25390625 C-1.10551147 4.06776733 -1.10551147 4.06776733 -1.11352539 2.85766602 C-1 1 -1 1 0 0 Z " fill="#2F1C15" transform="translate(211,104)"/>
<path d="M0 0 C0.33 0 0.66 0 1 0 C1.08676908 4.12486838 1.14031295 8.24950384 1.1875 12.375 C1.21263672 13.550625 1.23777344 14.72625 1.26367188 15.9375 C1.27333984 17.05898437 1.28300781 18.18046875 1.29296875 19.3359375 C1.3086792 20.37282715 1.32438965 21.4097168 1.34057617 22.47802734 C1.22818604 23.31027832 1.1157959 24.1425293 1 25 C-3.32076501 27.88051001 -7.79734432 27.39012457 -12.83984375 27.47851562 C-17.19347216 27.63319393 -19.06197211 27.86717712 -22 31 C-22.66 31 -23.32 31 -24 31 C-24 39.25 -24 47.5 -24 56 C-24.33 56 -24.66 56 -25 56 C-25.02465504 51.60343827 -25.04283842 47.2069128 -25.05493164 42.81030273 C-25.05997121 41.31355082 -25.06680287 39.81680384 -25.07543945 38.32006836 C-25.08752159 36.17300193 -25.09323191 34.02600038 -25.09765625 31.87890625 C-25.10289307 30.5854126 -25.10812988 29.29191895 -25.11352539 27.95922852 C-25 25 -25 25 -24 24 C-22.21928754 23.91273777 -20.4351686 23.89300959 -18.65234375 23.90234375 C-17.68031006 23.90484131 -16.70827637 23.90733887 -15.70678711 23.90991211 C-13.84098999 23.92356812 -13.84098999 23.92356812 -11.9375 23.9375 C-7.998125 23.958125 -4.05875 23.97875 0 24 C0 16.08 0 8.16 0 0 Z " fill="#847873" transform="translate(113,64)"/>
<path d="M0 0 C0.66 0 1.32 0 2 0 C2.33 15.51 2.66 31.02 3 47 C10.26 47.33 17.52 47.66 25 48 C25 48.33 25 48.66 25 49 C16.75 49 8.5 49 0 49 C0 32.83 0 16.66 0 0 Z " fill="#C60F08" transform="translate(212,386)"/>
<path d="M0 0 C5.28 0 10.56 0 16 0 C16 0.33 16 0.66 16 1 C40.255 1.495 40.255 1.495 65 2 C65 2.33 65 2.66 65 3 C59.14597942 3.17205595 53.29181096 3.33812715 47.4375 3.5 C46.57419067 3.52400879 45.71088135 3.54801758 44.82141113 3.57275391 C33.35287848 3.88726802 21.90109631 4.1137416 10.42749023 3.96289062 C6.0782149 3.76982224 6.0782149 3.76982224 2 5 C-0.3400417 4.71758117 -2.67504723 4.38749213 -5 4 C-5 3.34 -5 2.68 -5 2 C-3.35 2 -1.7 2 0 2 C0 1.34 0 0.68 0 0 Z " fill="#362417" transform="translate(220,226)"/>
<path d="M0 0 C0.66 0 1.32 0 2 0 C2 7.26 2 14.52 2 22 C9.26 22 16.52 22 24 22 C24.33 22.66 24.66 23.32 25 24 C21.02084841 24.02886984 17.04172347 24.04675406 13.0625 24.0625 C11.35803711 24.07506836 11.35803711 24.07506836 9.61914062 24.08789062 C8.53955078 24.09111328 7.45996094 24.09433594 6.34765625 24.09765625 C4.84730835 24.10551147 4.84730835 24.10551147 3.31665039 24.11352539 C1 24 1 24 0 23 C-0.08713831 21.29227642 -0.10700007 19.58101351 -0.09765625 17.87109375 C-0.09443359 16.83662109 -0.09121094 15.80214844 -0.08789062 14.73632812 C-0.07951172 13.64771484 -0.07113281 12.55910156 -0.0625 11.4375 C-0.05798828 10.34501953 -0.05347656 9.25253906 -0.04882812 8.12695312 C-0.03699826 5.41791505 -0.02051543 2.70898401 0 0 Z " fill="#241214" transform="translate(286,104)"/>
<path d="M0 0 C0.9583374 0.00523682 1.9166748 0.01047363 2.90405273 0.01586914 C4.45576172 0.02070313 4.45576172 0.02070313 6.03881836 0.02563477 C7.12743164 0.03401367 8.21604492 0.04239258 9.33764648 0.05102539 C10.97636719 0.05779297 10.97636719 0.05779297 12.64819336 0.06469727 C15.35723144 0.07652713 18.06616248 0.09300996 20.77514648 0.11352539 C20.44514648 0.77352539 20.11514648 1.43352539 19.77514648 2.11352539 C12.84514648 2.11352539 5.91514648 2.11352539 -1.22485352 2.11352539 C-1.22485352 9.04352539 -1.22485352 15.97352539 -1.22485352 23.11352539 C-1.88485352 22.78352539 -2.54485352 22.45352539 -3.22485352 22.11352539 C-3.25373166 18.63437598 -3.27161039 15.15525709 -3.28735352 11.67602539 C-3.29573242 10.68280273 -3.30411133 9.68958008 -3.31274414 8.66625977 C-3.3159668 7.72202148 -3.31918945 6.7777832 -3.32250977 5.80493164 C-3.32774658 4.9303833 -3.3329834 4.05583496 -3.33837891 3.15478516 C-3.17796376 0.27041729 -2.88684315 0.14730408 0 0 Z " fill="#1D1010" transform="translate(289.224853515625,201.886474609375)"/>
<path d="M0 0 C0 7.92 0 15.84 0 24 C-3 22 -3 22 -3.51171875 19.94140625 C-3.59873047 18.76384766 -3.59873047 18.76384766 -3.6875 17.5625 C-3.78611328 16.38880859 -3.78611328 16.38880859 -3.88671875 15.19140625 C-3.97607456 13.46283358 -4 11.73088068 -4 10 C-3.34 10 -2.68 10 -2 10 C-2.33 7.03 -2.66 4.06 -3 1 C-1 0 -1 0 0 0 Z " fill="#3B281E" transform="translate(336,15)"/>
<path d="M0 0 C0.66 0 1.32 0 2 0 C3.14654482 2.29308963 3.19729117 3.79909656 3.31640625 6.3515625 C3.35451416 7.11807129 3.39262207 7.88458008 3.43188477 8.67431641 C3.49653931 10.13490479 3.49653931 10.13490479 3.5625 11.625 C3.706875 14.71875 3.85125 17.8125 4 21 C10.6 21.33 17.2 21.66 24 22 C24 22.33 24 22.66 24 23 C16.41 23 8.82 23 1 23 C0.67 15.41 0.34 7.82 0 0 Z " fill="#571603" transform="translate(360,65)"/>
<path d="M0 0 C0.33 0 0.66 0 1 0 C1.33 15.51 1.66 31.02 2 47 C0.02 47.495 0.02 47.495 -2 48 C-1.34 47.01 -0.68 46.02 0 45 C0.28868253 42.88032351 0.28868253 42.88032351 0.22705078 40.52856445 C0.22689972 39.62785721 0.22674866 38.72714996 0.22659302 37.79914856 C0.21627045 36.83031235 0.20594788 35.86147614 0.1953125 34.86328125 C0.19106766 33.37141548 0.19106766 33.37141548 0.18673706 31.84941101 C0.17553489 28.6703187 0.15043014 25.49150728 0.125 22.3125 C0.11497025 20.15820719 0.10584439 18.00390997 0.09765625 15.84960938 C0.07559546 10.56631028 0.04211756 5.28317521 0 0 Z " fill="#EE0504" transform="translate(310,288)"/>
<path d="M0 0 C0.33 0 0.66 0 1 0 C1 14.85 1 29.7 1 45 C-1.31 45 -3.62 45 -6 45 C-5.360625 44.731875 -4.72125 44.46375 -4.0625 44.1875 C-1.66868314 43.11332248 -1.66868314 43.11332248 -1 40 C-0.88764839 38.66548737 -0.82424351 37.32645611 -0.79467773 35.98754883 C-0.77473251 35.18694534 -0.75478729 34.38634186 -0.73423767 33.56147766 C-0.70916893 32.27227669 -0.70916893 32.27227669 -0.68359375 30.95703125 C-0.66281265 30.0734343 -0.64203156 29.18983734 -0.62062073 28.27946472 C-0.55524246 25.45722215 -0.49629472 22.63488665 -0.4375 19.8125 C-0.39430363 17.89907894 -0.35068898 15.98566727 -0.30664062 14.07226562 C-0.19957305 9.38160563 -0.09827248 4.69085217 0 0 Z " fill="#40291A" transform="translate(358,289)"/>
<path d="M0 0 C0.66 0 1.32 0 2 0 C2.19840395 3.20775542 2.38175425 6.41620501 2.5625 9.625 C2.61857422 10.52863281 2.67464844 11.43226562 2.73242188 12.36328125 C2.99066718 17.08056217 3.04292737 21.34931647 2 26 C1.34 26 0.68 26 0 26 C0 17.42 0 8.84 0 0 Z " fill="#EE1714" transform="translate(202,53)"/>
<path d="M0 0 C0.99 0.495 0.99 0.495 2 1 C3.33479429 8.28069615 3.24998282 15.69575256 2 23 C1.34 23.33 0.68 23.66 0 24 C0 16.08 0 8.16 0 0 Z " fill="#3C2B20" transform="translate(163,15)"/>
<path d="M0 0 C0.64324219 0.31710938 1.28648438 0.63421875 1.94921875 0.9609375 C5.92305679 2.31438298 9.64201079 2.45720161 13.8125 2.625 C14.99489258 2.68300781 14.99489258 2.68300781 16.20117188 2.7421875 C18.1337538 2.83588844 20.06684376 2.91900779 22 3 C22 3.33 22 3.66 22 4 C14.41 4 6.82 4 -1 4 C-0.67 2.68 -0.34 1.36 0 0 Z " fill="#34251B" transform="translate(90,233)"/>
<path d="" fill="#FFFFFF" transform="translate(0,0)"/>
<path d="" fill="#FFFFFF" transform="translate(0,0)"/>
<path d="" fill="#FFFFFF" transform="translate(0,0)"/>
<path d="" fill="#FFFFFF" transform="translate(0,0)"/>
<path d="" fill="#FFFFFF" transform="translate(0,0)"/>
<path d="" fill="#FFFFFF" transform="translate(0,0)"/>
<path d="" fill="#FFFFFF" transform="translate(0,0)"/>
<path d="" fill="#FFFFFF" transform="translate(0,0)"/>
<path d="" fill="#FFFFFF" transform="translate(0,0)"/>
<path d="" fill="#FFFFFF" transform="translate(0,0)"/>
<path d="" fill="#FFFFFF" transform="translate(0,0)"/>
<path d="" fill="#FFFFFF" transform="translate(0,0)"/>
<path d="" fill="#FFFFFF" transform="translate(0,0)"/>
<path d="" fill="#FFFFFF" transform="translate(0,0)"/>
<path d="" fill="#FFFFFF" transform="translate(0,0)"/>
<path d="" fill="#FFFFFF" transform="translate(0,0)"/>
<path d="" fill="#FFFFFF" transform="translate(0,0)"/>
<path d="" fill="#FFFFFF" transform="translate(0,0)"/>
<path d="" fill="#FFFFFF" transform="translate(0,0)"/>
<path d="" fill="#FFFFFF" transform="translate(0,0)"/>
<path d="" fill="#FFFFFF" transform="translate(0,0)"/>
<path d="" fill="#FFFFFF" transform="translate(0,0)"/>
<path d="" fill="#FFFFFF" transform="translate(0,0)"/>
<path d="" fill="#FFFFFF" transform="translate(0,0)"/>
<path d="" fill="#FFFFFF" transform="translate(0,0)"/>
<path d="" fill="#FFFFFF" transform="translate(0,0)"/>
<path d="" fill="#FFFFFF" transform="translate(0,0)"/>
<path d="" fill="#FFFFFF" transform="translate(0,0)"/>
<path d="" fill="#FFFFFF" transform="translate(0,0)"/>
<path d="" fill="#FFFFFF" transform="translate(0,0)"/>
<path d="" fill="#FFFFFF" transform="translate(0,0)"/>
<path d="" fill="#FFFFFF" transform="translate(0,0)"/>
<path d="" fill="#FFFFFF" transform="translate(0,0)"/>
<path d="" fill="#FFFFFF" transform="translate(0,0)"/>
<path d="" fill="#FFFFFF" transform="translate(0,0)"/>
<path d="" fill="#FFFFFF" transform="translate(0,0)"/>
<path d="" fill="#FFFFFF" transform="translate(0,0)"/>
<path d="" fill="#FFFFFF" transform="translate(0,0)"/>
<path d="" fill="#FFFFFF" transform="translate(0,0)"/>
<path d="" fill="#FFFFFF" transform="translate(0,0)"/>
<path d="" fill="#FFFFFF" transform="translate(0,0)"/>
<path d="" fill="#FFFFFF" transform="translate(0,0)"/>
<path d="" fill="#FFFFFF" transform="translate(0,0)"/>
<path d="" fill="#FFFFFF" transform="translate(0,0)"/>
<path d="" fill="#FFFFFF" transform="translate(0,0)"/>
<path d="" fill="#FFFFFF" transform="translate(0,0)"/>
<path d="" fill="#FFFFFF" transform="translate(0,0)"/>
<path d="" fill="#FFFFFF" transform="translate(0,0)"/>
<path d="" fill="#FFFFFF" transform="translate(0,0)"/>
<path d="" fill="#FFFFFF" transform="translate(0,0)"/>
<path d="" fill="#FFFFFF" transform="translate(0,0)"/>
<path d="" fill="#FFFFFF" transform="translate(0,0)"/>
</svg>
