<?xml version="1.0" encoding="UTF-8"?>
<svg version="1.1" viewBox="0 0 1632 1464" width="1280" height="1280" xmlns="http://www.w3.org/2000/svg">
<path transform="translate(1378,73)" d="m0 0 4 1 1 14v248l-1 56-7 8-8 7-2 7v118l1 61 2 4 4 4-1 9-5 7-1 36v89l14 7 1 2v6l-5 5-52 1h-54l-10-1-4-9 1-6 5-3 8-1-1-20v-31l1-72-11-10 3-9 3-8 3-50 3-26 4-18-17 9-11 11-8 7-20 18-15 14-17 17-8 7-12 11-14 12-5 5-2 9-1 9-2 41v170l6 1 1 4-4 10-2 3-1 23v94l3 7 12 11 1 4-4 6-4 1-48 1h-49l-6-3-5-5-2-5 1-9 4-3 9-1v-120l-6-15 1-5 3-2 1-6 1-51 1-22-10 5-10 8-12 11-8 7-7 6-3 1-2-2-1-40-1-4-8 3-6 3h-2l-1 7-1 69-2 10-5 10-3 10-7 15-13 31-6 12-5 12-9 21-5 12-16 34-8 20-11 30-5 16-5 15-5 17-5 15-5 16-8 25-5 15-10 31-5 16-4 11-4 15-5 14-5 17-6 18-10 34-7 21-5 17-7 18-5 5h-7l-5-3-5-10-6-21-9-31-4-12-4-16-5-13-4-15-4-11-6-21-6-18-12-39-6-18-5-17-5-16-9-27-5-16-14-43-4-12-11-26-13-29-10-24-26-58-6-15-5-12-8-17-1-25-1-53-3-9-5-5-2-1h-9l-1 36-1 8-5-2-9-7-13-13-8-7-12-9-5-2v42l1 39 6 2 1 1-1 7-6 7-2 11v110l1 6 14 1 1 5-6 12-5 5-47 1h-50l-6-2-3-5v-6l5-5 9-7h2l1-4 1-43v-57l-1-17-9-11-1-6 5-6v-167l-1-11-1-27v-15l-1-8-11-10-11-9-12-11-11-9-15-14-10-9-9-9-8-7-16-16-8-7-7-6-10-6 2 17 1 3 2 30 2 51 5 7 1 9-4 4-2 1-1 10v116l8 3 9 4 1 4-3 7-2 2-69 1h-51l-3-3v-11l5-3 11-2 2-1v-127l-5-2-6-7 1-7 7-7 1-9 1-36v-112l1-21-4-6-11-12-3-5-1-3-1-118v-160l-1-31 3-4 6 1 7 7 8 7 11 11 8 7 7 7 8 7 26 24 7 7 2 1v2l4 2 13 13 8 7 13 12 10 9 11 9 16 15 8 7 13 12 11 11 8 7 9 9 8 7 10 9 12 11 8 7 15 14 12 11 8 8 11 9 11 10 14 9-4-16-2-14v-117l2-7 2-2 13-1h132l10 1 3 3 4 17v21l2 8h4l7-13 5-8 26-52 18-34 9-20 5-8 2-1h72l9 1 4 4 17 35 12 22 33 66 2 2h3l3-6 1-6 1-19 3-8 5-5h117l35 1 2 2 1 13-1 125-1 14-2 5 11-7 15-13 12-11 8-7 33-31 8-8 8-7 10-9 11-10 8-7 12-11h2v-2l8-7 26-24 31-29 4-2v-2l11-9 16-15 12-11 10-9 8-7 17-16 39-39z" fill="#FCFCFC"/>
<path transform="translate(414,541)" d="m0 0 9 3 6 5v2l4 2 14 12 13 12 5 4v2l4 2 8 7 7 8 2 4 5 2 6 7 16 14 4 5 11 9 11 10 2 1v2l5 2 10 7 5 4 7 9 4 5 4 4 1 16v19l-1 36-2 2-4-5-4-2h-9l-1 36-1 8-5-2-9-7-13-13-8-7-12-9-5-2v42l1 39 6 2 1 1-1 7-6 7-2 11v110l1 6 14 1 1 5-6 12-5 5-47 1h-50l-6-2-3-5v-6l5-5 9-7h2l1-4 1-43v-57l-1-17-9-11-1-6 5-6v-167l-1-11-1-27v-15l-1-10 1-6 1-55z" fill="#1A34E8"/>
<path transform="translate(1138,540)" d="m0 0 4 1 2 3 1 15 1 46h2l-2 9-2 14-2 41v170l6 1 1 4-4 10-2 3-1 23v94l3 7 12 11 1 4-4 6-4 1-48 1h-49l-6-3-5-5-2-5 1-9 4-3 9-1v-120l-6-15 1-5 3-2 1-6 1-51 1-22-10 5-10 8-12 11-8 7-7 6-3 1-2-2-1-40-1-4-8 3-3 2h-5v-71l4-5 5-5 5-6 7-6 4-2 3-5 7-3 3-7 7-3 4-6 5-3 5-5 10-9 13-11 15-15 8-7 11-9 14-14 13-12 6-4z" fill="#1A34E8"/>
<path transform="translate(658,485)" d="m0 0 6 2 11 8 15 10 12 9 28 20 15 10 10 7 14 9 8 6 6 1 13-11 15-10 16-11 11-8 19-13 13-9 18-12 11-7h1l-1 14-8 40-6 24-3 20-7 29-4 21-5 21-1 11-2 4-7 6-7 8-9 10-6 7h-2l-2 4-14 15-14 16-7 6-2 3h-2l-2 5-3 3-6 2-6-1-21-21-6-7-5-5-7-8-9-10-7-8-13-14-7-8-5-11-5-18-8-42-10-45-9-43-4-24z" fill="#CB2902"/>
<path transform="translate(512,208)" d="m0 0h132l10 1 3 3 4 17v21l2 11-5 15-4 4-5 12-9 16-3 5-3 7-5 12-4 6-4 10-4 6-12 26-7 12-8 17-10 17-5 4-6-1-10-9-15-14-8-7-7-7-8-7-8-6-8-7-3-3-4-14-3-20v-117l2-7 2-2z" fill="#CC2A02"/>
<path transform="translate(904,208)" d="m0 0h117l35 1 2 2 1 13-1 125-1 14-2 5h-2l-1 4-10 8h-2l-2 4-4 4h-2l-2 4-9 8-8 7-6 5-7 8-5 5-5 4-11 1-4-8-3-8-6-8-5-13-3-5-4-11-5-5-3-9v-6l-5-1-5-13-1-3-5-5-3-12-6-8-4-12-5-6-5-12-5-8-5-10-3-5-2-6v-6l2-4 1-6 1-19 3-8z" fill="#CB2A02"/>
<path transform="translate(1267,583)" d="m0 0h2l2 10 5 4 4 1h80l8-1 4 4-1 9-5 7-1 36v89l14 7 1 2v6l-5 5-52 1h-54l-10-1-4-9 1-6 5-3 8-1-1-20v-31l1-72-11-10 3-9 4-11z" fill="#CB2A02"/>
<path transform="translate(192,594)" d="m0 0 8 4h79l9-2 5 5 2 4v6l-4 4-2 1-1 10v116l8 3 9 4 1 4-3 7-2 2-69 1h-51l-3-3v-11l5-3 11-2 2-1v-127l-5-2-6-7 1-7z" fill="#CB2A02"/>
<path transform="translate(1054,831)" d="m0 0 1 2 8 4 65 1h14l6 2 1 4-4 10-2 3-1 23v94l3 7 12 11 1 4-4 6-4 1-48 1h-49l-6-3-5-5-2-5 1-9 4-3 9-1v-120l-6-15 1-5 4-3z" fill="#CB2902"/>
<path transform="translate(502,833)" d="m0 0h2v3l6 2 1 1-1 7-6 7-2 11v110l1 6 14 1 1 5-6 12-5 5-47 1h-50l-6-2-3-5v-6l5-5 9-7h2l1-4 1-43v-57l-1-17-9-11-1-6 5-5h5l5 2 73-1 4-1z" fill="#CB2A02"/>
<path transform="translate(558,208)" d="m0 0h86l10 1 3 3 4 17v21l2 11-5 15-4 4-5 12-9 16-3 5-3 7-5 12-4 6-4 10-4 6-12 26-7 12-8 17-10 17-5 4-6-1-10-9-15-14-8-7-7-7-8-7-8-6-8-7-3-3-4-14-3-20v-117l2-7 2-2h5l-1 10v26l1 23 1 40 1 8v9l-1 2 4 8 9 3 4 5 1 2 5-1 21-2 4 1 5-2 11-4 12-1 2-6 9-4 2-3h2l1-6 5-3 4-11 4-5 7-11 11-20 3-4 3-7 4-11 4-9 1-8 5-6-8 1v-2l-5-2-4-2-5-4 1-2-10-1-59-1z" fill="#A92004"/>
<path transform="translate(657,483)" d="m0 0 5 1 21 14 15 11 7 2v3l9 1 9-2 19 5 19 2 14 2h20l10-2 6-2h4v2l2-2 3-4 12-5 10-4 9-3 9-1 9-4 9-3 10-4 9-7h5l1 10-3 23-1 2v11l-1 21v30h-2v9h1v8l-3 22-2-1 1 7-3 17-1 10-6 19-4 7h-2l-2 5-4 4-2 4-5 5-7 8-4 2h-4v2l-2 2-1 3-5 3-9 7-10 7h-2v2l-8 7-5 5-7 4-12 10-8 4-7-1-8-7-21-21-6-3-6-4-3-1v-4l-2-1-1 2-1-3-4-1 2-1-10-5-7-7-10-8 1-2 3 2-1-1-5-4-2 1-4-4-8-13-3-9 1-2-4-11-2-10-1 3h-1l-2-13v-11h1l1 8v-3l-2-18v6l-2 2-3-24 2-2 2-10 1-9 2-8-3-11v7l1 2-4 19h-1v-14l1-15 2-8-1-5 1-3h-2v-2l-2-1 1-7-4-22-2-13zm1 2 1 12 9 47 9 40 9 43 3 17 6 21 5 9 9 10 12 13 11 12 7 8 6 8 7 6 7 8 15 15 6 1 7-3 4-5v-2l3-1 6-7 15-15 7-8 9-10 1-3 4-2 9-11 5-5 11-12 3-3 1-2 1-11 5-21 5-25 6-25 4-25 6-24 7-35 1-14-6 3-42 28-15 11-10 7-19 13-17 12-8 7-6-1-11-8-14-9-17-12-15-10-19-14-11-8-25-17-5-3z" fill="#E2E1E0"/>
<path transform="translate(414,672)" d="m0 0 2 2 1 3 5-1 10 9 13 12 12 11 5 4 4 5 6 3 5 6 6 4 4 5 6 5 4 5 5 4 1 6v78l-3 4-4 1-73 1-10-3z" fill="#FCFCFC"/>
<path transform="translate(1140,672)" d="m0 0h1l1 8v158l-14 1-65-1-8-5-2 2 1-56 1-21 4-10 12-12 8-7 12-12 5-3 3-5 6-4 4-5 5-3 3-5 6-4 12-11 3-3h2z" fill="#FCFCFC"/>
<path transform="translate(904,208)" d="m0 0h55v1l-17 1-18 2h-8v-2h-7l1 6 1 2h-2l1 9 1 2h-2l1 9 2 2-1 8h-2l-1 7 2-3 3 10 2 5 2 1v2l4 2 2 5-4-3 4 6 4 9 3 3-3-9 5 3 4 6v2l-2 2 4 4v2l3 1 5 7v2l3 1 4 5h2l4 5 1 3 10 6 4 2 1 4 6-1 3 1v2l10-1 3-1 2 1v2l3-1 8 2 3 2-1-3 13-5 3-5 7-2 5-8h3l5-5 4 1 2-1 2-9 1-75h1v117l-1 14-2 5h-2l-1 4-10 8h-2l-2 4-4 4h-2l-2 4-9 8-8 7-6 5-7 8-5 5-5 4-11 1-4-8-3-8-6-8-5-13-3-5-4-11-5-5-3-9v-6l-5-1-5-13-1-3-5-5-3-12-6-8-4-12-5-6-5-12-5-8-5-10-3-5-2-6v-6l2-4 1-6 1-19 3-8z" fill="#A92004"/>
<path transform="translate(1133,528)" d="m0 0h6l3 1v2l8 2v2l3 1 2 4v10h1v26l-1 6v11l6-2 7-7 8-7 4-2 1-3 10-8 8-8 2 1-20 20-9 7-10 9-6 7-4 5-4 2v-2h-2l-1-3-1-43-1-15-2-3-4 1-4 6-8 6-11 10-5 5h-2l-2 5-9 7-12 11-8 7-13 13-11 9-8 7h-2l-2 4-3 3-3 1-5 7-6 2-3 7-7 3-3 5-7 4-7 8-5 6-5 5-1 71 2 1h-2l-1 7-1 69-2 10-5 10-3 10-7 15-13 31-6 12-5 12-7 16-3 3h-2l-2 6-3 6-1-2 5-11 3-8 5-9 4-9 5-14 5-10 1-3 7-16 4-10 5-11 4-13 1-7 2-35v-8l1-1v-12l1-5v-9l-2-10 2-6v-63l5-13 3-5 1-4v-3l2-2 1-6 1-25 4-30 4-8h3l5 15 7 10 6 1 6-4 12-10 10-7 12-7h2v-2l5-3h2v-2l5-5h2v-2l6-5 7-4 5-5 5-4 10-7 7-8 5-5 5-4h2v-2l6-4z" fill="#E2E1E0"/>
<path transform="translate(414,530)" d="m0 0h6v2l5-1-1 2 5 3 4 3h4l5 5h-2v2l5 2 5 3v2l5 2 8 7v2l7 1v5h3l10 10v2h2l5 6v2h2v2h2v2h2v2h2v2l4 1 5 4v2h4l2 3 8 4 7 3v2l10 4h6l10-5 6-10 2-1 2 1 5 27 1 17 2 9-1 3h2v7l2 1 1 6 2 4 1 7v96l-2 4-1-21-2-8 1-2 1-36v-19l-1-16-5-5-6-8v-2l-3-1v-2l-3-1v-2l-5-2-12-8v-2l-4-2-10-9-11-9-5-6-8-7-9-8-22-22-7-6-13-13-11-9-10-9-8-7-9-3-1 2-1 55-2 7-6-4-12-11-11-9-11-10-8-7-10-9-4-5v-2l-4-2-6-7h3l16 16 11 9 12 11 11 9 13 11 2 1v-6l2-5h-2v-43l-1-3 2-1 2-6z" fill="#E3E2E1"/>
<path transform="translate(1054,834)" d="m0 0 1 2h2v2l4 2-2 2 3 1 2 6v11l-1 8-1 104 3 5 4 1h28l35-2 2-3 3-14 2-8h1l2 23 3 7 12 11 1 4-4 6-4 1-48 1h-49l-6-3-5-5-2-5 1-9 4-3 9-1v-120l-6-15 1-5z" fill="#AA2105"/>
<path transform="translate(414,672)" d="m0 0 2 2 1 3 5-1 10 9 13 12 12 11 5 4 4 5 6 3 5 6 6 4 4 5 6 5 4 5 5 4 1 6v78l-3 4-4 1-73 1-10-3zm9 20-2 1v134l3 5h5l3-2 4-1 1 2 5-1h19l7-1h19l5-5 1-33v-5-2-2h-2l1-7-1-8-1-1v-6l-3-7h-2l-1-5-3-1-1 2-4-5-9-7-8-8h-2l-2-4-3-3h-2l-2-4-8-8v-3l-4-1v-3l-5-5 1 4-3-4-1-3z" fill="#E3E2E1"/>
<path transform="translate(192,594)" d="m0 0 8 4h79l9-2 5 5 2 4v6l-4 4-2 1-1 10v116l8 3 9 4 1 4-3 7-2 2-69 1h-51l-3-3v-8l5-2h5l5 1 1 2 8 1 6 1 2 4 7 1h12l16-1 18-4 7-3h4l-5-9 1-6 2-3 4-24-1-6v-8l1-7v-7l1-5v-26l-2-20-2-10-5-2-5-5-2-4 2-1 12-2h-73l-10-4-4 1 2 1h4v3l4 2 1 2v13l-2-4-1-5-5-2-6-7 1-7z" fill="#A92105"/>
<path transform="translate(1264,593)" d="m0 0 5 1 5 6 6 2 8 1h69l7-1-4 3-67 2-11 1 7 3-3 2-1 8-2 4-2 12-1 14v63l1 14 1 6 4 4-1 6-10 5h-3l2 4 2 1 49 1v2h-4l7 1 2-1v2l18 1 6 1v-2l2-2 1-4 5-2 13 1v2l-2 1h-7l1 3-2 1v2h9v1l-51 1h-54l-10-1-4-9 1-6 5-3 8-1-1-20v-31l1-72-11-10 3-9z" fill="#AA2307"/>
<path transform="translate(1140,672)" d="m0 0h1l1 16-1 5-5 4-7-1-5 5v3l-3 1v2l-5 5-9 10-13 13-5 4-3 4h-2v2h-3v2l-8 7-4 1-2 5-2 2-1 28v24l1 11 1 4 4-2h7l4 1h11v-1h6l1 2h31l8-2 1-2 2 1 1 3v9l-14 1-65-1-8-5-2 2 1-56 1-21 4-10 12-12 8-7 12-12 5-3 3-5 6-4 4-5 5-3 3-5 6-4 12-11 3-3h2z" fill="#E3E2E1"/>
<path transform="translate(1284,482)" d="m0 0 5 2v5h-2l-1-3 1 7-1 1-1 12-1 37v44l1 4h74l2-6 2-49h1l1 12 1 45 1 4-7 2h-80l-7-3-3-3-1-10-2 1-1 6h-1l1-34 3-32 5-25-17 9-11 11-8 7-7 4-11 9-10 10-2-1 5-6 8-7 11-10 5-3 18-18h2l1-3 6-4h2l2-4h2l2-4 3-2 2-3 5-1z" fill="#E3E2E1"/>
<path transform="translate(502,835)" d="m0 0 6 2 3 2-1 7-6 7-2 11v110l1 6 14 1 1 5-6 12-5 5-47 1h-50l-6-2-3-5v-6l4 2h4v2l45 1 49-1 3-1 1-5-1-1h-10l-18-2h-10l-19-2-33 2-3-1 2-4 3-2 9-2 16 1 34-1 16-2 1-11 1-109h-2l-4-4-2-1v-5l3-1 8 1v-3h-24l-3-2h26l3-1z" fill="#AB2206"/>
<path transform="translate(695,208)" d="m0 0 1 2-4 7-2 6-5 10-4 9-7 15-22 44-6 10-5 12-6 12-11 23-8 13-8 16-10 19-8 16-6 9-5 6-4 3h-6l-4-2-1-3-2-1v-2l-3-1v-2h-2l-1-4h-2v-2l-3-1v-2l-3-1-7-8-6-5v-2l-4-2-9-9-3-2v-2l-4-2-8-7-8-8-2-3-7-4-7-6 2-2 5 1 9 6 3 1 1 6 4 2 8 7 8 6 14 13 8 7 17 16 7 6 6 1 3-3h2l2-5 12-22 14-28 9-19 4-6 4-10 5-8 4-9 3-7 12-22 4-10 3-4h2l2-10 2-6 1-2h4l7-13 5-8 14-28z" fill="#E1E0E0"/>
<path transform="translate(268,482)" d="m0 0 6 1v2l3-1 4 4 2 1v2h2l1 4-4-1 2 17 1 3 2 30 2 53-10 2h-79l-5-3-2-3 1-9 1-36 1-14h1l1 20v14l1 18 3 4 59 1 9-1 4-4-1-5 1-2v-35l-1-10v-19l-1-1 1-14h-2l-1-9v-5l1-1-2-1-1 4-1-5z" fill="#E3E2E1"/>
<path transform="translate(881,246)" d="m0 0 3 1 4 5h4l3 11 6 9 6 12 3 5 4 10 4 4 4 12 6 8 3 12 2 4 3 1 5 14 1 2 4 1 3 12 3 5 4 5 4 12 4 6 4 11 6 7 5 15 13-3 6-7 5-5 3-1 2-4 8-7 13-11 5-5 6-7 12-9 2-3 4-2 6-4h2l-1 5-7 9-5 3-16 16h-2v2l-14 11-4 5h-2l-2 4-5 5-7 8-4 3h-3l-1 3-9 3-6-1-4-5-4-12-3-3-4-9-3-8-3-3-5-10v-3l-4-2-5-15-4-5-6-15-5-7-6-12-3-5-26-52-4-7-7-15z" fill="#E2E1E0"/>
<path transform="translate(414,672)" d="m0 0 2 2 1 3 5-1 10 9 13 12 12 11 5 4 4 5 6 3 5 6 6 4 4 5 6 5 4 5 5 4 1 6v74l-4 2v2l-4 1 2-5 1-10 1-32-2-7-2-20-4-13-4-5-2-1v-2l-4-1-5-6-10-10-7-5v-2l-4-2-6-5v-2l-4-2-8-7-5-5-8-9-3-1-1 119-1 33-4-1-2-10z" fill="#939ABF"/>
<path transform="translate(1137,536)" d="m0 0 6 1 5 3 2 10v13l1 24 1 10 5-2 11-11 8-7 4-2 1-3 10-8 8-8 2 1-20 20-9 7-10 9-6 7-4 5-4 2v-2h-2l-1-3-1-43-1-15-2-3-4 1-4 6-8 6-11 10-5 5h-2l-2 5-9 7-12 11-8 7-13 13-11 9-8 7h-2l-2 4-3 3-3 1-5 7-6 2-3 7-7 3-3 5-7 4-7 8-5 6-5 5-1 71 2 1h-3l-1 2-1-8v-30l1-30 2-9 6-11 5-11 3-5 14-5 4-3 1-3 8-5h2l1-4 4-4h2l2-4 5-3 4-1 5-7 6-5h2l2-4 4-2v-2l4-4h2v-2l10-8 1-2h2v-2l8-6 10-8 2-3h2l1-3 8-7 10-10 6-4 4-5z" fill="#9299BF"/>
<path transform="translate(413,537)" d="m0 0 7 1 8 4 2 4 4 2 10 8v2l5 2 5 4v2l4 2 5 5 7 6v2l4 2 10 8 4 6v2h2l6 7 7 5 5 5 14 12 9 7 5 5 11 8 9 5 7 4 5 10 4 10 5 6v18h-1l-1-16-5-5-6-8v-2l-3-1v-2l-3-1v-2l-5-2-12-8v-2l-4-2-10-9-11-9-5-6-8-7-9-8-22-22-7-6-13-13-11-9-10-9-8-7-9-3-1 2-1 55-2 7-2-1 1-19v-22l1-22z" fill="#9299BF"/>
<path transform="translate(582,844)" d="m0 0 4 2 6 17 6 12 6 18 2 3v3h2l7 16 14 31 8 20 2 9h2l7 18 6 12 3 7 3 10 3 8 3 6 1 10 5 8 4 15 2 4 2 8 2 7 4 11 1 9h2l6 22 3 6 3 14-2-1-3-8-3-5-8-25-7-22-13-40-8-24-11-26-13-29-10-24-26-58-6-15-5-12-5-11z" fill="#E5E4E4"/>
<path transform="translate(1278,489)" d="m0 0 3 1 1 2v12l-2 25-1 44v9l2 10 1 3-5-2-5-3-3-2v-5l-2 1-1 6h-1l1-34 3-32 5-25-7 1 3-5z" fill="#9298BE"/>
<path transform="translate(996,508)" d="m0 0 2 1 2 7v9l1 6 1 22 2 13 2 22 2 7 7 10 3 2 6-1 5-4 7-3 9-6 11-5 7-4 3-1 2-4 2-3h2l1-3 6-2v-2l8-5 5-6 13-9 8-7h3l-5 5-7 6-6 4-7 6-5 6-9 6-6 5-4 4-12 8-10 5-14 10-9 6-5 2-5-4-8-16-2-8-1-14-3-9h-2l-1 3v21l-3 22-1 14-1 5-2-2 2-23 1-13v-42l1-7-1-8 2-16 2-9z" fill="#E3E2E1"/>
<path transform="translate(921,967)" d="m0 0 1 4v6l-11 24-10 25-9 25-10 32-9 28-5 16-8 25-12 36-1 2-4-2 1-5 3-7 2-2-1-2 4-9v-7l4-10 4-11 1-7 6-15 2-8 3-8h2l1-9 6-20 7-22 5-13 6-17 2-3 3-9 6-12 4-10 3-6 1-4h2z" fill="#D2D3DB"/>
<path transform="translate(1368,605)" d="m0 0 3 2-1 5-4 5-1 36v89l6 4-4 1-3 3-6-2-2-2-1-6 1-3h2v-108l-1-9-1-3h-2l-2-4-3-3 4-3 11 1 2 1z" fill="#AA2206"/>
<path transform="translate(1102,984)" d="m0 0 20 2h26l6 3 3 3 1 4-2 2-1-4-13 2-7-1h-15l-26 1h-37l-4-2-1-4 11-5h14z" fill="#CB2A02"/>
<path transform="translate(1138,674)" d="m0 0h2v5l-7 6-14 11-4 5-5 4-13 13-6 4-15 15-8 7-4 5-2 8v76l-3-2-5-1v-51l1-21 4-10 12-12 8-7 12-12 5-3 3-5 6-4 4-5 5-3 3-5 6-4 12-11z" fill="#9299BF"/>
<path transform="translate(1126,534)" d="m0 0 1 2-9 7h-2l-2 4-7 8-12 8-5 4-5 5-6 4-4 2v2h-2l-2 4-3 1v2l-4 3h-3v2l-11 6-10 7-9 7-10 8-6 1-5-5-5-7-4-13v-2l-3 1-3 7-4 30-2-1 3-29 2-14v-21l2-4 3 1 3 9 1 14 3 10 7 14 4 3 5-2 6-4 19-13 13-7 8-6h2l2-4 12-9 5-4 6-7 9-6 8-7h2l3-6z" fill="#FDFDFD"/>
<path transform="translate(560,521)" d="m0 0h5l3 3 2 14v67l-1 16h-1l-1-9 1-32v-39l-1-7-1-5-5 1-4 5-3 11v14l1 15-1 3-1 21-2 8-3 7-5 3-10-1-16-9-11-6-1-3-4-2v-2l-5-2-13-13 1-2 6 5v2l4 2 11 9 15 11 14 7h6l5-4 3-7 2-25 1-32 5-16z" fill="#E3E2E1"/>
<path transform="translate(582,844)" d="m0 0 4 2 6 17 6 12 6 18 2 3v3h2l7 16 14 31 7 17-1 4-2-1-4-10-10-24-3-5-4-10v-3h-2v-2h-2l-11-24-6-15-5-12-5-11z" fill="#E7E6E5"/>
<path transform="translate(192,594)" d="m0 0 8 4h79l9-2 2 2h-2l-2 4h-2v2h-82l-6-2-3-3-4 1-3 2 2-4z" fill="#CB2C05"/>
<path transform="translate(282,518)" d="m0 0 3 4 1 4 2 48v19h-3l-5 2 1-4v-45l-1-12v-11z" fill="#989FC1"/>
<path transform="translate(183,750)" d="m0 0h5l5 1 1 2 8 1 6 1 2 4 5 2 17 1v1h-51l-3-3v-8z" fill="#AD290D"/>
<path transform="translate(758,1334)" d="m0 0 3 4 2 10 3 1v5 2l4 9 1 1v5l4 1 4 4h6l1 5-4 3h-7l-5-3-5-10-6-21-3-10 1-5z" fill="#DADADE"/>
<path transform="translate(177,141)" d="m0 0h1l1 117v20l-1 60h-1l-1-67v-110z" fill="#C5C7D4"/>
<path transform="translate(609,912)" d="m0 0 1 2h2l5 13 7 14 5 14 4 8 2 3h2l2 9h2l7 18 6 12 3 7 1 9 1 6-3-4-10-24-13-29-10-24-13-29z" fill="#E8E8E8"/>
<path transform="translate(864,1122)" d="m0 0 2 3 1-3h2l-1 5-8 25-12 36-1 2-4-2 1-5 3-7 2-2-1-2 4-9v-7l4-10 4-11 1-7z" fill="#E5E4E3"/>
<path transform="translate(563,539)" d="m0 0 3 3 2 27-4 17-3 2-1-2-1-28-1-9 3-8z" fill="#E3E2E1"/>
<path transform="translate(921,967)" d="m0 0 1 4v6l-11 24-10 25-4 11-2-2-1-6 5-13 2-3 3-9 6-12 4-10 3-6 1-4h2z" fill="#DEDFE3"/>
<path transform="translate(1018,551)" d="m0 0 8 8 3 6 4 5 5 3 8-2 4-3 8 1-4 4-11 6h-7l-8-3-6-9-4-12z" fill="#E3E2E1"/>
<path transform="translate(1231,529)" d="m0 0 2 1-17 16-12 11-18 18-8 7-12 11-9 8-2-1 9-10 11-10 9-7 16-16 3-5h2l1-3 5-2 12-12z" fill="#F5F4F4"/>
<path transform="translate(597,881)" d="m0 0 4 5 5 10v3h2l7 16 14 31 7 17-1 4-2-1-4-10-10-24-3-5-4-10v-3h-2l-7-18-6-12z" fill="#D6D7DB"/>
<path transform="translate(502,365)" d="m0 0 2 1 2 4 5 3 2 4 4 2 8 6 4 2v2l4 2 21 21 6 5v2h2v2l4 2 3 3 6 1 4-5 3-1-2 5-5 4-6-1-10-9-15-14-8-7-7-7-8-7-8-6-8-7-3-3z" fill="#CC2A02"/>
<path transform="translate(891,623)" d="m0 0 2 2-3 17-1 10-6 19-4 7h-2l-2 5-4 4-2 4-5 1 2-4 4-6h2v-2h2l7-14 2-6 2-14 4-18z" fill="#E6E5E4"/>
<path transform="translate(338,539)" d="m0 0 4 2 15 15 11 9 12 11 11 9 7 6-2 2-3-3v-2l-4-1-5-3-11-9-12-11-8-7-5-6v-2l-4-2-6-7z" fill="#E5E4E4"/>
<path transform="translate(951,899)" d="m0 0 2 1-2 10-9 21-7 16-3 3h-2l-2 6-3 6-1-2 5-11 3-8 5-9 4-9 5-14z" fill="#E6E5E4"/>
<path transform="translate(661,261)" d="m0 0 1 3-4 12-4 4-5 12-9 16-3 5-3 7-5 12-4 6-4 10-4 6-1-3 5-9 4-10 5-9 5-12 4-7 6-11 4-7 3-9 5-7z" fill="#CC2A02"/>
<path transform="translate(969,859)" d="m0 0h3l-1 6-11 25-8 19-1-4 1-7 3-9 5-10 3-9 5-10z" fill="#DDDDE0"/>
<path transform="translate(834,1224)" d="m0 0h1l-1 10-7 20-5 17-2 4h-2l-1-4v-4l2-4h2l1-8 3-5 1-10 2-5 3-6 2-1z" fill="#E5E4E3"/>
<path transform="translate(711,1183)" d="m0 0 2 2 1 3v7h3l2 12 6 16 3 12 1 5h-2l-2-5-5-12-9-29z" fill="#E5E5E4"/>
<path transform="translate(662,516)" d="m0 0 2 3 7 34v4l-3-1-1-2v7l1 2-4 19h-1v-14l1-15 2-8-1-5 1-3h-2v-2l-2-1 1-7-1-4z" fill="#DDDDDE"/>
<path transform="translate(1269,538)" d="m0 0h1v42l-1 3-2 1-1 6h-1l1-34 1-13z" fill="#4154DB"/>
<path transform="translate(810,1289)" d="m0 0 2 2-1 2h2l-1 9-7 25-4 10h-2l1-7 2-4 1-9 2-3 2-15z" fill="#D2D3DA"/>
<path transform="translate(894,1031)" d="m0 0 2 4-1 7-7 22-4 5-1-7 5-16z" fill="#CECFD9"/>
<path transform="translate(656,1015)" d="m0 0 2 2 3 6 2 7 3 6 1 10 5 8 2 7v6l-2-1v-2h-2l-9-27-4-16z" fill="#DBDCE4"/>
<path transform="translate(1362,751)" d="m0 0 13 1v2l-2 1h-7l1 3-2 1v2h9v1h-32l2-2 10 1v-2l2-2 1-4z" fill="#A92004"/>
<path transform="translate(982,789)" d="m0 0h1v42l-2 2-2-4v-25l2-14z" fill="#959CC0"/>
<path transform="translate(190,598)" d="m0 0 5 1 3 5-9-1v2h5v3l4 2 1 2v13l-2-4-1-5-5-2-6-7v-5z" fill="#AA2206"/>
<path transform="translate(864,1122)" d="m0 0 2 3 1-3h2l-1 5-6 20-4 4-1-9 3-7 1-7z" fill="#DEDEE0"/>
<path transform="translate(1377,74)" d="m0 0 2 2-1 3-2 1-1 3-8 7-10 9-2-1 5-8 15-15z" fill="#DEDEE1"/>
<path transform="translate(729,1244)" d="m0 0 1 3 3 1 3 13 4 12 2 10h-3l-4-13-6-18z" fill="#ECEBEA"/>
<path transform="translate(1323,449)" d="m0 0 2 3 2 1-6 5h-2v2h-2v2h-2l-2 4-5 6-1-2 3-6-6 2 1-2h2v-2l9-6 5-5z" fill="#E3E2E1"/>
<path transform="translate(758,1334)" d="m0 0 3 4 2 10 3 1v5l-1 4-1 6h-1l-6-21-1-7z" fill="#E9E8E8"/>
<path transform="translate(1098,737)" d="m0 0h2l-2 4-10 11-5 2-2 4-5 3-7 9-3 4 1-6 2-4h2v-2h2l2-4 8-6z" fill="#E3E2E1"/>
<path transform="translate(609,912)" d="m0 0 1 2h2l5 13 7 14 5 14 6 12v3h-2l-10-24-13-29z" fill="#FAFAFA"/>
<path transform="translate(893,256)" d="m0 0 3 4 2 5 4 2 3 10 5 7 4 11 5 7 1 6-2-2-3-5-4-6-4-10-5-8-5-10-3-5z" fill="#CC2A02"/>
<path transform="translate(744,1291)" d="m0 0h2l6 21 2 8 2 5-1 3-3-3-6-18z" fill="#D5D6DD"/>
<path transform="translate(621,931)" d="m0 0 3 4 12 28-1 4-2-1-4-10-5-12-4-9z" fill="#CECFD8"/>
<path transform="translate(408,841)" d="m0 0h6l1 3h3l1 2v11l-7-6-4-6z" fill="#AC260A"/>
<path transform="translate(921,967)" d="m0 0 1 4v6l-7 15-3 1-3 3 3-9 5-11 1-4h2z" fill="#C5C7D7"/>
<path transform="translate(942,927)" d="m0 0 1 2-8 18-3 3h-2l-2 6-3 6-1-2 5-11 3-8 5-8 2-2 2-1z" fill="#C6C9D7"/>
<path transform="translate(196,423)" d="m0 0 2 1v45h-2l-1-14v-19z" fill="#E4E3E2"/>
<path transform="translate(576,720)" d="m0 0h1l1 26v41h-1l-1-21-2-8 1-2z" fill="#949BC0"/>
<path transform="translate(1130,696)" d="m0 0 5 2 1 3h3l2-4h1v10l-1 9-4-5-3-10-7-1z" fill="#E3E2E1"/>
<path transform="translate(177,80)" d="m0 0h2v25l-1 19h-1l-1-13v-26z" fill="#8A92C1"/>
<path transform="translate(658,485)" d="m0 0 6 2 2 3-4-1v9l2 6 1 8v10l-2-3-5-29z" fill="#AF2103"/>
<path transform="translate(997,449)" d="m0 0h5l3 4 3 9 1 8-2-1-3-8-4-6h-6l-2 2 1-5 1-2z" fill="#E3E2E1"/>
<path transform="translate(688,1117)" d="m0 0 5 5 3 9 4 13 1 6-2-1-3-8-3-5-5-16z" fill="#ECEBEB"/>
<path transform="translate(1231,529)" d="m0 0 2 1-17 16-11 10h-3v-3l3-1 1-3 5-2 12-12z" fill="#DDDFE9"/>
<path transform="translate(677,667)" d="m0 0 4 1 7 14 3 4v3h2l-1 4-4-4-8-13z" fill="#E5E4E3"/>
<path transform="translate(834,1224)" d="m0 0h1l-1 10-5 13-4-2 2-9 4-6v-2h2z" fill="#D7D7DC"/>
<path transform="translate(933,947)" d="m0 0 1 3-4 9-7 16-2-1v-8l2-4 2-1 5-11h2z" fill="#F1F1F0"/>
<path transform="translate(442,711)" d="m0 0 8 6 5 6 6 5 1 2 3 1 5 7 7 5-1 2-9-7-5-5-5-4-5-6-8-7z" fill="#E3E2E1"/>
<path transform="translate(695,208)" d="m0 0 1 2-4 7-2 6-5 10-1 3-3 1-1-3 9-17 4-8z" fill="#E8E7E7"/>
<path transform="translate(839,1200)" d="m0 0 4 1-1 8-5 12-3 1-1-3 1-5 1-3h2l-1-3 2-3h3z" fill="#DFDEE1"/>
<path transform="translate(306,508)" d="m0 0 4 2 5 4v2l4 2 19 19-1 2-12-11-19-19z" fill="#E1E0E0"/>
<path transform="translate(886,1065)" d="m0 0 1 2-5 16-1 4-3-1-1-5 4-13z" fill="#DFDFE2"/>
<path transform="translate(966,403)" d="m0 0 4 5 1 3 4 2 3 9 1 5h10l5-5 4-2-6 8-10 2h-3l-4-8-3-8-6-8z" fill="#CC2A02"/>
<path transform="translate(1102,721)" d="m0 0v3l-3 4h-2v2l-8 7-3 1-1 3h-2v2l-12 8-2-1 3-1v-2l7-5h2v-2l6-4 1-2h2l1-3 5-2 2-5z" fill="#FDFDFD"/>
<path transform="translate(671,1064)" d="m0 0 5 5 2 4v9l4 13-1 4-6-19-4-13z" fill="#ECECEE"/>
<path transform="translate(844,174)" d="m0 0 4 1 9 17-1 5-3-4-9-17z" fill="#E7E6E6"/>
<path transform="translate(665,523)" d="m0 0 2 1 3 15 3 13v7l-2-2-6-28z" fill="#AF2103"/>
<path transform="translate(673,560)" d="m0 0 2 1 5 20 1 14-2-1-6-29z" fill="#B32203"/>
<path transform="translate(1239,520)" d="m0 0 2 1-7 8-6 3-13 12-5 5-2-1 5-6 8-7 11-10 5-3z" fill="#CFD0D8"/>
<path transform="translate(796,1346)" d="m0 0h1l-1 9-5 12h-1v-15l2-4h1v5l2-6z" fill="#DCDCDE"/>
<path transform="translate(1203,554)" d="m0 0 1 3-18 18-8 6 1-4 8-7z" fill="#F7F7F6"/>
<path transform="translate(1082,549)" d="m0 0 4 1-8 8-12 7-2-1 6-5h2l2-4z" fill="#E3E2E1"/>
<path transform="translate(712,501)" d="m0 0 12 1 20 4 7 1v1h-9l-12-1-18-5z" fill="#E3E2E1"/>
<path transform="translate(715,167)" d="m0 0h2l-2 7-3 4-2 5-4 8-4 5 2-9 10-19z" fill="#E5E4E4"/>
<path transform="translate(912,992)" d="m0 0h2l-3 9-5 12-1-4v-4l1-6 3-4z" fill="#E9E9EB"/>
<path transform="translate(1142,850)" d="m0 0 3 1-1 4-1 2-1 23h-1l-1-18-2-1-1-4v-3h3v-2h2z" fill="#B6391E"/>
<path transform="translate(440,544)" d="m0 0 6 2 13 10 2 4 4 2 3 4-5-2-5-5-6-5-3-3-9-5z" fill="#FDFDFD"/>
<path transform="translate(205,102)" d="m0 0 4 2 4 1 7 8 16 16h-3l-10-10-6-5-5-5-7-6z" fill="#E3E2E1"/>
<path transform="translate(921,312)" d="m0 0 4 4 4 6 2 9 3 5 4 3 1 10-2-2-2-7-5-5-3-12-6-8z" fill="#CC2A02"/>
<path transform="translate(879,670)" d="m0 0 1 3-5 10-4 4-2 4-5 1 2-4 4-6h2v-2h2l2-4z" fill="#F1F0F0"/>
<path transform="translate(739,521)" d="m0 0 16 3 15 1 1 2h-23l-8-4z" fill="#FDFDFD"/>
<path transform="translate(878,1083)" d="m0 0 2 4-2 9-2 5-3 1 1-11z" fill="#BCBFD2"/>
<path transform="translate(964,877)" d="m0 0 1 2-10 23-3 7-1-4 6-15 5-12z" fill="#F3F2F2"/>
<path transform="translate(894,1031)" d="m0 0 2 4-1 7-3 9-2-3-1-5z" fill="#DDDCDF"/>
<path transform="translate(635,966)" d="m0 0h2l2 9h2l2 5-1 4-5-5-3-9z" fill="#DEDEE1"/>
<path transform="translate(721,1219)" d="m0 0h2l6 18v3h-2l-2-5-4-9z" fill="#DBDBDF"/>
<path transform="translate(665,555)" d="m0 0h1l2 8-4 19h-1v-14l1-12z" fill="#E3E2E1"/>
<path transform="translate(596,883)" d="m0 0 3 3 8 17 2 9-3-4-10-23z" fill="#F6F6F6"/>
<path transform="translate(962,876)" d="m0 0 1 2-6 15-3 7-2-4 7-16z" fill="#939ABF"/>
<path transform="translate(889,629)" d="m0 0h1l-1 11-2 10-1 2-2 12-2 2 2-16 3-13z" fill="#FDFDFD"/>
<path transform="translate(338,539)" d="m0 0 4 2 16 16-1 2-8-6-1-4-4-2-6-7z" fill="#9BA2C3"/>
<path transform="translate(1012,515)" d="m0 0h1l3 12-1 5v9l-2-2-2-17z" fill="#E3E2E1"/>
<path transform="translate(807,522)" d="m0 0 2 1-7 3-17 2-10-1v-1l24-2z" fill="#FDFDFD"/>
<path transform="translate(628,949)" d="m0 0h2l6 14-1 4-2-1-4-10-2-6z" fill="#C7C9D5"/>
<path transform="translate(876,597)" d="m0 0h1v9l-4 18-2 1 1-12z" fill="#B52303"/>
<path transform="translate(720,517)" d="m0 0h9l9 2 1 2h-13l-9-1-1-2z" fill="#FDFDFD"/>
<path transform="translate(1038,380)" d="m0 0h2l-2 4-4 4h-2l-2 4-7 6v-3z" fill="#CC2A02"/>
<path transform="translate(685,1103)" d="m0 0 2 3v2h2l3 11-1 3-2-5h-2l-2-6z" fill="#D1D3DC"/>
<path transform="translate(872,1097)" d="m0 0 3 3-1 8-2 3h-3l-1-4z" fill="#E5E4E3"/>
<path transform="translate(702,1155)" d="m0 0 3 4 3 10 2 4v5l-3-3v-4h-2l-3-13z" fill="#E3E2E1"/>
<path transform="translate(1141,688)" d="m0 0h1v9l-2 4h-4l-4-4 1-2 4 1 3-4z" fill="#FDFDFD"/>
<path transform="translate(662,516)" d="m0 0 2 3 3 15-1 4-2-1v-2l-2-1 1-7-1-4z" fill="#DADADD"/>
<path transform="translate(1231,529)" d="m0 0 2 1-17 16-4 2 6-7 11-11z" fill="#FDFDFD"/>
<path transform="translate(656,1015)" d="m0 0 2 2 3 6 2 7 2 5-2 1-3-3-3-12z" fill="#AEB3CC"/>
<path transform="translate(223,439)" d="m0 0 4 1v2l5 2 1 2h-5l-1 2h-2l-3-5z" fill="#E3E2E1"/>
<path transform="translate(926,961)" d="m0 0 1 2-3 10-2 2-1-4 1-7 2-2z" fill="#E3E4E7"/>
<path transform="translate(885,554)" d="m0 0h1l-1 10-2 13-3 1 2-13z" fill="#B42303"/>
<path transform="translate(178,98)" d="m0 0h1l-1 26h-1l-1-13v-11h2z" fill="#9BA1C3"/>
<path transform="translate(819,1263)" d="m0 0h2l2 2-1 6-2 4h-2l-1-4v-4z" fill="#D7D7DC"/>
<path transform="translate(1079,817)" d="m0 0h10l3 3-7 1-11-1 2-2z" fill="#E3E2E1"/>
<path transform="translate(664,592)" d="m0 0h1v8h2l1 16-2 2-3-24z" fill="#E7E6E5"/>
<path transform="translate(597,881)" d="m0 0 4 5 6 13 1 5-3-3-8-17z" fill="#9299BF"/>
<path transform="translate(668,1049)" d="m0 0 4 5 2 7v6l-3-3-2-9-2-5z" fill="#CCCDD7"/>
<path transform="translate(943,917)" d="m0 0h1l1 8-5 6-2 2-1-2 4-8z" fill="#9BA1C3"/>
<path transform="translate(679,668)" d="m0 0h2l7 14 3 4-1 3-8-12z" fill="#FDFDFD"/>
<path transform="translate(673,560)" d="m0 0 2 1 3 13-1 4-2-3-2-10z" fill="#AE2103"/>
<path transform="translate(335,221)" d="m0 0 9 5 5 5 2 3-4-2-11-8z" fill="#E3E2E1"/>
<path transform="translate(802,1321)" d="m0 0 3 1-1 7-3 8h-2l1-7 2-4z" fill="#A5AAC7"/>
<path transform="translate(904 1e3)" d="m0 0 3 2-4 11-2 1-1-3z" fill="#BDC0D1"/>
<path transform="translate(190,598)" d="m0 0 5 1 3 5-13-1z" fill="#AA2509"/>
<path transform="translate(951,899)" d="m0 0 2 1-1 5-4 5-3 7-1-3 5-11z" fill="#969DC0"/>
<path transform="translate(1169,585)" d="m0 0 2 1-7 7-7 8-2-1 9-10z" fill="#F1F1F0"/>
<path transform="translate(799,1324)" d="m0 0h2l1 5-2 4v7l-1 3-3-1 1-2 1-11z" fill="#E1E0E0"/>
<path transform="translate(893,517)" d="m0 0h1l-1 13-2 6h-1l1-13z" fill="#B42303"/>
<path transform="translate(658,485)" d="m0 0 6 2 2 3-4-1-2 8h-1z" fill="#B42303"/>
<path transform="translate(957,382)" d="m0 0 2 2 4 8v2h2l1 9-2-3-4-8-3-7z" fill="#CC2A02"/>
<path transform="translate(921,967)" d="m0 0 1 4v6l-1 2h-4l1-7h2z" fill="#C3C5D6"/>
<path transform="translate(1100,537)" d="m0 0 3 1-4 1v2l-9 6-2-1 5-5z" fill="#E3E2E1"/>
<path transform="translate(744,1291)" d="m0 0h2l2 7v9h-2z" fill="#E6E6E9"/>
<path transform="translate(737,1271)" d="m0 0h2l3 9v3h-3l-1-7z" fill="#DADAE0"/>
<path transform="translate(385,584)" d="m0 0 8 4 7 7h-4l-11-10z" fill="#FDFDFD"/>
<path transform="translate(889,537)" d="m0 0h1l-1 10-2 5h-1v-7z" fill="#B22203"/>
<path transform="translate(1011,493)" d="m0 0 3 4 1 3-2 8-2-2z" fill="#E3E2E1"/>
<path transform="translate(717,1210)" d="m0 0 4 2 1 7-2 4-3-10z" fill="#EDEDEC"/>
<path transform="translate(1136,735)" d="m0 0 3 3 1 5v11h-1l-2-12-1-1z" fill="#E3E2E1"/>
<path transform="translate(884,663)" d="m0 0 1 2-4 10-2 3-2-1 4-11h2z" fill="#E7E6E5"/>
<path transform="translate(888,647)" d="m0 0h1l-1 7-3 9-1-2 1-9z" fill="#E3E2E1"/>
<path transform="translate(783,552)" d="m0 0 4 1-3 4h-2l-1 2-3-1 2-4z" fill="#9299BF"/>
<path transform="translate(205,102)" d="m0 0 4 2 4 1 6 7v2h-2l-5-5-7-6z" fill="#D5D6DB"/>
<path transform="translate(916,979)" d="m0 0h4l-3 9-2-1-1-5z" fill="#E1E1E5"/>
<path transform="translate(607,899)" d="m0 0 3 4 2 11h-2l-3-10z" fill="#CDCED7"/>
<path transform="translate(353,556)" d="m0 0 4 2h3l3 3v3l-5-2z" fill="#D0D1DA"/>
<path transform="translate(553,469)" d="m0 0 1 3-5 17-1-4 2-7 1-5z" fill="#E3E2E1"/>
<path transform="translate(1052,369)" d="m0 0v3l-10 8-2-1 4-5z" fill="#CC2A02"/>
<path transform="translate(847,1182)" d="m0 0h2l-1 6-1 2-4-2 2-5z" fill="#CFD0D9"/>
<path transform="translate(884,1058)" d="m0 0 1 2 3 1-3 8-2-3z" fill="#C3C5D3"/>
<path transform="translate(453,720)" d="m0 0 9 6 3 5-4-1-4-5-4-3z" fill="#FDFDFD"/>
<path transform="translate(894,1031)" d="m0 0 2 4-1 7h-2l-1-6z" fill="#9BA2C3"/>
<path transform="translate(696,695)" d="m0 0 7 3v2h2v2h2v2l-4-1-7-6z" fill="#ECECEB"/>
<path transform="translate(895,578)" d="m0 0 3 4v6l-3 2z" fill="#EFEFEE"/>
<path transform="translate(328,529)" d="m0 0 4 2 5 5v3l-9-8z" fill="#C5C6D4"/>
<path transform="translate(695,208)" d="m0 0 1 2-5 8-2 1 3-9z" fill="#E9E9E8"/>
<path transform="translate(790,1355)" d="m0 0 3 3-1 8-2 1z" fill="#9CA2C4"/>
<path transform="translate(465,731)" d="m0 0 7 6 5 6-4-2-5-4-3-4z" fill="#FDFDFD"/>
<path transform="translate(185,83)" d="m0 0 6 3 6 8-4-2-8-7z" fill="#AAAFC9"/>
</svg>
