<?xml version="1.0" encoding="UTF-8"?>
<svg version="1.1" xmlns="http://www.w3.org/2000/svg" width="573" height="435">
<path d="M0 0 C15.84 0 31.68 0 48 0 C48 5.28 48 10.56 48 16 C53.28 16 58.56 16 64 16 C64 21.28 64 26.56 64 32 C69.28 32 74.56 32 80 32 C80 37.28 80 42.56 80 48 C85.28 48 90.56 48 96 48 C96.33 52.95 96.66 57.9 97 63 C101.95 63.33 106.9 63.66 112 64 C112 90.4 112 116.8 112 144 C127.84 144 143.68 144 160 144 C159.67 142.35 159.34 140.7 159 139 C158.91206845 137.25171394 158.86975902 135.50048812 158.875 133.75 C158.87242187 132.87859375 158.86984375 132.0071875 158.8671875 131.109375 C159 129 159 129 160 128 C161.9943173 127.90594858 163.99199543 127.88256751 165.98852539 127.88647461 C167.26977798 127.88655014 168.55103058 127.88662567 169.87110901 127.88670349 C171.27995848 127.89181091 172.68880756 127.89702691 174.09765625 127.90234375 C175.53112234 127.90420798 176.96458907 127.90563186 178.39805603 127.90663147 C182.17759957 127.91045628 185.9571049 127.92028623 189.7366333 127.93133545 C193.59069298 127.94155037 197.44475882 127.94612926 201.29882812 127.95117188 C208.86590488 127.96190855 216.43294223 127.97950503 224 128 C224 133.28 224 138.56 224 144 C234.56 144 245.12 144 256 144 C256 148.95 256 153.9 256 159 C261.28 159 266.56 159 272 159 C272 169.89 272 180.78 272 192 C266.72 192 261.44 192 256 192 C256 197.28 256 202.56 256 208 C245.44 208 234.88 208 224 208 C224 212.95 224 217.9 224 223 C223 224 223 224 220.48802185 224.12025452 C219.37105423 224.11803391 218.25408661 224.11581329 217.10327148 224.11352539 C215.84203964 224.11344986 214.5808078 224.11337433 213.28135681 224.11329651 C211.89460206 224.1081891 210.50784771 224.10297309 209.12109375 224.09765625 C207.71004791 224.09579201 206.29900143 224.09436814 204.88795471 224.09336853 C201.16759465 224.08954379 197.4472734 224.0797139 193.72692871 224.06866455 C189.93319219 224.05844948 186.13944942 224.05387071 182.34570312 224.04882812 C174.89711564 224.03809158 167.4485682 224.02049515 160 224 C159.67 219.05 159.34 214.1 159 209 C154.05 209 149.1 209 144 209 C143.67 213.95 143.34 218.9 143 224 C116.93 224 90.86 224 64 224 C64 229.28 64 234.56 64 240 C58.72 240 53.44 240 48 240 C48 255.84 48 271.68 48 288 C53.28 288 58.56 288 64 288 C64 292.95 64 297.9 64 303 C69.28 303 74.56 303 80 303 C80.33 313.56 80.66 324.12 81 335 C84.96 335 88.92 335 93 335 C93.99 335.33 94.98 335.66 96 336 C96 340.95 96 345.9 96 351 C101.28 351 106.56 351 112 351 C112 361.89 112 372.78 112 384 C64.48 384 16.96 384 -32 384 C-32 373.11 -32 362.22 -32 351 C-26.72 351 -21.44 351 -16 351 C-16 340.44 -16 329.88 -16 319 C-26.23 319.33 -36.46 319.66 -47 320 C-47.33 325.28 -47.66 330.56 -48 336 C-53.28 336 -58.56 336 -64 336 C-64 341.28 -64 346.56 -64 352 C-69.28 352 -74.56 352 -80 352 C-80 362.56 -80 373.12 -80 384 C-127.52 384 -175.04 384 -224 384 C-225 358 -225 358 -224 351 C-219.05 351 -214.1 351 -209 351 C-209.020625 349.824375 -209.04125 348.64875 -209.0625 347.4375 C-209.06947261 343.52586533 -208.64250343 339.85502056 -208 336 C-204.13792926 335.09183202 -200.56851344 334.88356155 -196.60546875 334.90234375 C-194.80239258 334.90717773 -194.80239258 334.90717773 -192.96289062 334.91210938 C-191.71701172 334.92048828 -190.47113281 334.92886719 -189.1875 334.9375 C-187.92228516 334.94201172 -186.65707031 334.94652344 -185.35351562 334.95117188 C-182.2356568 334.96293738 -179.11782235 334.98087226 -176 335 C-176 329.72 -176 324.44 -176 319 C-165.44 319 -154.88 319 -144 319 C-144 313.72 -144 308.44 -144 303 C-138.72 303 -133.44 303 -128 303 C-128 298.05 -128 293.1 -128 288 C-122.72 288 -117.44 288 -112 288 C-112 282.39 -112 276.78 -112 271 C-106.72 271 -101.44 271 -96 271 C-96 266.05 -96 261.1 -96 256 C-101.28 256 -106.56 256 -112 256 C-112 250.72 -112 245.44 -112 240 C-117.28 240 -122.56 240 -128 240 C-128 234.72 -128 229.44 -128 224 C-133.28 224 -138.56 224 -144 224 C-144 218.72 -144 213.44 -144 208 C-149.28 208 -154.56 208 -160 208 C-160 202.72 -160 197.44 -160 192 C-165.28 192 -170.56 192 -176 192 C-176 176.16 -176 160.32 -176 144 C-170.72 144 -165.44 144 -160 144 C-160 138.72 -160 133.44 -160 128 C-154.72 128 -149.44 128 -144 128 C-144 122.39 -144 116.78 -144 111 C-133.44 111 -122.88 111 -112 111 C-112 105.72 -112 100.44 -112 95 C-101.77 95 -91.54 95 -81 95 C-80.67 90.05 -80.34 85.1 -80 80 C-75.05 80 -70.1 80 -65 80 C-65 69.44 -65 58.88 -65 48 C-59.39 48 -53.78 48 -48 48 C-48 42.72 -48 37.44 -48 32 C-42.72 32 -37.44 32 -32 32 C-32 26.72 -32 21.44 -32 16 C-21.44 16 -10.88 16 0 16 C0 10.72 0 5.44 0 0 Z " fill="#0371ED" transform="translate(263,26)"/>
<path d="M0 0 C5.28 0 10.56 0 16 0 C16 10.23 16 20.46 16 31 C26.56 31 37.12 31 48 31 C48 36.61 48 42.22 48 48 C53.28 48 58.56 48 64 48 C64 42.39 64 36.78 64 31 C69.28 31 74.56 31 80 31 C80 36.61 80 42.22 80 48 C85.28 48 90.56 48 96 48 C96 53.28 96 58.56 96 64 C101.28 64 106.56 64 112 64 C112 74.56 112 85.12 112 96 C106.72 96 101.44 96 96 96 C96 101.28 96 106.56 96 112 C101.28 112 106.56 112 112 112 C112 117.28 112 122.56 112 128 C138.07 128 164.14 128 191 128 C191 122.72 191 117.44 191 112 C196.61 112 202.22 112 208 112 C208 127.84 208 143.68 208 160 C213.28 160 218.56 160 224 160 C224 164.95 224 169.9 224 175 C229.28 175 234.56 175 240 175 C240.33 185.56 240.66 196.12 241 207 C244.96 207 248.92 207 253 207 C253.99 207.33 254.98 207.66 256 208 C256 212.95 256 217.9 256 223 C261.28 223 266.56 223 272 223 C272 233.89 272 244.78 272 256 C224.48 256 176.96 256 128 256 C128 245.11 128 234.22 128 223 C133.28 223 138.56 223 144 223 C144 212.44 144 201.88 144 191 C128.655 191.495 128.655 191.495 113 192 C112.67 197.28 112.34 202.56 112 208 C106.72 208 101.44 208 96 208 C96 213.28 96 218.56 96 224 C90.72 224 85.44 224 80 224 C80 234.56 80 245.12 80 256 C32.48 256 -15.04 256 -64 256 C-65 230 -65 230 -64 223 C-59.05 223 -54.1 223 -49 223 C-49.020625 221.824375 -49.04125 220.64875 -49.0625 219.4375 C-49.06947261 215.52586533 -48.64250343 211.85502056 -48 208 C-44.13792926 207.09183202 -40.56851344 206.88356155 -36.60546875 206.90234375 C-34.80239258 206.90717773 -34.80239258 206.90717773 -32.96289062 206.91210938 C-31.71701172 206.92048828 -30.47113281 206.92886719 -29.1875 206.9375 C-27.92228516 206.94201172 -26.65707031 206.94652344 -25.35351562 206.95117188 C-22.2356568 206.96293738 -19.11782235 206.98087226 -16 207 C-16 201.72 -16 196.44 -16 191 C-5.44 191 5.12 191 16 191 C16 185.72 16 180.44 16 175 C21.28 175 26.56 175 32 175 C32 170.05 32 165.1 32 160 C37.28 160 42.56 160 48 160 C48 154.39 48 148.78 48 143 C53.28 143 58.56 143 64 143 C64 138.05 64 133.1 64 128 C58.72 128 53.44 128 48 128 C48 122.72 48 117.44 48 112 C42.72 112 37.44 112 32 112 C32 106.72 32 101.44 32 96 C26.72 96 21.44 96 16 96 C16 90.72 16 85.44 16 80 C10.72 80 5.44 80 0 80 C0 74.72 0 69.44 0 64 C-5.28 64 -10.56 64 -16 64 C-16 48.16 -16 32.32 -16 16 C-10.72 16 -5.44 16 0 16 C0 10.72 0 5.44 0 0 Z " fill="#0271EC" transform="translate(103,154)"/>
<path d="M0 0 C15.84 0 31.68 0 48 0 C48 5.28 48 10.56 48 16 C53.28 16 58.56 16 64 16 C64 21.28 64 26.56 64 32 C69.28 32 74.56 32 80 32 C80 37.28 80 42.56 80 48 C85.28 48 90.56 48 96 48 C96.33 52.95 96.66 57.9 97 63 C101.95 63.33 106.9 63.66 112 64 C112 90.4 112 116.8 112 144 C127.84 144 143.68 144 160 144 C159.67 142.35 159.34 140.7 159 139 C158.91206845 137.25171394 158.86975902 135.50048812 158.875 133.75 C158.87242187 132.87859375 158.86984375 132.0071875 158.8671875 131.109375 C159 129 159 129 160 128 C161.9943173 127.90594858 163.99199543 127.88256751 165.98852539 127.88647461 C167.26977798 127.88655014 168.55103058 127.88662567 169.87110901 127.88670349 C171.27995848 127.89181091 172.68880756 127.89702691 174.09765625 127.90234375 C175.53112234 127.90420798 176.96458907 127.90563186 178.39805603 127.90663147 C182.17759957 127.91045628 185.9571049 127.92028623 189.7366333 127.93133545 C193.59069298 127.94155037 197.44475882 127.94612926 201.29882812 127.95117188 C208.86590488 127.96190855 216.43294223 127.97950503 224 128 C224 133.28 224 138.56 224 144 C234.56 144 245.12 144 256 144 C256 148.95 256 153.9 256 159 C261.28 159 266.56 159 272 159 C272 169.89 272 180.78 272 192 C266.72 192 261.44 192 256 192 C256 197.28 256 202.56 256 208 C245.44 208 234.88 208 224 208 C224 212.95 224 217.9 224 223 C223 224 223 224 220.48802185 224.12025452 C219.37105423 224.11803391 218.25408661 224.11581329 217.10327148 224.11352539 C215.84203964 224.11344986 214.5808078 224.11337433 213.28135681 224.11329651 C211.89460206 224.1081891 210.50784771 224.10297309 209.12109375 224.09765625 C207.71004791 224.09579201 206.29900143 224.09436814 204.88795471 224.09336853 C201.16759465 224.08954379 197.4472734 224.0797139 193.72692871 224.06866455 C189.93319219 224.05844948 186.13944942 224.05387071 182.34570312 224.04882812 C174.89711564 224.03809158 167.4485682 224.02049515 160 224 C159.67 219.05 159.34 214.1 159 209 C154.05 209 149.1 209 144 209 C143.67 213.95 143.34 218.9 143 224 C116.93 224 90.86 224 64 224 C64 229.28 64 234.56 64 240 C58.72 240 53.44 240 48 240 C48 234.72 48 229.44 48 224 C52.95 224 57.9 224 63 224 C63 218.72 63 213.44 63 208 C36.93 208 10.86 208 -16 208 C-16 202.72 -16 197.44 -16 192 C10.4 192 36.8 192 64 192 C64 186.72 64 181.44 64 176 C68.95 176 73.9 176 79 176 C79 170.39 79 164.78 79 159 C84.28 159 89.56 159 95 159 C95 138.21 95 117.42 95 96 C90.05 96 85.1 96 80 96 C80 111.84 80 127.68 80 144 C74.39 144 68.78 144 63 144 C63 133.44 63 122.88 63 112 C58.05 112 53.1 112 48 112 C48 122.56 48 133.12 48 144 C37.44 144 26.88 144 16 144 C16 133.11 16 122.22 16 111 C26.56 111 37.12 111 48 111 C48 105.72 48 100.44 48 95 C26.88 95 5.76 95 -16 95 C-16 94.67 -16 94.34 -16 94 C4.46 94 24.92 94 46 94 C46 90.04 46 86.08 46 82 C44.64455078 82.12568359 44.64455078 82.12568359 43.26171875 82.25390625 C41.49248047 82.40666016 41.49248047 82.40666016 39.6875 82.5625 C38.51574219 82.66691406 37.34398437 82.77132812 36.13671875 82.87890625 C33 83 33 83 30 82 C30 71.11 30 60.22 30 49 C25.38 49 20.76 49 16 49 C16 43.39 16 37.78 16 32 C0.16 32 -15.68 32 -32 32 C-32 26.72 -32 21.44 -32 16 C-21.44 16 -10.88 16 0 16 C0 10.72 0 5.44 0 0 Z " fill="#010204" transform="translate(263,26)"/>
<path d="M0 0 C5.28 0 10.56 0 16 0 C16 15.84 16 31.68 16 48 C21.28 48 26.56 48 32 48 C32 52.95 32 57.9 32 63 C37.28 63 42.56 63 48 63 C48.33 73.56 48.66 84.12 49 95 C52.96 95 56.92 95 61 95 C62.485 95.495 62.485 95.495 64 96 C64 100.95 64 105.9 64 111 C69.28 111 74.56 111 80 111 C80 121.89 80 132.78 80 144 C32.48 144 -15.04 144 -64 144 C-64 133.11 -64 122.22 -64 111 C-58.72 111 -53.44 111 -48 111 C-48 100.44 -48 89.88 -48 79 C-32.16 79 -16.32 79 0 79 C0 73.72 0 68.44 0 63 C4.95 63 9.9 63 15 63 C15 58.05 15 53.1 15 48 C10.05 48 5.1 48 0 48 C0 32.16 0 16.32 0 0 Z " fill="#0270EE" transform="translate(295,266)"/>
<path d="M0 0 C10.23 0 20.46 0 31 0 C31 5.28 31 10.56 31 16 C36.61 16 42.22 16 48 16 C48 26.23 48 36.46 48 47 C53.28 47 58.56 47 64 47 C64 52.61 64 58.22 64 64 C69.28 64 74.56 64 80 64 C80 69.28 80 74.56 80 80 C85.28 80 90.56 80 96 80 C96 85.28 96 90.56 96 96 C122.07 96 148.14 96 175 96 C175 101.28 175 106.56 175 112 C170.05 112 165.1 112 160 112 C160 117.28 160 122.56 160 128 C154.39 128 148.78 128 143 128 C143 133.28 143 138.56 143 144 C116.93 144 90.86 144 64 144 C64 138.72 64 133.44 64 128 C58.72 128 53.44 128 48 128 C48 122.72 48 117.44 48 112 C53.28 112 58.56 112 64 112 C64 101.44 64 90.88 64 80 C58.72 80 53.44 80 48 80 C48 74.72 48 69.44 48 64 C42.72 64 37.44 64 32 64 C32 58.39 32 52.78 32 47 C26.72 47 21.44 47 16 47 C16 52.61 16 58.22 16 64 C10.72 64 5.44 64 0 64 C0 58.39 0 52.78 0 47 C-10.56 47 -21.12 47 -32 47 C-32 36.77 -32 26.54 -32 16 C-21.44 16 -10.88 16 0 16 C0 10.72 0 5.44 0 0 Z " fill="#3ABCFC" transform="translate(151,138)"/>
<path d="M0 0 C5.28 0 10.56 0 16 0 C16 10.23 16 20.46 16 31 C21.28 31 26.56 31 32 31 C32 36.61 32 42.22 32 48 C42.56 48 53.12 48 64 48 C64 53.28 64 58.56 64 64 C58.72 64 53.44 64 48 64 C48 74.56 48 85.12 48 96 C0.48 96 -47.04 96 -96 96 C-97 70 -97 70 -96 63 C-91.05 63 -86.1 63 -81 63 C-81.020625 61.824375 -81.04125 60.64875 -81.0625 59.4375 C-81.06947261 55.52586533 -80.64250343 51.85502056 -80 48 C-76.13792926 47.09183202 -72.56851344 46.88356155 -68.60546875 46.90234375 C-66.80239258 46.90717773 -66.80239258 46.90717773 -64.96289062 46.91210938 C-63.71701172 46.92048828 -62.47113281 46.92886719 -61.1875 46.9375 C-59.92228516 46.94201172 -58.65707031 46.94652344 -57.35351562 46.95117188 C-54.2356568 46.96293738 -51.11782235 46.98087226 -48 47 C-48 41.72 -48 36.44 -48 31 C-37.44 31 -26.88 31 -16 31 C-16 25.72 -16 20.44 -16 15 C-10.72 15 -5.44 15 0 15 C0 10.05 0 5.1 0 0 Z " fill="#036FE9" transform="translate(135,314)"/>
<path d="M0 0 C5.28 0 10.56 0 16 0 C16 10.23 16 20.46 16 31 C26.56 31 37.12 31 48 31 C48 36.61 48 42.22 48 48 C53.28 48 58.56 48 64 48 C64 42.39 64 36.78 64 31 C69.28 31 74.56 31 80 31 C80 36.61 80 42.22 80 48 C85.28 48 90.56 48 96 48 C96 53.28 96 58.56 96 64 C101.28 64 106.56 64 112 64 C112 74.56 112 85.12 112 96 C106.72 96 101.44 96 96 96 C96 101.28 96 106.56 96 112 C90.72 112 85.44 112 80 112 C80 122.23 80 132.46 80 143 C74.72 143 69.44 143 64 143 C64 138.05 64 133.1 64 128 C58.72 128 53.44 128 48 128 C48 122.72 48 117.44 48 112 C42.72 112 37.44 112 32 112 C32 106.72 32 101.44 32 96 C26.72 96 21.44 96 16 96 C16 90.72 16 85.44 16 80 C10.72 80 5.44 80 0 80 C0 74.72 0 69.44 0 64 C-5.28 64 -10.56 64 -16 64 C-16 48.16 -16 32.32 -16 16 C-10.72 16 -5.44 16 0 16 C0 10.72 0 5.44 0 0 Z " fill="#0370EB" transform="translate(103,154)"/>
<path d="M0 0 C21.12 0 42.24 0 64 0 C64 4.95 64 9.9 64 15 C53.44 15 42.88 15 32 15 C32 25.89 32 36.78 32 48 C42.56 48 53.12 48 64 48 C64 37.44 64 26.88 64 16 C68.95 16 73.9 16 79 16 C79 26.56 79 37.12 79 48 C84.61 48 90.22 48 96 48 C96 32.16 96 16.32 96 0 C100.95 0 105.9 0 111 0 C111 20.79 111 41.58 111 63 C105.72 63 100.44 63 95 63 C95 68.61 95 74.22 95 80 C90.05 80 85.1 80 80 80 C80 85.28 80 90.56 80 96 C53.6 96 27.2 96 0 96 C0 85.11 0 74.22 0 63 C-5.28 63 -10.56 63 -16 63 C-16 47.49 -16 31.98 -16 16 C-10.72 16 -5.44 16 0 16 C0 10.72 0 5.44 0 0 Z " fill="#FCFDFC" transform="translate(247,122)"/>
<path d="M0 0 C15.84 0 31.68 0 48 0 C48 5.28 48 10.56 48 16 C53.28 16 58.56 16 64 16 C64 26.56 64 37.12 64 48 C53.44 48 42.88 48 32 48 C32 58.56 32 69.12 32 80 C36.95 80 41.9 80 47 80 C47 74.72 47 69.44 47 64 C62.84 64 78.68 64 95 64 C95 74.56 95 85.12 95 96 C90.05 96 85.1 96 80 96 C80 111.84 80 127.68 80 144 C74.39 144 68.78 144 63 144 C63 133.44 63 122.88 63 112 C58.05 112 53.1 112 48 112 C48 122.56 48 133.12 48 144 C37.44 144 26.88 144 16 144 C16 133.11 16 122.22 16 111 C26.56 111 37.12 111 48 111 C48 105.72 48 100.44 48 95 C26.88 95 5.76 95 -16 95 C-16 94.67 -16 94.34 -16 94 C4.46 94 24.92 94 46 94 C46 90.04 46 86.08 46 82 C44.64455078 82.12568359 44.64455078 82.12568359 43.26171875 82.25390625 C41.49248047 82.40666016 41.49248047 82.40666016 39.6875 82.5625 C38.51574219 82.66691406 37.34398437 82.77132812 36.13671875 82.87890625 C33 83 33 83 30 82 C30 71.11 30 60.22 30 49 C25.38 49 20.76 49 16 49 C16 43.39 16 37.78 16 32 C0.16 32 -15.68 32 -32 32 C-32 26.72 -32 21.44 -32 16 C-21.44 16 -10.88 16 0 16 C0 10.72 0 5.44 0 0 Z " fill="#1168CD" transform="translate(263,26)"/>
<path d="M0 0 C1.70209877 0.00333092 1.70209877 0.00333092 3.43858337 0.00672913 C4.71983597 0.00680466 6.00108856 0.00688019 7.32116699 0.00695801 C8.73001646 0.01206542 10.13886554 0.01728143 11.54771423 0.02259827 C12.98118033 0.02446249 14.41464706 0.02588637 15.84811401 0.02688599 C19.62765755 0.03071079 23.40716288 0.04054075 27.18669128 0.05158997 C31.04075097 0.06180489 34.8948168 0.06638378 38.74888611 0.07142639 C46.31596287 0.08216306 53.88300021 0.09975955 61.45005798 0.12025452 C61.45005798 5.40025452 61.45005798 10.68025452 61.45005798 16.12025452 C72.01005798 16.12025452 82.57005798 16.12025452 93.45005798 16.12025452 C93.45005798 21.07025452 93.45005798 26.02025452 93.45005798 31.12025452 C98.73005798 31.12025452 104.01005798 31.12025452 109.45005798 31.12025452 C109.45005798 42.01025452 109.45005798 52.90025452 109.45005798 64.12025452 C104.17005798 64.12025452 98.89005798 64.12025452 93.45005798 64.12025452 C93.45005798 69.40025452 93.45005798 74.68025452 93.45005798 80.12025452 C82.89005798 80.12025452 72.33005798 80.12025452 61.45005798 80.12025452 C61.45005798 85.07025452 61.45005798 90.02025452 61.45005798 95.12025452 C60.45005798 96.12025452 60.45005798 96.12025452 57.93807983 96.24050903 C56.82111221 96.23828842 55.70414459 96.23606781 54.55332947 96.23377991 C53.29209763 96.23370438 52.03086578 96.23362885 50.73141479 96.23355103 C49.34466005 96.22844362 47.95790569 96.22322761 46.57115173 96.21791077 C45.1601059 96.21604653 43.74905941 96.21462265 42.3380127 96.21362305 C38.61765263 96.20979831 34.89733138 96.19996841 31.17698669 96.18891907 C27.38325018 96.17870399 23.58950741 96.17412522 19.79576111 96.16908264 C12.34717567 96.1583461 4.89862226 96.14127022 -2.54994202 96.12025452 C-2.74383297 93.64143321 -2.93034324 91.16244521 -3.11244202 88.68275452 C-3.16851624 87.97570374 -3.22459045 87.26865295 -3.28236389 86.54017639 C-3.41185195 84.73597614 -3.48515809 82.927935 -3.54994202 81.12025452 C-2.54994202 80.12025452 -2.54994202 80.12025452 -0.60742188 80 C0.24307236 80.00222061 1.09356659 80.00444122 1.96983337 80.00672913 C3.41121422 80.00684242 3.41121422 80.00684242 4.88171387 80.00695801 C6.44888405 80.01469994 6.44888405 80.01469994 8.04771423 80.02259827 C9.11170944 80.02401321 10.17570465 80.02542816 11.27194214 80.02688599 C14.68550882 80.03250388 18.09901098 80.04505941 21.51255798 80.05775452 C23.82049975 80.06276721 26.12844254 80.06733052 28.43638611 80.07142639 C34.1076351 80.08247913 39.77883559 80.09975574 45.45005798 80.12025452 C45.45005798 74.84025452 45.45005798 69.56025452 45.45005798 64.12025452 C50.40005798 64.12025452 55.35005798 64.12025452 60.45005798 64.12025452 C60.45005798 53.56025452 60.45005798 43.00025452 60.45005798 32.12025452 C55.17005798 32.12025452 49.89005798 32.12025452 44.45005798 32.12025452 C44.45005798 26.84025452 44.45005798 21.56025452 44.45005798 16.12025452 C28.94005798 16.12025452 13.43005798 16.12025452 -2.54994202 16.12025452 C-3.29234651 12.40823206 -3.68601137 9.56741697 -3.67494202 5.87025452 C-3.67752014 4.99884827 -3.68009827 4.12744202 -3.68275452 3.22962952 C-3.48634435 0.11017391 -3.14475932 0.14830593 0 0 Z " fill="#010204" transform="translate(425.54994201660156,153.87974548339844)"/>
<path d="M0 0 C5.28 0 10.56 0 16 0 C16.33 10.56 16.66 21.12 17 32 C20.96 32 24.92 32 29 32 C30.485 32.495 30.485 32.495 32 33 C32 37.95 32 42.9 32 48 C37.28 48 42.56 48 48 48 C48 58.89 48 69.78 48 81 C0.48 81 -47.04 81 -96 81 C-96 70.11 -96 59.22 -96 48 C-90.72 48 -85.44 48 -80 48 C-80 37.44 -80 26.88 -80 16 C-74.72 16 -69.44 16 -64 16 C-64 26.89 -64 37.78 -64 49 C-69.28 49 -74.56 49 -80 49 C-80 53.95 -80 58.9 -80 64 C-43.37 64 -6.74 64 31 64 C31 59.05 31 54.1 31 49 C15.16 49 -0.68 49 -17 49 C-17 43.72 -17 38.44 -17 33 C-11.39 33 -5.78 33 0 33 C0 22.11 0 11.22 0 0 Z " fill="#000104" transform="translate(327,329)"/>
<path d="M0 0 C5.28 0 10.56 0 16 0 C16.020625 2.619375 16.04125 5.23875 16.0625 7.9375 C16.071604 8.7637085 16.08070801 9.58991699 16.09008789 10.44116211 C16.09723945 12.29433759 16.0502852 14.14749308 16 16 C12.66666667 19.33333333 6.70015992 17.63844924 2 18 C1.67 27.57 1.34 37.14 1 47 C5.95 47 10.9 47 16 47 C16 52.28 16 57.56 16 63 C37.12 63 58.24 63 80 63 C80 73.89 80 84.78 80 96 C53.6 96 27.2 96 0 96 C0 85.11 0 74.22 0 63 C-5.28 63 -10.56 63 -16 63 C-16 47.49 -16 31.98 -16 16 C-10.72 16 -5.44 16 0 16 C0 10.72 0 5.44 0 0 Z " fill="#FAE5A5" transform="translate(247,122)"/>
<path d="M0 0 C10.56 0 21.12 0 32 0 C32 5.61 32 11.22 32 17 C21.44 17 10.88 17 0 17 C0 22.28 0 27.56 0 33 C-10.56 33 -21.12 33 -32 33 C-32 38.28 -32 43.56 -32 49 C5.29 49 42.58 49 81 49 C81 43.72 81 38.44 81 33 C85.95 33 90.9 33 96 33 C96 43.56 96 54.12 96 65 C48.48 65 0.96 65 -48 65 C-49 39 -49 39 -48 32 C-43.05 32 -38.1 32 -33 32 C-33.020625 30.824375 -33.04125 29.64875 -33.0625 28.4375 C-33.06947261 24.52586533 -32.64250343 20.85502056 -32 17 C-28.13792926 16.09183202 -24.56851344 15.88356155 -20.60546875 15.90234375 C-18.80239258 15.90717773 -18.80239258 15.90717773 -16.96289062 15.91210938 C-15.71701172 15.92048828 -14.47113281 15.92886719 -13.1875 15.9375 C-11.92228516 15.94201172 -10.65707031 15.94652344 -9.35351562 15.95117188 C-6.2356568 15.96293738 -3.11782235 15.98087226 0 16 C0 10.72 0 5.44 0 0 Z " fill="#010104" transform="translate(87,345)"/>
<path d="M0 0 C15.51 0 31.02 0 47 0 C47 5.28 47 10.56 47 16 C52.28 16 57.56 16 63 16 C63 26.56 63 37.12 63 48 C58.05 48 53.1 48 48 48 C48 53.28 48 58.56 48 64 C32.16 64 16.32 64 0 64 C0 42.88 0 21.76 0 0 Z " fill="#0370E9" transform="translate(423,170)"/>
<path d="M0 0 C10.23 0 20.46 0 31 0 C31 16.17 31 32.34 31 49 C4.93 49 -21.14 49 -48 49 C-48 43.72 -48 38.44 -48 33 C-42.72 33 -37.44 33 -32 33 C-32 27.72 -32 22.44 -32 17 C-21.44 17 -10.88 17 0 17 C0 11.39 0 5.78 0 0 Z " fill="#3ABCFA" transform="translate(375,185)"/>
<path d="M0 0 C4.95 0 9.9 0 15 0 C15 5.28 15 10.56 15 16 C20.28 16 25.56 16 31 16 C31 20.95 31 25.9 31 31 C36.28 31 41.56 31 47 31 C47 36.28 47 41.56 47 47 C41.72 47 36.44 47 31 47 C31 52.61 31 58.22 31 64 C20.44 64 9.88 64 -1 64 C-1 58.39 -1 52.78 -1 47 C-6.28 47 -11.56 47 -17 47 C-17 36.77 -17 26.54 -17 16 C-11.39 16 -5.78 16 0 16 C0 10.72 0 5.44 0 0 Z " fill="#3ABCFB" transform="translate(168,298)"/>
<path d="M0 0 C5.61 0 11.22 0 17 0 C17 10.56 17 21.12 17 32 C11.72 32 6.44 32 1 32 C1 47.84 1 63.68 1 80 C-4.61 80 -10.22 80 -16 80 C-16 74.72 -16 69.44 -16 64 C-26.23 64 -36.46 64 -47 64 C-47 69.28 -47 74.56 -47 80 C-57.56 80 -68.12 80 -79 80 C-79 74.39 -79 68.78 -79 63 C-68.44 63 -57.88 63 -47 63 C-47 57.72 -47 52.44 -47 47 C-36.77 47 -26.54 47 -16 47 C-15.67 42.05 -15.34 37.1 -15 32 C-10.05 32 -5.1 32 0 32 C0 21.44 0 10.88 0 0 Z " fill="#01060A" transform="translate(198,74)"/>
<path d="M0 0 C4.95 0 9.9 0 15 0 C15 20.79 15 41.58 15 63 C9.72 63 4.44 63 -1 63 C-1 68.61 -1 74.22 -1 80 C-5.95 80 -10.9 80 -16 80 C-16 74.39 -16 68.78 -16 63 C-21.61 63 -27.22 63 -33 63 C-33.05171702 52.33982843 -32.86319179 41.71571958 -32.5 31.0625 C-32.45159923 29.58920004 -32.4034212 28.11589274 -32.35546875 26.64257812 C-32.23993653 23.09494233 -32.11989142 19.54750162 -32 16 C-27.05 16 -22.1 16 -17 16 C-17 26.56 -17 37.12 -17 48 C-11.39 48 -5.78 48 0 48 C0 32.16 0 16.32 0 0 Z " fill="#FBEAAD" transform="translate(343,122)"/>
<path d="M0 0 C4.95 0 9.9 0 15 0 C15 5.61 15 11.22 15 17 C20.28 17 25.56 17 31 17 C31 21.95 31 26.9 31 32 C26.05 32 21.1 32 16 32 C16 37.28 16 42.56 16 48 C0.16 48 -15.68 48 -32 48 C-32 42.72 -32 37.44 -32 32 C-26.72 32 -21.44 32 -16 32 C-16 27.05 -16 22.1 -16 17 C-10.72 17 -5.44 17 0 17 C0 11.39 0 5.78 0 0 Z " fill="#39BDFD" transform="translate(279,297)"/>
<path d="M0 0 C15.84 0 31.68 0 48 0 C48 5.28 48 10.56 48 16 C37.44 16 26.88 16 16 16 C16 21.28 16 26.56 16 32 C0.16 32 -15.68 32 -32 32 C-32 26.72 -32 21.44 -32 16 C-21.44 16 -10.88 16 0 16 C0 10.72 0 5.44 0 0 Z " fill="#000103" transform="translate(263,26)"/>
<path d="M0 0 C5.28 0 10.56 0 16 0 C16.33 10.56 16.66 21.12 17 32 C20.96 32 24.92 32 29 32 C30.485 32.495 30.485 32.495 32 33 C32 37.95 32 42.9 32 48 C32.66 48 33.32 48 34 48 C33.67 53.61 33.34 59.22 33 65 C-4.29 65 -41.58 65 -80 65 C-80 64.67 -80 64.34 -80 64 C-43.37 64 -6.74 64 31 64 C31 59.05 31 54.1 31 49 C15.16 49 -0.68 49 -17 49 C-17 43.72 -17 38.44 -17 33 C-11.39 33 -5.78 33 0 33 C0 22.11 0 11.22 0 0 Z " fill="#010102" transform="translate(327,329)"/>
<path d="M0 0 C15.84 0 31.68 0 48 0 C48 10.56 48 21.12 48 32 C37.44 32 26.88 32 16 32 C16 26.72 16 21.44 16 16 C10.72 16 5.44 16 0 16 C0 10.72 0 5.44 0 0 Z " fill="#3CB9F5" transform="translate(279,42)"/>
<path d="M0 0 C10.89 0 21.78 0 33 0 C33 10.89 33 21.78 33 33 C22.11 33 11.22 33 0 33 C0 22.11 0 11.22 0 0 Z " fill="#0A6ED7" transform="translate(502,185)"/>
<path d="M0 0 C21.12 0 42.24 0 64 0 C64 5.61 64 11.22 64 17 C42.88 17 21.76 17 0 17 C0 11.39 0 5.78 0 0 Z " fill="#090806" transform="translate(263,185)"/>
<path d="M0 0 C5.28 0 10.56 0 16 0 C16 5.61 16 11.22 16 17 C20.95 17 25.9 17 31 17 C31 22.28 31 27.56 31 33 C25.72 33 20.44 33 15 33 C15 27.72 15 22.44 15 17 C10.38 17 5.76 17 1 17 C1 27.56 1 38.12 1 49 C-4.61 49 -10.22 49 -16 49 C-16 38.44 -16 27.88 -16 17 C-10.72 17 -5.44 17 0 17 C0 11.39 0 5.78 0 0 Z " fill="#01030C" transform="translate(167,185)"/>
<path d="M0 0 C10.56 0 21.12 0 32 0 C32 10.56 32 21.12 32 32 C21.44 32 10.88 32 0 32 C0 21.44 0 10.88 0 0 Z " fill="#030201" transform="translate(279,138)"/>
<path d="M0 0 C15.51 0 31.02 0 47 0 C47 10.56 47 21.12 47 32 C42.05 32 37.1 32 32 32 C32 26.72 32 21.44 32 16 C21.44 16 10.88 16 0 16 C0 10.72 0 5.44 0 0 Z " fill="#3CBDFA" transform="translate(311,90)"/>
<path d="M0 0 C10.56 0 21.12 0 32 0 C32 10.89 32 21.78 32 33 C26.72 33 21.44 33 16 33 C16 27.72 16 22.44 16 17 C10.72 17 5.44 17 0 17 C0 11.39 0 5.78 0 0 Z " fill="#0270EF" transform="translate(215,185)"/>
<path d="M0 0 C10.56 0 21.12 0 32 0 C32 5.28 32 10.56 32 16 C16.655 16.495 16.655 16.495 1 17 C0.67 22.28 0.34 27.56 0 33 C-5.28 33 -10.56 33 -16 33 C-16 27.39 -16 21.78 -16 16 C-10.72 16 -5.44 16 0 16 C0 10.72 0 5.44 0 0 Z " fill="#00060F" transform="translate(215,329)"/>
<path d="M0 0 C32.63781321 -0.18451025 32.63781321 -0.18451025 47 1 C47 6.28 47 11.56 47 17 C31.49 17 15.98 17 0 17 C0 11.39 0 5.78 0 0 Z " fill="#39BCFD" transform="translate(439,185)"/>
<path d="M0 0 C5.28 0 10.56 0 16 0 C16 15.84 16 31.68 16 48 C10.72 48 5.44 48 0 48 C0 32.16 0 16.32 0 0 Z " fill="#000105" transform="translate(295,266)"/>
<path d="M0 0 C5.28 0 10.56 0 16 0 C16 15.84 16 31.68 16 48 C10.72 48 5.44 48 0 48 C0 32.16 0 16.32 0 0 Z " fill="#000104" transform="translate(87,170)"/>
<path d="M0 0 C5.28 0 10.56 0 16 0 C16 15.51 16 31.02 16 47 C10.72 47 5.44 47 0 47 C0 31.49 0 15.98 0 0 Z " fill="#3CBDFB" transform="translate(199,107)"/>
<path d="M0 0 C4.95 0 9.9 0 15 0 C15.14473404 4.28257678 15.28785414 8.56515372 15.42724609 12.84790039 C15.4748674 14.29747388 15.52333679 15.74701982 15.57275391 17.1965332 C15.91090777 27.13756682 16.0482581 37.05279843 16 47 C10.39 47 4.78 47 -1 47 C-1.05171702 36.33982843 -0.86319179 25.71571958 -0.5 15.0625 C-0.45159923 13.58920004 -0.4034212 12.11589274 -0.35546875 10.64257812 C-0.23993653 7.09494233 -0.11989142 3.54750162 0 0 Z " fill="#FDE7A5" transform="translate(311,138)"/>
<path d="M0 0 C10.23 0 20.46 0 31 0 C31 10.23 31 20.46 31 31 C26.05 31 21.1 31 16 31 C16 26.05 16 21.1 16 16 C10.72 16 5.44 16 0 16 C0 10.72 0 5.44 0 0 Z " fill="#010104" transform="translate(151,266)"/>
<path d="M0 0 C4.95 0 9.9 0 15 0 C15 15.84 15 31.68 15 48 C10.05 48 5.1 48 0 48 C0 32.16 0 16.32 0 0 Z " fill="#FDFEFD" transform="translate(343,122)"/>
<path d="M0 0 C5.28 0 10.56 0 16 0 C16 10.89 16 21.78 16 33 C10.72 33 5.44 33 0 33 C0 22.11 0 11.22 0 0 Z " fill="#000104" transform="translate(519,185)"/>
<path d="M0 0 C0.33 0 0.66 0 1 0 C1 16.5 1 33 1 50 C-25.07 50 -51.14 50 -78 50 C-78 54.95 -78 59.9 -78 65 C-78.2355148 70.34534494 -78.6220699 75.66173735 -79 81 C-84.28 81 -89.56 81 -95 81 C-95 75.72 -95 70.44 -95 65 C-90.05 65 -85.1 65 -80 65 C-80 59.72 -80 54.44 -80 49 C-106.07 49 -132.14 49 -159 49 C-159 48.67 -159 48.34 -159 48 C-132.93 48 -106.86 48 -80 48 C-80 43.05 -80 38.1 -80 33 C-79.67 33 -79.34 33 -79 33 C-79 38.28 -79 43.56 -79 49 C-52.93 49 -26.86 49 0 49 C0 32.83 0 16.66 0 0 Z " fill="#052336" transform="translate(406,185)"/>
<path d="M0 0 C5.28 0 10.56 0 16 0 C16 10.23 16 20.46 16 31 C10.72 31 5.44 31 0 31 C0 20.77 0 10.54 0 0 Z " fill="#010002" transform="translate(199,218)"/>
<path d="M0 0 C5.28 0 10.56 0 16 0 C16 10.23 16 20.46 16 31 C10.72 31 5.44 31 0 31 C0 20.77 0 10.54 0 0 Z " fill="#000309" transform="translate(199,154)"/>
<path d="M0 0 C4.95 0 9.9 0 15 0 C15 10.56 15 21.12 15 32 C10.05 32 5.1 32 0 32 C0 21.44 0 10.88 0 0 Z " fill="#010002" transform="translate(327,138)"/>
<path d="M0 0 C4.95 0 9.9 0 15 0 C15 10.56 15 21.12 15 32 C10.05 32 5.1 32 0 32 C0 21.44 0 10.88 0 0 Z " fill="#0270EE" transform="translate(343,90)"/>
<path d="M0 0 C10.23 0 20.46 0 31 0 C30.67 4.95 30.34 9.9 30 15 C26.70265354 16.09911549 24.27041255 16.1139456 20.80078125 16.09765625 C19.59228516 16.09443359 18.38378906 16.09121094 17.13867188 16.08789062 C15.2447168 16.07532227 15.2447168 16.07532227 13.3125 16.0625 C11.40114258 16.05573242 11.40114258 16.05573242 9.45117188 16.04882812 C6.3007613 16.03702883 3.15037481 16.01909318 0 16 C0 10.72 0 5.44 0 0 Z " fill="#000001" transform="translate(87,345)"/>
<path d="M0 0 C5.28 0 10.56 0 16 0 C15.67 10.23 15.34 20.46 15 31 C10.05 31 5.1 31 0 31 C0 20.77 0 10.54 0 0 Z " fill="#010101" transform="translate(198,74)"/>
<path d="M0 0 C5.28 0 10.56 0 16 0 C16.020625 2.619375 16.04125 5.23875 16.0625 7.9375 C16.071604 8.7637085 16.08070801 9.58991699 16.09008789 10.44116211 C16.09723945 12.29433759 16.0502852 14.14749308 16 16 C12.66666667 19.33333333 6.70015992 17.63844924 2 18 C1.67 27.57 1.34 37.14 1 47 C5.95 47 10.9 47 16 47 C16 47.33 16 47.66 16 48 C10.72 48 5.44 48 0 48 C0 37.77 0 27.54 0 17 C-4.62 17 -9.24 17 -14 17 C-13.67 31.52 -13.34 46.04 -13 61 C-8.71 61.33 -4.42 61.66 0 62 C0 62.33 0 62.66 0 63 C-5.28 63 -10.56 63 -16 63 C-16 47.49 -16 31.98 -16 16 C-10.72 16 -5.44 16 0 16 C0 10.72 0 5.44 0 0 Z " fill="#F3F2DB" transform="translate(247,122)"/>
<path d="M0 0 C10.23 0 20.46 0 31 0 C31 4.62 31 9.24 31 14 C20.77 14 10.54 14 0 14 C0 9.38 0 4.76 0 0 Z " fill="#000106" transform="translate(311,107)"/>
<path d="M0 0 C4.29 0 8.58 0 13 0 C13 9.9 13 19.8 13 30 C3 30 3 30 0 28 C-0.34057617 25.20263672 -0.34057617 25.20263672 -0.29296875 21.6796875 C-0.28330078 20.42285156 -0.27363281 19.16601562 -0.26367188 17.87109375 C-0.23853516 16.55238281 -0.21339844 15.23367187 -0.1875 13.875 C-0.17245483 12.53517097 -0.15876613 11.19532596 -0.14648438 9.85546875 C-0.1110312 6.57014094 -0.05722294 3.28502075 0 0 Z " fill="#000002" transform="translate(153,203)"/>
<path d="M0 0 C9.57 0 19.14 0 29 0 C29 4.29 29 8.58 29 13 C19.43 13 9.86 13 0 13 C0 8.71 0 4.42 0 0 Z " fill="#0270EE" transform="translate(312,123)"/>
<path d="M0 0 C5.28 0 10.56 0 16 0 C16 0.33 16 0.66 16 1 C11.05 1 6.1 1 1 1 C1 5.95 1 10.9 1 16 C11.23 16 21.46 16 32 16 C32 10.72 32 5.44 32 0 C32.33 0 32.66 0 33 0 C33 5.61 33 11.22 33 17 C22.44 17 11.88 17 1 17 C1 22.28 1 27.56 1 33 C-4.28 33 -9.56 33 -15 33 C-15 27.72 -15 22.44 -15 17 C-10.05 17 -5.1 17 0 17 C0 11.39 0 5.78 0 0 Z " fill="#0C1418" transform="translate(342,185)"/>
<path d="M0 0 C5.28 0 10.56 0 16 0 C16 0.33 16 0.66 16 1 C11.38 1 6.76 1 2 1 C2 5.29 2 9.58 2 14 C17.51 13.67 33.02 13.34 49 13 C49 13.66 49 14.32 49 15 C49.66 15 50.32 15 51 15 C50.67 20.61 50.34 26.22 50 32 C12.71 32 -24.58 32 -63 32 C-63 31.67 -63 31.34 -63 31 C-26.37 31 10.26 31 48 31 C48 26.05 48 21.1 48 16 C32.16 16 16.32 16 0 16 C0 10.72 0 5.44 0 0 Z " fill="#012759" transform="translate(310,362)"/>
<path d="M0 0 C5.28 0 10.56 0 16 0 C16 5.61 16 11.22 16 17 C10.72 17 5.44 17 0 17 C0 11.39 0 5.78 0 0 Z " fill="#010102" transform="translate(151,297)"/>
<path d="M0 0 C5.28 0 10.56 0 16 0 C16 5.61 16 11.22 16 17 C10.72 17 5.44 17 0 17 C0 11.39 0 5.78 0 0 Z " fill="#010101" transform="translate(215,185)"/>
<path d="M0 0 C5.28 0 10.56 0 16 0 C16 5.28 16 10.56 16 16 C10.72 16 5.44 16 0 16 C0 10.72 0 5.44 0 0 Z " fill="#010206" transform="translate(183,362)"/>
<path d="M0 0 C5.28 0 10.56 0 16 0 C16 5.28 16 10.56 16 16 C10.72 16 5.44 16 0 16 C0 10.72 0 5.44 0 0 Z " fill="#010104" transform="translate(199,346)"/>
<path d="M0 0 C5.28 0 10.56 0 16 0 C16 5.28 16 10.56 16 16 C10.72 16 5.44 16 0 16 C0 10.72 0 5.44 0 0 Z " fill="#01020A" transform="translate(119,329)"/>
<path d="M0 0 C5.28 0 10.56 0 16 0 C16 5.28 16 10.56 16 16 C10.72 16 5.44 16 0 16 C0 10.72 0 5.44 0 0 Z " fill="#000209" transform="translate(135,250)"/>
<path d="M0 0 C5.28 0 10.56 0 16 0 C16 5.28 16 10.56 16 16 C10.72 16 5.44 16 0 16 C0 10.72 0 5.44 0 0 Z " fill="#000208" transform="translate(119,234)"/>
<path d="M0 0 C5.28 0 10.56 0 16 0 C16 5.28 16 10.56 16 16 C10.72 16 5.44 16 0 16 C0 10.72 0 5.44 0 0 Z " fill="#000107" transform="translate(103,218)"/>
<path d="M0 0 C5.28 0 10.56 0 16 0 C16 5.28 16 10.56 16 16 C10.72 16 5.44 16 0 16 C0 10.72 0 5.44 0 0 Z " fill="#02060C" transform="translate(231,202)"/>
<path d="M0 0 C5.28 0 10.56 0 16 0 C16 5.28 16 10.56 16 16 C10.72 16 5.44 16 0 16 C0 10.72 0 5.44 0 0 Z " fill="#3DBBF7" transform="translate(503,186)"/>
<path d="M0 0 C5.28 0 10.56 0 16 0 C16 5.28 16 10.56 16 16 C10.72 16 5.44 16 0 16 C0 10.72 0 5.44 0 0 Z " fill="#010207" transform="translate(103,154)"/>
<path d="M0 0 C5.28 0 10.56 0 16 0 C16 5.28 16 10.56 16 16 C10.72 16 5.44 16 0 16 C0 10.72 0 5.44 0 0 Z " fill="#010610" transform="translate(279,58)"/>
<path d="M0 0 C5.28 0 10.56 0 16 0 C16 5.28 16 10.56 16 16 C10.72 16 5.44 16 0 16 C0 10.72 0 5.44 0 0 Z " fill="#000209" transform="translate(215,58)"/>
<path d="M0 0 C5.28 0 10.56 0 16 0 C16 5.28 16 10.56 16 16 C10.72 16 5.44 16 0 16 C0 10.72 0 5.44 0 0 Z " fill="#010306" transform="translate(311,42)"/>
<path d="M0 0 C4.95 0 9.9 0 15 0 C15 5.61 15 11.22 15 17 C10.05 17 5.1 17 0 17 C0 11.39 0 5.78 0 0 Z " fill="#FAE7AA" transform="translate(327,185)"/>
<path d="M0 0 C5.28 0 10.56 0 16 0 C16 4.95 16 9.9 16 15 C10.72 15 5.44 15 0 15 C0 10.05 0 5.1 0 0 Z " fill="#010207" transform="translate(311,314)"/>
<path d="M0 0 C5.28 0 10.56 0 16 0 C16 4.95 16 9.9 16 15 C10.72 15 5.44 15 0 15 C0 10.05 0 5.1 0 0 Z " fill="#010309" transform="translate(135,314)"/>
<path d="M0 0 C10.56 0 21.12 0 32 0 C32 15.84 32 31.68 32 48 C31.67 48 31.34 48 31 48 C31 37.44 31 26.88 31 16 C26.05 16 21.1 16 16 16 C16 26.56 16 37.12 16 48 C15.67 48 15.34 48 15 48 C15 37.44 15 26.88 15 16 C-0.51 16 -16.02 16 -32 16 C-32 15.67 -32 15.34 -32 15 C-21.44 15 -10.88 15 0 15 C0 10.05 0 5.1 0 0 Z M1 1 C1 5.29 1 9.58 1 14 C10.57 14 20.14 14 30 14 C30 9.71 30 5.42 30 1 C20.43 1 10.86 1 1 1 Z " fill="#527DAB" transform="translate(311,122)"/>
<path d="M0 0 C4.95 0 9.9 0 15 0 C15 4.95 15 9.9 15 15 C10.05 15 5.1 15 0 15 C0 10.05 0 5.1 0 0 Z " fill="#01020A" transform="translate(183,250)"/>
<path d="M0 0 C4.95 0 9.9 0 15 0 C15 4.95 15 9.9 15 15 C10.05 15 5.1 15 0 15 C0 10.05 0 5.1 0 0 Z " fill="#FDFCF8" transform="translate(327,170)"/>
<path d="M0 0 C4.62 0 9.24 0 14 0 C14 5.28 14 10.56 14 16 C9.38 16 4.76 16 0 16 C0 10.72 0 5.44 0 0 Z " fill="#010208" transform="translate(168,186)"/>
<path d="M0 0 C4.95 0 9.9 0 15 0 C15 4.95 15 9.9 15 15 C10.05 15 5.1 15 0 15 C0 10.05 0 5.1 0 0 Z " fill="#010102" transform="translate(312,251)"/>
<path d="M0 0 C5.28 0 10.56 0 16 0 C16 10.89 16 21.78 16 33 C15.67 33 15.34 33 15 33 C15 22.44 15 11.88 15 1 C10.38 1 5.76 1 1 1 C1 16.84 1 32.68 1 49 C-4.61 49 -10.22 49 -16 49 C-16 38.44 -16 27.88 -16 17 C-10.72 17 -5.44 17 0 17 C0 11.39 0 5.78 0 0 Z M-14 18 C-14.06883128 21.95142546 -14.1285718 25.90132632 -14.16479492 29.85302734 C-14.18732251 31.85919374 -14.2254357 33.86516526 -14.26367188 35.87109375 C-14.27333984 37.12792969 -14.28300781 38.38476562 -14.29296875 39.6796875 C-14.3086792 40.84226074 -14.32438965 42.00483398 -14.34057617 43.20263672 C-14.22818604 44.1257666 -14.1157959 45.04889648 -14 46 C-10.21417472 48.92450033 -10.21417472 48.92450033 -1 48 C-1 38.1 -1 28.2 -1 18 C-5.29 18 -9.58 18 -14 18 Z " fill="#032348" transform="translate(167,185)"/>
<path d="M0 0 C5.28 0 10.56 0 16 0 C16 0.33 16 0.66 16 1 C11.38 1 6.76 1 2 1 C2 4.96 2 8.92 2 13 C37.64 13 73.28 13 110 13 C110 9.04 110 5.08 110 1 C94.82 1 79.64 1 64 1 C64 0.67 64 0.34 64 0 C79.51 0 95.02 0 111 0 C111 4.95 111 9.9 111 15 C74.37 15 37.74 15 0 15 C0 10.05 0 5.1 0 0 Z " fill="#1372DB" transform="translate(247,378)"/>
<path d="M0 0 C0.33 0 0.66 0 1 0 C1 15.51 1 31.02 1 47 C6.28 47 11.56 47 17 47 C17 47.33 17 47.66 17 48 C11.72 48 6.44 48 1 48 C1 53.28 1 58.56 1 64 C-4.28 64 -9.56 64 -15 64 C-15 74.23 -15 84.46 -15 95 C-15.33 95 -15.66 95 -16 95 C-16 84.77 -16 74.54 -16 64 C-26.23 64 -36.46 64 -47 64 C-47 63.67 -47 63.34 -47 63 C-36.77 63 -26.54 63 -16 63 C-16 58.05 -16 53.1 -16 48 C-15.67 47.67 -15.34 47.34 -15 47 C-10.05 47 -5.1 47 0 47 C0 31.49 0 15.98 0 0 Z M-15 48 C-15 52.95 -15 57.9 -15 63 C-10.05 63 -5.1 63 0 63 C0 58.05 0 53.1 0 48 C-4.95 48 -9.9 48 -15 48 Z " fill="#063F79" transform="translate(198,202)"/>
<path d="M0 0 C4.29 0 8.58 0 13 0 C13 4.62 13 9.24 13 14 C8.71 14 4.42 14 0 14 C0 9.38 0 4.76 0 0 Z " fill="#FCE7A6" transform="translate(249,123)"/>
<path d="M0 0 C0.66 0 1.32 0 2 0 C2 15.51 2 31.02 2 47 C-3.28 47 -8.56 47 -14 47 C-14 36.77 -14 26.54 -14 16 C-13.34 16 -12.68 16 -12 16 C-11.67 25.57 -11.34 35.14 -11 45 C-7.37 45 -3.74 45 0 45 C0 30.15 0 15.3 0 0 Z " fill="#1769C1" transform="translate(229,138)"/>
<path d="M0 0 C0.33 0 0.66 0 1 0 C1 4.95 1 9.9 1 15 C6.28 15 11.56 15 17 15 C17 25.89 17 36.78 17 48 C11.72 48 6.44 48 1 48 C1 47.01 1 46.02 1 45 C7.93 45.495 7.93 45.495 15 46 C15 36.43 15 26.86 15 17 C10.05 17 5.1 17 0 17 C0 11.39 0 5.78 0 0 Z " fill="#1361B2" transform="translate(310,314)"/>
<path d="M0 0 C4.95 0 9.9 0 15 0 C15.14473404 4.28257678 15.28785414 8.56515372 15.42724609 12.84790039 C15.4748674 14.29747388 15.52333679 15.74701982 15.57275391 17.1965332 C15.91090777 27.13756682 16.0482581 37.05279843 16 47 C10.39 47 4.78 47 -1 47 C-1.05171702 36.33982843 -0.86319179 25.71571958 -0.5 15.0625 C-0.45159923 13.58920004 -0.4034212 12.11589274 -0.35546875 10.64257812 C-0.23993653 7.09494233 -0.11989142 3.54750162 0 0 Z M1 3 C0.70217363 4.89047919 0.70217363 4.89047919 0.75708008 7.06665039 C0.75400345 7.90414322 0.75092682 8.74163605 0.74775696 9.60450745 C0.75494247 10.50974655 0.76212799 11.41498566 0.76953125 12.34765625 C0.76998947 13.27468857 0.77044769 14.20172089 0.7709198 15.15684509 C0.77394346 17.11800414 0.78183315 19.07916075 0.79418945 21.0402832 C0.81244628 24.05363402 0.81469918 27.06667778 0.81445312 30.08007812 C0.81936815 31.98177351 0.82519641 33.8834668 0.83203125 35.78515625 C0.83314407 36.69241959 0.8342569 37.59968292 0.83540344 38.53443909 C0.45576668 42.58935208 0.45576668 42.58935208 2 46 C4.18639453 46.07258946 6.37500389 46.08373783 8.5625 46.0625 C10.70833333 46.04166667 12.85416667 46.02083333 15 46 C15.07167069 35.8605888 14.85536416 25.75645591 14.5 15.625 C14.45160782 14.19531976 14.40342976 12.76563226 14.35546875 11.3359375 C14.23943423 7.89053817 14.1205483 4.44524471 14 1 C12.20866022 0.94608007 10.41686101 0.90724429 8.625 0.875 C7.62726563 0.85179687 6.62953125 0.82859375 5.6015625 0.8046875 C2.83737827 0.72783152 2.83737827 0.72783152 1 3 Z " fill="#FAEFC1" transform="translate(311,138)"/>
<path d="M0 0 C0.33 0 0.66 0 1 0 C1 5.28 1 10.56 1 16 C11.56 16 22.12 16 33 16 C33 21.28 33 26.56 33 32 C28.46095634 32.02291161 23.92211198 32.04283781 19.38305664 32.05493164 C17.83780234 32.0599714 16.29255284 32.0668032 14.74731445 32.07543945 C12.53074971 32.08752076 10.31424782 32.09323173 8.09765625 32.09765625 C7.05545677 32.10539818 7.05545677 32.10539818 5.99220276 32.11329651 C4.3277067 32.11349277 2.66334501 32.06189129 1 32 C0 31 0 31 -0.09765625 27.83984375 C-0.04882812 22.41992188 -0.04882812 22.41992188 0 17 C-4.95 17 -9.9 17 -15 17 C-15 16.67 -15 16.34 -15 16 C-10.05 16 -5.1 16 0 16 C0 10.72 0 5.44 0 0 Z M1 17 C1 21.62 1 26.24 1 31 C11.23 31 21.46 31 32 31 C32 26.38 32 21.76 32 17 C21.77 17 11.54 17 1 17 Z " fill="#073C6D" transform="translate(310,90)"/>
<path d="M0 0 C5.28 0 10.56 0 16 0 C16 0.33 16 0.66 16 1 C11.38 1 6.76 1 2 1 C2.33 15.52 2.66 30.04 3 45 C7.29 45.33 11.58 45.66 16 46 C16 46.33 16 46.66 16 47 C10.72 47 5.44 47 0 47 C0 31.49 0 15.98 0 0 Z " fill="#D8E7D6" transform="translate(231,138)"/>
<path d="M0 0 C5.28 0 10.56 0 16 0 C16 10.23 16 20.46 16 31 C10.72 31 5.44 31 0 31 C0 20.77 0 10.54 0 0 Z M1 1 C0.97312959 4.79171347 0.95322413 8.58323823 0.9375 12.375 C0.92912109 13.45523438 0.92074219 14.53546875 0.91210938 15.6484375 C0.90888672 16.6796875 0.90566406 17.7109375 0.90234375 18.7734375 C0.89710693 19.72653809 0.89187012 20.67963867 0.88647461 21.66162109 C0.84357401 24.02324406 0.84357401 24.02324406 2 26 C2 27.32 2 28.64 2 30 C6.29 30 10.58 30 15 30 C15.05388795 25.91649081 15.09362147 21.83369101 15.125 17.75 C15.14175781 16.59113281 15.15851563 15.43226563 15.17578125 14.23828125 C15.18222656 13.12324219 15.18867188 12.00820312 15.1953125 10.859375 C15.20578613 9.83295898 15.21625977 8.80654297 15.22705078 7.74902344 C15.14424533 4.66836895 15.14424533 4.66836895 13 1 C9.04 1 5.08 1 1 1 Z " fill="#00071A" transform="translate(199,218)"/>
<path d="M0 0 C5.28 0 10.56 0 16 0 C16 5.61 16 11.22 16 17 C10.72 17 5.44 17 0 17 C0 11.39 0 5.78 0 0 Z M2 2 C2 6.62 2 11.24 2 16 C5.96 16 9.92 16 14 16 C14 11.38 14 6.76 14 2 C10.04 2 6.08 2 2 2 Z " fill="#276DBC" transform="translate(231,185)"/>
<path d="M0 0 C5.28 0 10.56 0 16 0 C16 5.61 16 11.22 16 17 C10.72 17 5.44 17 0 17 C0 11.39 0 5.78 0 0 Z M2 2 C2 6.62 2 11.24 2 16 C5.96 16 9.92 16 14 16 C14 11.38 14 6.76 14 2 C10.04 2 6.08 2 2 2 Z " fill="#001433" transform="translate(215,185)"/>
<path d="M0 0 C5.28 0 10.56 0 16 0 C16 0.66 16 1.32 16 2 C11.38 2 6.76 2 2 2 C2 6.95 2 11.9 2 17 C-3.61 17 -9.22 17 -15 17 C-15 22.28 -15 27.56 -15 33 C-15.33 33 -15.66 33 -16 33 C-16 27.39 -16 21.78 -16 16 C-10.72 16 -5.44 16 0 16 C0 10.72 0 5.44 0 0 Z " fill="#1663B4" transform="translate(135,329)"/>
<path d="M0 0 C0.33 0 0.66 0 1 0 C1 10.23 1 20.46 1 31 C6.28 31 11.56 31 17 31 C17 36.61 17 42.22 17 48 C16.34 47.67 15.68 47.34 15 47 C15 42.38 15 37.76 15 33 C10.05 33 5.1 33 0 33 C0 22.11 0 11.22 0 0 Z " fill="#4199C2" transform="translate(198,154)"/>
<path d="M0 0 C4.95 0 9.9 0 15 0 C15 10.56 15 21.12 15 32 C10.05 32 5.1 32 0 32 C0 27.05 0 22.1 0 17 C0.33 17 0.66 17 1 17 C1 21.29 1 25.58 1 30 C2.98 29.67 4.96 29.34 7 29 C9.31 29.33 11.62 29.66 14 30 C14 20.43 14 10.86 14 1 C9.38 1 4.76 1 0 1 C0 0.67 0 0.34 0 0 Z " fill="#2078DB" transform="translate(343,90)"/>
<path d="M0 0 C10.23 0 20.46 0 31 0 C26.98038839 2.00980581 25.46807628 2.23947017 21.140625 2.1953125 C20.02558594 2.18886719 18.91054688 2.18242187 17.76171875 2.17578125 C16.60285156 2.15902344 15.44398438 2.14226562 14.25 2.125 C13.07566406 2.11597656 11.90132813 2.10695312 10.69140625 2.09765625 C7.79418371 2.0741016 4.89706604 2.03823108 2 2 C2 6.95 2 11.9 2 17 C1.34 17 0.68 17 0 17 C0 11.39 0 5.78 0 0 Z " fill="#47A1CB" transform="translate(375,185)"/>
<path d="M0 0 C5.28 0 10.56 0 16 0 C16 10.56 16 21.12 16 32 C14.68 31.34 13.36 30.68 12 30 C12.66 30 13.32 30 14 30 C13.67 20.76 13.34 11.52 13 2 C8.71 1.67 4.42 1.34 0 1 C0 0.67 0 0.34 0 0 Z " fill="#F4E4B4" transform="translate(247,170)"/>
<path d="M0 0 C0.66 0 1.32 0 2 0 C2 10.56 2 21.12 2 32 C1.01 32 0.02 32 -1 32 C-0.67 21.44 -0.34 10.88 0 0 Z " fill="#1566C4" transform="translate(149,202)"/>
<path d="M0 0 C0.33 0 0.66 0 1 0 C1 5.61 1 11.22 1 17 C-9.56 17 -20.12 17 -31 17 C-31 16.67 -31 16.34 -31 16 C-16.15 15.505 -16.15 15.505 -1 15 C-1 10.38 -1 5.76 -1 1 C-0.67 0.67 -0.34 0.34 0 0 Z " fill="#001135" transform="translate(118,345)"/>
<path d="M0 0 C10.56 0 21.12 0 32 0 C32 5.61 32 11.22 32 17 C31.34 17 30.68 17 30 17 C29.67 12.05 29.34 7.1 29 2 C19.43 1.67 9.86 1.34 0 1 C0 0.67 0 0.34 0 0 Z " fill="#0A81E7" transform="translate(119,185)"/>
<path d="M0 0 C0.33 0 0.66 0 1 0 C1 10.23 1 20.46 1 31 C0.01 31 -0.98 31 -2 31 C-1.8820238 26.74564921 -1.7577963 22.49154179 -1.62768555 18.23754883 C-1.5842837 16.7893576 -1.54261256 15.34111346 -1.50268555 13.89282227 C-1.44510938 11.81510441 -1.38137972 9.73765427 -1.31640625 7.66015625 C-1.27974854 6.40855713 -1.24309082 5.15695801 -1.20532227 3.86743164 C-1 1 -1 1 0 0 Z " fill="#F9E8B4" transform="translate(246,139)"/>
<path d="M0 0 C0.66 0 1.32 0 2 0 C2 5.28 2 10.56 2 16 C-3.28 16 -8.56 16 -14 16 C-14 15.34 -14 14.68 -14 14 C-9.38 14 -4.76 14 0 14 C0 9.38 0 4.76 0 0 Z " fill="#307AC8" transform="translate(245,122)"/>
<path d="M0 0 C0.99 0 1.98 0 3 0 C2.67 4.29 2.34 8.58 2 13 C6.29 13 10.58 13 15 13 C15 13.66 15 14.32 15 15 C10.05 15 5.1 15 0 15 C0 10.05 0 5.1 0 0 Z " fill="#4FB5E7" transform="translate(247,330)"/>
<path d="M0 0 C0.66 0 1.32 0 2 0 C2 4.62 2 9.24 2 14 C6.29 14 10.58 14 15 14 C15.33 14.66 15.66 15.32 16 16 C10.72 16 5.44 16 0 16 C0 10.72 0 5.44 0 0 Z " fill="#1064C1" transform="translate(135,234)"/>
<path d="M0 0 C5.28 0 10.56 0 16 0 C16 0.33 16 0.66 16 1 C11.38 1 6.76 1 2 1 C2 4.96 2 8.92 2 13 C4.31 13.33 6.62 13.66 9 14 C9 14.33 9 14.66 9 15 C6.03 15 3.06 15 0 15 C0 10.05 0 5.1 0 0 Z " fill="#146DCD" transform="translate(247,378)"/>
<path d="M0 0 C4.95 0 9.9 0 15 0 C15 0.66 15 1.32 15 2 C10.71 2 6.42 2 2 2 C1.67 6.29 1.34 10.58 1 15 C0.67 15 0.34 15 0 15 C0 10.05 0 5.1 0 0 Z " fill="#0479E3" transform="translate(295,329)"/>
<path d="M0 0 C1.32 0 2.64 0 4 0 C4 5.28 4 10.56 4 16 C-1.28 16 -6.56 16 -12 16 C-12 15.67 -12 15.34 -12 15 C-7.05 15 -2.1 15 3 15 C2.67 11.04 2.34 7.08 2 3 C0.515 5.475 0.515 5.475 -1 8 C-1.66 8 -2.32 8 -3 8 C-3 7.34 -3 6.68 -3 6 C-2.34 5.67 -1.68 5.34 -1 5 C-0.34444881 2.47266765 -0.34444881 2.47266765 0 0 Z " fill="#45B4E7" transform="translate(163,186)"/>
<path d="M0 0 C2.31 0 4.62 0 7 0 C7 5.61 7 11.22 7 17 C2.05 17 -2.9 17 -8 17 C-8 16.67 -8 16.34 -8 16 C-3.38 16 1.24 16 6 16 C5.855625 14.411875 5.71125 12.82375 5.5625 11.1875 C5.48128906 10.29417969 5.40007812 9.40085937 5.31640625 8.48046875 C5.06510233 5.87256441 5.06510233 5.87256441 4 3 C4.33 2.34 4.66 1.68 5 1 C3.35 1 1.7 1 0 1 C0 0.67 0 0.34 0 0 Z " fill="#020A1A" transform="translate(160,297)"/>
<path d="M0 0 C0.66 0 1.32 0 2 0 C2 5.28 2 10.56 2 16 C0.02 16 -1.96 16 -4 16 C-3.01 15.34 -2.02 14.68 -1 14 C-0.41312216 10.65386488 -0.41312216 10.65386488 -0.3125 6.875 C-0.24675781 5.59367187 -0.18101562 4.31234375 -0.11328125 2.9921875 C-0.05720703 1.51105469 -0.05720703 1.51105469 0 0 Z " fill="#0176E1" transform="translate(261,313)"/>
<path d="M0 0 C0.99 0.495 0.99 0.495 2 1 C2.37890625 3.65234375 2.37890625 3.65234375 2.5625 6.9375 C2.69515503 11.12248797 2.69515503 11.12248797 4 15 C2.68 15 1.36 15 0 15 C0 10.05 0 5.1 0 0 Z " fill="#000C1E" transform="translate(247,218)"/>
<path d="M0 0 C0.33 0 0.66 0 1 0 C1.02578125 0.98742188 1.0515625 1.97484375 1.078125 2.9921875 C1.13484375 4.27351563 1.1915625 5.55484375 1.25 6.875 C1.29640625 8.15117188 1.3428125 9.42734375 1.390625 10.7421875 C1.62555056 14.09188105 1.62555056 14.09188105 4.046875 15.4453125 C4.69140625 15.62835938 5.3359375 15.81140625 6 16 C0.375 17.125 0.375 17.125 -3 16 C-3 15.34 -3 14.68 -3 14 C-2.34 13.67 -1.68 13.34 -1 13 C-0.53045739 9.95418731 -0.53045739 9.95418731 -0.375 6.4375 C-0.30023438 5.23996094 -0.22546875 4.04242188 -0.1484375 2.80859375 C-0.09945313 1.88175781 -0.05046875 0.95492187 0 0 Z " fill="#0970E6" transform="translate(277,60)"/>
<path d="M0 0 C0.66 0 1.32 0 2 0 C2.25002209 1.74714233 2.47423194 3.49799141 2.6875 5.25 C2.87892578 6.71179688 2.87892578 6.71179688 3.07421875 8.203125 C3 11 3 11 0 15 C0 10.05 0 5.1 0 0 Z " fill="#4CBCEF" transform="translate(199,202)"/>
<path d="M0 0 C0.99 0 1.98 0 3 0 C2.83628906 0.55171875 2.67257812 1.1034375 2.50390625 1.671875 C1.94239586 4.26614007 1.90260992 6.59835411 1.9375 9.25 C1.94652344 10.14203125 1.95554687 11.0340625 1.96484375 11.953125 C1.97644531 12.62859375 1.98804688 13.3040625 2 14 C1.34 14 0.68 14 0 14 C0 9.38 0 4.76 0 0 Z " fill="#000218" transform="translate(471,170)"/>
</svg>
