<?xml version="1.0" encoding="UTF-8"?>
<svg version="1.1" xmlns="http://www.w3.org/2000/svg" width="185" height="273">
<path d="M0 0 C11.88 0 23.76 0 36 0 C36 3.3 36 6.6 36 10 C38.64 10 41.28 10 44 10 C44 15.28 44 20.56 44 26 C49.61 26.33 55.22 26.66 61 27 C61 33.27 61 39.54 61 46 C58.03 46 55.06 46 52 46 C52 53.59 52 61.18 52 69 C54.64 69 57.28 69 60 69 C60 78.24 60 87.48 60 97 C57.36 97 54.72 97 52 97 C52 99.64 52 102.28 52 105 C48.7 105 45.4 105 42 105 C42 110.28 42 115.56 42 121 C43.98 121 45.96 121 48 121 C48 118.36 48 115.72 48 113 C51.47914941 112.97112186 54.95826831 112.95324313 58.4375 112.9375 C59.92733398 112.92493164 59.92733398 112.92493164 61.44726562 112.91210938 C62.86362305 112.90727539 62.86362305 112.90727539 64.30859375 112.90234375 C65.18314209 112.89710693 66.05769043 112.89187012 66.95874023 112.88647461 C69 113 69 113 70 114 C70.04092937 116.33297433 70.04241723 118.66705225 70 121 C70.969375 120.979375 71.93875 120.95875 72.9375 120.9375 C76 121 76 121 77 122 C77.08758003 123.99964982 77.10696576 126.0023611 77.09765625 128.00390625 C77.09443359 129.21884766 77.09121094 130.43378906 77.08789062 131.68554688 C77.07951172 132.96494141 77.07113281 134.24433594 77.0625 135.5625 C77.05798828 136.84576172 77.05347656 138.12902344 77.04882812 139.45117188 C77.03699545 142.63416022 77.02051068 145.81705762 77 149 C73.7 149 70.4 149 67 149 C67 151.97 67 154.94 67 158 C64.03 158 61.06 158 58 158 C58 163.28 58 168.56 58 174 C60.97 174 63.94 174 67 174 C67 176.31 67 178.62 67 181 C68.9490625 180.9690625 68.9490625 180.9690625 70.9375 180.9375 C72.29165633 180.91600546 73.64756083 180.92851801 75 181 C76.54501451 182.54501451 76.12719131 183.9866022 76.12939453 186.13671875 C76.13254669 187.01432861 76.13569885 187.89193848 76.13894653 188.79614258 C76.13591019 190.2273645 76.13591019 190.2273645 76.1328125 191.6875 C76.13376923 192.66033936 76.13472595 193.63317871 76.13571167 194.63549805 C76.13639358 196.696778 76.13453853 198.75806008 76.13037109 200.81933594 C76.125023 203.98637688 76.13031572 207.153276 76.13671875 210.3203125 C76.13605797 212.31770865 76.13477681 214.31510471 76.1328125 216.3125 C76.13483673 217.26664795 76.13686096 218.2207959 76.13894653 219.20385742 C76.13421829 220.52027222 76.13421829 220.52027222 76.12939453 221.86328125 C76.12859894 222.63969971 76.12780334 223.41611816 76.12698364 224.21606445 C76 226 76 226 75 227 C73.31391034 227.07205511 71.62499341 227.08386068 69.9375 227.0625 C69.01839844 227.05347656 68.09929687 227.04445312 67.15234375 227.03515625 C66.44207031 227.02355469 65.73179687 227.01195312 65 227 C65 229.97 65 232.94 65 236 C56.42 236 47.84 236 39 236 C39 233.03 39 230.06 39 227 C36.36 227 33.72 227 31 227 C30.505 222.545 30.505 222.545 30 218 C22.08 218 14.16 218 6 218 C6 220.31 6 222.62 6 225 C-2.58 225 -11.16 225 -20 225 C-20 230.61 -20 236.22 -20 242 C-23.3 242 -26.6 242 -30 242 C-30 244.64 -30 247.28 -30 250 C-38.58 250 -47.16 250 -56 250 C-56 247.36 -56 244.72 -56 242 C-58.97 242 -61.94 242 -65 242 C-65 229.79 -65 217.58 -65 205 C-62.03 205 -59.06 205 -56 205 C-56 202.36 -56 199.72 -56 197 C-53.03 197 -50.06 197 -47 197 C-47 186.11 -47 175.22 -47 164 C-49.97 164 -52.94 164 -56 164 C-56 161.03 -56 158.06 -56 155 C-58.31 155 -60.62 155 -63 155 C-63 145.76 -63 136.52 -63 127 C-60.36 127 -57.72 127 -55 127 C-55 124.36 -55 121.72 -55 119 C-52.03 119 -49.06 119 -46 119 C-46.020625 117.700625 -46.04125 116.40125 -46.0625 115.0625 C-46.08399454 113.70834367 -46.07148199 112.35243917 -46 111 C-45 110 -45 110 -43.15234375 109.90234375 C-41.1015625 109.93489583 -39.05078125 109.96744792 -37 110 C-37 107.69 -37 105.38 -37 103 C-39.64 103 -42.28 103 -45 103 C-45.33 100.36 -45.66 97.72 -46 95 C-48.64 95 -51.28 95 -54 95 C-54 92.03 -54 89.06 -54 86 C-56.97 86 -59.94 86 -63 86 C-63 79.73 -63 73.46 -63 67 C-59.7 67 -56.4 67 -53 67 C-53 58.42 -53 49.84 -53 41 C-50.03 41 -47.06 41 -44 41 C-44 35.72 -44 30.44 -44 25 C-41.03 25 -38.06 25 -35 25 C-35 22.36 -35 19.72 -35 17 C-32.03 17 -29.06 17 -26 17 C-26 14.03 -26 11.06 -26 8 C-17.42 7.67 -8.84 7.34 0 7 C0 4.69 0 2.38 0 0 Z M17 11 C17 13.31 17 15.62 17 18 C19.64 18.33 22.28 18.66 25 19 C25 21.31 25 23.62 25 26 C27.97 26 30.94 26 34 26 C34 23.36 34 20.72 34 18 C31.36 18 28.72 18 26 18 C26 15.69 26 13.38 26 11 C23.03 11 20.06 11 17 11 Z M9 18 C9 20.64 9 23.28 9 26 C11.64 26 14.28 26 17 26 C17 23.36 17 20.72 17 18 C14.36 18 11.72 18 9 18 Z M50 123 C50 125.64 50 128.28 50 131 C52.64 131.33 55.28 131.66 58 132 C58 136.95 58 141.9 58 147 C60.31 147 62.62 147 65 147 C65 139.41 65 131.82 65 124 C61.71480525 122.90493508 59.26336585 122.90039392 55.8125 122.9375 C54.72582031 122.94652344 53.63914062 122.95554687 52.51953125 122.96484375 C51.68808594 122.97644531 50.85664063 122.98804687 50 123 Z M-27 139 C-27 141.64 -27 144.28 -27 147 C-29.97 147 -32.94 147 -36 147 C-36 152.28 -36 157.56 -36 163 C-33.69 163.33 -31.38 163.66 -29 164 C-29 166.64 -29 169.28 -29 172 C-21.08 172 -13.16 172 -5 172 C-5 169.36 -5 166.72 -5 164 C-1.7 164 1.6 164 5 164 C5 158.72 5 153.44 5 148 C2.36 147.67 -0.28 147.34 -3 147 C-3 144.36 -3 141.72 -3 139 C-10.92 139 -18.84 139 -27 139 Z " fill="#050103" transform="translate(87,0)"/>
<path d="M0 0 C2.31 0 4.62 0 7 0 C8 1 8 1 8.09765625 4.37890625 C8.09098369 5.77347077 8.07902532 7.16801743 8.0625 8.5625 C8.05798828 9.27341797 8.05347656 9.98433594 8.04882812 10.71679688 C8.03700864 12.47790013 8.01907263 14.23896036 8 16 C5.69 16 3.38 16 1 16 C1 19.3 1 22.6 1 26 C6.61 26 12.22 26 18 26 C18 24.02 18 22.04 18 20 C26.25 20 34.5 20 43 20 C43 21.98 43 23.96 43 26 C37.06 26 31.12 26 25 26 C25.495 34.91 25.495 34.91 26 44 C28.64 44.33 31.28 44.66 34 45 C34 47.64 34 50.28 34 53 C30.7 53 27.4 53 24 53 C24 55.64 24 58.28 24 61 C21.69 61 19.38 61 17 61 C17 58.03 17 55.06 17 52 C14.36 52 11.72 52 9 52 C9 46.39 9 40.78 9 35 C5.7 35 2.4 35 -1 35 C-1 37.64 -1 40.28 -1 43 C-3.31 43 -5.62 43 -8 43 C-7.98839844 43.64066406 -7.97679687 44.28132813 -7.96484375 44.94140625 C-7.91116881 50.08653222 -8.11830422 54.93024924 -9 60 C-6.36 60 -3.72 60 -1 60 C-1 62.97 -1 65.94 -1 69 C4.61 69 10.22 69 16 69 C16 71.64 16 74.28 16 77 C21.61 77 27.22 77 33 77 C33 79.97 33 82.94 33 86 C33.99 86.495 33.99 86.495 35 87 C34.34 89.31 33.68 91.62 33 94 C35.64 94 38.28 94 41 94 C41 94.66 41 95.32 41 96 C37.7 96 34.4 96 31 96 C31 92.7 31 89.4 31 86 C23.41 86 15.82 86 8 86 C8 88.97 8 91.94 8 95 C5.03 95 2.06 95 -1 95 C-1 97.64 -1 100.28 -1 103 C-3.97 103 -6.94 103 -10 103 C-10 111.58 -10 120.16 -10 129 C-6.7 129 -3.4 129 0 129 C0 126.69 0 124.38 0 122 C2.64 122.33 5.28 122.66 8 123 C8 127.95 8 132.9 8 138 C10.31 138 12.62 138 15 138 C16 139 16 139 16 146 C27.385 146.495 27.385 146.495 39 147 C39 144.36 39 141.72 39 139 C41.97 138.67 44.94 138.34 48 138 C48.33 133.05 48.66 128.1 49 123 C46.36 123 43.72 123 41 123 C40 121 40 121 41 114 C33.08 114 25.16 114 17 114 C17 111.36 17 108.72 17 106 C29.375 105.505 29.375 105.505 42 105 C42 107.64 42 110.28 42 113 C44.97 113 47.94 113 51 113 C51 116.3 51 119.6 51 123 C53.31 123 55.62 123 58 123 C58 128.61 58 134.22 58 140 C55.03 140 52.06 140 49 140 C49 142.64 49 145.28 49 148 C46.03 148 43.06 148 40 148 C40 150.64 40 153.28 40 156 C31.75 156 23.5 156 15 156 C15 153.36 15 150.72 15 148 C11.7 148 8.4 148 5 148 C5 156.25 5 164.5 5 173 C2.69 173 0.38 173 -2 173 C-2 175.64 -2 178.28 -2 181 C0.64 181 3.28 181 6 181 C6 183.64 6 186.28 6 189 C8.97 189 11.94 189 15 189 C15 192.3 15 195.6 15 199 C17.64 199 20.28 199 23 199 C23 196.36 23 193.72 23 191 C31.58 191 40.16 191 49 191 C49 188.69 49 186.38 49 184 C57.58 184 66.16 184 75 184 C75 178.06 75 172.12 75 166 C77.64 166 80.28 166 83 166 C83 163.03 83 160.06 83 157 C86.3 157 89.6 157 93 157 C93 159.97 93 162.94 93 166 C90.03 166 87.06 166 84 166 C84 177.22 84 188.44 84 200 C89.61 200 95.22 200 101 200 C101 197.36 101 194.72 101 192 C103.97 192 106.94 192 110 192 C109.99476318 191.08710205 109.98952637 190.1742041 109.98413086 189.23364258 C109.96704369 185.83243167 109.9545278 182.43126669 109.94506836 179.0300293 C109.94005331 177.56062091 109.93323967 176.09121748 109.92456055 174.62182617 C109.91237072 172.50438205 109.90674331 170.38700417 109.90234375 168.26953125 C109.89710693 166.99698486 109.89187012 165.72443848 109.88647461 164.41333008 C109.98460394 161.4629081 110.30936165 158.86053325 111 156 C117.15234375 155.90234375 117.15234375 155.90234375 119 156 C120.54501451 157.54501451 120.12719131 158.9866022 120.12939453 161.13671875 C120.13254669 162.01432861 120.13569885 162.89193848 120.13894653 163.79614258 C120.13591019 165.2273645 120.13591019 165.2273645 120.1328125 166.6875 C120.13376923 167.66033936 120.13472595 168.63317871 120.13571167 169.63549805 C120.13639358 171.696778 120.13453853 173.75806008 120.13037109 175.81933594 C120.125023 178.98637688 120.13031572 182.153276 120.13671875 185.3203125 C120.13605797 187.31770865 120.13477681 189.31510471 120.1328125 191.3125 C120.13483673 192.26664795 120.13686096 193.2207959 120.13894653 194.20385742 C120.13421829 195.52027222 120.13421829 195.52027222 120.12939453 196.86328125 C120.12859894 197.63969971 120.12780334 198.41611816 120.12698364 199.21606445 C120 201 120 201 119 202 C117.31391034 202.07205511 115.62499341 202.08386068 113.9375 202.0625 C113.01839844 202.05347656 112.09929687 202.04445312 111.15234375 202.03515625 C110.44207031 202.02355469 109.73179687 202.01195312 109 202 C109 204.97 109 207.94 109 211 C100.42 211 91.84 211 83 211 C83 208.03 83 205.06 83 202 C80.36 202 77.72 202 75 202 C74.505 197.545 74.505 197.545 74 193 C66.08 193 58.16 193 50 193 C50 195.31 50 197.62 50 200 C41.42 200 32.84 200 24 200 C24 205.61 24 211.22 24 217 C20.7 217 17.4 217 14 217 C14 219.64 14 222.28 14 225 C5.42 225 -3.16 225 -12 225 C-12 222.36 -12 219.72 -12 217 C-14.97 217 -17.94 217 -21 217 C-21 204.79 -21 192.58 -21 180 C-18.03 180 -15.06 180 -12 180 C-12 177.36 -12 174.72 -12 172 C-9.03 172 -6.06 172 -3 172 C-3 161.11 -3 150.22 -3 139 C-5.97 139 -8.94 139 -12 139 C-12 136.03 -12 133.06 -12 130 C-14.31 130 -16.62 130 -19 130 C-19 120.76 -19 111.52 -19 102 C-16.36 102 -13.72 102 -11 102 C-11 99.36 -11 96.72 -11 94 C-8.03 94 -5.06 94 -2 94 C-2.020625 92.700625 -2.04125 91.40125 -2.0625 90.0625 C-2.08399454 88.70834367 -2.07148199 87.35243917 -2 86 C-1 85 -1 85 0.84765625 84.90234375 C2.8984375 84.93489583 4.94921875 84.96744792 7 85 C7 82.69 7 80.38 7 78 C4.36 78 1.72 78 -1 78 C-1.33 75.36 -1.66 72.72 -2 70 C-4.64 70 -7.28 70 -10 70 C-10 67.03 -10 64.06 -10 61 C-12.97 61 -15.94 61 -19 61 C-19 54.73 -19 48.46 -19 42 C-15.7 42 -12.4 42 -9 42 C-9 33.42 -9 24.84 -9 16 C-6.03 16 -3.06 16 0 16 C0 10.72 0 5.44 0 0 Z " fill="#050103" transform="translate(43,25)"/>
<path d="M0 0 C3.3 0 6.6 0 10 0 C10 2.64 10 5.28 10 8 C12.31 8 14.62 8 17 8 C17 11.3 17 14.6 17 18 C19.64 18 22.28 18 25 18 C25 20.97 25 23.94 25 27 C33.91 27 42.82 27 52 27 C52.020625 30.939375 52.04125 34.87875 52.0625 38.9375 C52.071604 40.18136475 52.08070801 41.42522949 52.09008789 42.70678711 C52.09258545 43.6788208 52.09508301 44.65085449 52.09765625 45.65234375 C52.10289307 46.65257568 52.10812988 47.65280762 52.11352539 48.68334961 C52 51 52 51 51 52 C49.31391034 52.07205511 47.62499341 52.08386068 45.9375 52.0625 C45.01839844 52.05347656 44.09929687 52.04445312 43.15234375 52.03515625 C42.44207031 52.02355469 41.73179688 52.01195312 41 52 C41 54.97 41 57.94 41 61 C38.36 61 35.72 61 33 61 C33 66.94 33 72.88 33 79 C24.42 79 15.84 79 7 79 C7 81.31 7 83.62 7 86 C-1.58 86 -10.16 86 -19 86 C-19 88.64 -19 91.28 -19 94 C-21.64 94 -24.28 94 -27 94 C-27 90.7 -27 87.4 -27 84 C-29.97 84 -32.94 84 -36 84 C-36 81.36 -36 78.72 -36 76 C-38.64 76 -41.28 76 -44 76 C-44 73.36 -44 70.72 -44 68 C-41.69 68 -39.38 68 -37 68 C-37 59.75 -37 51.5 -37 43 C-33.7 43 -30.4 43 -27 43 C-27 45.64 -27 48.28 -27 51 C-18.75 51 -10.5 51 -2 51 C-2 48.36 -2 45.72 -2 43 C0.97 43 3.94 43 7 43 C7 40.36 7 37.72 7 35 C9.97 35 12.94 35 16 35 C16 29.39 16 23.78 16 18 C13.69 18 11.38 18 9 18 C9 14.7 9 11.4 9 8 C6.03 8 3.06 8 0 8 C0 5.36 0 2.72 0 0 Z " fill="#1840F4" transform="translate(85,130)"/>
<path d="M0 0 C4.51659796 -0.02496844 9.03315791 -0.04298537 13.54980469 -0.05493164 C15.08203838 -0.05991896 16.61426742 -0.06671122 18.14648438 -0.07543945 C26.49179593 -0.12174177 34.70373415 -0.04734171 43 1 C43 6.61 43 12.22 43 18 C40.03 18 37.06 18 34 18 C34 15.03 34 12.06 34 9 C31.03 9 28.06 9 25 9 C25 14.61 25 20.22 25 26 C26.54171875 25.98839844 28.0834375 25.97679688 29.671875 25.96484375 C31.69791546 25.95546393 33.72395722 25.94636394 35.75 25.9375 C36.76578125 25.92912109 37.7815625 25.92074219 38.828125 25.91210938 C39.8078125 25.90888672 40.7875 25.90566406 41.796875 25.90234375 C42.69760742 25.89710693 43.59833984 25.89187012 44.52636719 25.88647461 C47 26 47 26 51 27 C51 32.61 51 38.22 51 44 C48.03 44 45.06 44 42 44 C42 46.97 42 49.94 42 53 C36.06 53 30.12 53 24 53 C24 50.03 24 47.06 24 44 C18.39 44 12.78 44 7 44 C7 41.03 7 38.06 7 35 C4.36 35 1.72 35 -1 35 C-1 37.64 -1 40.28 -1 43 C-3.97 43 -6.94 43 -10 43 C-10 45.64 -10 48.28 -10 51 C-4.39 51 1.22 51 7 51 C7 53.97 7 56.94 7 60 C15.25 60 23.5 60 32 60 C32 62.31 32 64.62 32 67 C17.81 67 3.62 67 -11 67 C-11 64.03 -11 61.06 -11 58 C-16.61 58 -22.22 58 -28 58 C-28 55.36 -28 52.72 -28 50 C-33.61 50 -39.22 50 -45 50 C-45 47.03 -45 44.06 -45 41 C-47.64 41 -50.28 41 -53 41 C-52.67 35.39 -52.34 29.78 -52 24 C-49.69 24 -47.38 24 -45 24 C-45 21.36 -45 18.72 -45 16 C-41.7 16 -38.4 16 -35 16 C-35 21.61 -35 27.22 -35 33 C-32.36 33 -29.72 33 -27 33 C-27 35.97 -27 38.94 -27 42 C-24.69 42 -22.38 42 -20 42 C-20 39.36 -20 36.72 -20 34 C-16.7 34 -13.4 34 -10 34 C-10 31.36 -10 28.72 -10 26 C-11.299375 26.020625 -12.59875 26.04125 -13.9375 26.0625 C-15.29165633 26.08399454 -16.64756083 26.07148199 -18 26 C-19 25 -19 25 -19.11352539 23.23413086 C-19.10828857 22.48526611 -19.10305176 21.73640137 -19.09765625 20.96484375 C-19.09515869 20.23644287 -19.09266113 19.50804199 -19.09008789 18.75756836 C-19.08098389 17.8269458 -19.07187988 16.89632324 -19.0625 15.9375 C-19.041875 12.988125 -19.02125 10.03875 -19 7 C-13.06 7 -7.12 7 -1 7 C-0.67 4.69 -0.34 2.38 0 0 Z " fill="#ECC38A" transform="translate(87,44)"/>
<path d="M0 0 C11.88 0 23.76 0 36 0 C36 3.3 36 6.6 36 10 C38.64 10 41.28 10 44 10 C44 15.28 44 20.56 44 26 C49.61 26.33 55.22 26.66 61 27 C61 33.27 61 39.54 61 46 C58.03 46 55.06 46 52 46 C52.03029297 46.67579102 52.06058594 47.35158203 52.09179688 48.04785156 C52.22877886 51.11519434 52.36440387 54.18259566 52.5 57.25 C52.57154297 58.84521484 52.57154297 58.84521484 52.64453125 60.47265625 C52.71220703 62.00986328 52.71220703 62.00986328 52.78125 63.578125 C52.82314453 64.52075195 52.86503906 65.46337891 52.90820312 66.43457031 C52.98646933 68.62186096 53 70.81130953 53 73 C52.01 73.495 52.01 73.495 51 74 C51 73.01 51 72.02 51 71 C38.13 70.505 38.13 70.505 25 70 C25 64.39 25 58.78 25 53 C27.97 53 30.94 53 34 53 C34 55.97 34 58.94 34 62 C36.97 62 39.94 62 43 62 C43 56.39 43 50.78 43 45 C28.81 44.67 14.62 44.34 0 44 C0 45.65 0 47.3 0 49 C-0.495 47.02 -0.495 47.02 -1 45 C-9.25 45 -17.5 45 -26 45 C-26 46.98 -26 48.96 -26 51 C-31.61 51 -37.22 51 -43 51 C-43 47.7 -43 44.4 -43 41 C-40.69 41 -38.38 41 -36 41 C-36.33 35.72 -36.66 30.44 -37 25 C-36.34 25 -35.68 25 -35 25 C-35 22.36 -35 19.72 -35 17 C-32.03 17 -29.06 17 -26 17 C-26 14.03 -26 11.06 -26 8 C-17.42 7.67 -8.84 7.34 0 7 C0 4.69 0 2.38 0 0 Z M17 11 C17 13.31 17 15.62 17 18 C19.64 18.33 22.28 18.66 25 19 C25 21.31 25 23.62 25 26 C27.97 26 30.94 26 34 26 C34 23.36 34 20.72 34 18 C31.36 18 28.72 18 26 18 C26 15.69 26 13.38 26 11 C23.03 11 20.06 11 17 11 Z M9 18 C9 20.64 9 23.28 9 26 C11.64 26 14.28 26 17 26 C17 23.36 17 20.72 17 18 C14.36 18 11.72 18 9 18 Z " fill="#080101" transform="translate(87,0)"/>
<path d="M0 0 C6.15234375 -0.09765625 6.15234375 -0.09765625 8 0 C9.54501451 1.54501451 9.12719131 2.9866022 9.12939453 5.13671875 C9.13254669 6.01432861 9.13569885 6.89193848 9.13894653 7.79614258 C9.13591019 9.2273645 9.13591019 9.2273645 9.1328125 10.6875 C9.13376923 11.66033936 9.13472595 12.63317871 9.13571167 13.63549805 C9.13639358 15.696778 9.13453853 17.75806008 9.13037109 19.81933594 C9.125023 22.98637688 9.13031572 26.153276 9.13671875 29.3203125 C9.13605797 31.31770865 9.13477681 33.31510471 9.1328125 35.3125 C9.13483673 36.26664795 9.13686096 37.2207959 9.13894653 38.20385742 C9.13421829 39.52027222 9.13421829 39.52027222 9.12939453 40.86328125 C9.12859894 41.63969971 9.12780334 42.41611816 9.12698364 43.21606445 C9 45 9 45 8 46 C6.31391034 46.07205511 4.62499341 46.08386068 2.9375 46.0625 C2.01839844 46.05347656 1.09929687 46.04445312 0.15234375 46.03515625 C-0.55792969 46.02355469 -1.26820313 46.01195312 -2 46 C-2 48.97 -2 51.94 -2 55 C-10.58 55 -19.16 55 -28 55 C-28 52.03 -28 49.06 -28 46 C-30.64 46 -33.28 46 -36 46 C-36.495 41.545 -36.495 41.545 -37 37 C-44.92 37 -52.84 37 -61 37 C-61 39.31 -61 41.62 -61 44 C-69.58 44 -78.16 44 -87 44 C-87 49.61 -87 55.22 -87 61 C-90.3 61 -93.6 61 -97 61 C-97 63.64 -97 66.28 -97 69 C-105.58 69 -114.16 69 -123 69 C-123 66.36 -123 63.72 -123 61 C-125.97 61 -128.94 61 -132 61 C-132 48.79 -132 36.58 -132 24 C-129.03 24 -126.06 24 -123 24 C-123 21.36 -123 18.72 -123 16 C-120.03 16 -117.06 16 -114 16 C-113.505 23.92 -113.505 23.92 -113 32 C-107.39 32.33 -101.78 32.66 -96 33 C-96 36.3 -96 39.6 -96 43 C-93.36 43 -90.72 43 -88 43 C-88 40.36 -88 37.72 -88 35 C-79.42 35 -70.84 35 -62 35 C-62 32.69 -62 30.38 -62 28 C-53.42 28 -44.84 28 -36 28 C-36 22.06 -36 16.12 -36 10 C-33.36 10 -30.72 10 -28 10 C-28 7.03 -28 4.06 -28 1 C-24.7 1 -21.4 1 -18 1 C-18 3.97 -18 6.94 -18 10 C-20.97 10 -23.94 10 -27 10 C-27 21.22 -27 32.44 -27 44 C-21.39 44 -15.78 44 -10 44 C-10 41.36 -10 38.72 -10 36 C-7.03 36 -4.06 36 -1 36 C-1.00523682 35.08710205 -1.01047363 34.1742041 -1.01586914 33.23364258 C-1.03295631 29.83243167 -1.0454722 26.43126669 -1.05493164 23.0300293 C-1.05994669 21.56062091 -1.06676033 20.09121748 -1.07543945 18.62182617 C-1.08762928 16.50438205 -1.09325669 14.38700417 -1.09765625 12.26953125 C-1.10289307 10.99698486 -1.10812988 9.72443848 -1.11352539 8.41333008 C-1.01539606 5.4629081 -0.69063835 2.86053325 0 0 Z " fill="#040103" transform="translate(154,181)"/>
<path d="M0 0 C2.97 0 5.94 0 9 0 C9.495 7.92 9.495 7.92 10 16 C15.28 16.66 20.56 17.32 26 18 C26 21.3 26 24.6 26 28 C29.3 28 32.6 28 36 28 C36 33.61 36 39.22 36 45 C32.7 45 29.4 45 26 45 C26 47.64 26 50.28 26 53 C17.42 53 8.84 53 0 53 C0 50.36 0 47.72 0 45 C-2.97 45 -5.94 45 -9 45 C-9 32.79 -9 20.58 -9 8 C-6.03 8 -3.06 8 0 8 C0 5.36 0 2.72 0 0 Z " fill="#030101" transform="translate(31,197)"/>
<path d="M0 0 C4.95 0 9.9 0 15 0 C15 2.31 15 4.62 15 7 C12.36 7 9.72 7 7 7 C6.67 12.28 6.34 17.56 6 23 C3.03 23 0.06 23 -3 23 C-3 25.97 -3 28.94 -3 32 C-11.58 32 -20.16 32 -29 32 C-29 34.64 -29 37.28 -29 40 C-34.28 40 -39.56 40 -45 40 C-45 37.03 -45 34.06 -45 31 C-42.36 31 -39.72 31 -37 31 C-37 25.72 -37 20.44 -37 15 C-34.03 15 -31.06 15 -28 15 C-28 12.36 -28 9.72 -28 7 C-18.76 7 -9.52 7 0 7 C0 4.69 0 2.38 0 0 Z " fill="#F1110D" transform="translate(89,11)"/>
<path d="M0 0 C0.99 0.33 1.98 0.66 3 1 C4.25433458 4.76300374 4.10695422 8.27210909 4.0625 12.1875 C4.05798828 12.93708984 4.05347656 13.68667969 4.04882812 14.45898438 C4.03706354 16.30602383 4.01912865 18.15302213 4 20 C5.01368652 19.99214478 5.01368652 19.99214478 6.04785156 19.98413086 C9.11522489 19.96331993 12.18258333 19.95032671 15.25 19.9375 C16.84521484 19.92493164 16.84521484 19.92493164 18.47265625 19.91210938 C19.49746094 19.90888672 20.52226563 19.90566406 21.578125 19.90234375 C22.99206543 19.89448853 22.99206543 19.89448853 24.43457031 19.88647461 C27 20 27 20 31 21 C31 26.61 31 32.22 31 38 C28.03 38 25.06 38 22 38 C22 40.97 22 43.94 22 47 C16.06 47 10.12 47 4 47 C4 44.03 4 41.06 4 38 C-1.61 38 -7.22 38 -13 38 C-13 34.7 -13 31.4 -13 28 C-16.63 28 -20.26 28 -24 28 C-23.67 26.68 -23.34 25.36 -23 24 C-21.68 24 -20.36 24 -19 24 C-17.84058962 20.52176885 -18.29179116 18.54104422 -19 15 C-18.34 15 -17.68 15 -17 15 C-16.67 14.34 -16.34 13.68 -16 13 C-15.34 15.64 -14.68 18.28 -14 21 C-13.67 20.67 -13.34 20.34 -13 20 C-11.15108054 19.76636119 -9.29511969 19.58696365 -7.4375 19.4375 C-5.91962891 19.31181641 -5.91962891 19.31181641 -4.37109375 19.18359375 C-3.19740234 19.09271484 -3.19740234 19.09271484 -2 19 C-2.02320312 18.04738281 -2.04640625 17.09476563 -2.0703125 16.11328125 C-2.08835937 14.85902344 -2.10640625 13.60476562 -2.125 12.3125 C-2.14820312 11.07113281 -2.17140625 9.82976563 -2.1953125 8.55078125 C-2.01032021 5.18762143 -1.45767895 3.0014413 0 0 Z " fill="#F4C98C" transform="translate(107,50)"/>
<path d="M0 0 C7.59 0 15.18 0 23 0 C23 3.3 23 6.6 23 10 C26.3 10 29.6 10 33 10 C33 12.64 33 15.28 33 18 C24.42 18 15.84 18 7 18 C7 20.97 7 23.94 7 27 C4.36 27 1.72 27 -1 27 C-1 29.31 -1 31.62 -1 34 C-3.97 34 -6.94 34 -10 34 C-10 36.97 -10 39.94 -10 43 C-12.64 43 -15.28 43 -18 43 C-18 34.42 -18 25.84 -18 17 C-15.03 17 -12.06 17 -9 17 C-9 14.36 -9 11.72 -9 9 C-6.03 9 -3.06 9 0 9 C0 6.03 0 3.06 0 0 Z " fill="#EE120D" transform="translate(51,111)"/>
<path d="M0 0 C5.61 0 11.22 0 17 0 C17 11.55 17 23.1 17 35 C14.03 35 11.06 35 8 35 C8 37.64 8 40.28 8 43 C2.39 43 -3.22 43 -9 43 C-9 31.78 -9 20.56 -9 9 C-6.03 9 -3.06 9 0 9 C0 6.03 0 3.06 0 0 Z " fill="#894E22" transform="translate(136,182)"/>
<path d="M0 0 C3.3 0 6.6 0 10 0 C10 5.61 10 11.22 10 17 C12.31 17 14.62 17 17 17 C17 20.3 17 23.6 17 27 C19.97 26.67 22.94 26.34 26 26 C26.33 23.69 26.66 21.38 27 19 C28.98 19 30.96 19 33 19 C33 20.98 33 22.96 33 25 C35.97 25 38.94 25 42 25 C42.33 24.34 42.66 23.68 43 23 C43 23.99 43 24.98 43 26 C40.03 26 37.06 26 34 26 C34.04125 27.27875 34.0825 28.5575 34.125 29.875 C34.1953125 32.0546875 34.1953125 32.0546875 34 34 C33.34 34.66 32.68 35.32 32 36 C32 36.99 32 37.98 32 39 C32.99 39.495 32.99 39.495 34 40 C34 40.66 34 41.32 34 42 C28.39 42 22.78 42 17 42 C17 39.36 17 36.72 17 34 C11.39 34 5.78 34 0 34 C0 31.03 0 28.06 0 25 C-2.64 25 -5.28 25 -8 25 C-7.67 19.39 -7.34 13.78 -7 8 C-4.69 8 -2.38 8 0 8 C0 5.36 0 2.72 0 0 Z " fill="#F4C98E" transform="translate(42,60)"/>
<path d="M0 0 C11.88 0 23.76 0 36 0 C36 2.97 36 5.94 36 9 C35.34 9.33 34.68 9.66 34 10 C34.020625 11.134375 34.04125 12.26875 34.0625 13.4375 C34 17 34 17 33 18 C30.66702567 18.04092937 28.33294775 18.04241723 26 18 C26 15.69 26 13.38 26 11 C18.08 11 10.16 11 2 11 C2 13.31 2 15.62 2 18 C-7.24 18 -16.48 18 -26 18 C-26 20.64 -26 23.28 -26 26 C-28.97 26 -31.94 26 -35 26 C-35 31.28 -35 36.56 -35 42 C-37.64 42 -40.28 42 -43 42 C-43 41.67 -43 41.34 -43 41 C-40.69 41 -38.38 41 -36 41 C-36.33 35.72 -36.66 30.44 -37 25 C-36.34 25 -35.68 25 -35 25 C-35 22.36 -35 19.72 -35 17 C-32.03 17 -29.06 17 -26 17 C-26 14.03 -26 11.06 -26 8 C-17.42 7.67 -8.84 7.34 0 7 C0 4.69 0 2.38 0 0 Z " fill="#170607" transform="translate(87,0)"/>
<path d="M0 0 C2.31 0 4.62 0 7 0 C7 2.97 7 5.94 7 9 C9.97 9 12.94 9 16 9 C16 14.61 16 20.22 16 26 C18.97 26 21.94 26 25 26 C25 28.97 25 31.94 25 35 C16.42 35 7.84 35 -1 35 C-1 26.68582908 -0.92040001 18.47619745 -0.5 10.1875 C-0.45230469 9.19685547 -0.40460937 8.20621094 -0.35546875 7.18554688 C-0.23975221 4.79021444 -0.1212524 2.39505745 0 0 Z " fill="#874C21" transform="translate(32,206)"/>
<path d="M0 0 C5.61 0 11.22 0 17 0 C17 3.3 17 6.6 17 10 C19.97 10 22.94 10 26 10 C26 12.64 26 15.28 26 18 C28.64 18 31.28 18 34 18 C34 20.64 34 23.28 34 26 C25.75 26 17.5 26 9 26 C9 23.03 9 20.06 9 17 C6.03 17 3.06 17 0 17 C0 11.39 0 5.78 0 0 Z " fill="#F0120F" transform="translate(102,121)"/>
<path d="M0 0 C3.3 0 6.6 0 10 0 C10 2.64 10 5.28 10 8 C12.31 8 14.62 8 17 8 C17 11.3 17 14.6 17 18 C19.64 18 22.28 18 25 18 C25 23.61 25 29.22 25 35 C22.03 35 19.06 35 16 35 C16 29.39 16 23.78 16 18 C13.69 18 11.38 18 9 18 C9 14.7 9 11.4 9 8 C6.03 8 3.06 8 0 8 C0 5.36 0 2.72 0 0 Z " fill="#122B8B" transform="translate(85,130)"/>
<path d="M0 0 C5.94 0 11.88 0 18 0 C18 2.97 18 5.94 18 9 C21.63 9 25.26 9 29 9 C29 9.33 29 9.66 29 10 C26.36 10.33 23.72 10.66 21 11 C20.67 11.99 20.34 12.98 20 14 C16.23699626 15.25433458 12.72789091 15.10695422 8.8125 15.0625 C8.06291016 15.05798828 7.31332031 15.05347656 6.54101562 15.04882812 C4.69397617 15.03706354 2.84697787 15.01912865 1 15 C1 11.04 1 7.08 1 3 C0.34 2.67 -0.32 2.34 -1 2 C-0.67 1.34 -0.34 0.68 0 0 Z " fill="#F5CB90" transform="translate(76,95)"/>
<path d="M0 0 C0.66 0.99 1.32 1.98 2 3 C2.66 1.68 3.32 0.36 4 -1 C5.32 -1 6.64 -1 8 -1 C8.33 0.65 8.66 2.3 9 4 C10.65 2.35 12.3 0.7 14 -1 C14.33 -0.34 14.66 0.32 15 1 C16.32 0.67 17.64 0.34 19 0 C19.495 0.99 19.495 0.99 20 2 C20.33 1.01 20.66 0.02 21 -1 C21.99 -0.67 22.98 -0.34 24 0 C26.3406065 -0.27769908 28.67624308 -0.60539977 31 -1 C30.67 -0.01 30.34 0.98 30 2 C29.34 2 28.68 2 28 2 C28 3.98 28 5.96 28 8 C27.34 8 26.68 8 26 8 C25.505 5.525 25.505 5.525 25 3 C24.67 3 24.34 3 24 3 C23.67 4.98 23.34 6.96 23 9 C22.01 8.67 21.02 8.34 20 8 C19.505 7.01 19.505 7.01 19 6 C18.34 6.99 17.68 7.98 17 9 C16.01 9 15.02 9 14 9 C14 8.34 14 7.68 14 7 C13.4225 7.33 12.845 7.66 12.25 8 C10 9 10 9 6 9 C5.67 7.35 5.34 5.7 5 4 C4.34 5.65 3.68 7.3 3 9 C0 8 0 8 -1.1875 5.9375 C-1.5896875 4.9784375 -1.5896875 4.9784375 -2 4 C-2.99 4.495 -2.99 4.495 -4 5 C-3.34 5.66 -2.68 6.32 -2 7 C-5 9 -5 9 -7.125 8.75 C-9 8 -9 8 -10 6 C-10.99 6.99 -11.98 7.98 -13 9 C-13.99 8.67 -14.98 8.34 -16 8 C-16 5.36 -16 2.72 -16 0 C-13.98177083 0.03255208 -11.96354167 0.06510417 -9.9453125 0.09765625 C-1.33779264 -0.33444816 -1.33779264 -0.33444816 0 0 Z M-5 1 C-3.515 1.99 -3.515 1.99 -2 3 C-2 2.34 -2 1.68 -2 1 C-2.99 1 -3.98 1 -5 1 Z M-14 2 C-13.67 3.32 -13.34 4.64 -13 6 C-12.34 4.68 -11.68 3.36 -11 2 C-11.99 2 -12.98 2 -14 2 Z M12 3 C13 5 13 5 13 5 Z " fill="#050405" transform="translate(100,264)"/>
<path d="M0 0 C2.97 0 5.94 0 9 0 C9 3.3 9 6.6 9 10 C11.64 10 14.28 10 17 10 C17 7.36 17 4.72 17 2 C25.58 2 34.16 2 43 2 C43.495 6.455 43.495 6.455 44 11 C32.12 11 20.24 11 8 11 C8 7.7 8 4.4 8 1 C5.36 1 2.72 1 0 1 C0 0.67 0 0.34 0 0 Z " fill="#020103" transform="translate(49,214)"/>
<path d="M0 0 C1.98 0 3.96 0 6 0 C6 1.98 6 3.96 6 6 C8.97 6 11.94 6 15 6 C15.33 5.34 15.66 4.68 16 4 C16 4.99 16 5.98 16 7 C13.03 7 10.06 7 7 7 C7 9.64 7 12.28 7 15 C6.01 15.495 6.01 15.495 5 16 C3.95191959 17.97522846 2.9479589 19.97481509 2 22 C0.52093108 22.02689216 -0.95827483 22.04634621 -2.4375 22.0625 C-3.67306641 22.07990234 -3.67306641 22.07990234 -4.93359375 22.09765625 C-7 22 -7 22 -8 21 C-8.14115161 18.32941149 -8.04247107 15.67567762 -8 13 C-7.01 12.67 -6.02 12.34 -5 12 C-4.67 11.01 -4.34 10.02 -4 9 C-3.01 9 -2.02 9 -1 9 C-0.67 6.03 -0.34 3.06 0 0 Z " fill="#FCCF90" transform="translate(69,79)"/>
<path d="M0 0 C8.58 0 17.16 0 26 0 C26 2.64 26 5.28 26 8 C17.42 8 8.84 8 0 8 C0 5.36 0 2.72 0 0 Z " fill="#040000" transform="translate(62,9)"/>
<path d="M0 0 C4.62 0 9.24 0 14 0 C14.33 3.63 14.66 7.26 15 11 C13.35 11.66 11.7 12.32 10 13 C9.67 13.66 9.34 14.32 9 15 C6.03 15 3.06 15 0 15 C0 10.05 0 5.1 0 0 Z " fill="#F80E0A" transform="translate(103,122)"/>
<path d="M0 0 C8.58 0 17.16 0 26 0 C26 0.66 26 1.32 26 2 C18.08 2 10.16 2 2 2 C2 7.28 2 12.56 2 18 C-10.1875 19.20535714 -10.1875 19.20535714 -15 18 C-15 20.31 -15 22.62 -15 25 C-15.66 25 -16.32 25 -17 25 C-17 22.03 -17 19.06 -17 16 C-14.03 16 -11.06 16 -8 16 C-8 13.69 -8 11.38 -8 9 C-5.36 9 -2.72 9 0 9 C0 6.03 0 3.06 0 0 Z " fill="#0E0101" transform="translate(58,129)"/>
<path d="M0 0 C0.8353125 0.556875 0.8353125 0.556875 1.6875 1.125 C4.79455369 2.30064194 6.01608792 1.22416906 9 0 C9.99 0.66 10.98 1.32 12 2 C12.99 1.67 13.98 1.34 15 1 C15.33 1.66 15.66 2.32 16 3 C16.33 2.01 16.66 1.02 17 0 C17.99 0.33 18.98 0.66 20 1 C20.6875 3.0625 20.6875 3.0625 21 5 C21.99 3.35 22.98 1.7 24 0 C25.39195915 4.17587745 23.82323219 6.13474776 22 10 C20.01432292 9.70703125 18.02864583 9.4140625 16.04296875 9.12109375 C13.7974658 8.86095201 13.7974658 8.86095201 11 10 C10.67 9.34 10.34 8.68 10 8 C9.01 8.66 8.02 9.32 7 10 C5.328451 9.69208308 3.66194453 9.35613097 2 9 C0.32774271 9.30404678 -1.34080104 9.63128912 -3 10 C-4 9 -4 9 -4.3125 6.6875 C-3.91080481 3.23292134 -2.60100327 2.19459651 0 0 Z M-1 3 C-1.33 4.65 -1.66 6.3 -2 8 C-0.35 7.34 1.3 6.68 3 6 C3 5.01 3 4.02 3 3 C1.68 3 0.36 3 -1 3 Z M6 3 C5.67 4.32 5.34 5.64 5 7 C6.98491642 6.73323796 6.98491642 6.73323796 9 6 C9.33 5.01 9.66 4.02 10 3 C8.68 3 7.36 3 6 3 Z " fill="#050505" transform="translate(160,263)"/>
<path d="M0 0 C0.99 0.33 1.98 0.66 3 1 C4.56691727 0.91372214 6.13074455 0.76045477 7.6875 0.5625 C20.8336514 -0.87476145 20.8336514 -0.87476145 26 3 C25.67 3.66 25.34 4.32 25 5 C22.6859378 5.73075648 20.35171131 6.40138258 18 7 C18 7.99 18 8.98 18 10 C17.34 10 16.68 10 16 10 C16 7.69 16 5.38 16 3 C15.01 3 14.02 3 13 3 C13 5.31 13 7.62 13 10 C12.34 9.67 11.68 9.34 11 9 C10.375 6.4375 10.375 6.4375 10 4 C9.01 3.67 8.02 3.34 7 3 C7 4.98 7 6.96 7 9 C6.34 9 5.68 9 5 9 C4.67 7.35 4.34 5.7 4 4 C3.67 4 3.34 4 3 4 C2.67 5.98 2.34 7.96 2 10 C1.34 10 0.68 10 0 10 C0 9.01 0 8.02 0 7 C-0.45375 7.495 -0.9075 7.99 -1.375 8.5 C-3 10 -3 10 -5 10 C-5 7.03 -5 4.06 -5 1 C-4.34 1 -3.68 1 -3 1 C-3 2.32 -3 3.64 -3 5 C-2.01 5 -1.02 5 0 5 C0 3.35 0 1.7 0 0 Z M18 3 C18.33 3.66 18.66 4.32 19 5 C19.66 4.34 20.32 3.68 21 3 C20.01 3 19.02 3 18 3 Z " fill="#070606" transform="translate(5,263)"/>
<path d="M0 0 C1.52519276 0.08937803 3.04681929 0.24537146 4.5625 0.4375 C5.38878906 0.53933594 6.21507812 0.64117187 7.06640625 0.74609375 C7.70449219 0.82988281 8.34257813 0.91367188 9 1 C9 1.33 9 1.66 9 2 C6.03 2 3.06 2 0 2 C0 10.25 0 18.5 0 27 C-2.31 27 -4.62 27 -7 27 C-7 29.64 -7 32.28 -7 35 C-4.36 35 -1.72 35 1 35 C1 37.64 1 40.28 1 43 C-5.15234375 43.09765625 -5.15234375 43.09765625 -7 43 C-8 42 -8 42 -8.09765625 38.40234375 C-8.0909822 36.91403133 -8.07902183 35.42573568 -8.0625 33.9375 C-8.05798828 33.17888672 -8.05347656 32.42027344 -8.04882812 31.63867188 C-8.0370068 29.75908129 -8.01907078 27.87953101 -8 26 C-7.34 26 -6.68 26 -6 26 C-6 25.34 -6 24.68 -6 24 C-4.35 24.33 -2.7 24.66 -1 25 C-1.00523682 24.27820557 -1.01047363 23.55641113 -1.01586914 22.81274414 C-1.03657358 19.56267151 -1.04963918 16.31261272 -1.0625 13.0625 C-1.07087891 11.92619141 -1.07925781 10.78988281 -1.08789062 9.61914062 C-1.09111328 8.53955078 -1.09433594 7.45996094 -1.09765625 6.34765625 C-1.10289307 5.34742432 -1.10812988 4.34719238 -1.11352539 3.31665039 C-1 1 -1 1 0 0 Z " fill="#01000C" transform="translate(48,171)"/>
<path d="M0 0 C2.97 0 5.94 0 9 0 C9.02886984 3.97915159 9.04675406 7.95827653 9.0625 11.9375 C9.07087891 13.07380859 9.07925781 14.21011719 9.08789062 15.38085938 C9.09111328 16.46044922 9.09433594 17.54003906 9.09765625 18.65234375 C9.10289307 19.65257568 9.10812988 20.65280762 9.11352539 21.68334961 C9 24 9 24 8 25 C6.31391034 25.07205511 4.62499341 25.08386068 2.9375 25.0625 C2.01839844 25.05347656 1.09929687 25.04445312 0.15234375 25.03515625 C-0.55792969 25.02355469 -1.26820312 25.01195312 -2 25 C-2 24.67 -2 24.34 -2 24 C0.97 24 3.94 24 7 24 C7 19.38 7 14.76 7 10 C4.69 10 2.38 10 0 10 C0 6.7 0 3.4 0 0 Z " fill="#2E439A" transform="translate(128,157)"/>
<path d="M0 0 C2.64 0 5.28 0 8 0 C8 5.28 8 10.56 8 16 C5.36 16 2.72 16 0 16 C0 10.72 0 5.44 0 0 Z " fill="#070000" transform="translate(95,53)"/>
<path d="M0 0 C5.61 0 11.22 0 17 0 C17 11.55 17 23.1 17 35 C15.515 34.505 15.515 34.505 14 34 C14.33 23.44 14.66 12.88 15 2 C9.06 2.495 9.06 2.495 3 3 C2.67 5.31 2.34 7.62 2 10 C-1.63 10 -5.26 10 -9 10 C-9 9.67 -9 9.34 -9 9 C-6.03 9 -3.06 9 0 9 C0 6.03 0 3.06 0 0 Z " fill="#6C4427" transform="translate(136,182)"/>
<path d="M0 0 C0.33 0 0.66 0 1 0 C1 10.56 1 21.12 1 32 C7.93 32 14.86 32 22 32 C22 30.02 22 28.04 22 26 C20.02 26 18.04 26 16 26 C16 25.67 16 25.34 16 25 C18.97 25 21.94 25 25 25 C25 27.97 25 30.94 25 34 C16.42 34 7.84 34 -1 34 C-1 25.84768489 -0.93404003 17.81108699 -0.5 9.6875 C-0.45230469 8.74455078 -0.40460937 7.80160156 -0.35546875 6.83007812 C-0.23989213 4.55321869 -0.12139905 2.27655508 0 0 Z " fill="#6E4628" transform="translate(32,207)"/>
<path d="M0 0 C0.66 0 1.32 0 2 0 C2.33 0.66 2.66 1.32 3 2 C3.66 1.34 4.32 0.68 5 0 C6.6752357 0.28718326 8.34080104 0.63128912 10 1 C12.33301986 1.03824623 14.66711508 1.04574284 17 1 C16.67 1.99 16.34 2.98 16 4 C16.33 4.99 16.66 5.98 17 7 C15.875 8.5625 15.875 8.5625 14 10 C11.99019869 9.73202649 9.9896995 9.39013716 8 9 C5.99053778 9.27050453 3.98645776 9.59367909 2 10 C1.34 10 0.68 10 0 10 C0 6.7 0 3.4 0 0 Z M5 3 C4.67 3.66 4.34 4.32 4 5 C4.99 4.67 5.98 4.34 7 4 C6.34 3.67 5.68 3.34 5 3 Z M12 6 C11.67 6.66 11.34 7.32 11 8 C11.99 7.67 12.98 7.34 14 7 C13.34 6.67 12.68 6.34 12 6 Z " fill="#0A0809" transform="translate(63,263)"/>
<path d="M0 0 C3.3 0 6.6 0 10 0 C10 2.97 10 5.94 10 9 C1.585 9.495 1.585 9.495 -7 10 C-7 15.61 -7 21.22 -7 27 C-7.33 27 -7.66 27 -8 27 C-8 21.06 -8 15.12 -8 9 C-5.36 9 -2.72 9 0 9 C0 6.03 0 3.06 0 0 Z " fill="#040620" transform="translate(126,182)"/>
<path d="M0 0 C7.26 0 14.52 0 22 0 C22 2.97 22 5.94 22 9 C23.134375 8.979375 24.26875 8.95875 25.4375 8.9375 C29 9 29 9 30 10 C30.14115161 12.67058851 30.04247107 15.32432238 30 18 C32.64 18 35.28 18 38 18 C38 20.97 38 23.94 38 27 C37.67 27 37.34 27 37 27 C37 24.36 37 21.72 37 19 C34.36 19 31.72 19 29 19 C29 16.36 29 13.72 29 11 C26.03 11 23.06 11 20 11 C20 7.7 20 4.4 20 1 C14.39 1 8.78 1 3 1 C3 6.61 3 12.22 3 18 C2.34 18 1.68 18 1 18 C0.67 12.06 0.34 6.12 0 0 Z " fill="#410201" transform="translate(99,120)"/>
<path d="M0 0 C3.96 0 7.92 0 12 0 C12 1.98 12 3.96 12 6 C4.41 6 -3.18 6 -11 6 C-7.99382731 2.99382731 -5.17618402 3.40414684 -1 3 C-0.67 2.01 -0.34 1.02 0 0 Z " fill="#F9D198" transform="translate(107,105)"/>
<path d="M0 0 C2.97 0 5.94 0 9 0 C9 3.3 9 6.6 9 10 C11.64 10 14.28 10 17 10 C17 7.36 17 4.72 17 2 C25.58 2 34.16 2 43 2 C42.67 2.99 42.34 3.98 42 5 C33.92138585 5.09579384 26.01659634 5.12513633 18 4 C18 6.31 18 8.62 18 11 C14.7 11 11.4 11 8 11 C8 7.7 8 4.4 8 1 C5.36 1 2.72 1 0 1 C0 0.67 0 0.34 0 0 Z " fill="#020935" transform="translate(49,214)"/>
<path d="M0 0 C8.58 0 17.16 0 26 0 C26 0.33 26 0.66 26 1 C17.75 1 9.5 1 1 1 C1 4.3 1 7.6 1 11 C-1.64 11 -4.28 11 -7 11 C-6.979375 11.969375 -6.95875 12.93875 -6.9375 13.9375 C-7 17 -7 17 -8 18 C-10.33297433 18.04092937 -12.66705225 18.04241723 -15 18 C-15 20.31 -15 22.62 -15 25 C-15.66 25 -16.32 25 -17 25 C-17 22.03 -17 19.06 -17 16 C-14.03 16 -11.06 16 -8 16 C-8 13.69 -8 11.38 -8 9 C-5.36 9 -2.72 9 0 9 C0 6.03 0 3.06 0 0 Z " fill="#560302" transform="translate(58,129)"/>
<path d="M0 0 C2.97 0 5.94 0 9 0 C9 2.64 9 5.28 9 8 C11.64 8 14.28 8 17 8 C17 10.64 17 13.28 17 16 C8.75 16 0.5 16 -8 16 C-8 13.03 -8 10.06 -8 7 C-7.67 7 -7.34 7 -7 7 C-7 9.64 -7 12.28 -7 15 C0.59 15 8.18 15 16 15 C16 13.35 16 11.7 16 10 C13.36 10 10.72 10 8 10 C6.64560332 7.29120665 6.93498549 4.99066732 7 2 C4.69 2 2.38 2 0 2 C0 1.34 0 0.68 0 0 Z " fill="#CC1C1A" transform="translate(119,131)"/>
<path d="M0 0 C3.60915845 0.48122113 6.22304562 0.2742095 9.75 -0.5 C9.75 0.49 9.75 1.48 9.75 2.5 C9.09 2.5 8.43 2.5 7.75 2.5 C7.75 4.48 7.75 6.46 7.75 8.5 C6.76 8.995 6.76 8.995 5.75 9.5 C5.75 7.19 5.75 4.88 5.75 2.5 C4.76 2.5 3.77 2.5 2.75 2.5 C3.08 4.48 3.41 6.46 3.75 8.5 C2.1 8.17 0.45 7.84 -1.25 7.5 C-1.58 8.16 -1.91 8.82 -2.25 9.5 C-2.91 9.5 -3.57 9.5 -4.25 9.5 C-4.58 6.53 -4.91 3.56 -5.25 0.5 C-3.25 -0.5 -3.25 -0.5 0 0 Z M-2.25 2.5 C-2.25 3.16 -2.25 3.82 -2.25 4.5 C-1.26 4.17 -0.27 3.84 0.75 3.5 C-0.24 3.17 -1.23 2.84 -2.25 2.5 Z " fill="#070707" transform="translate(142.25,263.5)"/>
<path d="M0 0 C2.97 0 5.94 0 9 0 C9 2.97 9 5.94 9 9 C6.03 9 3.06 9 0 9 C0 6.03 0 3.06 0 0 Z " fill="#EBDE79" transform="translate(101,156)"/>
<path d="M0 0 C1.32 0 2.64 0 4 0 C5.04449911 3.13349732 4.93423645 3.98968256 4 7 C5.32 6.67 6.64 6.34 8 6 C8 6.99 8 7.98 8 9 C3.62426048 9.59332061 -0.57528444 10.13827236 -5 10 C-5.84454356 6.62182575 -6.10844919 4.32534757 -5 1 C-4.34 1 -3.68 1 -3 1 C-3.33 2.98 -3.66 4.96 -4 7 C-2.68 6.67 -1.36 6.34 0 6 C-0.2784375 4.7934375 -0.2784375 4.7934375 -0.5625 3.5625 C-0.706875 2.716875 -0.85125 1.87125 -1 1 C-0.67 0.67 -0.34 0.34 0 0 Z " fill="#020202" transform="translate(54,263)"/>
<path d="M0 0 C5 0 5 0 8 2 C8.40843923 4.71203652 8.13336867 7.2437142 8 10 C5.36 10 2.72 10 0 10 C0 6.7 0 3.4 0 0 Z " fill="#1F45EC" transform="translate(58,214)"/>
<path d="M0 0 C2.97 0 5.94 0 9 0 C9 2.64 9 5.28 9 8 C6.03 8 3.06 8 0 8 C0 5.36 0 2.72 0 0 Z " fill="#010102" transform="translate(32,119)"/>
<path d="M0 0 C0.33 0 0.66 0 1 0 C1 1.98 1 3.96 1 6 C1.66 6.33 2.32 6.66 3 7 C2.34 9.31 1.68 11.62 1 14 C3.64 14 6.28 14 9 14 C9 14.66 9 15.32 9 16 C5.7 16 2.4 16 -1 16 C-1 12.7 -1 9.4 -1 6 C-8.26 6 -15.52 6 -23 6 C-23 5.67 -23 5.34 -23 5 C-15.41 5 -7.82 5 0 5 C0 3.35 0 1.7 0 0 Z " fill="#340000" transform="translate(75,105)"/>
<path d="M0 0 C6.15234375 -0.09765625 6.15234375 -0.09765625 8 0 C9 1 9 1 9.125 4 C9 7 9 7 8 8 C5.32941149 8.14115161 2.67567762 8.04247107 0 8 C0 5.36 0 2.72 0 0 Z " fill="#D31313" transform="translate(104,18)"/>
<path d="M0 0 C2.97 0 5.94 0 9 0 C9 2.64 9 5.28 9 8 C6.03 8 3.06 8 0 8 C0 5.36 0 2.72 0 0 Z " fill="#020203" transform="translate(82,164)"/>
<path d="M0 0 C2.64 0 5.28 0 8 0 C8 2.64 8 5.28 8 8 C5.36 8 2.72 8 0 8 C0 5.36 0 2.72 0 0 Z " fill="#E5DC8A" transform="translate(128,157)"/>
<path d="M0 0 C2.97 0 5.94 0 9 0 C9.04241723 2.33294775 9.04092937 4.66702567 9 7 C8 8 8 8 4.4375 8.0625 C3.303125 8.041875 2.16875 8.02125 1 8 C0.67 5.36 0.34 2.72 0 0 Z " fill="#CE1110" transform="translate(112,10)"/>
<path d="M0 0 C3.3 0 6.6 0 10 0 C10 0.33 10 0.66 10 1 C7.03 1 4.06 1 1 1 C1 2.258125 1 3.51625 1 4.8125 C1 7.20833333 1 9.60416667 1 12 C1.185625 12.7425 1.37125 13.485 1.5625 14.25 C2 17 2 17 1 24 C5.95 24 10.9 24 16 24 C16 24.33 16 24.66 16 25 C10.72 25 5.44 25 0 25 C0 21.7 0 18.4 0 15 C-0.66 14.67 -1.32 14.34 -2 14 C-2.75 11.625 -2.75 11.625 -3 9 C-2.34 8.01 -1.68 7.02 -1 6 C-0.60986284 4.0103005 -0.26797351 2.00980131 0 0 Z " fill="#B4956B" transform="translate(76,86)"/>
<path d="M0 0 C2.31 0 4.62 0 7 0 C7 0.33 7 0.66 7 1 C5.35 1 3.7 1 2 1 C2 2.65 2 4.3 2 6 C4.64 6 7.28 6 10 6 C10 8.97 10 11.94 10 15 C12.31 15 14.62 15 17 15 C17 15.33 17 15.66 17 16 C14.03 16 11.06 16 8 16 C8 13.36 8 10.72 8 8 C5.36 8 2.72 8 0 8 C0 5.36 0 2.72 0 0 Z " fill="#1C39BB" transform="translate(41,198)"/>
<path d="M0 0 C1.52519276 0.08937803 3.04681929 0.24537146 4.5625 0.4375 C5.38878906 0.53933594 6.21507812 0.64117187 7.06640625 0.74609375 C7.70449219 0.82988281 8.34257813 0.91367188 9 1 C9 1.33 9 1.66 9 2 C6.03 2 3.06 2 0 2 C0 10.25 0 18.5 0 27 C-2.31 27 -4.62 27 -7 27 C-7 29.64 -7 32.28 -7 35 C-7.33 35 -7.66 35 -8 35 C-8 32.03 -8 29.06 -8 26 C-7.34 26 -6.68 26 -6 26 C-6 25.34 -6 24.68 -6 24 C-4.35 24.33 -2.7 24.66 -1 25 C-1.00523682 24.27820557 -1.01047363 23.55641113 -1.01586914 22.81274414 C-1.03657358 19.56267151 -1.04963918 16.31261272 -1.0625 13.0625 C-1.07087891 11.92619141 -1.07925781 10.78988281 -1.08789062 9.61914062 C-1.09111328 8.53955078 -1.09433594 7.45996094 -1.09765625 6.34765625 C-1.10289307 5.34742432 -1.10812988 4.34719238 -1.11352539 3.31665039 C-1 1 -1 1 0 0 Z " fill="#01032A" transform="translate(48,171)"/>
<path d="M0 0 C2.31 0 4.62 0 7 0 C7 2.64 7 5.28 7 8 C4.69 8 2.38 8 0 8 C0 5.36 0 2.72 0 0 Z " fill="#1E42E6" transform="translate(94,139)"/>
<path d="M0 0 C2.64 0 5.28 0 8 0 C8 2.31 8 4.62 8 7 C5.36 7 2.72 7 0 7 C0 4.69 0 2.38 0 0 Z " fill="#1B43EA" transform="translate(86,130)"/>
<path d="M0 0 C2.25 0.3125 2.25 0.3125 5 1 C7.33301986 1.03824623 9.66711508 1.04574284 12 1 C11 3 11 3 8 5 C7.34 5.66 6.68 6.32 6 7 C2.875 7.125 2.875 7.125 0 7 C0 6.01 0 5.02 0 4 C-0.99 3.67 -1.98 3.34 -3 3 C-1.8125 1.4375 -1.8125 1.4375 0 0 Z " fill="#030202" transform="translate(68,263)"/>
<path d="M0 0 C2.31 0 4.62 0 7 0 C7 2.31 7 4.62 7 7 C4.69 7 2.38 7 0 7 C0 4.69 0 2.38 0 0 Z " fill="#1B41EE" transform="translate(102,148)"/>
<path d="M0 0 C3.96 0 7.92 0 12 0 C12 1.32 12 2.64 12 4 C6.06 4.495 6.06 4.495 0 5 C0 3.35 0 1.7 0 0 Z " fill="#F70E0A" transform="translate(91,12)"/>
<path d="M0 0 C2.64 0 5.28 0 8 0 C7.625 1.9375 7.625 1.9375 7 4 C6.01 4.495 6.01 4.495 5 5 C4.67 5.99 4.34 6.98 4 8 C2.68 8 1.36 8 0 8 C0 5.36 0 2.72 0 0 Z " fill="#FBD097" transform="translate(43,60)"/>
<path d="M0 0 C0.66 0.33 1.32 0.66 2 1 C2.4140625 3.06640625 2.4140625 3.06640625 2.625 5.5625 C2.69976562 6.38878906 2.77453125 7.21507812 2.8515625 8.06640625 C2.90054688 8.70449219 2.94953125 9.34257812 3 10 C2.34 10 1.68 10 1 10 C1 9.34 1 8.68 1 8 C0.01 8.66 -0.98 9.32 -2 10 C-2.99 10 -3.98 10 -5 10 C-3.84414715 6.08788267 -2.64465038 3.1254959 0 0 Z " fill="#060605" transform="translate(134,263)"/>
<path d="M0 0 C0.66 0 1.32 0 2 0 C2 3.3 2 6.6 2 10 C1.34 10 0.68 10 0 10 C0 9.01 0 8.02 0 7 C-0.45375 7.495 -0.9075 7.99 -1.375 8.5 C-3 10 -3 10 -5 10 C-5 7.03 -5 4.06 -5 1 C-4.34 1 -3.68 1 -3 1 C-3 2.32 -3 3.64 -3 5 C-2.01 5 -1.02 5 0 5 C0 3.35 0 1.7 0 0 Z " fill="#110F10" transform="translate(5,263)"/>
<path d="M0 0 C2.31 0 4.62 0 7 0 C6.38461538 5.53846154 6.38461538 5.53846154 4.4375 7.875 C3.7259375 8.431875 3.7259375 8.431875 3 9 C2.01 8.67 1.02 8.34 0 8 C0 5.36 0 2.72 0 0 Z M2 2 C2.33 3.32 2.66 4.64 3 6 C3.66 4.68 4.32 3.36 5 2 C4.01 2 3.02 2 2 2 Z " fill="#080808" transform="translate(84,264)"/>
<path d="M0 0 C0.33 0 0.66 0 1 0 C1 5.28 1 10.56 1 16 C3.64 16 6.28 16 9 16 C9 16.33 9 16.66 9 17 C6.03 17 3.06 17 0 17 C-0.33 17.66 -0.66 18.32 -1 19 C-1.66 16.69 -2.32 14.38 -3 12 C-2.34 11.67 -1.68 11.34 -1 11 C-0.5316735 8.41394668 -0.5316735 8.41394668 -0.375 5.4375 C-0.30023438 4.42558594 -0.22546875 3.41367187 -0.1484375 2.37109375 C-0.09945312 1.58863281 -0.05046875 0.80617187 0 0 Z " fill="#B89B6E" transform="translate(94,53)"/>
<path d="M0 0 C-0.33 2.97 -0.66 5.94 -1 9 C-2.32 9.33 -3.64 9.66 -5 10 C-6.75 8.5625 -6.75 8.5625 -8 7 C-7.34 6.67 -6.68 6.34 -6 6 C-5.34 6.33 -4.68 6.66 -4 7 C-3.67 5.68 -3.34 4.36 -3 3 C-3.66 3 -4.32 3 -5 3 C-5 2.34 -5 1.68 -5 1 C-2 0 -2 0 0 0 Z " fill="#050404" transform="translate(48,263)"/>
<path d="M0 0 C0.33 0 0.66 0 1 0 C1 2.31 1 4.62 1 7 C4.63 7 8.26 7 12 7 C12.66 5.35 13.32 3.7 14 2 C14.33 2.99 14.66 3.98 15 5 C15.66 5.33 16.32 5.66 17 6 C17 6.66 17 7.32 17 8 C11.39 8 5.78 8 0 8 C0 5.36 0 2.72 0 0 Z " fill="#D6B483" transform="translate(59,94)"/>
<path d="M0 0 C2.97 0 5.94 0 9 0 C9 5.28 9 10.56 9 16 C6.69 16 4.38 16 2 16 C2.66 15.34 3.32 14.68 4 14 C4.99 14 5.98 14 7 14 C7.33 9.71 7.66 5.42 8 1 C5.36 1 2.72 1 0 1 C0 0.67 0 0.34 0 0 Z " fill="#F8D49E" transform="translate(128,71)"/>
<path d="M0 0 C2.35953094 2.35953094 2.49141413 3.77895617 3 7 C2.01 7.66 1.02 8.32 0 9 C-0.66 8.67 -1.32 8.34 -2 8 C-2 5.69 -2 3.38 -2 1 C-1.34 0.67 -0.68 0.34 0 0 Z " fill="#FCCE8D" transform="translate(125,52)"/>
<path d="M0 0 C1.98 0 3.96 0 6 0 C6 1.65 6 3.3 6 5 C4.02 5 2.04 5 0 5 C0 3.35 0 1.7 0 0 Z " fill="#FDE656" transform="translate(129,158)"/>
<path d="M0 0 C1.98 0 3.96 0 6 0 C5.6875 1.875 5.6875 1.875 5 4 C2 6 2 6 -1 6 C-0.67 4.02 -0.34 2.04 0 0 Z " fill="#030405" transform="translate(53,18)"/>
<path d="M0 0 C0.66 0 1.32 0 2 0 C1.43454163 3.95820859 0.19097652 6.6659053 -2 10 C-3.32 9.67 -4.64 9.34 -6 9 C-5.67 8.01 -5.34 7.02 -5 6 C-4.34 6 -3.68 6 -3 6 C-2.01 4.02 -1.02 2.04 0 0 Z " fill="#040403" transform="translate(34,263)"/>
<path d="M0 0 C0.66 0 1.32 0 2 0 C0.8905928 3.48670834 -0.26337666 6.77484237 -2 10 C-2.66 10 -3.32 10 -4 10 C-3.43697042 6.05879291 -2.3208055 3.2491277 0 0 Z " fill="#070304" transform="translate(39,263)"/>
<path d="M0 0 C0.33 0.99 0.66 1.98 1 3 C2.65 2.34 4.3 1.68 6 1 C6 2.65 6 4.3 6 6 C4.02 6 2.04 6 0 6 C0 4.02 0 2.04 0 0 Z " fill="#F60B09" transform="translate(105,19)"/>
<path d="M0 0 C0.99 0.33 1.98 0.66 3 1 C3 1.66 3 2.32 3 3 C1.68 3 0.36 3 -1 3 C-1.33 4.65 -1.66 6.3 -2 8 C-2.66 8 -3.32 8 -4 8 C-3.50168276 4.31245243 -2.89932357 2.39509338 0 0 Z " fill="#090909" transform="translate(160,263)"/>
<path d="M0 0 C2.97 0 5.94 0 9 0 C9 0.33 9 0.66 9 1 C7.02 1 5.04 1 3 1 C2.87625 1.598125 2.7525 2.19625 2.625 2.8125 C2 5 2 5 0 8 C0 5.36 0 2.72 0 0 Z " fill="#E91611" transform="translate(53,26)"/>
<path d="M0 0 C3.3 0 6.6 0 10 0 C9.67 0.99 9.34 1.98 9 3 C2.84765625 2.4140625 2.84765625 2.4140625 1 2 C0.67 1.34 0.34 0.68 0 0 Z " fill="#2B0202" transform="translate(102,26)"/>
<path d="M0 0 C0.66 0 1.32 0 2 0 C1.67 0.99 1.34 1.98 1 3 C0.34 2.34 -0.32 1.68 -1 1 C-0.67 0.67 -0.34 0.34 0 0 Z " fill="#060606" transform="translate(153,270)"/>
<path d="M0 0 C0.99 0 1.98 0 3 0 C3 0.66 3 1.32 3 2 C2.01 2 1.02 2 0 2 C0 1.34 0 0.68 0 0 Z " fill="#010101" transform="translate(80,270)"/>
</svg>
