<?xml version="1.0" encoding="UTF-8"?>
<svg version="1.1" xmlns="http://www.w3.org/2000/svg" width="383" height="383">
<path d="M0 0 C36.63 0 73.26 0 111 0 C111 8.91 111 17.82 111 27 C114.88652344 26.98839844 118.77304688 26.97679688 122.77734375 26.96484375 C126.52368081 26.95705462 130.27001698 26.95097704 134.01635742 26.94506836 C136.62866619 26.94002623 139.24097211 26.93319275 141.85327148 26.92456055 C145.59880268 26.91248964 149.34429672 26.90677065 153.08984375 26.90234375 C154.26586655 26.89718246 155.44188934 26.89202118 156.65354919 26.88670349 C157.73459427 26.88662796 158.81563934 26.88655243 159.92944336 26.88647461 C160.88652695 26.884254 161.84361053 26.88203339 162.82969666 26.87974548 C165 27 165 27 166 28 C166.08748207 29.92667507 166.10697334 31.85651861 166.09765625 33.78515625 C166.09443359 34.95498047 166.09121094 36.12480469 166.08789062 37.33007812 C166.07951172 38.56177734 166.07113281 39.79347656 166.0625 41.0625 C166.05798828 42.29806641 166.05347656 43.53363281 166.04882812 44.80664062 C166.03699608 47.87114117 166.02051173 50.93554721 166 54 C166.78238037 53.99476318 167.56476074 53.98952637 168.37084961 53.98413086 C171.89305833 53.96342894 175.4152543 53.95036162 178.9375 53.9375 C180.78504883 53.92493164 180.78504883 53.92493164 182.66992188 53.91210938 C183.83974609 53.90888672 185.00957031 53.90566406 186.21484375 53.90234375 C187.84087524 53.89448853 187.84087524 53.89448853 189.49975586 53.88647461 C192 54 192 54 193 55 C193.21369287 57.87891781 193.37741342 60.74194526 193.5 63.625 C193.74173032 69.14898556 194.12136659 74.53782896 195 80 C195.64324219 79.98839844 196.28648437 79.97679688 196.94921875 79.96484375 C204.28174795 79.89162306 211.741947 79.86693134 219 81 C221 83 221 83 221.21118164 84.86450195 C221.19434326 85.64784912 221.17750488 86.43119629 221.16015625 87.23828125 C221.14275391 88.64920044 221.14275391 88.64920044 221.125 90.08862305 C221.104375 91.15250244 221.08375 92.21638184 221.0625 93.3125 C220.90784277 108.27666106 221.19953467 123.22651468 221.5 138.1875 C221.54827376 140.63126597 221.59653249 143.07503224 221.64477539 145.51879883 C221.76061639 151.34591955 221.87914317 157.17298124 222 163 C222.60996826 162.98952637 223.21993652 162.97905273 223.84838867 162.96826172 C226.62805007 162.92653379 229.40764539 162.90062078 232.1875 162.875 C233.14720703 162.85824219 234.10691406 162.84148437 235.09570312 162.82421875 C236.02705078 162.81777344 236.95839844 162.81132812 237.91796875 162.8046875 C238.77156982 162.79421387 239.6251709 162.78374023 240.50463867 162.77294922 C243 163 243 163 248 165 C248 236.94 248 308.88 248 383 C238.43 383 228.86 383 219 383 C218 382 218 382 217.97827148 379.59155273 C218.04896851 378.02836304 218.04896851 378.02836304 218.12109375 376.43359375 C218.16943359 375.30888672 218.21777344 374.18417969 218.26757812 373.02539062 C218.32365234 371.84138672 218.37972656 370.65738281 218.4375 369.4375 C218.48970703 368.24962891 218.54191406 367.06175781 218.59570312 365.83789062 C218.7258566 362.89168934 218.8608364 359.94578724 219 357 C218.25314941 357.00523682 217.50629883 357.01047363 216.73681641 357.01586914 C213.36621943 357.03660401 209.99563586 357.04964899 206.625 357.0625 C205.449375 357.07087891 204.27375 357.07925781 203.0625 357.08789062 C201.38027344 357.09272461 201.38027344 357.09272461 199.6640625 357.09765625 C198.10872803 357.10551147 198.10872803 357.10551147 196.52197266 357.11352539 C194 357 194 357 192 356 C190.61929699 350.63349398 190.88689989 345.1247389 190.9375 339.625 C190.958125 336.44875 190.97875 333.2725 191 330 C183.08 330 175.16 330 167 330 C166.67 338.58 166.34 347.16 166 356 C157.09 356.66 148.18 357.32 139 358 C138.67 366.25 138.34 374.5 138 383 C130.18542926 383.02290171 122.370974 383.04283103 114.55639648 383.05493164 C111.89558519 383.05997383 109.23477668 383.06680736 106.57397461 383.07543945 C102.75894484 383.08751009 98.94395156 383.09322929 95.12890625 383.09765625 C93.33206139 383.10539818 93.33206139 383.10539818 91.49891663 383.11329651 C89.84731789 383.11340981 89.84731789 383.11340981 88.16235352 383.11352539 C87.18750504 383.115746 86.21265656 383.11796661 85.20826721 383.12025452 C83 383 83 383 82 382 C81.90653085 380.34261557 81.88255023 378.68125356 81.88647461 377.02124023 C81.88655014 375.96021591 81.88662567 374.89919159 81.88670349 373.80601501 C81.89444542 372.07479149 81.89444542 372.07479149 81.90234375 370.30859375 C81.90446617 368.5461306 81.90446617 368.5461306 81.90663147 366.74806213 C81.91225008 362.97784936 81.92480574 359.20769496 81.9375 355.4375 C81.9425126 352.88867273 81.94707592 350.33984453 81.95117188 347.79101562 C81.96137669 341.52730291 81.98094848 335.26371716 82 329 C64.84 329.33 47.68 329.66 30 330 C30.03955384 345.94581777 30.03955384 345.94581777 30.09008789 361.89160156 C30.09300862 363.8912755 30.09555681 365.89095003 30.09765625 367.890625 C30.10277222 368.92815918 30.10788818 369.96569336 30.11315918 371.03466797 C30.11334045 372.52619385 30.11334045 372.52619385 30.11352539 374.04785156 C30.115746 374.90944885 30.11796661 375.77104614 30.12025452 376.65875244 C30 379 30 379 29 383 C10.52 383 -7.96 383 -27 383 C-27.33 374.42 -27.66 365.84 -28 357 C-35.7634463 357.0790305 -35.7634463 357.0790305 -43.52661133 357.18017578 C-44.97716919 357.18766846 -44.97716919 357.18766846 -46.45703125 357.1953125 C-47.44678955 357.20578613 -48.43654785 357.21625977 -49.45629883 357.22705078 C-52 357 -52 357 -55 355 C-55.34057617 352.38623047 -55.34057617 352.38623047 -55.29296875 349.1171875 C-55.28330078 347.95058594 -55.27363281 346.78398437 -55.26367188 345.58203125 C-55.23853516 344.35871094 -55.21339844 343.13539063 -55.1875 341.875 C-55.17396484 340.64394531 -55.16042969 339.41289062 -55.14648438 338.14453125 C-55.1110383 335.09616918 -55.05723007 332.04803091 -55 329 C-63.25 329 -71.5 329 -80 329 C-80 337.58 -80 346.16 -80 355 C-84.15299502 356.66119801 -86.08560124 357.26616145 -90.30078125 357.4140625 C-91.18161377 357.44967285 -92.06244629 357.4852832 -92.9699707 357.52197266 C-94.07300537 357.55597168 -95.17604004 357.5899707 -96.3125 357.625 C-99.839375 357.74875 -103.36625 357.8725 -107 358 C-107 366.25 -107 374.5 -107 383 C-115.91 383 -124.82 383 -134 383 C-134 310.4 -134 237.8 -134 163 C-126.08 163 -118.16 163 -110 163 C-110.01571045 159.33511475 -110.01571045 159.33511475 -110.03173828 155.59619141 C-110.06482853 147.53759809 -110.08694984 139.47900184 -110.10362434 131.42035866 C-110.1140764 126.53280682 -110.12826144 121.64532439 -110.15087891 116.7578125 C-110.17255671 112.04403371 -110.1845579 107.33032182 -110.18975449 102.61649704 C-110.19345937 100.81509726 -110.20069374 99.01370128 -110.21146011 97.21232986 C-110.22590787 94.69567099 -110.22798078 92.17929111 -110.22705078 89.66259766 C-110.23424133 88.91237839 -110.24143188 88.16215912 -110.24884033 87.38920593 C-110.22810432 82.22810432 -110.22810432 82.22810432 -108 80 C-105.47802734 79.77294922 -105.47802734 79.77294922 -102.3359375 79.8046875 C-101.3257959 79.80968262 -100.3156543 79.81467773 -99.27490234 79.81982422 C-97.98793457 79.83803223 -96.7009668 79.85624023 -95.375 79.875 C-91.29125 79.91625 -87.2075 79.9575 -83 80 C-82.67 71.42 -82.34 62.84 -82 54 C-78.30465196 53.26093039 -75.58137867 52.87986884 -71.91796875 52.90234375 C-70.98662109 52.90556641 -70.05527344 52.90878906 -69.09570312 52.91210938 C-68.13599609 52.92048828 -67.17628906 52.92886719 -66.1875 52.9375 C-65.20845703 52.94201172 -64.22941406 52.94652344 -63.22070312 52.95117188 C-60.81373889 52.96291316 -58.40690143 52.97933581 -56 53 C-55.96241577 51.82642944 -55.96241577 51.82642944 -55.92407227 50.62915039 C-55.80850212 47.10675051 -55.68560051 43.5846444 -55.5625 40.0625 C-55.52318359 38.83080078 -55.48386719 37.59910156 -55.44335938 36.33007812 C-55.40146484 35.16025391 -55.35957031 33.99042969 -55.31640625 32.78515625 C-55.27974854 31.70113525 -55.24309082 30.61711426 -55.20532227 29.50024414 C-55 27 -55 27 -54 26 C-52.34261557 25.90653085 -50.68125356 25.88255023 -49.02124023 25.88647461 C-47.96021591 25.88655014 -46.89919159 25.88662567 -45.80601501 25.88670349 C-44.651866 25.89186478 -43.49771698 25.89702606 -42.30859375 25.90234375 C-41.13361832 25.9037587 -39.95864288 25.90517365 -38.74806213 25.90663147 C-34.97784936 25.91225008 -31.20769496 25.92480574 -27.4375 25.9375 C-24.88867273 25.9425126 -22.33984453 25.94707592 -19.79101562 25.95117188 C-13.52730291 25.96137669 -7.26371716 25.98094848 -1 26 C-0.67 17.42 -0.34 8.84 0 0 Z " fill="#71C9C3" transform="translate(134,0)"/>
<path d="M0 0 C18.15 0 36.3 0 55 0 C55 8.91 55 17.82 55 27 C63.58 27 72.16 27 81 27 C81 18.09 81 9.18 81 0 C81.99 0.495 81.99 0.495 83 1 C82.99214478 1.81053833 82.99214478 1.81053833 82.98413086 2.63745117 C82.77466394 28.76248325 83.45829981 54.88234321 84 81 C84.61520508 80.98952637 85.23041016 80.97905273 85.86425781 80.96826172 C88.65946343 80.92661305 91.45460366 80.90064584 94.25 80.875 C95.21808594 80.85824219 96.18617188 80.84148437 97.18359375 80.82421875 C98.11816406 80.81777344 99.05273438 80.81132812 100.015625 80.8046875 C100.87446289 80.79421387 101.73330078 80.78374023 102.61816406 80.77294922 C105 81 105 81 109 83 C100.09 83 91.18 83 82 83 C82 73.76 82 64.52 82 55 C63.85 55 45.7 55 27 55 C27 73.15 27 91.3 27 110 C36.24 110 45.48 110 55 110 C55 118.91 55 127.82 55 137 C36.85 137 18.7 137 0 137 C0 128.09 0 119.18 0 110 C-8.91 110 -17.82 110 -27 110 C-27 82.94 -27 55.88 -27 28 C-18.09 28 -9.18 28 0 28 C0 18.76 0 9.52 0 0 Z " fill="#FBFDFD" transform="translate(272,82)"/>
<path d="M0 0 C18.15 0 36.3 0 55 0 C55 9.24 55 18.48 55 28 C64.24 28 73.48 28 83 28 C83 36.91 83 45.82 83 55 C64.85 55 46.7 55 28 55 C28 73.15 28 91.3 28 110 C36.91 110 45.82 110 55 110 C55 118.91 55 127.82 55 137 C37.18 137 19.36 137 1 137 C1 128.09 1 119.18 1 110 C-8.24 110 -17.48 110 -27 110 C-27 82.61 -27 55.22 -27 27 C-18.09 27 -9.18 27 0 27 C0 18.09 0 9.18 0 0 Z " fill="#FDFEFE" transform="translate(107,82)"/>
<path d="M0 0 C18.15 0 36.3 0 55 0 C55 18.15 55 36.3 55 55 C36.85 55 18.7 55 0 55 C0 36.85 0 18.7 0 0 Z " fill="#3E5FAC" transform="translate(299,137)"/>
<path d="M0 0 C18.15 0 36.3 0 55 0 C55 18.15 55 36.3 55 55 C36.85 55 18.7 55 0 55 C0 36.85 0 18.7 0 0 Z " fill="#3E5FAC" transform="translate(135,137)"/>
<path d="M0 0 C18.15 0 36.3 0 55 0 C55 18.15 55 36.3 55 55 C36.85 55 18.7 55 0 55 C0 36.85 0 18.7 0 0 Z M2 2 C1.67 19.16 1.34 36.32 1 54 C18.49 54 35.98 54 54 54 C54.0309375 41.686875 54.0309375 41.686875 54.0625 29.125 C54.071604 26.53285645 54.08070801 23.94071289 54.09008789 21.27001953 C54.09300744 19.22428438 54.0955559 17.17854865 54.09765625 15.1328125 C54.10277222 14.06345459 54.10788818 12.99409668 54.11315918 11.89233398 C54.11328003 10.87743896 54.11340088 9.86254395 54.11352539 8.81689453 C54.115746 7.93309113 54.11796661 7.04928772 54.12025452 6.13870239 C54.13873944 3.94723225 54.13873944 3.94723225 53 2 C36.17 2 19.34 2 2 2 Z " fill="#45669A" transform="translate(135,137)"/>
<path d="M0 0 C18.15 0 36.3 0 55 0 C55 18.15 55 36.3 55 55 C36.85 55 18.7 55 0 55 C0 36.85 0 18.7 0 0 Z M2 1 C2 18.16 2 35.32 2 53 C5.75375 53.165 9.5075 53.33 13.375 53.5 C15.05601807 53.57831055 15.05601807 53.57831055 16.77099609 53.65820312 C29.20313279 54.16770035 41.51581885 54 54 54 C54 36.51 54 19.02 54 1 C36.84 1 19.68 1 2 1 Z " fill="#4B679A" transform="translate(299,137)"/>
<path d="M0 0 C1.07241943 0.00410889 2.14483887 0.00821777 3.24975586 0.01245117 C4.4118457 0.01438477 5.57393555 0.01631836 6.77124023 0.01831055 C7.99004883 0.03055664 9.20885742 0.04280273 10.46459961 0.05541992 C12.29861328 0.05638672 12.29861328 0.05638672 14.16967773 0.05737305 C23.26198905 0.10280936 23.26198905 0.10280936 24.40209961 1.24291992 C24.48958168 3.169595 24.50907295 5.09943853 24.49975586 7.02807617 C24.4965332 8.19790039 24.49331055 9.36772461 24.48999023 10.57299805 C24.47742188 12.42054688 24.47742188 12.42054688 24.46459961 14.30541992 C24.46008789 15.54098633 24.45557617 16.77655273 24.45092773 18.04956055 C24.43909579 21.11403405 24.42115969 24.17848285 24.40209961 27.24291992 C32.65209961 27.24291992 40.90209961 27.24291992 49.40209961 27.24291992 C49.89709961 28.23291992 49.89709961 28.23291992 50.40209961 29.24291992 C46.27711423 29.27184377 42.15215476 29.28969259 38.02709961 29.30541992 C36.85147461 29.31379883 35.67584961 29.32217773 34.46459961 29.33081055 C32.78237305 29.33564453 32.78237305 29.33564453 31.06616211 29.34057617 C29.51082764 29.3484314 29.51082764 29.3484314 27.92407227 29.35644531 C25.40209961 29.24291992 25.40209961 29.24291992 23.40209961 28.24291992 C22.0213966 22.8764139 22.2889995 17.36765882 22.33959961 11.86791992 C22.36022461 8.69166992 22.38084961 5.51541992 22.40209961 2.24291992 C14.48209961 2.24291992 6.56209961 2.24291992 -1.59790039 2.24291992 C-1.92790039 10.82291992 -2.25790039 19.40291992 -2.59790039 28.24291992 C-11.50790039 28.90291992 -20.41790039 29.56291992 -29.59790039 30.24291992 C-29.92790039 38.49291992 -30.25790039 46.74291992 -30.59790039 55.24291992 C-30.92790039 55.24291992 -31.25790039 55.24291992 -31.59790039 55.24291992 C-31.62676378 50.76376664 -31.64465226 46.28463701 -31.66040039 41.80541992 C-31.6687793 40.52602539 -31.6771582 39.24663086 -31.68579102 37.9284668 C-31.68901367 36.71352539 -31.69223633 35.49858398 -31.69555664 34.24682617 C-31.70079346 33.12091064 -31.70603027 31.99499512 -31.71142578 30.83496094 C-31.59790039 28.24291992 -31.59790039 28.24291992 -30.59790039 27.24291992 C-28.81718793 27.15565769 -27.03306899 27.13592951 -25.25024414 27.14526367 C-24.1706543 27.14848633 -23.09106445 27.15170898 -21.97875977 27.1550293 C-20.27429688 27.16759766 -20.27429688 27.16759766 -18.53540039 27.18041992 C-16.82513672 27.1871875 -16.82513672 27.1871875 -15.08032227 27.1940918 C-12.25279688 27.20592245 -9.42537399 27.22240583 -6.59790039 27.24291992 C-6.61852539 26.43854492 -6.63915039 25.63416992 -6.66040039 24.80541992 C-6.59790039 22.24291992 -6.59790039 22.24291992 -5.59790039 21.24291992 C-5.46569452 19.85224809 -5.39474913 18.45560783 -5.35180664 17.05932617 C-5.31893555 16.2143457 -5.28606445 15.36936523 -5.25219727 14.4987793 C-5.19113673 12.70723711 -5.13382782 10.91556303 -5.08032227 9.1237793 C-5.04616211 8.27750977 -5.01200195 7.43124023 -4.97680664 6.55932617 C-4.95175049 5.78016846 -4.92669434 5.00101074 -4.90087891 4.19824219 C-4.39820678 0.95416396 -3.15863657 0.29535226 0 0 Z " fill="#C6E0DE" transform="translate(302.597900390625,327.757080078125)"/>
<path d="M0 0 C0.33 0 0.66 0 1 0 C1 8.91 1 17.82 1 27 C-7.91 27 -16.82 27 -26 27 C-26 54.39 -26 81.78 -26 110 C-17.09 110 -8.18 110 1 110 C1 118.91 1 127.82 1 137 C0.67 137 0.34 137 0 137 C-0.495 124.625 -0.495 124.625 -1 112 C-9.13775052 112.11867176 -9.13775052 112.11867176 -17.27490234 112.27026367 C-18.28504395 112.27775635 -19.29518555 112.28524902 -20.3359375 112.29296875 C-21.89127197 112.31653442 -21.89127197 112.31653442 -23.47802734 112.34057617 C-24.31027832 112.22818604 -25.1425293 112.1157959 -26 112 C-28.5040954 108.2438569 -28.22903892 105.37948884 -28.13525391 101.0402832 C-28.12579239 100.23029877 -28.11633087 99.42031433 -28.10658264 98.58578491 C-28.07289171 95.90722136 -28.02478024 93.22911945 -27.9765625 90.55078125 C-27.95039673 88.69420073 -27.92512961 86.83760733 -27.90072632 84.98100281 C-27.83406207 80.09328946 -27.75517207 75.20584648 -27.67376709 70.31835938 C-27.59286001 65.33148582 -27.5234718 60.3444536 -27.453125 55.35742188 C-27.31338056 45.57141568 -27.15966095 35.78570154 -27 26 C-18.42 25.67 -9.84 25.34 -1 25 C-0.67 16.75 -0.34 8.5 0 0 Z " fill="#74B7AF" transform="translate(106,82)"/>
<path d="M0 0 C8.91 0 17.82 0 27 0 C27 0.33 27 0.66 27 1 C26.03175293 1.03758423 26.03175293 1.03758423 25.04394531 1.07592773 C22.11244106 1.19214433 19.18123783 1.31475442 16.25 1.4375 C15.23421875 1.47681641 14.2184375 1.51613281 13.171875 1.55664062 C12.1921875 1.59853516 11.2125 1.64042969 10.203125 1.68359375 C8.85202637 1.73858032 8.85202637 1.73858032 7.47363281 1.79467773 C4.71650899 1.95650925 4.71650899 1.95650925 1 3 C1 28.74 1 54.48 1 81 C13.87 81.495 13.87 81.495 27 82 C27 82.33 27 82.66 27 83 C18.09 83 9.18 83 0 83 C0 55.61 0 28.22 0 0 Z " fill="#DAF8F8" transform="translate(80,109)"/>
<path d="M0 0 C7.37507355 -0.02585071 14.75013499 -0.04307074 22.12524414 -0.05493164 C24.62199337 -0.05988836 27.11873982 -0.06665571 29.61547852 -0.07543945 C46.43762526 -0.13303794 63.19739448 0.1679442 80 1 C79.67 1.66 79.34 2.32 79 3 C77.73542969 2.98839844 76.47085938 2.97679688 75.16796875 2.96484375 C73.50781398 2.95546434 71.84765761 2.9463643 70.1875 2.9375 C69.35412109 2.92912109 68.52074219 2.92074219 67.66210938 2.91210938 C66.85966797 2.90888672 66.05722656 2.90566406 65.23046875 2.90234375 C64.12288208 2.89448853 64.12288208 2.89448853 62.99291992 2.88647461 C60.78942591 2.92476787 60.78942591 2.92476787 58 4 C57.01 3.67 56.02 3.34 55 3 C55 10.92 55 18.84 55 27 C67.375 26.505 67.375 26.505 80 26 C80 26.66 80 27.32 80 28 C71.42 28 62.84 28 54 28 C54 19.09 54 10.18 54 1 C36.18 1 18.36 1 0 1 C0 0.67 0 0.34 0 0 Z " fill="#77B9B2" transform="translate(273,81)"/>
<path d="M0 0 C0.66 0 1.32 0 2 0 C2 8.58 2 17.16 2 26 C-2.15299502 27.66119801 -4.08560124 28.26616145 -8.30078125 28.4140625 C-9.18161377 28.44967285 -10.06244629 28.4852832 -10.9699707 28.52197266 C-12.07300537 28.55597168 -13.17604004 28.5899707 -14.3125 28.625 C-17.839375 28.74875 -21.36625 28.8725 -25 29 C-25 37.25 -25 45.5 -25 54 C-25.66 54 -26.32 54 -27 54 C-27.05783842 49.70838953 -27.0935412 45.41687855 -27.125 41.125 C-27.14175781 39.90167969 -27.15851562 38.67835938 -27.17578125 37.41796875 C-27.18222656 36.25136719 -27.18867188 35.08476562 -27.1953125 33.8828125 C-27.20578613 32.80402832 -27.21625977 31.72524414 -27.22705078 30.61376953 C-27 28 -27 28 -25 26 C-22.47802734 25.68115234 -22.47802734 25.68115234 -19.3359375 25.5859375 C-18.3257959 25.55032715 -17.3156543 25.5147168 -16.27490234 25.47802734 C-14.34445068 25.42702881 -14.34445068 25.42702881 -12.375 25.375 C-8.29125 25.25125 -4.2075 25.1275 0 25 C0 16.75 0 8.5 0 0 Z " fill="#C2E1DE" transform="translate(52,329)"/>
<path d="M0 0 C8.91 0 17.82 0 27 0 C27 8.91 27 17.82 27 27 C9.18 27 -8.64 27 -27 27 C-27 26.67 -27 26.34 -27 26 C-9.84 25.67 7.32 25.34 25 25 C25 17.08 25 9.16 25 1 C16.75 1 8.5 1 0 1 C0 0.67 0 0.34 0 0 Z " fill="#E6FCFD" transform="translate(135,192)"/>
<path d="M0 0 C0.33 0 0.66 0 1 0 C1 8.58 1 17.16 1 26 C-11.87 26.99 -11.87 26.99 -25 28 C-25.33 36.25 -25.66 44.5 -26 53 C-26.33 53 -26.66 53 -27 53 C-27.02886338 48.52084672 -27.04675187 44.04171709 -27.0625 39.5625 C-27.07087891 38.28310547 -27.07925781 37.00371094 -27.08789062 35.68554688 C-27.09111328 34.47060547 -27.09433594 33.25566406 -27.09765625 32.00390625 C-27.10289307 30.87799072 -27.10812988 29.7520752 -27.11352539 28.59204102 C-27 26 -27 26 -26 25 C-24.21928754 24.91273777 -22.4351686 24.89300959 -20.65234375 24.90234375 C-19.57275391 24.90556641 -18.49316406 24.90878906 -17.38085938 24.91210938 C-15.67639648 24.92467773 -15.67639648 24.92467773 -13.9375 24.9375 C-12.22723633 24.94426758 -12.22723633 24.94426758 -10.48242188 24.95117188 C-7.65489649 24.96300253 -4.8274736 24.9794859 -2 25 C-2.020625 24.195625 -2.04125 23.39125 -2.0625 22.5625 C-2 20 -2 20 -1 19 C-0.84379445 17.58672053 -0.74943827 16.1664541 -0.68359375 14.74609375 C-0.64169922 13.89208984 -0.59980469 13.03808594 -0.55664062 12.15820312 C-0.51732422 11.26037109 -0.47800781 10.36253906 -0.4375 9.4375 C-0.39431641 8.53580078 -0.35113281 7.63410156 -0.30664062 6.70507812 C-0.20021858 4.47021515 -0.09820012 2.23523692 0 0 Z " fill="#AAD7D3" transform="translate(298,330)"/>
<path d="M0 0 C14.19 0 28.38 0 43 0 C43 0.33 43 0.66 43 1 C29.8 1 16.6 1 3 1 C2.00544091 3.98367726 1.80440368 6.2004192 1.68359375 9.32421875 C1.64169922 10.35224609 1.59980469 11.38027344 1.55664062 12.43945312 C1.51732422 13.51130859 1.47800781 14.58316406 1.4375 15.6875 C1.39431641 16.77095703 1.35113281 17.85441406 1.30664062 18.97070312 C1.20053162 21.64700791 1.09847639 24.32340526 1 27 C0.67 27 0.34 27 0 27 C0 18.09 0 9.18 0 0 Z " fill="#D3F4F3" transform="translate(107,82)"/>
<path d="M0 0 C0.33 0 0.66 0 1 0 C1 8.91 1 17.82 1 27 C-7.91 27 -16.82 27 -26 27 C-26 26.67 -26 26.34 -26 26 C-13.625 25.505 -13.625 25.505 -1 25 C-0.67 16.75 -0.34 8.5 0 0 Z " fill="#7DBEB8" transform="translate(106,82)"/>
<path d="M0 0 C0.66 0 1.32 0 2 0 C2 0.66 2 1.32 2 2 C2.65073486 1.98952637 3.30146973 1.97905273 3.97192383 1.96826172 C6.9187433 1.92670165 9.86550111 1.90067392 12.8125 1.875 C14.34874023 1.84986328 14.34874023 1.84986328 15.91601562 1.82421875 C16.89892578 1.81777344 17.88183594 1.81132812 18.89453125 1.8046875 C19.80050049 1.79421387 20.70646973 1.78374023 21.63989258 1.77294922 C24 2 24 2 27 4 C18.09 4 9.18 4 0 4 C0 2.68 0 1.36 0 0 Z " fill="#E5FEFD" transform="translate(245,188)"/>
<path d="M0 0 C7.92 0.33 15.84 0.66 24 1 C24.33 1.66 24.66 2.32 25 3 C16.75 3 8.5 3 0 3 C0 2.01 0 1.02 0 0 Z " fill="#9ACECC" transform="translate(54,326)"/>
<path d="M0 0 C3.96 0 7.92 0 12 0 C12 8.91 12 17.82 12 27 C11.67 27 11.34 27 11 27 C10.97494385 26.27820557 10.9498877 25.55641113 10.92407227 24.81274414 C10.80848698 21.562465 10.68559226 18.31250312 10.5625 15.0625 C10.52318359 13.92619141 10.48386719 12.78988281 10.44335938 11.61914062 C10.40146484 10.53955078 10.35957031 9.45996094 10.31640625 8.34765625 C10.27974854 7.34742432 10.24309082 6.34719238 10.20532227 5.31665039 C10.25328159 3.03930812 10.25328159 3.03930812 9 2 C7.48530552 1.76807135 5.96245438 1.58784762 4.4375 1.4375 C3.61121094 1.35371094 2.78492188 1.26992187 1.93359375 1.18359375 C1.29550781 1.12300781 0.65742188 1.06242187 0 1 C0 0.67 0 0.34 0 0 Z " fill="#E4FEFE" transform="translate(150,82)"/>
<path d="M0 0 C1.32 0.33 2.64 0.66 4 1 C3.67 1.66 3.34 2.32 3 3 C2.34 3 1.68 3 1 3 C1 10.59 1 18.18 1 26 C0.67 26 0.34 26 0 26 C0 17.42 0 8.84 0 0 Z " fill="#7FC5BD" transform="translate(80,28)"/>
<path d="M0 0 C0.33 0 0.66 0 1 0 C1.02505615 0.68102783 1.0501123 1.36205566 1.07592773 2.0637207 C1.19190952 5.14683755 1.31462616 8.22965046 1.4375 11.3125 C1.47681641 12.38435547 1.51613281 13.45621094 1.55664062 14.56054688 C1.59853516 15.58857422 1.64042969 16.61660156 1.68359375 17.67578125 C1.72025146 18.62364502 1.75690918 19.57150879 1.79467773 20.5480957 C1.91430187 23.136171 1.91430187 23.136171 3 26 C2.01 26 1.02 26 0 26 C0 17.42 0 8.84 0 0 Z " fill="#EAFEFE" transform="translate(272,192)"/>
<path d="M0 0 C0.33 0 0.66 0 1 0 C1 4.62 1 9.24 1 14 C0.01 14 -0.98 14 -2 14 C-1.67 13.01 -1.34 12.02 -1 11 C-0.77820215 9.10787263 -0.59385985 7.21115528 -0.4375 5.3125 C-0.35371094 4.31863281 -0.26992187 3.32476562 -0.18359375 2.30078125 C-0.12300781 1.54152344 -0.06242188 0.78226562 0 0 Z " fill="#7DC4BD" transform="translate(161,369)"/>
</svg>
