<?xml version="1.0" encoding="UTF-8"?>
<svg version="1.1" xmlns="http://www.w3.org/2000/svg" width="619" height="403">
<path d="M0 0 C1.47583954 0.00025104 2.95168496 0.00581025 4.42749023 0.01586914 C5.11452026 0.01687622 5.80155029 0.0178833 6.50939941 0.0189209 C9.08497783 0.02416763 11.66053252 0.0381288 14.23608398 0.05102539 C19.99045898 0.07165039 25.74483398 0.09227539 31.67358398 0.11352539 C31.67358398 22.88352539 31.67358398 45.65352539 31.67358398 69.11352539 C42.56358398 69.11352539 53.45358398 69.11352539 64.67358398 69.11352539 C64.66198242 66.67075195 64.65038086 64.22797852 64.63842773 61.71118164 C64.63063714 59.35481903 64.6245604 56.99845784 64.61865234 54.64208984 C64.61361225 52.99983075 64.6067802 51.35757616 64.59814453 49.71533203 C64.58606473 47.3597706 64.5803526 45.0042683 64.57592773 42.64868164 C64.57076645 41.91013443 64.56560516 41.17158722 64.56028748 40.41065979 C64.56009149 38.64454451 64.6116368 36.87855393 64.67358398 35.11352539 C65.67358398 34.11352539 65.67358398 34.11352539 68.41334534 33.99327087 C69.63690231 33.99549149 70.86045929 33.9977121 72.12109375 34 C72.79423615 33.99985397 73.46737854 33.99970795 74.16091919 33.9995575 C76.39564183 34.00025661 78.63028208 34.00804887 80.86499023 34.01586914 C82.4105576 34.01773333 83.95612556 34.01915723 85.50169373 34.02015686 C89.57715475 34.02398199 93.65258035 34.03381222 97.72802734 34.04486084 C102.61386127 34.05686973 107.49970701 34.06147723 112.38555145 34.06731415 C119.8149203 34.07702399 127.24421136 34.09618055 134.67358398 34.11352539 C134.34358398 22.89352539 134.01358398 11.67352539 133.67358398 0.11352539 C145.55358398 0.11352539 157.43358398 0.11352539 169.67358398 0.11352539 C169.67358398 11.33352539 169.67358398 22.55352539 169.67358398 34.11352539 C192.44358398 34.11352539 215.21358398 34.11352539 238.67358398 34.11352539 C239.00358398 45.66352539 239.33358398 57.21352539 239.67358398 69.11352539 C250.56358398 69.11352539 261.45358398 69.11352539 272.67358398 69.11352539 C272.67358398 46.34352539 272.67358398 23.57352539 272.67358398 0.11352539 C284.22358398 0.11352539 295.77358398 0.11352539 307.67358398 0.11352539 C308.36560015 4.26562236 308.79948897 7.59267426 308.80297852 11.70068359 C308.80613068 12.77232254 308.80928284 13.84396149 308.81253052 14.94807434 C308.80949417 16.66385933 308.80949417 16.66385933 308.80639648 18.41430664 C308.80783157 20.20072823 308.80783157 20.20072823 308.80929565 22.02323914 C308.80997507 24.5389308 308.80813744 27.05462423 308.80395508 29.5703125 C308.79861771 33.40181465 308.8039009 37.23319882 308.81030273 41.06469727 C308.80964163 43.51456731 308.80835981 45.96443729 308.80639648 48.41430664 C308.80842072 49.55209061 308.81044495 50.68987457 308.81253052 51.86213684 C308.80937836 52.94323227 308.8062262 54.0243277 308.80297852 55.13818359 C308.80178513 56.54666313 308.80178513 56.54666313 308.80056763 57.9835968 C308.63595634 62.04098222 308.12201585 66.0776386 307.67358398 70.11352539 C296.45358398 70.11352539 285.23358398 70.11352539 273.67358398 70.11352539 C273.67358398 81.33352539 273.67358398 92.55352539 273.67358398 104.11352539 C256.34858398 104.60852539 256.34858398 104.60852539 238.67358398 105.11352539 C238.67358398 115.67352539 238.67358398 126.23352539 238.67358398 137.11352539 C250.22358398 137.44352539 261.77358398 137.77352539 273.67358398 138.11352539 C273.67358398 149.33352539 273.67358398 160.55352539 273.67358398 172.11352539 C284.89358398 172.11352539 296.11358398 172.11352539 307.67358398 172.11352539 C308.33709647 177.42162527 308.79892445 182.06766803 308.80056763 187.33287048 C308.80212762 188.01278646 308.80368761 188.69270243 308.80529487 189.39322191 C308.80924835 191.64628531 308.80613747 193.89927999 308.80297852 196.15234375 C308.80433498 197.77749674 308.80611629 199.40264941 308.80828857 201.02780151 C308.8128312 205.4218906 308.8110871 209.8159561 308.80790949 214.21004558 C308.80537251 218.80999867 308.80772687 223.40994978 308.80929565 228.00990295 C308.81111216 235.72584393 308.80872331 243.44177532 308.80395508 251.15771484 C308.79849995 260.08855101 308.80028625 269.01936439 308.80578148 277.95020002 C308.81031132 285.618256 308.81096421 293.2863051 308.80834281 300.95436198 C308.80678106 305.53457518 308.80658378 310.11477764 308.8098793 314.69499016 C308.81275659 318.99351324 308.810785 323.29200672 308.80498505 327.59052658 C308.80365726 329.17203154 308.80405188 330.75353896 308.80624771 332.33504295 C308.80895815 334.48441812 308.80557961 336.63369687 308.80056763 338.7830658 C308.8001906 339.98852019 308.79981358 341.19397459 308.79942513 342.43595791 C308.67358398 345.11352539 308.67358398 345.11352539 307.67358398 346.11352539 C305.53158075 346.21304832 303.38625694 346.24152218 301.24194336 346.24291992 C300.23463921 346.2455484 300.23463921 346.2455484 299.20698547 346.24822998 C296.97707571 346.25264769 294.74724462 346.24971081 292.51733398 346.24633789 C290.97416163 346.24701095 289.43098937 346.247981 287.88781738 346.24923706 C284.64956658 346.25071392 281.41134331 346.24855986 278.1730957 346.24389648 C274.01315876 346.23819919 269.85328632 346.24147826 265.69335175 346.24746895 C262.50558991 346.25107488 259.31784347 346.24993583 256.13008118 346.24734116 C254.59580986 346.24667198 253.06153716 346.2475 251.52726746 346.24982071 C249.38654858 346.25234777 247.24593556 346.24850593 245.10522461 346.24291992 C243.27441345 346.24172653 243.27441345 346.24172653 241.40661621 346.24050903 C238.67358398 346.11352539 238.67358398 346.11352539 237.67358398 345.11352539 C237.5772394 343.34192221 237.55170918 341.56644131 237.55332947 339.79222107 C237.55126747 338.06105042 237.55126747 338.06105042 237.54916382 336.29490662 C237.55275909 335.01745071 237.55635437 333.73999481 237.56005859 332.42382812 C237.56034047 331.07394411 237.56018273 329.72405995 237.55961609 328.37417603 C237.55932811 324.69871931 237.56522482 321.02329496 237.57219005 317.34784579 C237.5784236 313.51079391 237.57902738 309.67374135 237.58021545 305.83668518 C237.58332877 298.56581321 237.59154215 291.2949562 237.60156494 284.02409083 C237.61272609 275.74853187 237.61823653 267.47297221 237.62326038 259.1974076 C237.63372477 242.16943672 237.65207024 225.14148645 237.67358398 208.11352539 C226.78358398 208.11352539 215.89358398 208.11352539 204.67358398 208.11352539 C204.67358398 242.10352539 204.67358398 276.09352539 204.67358398 311.11352539 C193.12358398 311.11352539 181.57358398 311.11352539 169.67358398 311.11352539 C169.67358398 322.66352539 169.67358398 334.21352539 169.67358398 346.11352539 C158.12358398 346.11352539 146.57358398 346.11352539 134.67358398 346.11352539 C134.34358398 334.89352539 134.01358398 323.67352539 133.67358398 312.11352539 C122.45358398 311.78352539 111.23358398 311.45352539 99.67358398 311.11352539 C99.67358398 277.12352539 99.67358398 243.13352539 99.67358398 208.11352539 C88.78358398 208.11352539 77.89358398 208.11352539 66.67358398 208.11352539 C66.6788208 212.25842529 66.68405762 216.4033252 66.68945312 220.67382812 C66.70598512 234.33236933 66.71710446 247.99091038 66.72539616 261.64945889 C66.73055927 269.93476813 66.73760225 278.22006792 66.74902344 286.50537109 C66.75896981 293.72422147 66.7654373 300.943065 66.76767248 308.16192204 C66.76897967 311.98660794 66.77206602 315.81127426 66.77931404 319.6359539 C66.78607353 323.23178326 66.78820109 326.82758485 66.78669167 330.42341995 C66.78710035 332.38058576 66.79249592 334.33774851 66.79800415 336.29490662 C66.79662949 337.44902039 66.79525482 338.60313416 66.7938385 339.79222107 C66.79476029 340.80158439 66.79568209 341.8109477 66.79663181 342.85089779 C66.67358398 345.11352539 66.67358398 345.11352539 65.67358398 346.11352539 C63.5261485 346.20778134 61.37557373 346.23095187 59.22607422 346.22705078 C58.21636063 346.22726982 58.21636063 346.22726982 57.18624878 346.22749329 C54.95152614 346.22679418 52.71688589 346.21900191 50.48217773 346.21118164 C48.93661037 346.20931745 47.39104241 346.20789355 45.84547424 346.20689392 C41.77001322 346.20306879 37.69458762 346.19323856 33.61914062 346.18218994 C29.46346516 346.17197571 25.307784 346.16739628 21.15209961 346.16235352 C12.99257811 346.15161628 4.83308545 346.13453993 -3.32641602 346.11352539 C-4.4818424 342.64724623 -4.45229586 339.96396313 -4.45339966 336.30563354 C-4.45495965 335.60957193 -4.45651964 334.91351032 -4.4581269 334.19635594 C-4.46212284 331.85866577 -4.45895271 329.52104029 -4.45581055 327.18334961 C-4.45716518 325.50967368 -4.45894547 323.83599806 -4.46112061 322.162323 C-4.46568678 317.6129844 -4.4639089 313.06366843 -4.46074152 308.51432943 C-4.45821456 303.76086458 -4.46055632 299.0074017 -4.46212769 294.25393677 C-4.46394804 286.27272187 -4.4615462 278.29151623 -4.45678711 270.31030273 C-4.45134102 261.06999086 -4.4531102 251.82970103 -4.45861351 242.58938968 C-4.46314402 234.66665961 -4.46379562 226.7439362 -4.46117485 218.82120526 C-4.4596122 214.08442201 -4.45941804 209.34764914 -4.46271133 204.61086655 C-4.46558926 200.16056657 -4.46361582 195.71029519 -4.45781708 191.25999832 C-4.45648921 189.62205808 -4.45688404 187.98411545 -4.45907974 186.34617615 C-4.46179013 184.11990104 -4.45841157 181.89371903 -4.45339966 179.66744995 C-4.45302263 178.41862974 -4.45264561 177.16980953 -4.45225716 175.88314629 C-4.32641602 173.11352539 -4.32641602 173.11352539 -3.32641602 172.11352539 C-0.8057342 172.02505705 1.68812815 171.99818015 4.20874023 172.01586914 C5.20979797 172.01737976 5.20979797 172.01737976 6.2310791 172.0189209 C8.73276478 172.02416731 11.23442604 172.03812848 13.73608398 172.05102539 C22.12014648 172.08196289 22.12014648 172.08196289 30.67358398 172.11352539 C30.67358398 160.89352539 30.67358398 149.67352539 30.67358398 138.11352539 C46.54858398 137.73852539 46.54858398 137.73852539 51.5559082 137.63549805 C52.85028809 137.5998877 54.14466797 137.56427734 55.47827148 137.52758789 C56.15897705 137.51622803 56.83968262 137.50486816 57.54101562 137.49316406 C61.55298578 137.46750604 61.55298578 137.46750604 64.67358398 135.11352539 C64.95263027 132.00313595 64.95263027 132.00313595 64.86889648 128.35571289 C64.86465164 127.36113571 64.86465164 127.36113571 64.86032104 126.34646606 C64.84911834 124.22696956 64.82401449 122.10789435 64.79858398 119.98852539 C64.78855426 118.55233357 64.7794284 117.11613514 64.77124023 115.67993164 C64.74917899 112.15765911 64.71464892 108.63563336 64.67358398 105.11352539 C63.67915283 105.11876221 62.68472168 105.12399902 61.66015625 105.12939453 C57.98324477 105.1474458 54.30633724 105.15895785 50.62939453 105.16845703 C49.03563784 105.17349696 47.44188579 105.18032889 45.84814453 105.18896484 C43.56208146 105.20104538 41.27607931 105.20675694 38.98999023 105.21118164 C38.2733168 105.21634293 37.55664337 105.22150421 36.81825256 105.2268219 C35.10294726 105.22701802 33.38777132 105.17544546 31.67358398 105.11352539 C30.67358398 104.11352539 30.67358398 104.11352539 30.56005859 100.87890625 C30.56021767 99.44538413 30.56590991 98.01185627 30.57592773 96.57836914 C30.57734268 95.82511856 30.57875763 95.07186798 30.58021545 94.29579163 C30.58583023 91.88082979 30.59838515 89.46595938 30.61108398 87.05102539 C30.61609708 85.41756318 30.62066032 83.78409953 30.62475586 82.15063477 C30.63580445 78.13822954 30.65307892 74.12589299 30.67358398 70.11352539 C29.1364978 70.12138062 29.1364978 70.12138062 27.56835938 70.12939453 C23.77963122 70.14744508 19.99090689 70.15895759 16.20214844 70.16845703 C14.55988934 70.17349713 12.91763475 70.18032917 11.27539062 70.18896484 C8.9198292 70.20104465 6.5643269 70.20675678 4.20874023 70.21118164 C3.47019302 70.21634293 2.73164581 70.22150421 1.97071838 70.2268219 C0.20460311 70.22701789 -1.56138747 70.17547258 -3.32641602 70.11352539 C-5.17438803 68.26555338 -4.45417548 65.24556462 -4.45581055 62.77368164 C-4.45843903 61.78100784 -4.45843903 61.78100784 -4.46112061 60.76828003 C-4.46553819 58.57083549 -4.46260148 56.37347081 -4.45922852 54.17602539 C-4.45990158 52.65527328 -4.46087163 51.13452127 -4.46212769 49.61376953 C-4.46360453 46.42259703 -4.46145054 43.23145247 -4.45678711 40.0402832 C-4.45108982 35.94088009 -4.4543689 31.84154243 -4.46035957 27.74214172 C-4.46396555 24.60070295 -4.46282643 21.45927981 -4.46023178 18.31784058 C-4.45956261 16.80589795 -4.46039058 15.29395393 -4.46271133 13.78201294 C-4.46523847 11.67242652 -4.46139645 9.56294752 -4.45581055 7.45336914 C-4.45501495 6.25059326 -4.45421936 5.04781738 -4.45339966 3.80859375 C-4.26615869 -0.16536076 -4.07349517 0.13902204 0 0 Z " fill="#FEFE00" transform="translate(157.326416015625,28.886474609375)"/>
<path d="M0 0 C0.02312566 8.97920777 0.04091623 17.95840537 0.05181217 26.93763638 C0.05704051 31.10662828 0.06413726 35.27559987 0.07543945 39.44458008 C0.08627008 43.46457686 0.09227721 47.48455405 0.09487724 51.50456429 C0.09673118 53.04162975 0.10035119 54.57869409 0.10573006 56.11575127 C0.11294284 58.26135487 0.11399084 60.40687655 0.11352539 62.55249023 C0.115746 63.77604721 0.11796661 64.99960419 0.12025452 66.26023865 C0 69 0 69 -1 70 C-3.44830426 70.08843793 -5.86820599 70.11528752 -8.31640625 70.09765625 C-9.41298805 70.09553383 -9.41298805 70.09553383 -10.53172302 70.09336853 C-12.87535632 70.08775408 -15.21889539 70.07519922 -17.5625 70.0625 C-19.14778508 70.05748686 -20.73307166 70.05292363 -22.31835938 70.04882812 C-26.2122761 70.03777997 -30.10612205 70.02050572 -34 70 C-33.99907821 70.70513953 -33.99815641 71.41027906 -33.99720669 72.13678646 C-33.97515216 89.26983299 -33.95858879 106.40287592 -33.94818783 123.53593349 C-33.94302472 131.82124274 -33.93598173 140.10654253 -33.92456055 148.3918457 C-33.91461417 155.61069608 -33.90814668 162.82953961 -33.90591151 170.04839665 C-33.90460432 173.87308255 -33.90151797 177.69774887 -33.89426994 181.52242851 C-33.88751046 185.11825787 -33.88538289 188.71405946 -33.88689232 192.30989456 C-33.88648364 194.26706037 -33.88108807 196.22422312 -33.87557983 198.18138123 C-33.8769545 199.335495 -33.87832916 200.48960876 -33.87974548 201.67869568 C-33.87882369 202.688059 -33.8779019 203.69742231 -33.87695217 204.7373724 C-34 207 -34 207 -35 208 C-37.14743549 208.09425595 -39.29801026 208.11742648 -41.44750977 208.11352539 C-42.45722336 208.11374443 -42.45722336 208.11374443 -43.48733521 208.1139679 C-45.72205784 208.11326878 -47.9566981 208.10547652 -50.19140625 208.09765625 C-51.73697362 208.09579206 -53.28254157 208.09436816 -54.82810974 208.09336853 C-58.90357077 208.0895434 -62.97899637 208.07971317 -67.05444336 208.06866455 C-71.21011882 208.05845032 -75.36579999 208.05387089 -79.52148438 208.04882812 C-87.68100587 208.03809089 -95.84049853 208.02101454 -104 208 C-105.15542639 204.53372084 -105.12587984 201.85043774 -105.12698364 198.19210815 C-105.12854363 197.49604654 -105.13010362 196.79998493 -105.13171089 196.08283055 C-105.13570683 193.74514038 -105.1325367 191.40751489 -105.12939453 189.06982422 C-105.13074917 187.39614829 -105.13252946 185.72247267 -105.13470459 184.04879761 C-105.13927077 179.49945901 -105.13749288 174.95014304 -105.1343255 170.40080404 C-105.13179855 165.64733919 -105.1341403 160.89387631 -105.13571167 156.14041138 C-105.13753202 148.15919648 -105.13513019 140.17799084 -105.13037109 132.19677734 C-105.12492501 122.95646547 -105.12669418 113.71617564 -105.1321975 104.47586429 C-105.136728 96.55313422 -105.1373796 88.63041081 -105.13475883 80.70767987 C-105.13319619 75.97089662 -105.13300202 71.23412375 -105.13629532 66.49734116 C-105.13917324 62.04704118 -105.13719981 57.5967698 -105.13140106 53.14647293 C-105.1300732 51.50853269 -105.13046802 49.87059006 -105.13266373 48.23265076 C-105.13537412 46.00637565 -105.13199555 43.78019364 -105.12698364 41.55392456 C-105.12660662 40.30510435 -105.12622959 39.05628414 -105.12584114 37.7696209 C-105 35 -105 35 -104 34 C-101.47931819 33.91153166 -98.98545583 33.88465476 -96.46484375 33.90234375 C-95.46378601 33.90385437 -95.46378601 33.90385437 -94.44250488 33.90539551 C-91.9408192 33.91064192 -89.43915794 33.92460309 -86.9375 33.9375 C-78.5534375 33.9684375 -78.5534375 33.9684375 -70 34 C-70 22.78 -70 11.56 -70 0 C-46.57186704 -0.9672165 -23.42286366 -0.79057682 0 0 Z " fill="#641EFD" transform="translate(258,167)"/>
<path d="M0 0 C0 11.22 0 22.44 0 34 C11.22 34 22.44 34 34 34 C34.66351248 39.30809988 35.12534046 43.95414264 35.12698364 49.21934509 C35.12932363 50.23921905 35.12932363 50.23921905 35.13171089 51.27969652 C35.13566436 53.53275992 35.13255349 55.7857546 35.12939453 58.03881836 C35.13075099 59.66397135 35.13253231 61.28912402 35.13470459 62.91427612 C35.13924721 67.30836521 35.13750311 71.70243071 35.1343255 76.09652019 C35.13178853 80.69647328 35.13414289 85.29642439 35.13571167 89.89637756 C35.13752817 97.61231854 35.13513933 105.32824993 35.13037109 113.04418945 C35.12491597 121.97502562 35.12670226 130.905839 35.1321975 139.83667463 C35.13672734 147.50473061 35.13738022 155.1727797 35.13475883 162.84083658 C35.13319708 167.42104979 35.1329998 172.00125225 35.13629532 176.58146477 C35.13917261 180.87998785 35.13720101 185.17848133 35.13140106 189.47700119 C35.13007327 191.05850615 35.1304679 192.64001357 35.13266373 194.22151756 C35.13537416 196.37089273 35.13199562 198.52017148 35.12698364 200.66954041 C35.1264181 202.477722 35.1264181 202.477722 35.12584114 204.32243252 C35 207 35 207 34 208 C31.85799676 208.09952293 29.71267295 208.12799679 27.56835938 208.12939453 C26.56105522 208.13202301 26.56105522 208.13202301 25.53340149 208.13470459 C23.30349172 208.1391223 21.07366064 208.13618542 18.84375 208.1328125 C17.30057764 208.13348556 15.75740539 208.13445561 14.2142334 208.13571167 C10.9759826 208.13718853 7.73775933 208.13503447 4.49951172 208.13037109 C0.33957477 208.1246738 -3.82029766 208.12795287 -7.98023224 208.13394356 C-11.16799408 208.13754949 -14.35574051 208.13641044 -17.54350281 208.13381577 C-19.07777412 208.13314658 -20.61204682 208.13397461 -22.14631653 208.13629532 C-24.28703541 208.13882238 -26.42764842 208.13498054 -28.56835938 208.12939453 C-30.39917053 208.12820114 -30.39917053 208.12820114 -32.26696777 208.12698364 C-35 208 -35 208 -36 207 C-36.09634459 205.22839682 -36.12187481 203.45291592 -36.12025452 201.67869568 C-36.12162918 200.52458191 -36.12300385 199.37046814 -36.12442017 198.18138123 C-36.11902725 196.26519737 -36.11902725 196.26519737 -36.11352539 194.31030273 C-36.11324352 192.96041872 -36.11340125 191.61053456 -36.1139679 190.26065063 C-36.11425587 186.58519392 -36.10835916 182.90976957 -36.10139394 179.2343204 C-36.09516038 175.39726851 -36.0945566 171.56021596 -36.09336853 167.72315979 C-36.09025522 160.45228782 -36.08204183 153.18143081 -36.07201904 145.91056544 C-36.0608579 137.63500648 -36.05534745 129.35944682 -36.05032361 121.08388221 C-36.03985922 104.05591133 -36.02151374 87.02796106 -36 70 C-46.89 70 -57.78 70 -69 70 C-69.76254582 46.6470344 -70.1395099 23.36254226 -70 0 C-46.57769912 -0.94894209 -23.43541657 -0.86089285 0 0 Z " fill="#641DFD" transform="translate(431,167)"/>
<path d="M0 0 C34.32 0 68.64 0 104 0 C104 45.54 104 91.08 104 138 C92.45 138 80.9 138 69 138 C69 149.55 69 161.1 69 173 C57.45 173 45.9 173 34 173 C33.67 161.78 33.34 150.56 33 139 C16.17 138.505 16.17 138.505 -1 138 C-1.02285538 125.02728904 -1.04108748 112.05459208 -1.05181217 99.08186531 C-1.05696694 93.05408081 -1.06392458 87.02631113 -1.07543945 80.99853516 C-1.08653839 75.14994035 -1.09233206 69.30135952 -1.09487724 63.45275497 C-1.09668409 61.25356705 -1.10020746 59.05437964 -1.10573006 56.85519791 C-1.15137045 37.87466224 -0.55855769 18.99096135 0 0 Z " fill="#FA1843" transform="translate(258,202)"/>
<path d="M0 0 C1.47583954 0.00025104 2.95168496 0.00581025 4.42749023 0.01586914 C5.11452026 0.01687622 5.80155029 0.0178833 6.50939941 0.0189209 C9.08497783 0.02416763 11.66053252 0.0381288 14.23608398 0.05102539 C19.99045898 0.07165039 25.74483398 0.09227539 31.67358398 0.11352539 C31.67358398 22.88352539 31.67358398 45.65352539 31.67358398 69.11352539 C42.56358398 69.11352539 53.45358398 69.11352539 64.67358398 69.11352539 C64.66198242 66.67075195 64.65038086 64.22797852 64.63842773 61.71118164 C64.63063714 59.35481903 64.6245604 56.99845784 64.61865234 54.64208984 C64.61361225 52.99983075 64.6067802 51.35757616 64.59814453 49.71533203 C64.58606473 47.3597706 64.5803526 45.0042683 64.57592773 42.64868164 C64.57076645 41.91013443 64.56560516 41.17158722 64.56028748 40.41065979 C64.56009149 38.64454451 64.6116368 36.87855393 64.67358398 35.11352539 C65.67358398 34.11352539 65.67358398 34.11352539 68.41334534 33.99327087 C69.63690231 33.99549149 70.86045929 33.9977121 72.12109375 34 C72.8051551 33.99987947 73.48921644 33.99975893 74.19400692 33.99963474 C76.41770062 34.00038368 78.64131145 34.00801098 80.86499023 34.01586914 C82.23408976 34.01733862 83.60318984 34.01835929 84.97229004 34.0189209 C90.0602299 34.02417308 95.14815775 34.03813417 100.23608398 34.05102539 C117.28264648 34.08196289 117.28264648 34.08196289 134.67358398 34.11352539 C134.67358398 57.21352539 134.67358398 80.31352539 134.67358398 104.11352539 C116.78951156 104.36309132 116.78951156 104.36309132 108.97631836 104.46899414 C103.71124781 104.54036894 98.44618402 104.61208528 93.18115234 104.6862793 C76.37330909 104.92262911 59.56522546 105.15653349 42.75561523 105.20727539 C41.62894943 105.21376099 40.50228363 105.22024658 39.34147644 105.22692871 C38.33192398 105.22753296 37.32237152 105.22813721 36.28222656 105.22875977 C34.97225456 105.23184143 34.97225456 105.23184143 33.63581848 105.23498535 C31.67358398 105.11352539 31.67358398 105.11352539 30.67358398 104.11352539 C30.58510656 101.59258463 30.55831097 99.09921646 30.57592773 96.57836914 C30.57734268 95.82511856 30.57875763 95.07186798 30.58021545 94.29579163 C30.58583023 91.88082979 30.59838515 89.46595938 30.61108398 87.05102539 C30.61609708 85.41756318 30.62066032 83.78409953 30.62475586 82.15063477 C30.63580445 78.13822954 30.65307892 74.12589299 30.67358398 70.11352539 C29.1364978 70.12138062 29.1364978 70.12138062 27.56835938 70.12939453 C23.77963122 70.14744508 19.99090689 70.15895759 16.20214844 70.16845703 C14.55988934 70.17349713 12.91763475 70.18032917 11.27539062 70.18896484 C8.9198292 70.20104465 6.5643269 70.20675678 4.20874023 70.21118164 C3.47019302 70.21634293 2.73164581 70.22150421 1.97071838 70.2268219 C0.20460311 70.22701789 -1.56138747 70.17547258 -3.32641602 70.11352539 C-5.17438803 68.26555338 -4.45417548 65.24556462 -4.45581055 62.77368164 C-4.45843903 61.78100784 -4.45843903 61.78100784 -4.46112061 60.76828003 C-4.46553819 58.57083549 -4.46260148 56.37347081 -4.45922852 54.17602539 C-4.45990158 52.65527328 -4.46087163 51.13452127 -4.46212769 49.61376953 C-4.46360453 46.42259703 -4.46145054 43.23145247 -4.45678711 40.0402832 C-4.45108982 35.94088009 -4.4543689 31.84154243 -4.46035957 27.74214172 C-4.46396555 24.60070295 -4.46282643 21.45927981 -4.46023178 18.31784058 C-4.45956261 16.80589795 -4.46039058 15.29395393 -4.46271133 13.78201294 C-4.46523847 11.67242652 -4.46139645 9.56294752 -4.45581055 7.45336914 C-4.45501495 6.25059326 -4.45421936 5.04781738 -4.45339966 3.80859375 C-4.26615869 -0.16536076 -4.07349517 0.13902204 0 0 Z " fill="#FA1940" transform="translate(157.326416015625,28.886474609375)"/>
<path d="M0 0 C11.55 0 23.1 0 35 0 C35.69201616 4.15209697 36.12590499 7.47914887 36.12939453 11.5871582 C36.13254669 12.65879715 36.13569885 13.7304361 36.13894653 14.83454895 C36.13591019 16.55033394 36.13591019 16.55033394 36.1328125 18.30078125 C36.13376923 19.49172897 36.13472595 20.6826767 36.13571167 21.90971375 C36.13639108 24.4254054 36.13455345 26.94109883 36.13037109 29.45678711 C36.12503373 33.28828926 36.13031691 37.11967343 36.13671875 40.95117188 C36.13605765 43.40104192 36.13477583 45.8509119 36.1328125 48.30078125 C36.13483673 49.43856522 36.13686096 50.57634918 36.13894653 51.74861145 C36.13421829 53.37025459 36.13421829 53.37025459 36.12939453 55.0246582 C36.12859894 55.96364456 36.12780334 56.90263092 36.12698364 57.87007141 C35.96237235 61.92745683 35.44843187 65.96411321 35 70 C23.78 70 12.56 70 1 70 C1 81.22 1 92.44 1 104 C-33.71744971 105.48083909 -68.24714359 104.60498203 -103 104 C-103 80.9 -103 57.8 -103 34 C-80.23 34 -57.46 34 -34 34 C-33.67 45.55 -33.34 57.1 -33 69 C-22.11 69 -11.22 69 0 69 C0 46.23 0 23.46 0 0 Z " fill="#FA1940" transform="translate(430,29)"/>
<path d="M0 0 C34.32 0 68.64 0 104 0 C104 22.77 104 45.54 104 69 C69.35 69 34.7 69 -1 69 C-1 45.99758467 -0.6762492 22.99247264 0 0 Z " fill="#FB1842" transform="translate(258,202)"/>
<path d="M0 0 C1.47583954 0.00025104 2.95168496 0.00581025 4.42749023 0.01586914 C5.11452026 0.01687622 5.80155029 0.0178833 6.50939941 0.0189209 C9.08497783 0.02416763 11.66053252 0.0381288 14.23608398 0.05102539 C19.99045898 0.07165039 25.74483398 0.09227539 31.67358398 0.11352539 C31.67358398 22.88352539 31.67358398 45.65352539 31.67358398 69.11352539 C43.22358398 69.11352539 54.77358398 69.11352539 66.67358398 69.11352539 C66.71483398 74.68227539 66.75608398 80.25102539 66.79858398 85.98852539 C66.81679199 87.74535645 66.835 89.5021875 66.85375977 91.31225586 C66.85959992 92.70173842 66.8646966 94.0912244 66.86889648 95.48071289 C66.87912842 96.20460205 66.88936035 96.92849121 66.89990234 97.67431641 C66.90053794 99.48895475 66.79635974 101.30304512 66.67358398 103.11352539 C64.20451431 105.58259507 62.81084629 105.34999657 59.44126892 105.36576843 C58.37870628 105.35499016 58.37870628 105.35499016 57.29467773 105.34399414 C56.56740982 105.34353592 55.84014191 105.3430777 55.09083557 105.34260559 C53.55337899 105.33958375 52.01592546 105.33169944 50.47851562 105.31933594 C48.11699663 105.30107112 45.75586938 105.29882629 43.39428711 105.29907227 C41.90274724 105.29415742 40.41121004 105.28832925 38.91967773 105.28149414 C38.20927841 105.28038132 37.49887909 105.27926849 36.76695251 105.27812195 C31.78963763 105.22957904 31.78963763 105.22957904 30.67358398 104.11352539 C30.58510656 101.59258463 30.55831097 99.09921646 30.57592773 96.57836914 C30.57734268 95.82511856 30.57875763 95.07186798 30.58021545 94.29579163 C30.58583023 91.88082979 30.59838515 89.46595938 30.61108398 87.05102539 C30.61609708 85.41756318 30.62066032 83.78409953 30.62475586 82.15063477 C30.63580445 78.13822954 30.65307892 74.12589299 30.67358398 70.11352539 C29.1364978 70.12138062 29.1364978 70.12138062 27.56835938 70.12939453 C23.77963122 70.14744508 19.99090689 70.15895759 16.20214844 70.16845703 C14.55988934 70.17349713 12.91763475 70.18032917 11.27539062 70.18896484 C8.9198292 70.20104465 6.5643269 70.20675678 4.20874023 70.21118164 C3.47019302 70.21634293 2.73164581 70.22150421 1.97071838 70.2268219 C0.20460311 70.22701789 -1.56138747 70.17547258 -3.32641602 70.11352539 C-5.17438803 68.26555338 -4.45417548 65.24556462 -4.45581055 62.77368164 C-4.45843903 61.78100784 -4.45843903 61.78100784 -4.46112061 60.76828003 C-4.46553819 58.57083549 -4.46260148 56.37347081 -4.45922852 54.17602539 C-4.45990158 52.65527328 -4.46087163 51.13452127 -4.46212769 49.61376953 C-4.46360453 46.42259703 -4.46145054 43.23145247 -4.45678711 40.0402832 C-4.45108982 35.94088009 -4.4543689 31.84154243 -4.46035957 27.74214172 C-4.46396555 24.60070295 -4.46282643 21.45927981 -4.46023178 18.31784058 C-4.45956261 16.80589795 -4.46039058 15.29395393 -4.46271133 13.78201294 C-4.46523847 11.67242652 -4.46139645 9.56294752 -4.45581055 7.45336914 C-4.45501495 6.25059326 -4.45421936 5.04781738 -4.45339966 3.80859375 C-4.26615869 -0.16536076 -4.07349517 0.13902204 0 0 Z " fill="#641EFC" transform="translate(157.326416015625,28.886474609375)"/>
<path d="M0 0 C11.55 0 23.1 0 35 0 C35.69201616 4.15209697 36.12590499 7.47914887 36.12939453 11.5871582 C36.13254669 12.65879715 36.13569885 13.7304361 36.13894653 14.83454895 C36.13591019 16.55033394 36.13591019 16.55033394 36.1328125 18.30078125 C36.13376923 19.49172897 36.13472595 20.6826767 36.13571167 21.90971375 C36.13639108 24.4254054 36.13455345 26.94109883 36.13037109 29.45678711 C36.12503373 33.28828926 36.13031691 37.11967343 36.13671875 40.95117188 C36.13605765 43.40104192 36.13477583 45.8509119 36.1328125 48.30078125 C36.13483673 49.43856522 36.13686096 50.57634918 36.13894653 51.74861145 C36.13421829 53.37025459 36.13421829 53.37025459 36.12939453 55.0246582 C36.12859894 55.96364456 36.12780334 56.90263092 36.12698364 57.87007141 C35.96237235 61.92745683 35.44843187 65.96411321 35 70 C23.78 70 12.56 70 1 70 C1 81.22 1 92.44 1 104 C-16.325 104.495 -16.325 104.495 -34 105 C-34.020625 99.245625 -34.04125 93.49125 -34.0625 87.5625 C-34.071604 85.74435791 -34.08070801 83.92621582 -34.09008789 82.05297852 C-34.09300711 80.61995518 -34.09555566 79.18693102 -34.09765625 77.75390625 C-34.10277222 77.00330933 -34.10788818 76.2527124 -34.11315918 75.47937012 C-34.11346992 73.65252399 -34.06231113 71.82578317 -34 70 C-33.505 69.505 -33.505 69.505 -33 69 C-22.11 69 -11.22 69 0 69 C0 46.23 0 23.46 0 0 Z " fill="#631EFB" transform="translate(430,29)"/>
<path d="M0 0 C34.65 0 69.3 0 105 0 C105 11.22 105 22.44 105 34 C70.35 34 35.7 34 0 34 C0 22.78 0 11.56 0 0 Z " fill="#FEFB06" transform="translate(257,271)"/>
<path d="M0 0 C11.55 0 23.1 0 35 0 C34.67 1.32 34.34 2.64 34 4 C34 3.01 34 2.02 34 1 C23.11 1 12.22 1 1 1 C1 23.44 1 45.88 1 69 C11.89 69 22.78 69 34 69 C34 67.02 34 65.04 34 63 C34.33 63 34.66 63 35 63 C35 65.31 35 67.62 35 70 C23.78 70 12.56 70 1 70 C1 81.22 1 92.44 1 104 C-16.325 104.495 -16.325 104.495 -34 105 C-34.020625 99.245625 -34.04125 93.49125 -34.0625 87.5625 C-34.071604 85.74435791 -34.08070801 83.92621582 -34.09008789 82.05297852 C-34.09300711 80.61995518 -34.09555566 79.18693102 -34.09765625 77.75390625 C-34.10277222 77.00330933 -34.10788818 76.2527124 -34.11315918 75.47937012 C-34.11346992 73.65252399 -34.06231113 71.82578317 -34 70 C-33.505 69.505 -33.505 69.505 -33 69 C-22.11 69 -11.22 69 0 69 C0 46.23 0 23.46 0 0 Z " fill="#641EF9" transform="translate(430,29)"/>
<path d="M0 0 C0.71039932 0.00202423 1.42079865 0.00404846 2.15272522 0.00613403 C2.87903641 0.00517731 3.6053476 0.00422058 4.35366821 0.00323486 C5.89288927 0.00255309 7.43211318 0.00440716 8.97132874 0.00857544 C11.33068804 0.0139161 13.68985631 0.00863438 16.04920959 0.00222778 C17.54204856 0.00288872 19.0348874 0.00417019 20.52772522 0.00613403 C21.59028786 0.00309769 21.59028786 0.00309769 22.67431641 0 C27.67671718 0.02398939 27.67671718 0.02398939 29.90663147 1.13894653 C29.90663147 12.68894653 29.90663147 24.23894653 29.90663147 36.13894653 C24.33788147 36.15957153 18.76913147 36.18019653 13.03163147 36.20144653 C11.27480042 36.21055054 9.51796936 36.21965454 7.707901 36.22903442 C6.3184161 36.2319545 4.92893035 36.23450285 3.53944397 36.23660278 C2.81555481 36.24171875 2.09166565 36.24683472 1.34584045 36.25210571 C-3.86522493 36.25301833 -3.86522493 36.25301833 -6.09336853 35.13894653 C-6.11802043 30.31513851 -6.13620546 25.49136687 -6.14830017 20.66751099 C-6.15334027 19.02525189 -6.16017231 17.3829973 -6.16880798 15.74075317 C-6.18088779 13.38519175 -6.18659992 11.02968945 -6.19102478 8.67410278 C-6.19618607 7.93555557 -6.20134735 7.19700836 -6.20666504 6.43608093 C-6.20686103 4.66996565 -6.15531572 2.90397508 -6.09336853 1.13894653 C-4.3931885 -0.5612335 -2.26766718 0.01092717 0 0 Z " fill="#FEFE00" transform="translate(228.09336853027344,62.861053466796875)"/>
<path d="M0 0 C11.55 0 23.1 0 35 0 C35.20625 5.56875 35.4125 11.1375 35.625 16.875 C35.69541504 18.63183105 35.76583008 20.38866211 35.83837891 22.19873047 C35.88525714 23.58818882 35.93137095 24.97767327 35.9765625 26.3671875 C36.00838623 27.09107666 36.04020996 27.81496582 36.07299805 28.56079102 C36.12695831 30.37322087 36.07318889 32.18824476 36 34 C34 36 34 36 30.65185547 36.22705078 C29.22359372 36.22655051 27.79530668 36.21549849 26.3671875 36.1953125 C25.36764038 36.19229126 25.36764038 36.19229126 24.34790039 36.18920898 C21.85686365 36.17873888 19.36592497 36.15081625 16.875 36.125 C8.521875 36.063125 8.521875 36.063125 0 36 C0 24.12 0 12.24 0 0 Z " fill="#FEFE01" transform="translate(361,63)"/>
<path d="M0 0 C11.88 0 23.76 0 36 0 C36 34.32 36 68.64 36 104 C58.77 104 81.54 104 105 104 C105 115.22 105 126.44 105 138 C93.45 138 81.9 138 70 138 C70 149.55 70 161.1 70 173 C36.01 173 2.02 173 -33 173 C-33 161.45 -33 149.9 -33 138 C-44.88 138 -56.76 138 -69 138 C-69 126.78 -69 115.56 -69 104 C-45.9 104 -22.8 104 1 104 C0.67 69.68 0.34 35.36 0 0 Z M2 2 C2 36.32 2 70.64 2 106 C-32.4375 105.9375 -32.4375 105.9375 -43.32592773 105.90991211 C-46.53656721 105.90656843 -46.53656721 105.90656843 -49.74720764 105.90455627 C-51.18133351 105.903017 -52.61545806 105.89949241 -54.04957581 105.89442444 C-56.21723695 105.88714476 -58.38481876 105.88609266 -60.55249023 105.88647461 C-61.77604721 105.884254 -62.99960419 105.88203339 -64.26023865 105.87974548 C-66.9122807 105.68714072 -66.9122807 105.68714072 -68 107 C-68.09977024 108.89111673 -68.13080672 110.78594186 -68.1328125 112.6796875 C-68.13410156 113.83597656 -68.13539063 114.99226563 -68.13671875 116.18359375 C-68.13285156 117.40175781 -68.12898437 118.61992187 -68.125 119.875 C-68.12886719 121.08542969 -68.13273438 122.29585938 -68.13671875 123.54296875 C-68.13542969 124.70183594 -68.13414062 125.86070312 -68.1328125 127.0546875 C-68.13168457 128.12187012 -68.13055664 129.18905273 -68.12939453 130.28857422 C-68.11794423 133.0972452 -68.11794423 133.0972452 -67 136 C-50.17 136.495 -50.17 136.495 -33 137 C-32.67 148.55 -32.34 160.1 -32 172 C1 172 34 172 68 172 C68 160.45 68 148.9 68 137 C79.88 137 91.76 137 104 137 C104 126.44 104 115.88 104 105 C81.23 104.67 58.46 104.34 35 104 C34.67 70.34 34.34 36.68 34 2 C23.44 2 12.88 2 2 2 Z " fill="#FCE22F" transform="translate(291,29)"/>
<path d="M0 0 C1.47583954 0.00025104 2.95168496 0.00581025 4.42749023 0.01586914 C5.11452026 0.01687622 5.80155029 0.0178833 6.50939941 0.0189209 C9.08497783 0.02416763 11.66053252 0.0381288 14.23608398 0.05102539 C19.99045898 0.07165039 25.74483398 0.09227539 31.67358398 0.11352539 C31.67358398 22.88352539 31.67358398 45.65352539 31.67358398 69.11352539 C43.22358398 69.11352539 54.77358398 69.11352539 66.67358398 69.11352539 C66.71483398 74.68227539 66.75608398 80.25102539 66.79858398 85.98852539 C66.81679199 87.74535645 66.835 89.5021875 66.85375977 91.31225586 C66.85959992 92.70173842 66.8646966 94.0912244 66.86889648 95.48071289 C66.87912842 96.20460205 66.88936035 96.92849121 66.89990234 97.67431641 C66.90053794 99.48895475 66.79635974 101.30304512 66.67358398 103.11352539 C64.20451431 105.58259507 62.81084629 105.34999657 59.44126892 105.36576843 C58.37870628 105.35499016 58.37870628 105.35499016 57.29467773 105.34399414 C56.56740982 105.34353592 55.84014191 105.3430777 55.09083557 105.34260559 C53.55337899 105.33958375 52.01592546 105.33169944 50.47851562 105.31933594 C48.11699663 105.30107112 45.75586938 105.29882629 43.39428711 105.29907227 C41.90274724 105.29415742 40.41121004 105.28832925 38.91967773 105.28149414 C38.20927841 105.28038132 37.49887909 105.27926849 36.76695251 105.27812195 C31.78963763 105.22957904 31.78963763 105.22957904 30.67358398 104.11352539 C30.58511564 101.59284358 30.55823874 99.09898122 30.57592773 96.57836914 C30.57693481 95.91099731 30.57794189 95.24362549 30.57897949 94.55603027 C30.5842259 92.05434459 30.59818708 89.55268333 30.61108398 87.05102539 C30.64202148 78.66696289 30.64202148 78.66696289 30.67358398 70.11352539 C19.45358398 70.11352539 8.23358398 70.11352539 -3.32641602 70.11352539 C-3.65641602 69.45352539 -3.98641602 68.79352539 -4.32641602 68.11352539 C7.22358398 68.44352539 18.77358398 68.77352539 30.67358398 69.11352539 C30.67358398 46.67352539 30.67358398 24.23352539 30.67358398 1.11352539 C19.78358398 1.11352539 8.89358398 1.11352539 -2.32641602 1.11352539 C-2.32641602 22.89352539 -2.32641602 44.67352539 -2.32641602 67.11352539 C-2.98641602 67.11352539 -3.64641602 67.11352539 -4.32641602 67.11352539 C-4.34954237 58.52546819 -4.36733259 49.9374239 -4.37822819 41.3493433 C-4.38345638 37.36195339 -4.39055286 33.37458472 -4.40185547 29.38720703 C-4.41268663 25.54227425 -4.41869333 21.69736194 -4.42129326 17.85241508 C-4.4231471 16.38233556 -4.42676692 14.91225721 -4.43214607 13.44218636 C-4.43935957 11.38998072 -4.44040683 9.33786072 -4.43994141 7.28564453 C-4.44216202 6.11538223 -4.44438263 4.94511993 -4.44667053 3.73939514 C-4.26710333 -0.18162263 -4.02572082 0.13739157 0 0 Z M31.67358398 70.11352539 C31.67358398 81.00352539 31.67358398 91.89352539 31.67358398 103.11352539 C42.23358398 102.78352539 52.79358398 102.45352539 63.67358398 102.11352539 C63.83858398 99.24665039 64.00358398 96.37977539 64.17358398 93.42602539 C64.22579102 92.55244385 64.27799805 91.6788623 64.33178711 90.77880859 C64.71217257 83.85564232 64.67358398 77.08381488 64.67358398 70.11352539 C53.78358398 70.11352539 42.89358398 70.11352539 31.67358398 70.11352539 Z " fill="#6E33C5" transform="translate(157.326416015625,28.886474609375)"/>
<path d="M0 0 C0.33 0 0.66 0 1 0 C1.33 53.79 1.66 107.58 2 163 C35.66 163.495 35.66 163.495 70 164 C70 118.79 70 73.58 70 27 C81.22 27 92.44 27 104 27 C104 27.33 104 27.66 104 28 C93.11 28 82.22 28 71 28 C71.00523682 32.1448999 71.01047363 36.2897998 71.01586914 40.56030273 C71.03240113 54.21884394 71.04352048 67.87738499 71.05181217 81.53593349 C71.05697528 89.82124274 71.06401827 98.10654253 71.07543945 106.3918457 C71.08538583 113.61069608 71.09185332 120.82953961 71.09408849 128.04839665 C71.09539568 131.87308255 71.09848203 135.69774887 71.10573006 139.52242851 C71.11248954 143.11825787 71.11461711 146.71405946 71.11310768 150.30989456 C71.11351636 152.26706037 71.11891193 154.22422312 71.12442017 156.18138123 C71.1230455 157.335495 71.12167084 158.48960876 71.12025452 159.67869568 C71.12117631 160.688059 71.1220981 161.69742231 71.12304783 162.7373724 C71 165 71 165 70 166 C67.85256451 166.09425595 65.70198974 166.11742648 63.55249023 166.11352539 C62.54277664 166.11374443 62.54277664 166.11374443 61.51266479 166.1139679 C59.27794216 166.11326878 57.0433019 166.10547652 54.80859375 166.09765625 C53.26302638 166.09579206 51.71745843 166.09436816 50.17189026 166.09336853 C46.09642923 166.0895434 42.02100363 166.07971317 37.94555664 166.06866455 C33.78988118 166.05845032 29.63420001 166.05387089 25.47851562 166.04882812 C17.31899413 166.03809089 9.15950147 166.02101454 1 166 C-0.13212326 162.60363023 -0.12300768 160.03299384 -0.12025452 156.4511261 C-0.12110894 155.78294379 -0.12196337 155.11476148 -0.12284368 154.42633122 C-0.12449334 152.18303811 -0.11898551 149.93981945 -0.11352539 147.6965332 C-0.11324338 146.09019981 -0.11340152 144.48386628 -0.1139679 142.87753296 C-0.11425534 138.5121361 -0.10836718 134.14676661 -0.10139394 129.78137612 C-0.09515157 125.22096663 -0.0945559 120.66055654 -0.09336853 116.10014343 C-0.09025783 107.46228285 -0.08204794 98.8244349 -0.07201904 90.18657988 C-0.06084982 80.35356732 -0.05534541 70.52055416 -0.05032361 60.68753684 C-0.03986513 40.45835084 -0.02227071 20.22917621 0 0 Z " fill="#6636C9" transform="translate(153,209)"/>
<path d="M0 0 C23.1 0 46.2 0 70 0 C70 0.33 70 0.66 70 1 C47.56 1 25.12 1 2 1 C2 11.23 2 21.46 2 32 C4.44277344 31.98839844 6.88554687 31.97679687 9.40234375 31.96484375 C11.75870636 31.95705316 14.11506756 31.95097641 16.47143555 31.94506836 C18.11369464 31.94002826 19.75594923 31.93319622 21.39819336 31.92456055 C23.75375479 31.91248074 26.10925709 31.90676861 28.46484375 31.90234375 C29.20339096 31.89718246 29.94193817 31.89202118 30.7028656 31.88670349 C32.46898088 31.8865075 34.23497146 31.93805281 36 32 C44.48855439 40.48855439 37 55.99537126 37 68 C70 68 103 68 137 68 C137 56.45 137 44.9 137 33 C149.21 33 161.42 33 174 33 C174 33.33 174 33.66 174 34 C162.45 34 150.9 34 139 34 C139 45.55 139 57.1 139 69 C105.01 69 71.02 69 36 69 C36 57.45 36 45.9 36 34 C24.12 34 12.24 34 0 34 C0 22.78 0 11.56 0 0 Z " fill="#FDE13E" transform="translate(222,133)"/>
<path d="M0 0 C0 0.66 0 1.32 0 2 C-11.38859078 5.79619693 -23.99537126 3 -36 3 C-36 25.11 -36 47.22 -36 70 C-24.78 70 -13.56 70 -2 70 C-1.93259229 100.20239763 -2.11154279 130.39577833 -2.46356201 160.59606934 C-2.52571146 165.97548419 -2.58497168 171.35493096 -2.64453125 176.734375 C-2.76031718 187.15628165 -2.87909824 197.57815152 -3 208 C-3.33 208 -3.66 208 -4 208 C-4 162.79 -4 117.58 -4 71 C-14.89 71 -25.78 71 -37 71 C-37.76254582 47.6470344 -38.1395099 24.36254226 -38 1 C-33.07040958 0.85703617 -28.14080336 0.71463436 -23.21118164 0.57275391 C-21.53409384 0.52440601 -19.85701046 0.4759044 -18.17993164 0.42724609 C-15.76970548 0.35734312 -13.35946396 0.2879925 -10.94921875 0.21875 C-10.19912033 0.19687622 -9.44902191 0.17500244 -8.67619324 0.15246582 C-5.78283704 0.06977176 -2.89472012 0 0 0 Z " fill="#6B3CAF" transform="translate(399,166)"/>
<path d="M0 0 C0 22.77 0 45.54 0 69 C-1.485 68.505 -1.485 68.505 -3 68 C-3.14574329 45.97706829 -2.77312069 24.00926568 -2 2 C-2.857146 2.00523682 -3.71429199 2.01047363 -4.59741211 2.01586914 C-26.09504406 2.12854166 -47.51249423 1.7473915 -69 1 C-69 11.56 -69 22.12 -69 33 C-69.33 33 -69.66 33 -70 33 C-70 22.11 -70 11.22 -70 0 C-46.52166521 -0.96928905 -23.49579458 -0.77743438 0 0 Z " fill="#7939BC" transform="translate(258,167)"/>
<path d="M0 0 C11.55 0 23.1 0 35 0 C34.67 1.32 34.34 2.64 34 4 C34 3.01 34 2.02 34 1 C23.11 1 12.22 1 1 1 C1 23.44 1 45.88 1 69 C11.89 69 22.78 69 34 69 C34 67.02 34 65.04 34 63 C34.33 63 34.66 63 35 63 C35 65.31 35 67.62 35 70 C23.78 70 12.56 70 1 70 C1 81.22 1 92.44 1 104 C-16.325 104.495 -16.325 104.495 -34 105 C-34 104.34 -34 103.68 -34 103 C-22.78 103 -11.56 103 0 103 C0 92.11 0 81.22 0 70 C-10.89 70 -21.78 70 -33 70 C-33 69.67 -33 69.34 -33 69 C-22.11 69 -11.22 69 0 69 C0 46.23 0 23.46 0 0 Z " fill="#6339C6" transform="translate(430,29)"/>
<path d="M0 0 C4.66308199 -0.02468646 9.32612608 -0.04285349 13.98925781 -0.05493164 C15.57617861 -0.05996588 17.16309477 -0.06679369 18.75 -0.07543945 C21.02865749 -0.08754482 23.30725376 -0.09323733 25.5859375 -0.09765625 C26.65320572 -0.10539818 26.65320572 -0.10539818 27.74203491 -0.11329651 C32.77225659 -0.11387171 32.77225659 -0.11387171 35 1 C35 12.55 35 24.1 35 36 C29.43125 36.020625 23.8625 36.04125 18.125 36.0625 C16.36816895 36.071604 14.61133789 36.08070801 12.80126953 36.09008789 C11.41178463 36.09300797 10.02229888 36.09555631 8.6328125 36.09765625 C7.90892334 36.10277222 7.18503418 36.10788818 6.43920898 36.11315918 C1.2281436 36.1140718 1.2281436 36.1140718 -1 35 C-1 24.77 -1 14.54 -1 4 C-0.67 4 -0.34 4 0 4 C0.33 13.9 0.66 23.8 1 34 C11.56 34 22.12 34 33 34 C33 23.44 33 12.88 33 2 C21.78 2 10.56 2 -1 2 C-0.67 1.34 -0.34 0.68 0 0 Z " fill="#FBD330" transform="translate(223,63)"/>
<path d="M0 0 C0.33 0 0.66 0 1 0 C1 30.69 1 61.38 1 93 C22.78 93 44.56 93 67 93 C67 92.34 67 91.68 67 91 C67.66 91 68.32 91 69 91 C69.33 91.99 69.66 92.98 70 94 C69 95 69 95 66.26023865 95.12025452 C65.03668167 95.11803391 63.81312469 95.11581329 62.55249023 95.11352539 C61.86842889 95.11364593 61.18436754 95.11376646 60.47957706 95.11389065 C58.25588337 95.11314171 56.03227254 95.10551441 53.80859375 95.09765625 C52.43949423 95.09618677 51.07039414 95.0951661 49.70129395 95.09460449 C44.61335409 95.08935232 39.52542624 95.07539122 34.4375 95.0625 C23.073125 95.041875 11.70875 95.02125 0 95 C0 63.65 0 32.3 0 0 Z " fill="#5C2BD6" transform="translate(396,280)"/>
<path d="M0 0 C11.55 0 23.1 0 35 0 C35 7.92 35 15.84 35 24 C34.67 24 34.34 24 34 24 C34 16.74 34 9.48 34 2 C23.44 2 12.88 2 2 2 C2 12.56 2 23.12 2 34 C12.56 34 23.12 34 34 34 C34.33 32.68 34.66 31.36 35 30 C35.625 31.875 35.625 31.875 36 34 C34 36 34 36 30.65185547 36.22705078 C29.22359372 36.22655051 27.79530668 36.21549849 26.3671875 36.1953125 C25.36764038 36.19229126 25.36764038 36.19229126 24.34790039 36.18920898 C21.85686365 36.17873888 19.36592497 36.15081625 16.875 36.125 C8.521875 36.063125 8.521875 36.063125 0 36 C0 24.12 0 12.24 0 0 Z " fill="#FACF35" transform="translate(361,63)"/>
<path d="M0 0 C34.32 0 68.64 0 104 0 C103.67 1.65 103.34 3.3 103 5 C102.505 3.515 102.505 3.515 102 2 C68.34 2 34.68 2 0 2 C0 1.34 0 0.68 0 0 Z " fill="#E74816" transform="translate(258,305)"/>
<path d="M0 0 C10.23 0 20.46 0 31 0 C31 11.22 31 22.44 31 34 C42.22 34 53.44 34 65 34 C65 36.64 65 39.28 65 42 C64.01 41.505 64.01 41.505 63 41 C63 39.35 63 37.7 63 36 C52.11 36 41.22 36 30 36 C30 24.45 30 12.9 30 1 C20.1 1 10.2 1 0 1 C0 0.67 0 0.34 0 0 Z " fill="#6136C7" transform="translate(400,167)"/>
<path d="M0 0 C11.22 0 22.44 0 34 0 C34 11.55 34 23.1 34 35 C33.34 35 32.68 35 32 35 C32 24.11 32 13.22 32 2 C23.33944567 2.03945865 23.33944567 2.03945865 14.67895508 2.09008789 C13.59509521 2.09258545 12.51123535 2.09508301 11.39453125 2.09765625 C10.28956299 2.10289307 9.18459473 2.10812988 8.04614258 2.11352539 C5.24200621 2.00901923 2.72582671 1.64097959 0 1 C0 0.67 0 0.34 0 0 Z " fill="#DF2F36" transform="translate(327,63)"/>
<path d="M0 0 C1.43352212 0.00015908 2.86704998 0.00585132 4.30053711 0.01586914 C5.43041298 0.01799156 5.43041298 0.01799156 6.58311462 0.02015686 C8.99807646 0.02577163 11.41294687 0.03832656 13.82788086 0.05102539 C15.46134307 0.05603849 17.09480672 0.06060173 18.72827148 0.06469727 C22.74067671 0.07574585 26.75301326 0.09302033 30.76538086 0.11352539 C30.76538086 0.77352539 30.76538086 1.43352539 30.76538086 2.11352539 C29.32702881 2.13539917 29.32702881 2.13539917 27.85961914 2.15771484 C24.30715346 2.21562046 20.75532688 2.2928521 17.20336914 2.37597656 C15.66506307 2.40926269 14.12663379 2.43728317 12.58813477 2.45996094 C10.37845268 2.49344097 8.16990351 2.54574849 5.96069336 2.60180664 C5.27105499 2.60819656 4.58141663 2.61458649 3.87088013 2.62117004 C1.71852697 2.65378253 1.71852697 2.65378253 -1.23461914 3.11352539 C-1.89461914 4.10352539 -2.55461914 5.09352539 -3.23461914 6.11352539 C-3.61680681 4.45737882 -3.94857016 2.78895515 -4.23461914 1.11352539 C-3.23461914 0.11352539 -3.23461914 0.11352539 0 0 Z " fill="#5F30CE" transform="translate(157.234619140625,200.886474609375)"/>
<path d="M0 0 C0.33 0 0.66 0 1 0 C1.02505615 0.68102783 1.0501123 1.36205566 1.07592773 2.0637207 C1.19190952 5.14683755 1.31462616 8.22965046 1.4375 11.3125 C1.47681641 12.38435547 1.51613281 13.45621094 1.55664062 14.56054688 C1.59853516 15.58857422 1.64042969 16.61660156 1.68359375 17.67578125 C1.72025146 18.62364502 1.75690918 19.57150879 1.79467773 20.5480957 C1.91430187 23.136171 1.91430187 23.136171 3 26 C18.84 26.495 18.84 26.495 35 27 C35 27.33 35 27.66 35 28 C23.45 28 11.9 28 0 28 C0 18.76 0 9.52 0 0 Z " fill="#FCEF5B" transform="translate(222,139)"/>
<path d="M0 0 C0.33 0 0.66 0 1 0 C1 7.26 1 14.52 1 22 C-0.98 22 -2.96 22 -5 22 C-5 21.34 -5 20.68 -5 20 C-12.92 20 -20.84 20 -29 20 C-29 19.67 -29 19.34 -29 19 C-19.43 19 -9.86 19 0 19 C0 12.73 0 6.46 0 0 Z " fill="#6528DF" transform="translate(221,112)"/>
<path d="M0 0 C0.33 0 0.66 0 1 0 C1 9.57 1 19.14 1 29 C0.01 29 -0.98 29 -2 29 C-1.84152588 28.46084961 -1.68305176 27.92169922 -1.51977539 27.36621094 C-0.91090977 24.59442811 -0.78489684 21.97711149 -0.68359375 19.140625 C-0.64169922 18.02558594 -0.59980469 16.91054688 -0.55664062 15.76171875 C-0.51732422 14.60285156 -0.47800781 13.44398438 -0.4375 12.25 C-0.37272461 10.48849609 -0.37272461 10.48849609 -0.30664062 8.69140625 C-0.20065206 5.79438549 -0.09858362 2.89728065 0 0 Z " fill="#F7123A" transform="translate(360,240)"/>
</svg>
