<?xml version="1.0" encoding="UTF-8"?>
<svg version="1.1" xmlns="http://www.w3.org/2000/svg" width="225" height="225">
<path d="M0 0 C0.87454834 0.00523682 1.74909668 0.01047363 2.65014648 0.01586914 C3.59438477 0.0190918 4.53862305 0.02231445 5.51147461 0.02563477 C6.50469727 0.03401367 7.49791992 0.04239258 8.52124023 0.05102539 C9.51833008 0.05553711 10.51541992 0.06004883 11.54272461 0.06469727 C14.01478872 0.07652532 16.48673541 0.0930069 18.95874023 0.11352539 C20.10700873 2.41006239 20.07435198 3.69665706 20.05639648 6.24633789 C20.05317383 7.05200195 20.04995117 7.85766602 20.04663086 8.68774414 C20.0340625 9.95038086 20.0340625 9.95038086 20.02124023 11.23852539 C20.01672852 12.08801758 20.0122168 12.93750977 20.00756836 13.81274414 C19.99576898 15.91303448 19.9778333 18.01328869 19.95874023 20.11352539 C20.81423462 20.10567017 20.81423462 20.10567017 21.68701172 20.09765625 C24.25674347 20.07694318 26.8264577 20.06388349 29.39624023 20.05102539 C30.74298828 20.03845703 30.74298828 20.03845703 32.11694336 20.02563477 C32.97094727 20.02241211 33.82495117 20.01918945 34.70483398 20.01586914 C35.49559326 20.01063232 36.28635254 20.00539551 37.10107422 20 C38.95874023 20.11352539 38.95874023 20.11352539 39.95874023 21.11352539 C40.04543455 22.60224399 40.06577517 24.09497039 40.05639648 25.58618164 C40.0515625 26.93486328 40.0515625 26.93486328 40.04663086 28.31079102 C40.0340625 29.72908203 40.0340625 29.72908203 40.02124023 31.17602539 C40.01672852 32.12541992 40.0122168 33.07481445 40.00756836 34.05297852 C39.99574134 36.40655604 39.97926049 38.76001016 39.95874023 41.11352539 C40.65365067 41.0987767 41.3485611 41.08402802 42.06452942 41.0688324 C48.61218108 40.93080297 55.15991367 40.79783647 61.7077837 40.67056179 C65.07413405 40.60494933 68.44042131 40.5373771 71.80664062 40.46533203 C75.67627025 40.38348406 79.54598031 40.30837964 83.41577148 40.23461914 C84.62521927 40.20758408 85.83466705 40.18054901 87.08076477 40.1526947 C88.20170029 40.13259842 89.3226358 40.11250214 90.47753906 40.09179688 C91.95979729 40.06181862 91.95979729 40.06181862 93.47200012 40.03123474 C95.95874023 40.11352539 95.95874023 40.11352539 98.95874023 41.11352539 C98.95874023 34.51352539 98.95874023 27.91352539 98.95874023 21.11352539 C102.04222305 20.34265469 104.0111131 19.99271003 107.06811523 20.01586914 C107.8222168 20.0190918 108.57631836 20.02231445 109.35327148 20.02563477 C110.51922852 20.03820313 110.51922852 20.03820313 111.70874023 20.05102539 C112.50151367 20.05553711 113.29428711 20.06004883 114.11108398 20.06469727 C116.06033532 20.07643974 118.00954762 20.09437393 119.95874023 20.11352539 C119.7950293 19.51878418 119.63131836 18.92404297 119.46264648 18.3112793 C118.78049601 15.33612494 118.90370476 12.53611467 118.95874023 9.48852539 C119.19495972 5.1401855 119.19495972 5.1401855 117.95874023 1.11352539 C120.90005915 0.13308575 122.78375688 -0.00268663 125.84545898 0.01586914 C126.78325195 0.0190918 127.72104492 0.02231445 128.68725586 0.02563477 C130.15195312 0.03820313 130.15195312 0.03820313 131.64624023 0.05102539 C132.63430664 0.05553711 133.62237305 0.06004883 134.64038086 0.06469727 C137.07989497 0.07648236 139.51928713 0.09293528 141.95874023 0.11352539 C142.73108262 2.85852382 143.08681702 5.30371806 143.09155273 8.15258789 C143.0928418 8.89766602 143.09413086 9.64274414 143.09545898 10.41040039 C143.0915918 11.17868164 143.08772461 11.94696289 143.08374023 12.73852539 C143.08760742 13.51454102 143.09147461 14.29055664 143.09545898 15.09008789 C143.08544156 20.86012273 143.08544156 20.86012273 141.95874023 23.11352539 C135.68874023 23.11352539 129.41874023 23.11352539 122.95874023 23.11352539 C122.62874023 29.05352539 122.29874023 34.99352539 121.95874023 41.11352539 C131.85874023 40.61852539 131.85874023 40.61852539 141.95874023 40.11352539 C141.95874023 47.04352539 141.95874023 53.97352539 141.95874023 61.11352539 C148.49576873 61.0739428 148.49576873 61.0739428 155.03271484 61.0234375 C155.84232666 61.02093994 156.65193848 61.01844238 157.48608398 61.01586914 C158.7350647 61.00801392 158.7350647 61.00801392 160.00927734 61 C161.95874023 61.11352539 161.95874023 61.11352539 162.95874023 62.11352539 C163.04525634 63.52922662 163.06578927 64.94912039 163.05639648 66.36743164 C163.05389893 67.13643799 163.05140137 67.90544434 163.04882812 68.69775391 C163.03972412 69.6805835 163.03062012 70.66341309 163.02124023 71.67602539 C163.00061523 74.79040039 162.97999023 77.90477539 162.95874023 81.11352539 C169.22874023 81.44352539 175.49874023 81.77352539 181.95874023 82.11352539 C181.95874023 102.90352539 181.95874023 123.69352539 181.95874023 145.11352539 C174.69874023 145.11352539 167.43874023 145.11352539 159.95874023 145.11352539 C159.93560137 140.88168378 159.9157441 136.65006771 159.90380859 132.41821289 C159.89882516 130.98298391 159.89203599 129.54775988 159.88330078 128.11254883 C159.83550596 120.04928089 159.96244098 112.13098871 160.95874023 104.11352539 C154.68874023 104.11352539 148.41874023 104.11352539 141.95874023 104.11352539 C142.12374023 105.57790039 142.28874023 107.04227539 142.45874023 108.55102539 C143.51009867 120.20608462 143.68447696 132.52339234 141.95874023 144.11352539 C140.40923756 145.66302807 138.8588343 145.33007732 136.70483398 145.42993164 C135.42382812 145.49277344 135.42382812 145.49277344 134.11694336 145.55688477 C133.21911133 145.59620117 132.3212793 145.63551758 131.39624023 145.67602539 C130.49454102 145.71920898 129.5928418 145.76239258 128.66381836 145.80688477 C126.42895539 145.91330681 124.19397715 146.01532527 121.95874023 146.11352539 C121.98194336 147.38969727 122.00514648 148.66586914 122.02905273 149.98071289 C122.04780852 151.64997789 122.06600892 153.31924919 122.08374023 154.98852539 C122.10049805 155.8302832 122.11725586 156.67204102 122.13452148 157.53930664 C122.1409668 158.3449707 122.14741211 159.15063477 122.15405273 159.98071289 C122.16452637 160.72434082 122.175 161.46796875 122.18579102 162.23413086 C121.95874023 164.11352539 121.95874023 164.11352539 119.95874023 166.11352539 C116.94565073 166.28899021 114.0256357 166.34479984 111.01342773 166.30883789 C109.68590988 166.30459305 109.68590988 166.30459305 108.33157349 166.30026245 C105.49882611 166.28904779 102.6663924 166.26394109 99.83374023 166.23852539 C97.91577604 166.22849724 95.99780691 166.21937111 94.07983398 166.21118164 C89.37268148 166.18910428 84.66576407 166.15456584 79.95874023 166.11352539 C78.71092981 162.67318617 77.67929008 159.77183143 77.91186523 156.09790039 C77.9544043 155.40438477 77.99694336 154.71086914 78.04077148 153.99633789 C78.09620117 153.29250977 78.15163086 152.58868164 78.20874023 151.86352539 C78.24870117 151.14422852 78.28866211 150.42493164 78.32983398 149.68383789 C78.69770527 144.37456035 78.69770527 144.37456035 80.95874023 142.11352539 C83.39851972 141.92603847 85.72248009 141.85775204 88.16186523 141.88305664 C88.87727478 141.88351486 89.59268433 141.88397308 90.32977295 141.88444519 C91.84624892 141.8874689 93.36272175 141.89535876 94.87915039 141.90771484 C97.18574202 141.92584462 99.49192889 141.92822532 101.79858398 141.92797852 C103.27384783 141.932899 104.74910898 141.93872962 106.22436523 141.94555664 C106.90895813 141.94666946 107.59355103 141.94778229 108.29888916 141.94892883 C112.28275004 141.9878052 116.04860677 142.35296877 119.95874023 143.11352539 C119.79374023 142.61852539 119.62874023 142.12352539 119.45874023 141.61352539 C118.31505824 135.8951154 119.00812222 130.8172335 119.95874023 125.11352539 C86.62874023 125.11352539 53.29874023 125.11352539 18.95874023 125.11352539 C19.28874023 130.72352539 19.61874023 136.33352539 19.95874023 142.11352539 C33.15874023 142.11352539 46.35874023 142.11352539 59.95874023 142.11352539 C60.76120877 145.32339955 61.07808932 147.44986061 61.05639648 150.66040039 C61.0515625 151.9269043 61.0515625 151.9269043 61.04663086 153.21899414 C61.0340625 154.52803711 61.0340625 154.52803711 61.02124023 155.86352539 C61.01672852 156.75168945 61.0122168 157.63985352 61.00756836 158.55493164 C60.99581424 160.74119868 60.97938272 162.92732718 60.95874023 165.11352539 C58.20978431 165.8887421 55.77758954 166.23631386 52.92456055 166.22705078 C51.75379974 166.22693748 51.75379974 166.22693748 50.55938721 166.2268219 C49.72695496 166.22166061 48.89452271 166.21649933 48.03686523 166.21118164 C47.17687927 166.20976669 46.31689331 166.20835175 45.43084717 166.20689392 C42.69010915 166.20130636 39.94945347 166.18875614 37.20874023 166.17602539 C35.34806433 166.17100878 33.48738715 166.16644616 31.62670898 166.16235352 C27.07068778 166.151341 22.51472796 166.1340849 17.95874023 166.11352539 C17.01763134 161.79875279 16.84148433 157.7025574 16.89624023 153.30102539 C16.90075195 152.6081543 16.90526367 151.9152832 16.90991211 151.20141602 C16.92160867 149.50541471 16.93954099 147.80945836 16.95874023 146.11352539 C16.38841064 146.11876221 15.81808105 146.12399902 15.23046875 146.12939453 C12.660737 146.1501076 10.09102277 146.16316729 7.52124023 146.17602539 C6.6234082 146.1844043 5.72557617 146.1927832 4.80053711 146.20141602 C3.9465332 146.20463867 3.0925293 146.20786133 2.21264648 146.21118164 C1.42188721 146.21641846 0.63112793 146.22165527 -0.18359375 146.22705078 C-2.04125977 146.11352539 -2.04125977 146.11352539 -3.04125977 145.11352539 C-3.12997249 142.08374735 -3.15645327 139.07685517 -3.13891602 136.04711914 C-3.13750107 135.13849625 -3.13608612 134.22987335 -3.1346283 133.29371643 C-3.1290117 130.37945318 -3.11645641 127.46526558 -3.10375977 124.55102539 C-3.0987469 122.58032337 -3.09418363 120.60962015 -3.09008789 118.63891602 C-3.07988593 113.79706625 -3.06031385 108.95538092 -3.04125977 104.11352539 C-9.31125977 104.11352539 -15.58125977 104.11352539 -22.04125977 104.11352539 C-21.96907227 105.56500977 -21.89688477 107.01649414 -21.82250977 108.51196289 C-21.23948232 120.72436128 -20.90389168 132.8877658 -21.04125977 145.11352539 C-26.04125977 146.11352539 -26.04125977 146.11352539 -43.04125977 145.11352539 C-43.04125977 124.32352539 -43.04125977 103.53352539 -43.04125977 82.11352539 C-36.77125977 82.11352539 -30.50125977 82.11352539 -24.04125977 82.11352539 C-24.04125977 75.51352539 -24.04125977 68.91352539 -24.04125977 62.11352539 C-19.85395352 61.06669883 -16.06269046 61.00197186 -11.79125977 61.05102539 C-11.04618164 61.05553711 -10.30110352 61.06004883 -9.53344727 61.06469727 C-7.70268336 61.07643293 -5.87196104 61.09436689 -4.04125977 61.11352539 C-4.02144043 60.54843262 -4.00162109 59.98333984 -3.98120117 59.40112305 C-3.8860774 56.84644542 -3.77634919 54.29259998 -3.66625977 51.73852539 C-3.63532227 50.84907227 -3.60438477 49.95961914 -3.57250977 49.04321289 C-3.53383789 48.19243164 -3.49516602 47.34165039 -3.45532227 46.46508789 C-3.42390137 45.67956543 -3.39248047 44.89404297 -3.36010742 44.0847168 C-3.04125977 42.11352539 -3.04125977 42.11352539 -1.04125977 40.11352539 C0.83813477 39.88647461 0.83813477 39.88647461 3.09155273 39.91821289 C3.8972168 39.9246582 4.70288086 39.93110352 5.53295898 39.93774414 C6.3747168 39.95450195 7.21647461 39.97125977 8.08374023 39.98852539 C9.35797852 40.00206055 9.35797852 40.00206055 10.65795898 40.01586914 C12.75833907 40.03946892 14.85857468 40.07534056 16.95874023 40.11352539 C16.95874023 34.50352539 16.95874023 28.89352539 16.95874023 23.11352539 C15.5987793 23.12512695 14.23881836 23.13672852 12.83764648 23.14868164 C11.06551243 23.15805801 9.29337691 23.16715837 7.52124023 23.17602539 C6.6234082 23.1844043 5.72557617 23.1927832 4.80053711 23.20141602 C3.51953125 23.20625 3.51953125 23.20625 2.21264648 23.21118164 C1.42188721 23.21641846 0.63112793 23.22165527 -0.18359375 23.22705078 C-2.04125977 23.11352539 -2.04125977 23.11352539 -3.04125977 22.11352539 C-3.140255 20.5639698 -3.17205501 19.00998866 -3.17407227 17.45727539 C-3.17600586 16.04768555 -3.17600586 16.04768555 -3.17797852 14.60961914 C-3.17411133 13.6209082 -3.17024414 12.63219727 -3.16625977 11.61352539 C-3.17206055 10.13045898 -3.17206055 10.13045898 -3.17797852 8.61743164 C-3.17668945 7.67770508 -3.17540039 6.73797852 -3.17407227 5.76977539 C-3.17294434 4.9015918 -3.17181641 4.0334082 -3.1706543 3.13891602 C-2.99464835 0.38392477 -2.75766937 0.15336877 0 0 Z M18.95874023 63.11352539 C18.93811523 66.06290039 18.91749023 69.01227539 18.89624023 72.05102539 C18.88713623 72.98164795 18.87803223 73.91227051 18.86865234 74.87109375 C18.86615479 75.59949463 18.86365723 76.32789551 18.86108398 77.07836914 C18.85584717 77.82723389 18.85061035 78.57609863 18.84521484 79.34765625 C18.76532271 81.14020278 18.76532271 81.14020278 19.95874023 82.11352539 C21.30141436 82.19984413 22.64848345 82.22059012 23.99389648 82.21118164 C25.0864978 82.2074353 25.0864978 82.2074353 26.20117188 82.20361328 C27.59710571 82.18995728 27.59710571 82.18995728 29.02124023 82.17602539 C31.97061523 82.15540039 34.91999023 82.13477539 37.95874023 82.11352539 C37.95874023 75.84352539 37.95874023 69.57352539 37.95874023 63.11352539 C31.68874023 63.11352539 25.41874023 63.11352539 18.95874023 63.11352539 Z M100.95874023 64.11352539 C100.87242149 65.45619952 100.8516755 66.80326861 100.86108398 68.14868164 C100.86358154 68.87708252 100.8660791 69.6054834 100.86865234 70.35595703 C100.87775635 71.28657959 100.88686035 72.21720215 100.89624023 73.17602539 C100.91686523 76.12540039 100.93749023 79.07477539 100.95874023 82.11352539 C107.22874023 82.11352539 113.49874023 82.11352539 119.95874023 82.11352539 C119.95874023 78.81352539 119.95874023 75.51352539 119.95874023 72.11352539 C119.29874023 72.11352539 118.63874023 72.11352539 117.95874023 72.11352539 C118.48467773 70.99977539 118.48467773 70.99977539 119.02124023 69.86352539 C120.03075003 66.90229664 119.83854908 65.99289978 118.95874023 63.11352539 C116.14617742 63.08668227 113.33386782 63.06676351 110.52124023 63.05102539 C109.71879883 63.04264648 108.91635742 63.03426758 108.08959961 63.02563477 C104.21437117 62.61655579 104.21437117 62.61655579 100.95874023 64.11352539 Z " fill="#0437FB" transform="translate(43.041259765625,39.886474609375)"/>
<path d="M0 0 C0.87454834 0.00523682 1.74909668 0.01047363 2.65014648 0.01586914 C3.50036377 0.0183667 4.35058105 0.02086426 5.2265625 0.0234375 C6.85742798 0.03709351 6.85742798 0.03709351 8.52124023 0.05102539 C11.96561523 0.07165039 15.40999023 0.09227539 18.95874023 0.11352539 C19.28874023 13.31352539 19.61874023 26.51352539 19.95874023 40.11352539 C26.22874023 40.44352539 32.49874023 40.77352539 38.95874023 41.11352539 C38.95874023 41.44352539 38.95874023 41.77352539 38.95874023 42.11352539 C31.69874023 42.11352539 24.43874023 42.11352539 16.95874023 42.11352539 C16.93560137 37.88168378 16.9157441 33.65006771 16.90380859 29.41821289 C16.89882516 27.98298391 16.89203599 26.54775988 16.88330078 25.11254883 C16.83550596 17.04928089 16.96244098 9.13098871 17.95874023 1.11352539 C11.68874023 1.11352539 5.41874023 1.11352539 -1.04125977 1.11352539 C-0.87625977 2.57790039 -0.71125977 4.04227539 -0.54125977 5.55102539 C0.51009867 17.20608462 0.68447696 29.52339234 -1.04125977 41.11352539 C-2.59076244 42.66302807 -4.1411657 42.33007732 -6.29516602 42.42993164 C-7.14916992 42.47182617 -8.00317383 42.5137207 -8.88305664 42.55688477 C-9.78088867 42.59620117 -10.6787207 42.63551758 -11.60375977 42.67602539 C-12.50545898 42.71920898 -13.4071582 42.76239258 -14.33618164 42.80688477 C-16.57104461 42.91330681 -18.80602285 43.01532527 -21.04125977 43.11352539 C-21.01805664 44.38969727 -20.99485352 45.66586914 -20.97094727 46.98071289 C-20.95219148 48.64997789 -20.93399108 50.31924919 -20.91625977 51.98852539 C-20.89950195 52.8302832 -20.88274414 53.67204102 -20.86547852 54.53930664 C-20.8590332 55.3449707 -20.85258789 56.15063477 -20.84594727 56.98071289 C-20.83547363 57.72434082 -20.825 58.46796875 -20.81420898 59.23413086 C-21.04125977 61.11352539 -21.04125977 61.11352539 -23.04125977 63.11352539 C-26.05434927 63.28899021 -28.9743643 63.34479984 -31.98657227 63.30883789 C-32.87158417 63.306008 -33.75659607 63.3031781 -34.66842651 63.30026245 C-37.50117389 63.28904779 -40.3336076 63.26394109 -43.16625977 63.23852539 C-45.08422396 63.22849724 -47.00219309 63.21937111 -48.92016602 63.21118164 C-53.62731852 63.18910428 -58.33423593 63.15456584 -63.04125977 63.11352539 C-64.28907019 59.67318617 -65.32070992 56.77183143 -65.08813477 53.09790039 C-65.0455957 52.40438477 -65.00305664 51.71086914 -64.95922852 50.99633789 C-64.90379883 50.29250977 -64.84836914 49.58868164 -64.79125977 48.86352539 C-64.73131836 47.78458008 -64.73131836 47.78458008 -64.67016602 46.68383789 C-64.30229473 41.37456035 -64.30229473 41.37456035 -62.04125977 39.11352539 C-59.60148028 38.92603847 -57.27751991 38.85775204 -54.83813477 38.88305664 C-54.12272522 38.88351486 -53.40731567 38.88397308 -52.67022705 38.88444519 C-51.15375108 38.8874689 -49.63727825 38.89535876 -48.12084961 38.90771484 C-45.81425798 38.92584462 -43.50807111 38.92822532 -41.20141602 38.92797852 C-39.72615217 38.932899 -38.25089102 38.93872962 -36.77563477 38.94555664 C-36.09104187 38.94666946 -35.40644897 38.94778229 -34.70111084 38.94892883 C-30.71724996 38.9878052 -26.95139323 39.35296877 -23.04125977 40.11352539 C-23.20625977 39.61852539 -23.37125977 39.12352539 -23.54125977 38.61352539 C-24.68494176 32.8951154 -23.99187778 27.8172335 -23.04125977 22.11352539 C-56.37125977 22.11352539 -89.70125977 22.11352539 -124.04125977 22.11352539 C-123.54625977 30.52852539 -123.54625977 30.52852539 -123.04125977 39.11352539 C-109.84125977 39.11352539 -96.64125977 39.11352539 -83.04125977 39.11352539 C-82.23879123 42.32339955 -81.92191068 44.44986061 -81.94360352 47.66040039 C-81.9484375 48.9269043 -81.9484375 48.9269043 -81.95336914 50.21899414 C-81.9659375 51.52803711 -81.9659375 51.52803711 -81.97875977 52.86352539 C-81.98327148 53.75168945 -81.9877832 54.63985352 -81.99243164 55.55493164 C-82.00418576 57.74119868 -82.02061728 59.92732718 -82.04125977 62.11352539 C-84.79021569 62.8887421 -87.22241046 63.23631386 -90.07543945 63.22705078 C-91.24620026 63.22693748 -91.24620026 63.22693748 -92.44061279 63.2268219 C-93.27304504 63.22166061 -94.10547729 63.21649933 -94.96313477 63.21118164 C-95.82312073 63.20976669 -96.68310669 63.20835175 -97.56915283 63.20689392 C-100.30989085 63.20130636 -103.05054653 63.18875614 -105.79125977 63.17602539 C-107.65193567 63.17100878 -109.51261285 63.16644616 -111.37329102 63.16235352 C-115.92931222 63.151341 -120.48527204 63.1340849 -125.04125977 63.11352539 C-125.98236866 58.79875279 -126.15851567 54.7025574 -126.10375977 50.30102539 C-126.09924805 49.6081543 -126.09473633 48.9152832 -126.09008789 48.20141602 C-126.07839133 46.50541471 -126.06045901 44.80945836 -126.04125977 43.11352539 C-126.89675415 43.12138062 -126.89675415 43.12138062 -127.76953125 43.12939453 C-130.339263 43.1501076 -132.90897723 43.16316729 -135.47875977 43.17602539 C-136.3765918 43.1844043 -137.27442383 43.1927832 -138.19946289 43.20141602 C-139.48046875 43.20625 -139.48046875 43.20625 -140.78735352 43.21118164 C-141.57811279 43.21641846 -142.36887207 43.22165527 -143.18359375 43.22705078 C-145.04125977 43.11352539 -145.04125977 43.11352539 -146.04125977 42.11352539 C-146.12997249 39.08374735 -146.15645327 36.07685517 -146.13891602 33.04711914 C-146.13750107 32.13849625 -146.13608612 31.22987335 -146.1346283 30.29371643 C-146.1290117 27.37945318 -146.11645641 24.46526558 -146.10375977 21.55102539 C-146.0987469 19.58032337 -146.09418363 17.60962015 -146.09008789 15.63891602 C-146.07903688 10.7970898 -146.06176115 5.95532044 -146.04125977 1.11352539 C-145.38125977 1.11352539 -144.72125977 1.11352539 -144.04125977 1.11352539 C-144.04125977 13.98352539 -144.04125977 26.85352539 -144.04125977 40.11352539 C-136.12125977 39.61852539 -136.12125977 39.61852539 -128.04125977 39.11352539 C-127.04477816 34.13111737 -126.71866984 29.3399766 -126.52368164 24.28930664 C-126.43288069 22.55894897 -126.24481083 20.83426635 -126.04125977 19.11352539 C-122.58129759 17.3835443 -118.57982001 17.97245798 -114.77172852 17.98071289 C-113.32524178 17.97873398 -113.32524178 17.97873398 -111.84953308 17.97671509 C-108.64257757 17.97477571 -105.43570667 17.98120022 -102.22875977 17.98852539 C-101.13533264 17.98941162 -100.04190552 17.99029785 -98.91534424 17.99121094 C-72.95169389 18.01572229 -46.99739653 18.52545039 -21.04125977 19.11352539 C-21.04125977 26.11352539 -21.04125977 33.11352539 -21.04125977 40.11352539 C-15.10125977 40.11352539 -9.16125977 40.11352539 -3.04125977 40.11352539 C-3.05286133 37.30981445 -3.06446289 34.50610352 -3.07641602 31.61743164 C-3.0842061 28.91357537 -3.09028314 26.20972033 -3.09619141 23.50585938 C-3.10123221 21.62108809 -3.10806475 19.73632074 -3.11669922 17.8515625 C-3.12877594 15.14850903 -3.13449045 12.44550708 -3.13891602 9.74243164 C-3.1440773 8.89451553 -3.14923859 8.04659943 -3.15455627 7.17298889 C-3.15475171 5.15281471 -3.10332187 3.13274605 -3.04125977 1.11352539 C-2.04125977 0.11352539 -2.04125977 0.11352539 0 0 Z " fill="#0832DF" transform="translate(186.041259765625,142.886474609375)"/>
<path d="M0 0 C0.87454834 0.00523682 1.74909668 0.01047363 2.65014648 0.01586914 C3.59438477 0.0190918 4.53862305 0.02231445 5.51147461 0.02563477 C6.50469727 0.03401367 7.49791992 0.04239258 8.52124023 0.05102539 C9.51833008 0.05553711 10.51541992 0.06004883 11.54272461 0.06469727 C14.01478872 0.07652532 16.48673541 0.0930069 18.95874023 0.11352539 C20.10700873 2.41006239 20.07435198 3.69665706 20.05639648 6.24633789 C20.05317383 7.05200195 20.04995117 7.85766602 20.04663086 8.68774414 C20.03825195 9.52950195 20.02987305 10.37125977 20.02124023 11.23852539 C20.01672852 12.08801758 20.0122168 12.93750977 20.00756836 13.81274414 C19.99576898 15.91303448 19.9778333 18.01328869 19.95874023 20.11352539 C20.81423462 20.10567017 20.81423462 20.10567017 21.68701172 20.09765625 C24.25674347 20.07694318 26.8264577 20.06388349 29.39624023 20.05102539 C30.29407227 20.04264648 31.1919043 20.03426758 32.11694336 20.02563477 C32.97094727 20.02241211 33.82495117 20.01918945 34.70483398 20.01586914 C35.49559326 20.01063232 36.28635254 20.00539551 37.10107422 20 C38.95874023 20.11352539 38.95874023 20.11352539 39.95874023 21.11352539 C40.04543455 22.60224399 40.06577517 24.09497039 40.05639648 25.58618164 C40.05317383 26.48530273 40.04995117 27.38442383 40.04663086 28.31079102 C40.0340625 29.72908203 40.0340625 29.72908203 40.02124023 31.17602539 C40.01672852 32.12541992 40.0122168 33.07481445 40.00756836 34.05297852 C39.99574134 36.40655604 39.97926049 38.76001016 39.95874023 41.11352539 C40.65365067 41.0987767 41.3485611 41.08402802 42.06452942 41.0688324 C48.61218108 40.93080297 55.15991367 40.79783647 61.7077837 40.67056179 C65.07413405 40.60494933 68.44042131 40.5373771 71.80664062 40.46533203 C75.67627025 40.38348406 79.54598031 40.30837964 83.41577148 40.23461914 C84.62521927 40.20758408 85.83466705 40.18054901 87.08076477 40.1526947 C88.20170029 40.13259842 89.3226358 40.11250214 90.47753906 40.09179688 C91.95979729 40.06181862 91.95979729 40.06181862 93.47200012 40.03123474 C95.95874023 40.11352539 95.95874023 40.11352539 98.95874023 41.11352539 C98.95874023 34.51352539 98.95874023 27.91352539 98.95874023 21.11352539 C102.85891004 20.13848294 105.26695228 20.1654157 109.20874023 20.55102539 C110.28639648 20.65286133 111.36405273 20.75469727 112.47436523 20.85961914 C113.29420898 20.9434082 114.11405273 21.02719727 114.95874023 21.11352539 C114.95874023 21.77352539 114.95874023 22.43352539 114.95874023 23.11352539 C114.26006836 23.17411133 113.56139648 23.23469727 112.84155273 23.29711914 C111.47643555 23.42280273 111.47643555 23.42280273 110.08374023 23.55102539 C109.17881836 23.63223633 108.27389648 23.71344727 107.34155273 23.79711914 C104.94763163 23.98341824 104.94763163 23.98341824 102.95874023 25.11352539 C102.62874023 30.72352539 102.29874023 36.33352539 101.95874023 42.11352539 C94.71338165 43.0521818 87.56869386 43.32239623 80.26733398 43.42993164 C79.08148209 43.45071274 77.89563019 43.47149384 76.67384338 43.49290466 C72.91469686 43.55788239 69.15548512 43.61704268 65.39624023 43.67602539 C62.83568683 43.71925993 60.27513982 43.76287574 57.71459961 43.80688477 C51.46271387 43.91351016 45.21076438 44.01536924 38.95874023 44.11352539 C37.38984562 41.14821752 36.7270068 39.37240671 36.98217773 36.00415039 C37.03374023 35.25004883 37.08530273 34.49594727 37.13842773 33.71899414 C37.20288086 32.94168945 37.26733398 32.16438477 37.33374023 31.36352539 C37.41881836 30.17436523 37.41881836 30.17436523 37.50561523 28.96118164 C37.64657718 27.01120804 37.80131143 25.06223868 37.95874023 23.11352539 C35.3119312 23.22691744 32.66696506 23.35365412 30.02124023 23.48852539 C28.88912109 23.53493164 28.88912109 23.53493164 27.73413086 23.58227539 C25.80366629 23.68615689 23.87931943 23.89248153 21.95874023 24.11352539 C20.37391453 27.28317681 20.58021201 30.7509708 20.39624023 34.23852539 C20.25186523 36.83727539 20.10749023 39.43602539 19.95874023 42.11352539 C9.56374023 42.60852539 9.56374023 42.60852539 -1.04125977 43.11352539 C-1.04125977 49.05352539 -1.04125977 54.99352539 -1.04125977 61.11352539 C-1.70125977 61.11352539 -2.36125977 61.11352539 -3.04125977 61.11352539 C-3.0991782 57.98860288 -3.13482723 54.86381773 -3.16625977 51.73852539 C-3.18301758 50.84907227 -3.19977539 49.95961914 -3.21704102 49.04321289 C-3.22348633 48.19243164 -3.22993164 47.34165039 -3.23657227 46.46508789 C-3.2470459 45.67956543 -3.25751953 44.89404297 -3.26831055 44.0847168 C-3.04125977 42.11352539 -3.04125977 42.11352539 -1.04125977 40.11352539 C0.83813477 39.88647461 0.83813477 39.88647461 3.09155273 39.91821289 C3.8972168 39.9246582 4.70288086 39.93110352 5.53295898 39.93774414 C6.3747168 39.95450195 7.21647461 39.97125977 8.08374023 39.98852539 C9.35797852 40.00206055 9.35797852 40.00206055 10.65795898 40.01586914 C12.75833907 40.03946892 14.85857468 40.07534056 16.95874023 40.11352539 C16.95874023 34.50352539 16.95874023 28.89352539 16.95874023 23.11352539 C15.5987793 23.12512695 14.23881836 23.13672852 12.83764648 23.14868164 C11.06551243 23.15805801 9.29337691 23.16715837 7.52124023 23.17602539 C6.6234082 23.1844043 5.72557617 23.1927832 4.80053711 23.20141602 C3.51953125 23.20625 3.51953125 23.20625 2.21264648 23.21118164 C1.42188721 23.21641846 0.63112793 23.22165527 -0.18359375 23.22705078 C-2.04125977 23.11352539 -2.04125977 23.11352539 -3.04125977 22.11352539 C-3.140255 20.5639698 -3.17205501 19.00998866 -3.17407227 17.45727539 C-3.17536133 16.51754883 -3.17665039 15.57782227 -3.17797852 14.60961914 C-3.17411133 13.6209082 -3.17024414 12.63219727 -3.16625977 11.61352539 C-3.17012695 10.62481445 -3.17399414 9.63610352 -3.17797852 8.61743164 C-3.17668945 7.67770508 -3.17540039 6.73797852 -3.17407227 5.76977539 C-3.17294434 4.9015918 -3.17181641 4.0334082 -3.1706543 3.13891602 C-2.99464835 0.38392477 -2.75766937 0.15336877 0 0 Z " fill="#193BC2" transform="translate(43.041259765625,39.886474609375)"/>
<path d="M0 0 C1.38594529 0.00031696 2.77191535 0.01163319 4.15771484 0.03173828 C4.88735443 0.03456818 5.61699402 0.03739807 6.3687439 0.04031372 C8.70221262 0.05152076 11.03529937 0.07662568 13.36865234 0.10205078 C14.94937597 0.11207993 16.53010561 0.1212059 18.11083984 0.12939453 C21.98859149 0.15146173 25.86605712 0.18599463 29.74365234 0.22705078 C29.74365234 1.21705078 29.74365234 2.20705078 29.74365234 3.22705078 C31.72365234 3.22705078 33.70365234 3.22705078 35.74365234 3.22705078 C35.74365234 9.49705078 35.74365234 15.76705078 35.74365234 22.22705078 C32.16292318 22.16194661 28.58219401 22.09684245 25.00146484 22.03173828 C21.65771897 21.87063554 21.65771897 21.87063554 19.74365234 24.22705078 C17.31347656 24.45410156 17.31347656 24.45410156 14.29833984 24.42236328 C13.22197266 24.41591797 12.14560547 24.40947266 11.03662109 24.40283203 C9.90869141 24.38607422 8.78076172 24.36931641 7.61865234 24.35205078 C6.48298828 24.34302734 5.34732422 24.33400391 4.17724609 24.32470703 C1.36583936 24.30108176 -1.44515064 24.26814091 -4.25634766 24.22705078 C-6.30890611 19.20617703 -6.42237412 15.25961936 -6.00634766 9.97705078 C-5.94640625 8.89810547 -5.94640625 8.89810547 -5.88525391 7.79736328 C-5.37093509 0.37449165 -5.37093509 0.37449165 0 0 Z " fill="#0537F7" transform="translate(127.25634765625,181.77294921875)"/>
<path d="M0 0 C0.97219482 -0.00467285 1.94438965 -0.0093457 2.94604492 -0.01416016 C4.32240112 -0.01101807 4.32240112 -0.01101807 5.7265625 -0.0078125 C6.54979004 -0.00668457 7.37301758 -0.00555664 8.22119141 -0.00439453 C10.375 0.125 10.375 0.125 13.375 1.125 C13.40184679 3.77090014 13.42176357 6.41653096 13.4375 9.0625 C13.44587891 9.81724609 13.45425781 10.57199219 13.46289062 11.34960938 C13.47152441 13.27494313 13.42724333 15.20035581 13.375 17.125 C12.375 18.125 12.375 18.125 10.109375 18.2578125 C3.3673277 18.24016316 -3.29033197 17.92367638 -10.0078125 17.34375 C-12.51945617 17.09723611 -12.51945617 17.09723611 -14.625 17.125 C-14.625 17.455 -14.625 17.785 -14.625 18.125 C-17.925 18.125 -21.225 18.125 -24.625 18.125 C-25.86702979 15.64094043 -25.72408841 13.95602337 -25.6875 11.1875 C-25.67847656 10.31222656 -25.66945312 9.43695313 -25.66015625 8.53515625 C-25.64855469 7.73980469 -25.63695312 6.94445312 -25.625 6.125 C-25.625 5.135 -25.625 4.145 -25.625 3.125 C-25.295 2.465 -24.965 1.805 -24.625 1.125 C-16.64792091 -0.39855024 -8.09296805 0.02774505 0 0 Z " fill="#0538F9" transform="translate(87.625,184.875)"/>
<path d="M0 0 C0.93779297 0.00322266 1.87558594 0.00644531 2.84179688 0.00976562 C4.30649414 0.02233398 4.30649414 0.02233398 5.80078125 0.03515625 C6.78884766 0.03966797 7.77691406 0.04417969 8.79492188 0.04882812 C11.23443599 0.06061322 13.67382814 0.07706614 16.11328125 0.09765625 C16.88562364 2.84265468 17.24135804 5.28784892 17.24609375 8.13671875 C17.24802734 9.25433594 17.24802734 9.25433594 17.25 10.39453125 C17.24613281 11.1628125 17.24226563 11.93109375 17.23828125 12.72265625 C17.24408203 13.88667969 17.24408203 13.88667969 17.25 15.07421875 C17.23998258 20.84425359 17.23998258 20.84425359 16.11328125 23.09765625 C9.84328125 23.09765625 3.57328125 23.09765625 -2.88671875 23.09765625 C-3.21671875 29.03765625 -3.54671875 34.97765625 -3.88671875 41.09765625 C2.05328125 41.09765625 7.99328125 41.09765625 14.11328125 41.09765625 C14.11328125 41.42765625 14.11328125 41.75765625 14.11328125 42.09765625 C7.51328125 42.09765625 0.91328125 42.09765625 -5.88671875 42.09765625 C-6.21671875 36.15765625 -6.54671875 30.21765625 -6.88671875 24.09765625 C-7.87671875 23.76765625 -8.86671875 23.43765625 -9.88671875 23.09765625 C-9.39171875 21.61265625 -9.39171875 21.61265625 -8.88671875 20.09765625 C-7.89671875 20.09765625 -6.90671875 20.09765625 -5.88671875 20.09765625 C-6.05171875 19.57429688 -6.21671875 19.0509375 -6.38671875 18.51171875 C-7.02071725 15.45069473 -6.94312436 12.59611692 -6.88671875 9.47265625 C-6.65049926 5.12431636 -6.65049926 5.12431636 -7.88671875 1.09765625 C-4.94539984 0.11721661 -3.0617021 -0.01855577 0 0 Z " fill="#0538F9" transform="translate(168.88671875,39.90234375)"/>
<path d="M0 0 C0.87454834 0.00523682 1.74909668 0.01047363 2.65014648 0.01586914 C3.50036377 0.0183667 4.35058105 0.02086426 5.2265625 0.0234375 C6.85742798 0.03709351 6.85742798 0.03709351 8.52124023 0.05102539 C11.96561523 0.07165039 15.40999023 0.09227539 18.95874023 0.11352539 C19.45374023 19.91352539 19.45374023 19.91352539 19.95874023 40.11352539 C26.22874023 40.44352539 32.49874023 40.77352539 38.95874023 41.11352539 C38.95874023 41.44352539 38.95874023 41.77352539 38.95874023 42.11352539 C31.69874023 42.11352539 24.43874023 42.11352539 16.95874023 42.11352539 C16.93560137 37.88168378 16.9157441 33.65006771 16.90380859 29.41821289 C16.89882516 27.98298391 16.89203599 26.54775988 16.88330078 25.11254883 C16.83550596 17.04928089 16.96244098 9.13098871 17.95874023 1.11352539 C11.68874023 1.11352539 5.41874023 1.11352539 -1.04125977 1.11352539 C-0.79375977 3.31008789 -0.79375977 3.31008789 -0.54125977 5.55102539 C0.51009867 17.20608462 0.68447696 29.52339234 -1.04125977 41.11352539 C-2.59076244 42.66302807 -4.1411657 42.33007732 -6.29516602 42.42993164 C-7.14916992 42.47182617 -8.00317383 42.5137207 -8.88305664 42.55688477 C-9.78088867 42.59620117 -10.6787207 42.63551758 -11.60375977 42.67602539 C-12.50545898 42.71920898 -13.4071582 42.76239258 -14.33618164 42.80688477 C-16.57104461 42.91330681 -18.80602285 43.01532527 -21.04125977 43.11352539 C-21.01805664 44.38969727 -20.99485352 45.66586914 -20.97094727 46.98071289 C-20.95219148 48.64997789 -20.93399108 50.31924919 -20.91625977 51.98852539 C-20.89950195 52.8302832 -20.88274414 53.67204102 -20.86547852 54.53930664 C-20.8590332 55.3449707 -20.85258789 56.15063477 -20.84594727 56.98071289 C-20.83547363 57.72434082 -20.825 58.46796875 -20.81420898 59.23413086 C-21.04125977 61.11352539 -21.04125977 61.11352539 -23.04125977 63.11352539 C-25.62190105 63.25850524 -28.09069861 63.30030084 -30.66625977 63.23852539 C-31.37266602 63.22950195 -32.07907227 63.22047852 -32.80688477 63.21118164 C-34.55182074 63.18760142 -36.29658272 63.15173 -38.04125977 63.11352539 C-37.71125977 62.12352539 -37.38125977 61.13352539 -37.04125977 60.11352539 C-35.27051059 60.0864681 -33.49964266 60.06710345 -31.72875977 60.05102539 C-30.24956055 60.03362305 -30.24956055 60.03362305 -28.74047852 60.01586914 C-26.04125977 60.11352539 -26.04125977 60.11352539 -23.04125977 61.11352539 C-23.04125977 54.84352539 -23.04125977 48.57352539 -23.04125977 42.11352539 C-25.02125977 42.11352539 -27.00125977 42.11352539 -29.04125977 42.11352539 C-29.04125977 41.45352539 -29.04125977 40.79352539 -29.04125977 40.11352539 C-27.06125977 40.11352539 -25.08125977 40.11352539 -23.04125977 40.11352539 C-23.20625977 39.61852539 -23.37125977 39.12352539 -23.54125977 38.61352539 C-24.68494176 32.8951154 -23.99187778 27.8172335 -23.04125977 22.11352539 C-29.31125977 22.11352539 -35.58125977 22.11352539 -42.04125977 22.11352539 C-42.04125977 21.45352539 -42.04125977 20.79352539 -42.04125977 20.11352539 C-35.44125977 20.11352539 -28.84125977 20.11352539 -22.04125977 20.11352539 C-20.89299127 22.41006239 -20.92564802 23.69665706 -20.94360352 26.24633789 C-20.94610107 26.97224121 -20.94859863 27.69814453 -20.95117188 28.44604492 C-20.96027588 29.36756348 -20.96937988 30.28908203 -20.97875977 31.23852539 C-20.99938477 34.16727539 -21.02000977 37.09602539 -21.04125977 40.11352539 C-15.10125977 40.11352539 -9.16125977 40.11352539 -3.04125977 40.11352539 C-3.05286133 37.30981445 -3.06446289 34.50610352 -3.07641602 31.61743164 C-3.0842061 28.91357537 -3.09028314 26.20972033 -3.09619141 23.50585938 C-3.10123221 21.62108809 -3.10806475 19.73632074 -3.11669922 17.8515625 C-3.12877594 15.14850903 -3.13449045 12.44550708 -3.13891602 9.74243164 C-3.1440773 8.89451553 -3.14923859 8.04659943 -3.15455627 7.17298889 C-3.15475171 5.15281471 -3.10332187 3.13274605 -3.04125977 1.11352539 C-2.04125977 0.11352539 -2.04125977 0.11352539 0 0 Z " fill="#183BC0" transform="translate(186.041259765625,142.886474609375)"/>
<path d="M0 0 C0 6.27 0 12.54 0 19 C-1.65 19.33 -3.3 19.66 -5 20 C-5.33 20.66 -5.66 21.32 -6 22 C-11.42372238 22.22137642 -14.52413817 21.56453195 -20 20 C-19.505 11.09 -19.505 11.09 -19 2 C-16.793125 1.67 -14.58625 1.34 -12.3125 1 C-10.45044922 0.7215625 -10.45044922 0.7215625 -8.55078125 0.4375 C-5 0 -5 0 0 0 Z " fill="#0537F6" transform="translate(61,41)"/>
<path d="M0 0 C0.66 0 1.32 0 2 0 C2 12.87 2 25.74 2 39 C9.92 38.505 9.92 38.505 18 38 C18.9964816 33.01759198 19.32258993 28.22645121 19.51757812 23.17578125 C19.60837907 21.44542358 19.79644894 19.72074096 20 18 C23.45996218 16.27001891 27.46143975 16.85893259 31.26953125 16.8671875 C32.71601799 16.86520859 32.71601799 16.86520859 34.19172668 16.8631897 C37.3986822 16.86125032 40.60555309 16.86767483 43.8125 16.875 C44.90592712 16.87588623 45.99935425 16.87677246 47.12591553 16.87768555 C73.08956588 16.9021969 99.04386323 17.411925 125 18 C125.495 18.99 125.495 18.99 126 20 C115.11 19.505 115.11 19.505 104 19 C104 19.66 104 20.32 104 21 C100.37501666 21.02893932 96.75006287 21.04677792 93.125 21.0625 C91.57619141 21.07506836 91.57619141 21.07506836 89.99609375 21.08789062 C89.00996094 21.09111328 88.02382812 21.09433594 87.0078125 21.09765625 C85.64100342 21.10551147 85.64100342 21.10551147 84.24658203 21.11352539 C82 21 82 21 80 20 C78.12155092 19.88017743 76.23899169 19.82270839 74.35693359 19.79467773 C73.17586029 19.77473251 71.99478699 19.75478729 70.77792358 19.73423767 C68.85757797 19.70916893 68.85757797 19.70916893 66.8984375 19.68359375 C65.59170074 19.66281265 64.28496399 19.64203156 62.93862915 19.62062073 C59.463311 19.56540706 55.98793347 19.51599475 52.51251221 19.46777344 C48.966621 19.41755323 45.4208161 19.36186988 41.875 19.30664062 C34.9167415 19.19906772 27.95840504 19.09762083 21 19 C21.00785522 19.93851807 21.00785522 19.93851807 21.01586914 20.89599609 C21.03661618 23.72232057 21.04965286 26.54862905 21.0625 29.375 C21.07087891 30.35984375 21.07925781 31.3446875 21.08789062 32.359375 C21.09272461 33.77089844 21.09272461 33.77089844 21.09765625 35.2109375 C21.10551147 36.51490479 21.10551147 36.51490479 21.11352539 37.84521484 C21 40 21 40 20 42 C16.85418577 42.02888514 13.70840531 42.04675923 10.5625 42.0625 C9.66466797 42.07087891 8.76683594 42.07925781 7.84179688 42.08789062 C6.56079102 42.09272461 6.56079102 42.09272461 5.25390625 42.09765625 C4.46314697 42.10289307 3.6723877 42.10812988 2.85766602 42.11352539 C1 42 1 42 0 41 C-0.08871273 37.97022196 -0.1151935 34.96332978 -0.09765625 31.93359375 C-0.0962413 31.02497086 -0.09482635 30.11634796 -0.09336853 29.18019104 C-0.08775193 26.26592779 -0.07519665 23.35174019 -0.0625 20.4375 C-0.05748714 18.46679798 -0.05292386 16.49609476 -0.04882812 14.52539062 C-0.03777711 9.68356441 -0.02050138 4.84179505 0 0 Z " fill="#0A30D4" transform="translate(40,144)"/>
<path d="M0 0 C0.93779297 0.00322266 1.87558594 0.00644531 2.84179688 0.00976562 C4.30649414 0.02233398 4.30649414 0.02233398 5.80078125 0.03515625 C6.78884766 0.03966797 7.77691406 0.04417969 8.79492188 0.04882812 C11.23443599 0.06061322 13.67382814 0.07706614 16.11328125 0.09765625 C16.88562364 2.84265468 17.24135804 5.28784892 17.24609375 8.13671875 C17.24802734 9.25433594 17.24802734 9.25433594 17.25 10.39453125 C17.24613281 11.1628125 17.24226563 11.93109375 17.23828125 12.72265625 C17.24408203 13.88667969 17.24408203 13.88667969 17.25 15.07421875 C17.23998258 20.84425359 17.23998258 20.84425359 16.11328125 23.09765625 C9.84328125 23.09765625 3.57328125 23.09765625 -2.88671875 23.09765625 C-3.21671875 29.03765625 -3.54671875 34.97765625 -3.88671875 41.09765625 C2.05328125 41.09765625 7.99328125 41.09765625 14.11328125 41.09765625 C14.11328125 41.42765625 14.11328125 41.75765625 14.11328125 42.09765625 C7.51328125 42.09765625 0.91328125 42.09765625 -5.88671875 42.09765625 C-6.21671875 36.15765625 -6.54671875 30.21765625 -6.88671875 24.09765625 C-7.87671875 23.76765625 -8.86671875 23.43765625 -9.88671875 23.09765625 C-9.39171875 21.61265625 -9.39171875 21.61265625 -8.88671875 20.09765625 C-7.89671875 20.09765625 -6.90671875 20.09765625 -5.88671875 20.09765625 C-6.05171875 19.57429688 -6.21671875 19.0509375 -6.38671875 18.51171875 C-7.02071725 15.45069473 -6.94312436 12.59611692 -6.88671875 9.47265625 C-6.65049926 5.12431636 -6.65049926 5.12431636 -7.88671875 1.09765625 C-4.94539984 0.11721661 -3.0617021 -0.01855577 0 0 Z M-3.88671875 3.09765625 C-3.88671875 9.03765625 -3.88671875 14.97765625 -3.88671875 21.09765625 C-0.97859375 21.12859375 -0.97859375 21.12859375 1.98828125 21.16015625 C3.07882813 21.17175781 4.169375 21.18335937 5.29296875 21.1953125 C8.06505671 21.29509928 8.06505671 21.29509928 10.11328125 20.09765625 C11.43328125 20.09765625 12.75328125 20.09765625 14.11328125 20.09765625 C14.11328125 14.15765625 14.11328125 8.21765625 14.11328125 2.09765625 C11.51453125 2.07703125 8.91578125 2.05640625 6.23828125 2.03515625 C5.01262451 2.02150024 5.01262451 2.02150024 3.76220703 2.00756836 C-0.19038001 1.90614984 -0.19038001 1.90614984 -3.88671875 3.09765625 Z " fill="#1638B3" transform="translate(168.88671875,39.90234375)"/>
<path d="M0 0 C19.47 0 38.94 0 59 0 C59 0.66 59 1.32 59 2 C39.86 2 20.72 2 1 2 C1.33 7.61 1.66 13.22 2 19 C3.82144531 18.98839844 5.64289063 18.97679687 7.51953125 18.96484375 C9.9505198 18.95545769 12.38150947 18.94635837 14.8125 18.9375 C16.6059082 18.92493164 16.6059082 18.92493164 18.43554688 18.91210938 C25.68507559 18.89235589 32.79538651 19.18206935 40 20 C40 20.99 40 21.98 40 23 C39.34 23 38.68 23 38 23 C37.67 23.66 37.34 24.32 37 25 C37 24.01 37 23.02 37 22 C35.92105469 22.01160156 34.84210938 22.02320313 33.73046875 22.03515625 C22.44333497 22.11648664 11.26853189 21.67274817 0 21 C0 14.07 0 7.14 0 0 Z " fill="#223EBD" transform="translate(61,163)"/>
<path d="M0 0 C0.19601608 1.74906659 0.38147403 3.49931846 0.5625 5.25 C0.66691406 6.22453125 0.77132812 7.1990625 0.87890625 8.203125 C0.98974468 10.7631352 0.77738092 12.58148159 0 15 C0.99 15.33 1.98 15.66 3 16 C3 17.98 3 19.96 3 22 C2.67 21.01 2.34 20.02 2 19 C-1.00469351 21.59496258 -1.36858796 22.9214699 -3 27 C-9.93 26.67 -16.86 26.34 -24 26 C-24.061875 22.57625 -24.12375 19.1525 -24.1875 15.625 C-24.22846802 14.00779053 -24.22846802 14.00779053 -24.27026367 12.35791016 C-24.27775635 11.51019043 -24.28524902 10.6624707 -24.29296875 9.7890625 C-24.3086792 8.91975098 -24.32438965 8.05043945 -24.34057617 7.15478516 C-24.22818604 6.44370605 -24.1157959 5.73262695 -24 5 C-20.20836973 2.47224649 -17.19125969 2.77556965 -12.8125 2.875 C-12.06291016 2.88402344 -11.31332031 2.89304687 -10.54101562 2.90234375 C-8.69387346 2.92587422 -6.84689588 2.96174439 -5 3 C-4.67 2.34 -4.34 1.68 -4 1 C-1 0 -1 0 0 0 Z M-23 6 C-23.020625 8.949375 -23.04125 11.89875 -23.0625 14.9375 C-23.071604 15.86812256 -23.08070801 16.79874512 -23.09008789 17.75756836 C-23.09258545 18.48596924 -23.09508301 19.21437012 -23.09765625 19.96484375 C-23.10289307 20.7137085 -23.10812988 21.46257324 -23.11352539 22.23413086 C-23.19341752 24.02667739 -23.19341752 24.02667739 -22 25 C-20.65732587 25.08631874 -19.31025678 25.10706473 -17.96484375 25.09765625 C-16.87224243 25.09390991 -16.87224243 25.09390991 -15.75756836 25.09008789 C-14.36163452 25.07643188 -14.36163452 25.07643188 -12.9375 25.0625 C-9.988125 25.041875 -7.03875 25.02125 -4 25 C-4 18.73 -4 12.46 -4 6 C-10.27 6 -16.54 6 -23 6 Z " fill="#1039D3" transform="translate(85,97)"/>
<path d="M0 0 C1.34362885 0.00031689 2.68728332 0.01162897 4.03076172 0.03173828 C4.73820526 0.03456818 5.4456488 0.03739807 6.17453003 0.04031372 C8.43667432 0.05151941 10.69842437 0.07662399 12.96044922 0.10205078 C14.49299559 0.11208011 16.02554816 0.12120604 17.55810547 0.12939453 C21.31737223 0.15145992 25.07634386 0.18599183 28.83544922 0.22705078 C28.83544922 0.55705078 28.83544922 0.88705078 28.83544922 1.22705078 C17.89381765 3.76424071 6.99811074 3.43097799 -4.16455078 3.22705078 C-4.02401206 5.85243362 -3.87736131 8.47722505 -3.72705078 11.10205078 C-3.68773438 11.84841797 -3.64841797 12.59478516 -3.60791016 13.36376953 C-3.44881455 17.42691942 -3.44881455 17.42691942 -2.16455078 21.22705078 C-1.50455078 20.23705078 -0.84455078 19.24705078 -0.16455078 18.22705078 C0.82544922 18.88705078 1.81544922 19.54705078 2.83544922 20.22705078 C6.08887046 20.54305638 9.29793153 20.69031695 12.56201172 20.79345703 C14.32397914 20.87260791 16.08135004 21.04284944 17.83544922 21.22705078 C18.16544922 21.88705078 18.49544922 22.54705078 18.83544922 23.22705078 C11.14940448 24.19865012 3.57681523 24.336255 -4.16455078 24.22705078 C-6.21710923 19.20617703 -6.33057724 15.25961936 -5.91455078 9.97705078 C-5.85460937 8.89810547 -5.85460937 8.89810547 -5.79345703 7.79736328 C-5.27943603 0.37878996 -5.27943603 0.37878996 0 0 Z " fill="#153DBD" transform="translate(127.16455078125,181.77294921875)"/>
<path d="M0 0 C0.80179688 0.00451172 1.60359375 0.00902344 2.4296875 0.01367188 C4.41149006 0.02546832 6.39325433 0.04340395 8.375 0.0625 C8.375 0.3925 8.375 0.7225 8.375 1.0625 C6.580625 1.248125 6.580625 1.248125 4.75 1.4375 C1.09903187 1.88575054 -2.17024899 2.76696837 -5.625 4.0625 C-5.604375 5.361875 -5.58375 6.66125 -5.5625 8 C-5.54100546 9.35415633 -5.55351801 10.71006083 -5.625 12.0625 C-5.955 12.3925 -6.285 12.7225 -6.625 13.0625 C-6.93023962 17.71338715 -6.93023962 17.71338715 -5.625 22.0625 C-6.285 22.0625 -6.945 22.0625 -7.625 22.0625 C-7.625 23.3825 -7.625 24.7025 -7.625 26.0625 C-8.285 26.0625 -8.945 26.0625 -9.625 26.0625 C-9.955 25.4025 -10.285 24.7425 -10.625 24.0625 C-16.895 24.0625 -23.165 24.0625 -29.625 24.0625 C-29.625 23.0725 -29.625 22.0825 -29.625 21.0625 C-23.355 21.0625 -17.085 21.0625 -10.625 21.0625 C-10.625 14.4625 -10.625 7.8625 -10.625 1.0625 C-7.31505287 -0.59247356 -3.63377 -0.03834335 0 0 Z " fill="#113CD8" transform="translate(29.625,100.9375)"/>
<path d="M0 0 C0.85078125 0.04833984 1.7015625 0.09667969 2.578125 0.14648438 C3.46757812 0.20255859 4.35703125 0.25863281 5.2734375 0.31640625 C6.170625 0.36861328 7.0678125 0.42082031 7.9921875 0.47460938 C10.21127762 0.60444975 12.42993621 0.73941964 14.6484375 0.87890625 C14.6484375 1.53890625 14.6484375 2.19890625 14.6484375 2.87890625 C8.3784375 2.87890625 2.1084375 2.87890625 -4.3515625 2.87890625 C-4.279375 4.33039063 -4.2071875 5.781875 -4.1328125 7.27734375 C-3.54978506 19.48974214 -3.21419441 31.65314666 -3.3515625 43.87890625 C-8.03841051 45.14689118 -12.38451187 44.78995688 -17.1640625 44.44140625 C-18.34645508 44.3630957 -18.34645508 44.3630957 -19.55273438 44.28320312 C-21.48607779 44.15431356 -23.41888414 44.01741131 -25.3515625 43.87890625 C-25.3515625 43.54890625 -25.3515625 43.21890625 -25.3515625 42.87890625 C-19.0815625 42.87890625 -12.8115625 42.87890625 -6.3515625 42.87890625 C-6.3515625 29.01890625 -6.3515625 15.15890625 -6.3515625 0.87890625 C-3.94721244 -0.32326878 -2.66774881 -0.16006493 0 0 Z " fill="#1034C7" transform="translate(25.3515625,141.12109375)"/>
<path d="M0 0 C0.87454834 0.00523682 1.74909668 0.01047363 2.65014648 0.01586914 C3.59438477 0.0190918 4.53862305 0.02231445 5.51147461 0.02563477 C6.50469727 0.03401367 7.49791992 0.04239258 8.52124023 0.05102539 C9.51833008 0.05553711 10.51541992 0.06004883 11.54272461 0.06469727 C14.01478872 0.07652532 16.48673541 0.0930069 18.95874023 0.11352539 C20.10700873 2.41006239 20.07435198 3.69665706 20.05639648 6.24633789 C20.05317383 7.05200195 20.04995117 7.85766602 20.04663086 8.68774414 C20.03825195 9.52950195 20.02987305 10.37125977 20.02124023 11.23852539 C20.01672852 12.08801758 20.0122168 12.93750977 20.00756836 13.81274414 C19.99576898 15.91303448 19.9778333 18.01328869 19.95874023 20.11352539 C22.59874023 20.11352539 25.23874023 20.11352539 27.95874023 20.11352539 C27.95874023 20.77352539 27.95874023 21.43352539 27.95874023 22.11352539 C24.98874023 22.11352539 22.01874023 22.11352539 18.95874023 22.11352539 C18.62874023 27.39352539 18.29874023 32.67352539 17.95874023 38.11352539 C17.62874023 38.11352539 17.29874023 38.11352539 16.95874023 38.11352539 C16.95874023 33.16352539 16.95874023 28.21352539 16.95874023 23.11352539 C15.63874023 22.45352539 14.31874023 21.79352539 12.95874023 21.11352539 C14.27874023 20.78352539 15.59874023 20.45352539 16.95874023 20.11352539 C17.28874023 13.84352539 17.61874023 7.57352539 17.95874023 1.11352539 C14.47566732 1.63435872 10.9925944 2.15519206 7.50952148 2.67602539 C4.59987652 3.0345295 1.88174001 3.20294795 -1.04125977 3.11352539 C-1.0296582 3.99395508 -1.01805664 4.87438477 -1.00610352 5.78149414 C-0.99256836 7.52366211 -0.99256836 7.52366211 -0.97875977 9.30102539 C-0.9671582 10.44958008 -0.95555664 11.59813477 -0.94360352 12.78149414 C-1.02933145 15.70653125 -1.36276954 18.2766883 -2.04125977 21.11352539 C-0.06125977 21.11352539 1.91874023 21.11352539 3.95874023 21.11352539 C4.28874023 21.77352539 4.61874023 22.43352539 4.95874023 23.11352539 C2.62579248 23.15594262 0.29171457 23.15445476 -2.04125977 23.11352539 C-3.66326491 21.49152024 -3.17116727 19.69329509 -3.17407227 17.45727539 C-3.17536133 16.51754883 -3.17665039 15.57782227 -3.17797852 14.60961914 C-3.17411133 13.6209082 -3.17024414 12.63219727 -3.16625977 11.61352539 C-3.17012695 10.62481445 -3.17399414 9.63610352 -3.17797852 8.61743164 C-3.17668945 7.67770508 -3.17540039 6.73797852 -3.17407227 5.76977539 C-3.17294434 4.9015918 -3.17181641 4.0334082 -3.1706543 3.13891602 C-2.99464835 0.38392477 -2.75766937 0.15336877 0 0 Z " fill="#1635B2" transform="translate(43.041259765625,39.886474609375)"/>
<path d="M0 0 C1.65 0 3.3 0 5 0 C5 0.66 5 1.32 5 2 C6.98 2 8.96 2 11 2 C10.67 2.66 10.34 3.32 10 4 C4.72 4 -0.56 4 -6 4 C-7.58482571 7.16965142 -7.37852823 10.63744541 -7.5625 14.125 C-7.706875 16.72375 -7.85125 19.3225 -8 22 C-18.395 22.495 -18.395 22.495 -29 23 C-29 28.94 -29 34.88 -29 41 C-29.66 41 -30.32 41 -31 41 C-31.05791844 37.87507749 -31.09356746 34.75029234 -31.125 31.625 C-31.14175781 30.73554687 -31.15851562 29.84609375 -31.17578125 28.9296875 C-31.18222656 28.07890625 -31.18867187 27.228125 -31.1953125 26.3515625 C-31.20578613 25.56604004 -31.21625977 24.78051758 -31.22705078 23.97119141 C-31 22 -31 22 -29 20 C-27.12060547 19.77294922 -27.12060547 19.77294922 -24.8671875 19.8046875 C-23.77833252 19.81218018 -23.77833252 19.81218018 -22.66748047 19.81982422 C-21.28520264 19.84713623 -21.28520264 19.84713623 -19.875 19.875 C-16.94625 19.91625 -14.0175 19.9575 -11 20 C-10.34 14.06 -9.68 8.12 -9 2 C-6.03 2 -3.06 2 0 2 C0 1.34 0 0.68 0 0 Z " fill="#0936E7" transform="translate(71,60)"/>
<path d="M0 0 C6.27 0 12.54 0 19 0 C17 2 17 2 13.5234375 2.1953125 C12.14047367 2.18387695 10.75761943 2.15791258 9.375 2.125 C5.724375 2.063125 5.724375 2.063125 2 2 C1.67 7.94 1.34 13.88 1 20 C2.464375 19.814375 3.92875 19.62875 5.4375 19.4375 C10.48564755 18.91900268 14.98740146 19.27236473 20 20 C19.67 16.37 19.34 12.74 19 9 C19.99 9 20.98 9 22 9 C22 14.61 22 20.22 22 26 C21.01 26 20.02 26 19 26 C19 24.68 19 23.36 19 22 C17.72125 22.185625 16.4425 22.37125 15.125 22.5625 C11.25 23.125 11.25 23.125 9 22 C6.03 21.67 3.06 21.34 0 21 C0 14.07 0 7.14 0 0 Z " fill="#123BC8" transform="translate(143,102)"/>
<path d="M0 0 C0.33 0 0.66 0 1 0 C1.33 5.61 1.66 11.22 2 17 C3.82144531 16.98839844 5.64289063 16.97679687 7.51953125 16.96484375 C9.9505198 16.95545769 12.38150947 16.94635837 14.8125 16.9375 C16.6059082 16.92493164 16.6059082 16.92493164 18.43554688 16.91210938 C25.68507559 16.89235589 32.79538651 17.18206935 40 18 C40 18.99 40 19.98 40 21 C39.34 21 38.68 21 38 21 C37.67 21.66 37.34 22.32 37 23 C37 22.01 37 21.02 37 20 C35.92105469 20.01160156 34.84210938 20.02320313 33.73046875 20.03515625 C22.44333497 20.11648664 11.26853189 19.67274817 0 19 C0 12.73 0 6.46 0 0 Z " fill="#133ABF" transform="translate(61,165)"/>
<path d="M0 0 C2.53541298 0.09086451 5.03554784 0.2370945 7.5625 0.4375 C8.62887695 0.51581055 8.62887695 0.51581055 9.71679688 0.59570312 C11.47821999 0.72574107 13.23916173 0.86226897 15 1 C15 1.66 15 2.32 15 3 C13.95199219 3.09087891 13.95199219 3.09087891 12.8828125 3.18359375 C11.97273437 3.26738281 11.06265625 3.35117187 10.125 3.4375 C9.22007812 3.51871094 8.31515625 3.59992187 7.3828125 3.68359375 C4.98889139 3.86989285 4.98889139 3.86989285 3 5 C2.67 10.61 2.34 16.22 2 22 C1.01 22 0.02 22 -1 22 C-1.02887814 18.52085059 -1.04675687 15.04173169 -1.0625 11.5625 C-1.07087891 10.56927734 -1.07925781 9.57605469 -1.08789062 8.55273438 C-1.09111328 7.60849609 -1.09433594 6.66425781 -1.09765625 5.69140625 C-1.10289307 4.81685791 -1.10812988 3.94230957 -1.11352539 3.04125977 C-1 1 -1 1 0 0 Z " fill="#0B36DB" transform="translate(143,60)"/>
<path d="M0 0 C6.93 0 13.86 0 21 0 C21.33 1.32 21.66 2.64 22 4 C21.67 4.33 21.34 4.66 21 5 C20.76321284 7.69235776 20.57801975 10.36498156 20.4375 13.0625 C20.39431641 13.82111328 20.35113281 14.57972656 20.30664062 15.36132812 C20.20026367 17.24065438 20.09960066 19.12030244 20 21 C17.69 21 15.38 21 13 21 C13.66 20.34 14.32 19.68 15 19 C16.32 19.33 17.64 19.66 19 20 C19 14.06 19 8.12 19 2 C13.06 2.33 7.12 2.66 1 3 C1 7.29 1 11.58 1 16 C0.67 16 0.34 16 0 16 C0 10.72 0 5.44 0 0 Z " fill="#0C2EC8" transform="translate(164,40)"/>
<path d="M0 0 C0.33 0 0.66 0 1 0 C1 6.27 1 12.54 1 19 C7.27 19.33 13.54 19.66 20 20 C20 20.66 20 21.32 20 22 C16.52125243 22.19590444 13.04199096 22.38031592 9.5625 22.5625 C8.56927734 22.61857422 7.57605469 22.67464844 6.55273438 22.73242188 C5.60849609 22.78076172 4.66425781 22.82910156 3.69140625 22.87890625 C2.81685791 22.9260376 1.94230957 22.97316895 1.04125977 23.02172852 C-1 23 -1 23 -2 22 C-2.53563594 14.43881354 -1.8180258 7.33703271 0 0 Z " fill="#163CD4" transform="translate(205,102)"/>
<path d="M0 0 C6.6 0 13.2 0 20 0 C20 0.66 20 1.32 20 2 C10.595 2.495 10.595 2.495 1 3 C1 8.94 1 14.88 1 21 C0.34 21 -0.32 21 -1 21 C-1.02895976 17.87501937 -1.04678483 14.7500731 -1.0625 11.625 C-1.07087891 10.73554687 -1.07925781 9.84609375 -1.08789062 8.9296875 C-1.09111328 8.07890625 -1.09433594 7.228125 -1.09765625 6.3515625 C-1.10289307 5.56604004 -1.10812988 4.78051758 -1.11352539 3.97119141 C-1 2 -1 2 0 0 Z " fill="#1134BA" transform="translate(41,80)"/>
<path d="M0 0 C5.28 0 10.56 0 16 0 C16 0.33 16 0.66 16 1 C11.38 1.33 6.76 1.66 2 2 C2.020625 4.041875 2.04125 6.08375 2.0625 8.1875 C2.1039592 12.29196078 1.95619733 16.00204108 1 20 C2.98 20 4.96 20 7 20 C7.33 20.66 7.66 21.32 8 22 C5.66705225 22.04241723 3.33297433 22.04092937 1 22 C0 21 0 21 -0.11352539 18.95874023 C-0.10828857 18.08419189 -0.10305176 17.20964355 -0.09765625 16.30859375 C-0.09443359 15.36435547 -0.09121094 14.42011719 -0.08789062 13.44726562 C-0.07951172 12.45404297 -0.07113281 11.46082031 -0.0625 10.4375 C-0.05798828 9.44041016 -0.05347656 8.44332031 -0.04882812 7.41601562 C-0.03700023 4.94398513 -0.01906415 2.47198528 0 0 Z " fill="#0C2BC0" transform="translate(40,41)"/>
<path d="M0 0 C1.25425781 0.00902344 2.50851563 0.01804687 3.80078125 0.02734375 C4.75339844 0.03894531 5.70601562 0.05054687 6.6875 0.0625 C6.3575 0.7225 6.0275 1.3825 5.6875 2.0625 C2.3875 1.7325 -0.9125 1.4025 -4.3125 1.0625 C-4.9725 2.3825 -5.6325 3.7025 -6.3125 5.0625 C-7.6325 5.0625 -8.9525 5.0625 -10.3125 5.0625 C-10.3125 10.3425 -10.3125 15.6225 -10.3125 21.0625 C-11.3025 21.3925 -12.2925 21.7225 -13.3125 22.0625 C-12.9825 15.1325 -12.6525 8.2025 -12.3125 1.0625 C-7.95470019 0.19094004 -4.40503894 -0.04116859 0 0 Z " fill="#0733E9" transform="translate(54.3125,81.9375)"/>
<path d="M0 0 C0.33 0 0.66 0 1 0 C1 6.93 1 13.86 1 21 C7.27 21 13.54 21 20 21 C20 21.66 20 22.32 20 23 C17.04210873 23.2210949 14.08447236 23.42740245 11.125 23.625 C9.86236328 23.72167969 9.86236328 23.72167969 8.57421875 23.8203125 C7.36572266 23.89765625 7.36572266 23.89765625 6.1328125 23.9765625 C5.38918457 24.02893066 4.64555664 24.08129883 3.87939453 24.13525391 C2 24 2 24 0 22 C-0.22705078 19.75341797 -0.22705078 19.75341797 -0.1953125 16.9921875 C-0.18886719 16.00605469 -0.18242187 15.01992187 -0.17578125 14.00390625 C-0.15902344 12.97136719 -0.14226562 11.93882813 -0.125 10.875 C-0.11597656 9.83472656 -0.10695312 8.79445313 -0.09765625 7.72265625 C-0.07403747 5.14820908 -0.04110149 2.57421788 0 0 Z " fill="#1C3BBF" transform="translate(184,80)"/>
<path d="M0 0 C2.50298434 2.93828597 3.46930939 5.17902761 4 9 C3.34 9 2.68 9 2 9 C2 10.32 2 11.64 2 13 C0.68 13.33 -0.64 13.66 -2 14 C-1.67 10.7 -1.34 7.4 -1 4 C-6.94 4 -12.88 4 -19 4 C-19 3.67 -19 3.34 -19 3 C-13.39 3 -7.78 3 -2 3 C-1.67 2.34 -1.34 1.68 -1 1 C-0.67 0.67 -0.34 0.34 0 0 Z " fill="#072FE3" transform="translate(163,98)"/>
<path d="M0 0 C0.66 0.33 1.32 0.66 2 1 C2 7.93 2 14.86 2 22 C-1.27256768 22.81814192 -3.47993899 23.11871834 -6.765625 23.09765625 C-7.65507813 23.09443359 -8.54453125 23.09121094 -9.4609375 23.08789062 C-10.38132812 23.07951172 -11.30171875 23.07113281 -12.25 23.0625 C-13.18585938 23.05798828 -14.12171875 23.05347656 -15.0859375 23.04882812 C-17.39069041 23.03706918 -19.69531227 23.02063426 -22 23 C-19.08175756 21.33325679 -17.02405621 20.7567992 -13.671875 20.8046875 C-12.9509668 20.80968262 -12.23005859 20.81467773 -11.48730469 20.81982422 C-10.58399414 20.83803223 -9.68068359 20.85624023 -8.75 20.875 C-4.41875 20.936875 -4.41875 20.936875 0 21 C0 14.07 0 7.14 0 0 Z " fill="#183BBC" transform="translate(102,183)"/>
<path d="M0 0 C0.75216797 0.47953125 0.75216797 0.47953125 1.51953125 0.96875 C5.45566018 2.60518785 9.56980676 2.43264587 13.77539062 2.56640625 C15.52112932 2.64536788 17.26223979 2.81553329 19 3 C19.33 3.66 19.66 4.32 20 5 C13.30386804 5.797837 6.74233419 6.12910853 0 6 C-1.24546405 3.50907189 -0.7767578 2.58919267 0 0 Z " fill="#113CD2" transform="translate(126,200)"/>
<path d="M0 0 C0.66 0 1.32 0 2 0 C1.67 7.26 1.34 14.52 1 22 C0.34 22 -0.32 22 -1 22 C-1.02887814 18.52085059 -1.04675687 15.04173169 -1.0625 11.5625 C-1.07087891 10.56927734 -1.07925781 9.57605469 -1.08789062 8.55273438 C-1.09111328 7.60849609 -1.09433594 6.66425781 -1.09765625 5.69140625 C-1.10289307 4.81685791 -1.10812988 3.94230957 -1.11352539 3.04125977 C-1 1 -1 1 0 0 Z " fill="#0F35C2" transform="translate(143,60)"/>
<path d="M0 0 C1.35015859 4.05047576 0.62084998 6.7920168 0 11 C-0.33 10.34 -0.66 9.68 -1 9 C-1.99 9 -2.98 9 -4 9 C-4 7.02 -4 5.04 -4 3 C-7.63 3 -11.26 3 -15 3 C-15 2.67 -15 2.34 -15 2 C-10.05 2 -5.1 2 0 2 C0 1.34 0 0.68 0 0 Z " fill="#0633EC" transform="translate(204,101)"/>
<path d="M0 0 C0.33 0 0.66 0 1 0 C0.98259766 1.42892578 0.98259766 1.42892578 0.96484375 2.88671875 C0.95582031 4.14097656 0.94679688 5.39523438 0.9375 6.6875 C0.92589844 7.92886719 0.91429688 9.17023438 0.90234375 10.44921875 C0.88494975 13.90537913 0.88494975 13.90537913 1.62890625 16.83203125 C1.75136719 17.54746094 1.87382813 18.26289062 2 19 C1.34 19.66 0.68 20.32 0 21 C-2.4294516 17.3558226 -2.16179575 15.28758728 -2 11 C-1.34 11 -0.68 11 0 11 C0 7.37 0 3.74 0 0 Z " fill="#0728DD" transform="translate(82,101)"/>
<path d="M0 0 C1.65 0 3.3 0 5 0 C5 0.66 5 1.32 5 2 C6.98 2 8.96 2 11 2 C10.67 2.66 10.34 3.32 10 4 C4.06 3.67 -1.88 3.34 -8 3 C-8.33 3.66 -8.66 4.32 -9 5 C-9 4.01 -9 3.02 -9 2 C-6.03 2 -3.06 2 0 2 C0 1.34 0 0.68 0 0 Z " fill="#082AD5" transform="translate(71,60)"/>
<path d="M0 0 C0.66 0 1.32 0 2 0 C2 1.32 2 2.64 2 4 C6.95 4 11.9 4 17 4 C17 4.33 17 4.66 17 5 C9.08 5.495 9.08 5.495 1 6 C0 1 0 1 0 0 Z " fill="#1435B8" transform="translate(60,200)"/>
<path d="M0 0 C0.99 0 1.98 0 3 0 C3 1.32 3 2.64 3 4 C2.34 4 1.68 4 1 4 C1 5.32 1 6.64 1 8 C4.3 8 7.6 8 11 8 C11 8.33 11 8.66 11 9 C7.37 9 3.74 9 0 9 C0 6.03 0 3.06 0 0 Z " fill="#0334EA" transform="translate(165,52)"/>
<path d="M0 0 C0.33 0 0.66 0 1 0 C1 4.95 1 9.9 1 15 C-2.375 10.5 -2.375 10.5 -2 6 C-1.67 6 -1.34 6 -1 6 C-0.67 4.02 -0.34 2.04 0 0 Z " fill="#0429D5" transform="translate(164,165)"/>
<path d="M0 0 C-1.32 0 -2.64 0 -4 0 C-4.33 0.66 -4.66 1.32 -5 2 C-7.31 2 -9.62 2 -12 2 C-12 1.01 -12 0.02 -12 -1 C-3.42857143 -2.42857143 -3.42857143 -2.42857143 0 0 Z " fill="#0A2FDA" transform="translate(60,61)"/>
<path d="M0 0 C3.63 0 7.26 0 11 0 C11 0.33 11 0.66 11 1 C9.02 1 7.04 1 5 1 C5 1.66 5 2.32 5 3 C3.02 3 1.04 3 -1 3 C-0.67 2.01 -0.34 1.02 0 0 Z " fill="#103FD3" transform="translate(149,203)"/>
<path d="M0 0 C1.98 0 3.96 0 6 0 C6 0.66 6 1.32 6 2 C5.34 2 4.68 2 4 2 C4 2.66 4 3.32 4 4 C3.34 4 2.68 4 2 4 C2 4.66 2 5.32 2 6 C1.34 5.67 0.68 5.34 0 5 C0 3.33333333 0 1.66666667 0 0 Z " fill="#0434EC" transform="translate(136,82)"/>
<path d="M0 0 C0 0.66 0 1.32 0 2 C-6.0546875 2.1953125 -6.0546875 2.1953125 -8 2 C-8.66 1.34 -9.32 0.68 -10 0 C-2.25 -1.125 -2.25 -1.125 0 0 Z " fill="#0B36DF" transform="translate(40,102)"/>
<path d="M0 0 C3.3 0 6.6 0 10 0 C9.01 1.485 9.01 1.485 8 3 C4.92463146 2.34099246 2.92264434 1.46132217 0 0 Z " fill="#0239E9" transform="translate(76,185)"/>
<path d="M0 0 C0.33 0 0.66 0 1 0 C1 2.31 1 4.62 1 7 C0.01 7 -0.98 7 -2 7 C-2.125 4.625 -2.125 4.625 -2 2 C-1.34 1.34 -0.68 0.68 0 0 Z " fill="#0935F0" transform="translate(182,176)"/>
<path d="M0 0 C2.97 0.33 5.94 0.66 9 1 C5.71299843 2.64350079 3.52069985 3.41321669 0 4 C0 2.68 0 1.36 0 0 Z " fill="#0335EF" transform="translate(164,82)"/>
<path d="" fill="#000000" transform="translate(0,0)"/>
<path d="" fill="#000000" transform="translate(0,0)"/>
<path d="" fill="#000000" transform="translate(0,0)"/>
</svg>
