<?xml version="1.0" encoding="UTF-8"?>
<svg version="1.1" xmlns="http://www.w3.org/2000/svg" width="539" height="463">
<path d="M0 0 C84.81 0 169.62 0 257 0 C257 8.58 257 17.16 257 26 C273.83 26 290.66 26 308 26 C308 34.25 308 42.5 308 51 C311.96 51 315.92 51 320 51 C326.93 51.495 326.93 51.495 334 52 C334 94.24 334 136.48 334 180 C321.625 180.495 321.625 180.495 309 181 C308.67 189.25 308.34 197.5 308 206 C291.17 206 274.34 206 257 206 C257 214.58 257 223.16 257 232 C231.59 232 206.18 232 180 232 C180 248.83 180 265.66 180 283 C188.25 283 196.5 283 205 283 C204.9604086 274.81747203 204.9604086 274.81747203 204.90991211 266.63500977 C204.90616577 265.11605103 204.90616577 265.11605103 204.90234375 263.56640625 C204.89448853 262.00321655 204.89448853 262.00321655 204.88647461 260.40844727 C205 258 205 258 206 257 C208.37300869 256.90505267 210.71678703 256.87440681 213.09008789 256.88647461 C213.83150528 256.88632858 214.57292267 256.88618256 215.33680725 256.8860321 C217.79878621 256.88673135 220.26069043 256.89452426 222.72265625 256.90234375 C224.42516539 256.90420789 226.12767507 256.90563181 227.83018494 256.90663147 C232.31993073 256.91045698 236.80964438 256.92028753 241.29937744 256.93133545 C245.87731491 256.94154887 250.45525756 256.94612894 255.03320312 256.95117188 C264.02214957 256.96190978 273.01107212 256.97898659 282 257 C281.99214478 255.8718689 281.99214478 255.8718689 281.98413086 254.72094727 C281.96342773 251.33480658 281.95036123 247.94867916 281.9375 244.5625 C281.92912109 243.37849609 281.92074219 242.19449219 281.91210938 240.97460938 C281.90888672 239.84990234 281.90566406 238.72519531 281.90234375 237.56640625 C281.89448853 236.00321655 281.89448853 236.00321655 281.88647461 234.40844727 C282 232 282 232 283 231 C284.55999048 230.90153033 286.12440544 230.87201382 287.6875 230.87060547 C288.68523437 230.86745331 289.68296875 230.86430115 290.7109375 230.86105347 C291.79632813 230.8630777 292.88171875 230.86510193 294 230.8671875 C295.65902344 230.86575241 295.65902344 230.86575241 297.3515625 230.86428833 C299.69531308 230.86360633 302.03906553 230.86546196 304.3828125 230.86962891 C307.98441788 230.87497686 311.58589853 230.86968453 315.1875 230.86328125 C317.45833361 230.86394203 319.72916714 230.86522318 322 230.8671875 C323.08539063 230.86516327 324.17078125 230.86313904 325.2890625 230.86105347 C326.28679687 230.86420563 327.28453125 230.86735779 328.3125 230.87060547 C329.19550781 230.87140106 330.07851563 230.87219666 330.98828125 230.87301636 C333 231 333 231 334 232 C334.08737645 233.85369611 334.10698153 235.71067541 334.09765625 237.56640625 C334.09443359 238.69111328 334.09121094 239.81582031 334.08789062 240.97460938 C334.07951172 242.15861328 334.07113281 243.34261719 334.0625 244.5625 C334.05798828 245.75037109 334.05347656 246.93824219 334.04882812 248.16210938 C334.03699675 251.10812226 334.02051287 254.05403681 334 257 C335.1281311 256.99214478 335.1281311 256.99214478 336.27905273 256.98413086 C339.66519342 256.96342773 343.05132084 256.95036123 346.4375 256.9375 C347.62150391 256.92912109 348.80550781 256.92074219 350.02539062 256.91210938 C351.15009766 256.90888672 352.27480469 256.90566406 353.43359375 256.90234375 C354.47572021 256.89710693 355.51784668 256.89187012 356.59155273 256.88647461 C359 257 359 257 360 258 C360.10023555 260.33714325 360.13619203 262.64474325 360.12939453 264.98242188 C360.13202301 266.07750816 360.13202301 266.07750816 360.13470459 267.19471741 C360.13912299 269.61941878 360.13618517 272.04404782 360.1328125 274.46875 C360.13348554 276.14644383 360.13445557 277.82413756 360.13571167 279.50183105 C360.13718863 283.02255174 360.13503416 286.5432471 360.13037109 290.06396484 C360.1246738 294.58710496 360.12795282 299.11018574 360.13394356 303.63332367 C360.13754923 307.09902395 360.13641056 310.56471007 360.13381577 314.03041077 C360.13314651 315.69865425 360.13397486 317.36689899 360.13629532 319.03514099 C360.13882195 321.36265494 360.13498113 323.69007148 360.12939453 326.01757812 C360.13141876 326.71371719 360.13344299 327.40985626 360.13552856 328.12709045 C360.11426274 332.88573726 360.11426274 332.88573726 359 334 C357.14630389 334.08737645 355.28932459 334.10698153 353.43359375 334.09765625 C351.91463501 334.09390991 351.91463501 334.09390991 350.36499023 334.09008789 C349.06891846 334.08098389 347.77284668 334.07187988 346.4375 334.0625 C342.333125 334.041875 338.22875 334.02125 334 334 C334 342.58 334 351.16 334 360 C325.42 360 316.84 360 308 360 C308.0395914 368.18252797 308.0395914 368.18252797 308.09008789 376.36499023 C308.09383423 377.88394897 308.09383423 377.88394897 308.09765625 379.43359375 C308.10551147 380.99678345 308.10551147 380.99678345 308.11352539 382.59155273 C308 385 308 385 307 386 C304.62699131 386.09494733 302.28321297 386.12559319 299.90991211 386.11352539 C299.16849472 386.11367142 298.42707733 386.11381744 297.66319275 386.1139679 C295.20121379 386.11326865 292.73930957 386.10547574 290.27734375 386.09765625 C288.57483461 386.09579211 286.87232493 386.09436819 285.16981506 386.09336853 C280.68006927 386.08954302 276.19035562 386.07971247 271.70062256 386.06866455 C267.12268509 386.05845113 262.54474244 386.05387106 257.96679688 386.04882812 C248.97784816 386.03809022 239.98893178 386.02049316 231 386 C231 394.25 231 402.5 231 411 C204.56665916 411.15356212 178.13329461 411.30181104 151.69988441 411.4429636 C139.42718453 411.50863364 127.1545005 411.57620147 114.88183594 411.64819336 C104.18853144 411.7109159 93.49521434 411.77012218 82.80186689 411.82505554 C77.13663667 411.85428283 71.47142879 411.8853051 65.80623245 411.92053413 C60.47940745 411.95360355 55.1525785 411.98198921 49.82570839 412.00670624 C47.865669 412.01664056 45.90563759 412.02831952 43.94561958 412.04183006 C41.27947004 412.05995295 38.61336336 412.07192617 35.94717407 412.08229065 C35.16313725 412.08909444 34.37910043 412.09589823 33.57130492 412.10290819 C28.22824242 412.11412121 28.22824242 412.11412121 26 411 C26 402.75 26 394.5 26 386 C0.59 386 -24.82 386 -51 386 C-51 377.42 -51 368.84 -51 360 C-59.58 360 -68.16 360 -77 360 C-77 351.42 -77 342.84 -77 334 C-85.18252797 334.0395914 -85.18252797 334.0395914 -93.36499023 334.09008789 C-94.88394897 334.09383423 -94.88394897 334.09383423 -96.43359375 334.09765625 C-97.99678345 334.10551147 -97.99678345 334.10551147 -99.59155273 334.11352539 C-102 334 -102 334 -103 333 C-103.10023555 330.66285675 -103.13619203 328.35525675 -103.12939453 326.01757812 C-103.13114685 325.2875206 -103.13289917 324.55746307 -103.13470459 323.80528259 C-103.13912299 321.38058122 -103.13618517 318.95595218 -103.1328125 316.53125 C-103.13348554 314.85355617 -103.13445557 313.17586244 -103.13571167 311.49816895 C-103.13718863 307.97744826 -103.13503416 304.4567529 -103.13037109 300.93603516 C-103.1246738 296.41289504 -103.12795282 291.88981426 -103.13394356 287.36667633 C-103.13754923 283.90097605 -103.13641056 280.43528993 -103.13381577 276.96958923 C-103.13314651 275.30134575 -103.13397486 273.63310101 -103.13629532 271.96485901 C-103.13882195 269.63734506 -103.13498113 267.30992852 -103.12939453 264.98242188 C-103.13141876 264.28628281 -103.13344299 263.59014374 -103.13552856 262.87290955 C-103.11426274 258.11426274 -103.11426274 258.11426274 -102 257 C-100.14630389 256.91262355 -98.28932459 256.89301847 -96.43359375 256.90234375 C-95.42095459 256.90484131 -94.40831543 256.90733887 -93.36499023 256.90991211 C-92.06891846 256.91901611 -90.77284668 256.92812012 -89.4375 256.9375 C-83.2809375 256.9684375 -83.2809375 256.9684375 -77 257 C-77 248.42 -77 239.84 -77 231 C-69.75508786 230.97709722 -62.51030031 230.95716823 -55.26538086 230.94506836 C-52.79857967 230.94002644 -50.33178148 230.93319309 -47.86499023 230.92456055 C-44.32795471 230.91248875 -40.79095855 230.90677044 -37.25390625 230.90234375 C-36.14350479 230.89718246 -35.03310333 230.89202118 -33.88905334 230.88670349 C-32.35757912 230.88659019 -32.35757912 230.88659019 -30.79516602 230.88647461 C-29.89137711 230.884254 -28.9875882 230.88203339 -28.05641174 230.87974548 C-26 231 -26 231 -25 232 C-24.91262355 233.85369611 -24.89301847 235.71067541 -24.90234375 237.56640625 C-24.90717773 239.2534668 -24.90717773 239.2534668 -24.91210938 240.97460938 C-24.92467773 242.75061523 -24.92467773 242.75061523 -24.9375 244.5625 C-24.94201172 245.75037109 -24.94652344 246.93824219 -24.95117188 248.16210938 C-24.96300325 251.10812226 -24.97948713 254.05403681 -25 257 C-24.05008682 256.99777939 -23.10017365 256.99555878 -22.12147522 256.99327087 C-13.18908904 256.97303873 -4.25670748 256.95802751 4.67569637 256.94818783 C9.2684264 256.94295918 13.861138 256.93586188 18.45385742 256.92456055 C22.88233688 256.913731 27.31079856 256.90772302 31.73929024 256.90512276 C33.43265628 256.90326863 35.12602129 256.89964825 36.81937981 256.89426994 C39.18291232 256.8870586 41.54637045 256.8860091 43.90991211 256.88647461 C44.61697296 256.88287933 45.32403381 256.87928406 46.05252075 256.87557983 C50.88594784 256.88594784 50.88594784 256.88594784 52 258 C52.08737645 259.85369611 52.10698153 261.71067541 52.09765625 263.56640625 C52.09515869 264.57904541 52.09266113 265.59168457 52.09008789 266.63500977 C52.08098389 267.93108154 52.07187988 269.22715332 52.0625 270.5625 C52.041875 274.666875 52.02125 278.77125 52 283 C60.25 283 68.5 283 77 283 C77 266.17 77 249.34 77 232 C51.59 232 26.18 232 0 232 C0 223.42 0 214.84 0 206 C-16.83 206 -33.66 206 -51 206 C-51.495 193.625 -51.495 193.625 -52 181 C-60.25 180.67 -68.5 180.34 -77 180 C-77.02254688 163.32814247 -77.04097909 146.65629789 -77.05181217 129.98442936 C-77.05697517 122.24392718 -77.06401793 114.50343513 -77.07543945 106.76293945 C-77.08538619 100.01872849 -77.0918534 93.27452485 -77.09408849 86.53030676 C-77.09539562 82.95713134 -77.09848158 79.3839769 -77.10573006 75.81080818 C-77.11374372 71.82837649 -77.11399114 67.84596559 -77.11352539 63.86352539 C-77.11712067 62.67022614 -77.12071594 61.47692688 -77.12442017 60.24746704 C-77.1230455 59.16908066 -77.12167084 58.09069427 -77.12025452 56.97962952 C-77.12117631 56.03663529 -77.1220981 55.09364107 -77.12304783 54.12207127 C-77 52 -77 52 -76 51 C-74.21928754 50.91273777 -72.4351686 50.89300959 -70.65234375 50.90234375 C-69.19429321 50.90609009 -69.19429321 50.90609009 -67.70678711 50.90991211 C-65.84098999 50.92356812 -65.84098999 50.92356812 -63.9375 50.9375 C-59.998125 50.958125 -56.05875 50.97875 -52 51 C-51.67 42.75 -51.34 34.5 -51 26 C-34.17 26 -17.34 26 0 26 C0 17.42 0 8.84 0 0 Z " fill="#118011" transform="translate(141,26)"/>
<path d="M0 0 C67.65 0 135.3 0 205 0 C205 8.58 205 17.16 205 26 C221.83 26 238.66 26 256 26 C256 34.58 256 43.16 256 52 C264.58 52 273.16 52 282 52 C282 77.08 282 102.16 282 128 C269.625 128.495 269.625 128.495 257 129 C256.67 137.25 256.34 145.5 256 154 C239.17 154 222.34 154 205 154 C205 162.58 205 171.16 205 180 C137.35 180 69.7 180 0 180 C0 171.42 0 162.84 0 154 C-16.83 154 -33.66 154 -51 154 C-51.495 141.625 -51.495 141.625 -52 129 C-60.25 128.67 -68.5 128.34 -77 128 C-77 102.92 -77 77.84 -77 52 C-68.42 52 -59.84 52 -51 52 C-51 43.42 -51 34.84 -51 26 C-34.17 26 -17.34 26 0 26 C0 17.42 0 8.84 0 0 Z " fill="#FB1917" transform="translate(167,52)"/>
<path d="M0 0 C84.81 0 169.62 0 257 0 C257 8.58 257 17.16 257 26 C273.83 26 290.66 26 308 26 C308 34.25 308 42.5 308 51 C311.96 51 315.92 51 320 51 C326.93 51.495 326.93 51.495 334 52 C334 94.24 334 136.48 334 180 C321.625 180.495 321.625 180.495 309 181 C308.67 189.25 308.34 197.5 308 206 C291.17 206 274.34 206 257 206 C257 214.58 257 223.16 257 232 C231.59 232 206.18 232 180 232 C180 248.83 180 265.66 180 283 C188.25 283 196.5 283 205 283 C204.9604086 274.81747203 204.9604086 274.81747203 204.90991211 266.63500977 C204.90616577 265.11605103 204.90616577 265.11605103 204.90234375 263.56640625 C204.89448853 262.00321655 204.89448853 262.00321655 204.88647461 260.40844727 C205 258 205 258 206 257 C208.37300869 256.90505267 210.71678703 256.87440681 213.09008789 256.88647461 C213.83150528 256.88632858 214.57292267 256.88618256 215.33680725 256.8860321 C217.79878621 256.88673135 220.26069043 256.89452426 222.72265625 256.90234375 C224.42516539 256.90420789 226.12767507 256.90563181 227.83018494 256.90663147 C232.31993073 256.91045698 236.80964438 256.92028753 241.29937744 256.93133545 C245.87731491 256.94154887 250.45525756 256.94612894 255.03320312 256.95117188 C264.02215184 256.96190978 273.01106822 256.97950684 282 257 C282 265.58 282 274.16 282 283 C256.92 283 231.84 283 206 283 C206 291.58 206 300.16 206 309 C197.42 309 188.84 309 180 309 C180 325.83 180 342.66 180 360 C171.42 360 162.84 360 154 360 C154 309.18 154 258.36 154 206 C179.41 206 204.82 206 231 206 C231 197.42 231 188.84 231 180 C247.83 180 264.66 180 282 180 C282 171.75 282 163.5 282 155 C282.33 154.67 282.66 154.34 283 154 C291.25 154 299.5 154 308 154 C308 128.92 308 103.84 308 78 C299.42 78 290.84 78 282 78 C282 69.42 282 60.84 282 52 C265.17 52 248.34 52 231 52 C231 43.42 231 34.84 231 26 C163.35 26 95.7 26 26 26 C26 34.58 26 43.16 26 52 C9.17 52 -7.66 52 -25 52 C-25 60.58 -25 69.16 -25 78 C-33.58 78 -42.16 78 -51 78 C-51 103.08 -51 128.16 -51 154 C-42.75 154 -34.5 154 -26 154 C-19.86721017 160.13278983 -25 171.32692545 -25 180 C-8.17 180 8.66 180 26 180 C26 188.58 26 197.16 26 206 C51.41 206 76.82 206 103 206 C103 256.82 103 307.64 103 360 C94.42 360 85.84 360 77 360 C77 343.17 77 326.34 77 309 C68.42 309 59.84 309 51 309 C51 300.42 51 291.84 51 283 C25.92 283 0.84 283 -25 283 C-25 274.42 -25 265.84 -25 257 C-15.10810217 256.97744824 -5.2162213 256.95908448 4.67569637 256.94818783 C9.2684264 256.94295918 13.861138 256.93586188 18.45385742 256.92456055 C22.88233688 256.913731 27.31079856 256.90772302 31.73929024 256.90512276 C33.43265628 256.90326863 35.12602129 256.89964825 36.81937981 256.89426994 C39.18291232 256.8870586 41.54637045 256.8860091 43.90991211 256.88647461 C44.61697296 256.88287933 45.32403381 256.87928406 46.05252075 256.87557983 C50.88594784 256.88594784 50.88594784 256.88594784 52 258 C52.08737645 259.85369611 52.10698153 261.71067541 52.09765625 263.56640625 C52.09515869 264.57904541 52.09266113 265.59168457 52.09008789 266.63500977 C52.08098389 267.93108154 52.07187988 269.22715332 52.0625 270.5625 C52.041875 274.666875 52.02125 278.77125 52 283 C60.25 283 68.5 283 77 283 C77 266.17 77 249.34 77 232 C51.59 232 26.18 232 0 232 C0 223.42 0 214.84 0 206 C-16.83 206 -33.66 206 -51 206 C-51.495 193.625 -51.495 193.625 -52 181 C-60.25 180.67 -68.5 180.34 -77 180 C-77.02254688 163.32814247 -77.04097909 146.65629789 -77.05181217 129.98442936 C-77.05697517 122.24392718 -77.06401793 114.50343513 -77.07543945 106.76293945 C-77.08538619 100.01872849 -77.0918534 93.27452485 -77.09408849 86.53030676 C-77.09539562 82.95713134 -77.09848158 79.3839769 -77.10573006 75.81080818 C-77.11374372 71.82837649 -77.11399114 67.84596559 -77.11352539 63.86352539 C-77.11712067 62.67022614 -77.12071594 61.47692688 -77.12442017 60.24746704 C-77.1230455 59.16908066 -77.12167084 58.09069427 -77.12025452 56.97962952 C-77.12117631 56.03663529 -77.1220981 55.09364107 -77.12304783 54.12207127 C-77 52 -77 52 -76 51 C-74.21928754 50.91273777 -72.4351686 50.89300959 -70.65234375 50.90234375 C-69.19429321 50.90609009 -69.19429321 50.90609009 -67.70678711 50.90991211 C-65.84098999 50.92356812 -65.84098999 50.92356812 -63.9375 50.9375 C-59.998125 50.958125 -56.05875 50.97875 -52 51 C-51.67 42.75 -51.34 34.5 -51 26 C-34.17 26 -17.34 26 0 26 C0 17.42 0 8.84 0 0 Z " fill="#020100" transform="translate(141,26)"/>
<path d="M0 0 C51.15 0 102.3 0 155 0 C155 8.25 155 16.5 155 25 C171.83 25 188.66 25 206 25 C206 50.74 206 76.48 206 103 C121.19 103 36.38 103 -51 103 C-51 77.26 -51 51.52 -51 25 C-34.17 25 -17.34 25 0 25 C0 16.75 0 8.5 0 0 Z " fill="#FEF507" transform="translate(192,78)"/>
<path d="M0 0 C0.99773437 -0.00315216 1.99546875 -0.00630432 3.0234375 -0.009552 C4.10882813 -0.00752777 5.19421875 -0.00550354 6.3125 -0.00341797 C7.97152344 -0.00485306 7.97152344 -0.00485306 9.6640625 -0.00631714 C12.00781308 -0.00699913 14.35156553 -0.00514351 16.6953125 -0.00097656 C20.29691788 0.00437139 23.89839853 -0.00092093 27.5 -0.00732422 C29.77083361 -0.00666344 32.04166714 -0.00538229 34.3125 -0.00341797 C35.39789063 -0.0054422 36.48328125 -0.00746643 37.6015625 -0.009552 C38.59929687 -0.00639984 39.59703125 -0.00324768 40.625 0 C41.50800781 0.00079559 42.39101563 0.00159119 43.30078125 0.00241089 C45.3125 0.12939453 45.3125 0.12939453 46.3125 1.12939453 C46.39987645 2.98309064 46.41948153 4.84006994 46.41015625 6.69580078 C46.40693359 7.82050781 46.40371094 8.94521484 46.40039062 10.10400391 C46.39201172 11.28800781 46.38363281 12.47201172 46.375 13.69189453 C46.37048828 14.87976563 46.36597656 16.06763672 46.36132812 17.29150391 C46.34949675 20.23751679 46.33301287 23.18343134 46.3125 26.12939453 C47.4406311 26.12153931 47.4406311 26.12153931 48.59155273 26.11352539 C51.97769342 26.09282226 55.36382084 26.07975577 58.75 26.06689453 C59.93400391 26.05851562 61.11800781 26.05013672 62.33789062 26.04150391 C63.46259766 26.03828125 64.58730469 26.03505859 65.74609375 26.03173828 C66.78822021 26.02650146 67.83034668 26.02126465 68.90405273 26.01586914 C71.3125 26.12939453 71.3125 26.12939453 72.3125 27.12939453 C72.41273555 29.46653778 72.44869203 31.77413778 72.44189453 34.11181641 C72.44452301 35.20690269 72.44452301 35.20690269 72.44720459 36.32411194 C72.45162299 38.74881331 72.44868517 41.17344235 72.4453125 43.59814453 C72.44598554 45.27583836 72.44695557 46.95353209 72.44821167 48.63122559 C72.44968863 52.15194627 72.44753416 55.67264163 72.44287109 59.19335938 C72.4371738 63.71649949 72.44045282 68.23958027 72.44644356 72.7627182 C72.45004923 76.22841848 72.44891056 79.6941046 72.44631577 83.1598053 C72.44564651 84.82804878 72.44647486 86.49629352 72.44879532 88.16453552 C72.45132195 90.49204947 72.44748113 92.81946601 72.44189453 95.14697266 C72.44391876 95.84311172 72.44594299 96.53925079 72.44802856 97.25648499 C72.42676274 102.0151318 72.42676274 102.0151318 71.3125 103.12939453 C68.90901714 103.22436161 66.53439018 103.25498315 64.13061523 103.24291992 C63.0038588 103.24313896 63.0038588 103.24313896 61.8543396 103.24336243 C59.35989541 103.24266316 56.86552497 103.23487018 54.37109375 103.22705078 C52.64616436 103.22518665 50.92123443 103.22376272 49.19630432 103.22276306 C44.64737497 103.21893751 40.09847733 103.20910691 35.54956055 103.19805908 C30.91129994 103.18784577 26.27303423 103.18326561 21.63476562 103.17822266 C12.52732754 103.16748467 3.41992137 103.14988757 -5.6875 103.12939453 C-5.6875 94.87939453 -5.6875 86.62939453 -5.6875 78.12939453 C-22.5175 78.12939453 -39.3475 78.12939453 -56.6875 78.12939453 C-56.6875 86.37939453 -56.6875 94.62939453 -56.6875 103.12939453 C-64.9375 103.12939453 -73.1875 103.12939453 -81.6875 103.12939453 C-81.6875 111.70939453 -81.6875 120.28939453 -81.6875 129.12939453 C-90.2675 129.12939453 -98.8475 129.12939453 -107.6875 129.12939453 C-107.6875 112.29939453 -107.6875 95.46939453 -107.6875 78.12939453 C-99.1075 78.12939453 -90.5275 78.12939453 -81.6875 78.12939453 C-81.6875 69.54939453 -81.6875 60.96939453 -81.6875 52.12939453 C-56.6075 52.12939453 -31.5275 52.12939453 -5.6875 52.12939453 C-5.72710937 35.39024279 -5.72710937 35.39024279 -5.77758789 18.65112305 C-5.78050686 16.56184947 -5.78305546 14.47257534 -5.78515625 12.38330078 C-5.79027222 11.28723511 -5.79538818 10.19116943 -5.80065918 9.06188965 C-5.80084045 7.50891174 -5.80084045 7.50891174 -5.80102539 5.92456055 C-5.803246 5.02077164 -5.80546661 4.11698273 -5.80775452 3.18580627 C-5.5780979 -0.74143556 -3.41180248 0.00307405 0 0 Z " fill="#1CD21C" transform="translate(428.6875,256.87060546875)"/>
<path d="M0 0 C67.65 0 135.3 0 205 0 C205 8.25 205 16.5 205 25 C178.56665916 25.15356212 152.13329461 25.30181104 125.69988441 25.4429636 C113.42718453 25.50863364 101.1545005 25.57620147 88.88183594 25.64819336 C78.18853144 25.7109159 67.49521434 25.77012218 56.80186689 25.82505554 C51.13663667 25.85428283 45.47142879 25.8853051 39.80623245 25.92053413 C34.47940745 25.95360355 29.1525785 25.98198921 23.82570839 26.00670624 C21.865669 26.01664056 19.90563759 26.02831952 17.94561958 26.04183006 C15.27947004 26.05995295 12.61336336 26.07192617 9.94717407 26.08229065 C9.16313725 26.08909444 8.37910043 26.09589823 7.57130492 26.10290819 C2.22824242 26.11412121 2.22824242 26.11412121 0 25 C0 16.75 0 8.5 0 0 Z " fill="#000000" transform="translate(167,412)"/>
<path d="M0 0 C25.08 0 50.16 0 76 0 C76 8.58 76 17.16 76 26 C84.58 26 93.16 26 102 26 C102 42.83 102 59.66 102 77 C93.75 77 85.5 77 77 77 C77 68.42 77 59.84 77 51 C68.42 51 59.84 51 51 51 C51 42.42 51 33.84 51 25 C34.17 25 17.34 25 0 25 C0 16.75 0 8.5 0 0 Z " fill="#1DD11D" transform="translate(116,309)"/>
<path d="M0 0 C25.41 0 50.82 0 77 0 C77 8.58 77 17.16 77 26 C51.59 26 26.18 26 0 26 C0 17.42 0 8.84 0 0 Z " fill="#000200" transform="translate(90,386)"/>
<path d="M0 0 C25.41 0 50.82 0 77 0 C77 8.25 77 16.5 77 25 C75.32664004 26.67335996 73.28612091 26.11962895 71.05252075 26.12442017 C70.3454599 26.12082489 69.63839905 26.11722961 68.90991211 26.11352539 C68.16849472 26.11367142 67.42707733 26.11381744 66.66319275 26.1139679 C64.20121379 26.11326865 61.73930957 26.10547574 59.27734375 26.09765625 C57.57483461 26.09579211 55.87232493 26.09436819 54.16981506 26.09336853 C49.68006927 26.08954302 45.19035562 26.07971247 40.70062256 26.06866455 C36.12268509 26.05845113 31.54474244 26.05387106 26.96679688 26.04882812 C17.97784816 26.03809022 8.98893178 26.02049316 0 26 C0 17.42 0 8.84 0 0 Z " fill="#000100" transform="translate(372,386)"/>
<path d="M0 0 C8.25 0 16.5 0 25 0 C26.65888739 1.65888739 26.12562525 3.65684782 26.13552856 5.87290955 C26.13350433 6.56904861 26.1314801 7.26518768 26.12939453 7.98242188 C26.13114685 8.7124794 26.13289917 9.44253693 26.13470459 10.19471741 C26.13912299 12.61941878 26.13618517 15.04404782 26.1328125 17.46875 C26.13348554 19.14644383 26.13445557 20.82413756 26.13571167 22.50183105 C26.13718863 26.02255174 26.13503416 29.5432471 26.13037109 33.06396484 C26.1246738 37.58710496 26.12795282 42.11018574 26.13394356 46.63332367 C26.13754923 50.09902395 26.13641056 53.56471007 26.13381577 57.03041077 C26.13314651 58.69865425 26.13397486 60.36689899 26.13629532 62.03514099 C26.13882195 64.36265494 26.13498113 66.69007148 26.12939453 69.01757812 C26.13141876 69.71371719 26.13344299 70.40985626 26.13552856 71.12709045 C26.11426274 75.88573726 26.11426274 75.88573726 25 77 C16.75 77 8.5 77 0 77 C0 51.59 0 26.18 0 0 Z " fill="#000100" transform="translate(475,283)"/>
<path d="M0 0 C8.25 0 16.5 0 25 0 C25 25.41 25 50.82 25 77 C16.75 77 8.5 77 0 77 C-1.65888739 75.34111261 -1.12562525 73.34315218 -1.13552856 71.12709045 C-1.13350433 70.43095139 -1.1314801 69.73481232 -1.12939453 69.01757812 C-1.13114685 68.2875206 -1.13289917 67.55746307 -1.13470459 66.80528259 C-1.13912299 64.38058122 -1.13618517 61.95595218 -1.1328125 59.53125 C-1.13348554 57.85355617 -1.13445557 56.17586244 -1.13571167 54.49816895 C-1.13718863 50.97744826 -1.13503416 47.4567529 -1.13037109 43.93603516 C-1.1246738 39.41289504 -1.12795282 34.88981426 -1.13394356 30.36667633 C-1.13754923 26.90097605 -1.13641056 23.43528993 -1.13381577 19.96958923 C-1.13314651 18.30134575 -1.13397486 16.63310101 -1.13629532 14.96485901 C-1.13882195 12.63734506 -1.13498113 10.30992852 -1.12939453 7.98242188 C-1.13141876 7.28628281 -1.13344299 6.59014374 -1.13552856 5.87290955 C-1.11426274 1.11426274 -1.11426274 1.11426274 0 0 Z " fill="#000101" transform="translate(39,283)"/>
<path d="M0 0 C16.83 0 33.66 0 51 0 C51 8.58 51 17.16 51 26 C42.75 26 34.5 26 26 26 C26 34.25 26 42.5 26 51 C17.75 51 9.5 51 1 51 C0.67 34.17 0.34 17.34 0 0 Z " fill="#1BD21B" transform="translate(64,283)"/>
<path d="M0 0 C15.84 0 31.68 0 48 0 C48 15.84 48 31.68 48 48 C40.74 48 33.48 48 26 48 C25.93941406 46.20691406 25.87882812 44.41382813 25.81640625 42.56640625 C25.73202151 40.23176176 25.64737249 37.89712681 25.5625 35.5625 C25.52318359 34.37849609 25.48386719 33.19449219 25.44335938 31.97460938 C25.40146484 30.84990234 25.35957031 29.72519531 25.31640625 28.56640625 C25.27974854 27.52427979 25.24309082 26.48215332 25.20532227 25.40844727 C25.26484659 23.0500174 25.26484659 23.0500174 24 22 C22.21928754 21.91273777 20.4351686 21.89300959 18.65234375 21.90234375 C17.57275391 21.90556641 16.49316406 21.90878906 15.38085938 21.91210938 C13.67639648 21.92467773 13.67639648 21.92467773 11.9375 21.9375 C10.79732422 21.94201172 9.65714844 21.94652344 8.48242188 21.95117188 C5.65492582 21.9630024 2.82745655 21.9809385 0 22 C0 14.74 0 7.48 0 0 Z " fill="#1AD31A" transform="translate(425,285)"/>
<path d="M0 0 C8.58 0 17.16 0 26 0 C26 17.16 26 34.32 26 52 C17.42 52 8.84 52 0 52 C0 34.84 0 17.68 0 0 Z " fill="#080700" transform="translate(295,103)"/>
<path d="M0 0 C8.58 0 17.16 0 26 0 C26 17.16 26 34.32 26 52 C17.42 52 8.84 52 0 52 C0 34.84 0 17.68 0 0 Z " fill="#080700" transform="translate(218,103)"/>
<path d="M0 0 C7.24491214 -0.02290278 14.48969969 -0.04283177 21.73461914 -0.05493164 C24.20142033 -0.05997356 26.66821852 -0.06680691 29.13500977 -0.07543945 C32.67204529 -0.08751125 36.20904145 -0.09322956 39.74609375 -0.09765625 C40.85649521 -0.10281754 41.96689667 -0.10797882 43.11094666 -0.11329651 C44.64242088 -0.11340981 44.64242088 -0.11340981 46.20483398 -0.11352539 C47.10862289 -0.115746 48.0124118 -0.11796661 48.94358826 -0.12025452 C51 0 51 0 52 1 C52 9.25 52 17.5 52 26 C34.84 26 17.68 26 0 26 C0 17.42 0 8.84 0 0 Z " fill="#010202" transform="translate(64,257)"/>
<path d="M0 0 C0.99773437 -0.00315216 1.99546875 -0.00630432 3.0234375 -0.009552 C4.65152344 -0.00651566 4.65152344 -0.00651566 6.3125 -0.00341797 C7.41851562 -0.00437469 8.52453125 -0.00533142 9.6640625 -0.00631714 C12.00781308 -0.00699913 14.35156553 -0.00514351 16.6953125 -0.00097656 C20.29691788 0.00437139 23.89839853 -0.00092093 27.5 -0.00732422 C29.77083361 -0.00666344 32.04166714 -0.00538229 34.3125 -0.00341797 C35.94058594 -0.00645432 35.94058594 -0.00645432 37.6015625 -0.009552 C38.59929687 -0.00639984 39.59703125 -0.00324768 40.625 0 C41.50800781 0.00079559 42.39101563 0.00159119 43.30078125 0.00241089 C45.3125 0.12939453 45.3125 0.12939453 46.3125 1.12939453 C46.3125 9.37939453 46.3125 17.62939453 46.3125 26.12939453 C29.1525 26.12939453 11.9925 26.12939453 -5.6875 26.12939453 C-5.6875 0.00512446 -5.6875 0.00512446 0 0 Z " fill="#020202" transform="translate(428.6875,256.87060546875)"/>
<path d="M0 0 C51.15 0 102.3 0 155 0 C155 8.25 155 16.5 155 25 C171.83 25 188.66 25 206 25 C206 50.74 206 76.48 206 103 C121.19 103 36.38 103 -51 103 C-51 77.26 -51 51.52 -51 25 C-34.17 25 -17.34 25 0 25 C0 16.75 0 8.5 0 0 Z M2 1 C2 9.25 2 17.5 2 26 C-15.16 26 -32.32 26 -50 26 C-50 50.75 -50 75.5 -50 101 C-21.0125751 101.41641228 -21.0125751 101.41641228 7.97558594 101.77294922 C8.93513797 101.78347187 9.89469001 101.79399452 10.88331938 101.80483603 C33.20590094 102.04428029 55.52784169 102.09918097 77.8515625 102.09765625 C79.26499451 102.09755971 79.26499451 102.09755971 80.70698071 102.09746122 C92.12375787 102.09584641 103.54052007 102.08566132 114.9572885 102.07202661 C126.70026663 102.05826759 138.44324927 102.05326596 150.18623352 102.04751682 C168.45749939 102.03836182 186.72873567 102.01837334 205 102 C205 76.92 205 51.84 205 26 C188.17 26 171.34 26 154 26 C153.67 17.75 153.34 9.5 153 1 C103.17 1 53.34 1 2 1 Z " fill="#F7AA1E" transform="translate(192,78)"/>
<path d="M0 0 C8.58 0 17.16 0 26 0 C26 0.33 26 0.66 26 1 C17.75 1 9.5 1 1 1 C1 25.42 1 49.84 1 75 C9.25 75 17.5 75 26 75 C27 76 27 76 27.11352539 78.40844727 C27.10828857 79.45057373 27.10305176 80.4927002 27.09765625 81.56640625 C27.09443359 82.69111328 27.09121094 83.81582031 27.08789062 84.97460938 C27.07951172 86.15861328 27.07113281 87.34261719 27.0625 88.5625 C27.05798828 89.75037109 27.05347656 90.93824219 27.04882812 92.16210938 C27.03699675 95.10812226 27.02051287 98.05403681 27 101 C27.63671127 100.99777939 28.27342255 100.99555878 28.9294281 100.99327087 C35.53115276 100.9712196 42.13286704 100.95609407 48.73461914 100.94506836 C51.20142033 100.94002644 53.66821852 100.93319309 56.13500977 100.92456055 C59.67204529 100.91248875 63.20904145 100.90677044 66.74609375 100.90234375 C67.85649521 100.89718246 68.96689667 100.89202118 70.11094666 100.88670349 C71.64242088 100.88659019 71.64242088 100.88659019 73.20483398 100.88647461 C74.10862289 100.884254 75.0124118 100.88203339 75.94358826 100.87974548 C78 101 78 101 79 102 C79 109.92 79 117.84 79 126 C145.33 126 211.66 126 280 126 C280.33 117.75 280.66 109.5 281 101 C297.83 101 314.66 101 332 101 C332 92.75 332 84.5 332 76 C332.66 76.33 333.32 76.66 334 77 C333.67 85.25 333.34 93.5 333 102 C316.17 102 299.34 102 282 102 C282 110.58 282 119.16 282 128 C214.35 128 146.7 128 77 128 C77 119.42 77 110.84 77 102 C60.17 102 43.34 102 26 102 C25.505 89.625 25.505 89.625 25 77 C16.75 76.67 8.5 76.34 0 76 C0 50.92 0 25.84 0 0 Z " fill="#CD2924" transform="translate(90,104)"/>
<path d="M0 0 C8.58 0 17.16 0 26 0 C26 8.58 26 17.16 26 26 C17.42 26 8.84 26 0 26 C0 17.42 0 8.84 0 0 Z " fill="#000400" transform="translate(449,360)"/>
<path d="M0 0 C8.58 0 17.16 0 26 0 C26 8.58 26 17.16 26 26 C17.42 26 8.84 26 0 26 C0 17.42 0 8.84 0 0 Z " fill="#000301" transform="translate(64,360)"/>
<path d="M0 0 C8.58 0 17.16 0 26 0 C26 8.25 26 16.5 26 25 C17.42 25 8.84 25 0 25 C0 16.75 0 8.5 0 0 Z " fill="#128012" transform="translate(449,335)"/>
<path d="M0 0 C8.25 0 16.5 0 25 0 C25 8.25 25 16.5 25 25 C16.75 25 8.5 25 0 25 C0 16.75 0 8.5 0 0 Z " fill="#1DD11D" transform="translate(90,335)"/>
<path d="M0 0 C8.25 0 16.5 0 25 0 C25 8.25 25 16.5 25 25 C16.75 25 8.5 25 0 25 C0 16.75 0 8.5 0 0 Z " fill="#0E820F" transform="translate(424,309)"/>
<path d="M0 0 C0.99 0.99 1.98 1.98 3 3 C2.67 9.6 2.34 16.2 2 23 C68.66 23 135.32 23 204 23 C204 15.74 204 8.48 204 1 C204.33 1 204.66 1 205 1 C205 9.25 205 17.5 205 26 C137.35 26 69.7 26 0 26 C0 17.42 0 8.84 0 0 Z " fill="#1D661D" transform="translate(167,386)"/>
<path d="M0 0 C17.16 0 34.32 0 52 0 C52 17.16 52 34.32 52 52 C51.67 52 51.34 52 51 52 C50.67 35.5 50.34 19 50 2 C25.745 1.505 25.745 1.505 1 1 C1.07911772 9.46668056 1.07911772 9.46668056 1.18017578 17.93310547 C1.1851709 18.98385254 1.19016602 20.03459961 1.1953125 21.1171875 C1.20578613 22.19597168 1.21625977 23.27475586 1.22705078 24.38623047 C1 27 1 27 -1 29 C-4.04983521 29.20254517 -4.04983521 29.20254517 -8.02001953 29.13525391 C-9.10310394 29.12106163 -9.10310394 29.12106163 -10.20806885 29.10658264 C-12.59990444 29.07284589 -14.99122789 29.02474768 -17.3828125 28.9765625 C-19.03903863 28.95040142 -20.69527909 28.92513393 -22.35153198 28.90072632 C-26.71484491 28.83401596 -31.07785707 28.75513626 -35.44091797 28.67376709 C-39.89148395 28.59290475 -44.3422266 28.52348876 -48.79296875 28.453125 C-57.5288603 28.31332005 -66.26446733 28.16066553 -75 28 C-74.99214478 29.1281311 -74.99214478 29.1281311 -74.98413086 30.27905273 C-74.96342773 33.66519342 -74.95036123 37.05132084 -74.9375 40.4375 C-74.92912109 41.62150391 -74.92074219 42.80550781 -74.91210938 44.02539062 C-74.90727539 45.71245117 -74.90727539 45.71245117 -74.90234375 47.43359375 C-74.89448853 48.99678345 -74.89448853 48.99678345 -74.88647461 50.59155273 C-75 53 -75 53 -76 54 C-77.78071246 54.08726223 -79.5648314 54.10699041 -81.34765625 54.09765625 C-82.80570679 54.09390991 -82.80570679 54.09390991 -84.29321289 54.09008789 C-85.53707764 54.08098389 -86.78094238 54.07187988 -88.0625 54.0625 C-92.001875 54.041875 -95.94125 54.02125 -100 54 C-100 69.51 -100 85.02 -100 101 C-99.01 101 -98.02 101 -97 101 C-97 101.66 -97 102.32 -97 103 C-98.65 103 -100.3 103 -102 103 C-102 86.17 -102 69.34 -102 52 C-93.42 52 -84.84 52 -76 52 C-76 43.42 -76 34.84 -76 26 C-50.92 26 -25.84 26 0 26 C0 17.42 0 8.84 0 0 Z " fill="#35A935" transform="translate(423,283)"/>
<path d="M0 0 C16.83 0 33.66 0 51 0 C51 50.82 51 101.64 51 154 C50.67 154 50.34 154 50 154 C49.505 79.255 49.505 79.255 49 3 C33.16 2.67 17.32 2.34 1 2 C1.00523682 6.6295874 1.01047363 11.2591748 1.01586914 16.02905273 C1.03240056 31.28415162 1.04352025 46.53925086 1.05181217 61.79435635 C1.05697546 71.0482116 1.06401878 80.30205838 1.07543945 89.5559082 C1.08538529 97.61856198 1.09185319 105.68120963 1.09408849 113.74386936 C1.09539577 118.01568521 1.0984827 122.28748351 1.10573006 126.55929375 C1.11248869 130.57535956 1.11461728 134.59140051 1.11310768 138.60747147 C1.11338408 140.08576785 1.11539013 141.56406501 1.11920547 143.04235649 C1.12414021 145.05198957 1.12239814 147.06163581 1.12025452 149.0712738 C1.12117631 150.19862662 1.1220981 151.32597944 1.12304783 152.48749447 C1 155 1 155 0 156 C-1.78293062 156.01672261 -3.56662336 155.96282927 -5.34765625 155.87890625 C-6.42724609 155.83056641 -7.50683594 155.78222656 -8.61914062 155.73242188 C-9.75544922 155.67634766 -10.89175781 155.62027344 -12.0625 155.5625 C-13.20267578 155.51029297 -14.34285156 155.45808594 -15.51757812 155.40429688 C-18.34530023 155.27415067 -21.17271 155.13917121 -24 155 C-24 154.67 -24 154.34 -24 154 C-16.08 154 -8.16 154 0 154 C0 103.18 0 52.36 0 0 Z " fill="#2B711F" transform="translate(244,232)"/>
<path d="M0 0 C0.33 0 0.66 0 1 0 C1 50.16 1 100.32 1 152 C8.92 152 16.84 152 25 152 C24.98839844 148.33003906 24.97679687 144.66007813 24.96484375 140.87890625 C24.95705448 137.34106533 24.95097698 133.80322536 24.94506836 130.26538086 C24.94002644 127.79857967 24.93319309 125.33178148 24.92456055 122.86499023 C24.91248875 119.32795471 24.90677044 115.79095855 24.90234375 112.25390625 C24.89718246 111.14350479 24.89202118 110.03310333 24.88670349 108.88905334 C24.88659019 107.35757912 24.88659019 107.35757912 24.88647461 105.79516602 C24.884254 104.89137711 24.88203339 103.9875882 24.87974548 103.05641174 C25 101 25 101 26 100 C27.78071246 99.91273777 29.5648314 99.89300959 31.34765625 99.90234375 C32.42724609 99.90556641 33.50683594 99.90878906 34.61914062 99.91210938 C36.32360352 99.92467773 36.32360352 99.92467773 38.0625 99.9375 C39.77276367 99.94426758 39.77276367 99.94426758 41.51757812 99.95117188 C44.34510351 99.96300253 47.1725264 99.9794859 50 100 C49.96447021 99.30849854 49.92894043 98.61699707 49.89233398 97.90454102 C49.73534819 94.79077094 49.58631877 91.67667062 49.4375 88.5625 C49.38142578 87.47388672 49.32535156 86.38527344 49.26757812 85.26367188 C49.21923828 84.22919922 49.17089844 83.19472656 49.12109375 82.12890625 C49.0739624 81.17056885 49.02683105 80.21223145 48.97827148 79.22485352 C49 77 49 77 50 76 C50.15786308 74.14825294 50.25107356 72.2909089 50.31640625 70.43359375 C50.37924805 68.7465332 50.37924805 68.7465332 50.44335938 67.02539062 C50.48267578 65.84138672 50.52199219 64.65738281 50.5625 63.4375 C50.62727539 61.65569336 50.62727539 61.65569336 50.69335938 59.83789062 C50.79983546 56.89205216 50.90184841 53.9461257 51 51 C51.33 51 51.66 51 52 51 C52 58.92 52 66.84 52 75 C77.08 75 102.16 75 128 75 C128 75.33 128 75.66 128 76 C102.92 76 77.84 76 52 76 C52 84.58 52 93.16 52 102 C43.42 102 34.84 102 26 102 C26 118.83 26 135.66 26 153 C17.42 153 8.84 153 0 153 C0 102.51 0 52.02 0 0 Z " fill="#033103" transform="translate(295,233)"/>
<path d="M0 0 C0.33 0 0.66 0 1 0 C1 16.83 1 33.66 1 51 C17.83 51 34.66 51 52 51 C52 59.58 52 68.16 52 77 C60.58 77 69.16 77 78 77 C78 85.58 78 94.16 78 103 C77.67 103 77.34 103 77 103 C77 94.75 77 86.5 77 78 C68.42 78 59.84 78 51 78 C51 69.42 51 60.84 51 52 C34.5 52 18 52 1 52 C1 60.25 1 68.5 1 77 C0.67 77 0.34 77 0 77 C0 68.75 0 60.5 0 52 C-16.83 52 -33.66 52 -51 52 C-51 35.5 -51 19 -51 2 C-50.67 2 -50.34 2 -50 2 C-50 18.17 -50 34.34 -50 51 C-33.5 51 -17 51 0 51 C0 34.17 0 17.34 0 0 Z " fill="#17A217" transform="translate(115,283)"/>
<path d="M0 0 C16.83 0 33.66 0 51 0 C51 8.58 51 17.16 51 26 C50.67 26 50.34 26 50 26 C50 18.41 50 10.82 50 3 C34.49 3 18.98 3 3 3 C2.67 18.51 2.34 34.02 2 50 C12.56142837 49.4702005 12.56142837 49.4702005 23 48 C23.33 41.07 23.66 34.14 24 27 C24.66 26.67 25.32 26.34 26 26 C26 34.25 26 42.5 26 51 C17.75 51 9.5 51 1 51 C0.67 34.17 0.34 17.34 0 0 Z " fill="#25CC25" transform="translate(64,283)"/>
<path d="M0 0 C0.33 0 0.66 0 1 0 C1 8.25 1 16.5 1 25 C9.58 25 18.16 25 27 25 C27 51.07 27 77.14 27 104 C18.75 104 10.5 104 2 104 C2 111.92 2 119.84 2 128 C1.34 128 0.68 128 0 128 C-0.02886751 123.85418113 -0.04675327 119.70838784 -0.0625 115.5625 C-0.07087891 114.37849609 -0.07925781 113.19449219 -0.08789062 111.97460938 C-0.09111328 110.84990234 -0.09433594 109.72519531 -0.09765625 108.56640625 C-0.10289307 107.52427979 -0.10812988 106.48215332 -0.11352539 105.40844727 C0 103 0 103 1 102 C9.25 102 17.5 102 26 102 C26 76.92 26 51.84 26 26 C17.42 26 8.84 26 0 26 C0 17.42 0 8.84 0 0 Z " fill="#6B0908" transform="translate(423,78)"/>
<path d="M0 0 C0.66 0 1.32 0 2 0 C2 8.58 2 17.16 2 26 C-6.25 26 -14.5 26 -23 26 C-23 34.58 -23 43.16 -23 52 C-29.93 52 -36.86 52 -44 52 C-43.01 51.01 -42.02 50.02 -41 49 C-40.53004942 46.84802599 -40.53004942 46.84802599 -40.56762695 44.43676758 C-40.53793571 43.05567558 -40.53793571 43.05567558 -40.50764465 41.64668274 C-40.50125473 40.65597275 -40.49486481 39.66526276 -40.48828125 38.64453125 C-40.47033005 37.62775803 -40.45237885 36.6109848 -40.43388367 35.56340027 C-40.3796646 32.31314248 -40.34584741 29.0630325 -40.3125 25.8125 C-40.27933721 23.61000542 -40.24484853 21.40753037 -40.20898438 19.20507812 C-40.12393168 13.80351796 -40.05563102 8.40193894 -40 3 C-39.34 3 -38.68 3 -38 3 C-38 18.51 -38 34.02 -38 50 C-34.37 50 -30.74 50 -27 50 C-25.515 50.495 -25.515 50.495 -24 51 C-24 42.42 -24 33.84 -24 25 C-20.16885717 24.3614762 -17.2182324 23.8752302 -13.4765625 23.90234375 C-12.40269287 23.90609009 -12.40269287 23.90609009 -11.30712891 23.90991211 C-10.42202637 23.91901611 -9.53692383 23.92812012 -8.625 23.9375 C-5.77875 23.958125 -2.9325 23.97875 0 24 C0 16.08 0 8.16 0 0 Z " fill="#1FC921" transform="translate(370,334)"/>
<path d="M0 0 C16.83 0 33.66 0 51 0 C51 0.33 51 0.66 51 1 C35.16 1.33 19.32 1.66 3 2 C3 8.93 3 15.86 3 23 C2.34 23.99 1.68 24.98 1 26 C-1.52197266 26.43237305 -1.52197266 26.43237305 -4.6640625 26.51171875 C-5.78554688 26.54716797 -6.90703125 26.58261719 -8.0625 26.61914062 C-9.238125 26.64169922 -10.41375 26.66425781 -11.625 26.6875 C-12.80835938 26.72166016 -13.99171875 26.75582031 -15.2109375 26.79101562 C-18.1405306 26.87370575 -21.0698164 26.94278714 -24 27 C-23.9592334 27.68102783 -23.9184668 28.36205566 -23.87646484 29.0637207 C-23.69819412 32.14612145 -23.53641156 35.22917242 -23.375 38.3125 C-23.31054688 39.38435547 -23.24609375 40.45621094 -23.1796875 41.56054688 C-23.10234375 43.10258789 -23.10234375 43.10258789 -23.0234375 44.67578125 C-22.97106934 45.62364502 -22.91870117 46.57150879 -22.86474609 47.5480957 C-23 50 -23 50 -25 53 C-27.33837891 53.34057617 -27.33837891 53.34057617 -30.2265625 53.29296875 C-31.2578125 53.28330078 -32.2890625 53.27363281 -33.3515625 53.26367188 C-34.43179687 53.23853516 -35.51203125 53.21339844 -36.625 53.1875 C-37.71296875 53.17396484 -38.8009375 53.16042969 -39.921875 53.14648438 C-42.61507409 53.11104754 -45.30729374 53.06164331 -48 53 C-48 52.34 -48 51.68 -48 51 C-40.41 51 -32.82 51 -25 51 C-25 42.42 -25 33.84 -25 25 C-16.75 25 -8.5 25 0 25 C0 16.75 0 8.5 0 0 Z " fill="#078B08" transform="translate(372,335)"/>
<path d="M0 0 C0.33 0 0.66 0 1 0 C1 8.25 1 16.5 1 25 C17.83 25 34.66 25 52 25 C52 50.41 52 75.82 52 102 C51.67 102 51.34 102 51 102 C51 76.92 51 51.84 51 26 C34.26073904 26.36860718 34.26073904 26.36860718 17.52172852 26.74829102 C15.43246288 26.7922332 13.34318926 26.83579793 11.25390625 26.87890625 C10.15784058 26.90561401 9.0617749 26.93232178 7.93249512 26.95983887 C6.89717651 26.98026245 5.86185791 27.00068604 4.79516602 27.02172852 C3.43948265 27.05170677 3.43948265 27.05170677 2.05641174 27.08229065 C0 27 0 27 -1 26 C-1.09949077 24.24314326 -1.1308026 22.48232667 -1.1328125 20.72265625 C-1.13410156 19.65208984 -1.13539063 18.58152344 -1.13671875 17.47851562 C-1.13285156 16.35123047 -1.12898438 15.22394531 -1.125 14.0625 C-1.12886719 12.93908203 -1.13273437 11.81566406 -1.13671875 10.65820312 C-1.13542969 9.58634766 -1.13414062 8.51449219 -1.1328125 7.41015625 C-1.13168457 6.42152588 -1.13055664 5.43289551 -1.12939453 4.41430664 C-1 2 -1 2 0 0 Z " fill="#FEAD1D" transform="translate(346,78)"/>
<path d="M0 0 C0.33 0 0.66 0 1 0 C1 8.25 1 16.5 1 25 C8.92 25 16.84 25 25 25 C25 25.33 25 25.66 25 26 C8.5 26 -8 26 -25 26 C-25 34.25 -25 42.5 -25 51 C-25.33 51 -25.66 51 -26 51 C-26 42.75 -26 34.5 -26 26 C-42.83 26 -59.66 26 -77 26 C-77 25.67 -77 25.34 -77 25 C-60.17 25 -43.34 25 -26 25 C-26 17.08 -26 9.16 -26 1 C-25.67 1 -25.34 1 -25 1 C-25 8.92 -25 16.84 -25 25 C-16.75 25 -8.5 25 0 25 C0 16.75 0 8.5 0 0 Z " fill="#19AE19" transform="translate(449,309)"/>
<path d="M0 0 C0 0.99 0 1.98 0 3 C-7.92 3 -15.84 3 -24 3 C-24 18.51 -24 34.02 -24 50 C-23.01 50 -22.02 50 -21 50 C-21 50.66 -21 51.32 -21 52 C-22.65 52 -24.3 52 -26 52 C-26 35.17 -26 18.34 -26 1 C-17.42 0.67 -8.84 0.34 0 0 Z " fill="#32C331" transform="translate(347,334)"/>
<path d="M0 0 C16.83 0 33.66 0 51 0 C51 8.58 51 17.16 51 26 C50.67 26 50.34 26 50 26 C50 18.41 50 10.82 50 3 C25.25 2.505 25.25 2.505 0 2 C0 1.34 0 0.68 0 0 Z " fill="#36B036" transform="translate(64,283)"/>
<path d="M0 0 C16.5 0 33 0 50 0 C50 8.25 50 16.5 50 25 C49.67 25 49.34 25 49 25 C49 17.08 49 9.16 49 1 C33.49 1.33 17.98 1.66 2 2 C2 9.26 2 16.52 2 24 C1.34 24.33 0.68 24.66 0 25 C0 16.75 0 8.5 0 0 Z " fill="#058605" transform="translate(116,335)"/>
<path d="M0 0 C1.084021 0.00523682 2.16804199 0.01047363 3.28491211 0.01586914 C5.03964844 0.02070313 5.03964844 0.02070313 6.82983398 0.02563477 C8.67738281 0.03820312 8.67738281 0.03820312 10.56225586 0.05102539 C12.41560547 0.05779297 12.41560547 0.05779297 14.30639648 0.06469727 C17.37089703 0.07652931 20.43530307 0.09301366 23.49975586 0.11352539 C23.49975586 0.77352539 23.49975586 1.43352539 23.49975586 2.11352539 C15.24975586 2.11352539 6.99975586 2.11352539 -1.50024414 2.11352539 C-1.50024414 10.03352539 -1.50024414 17.95352539 -1.50024414 26.11352539 C-2.16024414 26.11352539 -2.82024414 26.11352539 -3.50024414 26.11352539 C-3.52911165 21.96770652 -3.54699742 17.82191323 -3.56274414 13.67602539 C-3.57112305 12.49202148 -3.57950195 11.30801758 -3.58813477 10.08813477 C-3.59135742 8.96342773 -3.59458008 7.8387207 -3.59790039 6.67993164 C-3.60313721 5.63780518 -3.60837402 4.59567871 -3.61376953 3.52197266 C-3.457971 0.21669839 -3.31199936 0.15038372 0 0 Z " fill="#4F0807" transform="translate(426.500244140625,179.886474609375)"/>
<path d="M0 0 C4.14581887 -0.02886751 8.29161216 -0.04675327 12.4375 -0.0625 C14.21350586 -0.07506836 14.21350586 -0.07506836 16.02539062 -0.08789062 C17.15009766 -0.09111328 18.27480469 -0.09433594 19.43359375 -0.09765625 C20.47572021 -0.10289307 21.51784668 -0.10812988 22.59155273 -0.11352539 C25 0 25 0 26 1 C26.08737645 2.85369611 26.10698153 4.71067541 26.09765625 6.56640625 C26.09443359 7.69111328 26.09121094 8.81582031 26.08789062 9.97460938 C26.07951172 11.15861328 26.07113281 12.34261719 26.0625 13.5625 C26.05798828 14.75037109 26.05347656 15.93824219 26.04882812 17.16210938 C26.03699675 20.10812226 26.02051287 23.05403681 26 26 C25.34 26 24.68 26 24 26 C23.80367975 22.3754207 23.61944022 18.75032733 23.4375 15.125 C23.38142578 14.09246094 23.32535156 13.05992187 23.26757812 11.99609375 C23.21923828 11.00996094 23.17089844 10.02382812 23.12109375 9.0078125 C23.0739624 8.09660645 23.02683105 7.18540039 22.97827148 6.24658203 C23 4 23 4 24 2 C16.08 2 8.16 2 0 2 C0 1.34 0 0.68 0 0 Z " fill="#4B0A0B" transform="translate(90,180)"/>
<path d="M0 0 C0.33 0 0.66 0 1 0 C1.33 4.29 1.66 8.58 2 13 C3.44358887 12.99476318 4.88717773 12.98952637 6.37451172 12.98413086 C11.71565128 12.96607029 17.05678812 12.95456409 22.39794922 12.94506836 C24.71240696 12.94003057 27.0268615 12.93320019 29.34130859 12.92456055 C32.6624429 12.91247076 35.98353525 12.90676625 39.3046875 12.90234375 C40.86411575 12.89460182 40.86411575 12.89460182 42.45504761 12.88670349 C43.41589264 12.88662796 44.37673767 12.88655243 45.36669922 12.88647461 C46.21497284 12.884254 47.06324646 12.88203339 47.93722534 12.87974548 C50 13 50 13 52 14 C51.67 14.66 51.34 15.32 51 16 C34.17 15.67 17.34 15.34 0 15 C0 10.05 0 5.1 0 0 Z " fill="#25CD26" transform="translate(116,319)"/>
<path d="M0 0 C15.18 0 30.36 0 46 0 C46 0.33 46 0.66 46 1 C44.70263916 1.02505615 43.40527832 1.0501123 42.06860352 1.07592773 C37.27341144 1.16981752 32.4783705 1.27008249 27.68334961 1.37231445 C25.60460943 1.41573334 23.52583197 1.45740312 21.44702148 1.49731445 C18.46586855 1.55484921 15.48490451 1.61859119 12.50390625 1.68359375 C11.10078941 1.70866249 11.10078941 1.70866249 9.66932678 1.73423767 C8.80850998 1.75418289 7.94769318 1.77412811 7.06079102 1.79467773 C5.91828636 1.81799416 5.91828636 1.81799416 4.75270081 1.84178162 C2.97264994 1.81379329 2.97264994 1.81379329 2 3 C1.76321284 5.69235776 1.57801975 8.36498156 1.4375 11.0625 C1.39431641 11.82111328 1.35113281 12.57972656 1.30664062 13.36132812 C1.20026367 15.24065438 1.09960066 17.12030244 1 19 C0.67 19 0.34 19 0 19 C0 12.73 0 6.46 0 0 Z " fill="#110000" transform="translate(373,207)"/>
<path d="M0 0 C0.33 0 0.66 0 1 0 C1.33 7.26 1.66 14.52 2 22 C9.59 22.33 17.18 22.66 25 23 C25 23.33 25 23.66 25 24 C16.75 24 8.5 24 0 24 C0 16.08 0 8.16 0 0 Z " fill="#28C927" transform="translate(167,336)"/>
<path d="M0 0 C7.92 0 15.84 0 24 0 C24 6.93 24 13.86 24 21 C23.67 21 23.34 21 23 21 C21.57611834 14.74209993 21.41802568 8.38982108 21 2 C14.07 1.67 7.14 1.34 0 1 C0 0.67 0 0.34 0 0 Z " fill="#088B07" transform="translate(66,335)"/>
<path d="M0 0 C3.43816147 0.1098283 6.87522348 0.24046863 10.3125 0.375 C11.28896484 0.4059375 12.26542969 0.436875 13.27148438 0.46875 C14.20927734 0.50742187 15.14707031 0.54609375 16.11328125 0.5859375 C16.97735596 0.6173584 17.84143066 0.6487793 18.73168945 0.68115234 C21 1 21 1 24 3 C16.08 3 8.16 3 0 3 C0 2.01 0 1.02 0 0 Z " fill="#21C722" transform="translate(90,306)"/>
</svg>
