<?xml version="1.0" encoding="UTF-8"?>
<svg version="1.1" xmlns="http://www.w3.org/2000/svg" width="225" height="225">
<path d="M0 0 C3.96 0 7.92 0 12 0 C12 3.63 12 7.26 12 11 C15.96 11 19.92 11 24 11 C24 14.96 24 18.92 24 23 C24.99 22.67 25.98 22.34 27 22 C29.33299825 21.96045766 31.66708189 21.95598268 34 22 C34 25.96 34 29.92 34 34 C41.26 33.67 48.52 33.34 56 33 C56.33 25.41 56.66 17.82 57 10 C60.63 10 64.26 10 68 10 C69.03444628 13.10333883 69.12083424 15.22876249 69.11352539 18.48120117 C69.11341209 20.16260445 69.11341209 20.16260445 69.11329651 21.87797546 C69.10813522 23.08742325 69.10297394 24.29687103 69.09765625 25.54296875 C69.0962413 26.78170242 69.09482635 28.0204361 69.09336853 29.29670715 C69.08871602 32.58631537 69.0797339 35.8758746 69.06866455 39.16546631 C69.05842629 42.52371623 69.05386574 45.88197333 69.04882812 49.24023438 C69.03779145 55.82684212 69.02104767 62.41341705 69 69 C65.58389775 69.94314127 62.54865136 70.08065117 59 70 C58.67 73.3 58.34 76.6 58 80 C54.04 80 50.08 80 46 80 C46 83.63 46 87.26 46 91 C42.04 91 38.08 91 34 91 C34.495 96.445 34.495 96.445 35 102 C31.04 102 27.08 102 23 102 C23 91.11 23 80.22 23 69 C19.37 69 15.74 69 12 69 C12 87.48 12 105.96 12 125 C8.04 125 4.08 125 0 125 C0 106.52 0 88.04 0 69 C-3.3 69 -6.6 69 -10 69 C-9.89171875 70.61455078 -9.89171875 70.61455078 -9.78125 72.26171875 C-8.20788635 96.62365906 -8.20788635 96.62365906 -10 102 C-14.29 102 -18.58 102 -23 102 C-23 98.37 -23 94.74 -23 91 C-26.3 91 -29.6 91 -33 91 C-33 87.37 -33 83.74 -33 80 C-36.96 80 -40.92 80 -45 80 C-45 76.37 -45 72.74 -45 69 C-50.445 69.495 -50.445 69.495 -56 70 C-57.30760893 67.38478215 -57.11997548 65.46886599 -57.11352539 62.54052734 C-57.11344986 61.39949554 -57.11337433 60.25846375 -57.11329651 59.08285522 C-57.10813522 57.84637238 -57.10297394 56.60988953 -57.09765625 55.3359375 C-57.0962413 54.07359283 -57.09482635 52.81124817 -57.09336853 51.51065063 C-57.08871078 48.15361701 -57.07972408 44.796651 -57.06866455 41.43963623 C-57.0584377 38.01445094 -57.05386818 34.58925866 -57.04882812 31.1640625 C-57.03778238 24.44268716 -57.02050924 17.72135286 -57 11 C-50.565 10.505 -50.565 10.505 -44 10 C-43.08519791 15.14576178 -42.94118142 20.02962504 -43.0625 25.25390625 C-43.05219442 28.56195934 -43.05219442 28.56195934 -42 34 C-35.73 34 -29.46 34 -23 34 C-23 30.37 -23 26.74 -23 23 C-19.18939869 22.29105092 -15.91978817 22 -12 22 C-11.67 18.37 -11.34 14.74 -11 11 C-7.7 10.67 -4.4 10.34 -1 10 C-0.67 6.7 -0.34 3.4 0 0 Z " fill="#FBEE07" transform="translate(108,46)"/>
<path d="M0 0 C3.96 0 7.92 0 12 0 C12 3.63 12 7.26 12 11 C15.96 11 19.92 11 24 11 C24 14.96 24 18.92 24 23 C24.99 22.67 25.98 22.34 27 22 C29.33299825 21.96045766 31.66708189 21.95598268 34 22 C34 25.96 34 29.92 34 34 C37.63 34 41.26 34 45 34 C45 37.63 45 41.26 45 45 C38.07 45 31.14 45 24 45 C24 41.7 24 38.4 24 35 C20.04 35 16.08 35 12 35 C12 42.26 12 49.52 12 57 C8.04 57 4.08 57 0 57 C0 49.74 0 42.48 0 35 C-3.63 35 -7.26 35 -11 35 C-11 38.3 -11 41.6 -11 45 C-18.26 45 -25.52 45 -33 45 C-33 41.37 -33 37.74 -33 34 C-29.7 34 -26.4 34 -23 34 C-23 30.37 -23 26.74 -23 23 C-19.18939869 22.29105092 -15.91978817 22 -12 22 C-11.67 18.37 -11.34 14.74 -11 11 C-7.7 10.67 -4.4 10.34 -1 10 C-0.67 6.7 -0.34 3.4 0 0 Z " fill="#F90401" transform="translate(108,46)"/>
<path d="M0 0 C0.85068934 5.15139657 1.15400882 10.09574642 1.125 15.3125 C1.12886719 16.02728516 1.13273437 16.74207031 1.13671875 17.47851562 C1.12678867 22.74642266 1.12678867 22.74642266 0 25 C-0.15222973 26.66565749 -0.24917215 28.33656496 -0.31640625 30.0078125 C-0.35830078 30.99394531 -0.40019531 31.98007813 -0.44335938 32.99609375 C-0.48267578 34.02863281 -0.52199219 35.06117187 -0.5625 36.125 C-0.60568359 37.16527344 -0.64886719 38.20554688 -0.69335938 39.27734375 C-0.79962768 41.8513983 -0.90033527 44.42568131 -1 47 C2.96 47 6.92 47 11 47 C11 50.96 11 54.92 11 59 C14.63 59 18.26 59 22 59 C22 62.63 22 66.26 22 70 C26.29 70 30.58 70 35 70 C35.0269412 73.10422449 35.04681048 76.20821574 35.0625 79.3125 C35.07087891 80.19357422 35.07925781 81.07464844 35.08789062 81.98242188 C35.09111328 82.82998047 35.09433594 83.67753906 35.09765625 84.55078125 C35.10289307 85.33106689 35.10812988 86.11135254 35.11352539 86.9152832 C35 89 35 89 34 92 C29.71 92 25.42 92 21 92 C21 88.37 21 84.74 21 81 C17.7 81 14.4 81 11 81 C11 77.37 11 73.74 11 70 C7.04 70 3.08 70 -1 70 C-1 66.37 -1 62.74 -1 59 C-6.445 59.495 -6.445 59.495 -12 60 C-13.30760893 57.38478215 -13.11997548 55.46886599 -13.11352539 52.54052734 C-13.11344986 51.39949554 -13.11337433 50.25846375 -13.11329651 49.08285522 C-13.10813522 47.84637238 -13.10297394 46.60988953 -13.09765625 45.3359375 C-13.0962413 44.07359283 -13.09482635 42.81124817 -13.09336853 41.51065063 C-13.08871078 38.15361701 -13.07972408 34.796651 -13.06866455 31.43963623 C-13.0584377 28.01445094 -13.05386818 24.58925866 -13.04882812 21.1640625 C-13.03778238 14.44268957 -13.02103194 7.72134869 -13 1 C-11.20843648 0.83222817 -9.4167455 0.66581706 -7.625 0.5 C-6.62726562 0.4071875 -5.62953125 0.314375 -4.6015625 0.21875 C-2 0 -2 0 0 0 Z " fill="#022AF5" transform="translate(64,56)"/>
<path d="M0 0 C3.63 0 7.26 0 11 0 C12.03444628 3.10333883 12.12083424 5.22876249 12.11352539 8.48120117 C12.11344986 9.60213669 12.11337433 10.7230722 12.11329651 11.87797546 C12.10813522 13.08742325 12.10297394 14.29687103 12.09765625 15.54296875 C12.0962413 16.78170242 12.09482635 18.0204361 12.09336853 19.29670715 C12.08871602 22.58631537 12.0797339 25.8758746 12.06866455 29.16546631 C12.05842629 32.52371623 12.05386574 35.88197333 12.04882812 39.24023438 C12.03779145 45.82684212 12.02104767 52.41341705 12 59 C8.58389775 59.94314127 5.54865136 60.08065117 2 60 C1.67 63.3 1.34 66.6 1 70 C-2.96 70 -6.92 70 -11 70 C-11 73.63 -11 77.26 -11 81 C-14.96 81 -18.92 81 -23 81 C-22.67 84.63 -22.34 88.26 -22 92 C-25.96 92 -29.92 92 -34 92 C-34 84.74 -34 77.48 -34 70 C-30.37 70 -26.74 70 -23 70 C-23 66.37 -23 62.74 -23 59 C-19.04 59 -15.08 59 -11 59 C-11 55.04 -11 51.08 -11 47 C-7.37 47 -3.74 47 0 47 C0 39.74 0 32.48 0 25 C-0.66 25 -1.32 25 -2 25 C-1.67 24.34 -1.34 23.68 -1 23 C-0.84733388 21.26131256 -0.75067404 19.51752499 -0.68359375 17.7734375 C-0.62075195 16.2265625 -0.62075195 16.2265625 -0.55664062 14.6484375 C-0.51732422 13.56820312 -0.47800781 12.48796875 -0.4375 11.375 C-0.37272461 9.74304688 -0.37272461 9.74304688 -0.30664062 8.078125 C-0.20035573 5.3855743 -0.09965496 2.69280424 0 0 Z " fill="#052AE8" transform="translate(165,56)"/>
<path d="M0 0 C2.64 0 5.28 0 8 0 C8 18.15 8 36.3 8 55 C5.03 55 2.06 55 -1 55 C-0.67 55.99 -0.34 56.98 0 58 C-0.66 58 -1.32 58 -2 58 C-2.2165625 59.7015625 -2.2165625 59.7015625 -2.4375 61.4375 C-3 65 -3 65 -4 66 C-6.33297433 66.04092937 -8.66705225 66.04241723 -11 66 C-13.16852254 59.23931207 -12.88069757 54.04558058 -12 47 C-8.37 47 -4.74 47 -1 47 C-0.67 31.49 -0.34 15.98 0 0 Z " fill="#012AFC" transform="translate(167,58)"/>
<path d="M0 0 C0.85068934 5.15139657 1.15400882 10.09574642 1.125 15.3125 C1.12886719 16.02728516 1.13273437 16.74207031 1.13671875 17.47851562 C1.12678867 22.74642266 1.12678867 22.74642266 0 25 C-0.15222973 26.66565749 -0.24917215 28.33656496 -0.31640625 30.0078125 C-0.35830078 30.99394531 -0.40019531 31.98007813 -0.44335938 32.99609375 C-0.48267578 34.02863281 -0.52199219 35.06117187 -0.5625 36.125 C-0.60568359 37.16527344 -0.64886719 38.20554688 -0.69335938 39.27734375 C-0.79962768 41.8513983 -0.90033527 44.42568131 -1 47 C2.96 47 6.92 47 11 47 C11 50.96 11 54.92 11 59 C14.63 59 18.26 59 22 59 C22 62.63 22 66.26 22 70 C21.67 70 21.34 70 21 70 C21 67.03 21 64.06 21 61 C20.30132812 61.03480469 19.60265625 61.06960937 18.8828125 61.10546875 C17.51769531 61.14607422 17.51769531 61.14607422 16.125 61.1875 C15.22007813 61.22230469 14.31515625 61.25710937 13.3828125 61.29296875 C12.20332031 61.14794922 12.20332031 61.14794922 11 61 C8.19836974 56.7975546 8.85510288 53.99895065 9 49 C3.555 49.495 3.555 49.495 -2 50 C-3.04316223 46.87051332 -3.12913269 44.66156237 -3.1328125 41.37890625 C-3.13410156 40.27869141 -3.13539062 39.17847656 -3.13671875 38.04492188 C-3.13285156 36.89572266 -3.12898438 35.74652344 -3.125 34.5625 C-3.12886719 33.41716797 -3.13273437 32.27183594 -3.13671875 31.09179688 C-3.13542969 29.99029297 -3.13414063 28.88878906 -3.1328125 27.75390625 C-3.13112061 26.24292358 -3.13112061 26.24292358 -3.12939453 24.70141602 C-3.01361537 22.28425296 -2.63417351 20.31844149 -2 18 C-1.77711499 15.41343327 -1.58685615 12.84047222 -1.4375 10.25 C-1.39431641 9.55261719 -1.35113281 8.85523437 -1.30664062 8.13671875 C-1.20110404 6.42468078 -1.1001009 4.71236439 -1 3 C-4.3 3 -7.6 3 -11 3 C-11 20.82 -11 38.64 -11 57 C-8.03 57.33 -5.06 57.66 -2 58 C-2 58.33 -2 58.66 -2 59 C-6.95 59.495 -6.95 59.495 -12 60 C-13.30760893 57.38478215 -13.11997548 55.46886599 -13.11352539 52.54052734 C-13.11344986 51.39949554 -13.11337433 50.25846375 -13.11329651 49.08285522 C-13.10813522 47.84637238 -13.10297394 46.60988953 -13.09765625 45.3359375 C-13.0962413 44.07359283 -13.09482635 42.81124817 -13.09336853 41.51065063 C-13.08871078 38.15361701 -13.07972408 34.796651 -13.06866455 31.43963623 C-13.0584377 28.01445094 -13.05386818 24.58925866 -13.04882812 21.1640625 C-13.03778238 14.44268957 -13.02103194 7.72134869 -13 1 C-11.20843648 0.83222817 -9.4167455 0.66581706 -7.625 0.5 C-6.62726562 0.4071875 -5.62953125 0.314375 -4.6015625 0.21875 C-2 0 -2 0 0 0 Z " fill="#1028B3" transform="translate(64,56)"/>
<path d="M0 0 C3.96 0 7.92 0 12 0 C12 3.63 12 7.26 12 11 C15.96 11 19.92 11 24 11 C24 14.96 24 18.92 24 23 C24.99 22.67 25.98 22.34 27 22 C29.33299825 21.96045766 31.66708189 21.95598268 34 22 C34 22.66 34 23.32 34 24 C32.35492782 24.19406478 30.70890406 24.38007935 29.0625 24.5625 C28.14597656 24.66691406 27.22945312 24.77132812 26.28515625 24.87890625 C25.15400391 24.93884766 25.15400391 24.93884766 24 25 C23 24 23 24 22.90234375 21.27734375 C22.93489583 18.18489583 22.96744792 15.09244792 23 12 C19.04 12 15.08 12 11 12 C11 8.37 11 4.74 11 1 C7.7 1 4.4 1 1 1 C1.04125 2.60875 1.0825 4.2175 1.125 5.875 C1.1953125 8.6171875 1.1953125 8.6171875 1 11 C-1 13 -1 13 -2.9453125 13.1953125 C-4.96354167 13.13020833 -6.98177083 13.06510417 -9 13 C-9 16.63 -9 20.26 -9 24 C-12.96 24 -16.92 24 -21 24 C-20.979375 25.629375 -20.95875 27.25875 -20.9375 28.9375 C-20.91613932 30.62499341 -20.92794489 32.31391034 -21 34 C-22 35 -22 35 -24.28515625 35.09765625 C-25.65994141 35.08025391 -25.65994141 35.08025391 -27.0625 35.0625 C-27.98160156 35.05347656 -28.90070313 35.04445312 -29.84765625 35.03515625 C-30.55792969 35.02355469 -31.26820312 35.01195312 -32 35 C-32 37.97 -32 40.94 -32 44 C-25.73 44 -19.46 44 -13 44 C-13.020625 42.370625 -13.04125 40.74125 -13.0625 39.0625 C-13.08386068 37.37500659 -13.07205511 35.68608966 -13 34 C-12 33 -12 33 -9.27734375 32.90234375 C-8.17519531 32.91394531 -7.07304688 32.92554688 -5.9375 32.9375 C-4.83277344 32.94652344 -3.72804688 32.95554688 -2.58984375 32.96484375 C-1.73519531 32.97644531 -0.88054687 32.98804688 0 33 C0 33.66 0 34.32 0 35 C-3.63 35 -7.26 35 -11 35 C-11 38.3 -11 41.6 -11 45 C-18.26 45 -25.52 45 -33 45 C-33 41.37 -33 37.74 -33 34 C-29.7 34 -26.4 34 -23 34 C-23 30.37 -23 26.74 -23 23 C-19.18939869 22.29105092 -15.91978817 22 -12 22 C-11.67 18.37 -11.34 14.74 -11 11 C-7.7 10.67 -4.4 10.34 -1 10 C-0.67 6.7 -0.34 3.4 0 0 Z " fill="#DA1906" transform="translate(108,46)"/>
<path d="M0 0 C3.63 0 7.26 0 11 0 C12.03444628 3.10333883 12.12083424 5.22876249 12.11352539 8.48120117 C12.11344986 9.60213669 12.11337433 10.7230722 12.11329651 11.87797546 C12.10813522 13.08742325 12.10297394 14.29687103 12.09765625 15.54296875 C12.0962413 16.78170242 12.09482635 18.0204361 12.09336853 19.29670715 C12.08871602 22.58631537 12.0797339 25.8758746 12.06866455 29.16546631 C12.05842629 32.52371623 12.05386574 35.88197333 12.04882812 39.24023438 C12.03779145 45.82684212 12.02104767 52.41341705 12 59 C8.08263419 60.1700097 5.02040985 59.69584017 1 59 C1 58.34 1 57.68 1 57 C3.97 57 6.94 57 10 57 C10 38.85 10 20.7 10 2 C7.36 2 4.72 2 2 2 C2.00222061 2.5593222 2.00444122 3.11864441 2.00672913 3.69491577 C2.02880582 9.50200768 2.04391661 15.30908772 2.05493164 21.11621094 C2.05996891 23.28516117 2.06679891 25.454108 2.07543945 27.62304688 C2.08753151 30.73568563 2.09323428 33.8482796 2.09765625 36.9609375 C2.10281754 37.934935 2.10797882 38.9089325 2.11329651 39.91244507 C2.11337204 40.81322784 2.11344757 41.71401062 2.11352539 42.64208984 C2.115746 43.43706879 2.11796661 44.23204773 2.12025452 45.05111694 C2 47 2 47 1 49 C-2.63 49 -6.26 49 -10 49 C-10 51.97 -10 54.94 -10 58 C-10.33 58 -10.66 58 -11 58 C-11 54.37 -11 50.74 -11 47 C-7.37 47 -3.74 47 0 47 C0 39.74 0 32.48 0 25 C-0.66 25 -1.32 25 -2 25 C-1.67 24.34 -1.34 23.68 -1 23 C-0.84733388 21.26131256 -0.75067404 19.51752499 -0.68359375 17.7734375 C-0.64169922 16.7421875 -0.59980469 15.7109375 -0.55664062 14.6484375 C-0.51732422 13.56820312 -0.47800781 12.48796875 -0.4375 11.375 C-0.39431641 10.28703125 -0.35113281 9.1990625 -0.30664062 8.078125 C-0.20035573 5.3855743 -0.09965496 2.69280424 0 0 Z " fill="#1C35AD" transform="translate(165,56)"/>
<path d="M0 0 C0.33 0 0.66 0 1 0 C1 3.3 1 6.6 1 10 C4.63 10 8.26 10 12 10 C12 13.3 12 16.6 12 20 C15.3 20 18.6 20 22 20 C22 16.7 22 13.4 22 10 C25.96 10 29.92 10 34 10 C34 28.48 34 46.96 34 66 C37.3 66 40.6 66 44 66 C44 47.52 44 29.04 44 10 C47.63 10 51.26 10 55 10 C55 10.33 55 10.66 55 11 C51.7 11 48.4 11 45 11 C45 29.48 45 47.96 45 67 C41.04 67 37.08 67 33 67 C33 48.52 33 30.04 33 11 C29.7 11 26.4 11 23 11 C23.33 14.63 23.66 18.26 24 22 C19.71 22 15.42 22 11 22 C11 18.37 11 14.74 11 11 C7.37 11 3.74 11 0 11 C0 7.37 0 3.74 0 0 Z " fill="#E0D82F" transform="translate(75,104)"/>
<path d="M0 0 C0.33 0.66 0.66 1.32 1 2 C3.97 2 6.94 2 10 2 C10 5.63 10 9.26 10 13 C17.26 13 24.52 13 32 13 C32 9.7 32 6.4 32 3 C35.63 3 39.26 3 43 3 C43 10.26 43 17.52 43 25 C42.67 25 42.34 25 42 25 C42 18.07 42 11.14 42 4 C39.36 4.33 36.72 4.66 34 5 C34.01160156 5.63808594 34.02320313 6.27617188 34.03515625 6.93359375 C34.04417969 7.75988281 34.05320313 8.58617188 34.0625 9.4375 C34.07410156 10.26121094 34.08570313 11.08492187 34.09765625 11.93359375 C34 14 34 14 33 15 C31.23140807 15.09946453 29.45888549 15.13080217 27.6875 15.1328125 C26.61242187 15.13410156 25.53734375 15.13539062 24.4296875 15.13671875 C23.29789063 15.13285156 22.16609375 15.12898438 21 15.125 C19.86820313 15.12886719 18.73640625 15.13273437 17.5703125 15.13671875 C16.49523437 15.13542969 15.42015625 15.13414063 14.3125 15.1328125 C13.31863281 15.13168457 12.32476562 15.13055664 11.30078125 15.12939453 C9 15 9 15 8 14 C7.92794489 12.31391034 7.91613932 10.62499341 7.9375 8.9375 C7.94652344 8.01839844 7.95554687 7.09929687 7.96484375 6.15234375 C7.97644531 5.44207031 7.98804687 4.73179688 8 4 C5.36 4 2.72 4 0 4 C0 10.6 0 17.2 0 24 C2.97 24 5.94 24 9 24 C9 24.33 9 24.66 9 25 C5.37 25 1.74 25 -2 25 C-2.05384114 21.39563487 -2.0935974 17.79207022 -2.125 14.1875 C-2.14175781 13.16333984 -2.15851562 12.13917969 -2.17578125 11.08398438 C-2.18222656 10.10107422 -2.18867187 9.11816406 -2.1953125 8.10546875 C-2.20578613 7.19949951 -2.21625977 6.29353027 -2.22705078 5.36010742 C-2 3 -2 3 0 0 Z " fill="#EDCC41" transform="translate(65,78)"/>
<path d="M0 0 C1.60875 -0.020625 3.2175 -0.04125 4.875 -0.0625 C5.77992188 -0.07410156 6.68484375 -0.08570312 7.6171875 -0.09765625 C10 0 10 0 12 1 C12 8.26 12 15.52 12 23 C8.37 23 4.74 23 1 23 C1 22.34 1 21.68 1 21 C3.97 21 6.94 21 10 21 C10 15.72 10 10.44 10 5 C8.35 5.66 6.7 6.32 5 7 C5 7.66 5 8.32 5 9 C4.34 9 3.68 9 3 9 C2.34 9.66 1.68 10.32 1 11 C0.67 7.37 0.34 3.74 0 0 Z " fill="#EFE841" transform="translate(153,80)"/>
<path d="M0 0 C3.96 0 7.92 0 12 0 C12 3.63 12 7.26 12 11 C15.96 11 19.92 11 24 11 C24 14.96 24 18.92 24 23 C24.99 22.67 25.98 22.34 27 22 C29.33299825 21.96045766 31.66708189 21.95598268 34 22 C34 22.66 34 23.32 34 24 C32.35492782 24.19406478 30.70890406 24.38007935 29.0625 24.5625 C28.14597656 24.66691406 27.22945312 24.77132812 26.28515625 24.87890625 C25.15400391 24.93884766 25.15400391 24.93884766 24 25 C23 24 23 24 22.90234375 21.27734375 C22.93489583 18.18489583 22.96744792 15.09244792 23 12 C19.04 12 15.08 12 11 12 C11 8.37 11 4.74 11 1 C7.7 1 4.4 1 1 1 C1.020625 2.629375 1.04125 4.25875 1.0625 5.9375 C1.08386068 7.62499341 1.07205511 9.31391034 1 11 C0 12 0 12 -2.28515625 12.09765625 C-4.85677083 12.06510417 -7.42838542 12.03255208 -10 12 C-10 15.3 -10 18.6 -10 22 C-10.33 22 -10.66 22 -11 22 C-11 18.37 -11 14.74 -11 11 C-7.7 10.67 -4.4 10.34 -1 10 C-0.67 6.7 -0.34 3.4 0 0 Z " fill="#B10F0F" transform="translate(108,46)"/>
<path d="M0 0 C2.31 0 4.62 0 7 0 C8.03444628 3.10333883 8.12083424 5.22876249 8.11352539 8.48120117 C8.11344986 9.60213669 8.11337433 10.7230722 8.11329651 11.87797546 C8.10813522 13.08742325 8.10297394 14.29687103 8.09765625 15.54296875 C8.0962413 16.78170242 8.09482635 18.0204361 8.09336853 19.29670715 C8.08871602 22.58631537 8.0797339 25.8758746 8.06866455 29.16546631 C8.05842629 32.52371623 8.05386574 35.88197333 8.04882812 39.24023438 C8.03779145 45.82684212 8.02104767 52.41341705 8 59 C4.08263419 60.1700097 1.02040985 59.69584017 -3 59 C-3 58.34 -3 57.68 -3 57 C-0.03 57 2.94 57 6 57 C6 38.85 6 20.7 6 2 C3.03 1.505 3.03 1.505 0 1 C0 0.67 0 0.34 0 0 Z " fill="#0A30C3" transform="translate(169,56)"/>
<path d="M0 0 C0.33 0 0.66 0 1 0 C1 3.3 1 6.6 1 10 C4.63 10 8.26 10 12 10 C12 13.3 12 16.6 12 20 C15.3 20 18.6 20 22 20 C22 16.7 22 13.4 22 10 C25.96 10 29.92 10 34 10 C34 14.62 34 19.24 34 24 C33.67 24 33.34 24 33 24 C33 19.71 33 15.42 33 11 C29.7 11 26.4 11 23 11 C23.33 14.63 23.66 18.26 24 22 C19.71 22 15.42 22 11 22 C11 18.37 11 14.74 11 11 C7.37 11 3.74 11 0 11 C0 7.37 0 3.74 0 0 Z " fill="#D5D360" transform="translate(75,104)"/>
<path d="M0 0 C0.99 0.495 0.99 0.495 2 1 C2.47574438 3.54024004 2.84007547 6.00051464 3.125 8.5625 C3.21136719 9.27341797 3.29773438 9.98433594 3.38671875 10.71679688 C3.59934783 12.47689312 3.80072697 14.23834164 4 16 C3.01 16.33 2.02 16.66 1 17 C1 17.99 1 18.98 1 20 C3.97 20 6.94 20 10 20 C10 13.73 10 7.46 10 1 C10.33 1 10.66 1 11 1 C11 7.93 11 14.86 11 22 C7.37 22 3.74 22 0 22 C0 14.74 0 7.48 0 0 Z " fill="#E82000" transform="translate(108,81)"/>
<path d="M0 0 C3.63 0 7.26 0 11 0 C11 0.33 11 0.66 11 1 C7.7 1 4.4 1 1 1 C1 18.82 1 36.64 1 55 C3.97 55.33 6.94 55.66 10 56 C10 56.33 10 56.66 10 57 C5.05 57.495 5.05 57.495 0 58 C-1.30495314 55.39009372 -1.08067008 53.55320616 -1.02172852 50.63232422 C-1.00163223 49.51131317 -0.98153595 48.39030212 -0.96083069 47.23532104 C-0.93379562 46.02071198 -0.90676056 44.80610291 -0.87890625 43.5546875 C-0.85529526 42.31453888 -0.83168427 41.07439026 -0.80735779 39.79666138 C-0.74364252 36.49875097 -0.67544603 33.20097268 -0.60510254 29.90319824 C-0.53442463 26.5384034 -0.46960444 23.17349635 -0.40429688 19.80859375 C-0.27494635 13.20560936 -0.13914882 6.60278489 0 0 Z " fill="#0C2CD1" transform="translate(52,58)"/>
<path d="M0 0 C0.33 1.32 0.66 2.64 1 4 C-2.81756824 5.37432457 -6.07255329 4.67975039 -10 4 C-10 3.34 -10 2.68 -10 2 C-7.03 2 -4.06 2 -1 2 C-0.67 1.34 -0.34 0.68 0 0 Z " fill="#031DBF" transform="translate(176,111)"/>
<path d="M0 0 C0.33 0 0.66 0 1 0 C1 2.31 1 4.62 1 7 C3.97 7.33 6.94 7.66 10 8 C10 8.33 10 8.66 10 9 C6.7 9.33 3.4 9.66 0 10 C-1.6415049 6.7169902 -0.51888624 3.57454967 0 0 Z " fill="#0927C5" transform="translate(52,106)"/>
<path d="M0 0 C3.63 0 7.26 0 11 0 C11 0.66 11 1.32 11 2 C7.7 2.33 4.4 2.66 1 3 C0.67 2.01 0.34 1.02 0 0 Z " fill="#CB0503" transform="translate(131,68)"/>
<path d="M0 0 C2.64 0 5.28 0 8 0 C8 0.99 8 1.98 8 3 C5.36 2.67 2.72 2.34 0 2 C0 1.34 0 0.68 0 0 Z " fill="#FDF114" transform="translate(155,81)"/>
</svg>
