<?xml version="1.0" encoding="UTF-8"?>
<svg version="1.1" xmlns="http://www.w3.org/2000/svg" width="400" height="367">
<path d="M0 0 C38.94 0 77.88 0 118 0 C118 8.25 118 16.5 118 25 C123.92066406 24.98259766 123.92066406 24.98259766 129.9609375 24.96484375 C133.77018147 24.95705222 137.57942457 24.950976 141.38867188 24.94506836 C144.04264725 24.94002958 146.69661984 24.93319849 149.35058594 24.92456055 C153.15821011 24.91247511 156.96579769 24.90676725 160.7734375 24.90234375 C161.96617279 24.89718246 163.15890808 24.89202118 164.38778687 24.88670349 C165.48877716 24.88662796 166.58976746 24.88655243 167.72412109 24.88647461 C169.1830629 24.88314369 169.1830629 24.88314369 170.67147827 24.87974548 C173 25 173 25 175 26 C175 33.59 175 41.18 175 49 C176.68609375 48.97679687 178.3721875 48.95359375 180.109375 48.9296875 C182.32291224 48.91092871 184.53645427 48.89272863 186.75 48.875 C187.86117188 48.85824219 188.97234375 48.84148438 190.1171875 48.82421875 C191.72207031 48.81455078 191.72207031 48.81455078 193.359375 48.8046875 C194.34389648 48.79421387 195.32841797 48.78374023 196.34277344 48.77294922 C200.23532715 49.10555441 202.26291871 50.26291871 205 53 C205.22705078 55.33837891 205.22705078 55.33837891 205.1953125 58.2265625 C205.19031738 59.15549316 205.18532227 60.08442383 205.18017578 61.04150391 C205.16196777 62.22405762 205.14375977 63.40661133 205.125 64.625 C205.08375 68.37875 205.0425 72.1325 205 76 C213.58 76 222.16 76 231 76 C232.38308781 78.76617563 232.11210196 81.01018 232.09765625 84.1015625 C232.09443359 85.31328125 232.09121094 86.525 232.08789062 87.7734375 C232.07951172 89.04445313 232.07113281 90.31546875 232.0625 91.625 C232.05798828 92.90375 232.05347656 94.1825 232.04882812 95.5 C232.03701203 98.66671292 232.02053815 101.83333356 232 105 C227.90658501 105.02469575 223.81319879 105.04285793 219.71972656 105.05493164 C218.32681523 105.0599643 216.9339092 105.06679098 215.54101562 105.07543945 C213.54038754 105.08755152 211.53972112 105.09270412 209.5390625 105.09765625 C208.33459473 105.10289307 207.13012695 105.10812988 205.88916016 105.11352539 C203 105 203 105 201 104 C201 96.41 201 88.82 201 81 C183.18 81 165.36 81 147 81 C147 88.59 147 96.18 147 104 C146.01 104.99 145.02 105.98 144 107 C135.42 107 126.84 107 118 107 C118 130.76 118 154.52 118 179 C126.58 179 135.16 179 144 179 C145.485 180.485 145.485 180.485 147 182 C147 189.92 147 197.84 147 206 C164.82 206 182.64 206 201 206 C201 198.74 201 191.48 201 184 C192.09 184 183.18 184 174 184 C174 167.17 174 150.34 174 133 C181.6511258 132.97904439 189.30214799 132.9590073 196.95327759 132.94824982 C200.5160647 132.94296397 204.07882813 132.93589753 207.64160156 132.92456055 C211.72721591 132.91164086 215.81280506 132.90676771 219.8984375 132.90234375 C221.81878311 132.89460182 221.81878311 132.89460182 223.77792358 132.88670349 C224.95899689 132.88662796 226.14007019 132.88655243 227.35693359 132.88647461 C228.92246475 132.88314369 228.92246475 132.88314369 230.5196228 132.87974548 C233 133 233 133 235 134 C235 141.59 235 149.18 235 157 C242.92 157 250.84 157 259 157 C259 225.97 259 294.94 259 366 C249.1 366 239.2 366 229 366 C229 358.41 229 350.82 229 343 C227.31390625 343.04640625 225.6278125 343.0928125 223.890625 343.140625 C221.67710103 343.17814236 219.46355793 343.21454255 217.25 343.25 C216.13882812 343.28351563 215.02765625 343.31703125 213.8828125 343.3515625 C212.81289063 343.36445313 211.74296875 343.37734375 210.640625 343.390625 C209.65610352 343.41157227 208.67158203 343.43251953 207.65722656 343.45410156 C204.18609451 342.86090921 203.04847364 341.83579586 201 339 C200.54589844 336.43457031 200.54589844 336.43457031 200.609375 333.578125 C200.61936523 332.65418945 200.62935547 331.73025391 200.63964844 330.77832031 C200.67606445 329.61397461 200.71248047 328.44962891 200.75 327.25 C200.8325 323.5375 200.915 319.825 201 316 C192.42 316 183.84 316 175 316 C175.15789349 323.38975617 175.15789349 323.38975617 175.36035156 330.77832031 C175.3703418 331.70225586 175.38033203 332.62619141 175.390625 333.578125 C175.41157227 334.52075195 175.43251953 335.46337891 175.45410156 336.43457031 C174.85000101 339.84741367 173.78913051 340.98068823 171 343 C168.34277344 343.45410156 168.34277344 343.45410156 165.359375 343.390625 C163.75449219 343.37128906 163.75449219 343.37128906 162.1171875 343.3515625 C160.45042969 343.30128906 160.45042969 343.30128906 158.75 343.25 C157.62335938 343.23195313 156.49671875 343.21390625 155.3359375 343.1953125 C152.55692821 343.14821065 149.77835631 343.07646852 147 343 C147 350.26 147 357.52 147 365 C144.31900947 366.34049527 142.26688794 366.1198052 139.26513672 366.11352539 C138.06404266 366.11344986 136.86294861 366.11337433 135.62545776 366.11329651 C133.67230148 366.10555458 133.67230148 366.10555458 131.6796875 366.09765625 C130.33733167 366.09579138 128.99497516 366.0943678 127.65261841 366.09336853 C124.11804325 366.08954878 120.58350913 366.07972312 117.0489502 366.06866455 C113.44279546 366.05843878 109.83663391 366.05381365 106.23046875 366.04882812 C99.15360958 366.03863092 92.07686312 366.01905798 85 366 C85 349.5 85 333 85 316 C67.84 316 50.68 316 33 316 C33 332.5 33 349 33 366 C25.21861048 366.02095527 17.43732282 366.04099239 9.65592957 366.05175018 C6.03248897 366.05703616 2.40907168 366.06410284 -1.21435547 366.07543945 C-4.70268104 366.08628538 -8.19098398 366.09228047 -11.6793251 366.09487724 C-13.66137692 366.09763081 -15.6434196 366.1054401 -17.62545776 366.11329651 C-19.42709885 366.11340981 -19.42709885 366.11340981 -21.26513672 366.11352539 C-22.32658905 366.115746 -23.38804138 366.11796661 -24.48165894 366.12025452 C-27 366 -27 366 -29 365 C-29 357.74 -29 350.48 -29 343 C-30.83046875 343.04640625 -32.6609375 343.0928125 -34.546875 343.140625 C-36.94790037 343.17814102 -39.34894336 343.21454136 -41.75 343.25 C-43.55984375 343.30027344 -43.55984375 343.30027344 -45.40625 343.3515625 C-46.56640625 343.36445313 -47.7265625 343.37734375 -48.921875 343.390625 C-49.99018555 343.41157227 -51.05849609 343.43251953 -52.15917969 343.45410156 C-55 343 -55 343 -57.35546875 341.31445312 C-59.36479332 338.48660323 -59.46709485 337.01926824 -59.390625 333.578125 C-59.38063477 332.65418945 -59.37064453 331.73025391 -59.36035156 330.77832031 C-59.32393555 329.61397461 -59.28751953 328.44962891 -59.25 327.25 C-59.1675 323.5375 -59.085 319.825 -59 316 C-66.92 316 -74.84 316 -83 316 C-82.84210651 323.38975617 -82.84210651 323.38975617 -82.63964844 330.77832031 C-82.6296582 331.70225586 -82.61966797 332.62619141 -82.609375 333.578125 C-82.58842773 334.52075195 -82.56748047 335.46337891 -82.54589844 336.43457031 C-83.14999899 339.84741367 -84.21086949 340.98068823 -87 343 C-89.65722656 343.45410156 -89.65722656 343.45410156 -92.640625 343.390625 C-94.24550781 343.37128906 -94.24550781 343.37128906 -95.8828125 343.3515625 C-97.54957031 343.30128906 -97.54957031 343.30128906 -99.25 343.25 C-100.37664062 343.23195313 -101.50328125 343.21390625 -102.6640625 343.1953125 C-105.44307179 343.14821065 -108.22164369 343.07646852 -111 343 C-111 350.59 -111 358.18 -111 366 C-120.9 366 -130.8 366 -141 366 C-141 297.03 -141 228.06 -141 157 C-132.75 157 -124.5 157 -116 157 C-116.01571045 154.65285889 -116.0314209 152.30571777 -116.04760742 149.88745117 C-116.09727406 142.14021712 -116.13043725 134.3929761 -116.15543652 126.64562511 C-116.17110528 121.94750244 -116.19236555 117.24954261 -116.22631836 112.55151367 C-116.25886877 108.01926888 -116.27684389 103.48718091 -116.28463173 98.95482826 C-116.29018302 97.22401777 -116.30102313 95.49321604 -116.31719017 93.76247215 C-116.33890737 91.34170224 -116.34196937 88.92158377 -116.34057617 86.50073242 C-116.351362 85.78216064 -116.36214783 85.06358887 -116.3732605 84.32324219 C-116.35517689 81.42728141 -116.32743066 79.47206115 -114.64916992 77.05249023 C-112.12073929 75.43886115 -109.98898541 75.66357582 -107.01953125 75.70703125 C-105.85615234 75.71669922 -104.69277344 75.72636719 -103.49414062 75.73632812 C-102.27919922 75.76146484 -101.06425781 75.78660156 -99.8125 75.8125 C-98.58595703 75.82603516 -97.35941406 75.83957031 -96.09570312 75.85351562 C-93.06336336 75.88891259 -90.03190004 75.9382924 -87 76 C-87.01571045 74.97060303 -87.01571045 74.97060303 -87.03173828 73.92041016 C-87.07321874 70.82197711 -87.09930069 67.72360239 -87.125 64.625 C-87.14175781 63.54476562 -87.15851563 62.46453125 -87.17578125 61.3515625 C-87.18544922 59.8046875 -87.18544922 59.8046875 -87.1953125 58.2265625 C-87.21102295 56.79691162 -87.21102295 56.79691162 -87.22705078 55.33837891 C-87 53 -87 53 -85 51 C-81.84668992 49.0503544 -79.47627084 48.76190383 -75.796875 48.8046875 C-74.47187988 48.81218018 -74.47187988 48.81218018 -73.12011719 48.81982422 C-72.00797852 48.83803223 -70.89583984 48.85624023 -69.75 48.875 C-64.42875 48.936875 -64.42875 48.936875 -59 49 C-59 41.41 -59 33.82 -59 26 C-56.38478215 24.69239107 -54.46886599 24.88002452 -51.54052734 24.88647461 C-49.82897964 24.88658791 -49.82897964 24.88658791 -48.08285522 24.88670349 C-46.84637238 24.89186478 -45.60988953 24.89702606 -44.3359375 24.90234375 C-43.07359283 24.9037587 -41.81124817 24.90517365 -40.51065063 24.90663147 C-37.15361701 24.91128922 -33.796651 24.92027592 -30.43963623 24.93133545 C-27.01445104 24.9415623 -23.58925867 24.94618658 -20.1640625 24.95117188 C-13.44267015 24.96136816 -6.72139652 24.98094122 0 25 C0 16.75 0 8.5 0 0 Z M147 79 C147 79.33 147 79.66 147 80 C164.16 80 181.32 80 199 80 C199 79.67 199 79.34 199 79 C181.84 79 164.68 79 147 79 Z M-22 80 C-22 80.33 -22 80.66 -22 81 C-6.16 81 9.68 81 26 81 C26 80.67 26 80.34 26 80 C10.16 80 -5.68 80 -22 80 Z M-24 80 C-24.33 88.58 -24.66 97.16 -25 106 C-34.24 106.33 -43.48 106.66 -53 107 C-53 130.76 -53 154.52 -53 179 C-43.43 179 -33.86 179 -24 179 C-24 187.25 -24 195.5 -24 204 C-7.5 204 9 204 26 204 C26 197.4 26 190.8 26 184 C15.11 183.505 15.11 183.505 4 183 C3.67 166.5 3.34 150 3 133 C20.16 133 37.32 133 55 133 C55 124.42 55 115.84 55 107 C42.13 106.505 42.13 106.505 29 106 C28.67 98.08 28.34 90.16 28 82 C24.41382813 82.02320312 20.82765625 82.04640625 17.1328125 82.0703125 C13.6710648 82.08589653 10.20932096 82.09804839 6.74755859 82.10986328 C4.33608256 82.11993954 1.92461878 82.13360081 -0.48681641 82.15087891 C-3.94697085 82.1750559 -7.4069642 82.18646669 -10.8671875 82.1953125 C-11.95055389 82.20563507 -13.03392029 82.21595764 -14.15011597 82.22659302 C-15.1510025 82.22674408 -16.15188904 82.22689514 -17.18310547 82.22705078 C-18.50881058 82.23371262 -18.50881058 82.23371262 -19.86129761 82.24050903 C-22 82 -22 82 -24 80 Z M116 105 C116 130.08 116 155.16 116 181 C116.33 181 116.66 181 117 181 C117 155.92 117 130.84 117 105 C116.67 105 116.34 105 116 105 Z M-55 106 C-55 130.09 -55 154.18 -55 179 C-54.67 179 -54.34 179 -54 179 C-54 154.91 -54 130.82 -54 106 C-54.33 106 -54.66 106 -55 106 Z M56 107 C56 115.58 56 124.16 56 133 C56.33 133 56.66 133 57 133 C57 124.42 57 115.84 57 107 C56.67 107 56.34 107 56 107 Z M27 183 C27 189.93 27 196.86 27 204 C27.33 204 27.66 204 28 204 C28 197.07 28 190.14 28 183 C27.67 183 27.34 183 27 183 Z M202 184 C202 191.26 202 198.52 202 206 C202.33 206 202.66 206 203 206 C203 198.74 203 191.48 203 184 C202.67 184 202.34 184 202 184 Z M-22 205 C-22 205.33 -22 205.66 -22 206 C-6.16 206 9.68 206 26 206 C26 205.67 26 205.34 26 205 C10.16 205 -5.68 205 -22 205 Z M145 207 C145 207.33 145 207.66 145 208 C163.48 208 181.96 208 201 208 C201 207.67 201 207.34 201 207 C182.52 207 164.04 207 145 207 Z M-83 314 C-83 314.33 -83 314.66 -83 315 C-75.08 315 -67.16 315 -59 315 C-59 314.67 -59 314.34 -59 314 C-66.92 314 -74.84 314 -83 314 Z M33 314 C33 314.33 33 314.66 33 315 C50.16 315 67.32 315 85 315 C85 314.67 85 314.34 85 314 C67.84 314 50.68 314 33 314 Z M175 314 C175 314.33 175 314.66 175 315 C183.58 315 192.16 315 201 315 C201 314.67 201 314.34 201 314 C192.42 314 183.84 314 175 314 Z " fill="#2BBFF1" transform="translate(141,0)"/>
<path d="M0 0 C19.14 0 38.28 0 58 0 C58 15.84 58 31.68 58 48 C38.86 48 19.72 48 0 48 C0 32.16 0 16.32 0 0 Z " fill="#353435" transform="translate(315,134)"/>
<path d="M0 0 C18.15 0 36.3 0 55 0 C55 15.84 55 31.68 55 48 C36.85 48 18.7 48 0 48 C0 32.16 0 16.32 0 0 Z " fill="#323233" transform="translate(145,134)"/>
<path d="M0 0 C0.99 0 1.98 0 3 0 C3 8.25 3 16.5 3 25 C6.94710938 24.98839844 10.89421875 24.97679688 14.9609375 24.96484375 C18.77018147 24.95705222 22.57942457 24.950976 26.38867188 24.94506836 C29.04264725 24.94002958 31.69661984 24.93319849 34.35058594 24.92456055 C38.15821011 24.91247511 41.96579769 24.90676725 45.7734375 24.90234375 C46.96617279 24.89718246 48.15890808 24.89202118 49.38778687 24.88670349 C50.48877716 24.88662796 51.58976746 24.88655243 52.72412109 24.88647461 C54.1830629 24.88314369 54.1830629 24.88314369 55.67147827 24.87974548 C58 25 58 25 60 26 C60 33.59 60 41.18 60 49 C61.68609375 48.97679687 63.3721875 48.95359375 65.109375 48.9296875 C67.32291224 48.91092871 69.53645427 48.89272863 71.75 48.875 C72.86117187 48.85824219 73.97234375 48.84148438 75.1171875 48.82421875 C76.72207031 48.81455078 76.72207031 48.81455078 78.359375 48.8046875 C79.34389648 48.79421387 80.32841797 48.78374023 81.34277344 48.77294922 C85.23532715 49.10555441 87.26291871 50.26291871 90 53 C90.22705078 55.33837891 90.22705078 55.33837891 90.1953125 58.2265625 C90.19031738 59.15549316 90.18532227 60.08442383 90.18017578 61.04150391 C90.16196777 62.22405762 90.14375977 63.40661133 90.125 64.625 C90.08375 68.37875 90.0425 72.1325 90 76 C98.58 76 107.16 76 116 76 C117.38308781 78.76617563 117.11210196 81.01018 117.09765625 84.1015625 C117.09282227 85.91914063 117.09282227 85.91914063 117.08789062 87.7734375 C117.07532227 89.67996094 117.07532227 89.67996094 117.0625 91.625 C117.05798828 92.90375 117.05347656 94.1825 117.04882812 95.5 C117.03701203 98.66671292 117.02053815 101.83333356 117 105 C112.90658501 105.02469575 108.81319879 105.04285793 104.71972656 105.05493164 C103.32681523 105.0599643 101.9339092 105.06679098 100.54101562 105.07543945 C98.54038754 105.08755152 96.53972112 105.09270412 94.5390625 105.09765625 C93.33459473 105.10289307 92.13012695 105.10812988 90.88916016 105.11352539 C88 105 88 105 86 104 C86 96.41 86 88.82 86 81 C68.18 81 50.36 81 32 81 C32 88.59 32 96.18 32 104 C31.01 104.99 30.02 105.98 29 107 C20.42 107 11.84 107 3 107 C3 130.76 3 154.52 3 179 C11.58 179 20.16 179 29 179 C29.99 179.99 30.98 180.98 32 182 C32 189.92 32 197.84 32 206 C49.82 206 67.64 206 86 206 C86 198.74 86 191.48 86 184 C77.09 184 68.18 184 59 184 C59 183.34 59 182.68 59 182 C68.9 182 78.8 182 89 182 C89 190.58 89 199.16 89 208 C69.2 208 49.4 208 29 208 C29 199.42 29 190.84 29 182 C19.43 182 9.86 182 0 182 C0 156.26 0 130.52 0 104 C9.24 104 18.48 104 28 104 C27.96040724 95.48837175 27.96040724 95.48837175 27.90991211 86.97680664 C27.90741455 85.92356201 27.90491699 84.87031738 27.90234375 83.78515625 C27.89448853 82.15912476 27.89448853 82.15912476 27.88647461 80.50024414 C28 78 28 78 29 77 C30.81055025 76.90623947 32.62477201 76.8825589 34.43774414 76.88647461 C36.17943626 76.88658791 36.17943626 76.88658791 37.95631409 76.88670349 C39.85159096 76.89444542 39.85159096 76.89444542 41.78515625 76.90234375 C43.71408974 76.90446617 43.71408974 76.90446617 45.68199158 76.90663147 C49.10643443 76.91045582 52.53083509 76.92028538 55.95526123 76.93133545 C59.44738189 76.94155136 62.93950934 76.94612947 66.43164062 76.95117188 C73.28777953 76.96190774 80.1438834 76.97950386 87 77 C87 69.08 87 61.16 87 53 C77.1 53 67.2 53 57 53 C57 44.09 57 35.18 57 26 C38.19 26 19.38 26 0 26 C0 17.42 0 8.84 0 0 Z M32 79 C32 79.33 32 79.66 32 80 C49.16 80 66.32 80 84 80 C84 79.67 84 79.34 84 79 C66.84 79 49.68 79 32 79 Z M1 105 C1 130.08 1 155.16 1 181 C1.33 181 1.66 181 2 181 C2 155.92 2 130.84 2 105 C1.67 105 1.34 105 1 105 Z M87 184 C87 191.26 87 198.52 87 206 C87.33 206 87.66 206 88 206 C88 198.74 88 191.48 88 184 C87.67 184 87.34 184 87 184 Z " fill="#E9F7FC" transform="translate(256,0)"/>
<path d="M0 0 C18.15 0 36.3 0 55 0 C55 8.91 55 17.82 55 27 C64.24 27 73.48 27 83 27 C83 36.24 83 45.48 83 55 C65.18 55 47.36 55 29 55 C29 70.84 29 86.68 29 103 C37.58 103 46.16 103 55 103 C55 111.25 55 119.5 55 128 C36.85 128 18.7 128 0 128 C0 119.09 0 110.18 0 101 C-10.23 101 -20.46 101 -31 101 C-31 76.58 -31 52.16 -31 27 C-20.77 27 -10.54 27 0 27 C0 18.09 0 9.18 0 0 Z M3 1 C3 1.33 3 1.66 3 2 C18.84 2 34.68 2 51 2 C51 1.67 51 1.34 51 1 C35.16 1 19.32 1 3 1 Z M1 1 C0.67 9.58 0.34 18.16 0 27 C-9.24 27.33 -18.48 27.66 -28 28 C-28 51.76 -28 75.52 -28 100 C-18.43 100 -8.86 100 1 100 C1 108.25 1 116.5 1 125 C17.5 125 34 125 51 125 C51 118.4 51 111.8 51 105 C40.11 104.505 40.11 104.505 29 104 C28.67 87.5 28.34 71 28 54 C45.16 54 62.32 54 80 54 C80 45.42 80 36.84 80 28 C67.13 27.505 67.13 27.505 54 27 C53.67 19.08 53.34 11.16 53 3 C49.41382813 3.02320312 45.82765625 3.04640625 42.1328125 3.0703125 C38.6710648 3.08589653 35.20932096 3.09804839 31.74755859 3.10986328 C29.33608256 3.11993954 26.92461878 3.13360081 24.51318359 3.15087891 C21.05302915 3.1750559 17.5930358 3.18646669 14.1328125 3.1953125 C13.04944611 3.20563507 11.96607971 3.21595764 10.84988403 3.22659302 C9.8489975 3.22674408 8.84811096 3.22689514 7.81689453 3.22705078 C6.49118942 3.23371262 6.49118942 3.23371262 5.13870239 3.24050903 C3 3 3 3 1 1 Z M81 28 C81 36.58 81 45.16 81 54 C81.33 54 81.66 54 82 54 C82 45.42 82 36.84 82 28 C81.67 28 81.34 28 81 28 Z M52 104 C52 110.93 52 117.86 52 125 C52.33 125 52.66 125 53 125 C53 118.07 53 111.14 53 104 C52.67 104 52.34 104 52 104 Z M3 126 C3 126.33 3 126.66 3 127 C18.84 127 34.68 127 51 127 C51 126.67 51 126.34 51 126 C35.16 126 19.32 126 3 126 Z " fill="#D8EEF5" transform="translate(116,79)"/>
<path d="M0 0 C10.23 0 20.46 0 31 0 C31 8.58 31 17.16 31 26 C40.9 26 50.8 26 61 26 C61 34.58 61 43.16 61 52 C78.82 52 96.64 52 115 52 C115 34.84 115 17.68 115 0 C134.47 0 153.94 0 174 0 C174 17.49 174 34.98 174 53 C173.01 53 172.02 53 171 53 C171 36.5 171 20 171 3 C153.84 3 136.68 3 119 3 C119 19.5 119 36 119 53 C111.21861048 53.02095527 103.43732282 53.04099239 95.65592957 53.05175018 C92.03248897 53.05703616 88.40907168 53.06410284 84.78564453 53.07543945 C81.29731896 53.08628538 77.80901602 53.09228047 74.3206749 53.09487724 C72.33862308 53.09763081 70.3565804 53.1054401 68.37454224 53.11329651 C66.57290115 53.11340981 66.57290115 53.11340981 64.73486328 53.11352539 C63.14268478 53.11685631 63.14268478 53.11685631 61.51834106 53.12025452 C59 53 59 53 57 52 C57 44.74 57 37.48 57 30 C55.16953125 30.04640625 53.3390625 30.0928125 51.453125 30.140625 C49.05209963 30.17814102 46.65105664 30.21454136 44.25 30.25 C43.0434375 30.28351563 41.836875 30.31703125 40.59375 30.3515625 C38.85351562 30.37089844 38.85351562 30.37089844 37.078125 30.390625 C36.00981445 30.41157227 34.94150391 30.43251953 33.84082031 30.45410156 C31 30 31 30 28.64453125 28.31445312 C26.63520668 25.48660323 26.53290515 24.01926824 26.609375 20.578125 C26.61936523 19.65418945 26.62935547 18.73025391 26.63964844 17.77832031 C26.67606445 16.61397461 26.71248047 15.44962891 26.75 14.25 C26.87375 8.68125 26.87375 8.68125 27 3 C19.08 3 11.16 3 3 3 C3.15789349 10.38975617 3.15789349 10.38975617 3.36035156 17.77832031 C3.37533691 19.16422363 3.37533691 19.16422363 3.390625 20.578125 C3.41157227 21.52075195 3.43251953 22.46337891 3.45410156 23.43457031 C2.85000101 26.84741367 1.78913051 27.98068823 -1 30 C-3.65722656 30.45410156 -3.65722656 30.45410156 -6.640625 30.390625 C-7.71054687 30.37773437 -8.78046875 30.36484375 -9.8828125 30.3515625 C-10.99398437 30.31804687 -12.10515625 30.28453125 -13.25 30.25 C-14.37664063 30.23195313 -15.50328125 30.21390625 -16.6640625 30.1953125 C-19.44307179 30.14821065 -22.22164369 30.07646852 -25 30 C-25 37.59 -25 45.18 -25 53 C-25.99 53 -26.98 53 -28 53 C-28 44.09 -28 35.18 -28 26 C-18.76 26 -9.52 26 0 26 C0 17.42 0 8.84 0 0 Z M3 1 C3 1.33 3 1.66 3 2 C10.92 2 18.84 2 27 2 C27 1.67 27 1.34 27 1 C19.08 1 11.16 1 3 1 Z M119 1 C119 1.33 119 1.66 119 2 C136.16 2 153.32 2 171 2 C171 1.67 171 1.34 171 1 C153.84 1 136.68 1 119 1 Z " fill="#D6F2FC" transform="translate(55,313)"/>
<path d="M0 0 C8.91 0 17.82 0 27 0 C27 8.25 27 16.5 27 25 C18.09 25 9.18 25 0 25 C0 16.75 0 8.5 0 0 Z " fill="#2FC0F2" transform="translate(345,79)"/>
<path d="M0 0 C0.99 0 1.98 0 3 0 C3 8.58 3 17.16 3 26 C-16.47 26 -35.94 26 -56 26 C-56 34.58 -56 43.16 -56 52 C-65.24 52 -74.48 52 -84 52 C-84 60.91 -84 69.82 -84 79 C-93.57 79 -103.14 79 -113 79 C-113 105.4 -113 131.8 -113 159 C-122.24 159 -131.48 159 -141 159 C-141 158.34 -141 157.68 -141 157 C-132.75 157 -124.5 157 -116 157 C-116.01571045 154.65285889 -116.0314209 152.30571777 -116.04760742 149.88745117 C-116.09727406 142.14021712 -116.13043725 134.3929761 -116.15543652 126.64562511 C-116.17110528 121.94750244 -116.19236555 117.24954261 -116.22631836 112.55151367 C-116.25886877 108.01926888 -116.27684389 103.48718091 -116.28463173 98.95482826 C-116.29018302 97.22401777 -116.30102313 95.49321604 -116.31719017 93.76247215 C-116.33890737 91.34170224 -116.34196937 88.92158377 -116.34057617 86.50073242 C-116.351362 85.78216064 -116.36214783 85.06358887 -116.3732605 84.32324219 C-116.35517689 81.42728141 -116.32743066 79.47206115 -114.64916992 77.05249023 C-112.12073929 75.43886115 -109.98898541 75.66357582 -107.01953125 75.70703125 C-105.85615234 75.71669922 -104.69277344 75.72636719 -103.49414062 75.73632812 C-102.27919922 75.76146484 -101.06425781 75.78660156 -99.8125 75.8125 C-98.58595703 75.82603516 -97.35941406 75.83957031 -96.09570312 75.85351562 C-93.06336336 75.88891259 -90.03190004 75.9382924 -87 76 C-87.01571045 74.97060303 -87.01571045 74.97060303 -87.03173828 73.92041016 C-87.07321874 70.82197711 -87.09930069 67.72360239 -87.125 64.625 C-87.14175781 63.54476562 -87.15851563 62.46453125 -87.17578125 61.3515625 C-87.18544922 59.8046875 -87.18544922 59.8046875 -87.1953125 58.2265625 C-87.21102295 56.79691162 -87.21102295 56.79691162 -87.22705078 55.33837891 C-87 53 -87 53 -85 51 C-81.84668992 49.0503544 -79.47627084 48.76190383 -75.796875 48.8046875 C-74.47187988 48.81218018 -74.47187988 48.81218018 -73.12011719 48.81982422 C-72.00797852 48.83803223 -70.89583984 48.85624023 -69.75 48.875 C-64.42875 48.936875 -64.42875 48.936875 -59 49 C-59 41.41 -59 33.82 -59 26 C-56.38478215 24.69239107 -54.46886599 24.88002452 -51.54052734 24.88647461 C-49.82897964 24.88658791 -49.82897964 24.88658791 -48.08285522 24.88670349 C-46.84637238 24.89186478 -45.60988953 24.89702606 -44.3359375 24.90234375 C-43.07359283 24.9037587 -41.81124817 24.90517365 -40.51065063 24.90663147 C-37.15361701 24.91128922 -33.796651 24.92027592 -30.43963623 24.93133545 C-27.01445104 24.9415623 -23.58925867 24.94618658 -20.1640625 24.95117188 C-13.44267015 24.96136816 -6.72139652 24.98094122 0 25 C0 16.75 0 8.5 0 0 Z " fill="#ECF9FD" transform="translate(141,0)"/>
<path d="M0 0 C0.99 0 1.98 0 3 0 C3 8.25 3 16.5 3 25 C6.94710938 24.98839844 10.89421875 24.97679688 14.9609375 24.96484375 C18.77018147 24.95705222 22.57942457 24.950976 26.38867188 24.94506836 C29.04264725 24.94002958 31.69661984 24.93319849 34.35058594 24.92456055 C38.15821011 24.91247511 41.96579769 24.90676725 45.7734375 24.90234375 C46.96617279 24.89718246 48.15890808 24.89202118 49.38778687 24.88670349 C50.48877716 24.88662796 51.58976746 24.88655243 52.72412109 24.88647461 C54.1830629 24.88314369 54.1830629 24.88314369 55.67147827 24.87974548 C58 25 58 25 60 26 C60 33.59 60 41.18 60 49 C61.68609375 48.97679687 63.3721875 48.95359375 65.109375 48.9296875 C67.32291224 48.91092871 69.53645427 48.89272863 71.75 48.875 C72.86117187 48.85824219 73.97234375 48.84148438 75.1171875 48.82421875 C76.72207031 48.81455078 76.72207031 48.81455078 78.359375 48.8046875 C79.34389648 48.79421387 80.32841797 48.78374023 81.34277344 48.77294922 C85.23532715 49.10555441 87.26291871 50.26291871 90 53 C90.22705078 55.33837891 90.22705078 55.33837891 90.1953125 58.2265625 C90.19031738 59.15549316 90.18532227 60.08442383 90.18017578 61.04150391 C90.16196777 62.22405762 90.14375977 63.40661133 90.125 64.625 C90.08375 68.37875 90.0425 72.1325 90 76 C98.58 76 107.16 76 116 76 C117.38308781 78.76617563 117.11210196 81.01018 117.09765625 84.1015625 C117.09515869 85.19291504 117.09266113 86.28426758 117.09008789 87.40869141 C117.08098389 88.80007324 117.07187988 90.19145508 117.0625 91.625 C117.041875 96.03875 117.02125 100.4525 117 105 C107.43 105 97.86 105 88 105 C87.505 92.13 87.505 92.13 87 79 C67.86 78.67 48.72 78.34 29 78 C29 77.67 29 77.34 29 77 C48.14 77 67.28 77 87 77 C87 69.08 87 61.16 87 53 C77.1 53 67.2 53 57 53 C57 44.09 57 35.18 57 26 C38.19 26 19.38 26 0 26 C0 17.42 0 8.84 0 0 Z M89 79 C89 87.25 89 95.5 89 104 C97.91 104 106.82 104 116 104 C116 95.75 116 87.5 116 79 C107.09 79 98.18 79 89 79 Z " fill="#DAF4FC" transform="translate(256,0)"/>
<path d="M0 0 C18.15 0 36.3 0 55 0 C55 8.91 55 17.82 55 27 C64.24 27 73.48 27 83 27 C83 35.91 83 44.82 83 54 C65.18 53.67 47.36 53.34 29 53 C29 52.67 29 52.34 29 52 C45.83 52 62.66 52 80 52 C80 44.74 80 37.48 80 30 C77.34517578 30.05220703 77.34517578 30.05220703 74.63671875 30.10546875 C72.32032197 30.13360312 70.00391495 30.16090366 67.6875 30.1875 C65.93663086 30.22520508 65.93663086 30.22520508 64.15039062 30.26367188 C63.03212891 30.27333984 61.91386719 30.28300781 60.76171875 30.29296875 C59.73006592 30.3086792 58.69841309 30.32438965 57.63549805 30.34057617 C54.63165531 29.95240011 53.86427468 29.29731636 52 27 C51.67 27 51.34 27 51 27 C51 19.08 51 11.16 51 3 C35.16 3 19.32 3 3 3 C3 10.92 3 18.84 3 27 C2.01 27 1.02 27 0 27 C0 18.09 0 9.18 0 0 Z M3 1 C3 1.33 3 1.66 3 2 C18.84 2 34.68 2 51 2 C51 1.67 51 1.34 51 1 C35.16 1 19.32 1 3 1 Z " fill="#E0F5FD" transform="translate(116,79)"/>
<path d="M0 0 C0.33 0 0.66 0 1 0 C1 7.59 1 15.18 1 23 C9.58 23 18.16 23 27 23 C28.38308781 25.76617563 28.11210196 28.01018 28.09765625 31.1015625 C28.09515869 32.19291504 28.09266113 33.28426758 28.09008789 34.40869141 C28.08098389 35.80007324 28.07187988 37.19145508 28.0625 38.625 C28.041875 43.03875 28.02125 47.4525 28 52 C18.43 52 8.86 52 -1 52 C-1.495 39.13 -1.495 39.13 -2 26 C-21.14 25.67 -40.28 25.34 -60 25 C-60 24.67 -60 24.34 -60 24 C-40.2 24 -20.4 24 0 24 C0 16.08 0 8.16 0 0 Z M0 26 C0 34.25 0 42.5 0 51 C8.91 51 17.82 51 27 51 C27 42.75 27 34.5 27 26 C18.09 26 9.18 26 0 26 Z " fill="#C5EDFB" transform="translate(345,53)"/>
<path d="M0 0 C7.65809552 -0.02314591 15.31618742 -0.0409266 22.97430992 -0.05181217 C26.53008635 -0.05703606 30.08583889 -0.06412478 33.64160156 -0.07543945 C37.72721591 -0.08835914 41.81280506 -0.09323229 45.8984375 -0.09765625 C47.81878311 -0.10539818 47.81878311 -0.10539818 49.77792358 -0.11329651 C50.95899689 -0.11337204 52.14007019 -0.11344757 53.35693359 -0.11352539 C54.92246475 -0.11685631 54.92246475 -0.11685631 56.5196228 -0.12025452 C59 0 59 0 61 1 C61 8.59 61 16.18 61 24 C68.92 24 76.84 24 85 24 C85 24.66 85 25.32 85 26 C76.09 26 67.18 26 58 26 C58 17.75 58 9.5 58 1 C38.86 1 19.72 1 0 1 C0 0.67 0 0.34 0 0 Z " fill="#E9F0F3" transform="translate(315,133)"/>
<path d="M0 0 C17.16 0 34.32 0 52 0 C52 8.58 52 17.16 52 26 C51.01 26 50.02 26 49 26 C49 18.08 49 10.16 49 2 C33.16 2 17.32 2 1 2 C1 9.92 1 17.84 1 26 C0.67 26 0.34 26 0 26 C0 17.42 0 8.84 0 0 Z " fill="#FCFEFF" transform="translate(118,80)"/>
<path d="M0 0 C18.48 0 36.96 0 56 0 C56 0.33 56 0.66 56 1 C37.52 1 19.04 1 0 1 C0 0.67 0 0.34 0 0 Z " fill="#FEFEFE" transform="translate(316,131)"/>
<path d="M0 0 C0.33 0 0.66 0 1 0 C1 15.84 1 31.68 1 48 C0.67 48 0.34 48 0 48 C0 32.16 0 16.32 0 0 Z " fill="#FDFDFD" transform="translate(313,134)"/>
<path d="M0 0 C0.33 0 0.66 0 1 0 C1 15.84 1 31.68 1 48 C0.67 48 0.34 48 0 48 C0 32.16 0 16.32 0 0 Z " fill="#FEFEFE" transform="translate(142,134)"/>
<path d="M0 0 C8.91 0 17.82 0 27 0 C27 0.33 27 0.66 27 1 C18.09 1 9.18 1 0 1 C0 0.67 0 0.34 0 0 Z " fill="#FEFFFF" transform="translate(345,106)"/>
<path d="M0 0 C0.33 0 0.66 0 1 0 C1 8.25 1 16.5 1 25 C0.67 25 0.34 25 0 25 C0 16.75 0 8.5 0 0 Z " fill="#FEFFFF" transform="translate(374,79)"/>
<path d="" fill="#FEFFFF" transform="translate(0,0)"/>
<path d="" fill="#FEFFFF" transform="translate(0,0)"/>
</svg>
