<?xml version="1.0" encoding="UTF-8"?>
<svg version="1.1" xmlns="http://www.w3.org/2000/svg" width="413" height="604">
<path d="M0 0 C1.6874269 0.00015917 3.37485866 0.00585622 5.06225586 0.01586914 C6.39189613 0.01799156 6.39189613 0.01799156 7.74839783 0.02015686 C10.59133215 0.02577324 13.43418892 0.03832848 16.27709961 0.05102539 C18.19962452 0.05603828 20.12215065 0.06060155 22.04467773 0.06469727 C26.76803925 0.07489891 31.49123219 0.09447102 36.21459961 0.11352539 C36.21459961 7.04352539 36.21459961 13.97352539 36.21459961 21.11352539 C42.81459961 21.11352539 49.41459961 21.11352539 56.21459961 21.11352539 C56.21459961 14.18352539 56.21459961 7.25352539 56.21459961 0.11352539 C69.74459961 0.11352539 83.27459961 0.11352539 97.21459961 0.11352539 C97.21459961 7.04352539 97.21459961 13.97352539 97.21459961 21.11352539 C103.81459961 21.11352539 110.41459961 21.11352539 117.21459961 21.11352539 C117.21459961 27.71352539 117.21459961 34.31352539 117.21459961 41.11352539 C123.81459961 41.11352539 130.41459961 41.11352539 137.21459961 41.11352539 C137.21459961 47.71352539 137.21459961 54.31352539 137.21459961 61.11352539 C143.81459961 61.11352539 150.41459961 61.11352539 157.21459961 61.11352539 C157.21459961 67.71352539 157.21459961 74.31352539 157.21459961 81.11352539 C163.75162811 81.0739428 163.75162811 81.0739428 170.28857422 81.0234375 C171.50299194 81.01969116 171.50299194 81.01969116 172.74194336 81.01586914 C173.99092407 81.00801392 173.99092407 81.00801392 175.26513672 81 C177.21459961 81.11352539 177.21459961 81.11352539 178.21459961 82.11352539 C178.30111572 83.52922662 178.32164865 84.94912039 178.31225586 86.36743164 C178.3090332 87.22143555 178.30581055 88.07543945 178.30249023 88.95532227 C178.29411133 89.8531543 178.28573242 90.75098633 178.27709961 91.67602539 C178.27258789 92.57772461 178.26807617 93.47942383 178.26342773 94.40844727 C178.25160185 96.64353853 178.23512181 98.87849976 178.21459961 101.11352539 C179.07009399 101.10567017 179.07009399 101.10567017 179.94287109 101.09765625 C182.51260284 101.07694318 185.08231707 101.06388349 187.65209961 101.05102539 C188.99884766 101.03845703 188.99884766 101.03845703 190.37280273 101.02563477 C191.22680664 101.02241211 192.08081055 101.01918945 192.96069336 101.01586914 C193.75145264 101.01063232 194.54221191 101.00539551 195.35693359 101 C197.21459961 101.11352539 197.21459961 101.11352539 198.21459961 102.11352539 C198.30993614 105.21859789 198.34011087 108.30138997 198.328125 111.40673828 C198.32827103 112.38224136 198.32841705 113.35774445 198.3285675 114.36280823 C198.32786794 117.60395492 198.32007352 120.84504493 198.31225586 124.08618164 C198.31039183 126.32677682 198.30896786 128.56737241 198.30796814 130.80796814 C198.30414174 136.71812049 198.29431041 142.62824844 198.28326416 148.53839111 C198.27305266 154.56408356 198.26847108 160.58977992 198.26342773 166.61547852 C198.25268825 178.44817155 198.23561037 190.28084645 198.21459961 202.11352539 C198.7849292 202.10828857 199.35525879 202.10305176 199.94287109 202.09765625 C202.51260284 202.07694318 205.08231707 202.06388349 207.65209961 202.05102539 C208.54993164 202.04264648 209.44776367 202.03426758 210.37280273 202.02563477 C211.65380859 202.02080078 211.65380859 202.02080078 212.96069336 202.01586914 C213.75145264 202.01063232 214.54221191 202.00539551 215.35693359 202 C217.21459961 202.11352539 217.21459961 202.11352539 218.21459961 203.11352539 C218.3032826 206.0705786 218.32980257 209.00417595 218.31225586 211.96118164 C218.31013344 213.29082191 218.31013344 213.29082191 218.30796814 214.64732361 C218.30235176 217.49025793 218.28979652 220.3331147 218.27709961 223.17602539 C218.27208672 225.0985503 218.26752345 227.02107644 218.26342773 228.94360352 C218.25322609 233.66696503 218.23365398 238.39015797 218.21459961 243.11352539 C211.61459961 243.11352539 205.01459961 243.11352539 198.21459961 243.11352539 C198.21459961 249.71352539 198.21459961 256.31352539 198.21459961 263.11352539 C191.61459961 263.11352539 185.01459961 263.11352539 178.21459961 263.11352539 C178.21459961 276.31352539 178.21459961 289.51352539 178.21459961 303.11352539 C184.81459961 303.11352539 191.41459961 303.11352539 198.21459961 303.11352539 C198.21459961 309.71352539 198.21459961 316.31352539 198.21459961 323.11352539 C218.01459961 323.11352539 237.81459961 323.11352539 258.21459961 323.11352539 C258.21459961 330.04352539 258.21459961 336.97352539 258.21459961 344.11352539 C264.81459961 344.11352539 271.41459961 344.11352539 278.21459961 344.11352539 C278.21459961 357.31352539 278.21459961 370.51352539 278.21459961 384.11352539 C271.61459961 384.11352539 265.01459961 384.11352539 258.21459961 384.11352539 C258.21459961 391.04352539 258.21459961 397.97352539 258.21459961 405.11352539 C238.41459961 405.11352539 218.61459961 405.11352539 198.21459961 405.11352539 C198.21459961 411.38352539 198.21459961 417.65352539 198.21459961 424.11352539 C197.21459961 425.11352539 197.21459961 425.11352539 195.35693359 425.22705078 C194.56617432 425.22181396 193.77541504 425.21657715 192.96069336 425.21118164 C191.80718384 425.2074353 191.80718384 425.2074353 190.63037109 425.20361328 C189.15612671 425.18995728 189.15612671 425.18995728 187.65209961 425.17602539 C182.98053711 425.14508789 182.98053711 425.14508789 178.21459961 425.11352539 C178.21459961 431.38352539 178.21459961 437.65352539 178.21459961 444.11352539 C184.81459961 444.11352539 191.41459961 444.11352539 198.21459961 444.11352539 C198.21459961 451.04352539 198.21459961 457.97352539 198.21459961 465.11352539 C204.81459961 465.11352539 211.41459961 465.11352539 218.21459961 465.11352539 C218.23715077 475.5269585 218.25551478 485.94037552 218.26641178 496.35382748 C218.27164057 501.18869366 218.27873815 506.02354233 218.29003906 510.85839844 C218.30086808 515.52029659 218.30687647 520.18217785 218.30947685 524.8440876 C218.31133108 526.62676828 218.31495164 528.40944798 218.32032967 530.19212151 C218.3275403 532.680185 218.32859054 535.16817782 218.328125 537.65625 C218.33172028 538.40071381 218.33531555 539.14517761 218.33901978 539.91220093 C218.32865177 544.99947323 218.32865177 544.99947323 217.21459961 546.11352539 C215.79889838 546.2000415 214.37900461 546.22057443 212.96069336 546.21118164 C211.80718384 546.2074353 211.80718384 546.2074353 210.63037109 546.20361328 C209.15612671 546.18995728 209.15612671 546.18995728 207.65209961 546.17602539 C202.98053711 546.14508789 202.98053711 546.14508789 198.21459961 546.11352539 C198.21459961 552.71352539 198.21459961 559.31352539 198.21459961 566.11352539 C184.68459961 566.11352539 171.15459961 566.11352539 157.21459961 566.11352539 C157.21459961 559.51352539 157.21459961 552.91352539 157.21459961 546.11352539 C150.61459961 546.11352539 144.01459961 546.11352539 137.21459961 546.11352539 C137.21459961 539.51352539 137.21459961 532.91352539 137.21459961 526.11352539 C135.4022583 526.11876221 133.58991699 526.12399902 131.72265625 526.12939453 C125.74754911 526.14549263 119.77244808 526.15699788 113.79732609 526.16533756 C110.17314001 526.17056541 106.54897731 526.17766126 102.92480469 526.18896484 C99.42999986 526.19979723 95.93521757 526.20580297 92.44039726 526.20840263 C90.45220572 526.2111609 88.4640233 526.21897227 86.47584534 526.2268219 C84.67409096 526.2269352 84.67409096 526.2269352 82.8359375 526.22705078 C81.77226456 526.22927139 80.70859161 526.231492 79.61268616 526.23377991 C77.21459961 526.11352539 77.21459961 526.11352539 76.21459961 525.11352539 C76.21459961 518.51352539 76.21459961 511.91352539 76.21459961 505.11352539 C49.81459961 505.11352539 23.41459961 505.11352539 -3.78540039 505.11352539 C-3.78540039 512.04352539 -3.78540039 518.97352539 -3.78540039 526.11352539 C-10.38540039 526.11352539 -16.98540039 526.11352539 -23.78540039 526.11352539 C-23.74582012 532.32145453 -23.74582012 532.32145453 -23.6953125 538.52929688 C-23.69281494 539.29830322 -23.69031738 540.06730957 -23.68774414 540.85961914 C-23.67988892 542.04575806 -23.67988892 542.04575806 -23.671875 543.25585938 C-23.78540039 545.11352539 -23.78540039 545.11352539 -24.78540039 546.11352539 C-26.65720979 546.2073892 -28.53258099 546.23096343 -30.40673828 546.22705078 C-31.60790787 546.22697525 -32.80907745 546.22689972 -34.04664612 546.2268219 C-35.35391159 546.22166061 -36.66117706 546.21649933 -38.00805664 546.21118164 C-39.35184171 546.20931737 -40.69562746 546.20789351 -42.03941345 546.20689392 C-45.58222316 546.20306941 -49.12499209 546.19323971 -52.66778564 546.18218994 C-56.28055266 546.17197438 -59.89332623 546.16739599 -63.50610352 546.16235352 C-70.59922078 546.15161737 -77.69230364 546.13402111 -84.78540039 546.11352539 C-84.78540039 539.51352539 -84.78540039 532.91352539 -84.78540039 526.11352539 C-91.38540039 526.11352539 -97.98540039 526.11352539 -104.78540039 526.11352539 C-104.78540039 492.45352539 -104.78540039 458.79352539 -104.78540039 424.11352539 C-98.18540039 424.11352539 -91.58540039 424.11352539 -84.78540039 424.11352539 C-84.78540039 417.51352539 -84.78540039 410.91352539 -84.78540039 404.11352539 C-71.58540039 404.11352539 -58.38540039 404.11352539 -44.78540039 404.11352539 C-44.78540039 397.51352539 -44.78540039 390.91352539 -44.78540039 384.11352539 C-57.98540039 384.11352539 -71.18540039 384.11352539 -84.78540039 384.11352539 C-84.78540039 377.51352539 -84.78540039 370.91352539 -84.78540039 364.11352539 C-91.38540039 364.11352539 -97.98540039 364.11352539 -104.78540039 364.11352539 C-104.78540039 350.58352539 -104.78540039 337.05352539 -104.78540039 323.11352539 C-98.18540039 323.11352539 -91.58540039 323.11352539 -84.78540039 323.11352539 C-84.78540039 316.51352539 -84.78540039 309.91352539 -84.78540039 303.11352539 C-64.98540039 303.11352539 -45.18540039 303.11352539 -24.78540039 303.11352539 C-24.78540039 296.51352539 -24.78540039 289.91352539 -24.78540039 283.11352539 C-31.38540039 283.11352539 -37.98540039 283.11352539 -44.78540039 283.11352539 C-44.78540039 276.51352539 -44.78540039 269.91352539 -44.78540039 263.11352539 C-57.98540039 263.11352539 -71.18540039 263.11352539 -84.78540039 263.11352539 C-84.78540039 256.51352539 -84.78540039 249.91352539 -84.78540039 243.11352539 C-78.18540039 243.11352539 -71.58540039 243.11352539 -64.78540039 243.11352539 C-64.78540039 229.58352539 -64.78540039 216.05352539 -64.78540039 202.11352539 C-58.18540039 202.11352539 -51.58540039 202.11352539 -44.78540039 202.11352539 C-44.78540039 188.91352539 -44.78540039 175.71352539 -44.78540039 162.11352539 C-51.38540039 162.11352539 -57.98540039 162.11352539 -64.78540039 162.11352539 C-64.78540039 155.51352539 -64.78540039 148.91352539 -64.78540039 142.11352539 C-71.38540039 142.11352539 -77.98540039 142.11352539 -84.78540039 142.11352539 C-84.78540039 128.58352539 -84.78540039 115.05352539 -84.78540039 101.11352539 C-78.18540039 101.11352539 -71.58540039 101.11352539 -64.78540039 101.11352539 C-64.78540039 94.51352539 -64.78540039 87.91352539 -64.78540039 81.11352539 C-58.18540039 81.11352539 -51.58540039 81.11352539 -44.78540039 81.11352539 C-44.78540039 67.91352539 -44.78540039 54.71352539 -44.78540039 41.11352539 C-38.18540039 41.11352539 -31.58540039 41.11352539 -24.78540039 41.11352539 C-24.78540039 34.51352539 -24.78540039 27.91352539 -24.78540039 21.11352539 C-18.18540039 21.11352539 -11.58540039 21.11352539 -4.78540039 21.11352539 C-4.82498298 14.57649689 -4.82498298 14.57649689 -4.87548828 8.03955078 C-4.87798584 7.22993896 -4.8804834 6.42032715 -4.88305664 5.58618164 C-4.88829346 4.75352783 -4.89353027 3.92087402 -4.89892578 3.06298828 C-4.6897201 -0.52950067 -3.7562619 0.11265152 0 0 Z " fill="#434553" transform="translate(119.785400390625,18.886474609375)"/>
<path d="M0 0 C1.6874269 0.00015917 3.37485866 0.00585622 5.06225586 0.01586914 C6.39189613 0.01799156 6.39189613 0.01799156 7.74839783 0.02015686 C10.59133215 0.02577324 13.43418892 0.03832848 16.27709961 0.05102539 C18.19962452 0.05603828 20.12215065 0.06060155 22.04467773 0.06469727 C26.76803925 0.07489891 31.49123219 0.09447102 36.21459961 0.11352539 C36.21459961 7.04352539 36.21459961 13.97352539 36.21459961 21.11352539 C42.81459961 21.11352539 49.41459961 21.11352539 56.21459961 21.11352539 C56.21459961 14.18352539 56.21459961 7.25352539 56.21459961 0.11352539 C69.74459961 0.11352539 83.27459961 0.11352539 97.21459961 0.11352539 C97.21459961 7.04352539 97.21459961 13.97352539 97.21459961 21.11352539 C103.81459961 21.11352539 110.41459961 21.11352539 117.21459961 21.11352539 C117.21459961 27.71352539 117.21459961 34.31352539 117.21459961 41.11352539 C123.81459961 41.11352539 130.41459961 41.11352539 137.21459961 41.11352539 C137.21459961 47.71352539 137.21459961 54.31352539 137.21459961 61.11352539 C143.81459961 61.11352539 150.41459961 61.11352539 157.21459961 61.11352539 C157.21459961 67.71352539 157.21459961 74.31352539 157.21459961 81.11352539 C163.75162811 81.0739428 163.75162811 81.0739428 170.28857422 81.0234375 C171.09818604 81.02093994 171.90779785 81.01844238 172.74194336 81.01586914 C173.99092407 81.00801392 173.99092407 81.00801392 175.26513672 81 C177.21459961 81.11352539 177.21459961 81.11352539 178.21459961 82.11352539 C178.30111572 83.52922662 178.32164865 84.94912039 178.31225586 86.36743164 C178.3090332 87.22143555 178.30581055 88.07543945 178.30249023 88.95532227 C178.29411133 89.8531543 178.28573242 90.75098633 178.27709961 91.67602539 C178.27258789 92.57772461 178.26807617 93.47942383 178.26342773 94.40844727 C178.25160185 96.64353853 178.23512181 98.87849976 178.21459961 101.11352539 C179.07009399 101.10567017 179.07009399 101.10567017 179.94287109 101.09765625 C182.51260284 101.07694318 185.08231707 101.06388349 187.65209961 101.05102539 C188.99884766 101.03845703 188.99884766 101.03845703 190.37280273 101.02563477 C191.22680664 101.02241211 192.08081055 101.01918945 192.96069336 101.01586914 C193.75145264 101.01063232 194.54221191 101.00539551 195.35693359 101 C197.21459961 101.11352539 197.21459961 101.11352539 198.21459961 102.11352539 C198.30993614 105.21859789 198.34011087 108.30138997 198.328125 111.40673828 C198.32827103 112.38224136 198.32841705 113.35774445 198.3285675 114.36280823 C198.32786794 117.60395492 198.32007352 120.84504493 198.31225586 124.08618164 C198.31039183 126.32677682 198.30896786 128.56737241 198.30796814 130.80796814 C198.30414174 136.71812049 198.29431041 142.62824844 198.28326416 148.53839111 C198.27305266 154.56408356 198.26847108 160.58977992 198.26342773 166.61547852 C198.25268825 178.44817155 198.23561037 190.28084645 198.21459961 202.11352539 C198.7849292 202.10828857 199.35525879 202.10305176 199.94287109 202.09765625 C202.51260284 202.07694318 205.08231707 202.06388349 207.65209961 202.05102539 C208.54993164 202.04264648 209.44776367 202.03426758 210.37280273 202.02563477 C211.65380859 202.02080078 211.65380859 202.02080078 212.96069336 202.01586914 C213.75145264 202.01063232 214.54221191 202.00539551 215.35693359 202 C217.21459961 202.11352539 217.21459961 202.11352539 218.21459961 203.11352539 C218.3032826 206.0705786 218.32980257 209.00417595 218.31225586 211.96118164 C218.31013344 213.29082191 218.31013344 213.29082191 218.30796814 214.64732361 C218.30235176 217.49025793 218.28979652 220.3331147 218.27709961 223.17602539 C218.27208672 225.0985503 218.26752345 227.02107644 218.26342773 228.94360352 C218.25322609 233.66696503 218.23365398 238.39015797 218.21459961 243.11352539 C211.61459961 243.11352539 205.01459961 243.11352539 198.21459961 243.11352539 C198.21459961 249.71352539 198.21459961 256.31352539 198.21459961 263.11352539 C191.61459961 263.11352539 185.01459961 263.11352539 178.21459961 263.11352539 C178.21459961 276.31352539 178.21459961 289.51352539 178.21459961 303.11352539 C184.81459961 303.11352539 191.41459961 303.11352539 198.21459961 303.11352539 C198.21459961 309.71352539 198.21459961 316.31352539 198.21459961 323.11352539 C218.01459961 323.11352539 237.81459961 323.11352539 258.21459961 323.11352539 C258.21459961 330.04352539 258.21459961 336.97352539 258.21459961 344.11352539 C231.48459961 344.11352539 204.75459961 344.11352539 177.21459961 344.11352539 C177.21459961 337.51352539 177.21459961 330.91352539 177.21459961 324.11352539 C170.61459961 324.11352539 164.01459961 324.11352539 157.21459961 324.11352539 C157.21459961 317.51352539 157.21459961 310.91352539 157.21459961 304.11352539 C144.01459961 304.11352539 130.81459961 304.11352539 117.21459961 304.11352539 C117.21459961 310.38352539 117.21459961 316.65352539 117.21459961 323.11352539 C116.88459961 323.11352539 116.55459961 323.11352539 116.21459961 323.11352539 C116.21459961 316.51352539 116.21459961 309.91352539 116.21459961 303.11352539 C109.94459961 303.11352539 103.67459961 303.11352539 97.21459961 303.11352539 C97.21459961 296.51352539 97.21459961 289.91352539 97.21459961 283.11352539 C110.41459961 283.11352539 123.61459961 283.11352539 137.21459961 283.11352539 C137.21459961 276.51352539 137.21459961 269.91352539 137.21459961 263.11352539 C150.41459961 263.11352539 163.61459961 263.11352539 177.21459961 263.11352539 C177.21459961 256.51352539 177.21459961 249.91352539 177.21459961 243.11352539 C183.81459961 243.11352539 190.41459961 243.11352539 197.21459961 243.11352539 C197.21459961 229.91352539 197.21459961 216.71352539 197.21459961 203.11352539 C190.61459961 203.11352539 184.01459961 203.11352539 177.21459961 203.11352539 C177.21459961 196.51352539 177.21459961 189.91352539 177.21459961 183.11352539 C170.61459961 183.11352539 164.01459961 183.11352539 157.21459961 183.11352539 C157.21459961 195.98352539 157.21459961 208.85352539 157.21459961 222.11352539 C150.61459961 222.11352539 144.01459961 222.11352539 137.21459961 222.11352539 C137.21459961 229.04352539 137.21459961 235.97352539 137.21459961 243.11352539 C130.61459961 243.11352539 124.01459961 243.11352539 117.21459961 243.11352539 C117.21459961 236.18352539 117.21459961 229.25352539 117.21459961 222.11352539 C110.61459961 222.11352539 104.01459961 222.11352539 97.21459961 222.11352539 C97.21459961 215.51352539 97.21459961 208.91352539 97.21459961 202.11352539 C103.48459961 202.11352539 109.75459961 202.11352539 116.21459961 202.11352539 C116.21459961 188.91352539 116.21459961 175.71352539 116.21459961 162.11352539 C109.61459961 162.11352539 103.01459961 162.11352539 96.21459961 162.11352539 C96.21459961 155.51352539 96.21459961 148.91352539 96.21459961 142.11352539 C83.34459961 142.11352539 70.47459961 142.11352539 57.21459961 142.11352539 C57.21459961 155.64352539 57.21459961 169.17352539 57.21459961 183.11352539 C37.08459961 183.11352539 16.95459961 183.11352539 -3.78540039 183.11352539 C-3.78540039 169.58352539 -3.78540039 156.05352539 -3.78540039 142.11352539 C-10.38540039 142.11352539 -16.98540039 142.11352539 -23.78540039 142.11352539 C-23.78540039 162.24352539 -23.78540039 182.37352539 -23.78540039 203.11352539 C-30.38540039 203.11352539 -36.98540039 203.11352539 -43.78540039 203.11352539 C-43.78540039 216.31352539 -43.78540039 229.51352539 -43.78540039 243.11352539 C-37.18540039 243.11352539 -30.58540039 243.11352539 -23.78540039 243.11352539 C-23.78540039 249.71352539 -23.78540039 256.31352539 -23.78540039 263.11352539 C-10.58540039 263.11352539 2.61459961 263.11352539 16.21459961 263.11352539 C16.21459961 256.51352539 16.21459961 249.91352539 16.21459961 243.11352539 C29.41459961 243.11352539 42.61459961 243.11352539 56.21459961 243.11352539 C56.21459961 236.18352539 56.21459961 229.25352539 56.21459961 222.11352539 C61.13366211 222.08258789 61.13366211 222.08258789 66.15209961 222.05102539 C67.18713623 222.04192139 68.22217285 222.03281738 69.28857422 222.0234375 C70.50299194 222.01969116 70.50299194 222.01969116 71.74194336 222.01586914 C72.57459717 222.01063232 73.40725098 222.00539551 74.26513672 222 C76.21459961 222.11352539 76.21459961 222.11352539 77.21459961 223.11352539 C77.30129393 224.60224399 77.32163455 226.09497039 77.31225586 227.58618164 C77.3090332 228.48530273 77.30581055 229.38442383 77.30249023 230.31079102 C77.29411133 231.25631836 77.28573242 232.2018457 77.27709961 233.17602539 C77.27258789 234.12541992 77.26807617 235.07481445 77.26342773 236.05297852 C77.25160089 238.4065207 77.23366482 240.76003071 77.21459961 243.11352539 C83.48459961 243.11352539 89.75459961 243.11352539 96.21459961 243.11352539 C96.21459961 249.71352539 96.21459961 256.31352539 96.21459961 263.11352539 C83.01459961 263.11352539 69.81459961 263.11352539 56.21459961 263.11352539 C56.21459961 269.71352539 56.21459961 276.31352539 56.21459961 283.11352539 C36.41459961 283.11352539 16.61459961 283.11352539 -3.78540039 283.11352539 C-3.78540039 290.04352539 -3.78540039 296.97352539 -3.78540039 304.11352539 C29.21459961 304.11352539 62.21459961 304.11352539 96.21459961 304.11352539 C96.21459961 310.38352539 96.21459961 316.65352539 96.21459961 323.11352539 C79.8088435 324.12494822 63.4590866 324.23666713 47.02758789 324.18218994 C43.54045232 324.1717698 40.05330892 324.16735323 36.56616211 324.16235352 C29.78228759 324.1517814 22.99845061 324.13426623 16.21459961 324.11352539 C16.21459961 330.71352539 16.21459961 337.31352539 16.21459961 344.11352539 C3.01459961 344.11352539 -10.18540039 344.11352539 -23.78540039 344.11352539 C-24.11540039 337.51352539 -24.44540039 330.91352539 -24.78540039 324.11352539 C-54.48540039 323.61852539 -54.48540039 323.61852539 -84.78540039 323.11352539 C-84.78540039 316.51352539 -84.78540039 309.91352539 -84.78540039 303.11352539 C-64.98540039 303.11352539 -45.18540039 303.11352539 -24.78540039 303.11352539 C-24.78540039 296.51352539 -24.78540039 289.91352539 -24.78540039 283.11352539 C-31.38540039 283.11352539 -37.98540039 283.11352539 -44.78540039 283.11352539 C-44.78540039 276.51352539 -44.78540039 269.91352539 -44.78540039 263.11352539 C-57.98540039 263.11352539 -71.18540039 263.11352539 -84.78540039 263.11352539 C-84.78540039 256.51352539 -84.78540039 249.91352539 -84.78540039 243.11352539 C-78.18540039 243.11352539 -71.58540039 243.11352539 -64.78540039 243.11352539 C-64.78540039 229.58352539 -64.78540039 216.05352539 -64.78540039 202.11352539 C-58.18540039 202.11352539 -51.58540039 202.11352539 -44.78540039 202.11352539 C-44.78540039 188.91352539 -44.78540039 175.71352539 -44.78540039 162.11352539 C-51.38540039 162.11352539 -57.98540039 162.11352539 -64.78540039 162.11352539 C-64.78540039 155.51352539 -64.78540039 148.91352539 -64.78540039 142.11352539 C-71.38540039 142.11352539 -77.98540039 142.11352539 -84.78540039 142.11352539 C-84.78540039 128.58352539 -84.78540039 115.05352539 -84.78540039 101.11352539 C-78.18540039 101.11352539 -71.58540039 101.11352539 -64.78540039 101.11352539 C-64.78540039 94.51352539 -64.78540039 87.91352539 -64.78540039 81.11352539 C-58.18540039 81.11352539 -51.58540039 81.11352539 -44.78540039 81.11352539 C-44.78540039 67.91352539 -44.78540039 54.71352539 -44.78540039 41.11352539 C-38.18540039 41.11352539 -31.58540039 41.11352539 -24.78540039 41.11352539 C-24.78540039 34.51352539 -24.78540039 27.91352539 -24.78540039 21.11352539 C-18.18540039 21.11352539 -11.58540039 21.11352539 -4.78540039 21.11352539 C-4.82498298 14.57649689 -4.82498298 14.57649689 -4.87548828 8.03955078 C-4.87798584 7.22993896 -4.8804834 6.42032715 -4.88305664 5.58618164 C-4.88829346 4.75352783 -4.89353027 3.92087402 -4.89892578 3.06298828 C-4.6897201 -0.52950067 -3.7562619 0.11265152 0 0 Z " fill="#C02720" transform="translate(119.785400390625,18.886474609375)"/>
<path d="M0 0 C6.6 0 13.2 0 20 0 C20.33 33 20.66 66 21 100 C27.6 100 34.2 100 41 100 C41 113.53 41 127.06 41 141 C67.73 141 94.46 141 122 141 C122 147.6 122 154.2 122 161 C148.4 161 174.8 161 202 161 C201.67 148.13 201.34 135.26 201 122 C195.39 121.67 189.78 121.34 184 121 C183 120 183 120 182.88647461 118.14233398 C182.89171143 117.35157471 182.89694824 116.56081543 182.90234375 115.74609375 C182.90484131 114.9770874 182.90733887 114.20808105 182.90991211 113.41577148 C182.91901611 112.43294189 182.92812012 111.4501123 182.9375 110.4375 C182.958125 107.323125 182.97875 104.20875 183 101 C189.27 101 195.54 101 202 101 C202 87.8 202 74.6 202 61 C215.53 61 229.06 61 243 61 C243 67.27 243 73.54 243 80 C242 81 242 81 240.14233398 81.11352539 C238.95619507 81.10567017 238.95619507 81.10567017 237.74609375 81.09765625 C236.9770874 81.09515869 236.20808105 81.09266113 235.41577148 81.09008789 C234.43294189 81.08098389 233.4501123 81.07187988 232.4375 81.0625 C227.7659375 81.0315625 227.7659375 81.0315625 223 81 C223 87.27 223 93.54 223 100 C229.6 100 236.2 100 243 100 C243 106.93 243 113.86 243 121 C249.6 121 256.2 121 263 121 C263.02255116 131.41343311 263.04091517 141.82685013 263.05181217 152.24030209 C263.05704097 157.07516827 263.06413854 161.91001694 263.07543945 166.74487305 C263.08626847 171.4067712 263.09227686 176.06865246 263.09487724 180.73056221 C263.09673147 182.51324288 263.10035203 184.29592259 263.10573006 186.07859612 C263.11294069 188.5666596 263.11399093 191.05465243 263.11352539 193.54272461 C263.11712067 194.28718842 263.12071594 195.03165222 263.12442017 195.79867554 C263.11405216 200.88594784 263.11405216 200.88594784 262 202 C260.58429877 202.08651611 259.164405 202.10704904 257.74609375 202.09765625 C256.59258423 202.09390991 256.59258423 202.09390991 255.41577148 202.09008789 C254.43294189 202.08098389 253.4501123 202.07187988 252.4375 202.0625 C247.7659375 202.0315625 247.7659375 202.0315625 243 202 C243 208.6 243 215.2 243 222 C229.47 222 215.94 222 202 222 C202 215.4 202 208.8 202 202 C195.4 202 188.8 202 182 202 C182 195.4 182 188.8 182 182 C180.18765869 182.00523682 178.37531738 182.01047363 176.50805664 182.01586914 C170.5329495 182.03196724 164.55784847 182.04347249 158.58272648 182.05181217 C154.9585404 182.05704002 151.3343777 182.06413587 147.71020508 182.07543945 C144.21540025 182.08627184 140.72061796 182.09227758 137.22579765 182.09487724 C135.23760611 182.09763551 133.24942369 182.10544688 131.26124573 182.11329651 C129.45949135 182.11340981 129.45949135 182.11340981 127.62133789 182.11352539 C126.55766495 182.115746 125.493992 182.11796661 124.39808655 182.12025452 C122 182 122 182 121 181 C121 174.4 121 167.8 121 161 C94.6 161 68.2 161 41 161 C41 167.93 41 174.86 41 182 C34.4 182 27.8 182 21 182 C21.03958027 188.20792914 21.03958027 188.20792914 21.09008789 194.41577148 C21.09258545 195.18477783 21.09508301 195.95378418 21.09765625 196.74609375 C21.10289307 197.53685303 21.10812988 198.3276123 21.11352539 199.14233398 C21 201 21 201 20 202 C18.1281906 202.09386381 16.2528194 202.11743804 14.37866211 202.11352539 C13.17749252 202.11344986 11.97632294 202.11337433 10.73875427 202.11329651 C9.4314888 202.10813522 8.12422333 202.10297394 6.77734375 202.09765625 C5.43355868 202.09579198 4.08977293 202.09436812 2.74598694 202.09336853 C-0.79682277 202.08954402 -4.3395917 202.07971432 -7.88238525 202.06866455 C-11.49515227 202.05844899 -15.10792584 202.0538706 -18.72070312 202.04882812 C-25.81382039 202.03809198 -32.90690325 202.02049572 -40 202 C-40 195.4 -40 188.8 -40 182 C-46.6 182 -53.2 182 -60 182 C-60 148.34 -60 114.68 -60 80 C-53.4 80 -46.8 80 -40 80 C-40 73.4 -40 66.8 -40 60 C-26.8 60 -13.6 60 0 60 C0 53.4 0 46.8 0 40 C-13.2 40 -26.4 40 -40 40 C-40 33.4 -40 26.8 -40 20 C-26.8 20 -13.6 20 0 20 C0 13.4 0 6.8 0 0 Z " fill="#3E2C26" transform="translate(75,363)"/>
<path d="M0 0 C6.6 0 13.2 0 20 0 C20 13.53 20 27.06 20 41 C40.13 41 60.26 41 81 41 C81 27.47 81 13.94 81 0 C93.87 0 106.74 0 120 0 C120 6.6 120 13.2 120 20 C126.6 20 133.2 20 140 20 C140 33.2 140 46.4 140 60 C133.73 60 127.46 60 121 60 C121 66.6 121 73.2 121 80 C127.6 80 134.2 80 141 80 C141 86.93 141 93.86 141 101 C147.6 101 154.2 101 161 101 C161 94.07 161 87.14 161 80 C167.6 80 174.2 80 181 80 C181 67.13 181 54.26 181 41 C187.6 41 194.2 41 201 41 C201 47.6 201 54.2 201 61 C207.6 61 214.2 61 221 61 C221 74.2 221 87.4 221 101 C214.4 101 207.8 101 201 101 C201 107.6 201 114.2 201 121 C187.8 121 174.6 121 161 121 C161 127.6 161 134.2 161 141 C147.47 141 133.94 141 120 141 C120 147.6 120 154.2 120 161 C87 161 54 161 20 161 C20 154.4 20 147.8 20 141 C39.8 141 59.6 141 80 141 C80 134.4 80 127.8 80 121 C93.2 121 106.4 121 120 121 C120 114.4 120 107.8 120 101 C113.73 101 107.46 101 101 101 C100.67 94.4 100.34 87.8 100 81 C93.4 80.67 86.8 80.34 80 80 C80 86.93 80 93.86 80 101 C66.8 101 53.6 101 40 101 C40 107.6 40 114.2 40 121 C26.8 121 13.6 121 0 121 C0 114.4 0 107.8 0 101 C-6.6 101 -13.2 101 -20 101 C-20 87.8 -20 74.6 -20 61 C-13.4 61 -6.8 61 0 61 C0 40.87 0 20.74 0 0 Z " fill="#FDCFCF" transform="translate(96,161)"/>
<path d="M0 0 C13.2 0 26.4 0 40 0 C40 13.53 40 27.06 40 41 C53.2 40.67 66.4 40.34 80 40 C80.33 33.73 80.66 27.46 81 21 C107.02074096 20.87661398 132.99210418 21.16333258 159 22 C159 24.31 159 26.62 159 29 C159.66 29 160.32 29 161 29 C161 39.56 161 50.12 161 61 C154.73 61 148.46 61 142 61 C142.33 67.27 142.66 73.54 143 80 C148.5494235 80.28919259 148.5494235 80.28919259 154.09936523 80.56811523 C159.88888889 80.88888889 159.88888889 80.88888889 161 82 C161 94.87 161 107.74 161 121 C134.6 121 108.2 121 81 121 C81 114.4 81 107.8 81 101 C54.27 101 27.54 101 0 101 C0 67.67 0 34.34 0 0 Z " fill="#2075B7" transform="translate(116,403)"/>
<path d="M0 0 C1.6874269 0.00015917 3.37485866 0.00585622 5.06225586 0.01586914 C6.39189613 0.01799156 6.39189613 0.01799156 7.74839783 0.02015686 C10.59133215 0.02577324 13.43418892 0.03832848 16.27709961 0.05102539 C18.19962452 0.05603828 20.12215065 0.06060155 22.04467773 0.06469727 C26.76803925 0.07489891 31.49123219 0.09447102 36.21459961 0.11352539 C36.21459961 7.04352539 36.21459961 13.97352539 36.21459961 21.11352539 C42.81459961 21.11352539 49.41459961 21.11352539 56.21459961 21.11352539 C56.21459961 14.18352539 56.21459961 7.25352539 56.21459961 0.11352539 C69.74459961 0.11352539 83.27459961 0.11352539 97.21459961 0.11352539 C97.21459961 7.04352539 97.21459961 13.97352539 97.21459961 21.11352539 C103.81459961 21.11352539 110.41459961 21.11352539 117.21459961 21.11352539 C117.21459961 27.71352539 117.21459961 34.31352539 117.21459961 41.11352539 C123.81459961 41.11352539 130.41459961 41.11352539 137.21459961 41.11352539 C137.21459961 54.31352539 137.21459961 67.51352539 137.21459961 81.11352539 C136.55459961 81.11352539 135.89459961 81.11352539 135.21459961 81.11352539 C135.21459961 75.17352539 135.21459961 69.23352539 135.21459961 63.11352539 C132.96647461 63.13415039 130.71834961 63.15477539 128.40209961 63.17602539 C121.58959961 63.23852539 121.58959961 63.23852539 118.21459961 62.11352539 C118.21459961 75.31352539 118.21459961 88.51352539 118.21459961 102.11352539 C114.83942292 103.80111374 111.01604362 103.25505897 107.30444336 103.24633789 C106.42180313 103.24729462 105.5391629 103.24825134 104.629776 103.24923706 C102.76278614 103.24991808 100.89579392 103.24806924 99.02880859 103.24389648 C96.16034673 103.23854079 93.292041 103.24384738 90.42358398 103.25024414 C88.61303676 103.24958347 86.80248964 103.24830254 84.99194336 103.24633789 C83.69666969 103.24937424 83.69666969 103.24937424 82.37522888 103.25247192 C76.329554 103.22847978 76.329554 103.22847978 75.21459961 102.11352539 C75.1280835 100.69782416 75.10755057 99.27793039 75.11694336 97.85961914 C75.12016602 97.00561523 75.12338867 96.15161133 75.12670898 95.27172852 C75.13508789 94.37389648 75.1434668 93.47606445 75.15209961 92.55102539 C75.15661133 91.64932617 75.16112305 90.74762695 75.16577148 89.81860352 C75.17759736 87.58351225 75.19407741 85.34855102 75.21459961 83.11352539 C74.13791016 83.14381836 73.0612207 83.17411133 71.9519043 83.20532227 C67.85155516 83.3199351 63.75111177 83.43083712 59.65063477 83.54077148 C57.89572543 83.58830493 56.14084095 83.63676721 54.38598633 83.6862793 C32.07231251 84.31429194 9.80855099 84.05376005 -12.5088501 83.64996338 C-15.93564631 83.58834854 -19.36247796 83.52877054 -22.78930664 83.46899414 C-29.45470474 83.35232891 -36.1200616 83.23352957 -42.78540039 83.11352539 C-42.78540039 89.05352539 -42.78540039 94.99352539 -42.78540039 101.11352539 C-49.35130559 104.39647799 -57.44449521 102.11352539 -64.78540039 102.11352539 C-64.78540039 115.31352539 -64.78540039 128.51352539 -64.78540039 142.11352539 C-71.38540039 142.11352539 -77.98540039 142.11352539 -84.78540039 142.11352539 C-84.78540039 128.58352539 -84.78540039 115.05352539 -84.78540039 101.11352539 C-78.18540039 101.11352539 -71.58540039 101.11352539 -64.78540039 101.11352539 C-64.78540039 94.51352539 -64.78540039 87.91352539 -64.78540039 81.11352539 C-58.18540039 81.11352539 -51.58540039 81.11352539 -44.78540039 81.11352539 C-44.78540039 67.91352539 -44.78540039 54.71352539 -44.78540039 41.11352539 C-38.18540039 41.11352539 -31.58540039 41.11352539 -24.78540039 41.11352539 C-24.78540039 34.51352539 -24.78540039 27.91352539 -24.78540039 21.11352539 C-18.18540039 21.11352539 -11.58540039 21.11352539 -4.78540039 21.11352539 C-4.82498298 14.57649689 -4.82498298 14.57649689 -4.87548828 8.03955078 C-4.87798584 7.22993896 -4.8804834 6.42032715 -4.88305664 5.58618164 C-4.88829346 4.75352783 -4.89353027 3.92087402 -4.89892578 3.06298828 C-4.6897201 -0.52950067 -3.7562619 0.11265152 0 0 Z " fill="#6D6D6D" transform="translate(119.785400390625,18.886474609375)"/>
<path d="M0 0 C6.6 0 13.2 0 20 0 C20 6.6 20 13.2 20 20 C26.5370285 19.96041741 26.5370285 19.96041741 33.07397461 19.90991211 C33.88358643 19.90741455 34.69319824 19.90491699 35.52734375 19.90234375 C36.77632446 19.89448853 36.77632446 19.89448853 38.05053711 19.88647461 C40 20 40 20 41 21 C41.08651611 22.41570123 41.10704904 23.835595 41.09765625 25.25390625 C41.09282227 26.53491211 41.09282227 26.53491211 41.08789062 27.84179688 C41.07532227 29.18854492 41.07532227 29.18854492 41.0625 30.5625 C41.05798828 31.46419922 41.05347656 32.36589844 41.04882812 33.29492188 C41.03700225 35.53001314 41.0205222 37.76497437 41 40 C41.85549438 39.99214478 41.85549438 39.99214478 42.72827148 39.98413086 C45.29800323 39.96341779 47.86771747 39.9503581 50.4375 39.9375 C51.78424805 39.92493164 51.78424805 39.92493164 53.15820312 39.91210938 C54.01220703 39.90888672 54.86621094 39.90566406 55.74609375 39.90234375 C56.53685303 39.89710693 57.3276123 39.89187012 58.14233398 39.88647461 C60 40 60 40 61 41 C61.09533653 44.1050725 61.12551126 47.18786458 61.11352539 50.29321289 C61.11367142 51.26871597 61.11381744 52.24421906 61.1139679 53.24928284 C61.11326833 56.49042953 61.10547391 59.73151954 61.09765625 62.97265625 C61.09579222 65.21325143 61.09436825 67.45384702 61.09336853 69.69444275 C61.08954213 75.6045951 61.0797108 81.51472305 61.06866455 87.42486572 C61.05845306 93.45055817 61.05387147 99.47625453 61.04882812 105.50195312 C61.03808864 117.33464616 61.02101076 129.16732106 61 141 C61.57032959 140.99476318 62.14065918 140.98952637 62.72827148 140.98413086 C65.29800323 140.96341779 67.86771747 140.9503581 70.4375 140.9375 C71.33533203 140.92912109 72.23316406 140.92074219 73.15820312 140.91210938 C74.43920898 140.90727539 74.43920898 140.90727539 75.74609375 140.90234375 C76.53685303 140.89710693 77.3276123 140.89187012 78.14233398 140.88647461 C80 141 80 141 81 142 C81.08868299 144.95705321 81.11520296 147.89065056 81.09765625 150.84765625 C81.0962413 151.7340831 81.09482635 152.62050995 81.09336853 153.53379822 C81.08775215 156.37673254 81.07519691 159.21958931 81.0625 162.0625 C81.05748711 163.98502491 81.05292384 165.90755104 81.04882812 167.83007812 C81.03862648 172.55343964 81.01905437 177.27663258 81 182 C74.4 182 67.8 182 61 182 C61 188.6 61 195.2 61 202 C54.4 202 47.8 202 41 202 C41 215.2 41 228.4 41 242 C47.6 242 54.2 242 61 242 C61 248.6 61 255.2 61 262 C80.8 262 100.6 262 121 262 C121 268.93 121 275.86 121 283 C94.27 283 67.54 283 40 283 C40 276.4 40 269.8 40 263 C33.4 263 26.8 263 20 263 C20 256.4 20 249.8 20 243 C6.8 243 -6.4 243 -20 243 C-20 249.27 -20 255.54 -20 262 C-20.33 262 -20.66 262 -21 262 C-21 255.4 -21 248.8 -21 242 C-27.27 242 -33.54 242 -40 242 C-40 235.4 -40 228.8 -40 222 C-26.8 222 -13.6 222 0 222 C0 215.4 0 208.8 0 202 C13.2 202 26.4 202 40 202 C40 195.4 40 188.8 40 182 C46.6 182 53.2 182 60 182 C60 168.8 60 155.6 60 142 C53.4 142 46.8 142 40 142 C40 135.4 40 128.8 40 122 C33.4 122 26.8 122 20 122 C20 134.87 20 147.74 20 161 C13.4 161 6.8 161 0 161 C0 167.93 0 174.86 0 182 C-6.6 182 -13.2 182 -20 182 C-20 175.07 -20 168.14 -20 161 C-26.6 161 -33.2 161 -40 161 C-40 154.73 -40 148.46 -40 142 C-33.4 142 -26.8 142 -20 142 C-20 128.47 -20 114.94 -20 101 C-0.2 101 19.6 101 40 101 C40 81.2 40 61.4 40 41 C33.4 41 26.8 41 20 41 C20 34.4 20 27.8 20 21 C13.4 21 6.8 21 0 21 C0 14.07 0 7.14 0 0 Z " fill="#422D26" transform="translate(257,80)"/>
<path d="M0 0 C6.6 0 13.2 0 20 0 C20 13.53 20 27.06 20 41 C26.93 41 33.86 41 41 41 C41 47.6 41 54.2 41 61 C54.2 61 67.4 61 81 61 C81 54.4 81 47.8 81 41 C94.2 41 107.4 41 121 41 C121 34.07 121 27.14 121 20 C125.9190625 19.9690625 125.9190625 19.9690625 130.9375 19.9375 C131.97253662 19.928396 133.00757324 19.91929199 134.07397461 19.90991211 C135.28839233 19.90616577 135.28839233 19.90616577 136.52734375 19.90234375 C137.77632446 19.89448853 137.77632446 19.89448853 139.05053711 19.88647461 C141 20 141 20 142 21 C142.08669432 22.4887186 142.10703494 23.981445 142.09765625 25.47265625 C142.09443359 26.37177734 142.09121094 27.27089844 142.08789062 28.19726562 C142.07951172 29.14279297 142.07113281 30.08832031 142.0625 31.0625 C142.05798828 32.01189453 142.05347656 32.96128906 142.04882812 33.93945312 C142.03700128 36.29299531 142.01906521 38.64650532 142 41 C148.27 41 154.54 41 161 41 C161 47.6 161 54.2 161 61 C147.8 61 134.6 61 121 61 C121 67.6 121 74.2 121 81 C101.2 81 81.4 81 61 81 C61 87.93 61 94.86 61 102 C94 102 127 102 161 102 C161 108.27 161 114.54 161 121 C144.59424389 122.01142283 128.24448699 122.12314174 111.81298828 122.06866455 C108.32585271 122.05824441 104.83870931 122.05382784 101.3515625 122.04882812 C94.56768799 122.03825601 87.783851 122.02074084 81 122 C81 128.6 81 135.2 81 142 C67.8 142 54.6 142 41 142 C40.67 135.4 40.34 128.8 40 122 C10.3 121.505 10.3 121.505 -20 121 C-20 114.4 -20 107.8 -20 101 C-0.2 101 19.6 101 40 101 C40 94.4 40 87.8 40 81 C33.4 81 26.8 81 20 81 C20 74.4 20 67.8 20 61 C6.8 61 -6.4 61 -20 61 C-20 54.4 -20 47.8 -20 41 C-13.4 41 -6.8 41 0 41 C0 27.47 0 13.94 0 0 Z " fill="#402D26" transform="translate(55,221)"/>
<path d="M0 0 C13.2 0 26.4 0 40 0 C40 6.6 40 13.2 40 20 C46.6 20 53.2 20 60 20 C60 26.6 60 33.2 60 40 C80.13 40 100.26 40 121 40 C121 46.6 121 53.2 121 60 C114.4 60 107.8 60 101 60 C101 66.6 101 73.2 101 80 C94.07 80 87.14 80 80 80 C80 86.6 80 93.2 80 100 C66.8 100 53.6 100 40 100 C40 86.8 40 73.6 40 60 C33.4 60 26.8 60 20 60 C20 73.2 20 86.4 20 100 C13.4 100 6.8 100 0 100 C0 93.4 0 86.8 0 80 C-13.2 80 -26.4 80 -40 80 C-40 66.8 -40 53.6 -40 40 C-33.73 40 -27.46 40 -21 40 C-21.01160156 38.56785156 -21.02320313 37.13570313 -21.03515625 35.66015625 C-21.04453255 33.79427213 -21.05363292 31.92838661 -21.0625 30.0625 C-21.07087891 29.11697266 -21.07925781 28.17144531 -21.08789062 27.19726562 C-21.09272461 25.84858398 -21.09272461 25.84858398 -21.09765625 24.47265625 C-21.10551147 23.22367554 -21.10551147 23.22367554 -21.11352539 21.94946289 C-21 20 -21 20 -20 19 C-18.5112814 18.91330568 -17.018555 18.89296506 -15.52734375 18.90234375 C-14.62822266 18.90556641 -13.72910156 18.90878906 -12.80273438 18.91210938 C-11.85720703 18.92048828 -10.91167969 18.92886719 -9.9375 18.9375 C-8.98810547 18.94201172 -8.03871094 18.94652344 -7.06054688 18.95117188 C-4.70700469 18.96299872 -2.35349468 18.98093479 0 19 C0 12.73 0 6.46 0 0 Z " fill="#FB3829" transform="translate(237,323)"/>
<path d="M0 0 C5.61 0.33 11.22 0.66 17 1 C17 6.94 17 12.88 17 19 C27.89 19.495 27.89 19.495 39 20 C39 26.6 39 33.2 39 40 C45.6 40 52.2 40 59 40 C59 53.2 59 66.4 59 80 C52.4 80 45.8 80 39 80 C39 73.4 39 66.8 39 60 C-33.93 60 -106.86 60 -182 60 C-182 53.4 -182 46.8 -182 40 C-171.605 39.505 -171.605 39.505 -161 39 C-161 33.06 -161 27.12 -161 21 C-122.06 21 -83.12 21 -43 21 C-42.67 27.27 -42.34 33.54 -42 40 C-28.14 40 -14.28 40 0 40 C0 26.8 0 13.6 0 0 Z " fill="#E12A20" transform="translate(238,81)"/>
<path d="M0 0 C6.6 0 13.2 0 20 0 C20 33.33 20 66.66 20 101 C13.73 101 7.46 101 1 101 C0.67 100.67 0.34 100.34 0 100 C0 93.73 0 87.46 0 81 C-13.2 81 -26.4 81 -40 81 C-40 107.4 -40 133.8 -40 161 C-33.4 161 -26.8 161 -20 161 C-20 167.93 -20 174.86 -20 182 C-6.47 182 7.06 182 21 182 C21 188.27 21 194.54 21 201 C20 202 20 202 17.60191345 202.12025452 C16.53824051 202.11803391 15.47456757 202.11581329 14.37866211 202.11352539 C13.17749252 202.11344986 11.97632294 202.11337433 10.73875427 202.11329651 C9.4314888 202.10813522 8.12422333 202.10297394 6.77734375 202.09765625 C5.43355868 202.09579198 4.08977293 202.09436812 2.74598694 202.09336853 C-0.79682277 202.08954402 -4.3395917 202.07971432 -7.88238525 202.06866455 C-11.49515227 202.05844899 -15.10792584 202.0538706 -18.72070312 202.04882812 C-25.81382039 202.03809198 -32.90690325 202.02049572 -40 202 C-40 195.4 -40 188.8 -40 182 C-46.6 182 -53.2 182 -60 182 C-60 148.34 -60 114.68 -60 80 C-53.4 80 -46.8 80 -40 80 C-40 73.4 -40 66.8 -40 60 C-26.8 60 -13.6 60 0 60 C0 53.4 0 46.8 0 40 C-13.2 40 -26.4 40 -40 40 C-40 33.4 -40 26.8 -40 20 C-26.8 20 -13.6 20 0 20 C0 13.4 0 6.8 0 0 Z " fill="#010001" transform="translate(75,363)"/>
<path d="M0 0 C6.93 0 13.86 0 21 0 C21 6.6 21 13.2 21 20 C14.4 20 7.8 20 1 20 C1 33.2 1 46.4 1 60 C7.6 60 14.2 60 21 60 C21 66.6 21 73.2 21 80 C40.8 80 60.6 80 81 80 C81 86.93 81 93.86 81 101 C54.27 101 27.54 101 0 101 C0 94.4 0 87.8 0 81 C-6.6 81 -13.2 81 -20 81 C-20 74.4 -20 67.8 -20 61 C-33.2 61 -46.4 61 -60 61 C-60 67.27 -60 73.54 -60 80 C-60.33 80 -60.66 80 -61 80 C-61 73.4 -61 66.8 -61 60 C-67.27 60 -73.54 60 -80 60 C-80 53.4 -80 46.8 -80 40 C-66.8 40 -53.6 40 -40 40 C-40 33.4 -40 26.8 -40 20 C-26.8 20 -13.6 20 0 20 C0 13.4 0 6.8 0 0 Z " fill="#010000" transform="translate(297,262)"/>
<path d="M0 0 C13.2 0 26.4 0 40 0 C40.495 9.405 40.495 9.405 41 19 C47.27 19.33 53.54 19.66 60 20 C60 13.73 60 7.46 60 1 C60.33 1 60.66 1 61 1 C61 6.94 61 12.88 61 19 C67.6 19 74.2 19 81 19 C81 32.53 81 46.06 81 60 C80.67 60 80.34 60 80 60 C80 46.8 80 33.6 80 20 C73.73 20 67.46 20 61 20 C61 46.73 61 73.46 61 101 C47.47 101 33.94 101 20 101 C20 94.07 20 87.14 20 80 C13.4 80 6.8 80 0 80 C0 53.6 0 27.2 0 0 Z " fill="#3E2C25" transform="translate(35,444)"/>
<path d="M0 0 C6.27 0 12.54 0 19 0 C19 13.2 19 26.4 19 40 C46.06 40 73.12 40 101 40 C101 46.6 101 53.2 101 60 C127.4 60 153.8 60 181 60 C181 73.2 181 86.4 181 100 C180 101 180 101 178.14233398 101.11352539 C177.35157471 101.10828857 176.56081543 101.10305176 175.74609375 101.09765625 C174.9770874 101.09515869 174.20808105 101.09266113 173.41577148 101.09008789 C172.43294189 101.08098389 171.4501123 101.07187988 170.4375 101.0625 C165.7659375 101.0315625 165.7659375 101.0315625 161 101 C161 94.4 161 87.8 161 81 C159.18765869 81.00523682 157.37531738 81.01047363 155.50805664 81.01586914 C149.5329495 81.03196724 143.55784847 81.04347249 137.58272648 81.05181217 C133.9585404 81.05704002 130.3343777 81.06413587 126.71020508 81.07543945 C123.21540025 81.08627184 119.72061796 81.09227758 116.22579765 81.09487724 C114.23760611 81.09763551 112.24942369 81.10544688 110.26124573 81.11329651 C108.45949135 81.11340981 108.45949135 81.11340981 106.62133789 81.11352539 C105.02582848 81.11685631 105.02582848 81.11685631 103.39808655 81.12025452 C101 81 101 81 100 80 C100 73.4 100 66.8 100 60 C73.6 60 47.2 60 20 60 C20 66.93 20 73.86 20 81 C13.4 81 6.8 81 0 81 C0 54.27 0 27.54 0 0 Z " fill="#000001" transform="translate(96,464)"/>
<path d="M0 0 C19.92516517 -0.04010881 19.92516517 -0.04010881 28.38867188 -0.04882812 C34.17408154 -0.05481653 39.95947545 -0.06191676 45.74487305 -0.07543945 C50.4067712 -0.08626847 55.06865246 -0.09227686 59.73056221 -0.09487724 C61.51324288 -0.09673147 63.29592259 -0.10035203 65.07859612 -0.10573006 C67.5666596 -0.11294069 70.05465243 -0.11399093 72.54272461 -0.11352539 C73.28718842 -0.11712067 74.03165222 -0.12071594 74.79867554 -0.12442017 C79.88594784 -0.11405216 79.88594784 -0.11405216 81 1 C81.08669432 2.4887186 81.10703494 3.981445 81.09765625 5.47265625 C81.09515869 6.28226807 81.09266113 7.09187988 81.09008789 7.92602539 C81.08098389 8.96106201 81.07187988 9.99609863 81.0625 11.0625 C81.041875 14.341875 81.02125 17.62125 81 21 C87.6 21 94.2 21 101 21 C101 54 101 87 101 121 C94.4 121 87.8 121 81 121 C80.19948063 108.40774722 79.86326455 95.91887765 79.90234375 83.3046875 C79.90421549 81.49195393 79.9056358 79.67921985 79.90663147 77.8664856 C79.91039726 73.1616265 79.92017461 68.45679971 79.93133545 63.75195312 C79.94167944 58.92448361 79.94615653 54.09700872 79.95117188 49.26953125 C79.96180404 39.8463379 79.97935047 30.42317672 80 21 C73.4 21 66.8 21 60 21 C60 27.6 60 34.2 60 41 C40.2 41 20.4 41 0 41 C0 27.47 0 13.94 0 0 Z " fill="#FEFEFE" transform="translate(15,342)"/>
<path d="M0 0 C6.6 0 13.2 0 20 0 C20 6.93 20 13.86 20 21 C53.33 21 86.66 21 121 21 C121 27.27 121 33.54 121 40 C104.59424389 41.01142283 88.24448699 41.12314174 71.81298828 41.06866455 C68.32585271 41.05824441 64.83870931 41.05382784 61.3515625 41.04882812 C54.56768799 41.03825601 47.783851 41.02074084 41 41 C41 47.6 41 54.2 41 61 C27.8 61 14.6 61 1 61 C0.67 54.4 0.34 47.8 0 41 C-29.7 40.505 -29.7 40.505 -60 40 C-60 33.4 -60 26.8 -60 20 C-40.2 20 -20.4 20 0 20 C0 13.4 0 6.8 0 0 Z " fill="#030001" transform="translate(95,302)"/>
<path d="M0 0 C33.33 0 66.66 0 101 0 C101.020625 9.879375 101.04125 19.75875 101.0625 29.9375 C101.071604 33.06081787 101.08070801 36.18413574 101.09008789 39.40209961 C101.09300678 41.86051388 101.0955554 44.31892864 101.09765625 46.77734375 C101.10277222 48.0677356 101.10788818 49.35812744 101.11315918 50.68762207 C101.11334045 52.51468689 101.11334045 52.51468689 101.11352539 54.37866211 C101.115746 55.44233505 101.11796661 56.506008 101.12025452 57.60191345 C101 60 101 60 100 61 C98.59651265 61.09860131 97.18819523 61.13078937 95.78125 61.1328125 C94.50701172 61.13474609 94.50701172 61.13474609 93.20703125 61.13671875 C92.31371094 61.13285156 91.42039062 61.12898438 90.5 61.125 C89.60667969 61.12886719 88.71335937 61.13273437 87.79296875 61.13671875 C86.94347656 61.13542969 86.09398437 61.13414063 85.21875 61.1328125 C84.43435547 61.13168457 83.64996094 61.13055664 82.84179688 61.12939453 C81 61 81 61 80 60 C80 53.4 80 46.8 80 40 C53.6 40 27.2 40 0 40 C0 26.8 0 13.6 0 0 Z " fill="#6F6D6E" transform="translate(116,60)"/>
<path d="M0 0 C13.53 0 27.06 0 41 0 C41 6.27 41 12.54 41 19 C40 20 40 20 38.14233398 20.11352539 C36.95619507 20.10567017 36.95619507 20.10567017 35.74609375 20.09765625 C34.9770874 20.09515869 34.20808105 20.09266113 33.41577148 20.09008789 C32.43294189 20.08098389 31.4501123 20.07187988 30.4375 20.0625 C27.323125 20.041875 24.20875 20.02125 21 20 C21 26.27 21 32.54 21 39 C27.6 39 34.2 39 41 39 C41 45.93 41 52.86 41 60 C47.6 60 54.2 60 61 60 C61.02255116 70.41343311 61.04091517 80.82685013 61.05181217 91.24030209 C61.05704097 96.07516827 61.06413854 100.91001694 61.07543945 105.74487305 C61.08626847 110.4067712 61.09227686 115.06865246 61.09487724 119.73056221 C61.09673147 121.51324288 61.10035203 123.29592259 61.10573006 125.07859612 C61.11294069 127.5666596 61.11399093 130.05465243 61.11352539 132.54272461 C61.11712067 133.28718842 61.12071594 134.03165222 61.12442017 134.79867554 C61.11405216 139.88594784 61.11405216 139.88594784 60 141 C53.73 141 47.46 141 41 141 C41 120.87 41 100.74 41 80 C34.07 80 27.14 80 20 80 C20 66.8 20 53.6 20 40 C13.4 40 6.8 40 0 40 C0 26.8 0 13.6 0 0 Z " fill="#010000" transform="translate(277,424)"/>
<path d="M0 0 C1.6874269 0.00015917 3.37485866 0.00585622 5.06225586 0.01586914 C6.39189613 0.01799156 6.39189613 0.01799156 7.74839783 0.02015686 C10.59133215 0.02577324 13.43418892 0.03832848 16.27709961 0.05102539 C18.19962452 0.05603828 20.12215065 0.06060155 22.04467773 0.06469727 C26.76803925 0.07489891 31.49123219 0.09447102 36.21459961 0.11352539 C36.21459961 7.04352539 36.21459961 13.97352539 36.21459961 21.11352539 C23.01459961 21.11352539 9.81459961 21.11352539 -3.78540039 21.11352539 C-3.78540039 27.71352539 -3.78540039 34.31352539 -3.78540039 41.11352539 C-10.38540039 41.11352539 -16.98540039 41.11352539 -23.78540039 41.11352539 C-23.77379883 43.98942383 -23.76219727 46.86532227 -23.75024414 49.82836914 C-23.74245414 52.60172414 -23.73637706 55.37507793 -23.73046875 58.1484375 C-23.72542783 60.08171124 -23.7185952 62.01498115 -23.70996094 63.94824219 C-23.69788474 66.72079411 -23.69216983 69.4932958 -23.68774414 72.26586914 C-23.68258286 73.13565903 -23.67742157 74.00544891 -23.67210388 74.90159607 C-23.67190854 76.97258353 -23.72331871 79.04346863 -23.78540039 81.11352539 C-24.78540039 82.11352539 -24.78540039 82.11352539 -26.64306641 82.22705078 C-27.82920532 82.21919556 -27.82920532 82.21919556 -29.03930664 82.21118164 C-29.89331055 82.20795898 -30.74731445 82.20473633 -31.62719727 82.20141602 C-32.5250293 82.19303711 -33.42286133 82.1846582 -34.34790039 82.17602539 C-35.24959961 82.17151367 -36.15129883 82.16700195 -37.08032227 82.16235352 C-39.31541353 82.15052764 -41.55037476 82.13404759 -43.78540039 82.11352539 C-43.78016357 82.68385498 -43.77492676 83.25418457 -43.76953125 83.84179688 C-43.74881818 86.41152862 -43.73575849 88.98124286 -43.72290039 91.55102539 C-43.71452148 92.44885742 -43.70614258 93.34668945 -43.69750977 94.27172852 C-43.69428711 95.12573242 -43.69106445 95.97973633 -43.68774414 96.85961914 C-43.68250732 97.65037842 -43.67727051 98.4411377 -43.671875 99.25585938 C-43.78540039 101.11352539 -43.78540039 101.11352539 -44.78540039 102.11352539 C-51.38540039 102.11352539 -57.98540039 102.11352539 -64.78540039 102.11352539 C-64.78540039 115.31352539 -64.78540039 128.51352539 -64.78540039 142.11352539 C-71.38540039 142.11352539 -77.98540039 142.11352539 -84.78540039 142.11352539 C-84.78540039 128.58352539 -84.78540039 115.05352539 -84.78540039 101.11352539 C-78.18540039 101.11352539 -71.58540039 101.11352539 -64.78540039 101.11352539 C-64.78540039 94.51352539 -64.78540039 87.91352539 -64.78540039 81.11352539 C-58.18540039 81.11352539 -51.58540039 81.11352539 -44.78540039 81.11352539 C-44.78540039 67.91352539 -44.78540039 54.71352539 -44.78540039 41.11352539 C-38.18540039 41.11352539 -31.58540039 41.11352539 -24.78540039 41.11352539 C-24.78540039 34.51352539 -24.78540039 27.91352539 -24.78540039 21.11352539 C-18.18540039 21.11352539 -11.58540039 21.11352539 -4.78540039 21.11352539 C-4.82498298 14.57649689 -4.82498298 14.57649689 -4.87548828 8.03955078 C-4.87798584 7.22993896 -4.8804834 6.42032715 -4.88305664 5.58618164 C-4.88829346 4.75352783 -4.89353027 3.92087402 -4.89892578 3.06298828 C-4.6897201 -0.52950067 -3.7562619 0.11265152 0 0 Z " fill="#040101" transform="translate(119.785400390625,18.886474609375)"/>
<path d="M0 0 C6.6 0 13.2 0 20 0 C20 6.6 20 13.2 20 20 C26.5370285 19.96041741 26.5370285 19.96041741 33.07397461 19.90991211 C33.88358643 19.90741455 34.69319824 19.90491699 35.52734375 19.90234375 C36.77632446 19.89448853 36.77632446 19.89448853 38.05053711 19.88647461 C40 20 40 20 41 21 C41.08651611 22.41570123 41.10704904 23.835595 41.09765625 25.25390625 C41.09443359 26.10791016 41.09121094 26.96191406 41.08789062 27.84179688 C41.07532227 29.18854492 41.07532227 29.18854492 41.0625 30.5625 C41.05798828 31.46419922 41.05347656 32.36589844 41.04882812 33.29492188 C41.03700225 35.53001314 41.0205222 37.76497437 41 40 C41.85549438 39.99214478 41.85549438 39.99214478 42.72827148 39.98413086 C45.29800323 39.96341779 47.86771747 39.9503581 50.4375 39.9375 C51.33533203 39.92912109 52.23316406 39.92074219 53.15820312 39.91210938 C54.01220703 39.90888672 54.86621094 39.90566406 55.74609375 39.90234375 C56.53685303 39.89710693 57.3276123 39.89187012 58.14233398 39.88647461 C60 40 60 40 61 41 C61.09533653 44.1050725 61.12551126 47.18786458 61.11352539 50.29321289 C61.11367142 51.26871597 61.11381744 52.24421906 61.1139679 53.24928284 C61.11326833 56.49042953 61.10547391 59.73151954 61.09765625 62.97265625 C61.09579222 65.21325143 61.09436825 67.45384702 61.09336853 69.69444275 C61.08954213 75.6045951 61.0797108 81.51472305 61.06866455 87.42486572 C61.05845306 93.45055817 61.05387147 99.47625453 61.04882812 105.50195312 C61.03808864 117.33464789 61.02049086 129.1673181 61 141 C54.4 141 47.8 141 41 141 C41 134.4 41 127.8 41 121 C34.07 121 27.14 121 20 121 C20 114.4 20 107.8 20 101 C26.6 101 33.2 101 40 101 C40 81.2 40 61.4 40 41 C33.4 41 26.8 41 20 41 C20 34.4 20 27.8 20 21 C13.4 21 6.8 21 0 21 C0 14.07 0 7.14 0 0 Z " fill="#020000" transform="translate(257,80)"/>
<path d="M0 0 C20.13 0 40.26 0 61 0 C61 6.6 61 13.2 61 20 C54.4 20 47.8 20 41 20 C41 26.6 41 33.2 41 40 C34.07 40 27.14 40 20 40 C20 46.6 20 53.2 20 60 C6.8 60 -6.4 60 -20 60 C-20 46.8 -20 33.6 -20 20 C-13.4 20 -6.8 20 0 20 C0 13.4 0 6.8 0 0 Z " fill="#FCFCFC" transform="translate(297,363)"/>
<path d="M0 0 C12.54 0 25.08 0 38 0 C38 2.31 38 4.62 38 7 C38.66 7 39.32 7 40 7 C40 17.56 40 28.12 40 39 C33.73 39 27.46 39 21 39 C21.495 48.405 21.495 48.405 22 58 C27.5494235 58.28919259 27.5494235 58.28919259 33.09936523 58.56811523 C38.88888889 58.88888889 38.88888889 58.88888889 40 60 C40 72.87 40 85.74 40 99 C13.6 99 -12.8 99 -40 99 C-40 92.4 -40 85.8 -40 79 C-20.2 79 -0.4 79 20 79 C20 58.87 20 38.74 20 18 C13.4 18 6.8 18 0 18 C0 12.06 0 6.12 0 0 Z " fill="#11496E" transform="translate(237,425)"/>
<path d="M0 0 C6.6 0 13.2 0 20 0 C20 13.2 20 26.4 20 40 C46.4 40 72.8 40 100 40 C100.33 46.6 100.66 53.2 101 60 C107.27 60 113.54 60 120 60 C120.495 30.3 120.495 30.3 121 0 C134.2 0 147.4 0 161 0 C161 13.2 161 26.4 161 40 C160.34 40 159.68 40 159 40 C159 34.06 159 28.12 159 22 C156.751875 22.020625 154.50375 22.04125 152.1875 22.0625 C145.375 22.125 145.375 22.125 142 21 C142 34.2 142 47.4 142 61 C138.62482331 62.68758835 134.80144401 62.14153358 131.08984375 62.1328125 C130.20720352 62.13376923 129.32456329 62.13472595 128.41517639 62.13571167 C126.54818653 62.13639269 124.68119431 62.13454385 122.81420898 62.13037109 C119.94574712 62.1250154 117.07744139 62.13032199 114.20898438 62.13671875 C112.39843715 62.13605808 110.58789003 62.13477715 108.77734375 62.1328125 C107.48207008 62.13584885 107.48207008 62.13584885 106.16062927 62.13894653 C100.11495439 62.11495439 100.11495439 62.11495439 99 61 C98.91348389 59.58429877 98.89295096 58.164405 98.90234375 56.74609375 C98.90717773 55.46508789 98.90717773 55.46508789 98.91210938 54.15820312 C98.92467773 52.81145508 98.92467773 52.81145508 98.9375 51.4375 C98.94201172 50.53580078 98.94652344 49.63410156 98.95117188 48.70507812 C98.96299775 46.46998686 98.9794778 44.23502563 99 42 C97.92331055 42.03029297 96.84662109 42.06058594 95.73730469 42.09179688 C91.63695555 42.20640971 87.53651216 42.31731173 83.43603516 42.42724609 C81.68112583 42.47477954 79.92624134 42.52324182 78.17138672 42.57275391 C55.8577129 43.20076655 33.59395138 42.94023466 11.27655029 42.53643799 C7.84975408 42.47482315 4.42292243 42.41524515 0.99609375 42.35546875 C-5.66930435 42.23880352 -12.33466121 42.12000418 -19 42 C-19 47.94 -19 53.88 -19 60 C-19.33 60 -19.66 60 -20 60 C-20 53.73 -20 47.46 -20 41 C-13.73 40.67 -7.46 40.34 -1 40 C-0.67 26.8 -0.34 13.6 0 0 Z " fill="#C63637" transform="translate(96,60)"/>
<path d="M0 0 C0.33 0 0.66 0 1 0 C1.0252166 5.33040036 1.04309672 10.66076404 1.05493164 15.99121094 C1.059879 17.79460252 1.06663844 19.59799029 1.07543945 21.40136719 C1.08793704 24.03321287 1.09332376 26.66500448 1.09765625 29.296875 C1.10281754 30.06860046 1.10797882 30.84032593 1.11329651 31.63543701 C1.11419344 41.12731964 0.4759636 50.48072793 0 60 C-33 60 -66 60 -100 60 C-100 53.4 -100 46.8 -100 40 C-80.2 40 -60.4 40 -40 40 C-40 33.4 -40 26.8 -40 20 C-26.8 20 -13.6 20 0 20 C0 13.4 0 6.8 0 0 Z " fill="#D0A7A8" transform="translate(216,262)"/>
<path d="M0 0 C19.8 0 39.6 0 60 0 C60 6.6 60 13.2 60 20 C47.13 20.33 34.26 20.66 21 21 C20.67 33.87 20.34 46.74 20 60 C6.8 60 -6.4 60 -20 60 C-20 46.8 -20 33.6 -20 20 C-13.4 20 -6.8 20 0 20 C0 13.4 0 6.8 0 0 Z " fill="#F8392C" transform="translate(136,343)"/>
<path d="M0 0 C5.61 0.33 11.22 0.66 17 1 C17 6.94 17 12.88 17 19 C24.26 19.33 31.52 19.66 39 20 C39 26.6 39 33.2 39 40 C45.6 40 52.2 40 59 40 C59 53.2 59 66.4 59 80 C52.4 80 45.8 80 39 80 C39 73.4 39 66.8 39 60 C25.8 60 12.6 60 -1 60 C-1 37.01456031 -1 37.01456031 -0.78125 29.296875 C-0.75905396 28.43733215 -0.73685791 27.57778931 -0.71398926 26.69219971 C-0.64508538 24.04472883 -0.57264424 21.39737057 -0.5 18.75 C-0.45158341 16.9140688 -0.40340547 15.07813129 -0.35546875 13.2421875 C-0.24014391 8.82802992 -0.1199934 4.41404276 0 0 Z " fill="#FC3729" transform="translate(238,81)"/>
<path d="M0 0 C20.13 0 40.26 0 61 0 C61 13.53 61 27.06 61 41 C40.87 41 20.74 41 0 41 C0 27.47 0 13.94 0 0 Z " fill="#CEA8A9" transform="translate(116,161)"/>
<path d="M0 0 C0.33 0 0.66 0 1 0 C1 6.6 1 13.2 1 20 C7.6 20 14.2 20 21 20 C21 53 21 86 21 120 C14.4 120 7.8 120 1 120 C0.07448966 105.95401955 -0.13232729 92.00278914 -0.09765625 77.9296875 C-0.09578612 75.66854891 -0.09436504 73.4074099 -0.09336853 71.14627075 C-0.08959016 65.25773964 -0.07980109 59.36923406 -0.06866455 53.48071289 C-0.05834857 47.44678085 -0.05384931 41.4128446 -0.04882812 35.37890625 C-0.03817358 23.58592642 -0.02115498 11.79296535 0 0 Z " fill="#144A6C" transform="translate(95,343)"/>
<path d="M0 0 C6.6 0 13.2 0 20 0 C20 6.6 20 13.2 20 20 C39.8 20 59.6 20 80 20 C80 26.6 80 33.2 80 40 C53.6 40 27.2 40 0 40 C0 26.8 0 13.6 0 0 Z " fill="#12496E" transform="translate(116,464)"/>
<path d="M0 0 C13.2 0 26.4 0 40 0 C40 13.2 40 26.4 40 40 C20.2 40 0.4 40 -20 40 C-20 33.4 -20 26.8 -20 20 C-13.4 20 -6.8 20 0 20 C0 13.4 0 6.8 0 0 Z " fill="#D6D6D6" transform="translate(358,363)"/>
<path d="M0 0 C13.2 0 26.4 0 40 0 C40 13.53 40 27.06 40 41 C26.8 41 13.6 41 0 41 C0 27.47 0 13.94 0 0 Z " fill="#F4E343" transform="translate(156,403)"/>
<path d="M0 0 C6.6 0 13.2 0 20 0 C20 13.53 20 27.06 20 41 C26.6 41 33.2 41 40 41 C40 47.6 40 54.2 40 61 C26.8 61 13.6 61 0 61 C0 40.87 0 20.74 0 0 Z " fill="#FCFCFC" transform="translate(96,161)"/>
<path d="M0 0 C13.2 0 26.4 0 40 0 C40.02094532 7.7986394 40.04098343 15.59717749 40.05175018 23.39582062 C40.05703996 27.02715757 40.06411357 30.65847135 40.07543945 34.28979492 C40.08627184 37.78459975 40.09227758 41.27938204 40.09487724 44.77420235 C40.09763551 46.76239389 40.10544688 48.75057631 40.11329651 50.73875427 C40.11337204 51.93992386 40.11344757 53.14109344 40.11352539 54.37866211 C40.115746 55.44233505 40.11796661 56.506008 40.12025452 57.60191345 C40 60 40 60 39 61 C32.73 61 26.46 61 20 61 C20 47.47 20 33.94 20 20 C13.4 20 6.8 20 0 20 C0 13.4 0 6.8 0 0 Z " fill="#FCFAFA" transform="translate(177,60)"/>
<path d="M0 0 C6.6 0 13.2 0 20 0 C20 6.6 20 13.2 20 20 C26.6 20 33.2 20 40 20 C40 33.2 40 46.4 40 60 C33.4 60 26.8 60 20 60 C20 53.4 20 46.8 20 40 C13.4 40 6.8 40 0 40 C0 26.8 0 13.6 0 0 Z " fill="#68483E" transform="translate(35,484)"/>
<path d="M0 0 C13.2 0 26.4 0 40 0 C40 19.8 40 39.6 40 60 C33.4 60 26.8 60 20 60 C20 46.8 20 33.6 20 20 C13.4 20 6.8 20 0 20 C0 13.4 0 6.8 0 0 Z " fill="#020001" transform="translate(55,161)"/>
<path d="M0 0 C13.2 0 26.4 0 40 0 C40 12.87 40 25.74 40 39 C26.8 39 13.6 39 0 39 C0 26.13 0 13.26 0 0 Z " fill="#2374B3" transform="translate(156,364)"/>
<path d="M0 0 C6.27 0 12.54 0 19 0 C19 19.8 19 39.6 19 60 C5.8 60 -7.4 60 -21 60 C-21 53.73 -21 47.46 -21 41 C-14.07 41 -7.14 41 0 41 C0 27.47 0 13.94 0 0 Z " fill="#FEFEFD" transform="translate(177,161)"/>
<path d="M0 0 C13.53 0 27.06 0 41 0 C41 6.93 41 13.86 41 21 C47.6 21 54.2 21 61 21 C61 27.6 61 34.2 61 41 C54.07 41 47.14 41 40 41 C40 34.4 40 27.8 40 21 C26.8 21 13.6 21 0 21 C0 14.07 0 7.14 0 0 Z " fill="#020202" transform="translate(176,19)"/>
<path d="M0 0 C19.8 0 39.6 0 60 0 C60 6.93 60 13.86 60 21 C40.2 21 20.4 21 0 21 C0 14.07 0 7.14 0 0 Z " fill="#000000" transform="translate(318,403)"/>
<path d="M0 0 C13.2 0 26.4 0 40 0 C40 6.6 40 13.2 40 20 C33.4 20 26.8 20 20 20 C20 26.6 20 33.2 20 40 C13.4 40 6.8 40 0 40 C0 26.8 0 13.6 0 0 Z " fill="#FEFEFE" transform="translate(116,60)"/>
<path d="M0 0 C6.6 0 13.2 0 20 0 C20.04959276 13.76198957 19.87747 27.49387868 19.5 41.25 C19.45158341 43.0859312 19.40340547 44.92186871 19.35546875 46.7578125 C19.24014391 51.17197008 19.1199934 55.58595724 19 60 C12.73 60 6.46 60 0 60 C0 40.2 0 20.4 0 0 Z " fill="#6E6C6C" transform="translate(217,60)"/>
<path d="M0 0 C6.6 0 13.2 0 20 0 C20 6.6 20 13.2 20 20 C26.5370285 19.96041741 26.5370285 19.96041741 33.07397461 19.90991211 C33.88358643 19.90741455 34.69319824 19.90491699 35.52734375 19.90234375 C36.77632446 19.89448853 36.77632446 19.89448853 38.05053711 19.88647461 C40 20 40 20 41 21 C41.09502416 23.49492388 41.12557566 25.96206014 41.11352539 28.45727539 C41.11367142 29.23770706 41.11381744 30.01813873 41.1139679 30.82221985 C41.11326858 33.4140598 41.10547536 36.00582878 41.09765625 38.59765625 C41.09579213 40.3898464 41.0943682 42.18203706 41.09336853 43.97422791 C41.08954284 48.70070797 41.07971212 53.42715752 41.06866455 58.15362549 C41.05845153 62.9728555 41.05387115 67.79209042 41.04882812 72.61132812 C41.03808989 82.07423219 41.02101286 91.53711356 41 101 C40.67 101 40.34 101 40 101 C40 81.2 40 61.4 40 41 C33.4 41 26.8 41 20 41 C20 34.4 20 27.8 20 21 C13.4 21 6.8 21 0 21 C0 14.07 0 7.14 0 0 Z " fill="#1B0403" transform="translate(257,80)"/>
<path d="M0 0 C6.6 0 13.2 0 20 0 C20 13.2 20 26.4 20 40 C13.73 40 7.46 40 1 40 C1 46.6 1 53.2 1 60 C7.6 60 14.2 60 21 60 C21 66.93 21 73.86 21 81 C20.67 81 20.34 81 20 81 C20 74.4 20 67.8 20 61 C13.4 61 6.8 61 0 61 C0 40.87 0 20.74 0 0 Z " fill="#D0A5A5" transform="translate(216,181)"/>
<path d="M0 0 C0.33 0 0.66 0 1 0 C1 13.2 1 26.4 1 40 C-12.53 40 -26.06 40 -40 40 C-40 33.4 -40 26.8 -40 20 C-26.8 20 -13.6 20 0 20 C0 13.4 0 6.8 0 0 Z " fill="#CFA6A6" transform="translate(216,262)"/>
<path d="M0 0 C13.53 0 27.06 0 41 0 C41 6.6 41 13.2 41 20 C27.47 20 13.94 20 0 20 C0 13.4 0 6.8 0 0 Z " fill="#000000" transform="translate(277,565)"/>
<path d="M0 0 C6.6 0 13.2 0 20 0 C20 13.53 20 27.06 20 41 C13.4 41 6.8 41 0 41 C0 27.47 0 13.94 0 0 Z " fill="#FDC009" transform="translate(96,403)"/>
<path d="M0 0 C6.6 0 13.2 0 20 0 C20 13.53 20 27.06 20 41 C13.4 41 6.8 41 0 41 C0 27.47 0 13.94 0 0 Z " fill="#000000" transform="translate(15,342)"/>
<path d="M0 0 C6.27 0 12.54 0 19 0 C20 1 20 1 20.11352539 4.78540039 C20.11336622 6.47282729 20.10766917 8.16025905 20.09765625 9.84765625 C20.0962413 10.7340831 20.09482635 11.62050995 20.09336853 12.53379822 C20.08775215 15.37673254 20.07519691 18.21958931 20.0625 21.0625 C20.05748711 22.98502491 20.05292384 24.90755104 20.04882812 26.83007812 C20.03862648 31.55343964 20.01905437 36.27663258 20 41 C13.4 41 6.8 41 0 41 C0 27.47 0 13.94 0 0 Z " fill="#010100" transform="translate(318,221)"/>
<path d="M0 0 C13.2 0 26.4 0 40 0 C40 6.6 40 13.2 40 20 C26.47 20 12.94 20 -1 20 C-0.67 13.4 -0.34 6.8 0 0 Z " fill="#E12A20" transform="translate(237,141)"/>
<path d="M0 0 C6.6 0 13.2 0 20 0 C20 13.2 20 26.4 20 40 C13.4 40 6.8 40 0 40 C0 26.8 0 13.6 0 0 Z " fill="#050000" transform="translate(257,383)"/>
<path d="M0 0 C6.6 0 13.2 0 20 0 C20 13.2 20 26.4 20 40 C13.4 40 6.8 40 0 40 C0 26.8 0 13.6 0 0 Z " fill="#000000" transform="translate(378,363)"/>
<path d="M0 0 C13.2 0 26.4 0 40 0 C40 6.6 40 13.2 40 20 C26.8 20 13.6 20 0 20 C0 13.4 0 6.8 0 0 Z " fill="#FDCECF" transform="translate(176,302)"/>
<path d="M0 0 C13.2 0 26.4 0 40 0 C40 6.6 40 13.2 40 20 C26.8 20 13.6 20 0 20 C0 13.4 0 6.8 0 0 Z " fill="#D1A7A7" transform="translate(96,262)"/>
<path d="M0 0 C6.6 0 13.2 0 20 0 C20 13.2 20 26.4 20 40 C13.4 40 6.8 40 0 40 C0 26.8 0 13.6 0 0 Z " fill="#D1A8A8" transform="translate(297,222)"/>
<path d="M0 0 C6.6 0 13.2 0 20 0 C20 13.2 20 26.4 20 40 C13.4 40 6.8 40 0 40 C0 26.8 0 13.6 0 0 Z " fill="#717070" transform="translate(96,60)"/>
<path d="M0 0 C13.2 0 26.4 0 40 0 C40 6.6 40 13.2 40 20 C26.8 20 13.6 20 0 20 C0 13.4 0 6.8 0 0 Z " fill="#6E6E6E" transform="translate(116,40)"/>
<path d="M0 0 C5.39352589 -0.02290785 10.78688421 -0.04283526 16.18041992 -0.05493164 C18.01668875 -0.05997231 19.85295354 -0.06680477 21.68920898 -0.07543945 C24.32276401 -0.08751672 26.95626616 -0.09323081 29.58984375 -0.09765625 C30.41588608 -0.10281754 31.24192841 -0.10797882 32.09300232 -0.11329651 C34.06236368 -0.11349205 36.03161614 -0.06204152 38 0 C42.71993409 4.71993409 39 13.3250052 39 20 C26.13 20 13.26 20 0 20 C0 13.4 0 6.8 0 0 Z " fill="#14496D" transform="translate(197,404)"/>
<path d="M0 0 C6.27 0 12.54 0 19 0 C19 13.2 19 26.4 19 40 C12.73 40 6.46 40 0 40 C0 26.8 0 13.6 0 0 Z " fill="#D0A7A8" transform="translate(76,222)"/>
<path d="M0 0 C6.6 0 13.2 0 20 0 C20 12.87 20 25.74 20 39 C13.73 39 7.46 39 1 39 C0.67 26.13 0.34 13.26 0 0 Z " fill="#000000" transform="translate(75,60)"/>
<path d="M0 0 C12.54 0 25.08 0 38 0 C38 5.94 38 11.88 38 18 C25.46 18 12.92 18 0 18 C0 12.06 0 6.12 0 0 Z " fill="#FDC008" transform="translate(157,424)"/>
<path d="M0 0 C6.93 0 13.86 0 21 0 C21 6.6 21 13.2 21 20 C14.4 20 7.8 20 1 20 C1.01160156 22.87589844 1.02320312 25.75179687 1.03515625 28.71484375 C1.04294625 31.48819875 1.04902333 34.26155254 1.05493164 37.03491211 C1.05997256 38.96818585 1.06680519 40.90145576 1.07543945 42.8347168 C1.08751565 45.60726872 1.09323057 48.37977041 1.09765625 51.15234375 C1.10281754 52.02213364 1.10797882 52.89192352 1.11329651 53.78807068 C1.11349185 55.85905814 1.06208168 57.92994324 1 60 C0 61 0 61 -1.85766602 61.11352539 C-2.64842529 61.10828857 -3.43918457 61.10305176 -4.25390625 61.09765625 C-5.0229126 61.09515869 -5.79191895 61.09266113 -6.58422852 61.09008789 C-7.56705811 61.08098389 -8.5498877 61.07187988 -9.5625 61.0625 C-14.2340625 61.0315625 -14.2340625 61.0315625 -19 61 C-19 67.27 -19 73.54 -19 80 C-19.33 80 -19.66 80 -20 80 C-20 60.53 -20 41.06 -20 21 C-19.67 21 -19.34 21 -19 21 C-19 33.54 -19 46.08 -19 59 C-12.73 59 -6.46 59 0 59 C0 39.53 0 20.06 0 0 Z " fill="#120A0A" transform="translate(95,40)"/>
<path d="M0 0 C19.8 0 39.6 0 60 0 C60 6.93 60 13.86 60 21 C53.4 21 46.8 21 40 21 C40 14.4 40 7.8 40 1 C26.8 1 13.6 1 0 1 C0 0.67 0 0.34 0 0 Z " fill="#CACACA" transform="translate(35,342)"/>
<path d="M0 0 C0.33 0 0.66 0 1 0 C1 6.6 1 13.2 1 20 C7.6 20 14.2 20 21 20 C21 33.2 21 46.4 21 60 C20.67 60 20.34 60 20 60 C20 53.4 20 46.8 20 40 C13.4 40 6.8 40 0 40 C0 26.8 0 13.6 0 0 Z " fill="#AD41B9" transform="translate(176,60)"/>
<path d="M0 0 C6.6 0 13.2 0 20 0 C20 6.93 20 13.86 20 21 C13.4 21 6.8 21 0 21 C0 14.07 0 7.14 0 0 Z " fill="#174768" transform="translate(116,403)"/>
<path d="M0 0 C6.6 0 13.2 0 20 0 C20 6.93 20 13.86 20 21 C13.4 21 6.8 21 0 21 C0 14.07 0 7.14 0 0 Z " fill="#CDA4A4" transform="translate(257,241)"/>
<path d="M0 0 C6.6 0 13.2 0 20 0 C20 6.6 20 13.2 20 20 C13.4 20 6.8 20 0 20 C0 13.4 0 6.8 0 0 Z " fill="#D6D6D5" transform="translate(277,403)"/>
<path d="M0 0 C6.6 0 13.2 0 20 0 C20 6.6 20 13.2 20 20 C13.4 20 6.8 20 0 20 C0 13.4 0 6.8 0 0 Z " fill="#070000" transform="translate(277,363)"/>
<path d="M0 0 C6.6 0 13.2 0 20 0 C20 6.6 20 13.2 20 20 C13.4 20 6.8 20 0 20 C0 13.4 0 6.8 0 0 Z " fill="#D6D6D6" transform="translate(55,363)"/>
<path d="M0 0 C6.6 0 13.2 0 20 0 C20 6.6 20 13.2 20 20 C13.4 20 6.8 20 0 20 C0 13.4 0 6.8 0 0 Z " fill="#D1A8A9" transform="translate(277,202)"/>
<path d="M0 0 C6.6 0 13.2 0 20 0 C20 6.6 20 13.2 20 20 C13.4 20 6.8 20 0 20 C0 13.4 0 6.8 0 0 Z " fill="#3F2D25" transform="translate(156,181)"/>
<path d="M0 0 C6.6 0 13.2 0 20 0 C20 6.6 20 13.2 20 20 C13.4 20 6.8 20 0 20 C0 13.4 0 6.8 0 0 Z " fill="#3E2D29" transform="translate(116,181)"/>
<path d="M0 0 C6.6 0 13.2 0 20 0 C20 6.6 20 13.2 20 20 C13.4 20 6.8 20 0 20 C0 13.4 0 6.8 0 0 Z " fill="#2773B1" transform="translate(156,161)"/>
<path d="M0 0 C6.6 0 13.2 0 20 0 C20 6.6 20 13.2 20 20 C13.4 20 6.8 20 0 20 C0 13.4 0 6.8 0 0 Z " fill="#2773B0" transform="translate(116,161)"/>
<path d="M0 0 C6.6 0 13.2 0 20 0 C20 6.6 20 13.2 20 20 C13.4 20 6.8 20 0 20 C0 13.4 0 6.8 0 0 Z " fill="#A630B9" transform="translate(136,80)"/>
<path d="M0 0 C6.6 0 13.2 0 20 0 C20 6.6 20 13.2 20 20 C13.4 20 6.8 20 0 20 C0 13.4 0 6.8 0 0 Z " fill="#050001" transform="translate(257,80)"/>
<path d="M0 0 C6.6 0 13.2 0 20 0 C20 6.6 20 13.2 20 20 C13.4 20 6.8 20 0 20 C0 13.4 0 6.8 0 0 Z " fill="#010000" transform="translate(237,60)"/>
<path d="M0 0 C6.6 0 13.2 0 20 0 C20 6.6 20 13.2 20 20 C13.4 20 6.8 20 0 20 C0 13.4 0 6.8 0 0 Z " fill="#000000" transform="translate(156,40)"/>
<path d="M0 0 C6.27 0 12.54 0 19 0 C19 6.93 19 13.86 19 21 C12.73 20.67 6.46 20.34 0 20 C0 13.4 0 6.8 0 0 Z " fill="#FAEA45" transform="translate(96,403)"/>
<path d="M0 0 C6.27 0 12.54 0 19 0 C19 6.6 19 13.2 19 20 C12.73 20 6.46 20 0 20 C0 13.4 0 6.8 0 0 Z " fill="#D3A6A6" transform="translate(197,161)"/>
<path d="M0 0 C0.33 0 0.66 0 1 0 C1 19.8 1 39.6 1 60 C14.2 60 27.4 60 41 60 C41 66.6 41 73.2 41 80 C67.4 80 93.8 80 121 80 C121 73.4 121 66.8 121 60 C121.33 60 121.66 60 122 60 C122 66.93 122 73.86 122 81 C108.47 81 94.94 81 81 81 C81 83.64 81 86.28 81 89 C80.34 89 79.68 89 79 89 C79 86.69 79 84.38 79 82 C77.854104 82.00523682 76.70820801 82.01047363 75.52758789 82.01586914 C71.29159318 82.03391717 67.05560188 82.04543128 62.81958008 82.05493164 C60.98331125 82.05997231 59.14704646 82.06680477 57.31079102 82.07543945 C54.67723599 82.08751672 52.04373384 82.09323081 49.41015625 82.09765625 C48.17109276 82.10539818 48.17109276 82.10539818 46.90699768 82.11329651 C44.93763632 82.11349205 42.96838386 82.06204152 41 82 C39.45049732 80.45049732 39.78344807 78.90009406 39.68359375 76.74609375 C39.64548584 75.9770874 39.60737793 75.20808105 39.56811523 74.41577148 C39.50346069 72.9415271 39.50346069 72.9415271 39.4375 71.4375 C39.2209375 66.7659375 39.2209375 66.7659375 39 62 C20.19 61.505 20.19 61.505 1 61 C1 73.87 1 86.74 1 100 C0.67 100 0.34 100 0 100 C0 73.93 0 47.86 0 21 C-12.87 21 -25.74 21 -39 21 C-39 20.67 -39 20.34 -39 20 C-26.13 20 -13.26 20 0 20 C0 13.4 0 6.8 0 0 Z " fill="#68555E" transform="translate(196,343)"/>
<path d="M0 0 C5.94 0 11.88 0 18 0 C18.020625 2.949375 18.04125 5.89875 18.0625 8.9375 C18.071604 9.86812256 18.08070801 10.79874512 18.09008789 11.75756836 C18.09258545 12.48596924 18.09508301 13.21437012 18.09765625 13.96484375 C18.10551147 15.08814087 18.10551147 15.08814087 18.11352539 16.23413086 C18 18 18 18 17 19 C14.13530675 19.07330331 11.30106326 19.09217831 8.4375 19.0625 C4.2609375 19.0315625 4.2609375 19.0315625 0 19 C0 12.73 0 6.46 0 0 Z " fill="#2175B5" transform="translate(96,383)"/>
<path d="M0 0 C5.61 0 11.22 0 17 0 C18.65285959 3.30571917 18.1005118 6.995378 18.0625 10.625 C18.041875 13.38875 18.02125 16.1525 18 19 C12.06 19 6.12 19 0 19 C0 12.73 0 6.46 0 0 Z " fill="#12496E" transform="translate(96,364)"/>
<path d="M0 0 C5.61 0 11.22 0 17 0 C17 5.94 17 11.88 17 18 C11.39 18 5.78 18 0 18 C0 12.06 0 6.12 0 0 Z " fill="#12496D" transform="translate(198,343)"/>
<path d="M0 0 C5.28 0 10.56 0 16 0 C16 5.61 16 11.22 16 17 C10.06 17 4.12 17 -2 17 C-2.16223299 10.3484476 -2.14165537 6.42496612 0 0 Z " fill="#12496E" transform="translate(219,324)"/>
<path d="M0 0 C0.33 0 0.66 0 1 0 C1 10.56 1 21.12 1 32 C-5.27 32 -11.54 32 -18 32 C-17.505 41.405 -17.505 41.405 -17 51 C-11.4505765 51.28919259 -11.4505765 51.28919259 -5.90063477 51.56811523 C-0.11111111 51.88888889 -0.11111111 51.88888889 1 53 C1 65.87 1 78.74 1 92 C-25.4 92 -51.8 92 -79 92 C-79 85.73 -79 79.46 -79 73 C-78.34 73.33 -77.68 73.66 -77 74 C-77.33 79.61 -77.66 85.22 -78 91 C-52.92 90.67 -27.84 90.34 -2 90 C-1.67 78.12 -1.34 66.24 -1 54 C-6.61 53.67 -12.22 53.34 -18 53 C-19 52 -19 52 -19.11352539 49.95874023 C-19.10828857 49.08419189 -19.10305176 48.20964355 -19.09765625 47.30859375 C-19.09443359 46.36435547 -19.09121094 45.42011719 -19.08789062 44.44726562 C-19.07532227 42.95743164 -19.07532227 42.95743164 -19.0625 41.4375 C-19.05798828 40.44041016 -19.05347656 39.44332031 -19.04882812 38.41601562 C-19.03700023 35.94398513 -19.01906415 33.47198528 -19 31 C-12.73 31 -6.46 31 0 31 C0 20.77 0 10.54 0 0 Z " fill="#1E435C" transform="translate(276,432)"/>
<path d="M0 0 C0.33 0 0.66 0 1 0 C1 6.6 1 13.2 1 20 C7.6 20 14.2 20 21 20 C21 33.2 21 46.4 21 60 C14.4 60 7.8 60 1 60 C1 73.2 1 86.4 1 100 C0.67 100 0.34 100 0 100 C0 67 0 34 0 0 Z M1 21 C1 33.54 1 46.08 1 59 C6.61 59 12.22 59 18 59 C19.75604008 57.24395992 19.12832585 54.94067677 19.13894653 52.60169983 C19.1369223 51.84755295 19.13489807 51.09340607 19.1328125 50.31640625 C19.13376923 49.54570297 19.13472595 48.77499969 19.13571167 47.98094177 C19.13639349 46.34756387 19.13453909 44.71418327 19.13037109 43.08081055 C19.12503007 40.57659828 19.13031224 38.07256597 19.13671875 35.56835938 C19.13605783 33.9843746 19.13477637 32.40038994 19.1328125 30.81640625 C19.13483673 30.0642836 19.13686096 29.31216095 19.13894653 28.5372467 C19.19696364 24.64068001 19.19696364 24.64068001 18 21 C12.39 21 6.78 21 1 21 Z " fill="#4D533D" transform="translate(95,343)"/>
<path d="M0 0 C0.83265381 0.00523682 1.66530762 0.01047363 2.52319336 0.01586914 C3.42231445 0.0190918 4.32143555 0.02231445 5.24780273 0.02563477 C6.66609375 0.03820312 6.66609375 0.03820312 8.11303711 0.05102539 C9.06243164 0.05553711 10.01182617 0.06004883 10.98999023 0.06469727 C13.34356776 0.07652429 15.69702188 0.09300514 18.05053711 0.11352539 C18.05053711 0.77352539 18.05053711 1.43352539 18.05053711 2.11352539 C11.78053711 2.11352539 5.51053711 2.11352539 -0.94946289 2.11352539 C-0.94946289 8.71352539 -0.94946289 15.31352539 -0.94946289 22.11352539 C-7.54946289 22.11352539 -14.14946289 22.11352539 -20.94946289 22.11352539 C-20.94946289 34.32352539 -20.94946289 46.53352539 -20.94946289 59.11352539 C-8.40946289 59.11352539 4.13053711 59.11352539 17.05053711 59.11352539 C17.05053711 59.77352539 17.05053711 60.43352539 17.05053711 61.11352539 C4.18053711 61.11352539 -8.68946289 61.11352539 -21.94946289 61.11352539 C-21.94946289 47.91352539 -21.94946289 34.71352539 -21.94946289 21.11352539 C-15.67946289 21.11352539 -9.40946289 21.11352539 -2.94946289 21.11352539 C-2.96106445 19.68137695 -2.97266602 18.24922852 -2.98461914 16.77368164 C-2.99399544 14.90779752 -3.00309581 13.041912 -3.01196289 11.17602539 C-3.0203418 10.23049805 -3.0287207 9.2849707 -3.03735352 8.31079102 C-3.0421875 6.96210938 -3.0421875 6.96210938 -3.04711914 5.58618164 C-3.05497437 4.33720093 -3.05497437 4.33720093 -3.06298828 3.06298828 C-2.90876673 0.41468917 -2.64829911 0.15422155 0 0 Z " fill="#D14747" transform="translate(218.949462890625,341.886474609375)"/>
<path d="M0 0 C6.93 0 13.86 0 21 0 C21 6.6 21 13.2 21 20 C20.34 20 19.68 20 19 20 C19 14.06 19 8.12 19 2 C16.751875 2.020625 14.50375 2.04125 12.1875 2.0625 C5.375 2.125 5.375 2.125 2 1 C2 14.2 2 27.4 2 41 C-5.26 41 -12.52 41 -20 41 C-20 40.67 -20 40.34 -20 40 C-13.4 40 -6.8 40 0 40 C0 26.8 0 13.6 0 0 Z " fill="#C8453A" transform="translate(236,80)"/>
<path d="M0 0 C13.86 0 27.72 0 42 0 C42 6.27 42 12.54 42 19 C43.43214844 18.98839844 44.86429687 18.97679687 46.33984375 18.96484375 C48.20572787 18.95546745 50.07161339 18.94636708 51.9375 18.9375 C52.88302734 18.92912109 53.82855469 18.92074219 54.80273438 18.91210938 C56.15141602 18.90727539 56.15141602 18.90727539 57.52734375 18.90234375 C58.77632446 18.89448853 58.77632446 18.89448853 60.05053711 18.88647461 C62 19 62 19 63 20 C63.08685603 21.56172745 63.10702219 23.12729344 63.09765625 24.69140625 C63.09443359 25.63564453 63.09121094 26.57988281 63.08789062 27.55273438 C63.07532227 29.04256836 63.07532227 29.04256836 63.0625 30.5625 C63.05798828 31.55958984 63.05347656 32.55667969 63.04882812 33.58398438 C63.03700007 36.05604849 63.02051849 38.52799518 63 41 C62.34 41 61.68 41 61 41 C61 34.4 61 27.8 61 21 C54.4 21 47.8 21 41 21 C41 14.4 41 7.8 41 1 C27.8 1 14.6 1 1 1 C1 7.27 1 13.54 1 20 C0.67 20 0.34 20 0 20 C0 13.4 0 6.8 0 0 Z " fill="#5B100F" transform="translate(236,322)"/>
<path d="M0 0 C0.33 0 0.66 0 1 0 C1 13.53 1 27.06 1 41 C-5.6 41 -12.2 41 -19 41 C-19 34.07 -19 27.14 -19 20 C-13.06 20 -7.12 20 -1 20 C-0.67 13.4 -0.34 6.8 0 0 Z M-18 21 C-18 26.94 -18 32.88 -18 39 C-12.39 39 -6.78 39 -1 39 C-1 33.06 -1 27.12 -1 21 C-6.61 21 -12.22 21 -18 21 Z " fill="#CBB638" transform="translate(115,403)"/>
<path d="M0 0 C0.83265381 0.00523682 1.66530762 0.01047363 2.52319336 0.01586914 C3.42231445 0.0190918 4.32143555 0.02231445 5.24780273 0.02563477 C6.66609375 0.03820312 6.66609375 0.03820312 8.11303711 0.05102539 C9.06243164 0.05553711 10.01182617 0.06004883 10.98999023 0.06469727 C13.34356776 0.07652429 15.69702188 0.09300514 18.05053711 0.11352539 C18.05053711 0.77352539 18.05053711 1.43352539 18.05053711 2.11352539 C11.78053711 2.11352539 5.51053711 2.11352539 -0.94946289 2.11352539 C-0.94946289 8.71352539 -0.94946289 15.31352539 -0.94946289 22.11352539 C-7.87946289 22.11352539 -14.80946289 22.11352539 -21.94946289 22.11352539 C-21.94946289 21.78352539 -21.94946289 21.45352539 -21.94946289 21.11352539 C-15.67946289 21.11352539 -9.40946289 21.11352539 -2.94946289 21.11352539 C-2.96106445 19.68137695 -2.97266602 18.24922852 -2.98461914 16.77368164 C-2.99399544 14.90779752 -3.00309581 13.041912 -3.01196289 11.17602539 C-3.0203418 10.23049805 -3.0287207 9.2849707 -3.03735352 8.31079102 C-3.0421875 6.96210938 -3.0421875 6.96210938 -3.04711914 5.58618164 C-3.05497437 4.33720093 -3.05497437 4.33720093 -3.06298828 3.06298828 C-2.90876673 0.41468917 -2.64829911 0.15422155 0 0 Z " fill="#B84344" transform="translate(218.949462890625,341.886474609375)"/>
<path d="M0 0 C13.2 0 26.4 0 40 0 C40 0.99 40 1.98 40 3 C33.4 3 26.8 3 20 3 C20 2.34 20 1.68 20 1 C13.4 1 6.8 1 0 1 C0 0.67 0 0.34 0 0 Z " fill="#DC4455" transform="translate(116,100)"/>
<path d="M0 0 C6.6 0 13.2 0 20 0 C20 6.6 20 13.2 20 20 C19.34 20 18.68 20 18 20 C17.505 10.595 17.505 10.595 17 1 C11.39 1 5.78 1 0 1 C0 0.67 0 0.34 0 0 Z " fill="#394258" transform="translate(96,363)"/>
<path d="M0 0 C0.66 0 1.32 0 2 0 C2 6.6 2 13.2 2 20 C-4.6 20 -11.2 20 -18 20 C-18 19.67 -18 19.34 -18 19 C-9.585 18.505 -9.585 18.505 -1 18 C-0.67 12.06 -0.34 6.12 0 0 Z " fill="#516A80" transform="translate(114,383)"/>
<path d="M0 0 C0.33 0 0.66 0 1 0 C1 6.27 1 12.54 1 19 C-5.27 19 -11.54 19 -18 19 C-14.2632157 16.50881047 -12.25548181 16.7934774 -7.8125 16.875 C-5.564375 16.91625 -3.31625 16.9575 -1 17 C-0.67 11.39 -0.34 5.78 0 0 Z " fill="#0F5282" transform="translate(135,405)"/>
<path d="M0 0 C6.6 0 13.2 0 20 0 C20 0.66 20 1.32 20 2 C10.595 2.495 10.595 2.495 1 3 C0.67 2.01 0.34 1.02 0 0 Z " fill="#293341" transform="translate(156,181)"/>
<path d="M0 0 C0.33 0 0.66 0 1 0 C1.20496094 0.62648438 1.40992188 1.25296875 1.62109375 1.8984375 C1.89050781 2.71570313 2.15992188 3.53296875 2.4375 4.375 C2.70433594 5.18710937 2.97117188 5.99921875 3.24609375 6.8359375 C3.95179729 9.01031799 3.95179729 9.01031799 5 11 C3.35 11 1.7 11 0 11 C0 7.37 0 3.74 0 0 Z " fill="#5F4B44" transform="translate(35,513)"/>
<path d="M0 0 C1.65 0 3.3 0 5 0 C4.67 1.32 4.34 2.64 4 4 C2.68 4.33 1.36 4.66 0 5 C0 3.35 0 1.7 0 0 Z " fill="#F5F5FA" transform="translate(298,363)"/>
</svg>
