<?xml version="1.0" encoding="UTF-8"?>
<svg version="1.1" xmlns="http://www.w3.org/2000/svg" width="451" height="481">
<path d="M0 0 C9.9 0 19.8 0 30 0 C30 29.7 30 59.4 30 90 C39.9 90 49.8 90 60 90 C60 129.6 60 169.2 60 210 C69.9 210 79.8 210 90 210 C90 219.9 90 229.8 90 240 C99.9 240 109.8 240 120 240 C120 210.3 120 180.6 120 150 C129.9 150 139.8 150 150 150 C150 209.4 150 268.8 150 330 C159.9 330 169.8 330 180 330 C180 339.9 180 349.8 180 360 C189.9 360 199.8 360 210 360 C210 320.4 210 280.8 210 240 C219.9 240 229.8 240 240 240 C240 319.2 240 398.4 240 480 C230.1 480 220.2 480 210 480 C210 470.1 210 460.2 210 450 C200.1 450 190.2 450 180 450 C180 440.1 180 430.2 180 420 C170.1 420 160.2 420 150 420 C150 410.1 150 400.2 150 390 C140.1 390 130.2 390 120 390 C120 409.8 120 429.6 120 450 C100.2 450 80.4 450 60 450 C60 440.1 60 430.2 60 420 C50.1 420 40.2 420 30 420 C30 439.8 30 459.6 30 480 C20.1 480 10.2 480 0 480 C0 460.2 0 440.4 0 420 C-9.9 420 -19.8 420 -30 420 C-30 429.9 -30 439.8 -30 450 C-49.8 450 -69.6 450 -90 450 C-90 430.2 -90 410.4 -90 390 C-99.9 390 -109.8 390 -120 390 C-120 399.9 -120 409.8 -120 420 C-129.9 420 -139.8 420 -150 420 C-150 429.9 -150 439.8 -150 450 C-159.9 450 -169.8 450 -180 450 C-180 459.9 -180 469.8 -180 480 C-189.9 480 -199.8 480 -210 480 C-210 400.8 -210 321.6 -210 240 C-200.1 240 -190.2 240 -180 240 C-180 279.6 -180 319.2 -180 360 C-170.1 360 -160.2 360 -150 360 C-150 350.1 -150 340.2 -150 330 C-140.1 330 -130.2 330 -120 330 C-120 270.6 -120 211.2 -120 150 C-110.1 150 -100.2 150 -90 150 C-90 179.7 -90 209.4 -90 240 C-80.1 240 -70.2 240 -60 240 C-60 230.1 -60 220.2 -60 210 C-50.1 210 -40.2 210 -30 210 C-30 170.4 -30 130.8 -30 90 C-20.1 90 -10.2 90 0 90 C0 60.3 0 30.6 0 0 Z M1 240 C0.67 249.9 0.34 259.8 0 270 C-9.57 270 -19.14 270 -29 270 C-29 289.47 -29 308.94 -29 329 C-19.76 329 -10.52 329 -1 329 C-1 319.43 -1 309.86 -1 300 C9.23 300 19.46 300 30 300 C30.495 314.355 30.495 314.355 31 329 C44.86 329.495 44.86 329.495 59 330 C59 310.2 59 290.4 59 270 C49.43 270 39.86 270 30 270 C29.67 260.1 29.34 250.2 29 240 C19.76 240 10.52 240 1 240 Z " fill="#F90001" transform="translate(211,1)"/>
<path d="M0 0 C9.9 0 19.8 0 30 0 C30 49.83 30 99.66 30 151 C19.44 151 8.88 151 -2 151 C-2 141.43 -2 131.86 -2 122 C-11.1698291 122.03959518 -11.1698291 122.03959518 -20.33959961 122.09008789 C-21.47405518 122.09258545 -22.60851074 122.09508301 -23.77734375 122.09765625 C-25.52905884 122.10551147 -25.52905884 122.10551147 -27.31616211 122.11352539 C-30 122 -30 122 -31 121 C-31.0883967 118.6243148 -31.11530305 116.27791326 -31.09765625 113.90234375 C-31.0962413 113.19348526 -31.09482635 112.48462677 -31.09336853 111.75428772 C-31.08775443 109.48198288 -31.07519963 107.20977525 -31.0625 104.9375 C-31.05748681 103.40039204 -31.05292359 101.86328255 -31.04882812 100.32617188 C-31.0386297 96.55071333 -31.01905732 92.77546596 -31 89 C-20.77 89.33 -10.54 89.66 0 90 C0 60.3 0 30.6 0 0 Z " fill="#F70102" transform="translate(331,151)"/>
<path d="M0 0 C9.9 0 19.8 0 30 0 C30 29.7 30 59.4 30 90 C39.9 90 49.8 90 60 90 C60.020625 94.764375 60.04125 99.52875 60.0625 104.4375 C60.071604 105.9423999 60.08070801 107.4472998 60.09008789 108.99780273 C60.09258545 110.17286377 60.09508301 111.3479248 60.09765625 112.55859375 C60.10289307 113.76829834 60.10812988 114.97800293 60.11352539 116.22436523 C60 119 60 119 59 120 C56.85441173 120.08775605 54.70595579 120.10695219 52.55859375 120.09765625 C51.25341797 120.09443359 49.94824219 120.09121094 48.60351562 120.08789062 C47.2148431 120.07953401 45.82617123 120.07106905 44.4375 120.0625 C43.04492344 120.05748666 41.65234519 120.05292347 40.25976562 120.04882812 C36.8398013 120.03699434 33.41992156 120.0205088 30 120 C30.00785522 121.30988892 30.00785522 121.30988892 30.01586914 122.64624023 C30.03287751 125.87589273 30.04543369 129.10552245 30.05493164 132.33520508 C30.0599708 133.73495228 30.06680216 135.1346942 30.07543945 136.53442383 C30.0875232 138.54245777 30.09269807 140.55052957 30.09765625 142.55859375 C30.10551147 144.37315063 30.10551147 144.37315063 30.11352539 146.22436523 C30 149 30 149 29 150 C19.43 150 9.86 150 0 150 C0 100.5 0 51 0 0 Z " fill="#F60106" transform="translate(91,151)"/>
<path d="M0 0 C9.9 0 19.8 0 30 0 C30 9.9 30 19.8 30 30 C39.9 30 49.8 30 60 30 C60 49.8 60 69.6 60 90 C40.2 90 20.4 90 0 90 C0 60.3 0 30.6 0 0 Z " fill="#FAE000" transform="translate(271,361)"/>
<path d="M0 0 C9.9 0 19.8 0 30 0 C30 29.7 30 59.4 30 90 C10.2 90 -9.6 90 -30 90 C-30 70.2 -30 50.4 -30 30 C-20.1 30 -10.2 30 0 30 C0 20.1 0 10.2 0 0 Z " fill="#FAE000" transform="translate(151,361)"/>
<path d="M0 0 C9.9 0 19.8 0 30 0 C30 19.8 30 39.6 30 60 C20.1 60 10.2 60 0 60 C0 40.2 0 20.4 0 0 Z " fill="#FAE001" transform="translate(421,241)"/>
<path d="M0 0 C9.9 0 19.8 0 30 0 C30 19.8 30 39.6 30 60 C20.1 60 10.2 60 0 60 C0 40.2 0 20.4 0 0 Z " fill="#FAE002" transform="translate(1,241)"/>
<path d="M0 0 C9.9 0 19.8 0 30 0 C30 19.8 30 39.6 30 60 C20.1 60 10.2 60 0 60 C0 40.2 0 20.4 0 0 Z " fill="#FAE001" transform="translate(331,151)"/>
<path d="M0 0 C9.9 0 19.8 0 30 0 C30 19.8 30 39.6 30 60 C20.1 60 10.2 60 0 60 C0 40.2 0 20.4 0 0 Z " fill="#FAE002" transform="translate(91,151)"/>
<path d="M0 0 C9.9 0 19.8 0 30 0 C30.020625 4.764375 30.04125 9.52875 30.0625 14.4375 C30.071604 15.9423999 30.08070801 17.4472998 30.09008789 18.99780273 C30.09258545 20.17286377 30.09508301 21.3479248 30.09765625 22.55859375 C30.10551147 24.37315063 30.10551147 24.37315063 30.11352539 26.22436523 C30 29 30 29 29 30 C26.85441173 30.08775605 24.70595579 30.10695219 22.55859375 30.09765625 C21.38353271 30.09515869 20.20847168 30.09266113 18.99780273 30.09008789 C17.49290283 30.08098389 15.98800293 30.07187988 14.4375 30.0625 C9.673125 30.041875 4.90875 30.02125 0 30 C0 20.1 0 10.2 0 0 Z " fill="#0000F9" transform="translate(91,271)"/>
<path d="M0 0 C9.9 0 19.8 0 30 0 C30 9.9 30 19.8 30 30 C25.235625 30.020625 20.47125 30.04125 15.5625 30.0625 C14.0576001 30.071604 12.5527002 30.08070801 11.00219727 30.09008789 C9.82713623 30.09258545 8.6520752 30.09508301 7.44140625 30.09765625 C6.23170166 30.10289307 5.02199707 30.10812988 3.77563477 30.11352539 C1 30 1 30 0 29 C-0.08775605 26.85441173 -0.10695219 24.70595579 -0.09765625 22.55859375 C-0.09515869 21.38353271 -0.09266113 20.20847168 -0.09008789 18.99780273 C-0.08098389 17.49290283 -0.07187988 15.98800293 -0.0625 14.4375 C-0.041875 9.673125 -0.02125 4.90875 0 0 Z " fill="#0000F9" transform="translate(301,241)"/>
<path d="M0 0 C9.9 0 19.8 0 30 0 C30.020625 4.764375 30.04125 9.52875 30.0625 14.4375 C30.071604 15.9423999 30.08070801 17.4472998 30.09008789 18.99780273 C30.09258545 20.17286377 30.09508301 21.3479248 30.09765625 22.55859375 C30.10551147 24.37315063 30.10551147 24.37315063 30.11352539 26.22436523 C30 29 30 29 29 30 C26.85441173 30.08775605 24.70595579 30.10695219 22.55859375 30.09765625 C21.38353271 30.09515869 20.20847168 30.09266113 18.99780273 30.09008789 C17.49290283 30.08098389 15.98800293 30.07187988 14.4375 30.0625 C9.673125 30.041875 4.90875 30.02125 0 30 C0 20.1 0 10.2 0 0 Z " fill="#0100F8" transform="translate(121,241)"/>
<path d="M0 0 C9.57 0 19.14 0 29 0 C29 9.24 29 18.48 29 28 C19.43 28 9.86 28 0 28 C0 18.76 0 9.52 0 0 Z " fill="#0300F1" transform="translate(332,272)"/>
<path d="M0 0 C9.9 0 19.8 0 30 0 C30 9.9 30 19.8 30 30 C39.9 30 49.8 30 60 30 C60 37.92 60 45.84 60 54 C59.34 54 58.68 54 58 54 C58 46.74 58 39.48 58 32 C56.00195312 32.02320313 54.00390625 32.04640625 51.9453125 32.0703125 C50.01253761 32.08421736 48.07976148 32.09805206 46.14697266 32.10986328 C44.1408864 32.12488107 42.13488676 32.15028981 40.12890625 32.17578125 C38.87207031 32.18222656 37.61523438 32.18867188 36.3203125 32.1953125 C35.15773926 32.20578613 33.99516602 32.21625977 32.79736328 32.22705078 C30 32 30 32 28 30 C27.77294922 27.20263672 27.77294922 27.20263672 27.8046875 23.6796875 C27.81113281 22.42285156 27.81757813 21.16601562 27.82421875 19.87109375 C27.84097656 18.55238281 27.85773438 17.23367188 27.875 15.875 C27.88503017 14.53516279 27.89415596 13.19531848 27.90234375 11.85546875 C27.92597852 8.57023624 27.9618505 5.28509602 28 2 C19.42 2 10.84 2 2 2 C2 31.04 2 60.08 2 90 C1.34 90 0.68 90 0 90 C0 60.3 0 30.6 0 0 Z " fill="#FCCD23" transform="translate(271,361)"/>
<path d="M0 0 C4.37823917 -0.04938149 8.75633146 -0.0857104 13.13476562 -0.10986328 C14.6247032 -0.11993043 16.11462097 -0.13358518 17.60449219 -0.15087891 C19.74419028 -0.17509653 21.88362753 -0.18647564 24.0234375 -0.1953125 C25.31169434 -0.20578613 26.59995117 -0.21625977 27.92724609 -0.22705078 C31 0 31 0 33 2 C33.22705078 4.79736328 33.22705078 4.79736328 33.1953125 8.3203125 C33.19031738 9.45227051 33.18532227 10.58422852 33.18017578 11.75048828 C33.16196777 13.19407715 33.14375977 14.63766602 33.125 16.125 C33.08375 20.70375 33.0425 25.2825 33 30 C42.9 30 52.8 30 63 30 C63.495 30.99 63.495 30.99 64 32 C53.11 32 42.22 32 31 32 C31 22.1 31 12.2 31 2 C21.1 2 11.2 2 1 2 C1 21.8 1 41.6 1 62 C-8.57 62 -18.14 62 -28 62 C-28 61.34 -28 60.68 -28 60 C-19.09 60 -10.18 60 -1 60 C-1.01160156 55.83632813 -1.02320313 51.67265625 -1.03515625 47.3828125 C-1.04158495 44.06771373 -1.04700856 40.75261671 -1.05175018 37.43751526 C-1.0570359 33.93538161 -1.0641021 30.43327207 -1.07543945 26.93115234 C-1.08835974 22.91503666 -1.0932324 18.8989466 -1.09765625 14.8828125 C-1.10281754 13.62445587 -1.10797882 12.36609924 -1.11329651 11.0696106 C-1.11337204 9.90855804 -1.11344757 8.74750549 -1.11352539 7.55126953 C-1.115746 6.52534698 -1.11796661 5.49942444 -1.12025452 4.44241333 C-1 2 -1 2 0 0 Z " fill="#D71703" transform="translate(270,359)"/>
<path d="M0 0 C9.9 0 19.8 0 30 0 C30 29.7 30 59.4 30 90 C27.824147 85.648294 27.72902487 82.54520187 27.77294922 77.83496094 C27.77265717 77.0150769 27.77236511 76.19519287 27.77206421 75.35046387 C27.77345568 72.64499263 27.7890083 69.93979803 27.8046875 67.234375 C27.80841828 65.35679271 27.81126494 63.47920847 27.81326294 61.60162354 C27.82089429 56.66307182 27.84053855 51.72463799 27.8626709 46.78613281 C27.88314002 41.74545893 27.89226694 36.70476598 27.90234375 31.6640625 C27.92378489 21.77598157 27.95896302 11.88801904 28 2 C19.42 2 10.84 2 2 2 C2.02320313 3.99804688 2.04640625 5.99609375 2.0703125 8.0546875 C2.08421736 9.98746239 2.09805206 11.92023852 2.10986328 13.85302734 C2.12488107 15.8591136 2.15028981 17.86511324 2.17578125 19.87109375 C2.18544922 21.75634766 2.18544922 21.75634766 2.1953125 23.6796875 C2.21102295 25.42354736 2.21102295 25.42354736 2.22705078 27.20263672 C2 30 2 30 0 32 C-2.65795898 32.25537109 -2.65795898 32.25537109 -5.99609375 32.2734375 C-7.79336914 32.304375 -7.79336914 32.304375 -9.62695312 32.3359375 C-12.1633437 32.36193843 -14.69982574 32.38019209 -17.23632812 32.390625 C-18.43580078 32.41382813 -19.63527344 32.43703125 -20.87109375 32.4609375 C-21.97380615 32.46915527 -23.07651855 32.47737305 -24.21264648 32.48583984 C-27.13331982 32.73717043 -27.13331982 32.73717043 -28.88305664 35.03369141 C-29.25164795 35.68257324 -29.62023926 36.33145508 -30 37 C-30 34.69 -30 32.38 -30 30 C-20.1 30 -10.2 30 0 30 C0 20.1 0 10.2 0 0 Z " fill="#FDCA23" transform="translate(151,361)"/>
<path d="M0 0 C0.33 0 0.66 0 1 0 C1.33 9.9 1.66 19.8 2 30 C11.57 30.33 21.14 30.66 31 31 C31 20.77 31 10.54 31 0 C31.33 0 31.66 0 32 0 C32 9.9 32 19.8 32 30 C41.57 30 51.14 30 61 30 C61 30.66 61 31.32 61 32 C51.43 32 41.86 32 32 32 C32 41.24 32 50.48 32 60 C41.57 60 51.14 60 61 60 C61 60.66 61 61.32 61 62 C50.44 62 39.88 62 29 62 C29 52.43 29 42.86 29 33 C19.8301709 33.03959518 19.8301709 33.03959518 10.66040039 33.09008789 C9.52594482 33.09258545 8.39148926 33.09508301 7.22265625 33.09765625 C5.47094116 33.10551147 5.47094116 33.10551147 3.68383789 33.11352539 C1 33 1 33 0 32 C-0.0883967 29.6243148 -0.11530305 27.27791326 -0.09765625 24.90234375 C-0.0962413 24.19348526 -0.09482635 23.48462677 -0.09336853 22.75428772 C-0.08775443 20.48198288 -0.07519963 18.20977525 -0.0625 15.9375 C-0.05748681 14.40039204 -0.05292359 12.86328255 -0.04882812 11.32617188 C-0.03778042 7.55074358 -0.02050641 3.77538829 0 0 Z " fill="#7D097B" transform="translate(300,240)"/>
<path d="M0 0 C2.14240263 -0.00971061 4.28384799 -0.04072315 6.42602539 -0.07226562 C7.78213947 -0.07879499 9.13826042 -0.08404572 10.49438477 -0.08789062 C12.3543811 -0.10190918 12.3543811 -0.10190918 14.25195312 -0.11621094 C15.23043213 0.00141602 16.20891113 0.11904297 17.21704102 0.24023438 C19.48825811 3.64706001 19.46172988 4.81820621 19.4440918 8.81323242 C19.44394073 9.95418869 19.44378967 11.09514496 19.44363403 12.27067566 C19.43331146 13.50199722 19.42298889 14.73331879 19.41235352 16.00195312 C19.40952362 17.26288284 19.40669373 18.52381256 19.40377808 19.82295227 C19.39447227 23.1718386 19.37650805 26.52045228 19.35437012 29.8692627 C19.33389487 33.28781741 19.32466315 36.70640115 19.31469727 40.125 C19.29432281 46.83023175 19.25517513 53.5349858 19.21704102 60.24023438 C27.79704102 60.24023438 36.37704102 60.24023438 45.21704102 60.24023438 C45.54704102 60.90023437 45.87704102 61.56023437 46.21704102 62.24023438 C36.64704102 62.24023438 27.07704102 62.24023438 17.21704102 62.24023438 C17.21704102 42.44023437 17.21704102 22.64023437 17.21704102 2.24023438 C7.31704102 2.24023438 -2.58295898 2.24023438 -12.78295898 2.24023438 C-12.78295898 12.14023437 -12.78295898 22.04023438 -12.78295898 32.24023438 C-22.02295898 32.24023438 -31.26295898 32.24023438 -40.78295898 32.24023438 C-40.78295898 31.91023438 -40.78295898 31.58023437 -40.78295898 31.24023438 C-31.87295898 31.24023438 -22.96295898 31.24023438 -13.78295898 31.24023438 C-13.79456055 29.08621094 -13.80616211 26.9321875 -13.81811523 24.71289062 C-13.82590635 22.63452298 -13.8319828 20.55615695 -13.83789062 18.4777832 C-13.84292999 17.02953365 -13.84976152 15.58128921 -13.85839844 14.13305664 C-13.87048145 12.05548849 -13.8761911 9.9779874 -13.88061523 7.90039062 C-13.88585205 6.6487915 -13.89108887 5.39719238 -13.89648438 4.10766602 C-13.63770487 -2.4286035 -5.12854226 0.01411687 0 0 Z " fill="#D41903" transform="translate(163.782958984375,358.759765625)"/>
<path d="M0 0 C9.9 0 19.8 0 30 0 C30.020625 4.764375 30.04125 9.52875 30.0625 14.4375 C30.071604 15.9423999 30.08070801 17.4472998 30.09008789 18.99780273 C30.09258545 20.17286377 30.09508301 21.3479248 30.09765625 22.55859375 C30.10551147 24.37315063 30.10551147 24.37315063 30.11352539 26.22436523 C30 29 30 29 29 30 C26.85441173 30.08775605 24.70595579 30.10695219 22.55859375 30.09765625 C21.38353271 30.09515869 20.20847168 30.09266113 18.99780273 30.09008789 C17.49290283 30.08098389 15.98800293 30.07187988 14.4375 30.0625 C9.673125 30.041875 4.90875 30.02125 0 30 C0 20.1 0 10.2 0 0 Z M1 2 C0.979375 5.361875 0.95875 8.72375 0.9375 12.1875 C0.928396 13.23832764 0.91929199 14.28915527 0.90991211 15.37182617 C0.90741455 16.21205322 0.90491699 17.05228027 0.90234375 17.91796875 C0.89710693 18.77156982 0.89187012 19.6251709 0.88647461 20.50463867 C0.9569752 23.44071947 0.9569752 23.44071947 2 28 C10.58 28 19.16 28 28 28 C28 19.42 28 10.84 28 2 C19.09 2 10.18 2 1 2 Z " fill="#2C00B2" transform="translate(91,271)"/>
<path d="M0 0 C0.66 0 1.32 0 2 0 C2 19.8 2 39.6 2 60 C-7.9 60 -17.8 60 -28 60 C-28 51.09 -28 42.18 -28 33 C-27.67 33 -27.34 33 -27 33 C-27 41.25 -27 49.5 -27 58 C-18.09 58 -9.18 58 0 58 C0 38.86 0 19.72 0 0 Z " fill="#F5D629" transform="translate(359,151)"/>
<path d="M0 0 C0.66 0 1.32 0 2 0 C2 9.24 2 18.48 2 28 C10.58 28 19.16 28 28 28 C28 19.09 28 10.18 28 1 C27.01 0.67 26.02 0.34 25 0 C26.65 0 28.3 0 30 0 C30.02465746 4.1117256 30.04283959 8.22342278 30.05493164 12.33520508 C30.0599708 13.73495228 30.06680216 15.1346942 30.07543945 16.53442383 C30.0875232 18.54245777 30.09269807 20.55052957 30.09765625 22.55859375 C30.10551147 24.37315063 30.10551147 24.37315063 30.11352539 26.22436523 C30 29 30 29 29 30 C26.85441173 30.08775605 24.70595579 30.10695219 22.55859375 30.09765625 C21.38353271 30.09515869 20.20847168 30.09266113 18.99780273 30.09008789 C17.49290283 30.08098389 15.98800293 30.07187988 14.4375 30.0625 C9.673125 30.041875 4.90875 30.02125 0 30 C0 20.1 0 10.2 0 0 Z " fill="#3300AC" transform="translate(121,241)"/>
<path d="M0 0 C0.66 0 1.32 0 2 0 C2 9.24 2 18.48 2 28 C10.58 28 19.16 28 28 28 C28 18.76 28 9.52 28 0 C28.66 0 29.32 0 30 0 C30 9.9 30 19.8 30 30 C25.235625 30.020625 20.47125 30.04125 15.5625 30.0625 C14.0576001 30.071604 12.5527002 30.08070801 11.00219727 30.09008789 C9.82713623 30.09258545 8.6520752 30.09508301 7.44140625 30.09765625 C6.23170166 30.10289307 5.02199707 30.10812988 3.77563477 30.11352539 C1 30 1 30 0 29 C-0.08775605 26.85441173 -0.10695219 24.70595579 -0.09765625 22.55859375 C-0.09443359 21.25341797 -0.09121094 19.94824219 -0.08789062 18.60351562 C-0.07953401 17.2148431 -0.07106905 15.82617123 -0.0625 14.4375 C-0.05748666 13.04492344 -0.05292347 11.65234519 -0.04882812 10.25976562 C-0.03699434 6.8398013 -0.0205088 3.41992156 0 0 Z " fill="#3400AB" transform="translate(301,241)"/>
<path d="M0 0 C0.33 0 0.66 0 1 0 C1.02465504 4.39656173 1.04283842 8.7930872 1.05493164 13.18969727 C1.05997121 14.68644918 1.06680287 16.18319616 1.07543945 17.67993164 C1.08752159 19.82699807 1.09323191 21.97399962 1.09765625 24.12109375 C1.10289307 25.4145874 1.10812988 26.70808105 1.11352539 28.04077148 C1 31 1 31 0 32 C-2.14558827 32.08775605 -4.29404421 32.10695219 -6.44140625 32.09765625 C-7.61646729 32.09515869 -8.79152832 32.09266113 -10.00219727 32.09008789 C-11.50709717 32.08098389 -13.01199707 32.07187988 -14.5625 32.0625 C-19.326875 32.041875 -24.09125 32.02125 -29 32 C-29 42.23 -29 52.46 -29 63 C-38.9 63 -48.8 63 -59 63 C-59.33 63.99 -59.66 64.98 -60 66 C-60 64.35 -60 62.7 -60 61 C-50.43 60.67 -40.86 60.34 -31 60 C-30.67 50.43 -30.34 40.86 -30 31 C-20.43 30.67 -10.86 30.34 -1 30 C-0.67 20.1 -0.34 10.2 0 0 Z " fill="#AE116D" transform="translate(151,240)"/>
<path d="M0 0 C0.33 0 0.66 0 1 0 C1.33 9.9 1.66 19.8 2 30 C11.57 30.33 21.14 30.66 31 31 C31.495 46.345 31.495 46.345 32 62 C31.01 62 30.02 62 29 62 C29 52.43 29 42.86 29 33 C19.8301709 33.03959518 19.8301709 33.03959518 10.66040039 33.09008789 C9.52594482 33.09258545 8.39148926 33.09508301 7.22265625 33.09765625 C5.47094116 33.10551147 5.47094116 33.10551147 3.68383789 33.11352539 C1 33 1 33 0 32 C-0.0883967 29.6243148 -0.11530305 27.27791326 -0.09765625 24.90234375 C-0.0962413 24.19348526 -0.09482635 23.48462677 -0.09336853 22.75428772 C-0.08775443 20.48198288 -0.07519963 18.20977525 -0.0625 15.9375 C-0.05748681 14.40039204 -0.05292359 12.86328255 -0.04882812 11.32617188 C-0.03778042 7.55074358 -0.02050641 3.77538829 0 0 Z " fill="#C30C50" transform="translate(300,240)"/>
<path d="M0 0 C0.33 0 0.66 0 1 0 C1 9.57 1 19.14 1 29 C-8.9 29 -18.8 29 -29 29 C-29 28.34 -29 27.68 -29 27 C-19.76 27 -10.52 27 -1 27 C-1.03922865 21.10737288 -1.03922865 21.10737288 -1.09008789 15.21484375 C-1.10725871 10.04808786 -0.75150585 5.11260675 0 0 Z " fill="#FED01B" transform="translate(30,272)"/>
<path d="M0 0 C0.33 0 0.66 0 1 0 C1 7.92 1 15.84 1 24 C-8.9 24 -18.8 24 -29 24 C-29 20.7 -29 17.4 -29 14 C-28.67 14 -28.34 14 -28 14 C-28 16.64 -28 19.28 -28 22 C-19.09 22 -10.18 22 -1 22 C-0.67 14.74 -0.34 7.48 0 0 Z " fill="#FECF1C" transform="translate(120,187)"/>
<path d="M0 0 C1.65 0 3.3 0 5 0 C5.1430017 19.69903455 4.78772748 39.31728817 4 59 C3.67 59 3.34 59 3 59 C2.88463064 40.96510655 3.00019373 23.01436648 4 5 C2.68 5 1.36 5 0 5 C0 3.35 0 1.7 0 0 Z " fill="#EA0411" transform="translate(296,211)"/>
<path d="M0 0 C0.33 0 0.66 0 1 0 C1.33 3.3 1.66 6.6 2 10 C15.86 10.495 15.86 10.495 30 11 C30 11.66 30 12.32 30 13 C20.1 13 10.2 13 0 13 C0 8.71 0 4.42 0 0 Z " fill="#FECC20" transform="translate(421,288)"/>
<path d="M0 0 C9.9 0 19.8 0 30 0 C30 0.66 30 1.32 30 2 C20.76 2 11.52 2 2 2 C2 3.65 2 5.3 2 7 C1.34 7 0.68 7 0 7 C0 4.69 0 2.38 0 0 Z " fill="#D91600" transform="translate(421,301)"/>
<path d="M0 0 C0 0.99 0 1.98 0 3 C-9.9 3 -19.8 3 -30 3 C-30.33 3.99 -30.66 4.98 -31 6 C-31 4.35 -31 2.7 -31 1 C-26.90659073 0.8571448 -22.81316608 0.71473966 -18.71972656 0.57275391 C-17.3268186 0.52437552 -15.93391492 0.47587355 -14.54101562 0.42724609 C-12.54037587 0.3574232 -10.53971941 0.28807969 -8.5390625 0.21875 C-6.73236084 0.1559082 -6.73236084 0.1559082 -4.88916016 0.09179688 C-3.25997501 0.04003301 -1.63000728 0 0 0 Z " fill="#C50D45" transform="translate(122,300)"/>
<path d="M0 0 C9.9 0 19.8 0 30 0 C29.67 1.32 29.34 2.64 29 4 C28.67 3.67 28.34 3.34 28 3 C26.00217874 2.84174742 23.99911166 2.74880829 21.99609375 2.68359375 C20.78115234 2.64169922 19.56621094 2.59980469 18.31445312 2.55664062 C17.03505859 2.51732422 15.75566406 2.47800781 14.4375 2.4375 C13.15423828 2.39431641 11.87097656 2.35113281 10.54882812 2.30664062 C7.36600147 2.200152 4.18309326 2.09814038 1 2 C0.67 3.32 0.34 4.64 0 6 C0 4.02 0 2.04 0 0 Z " fill="#D71700" transform="translate(91,211)"/>
<path d="M0 0 C4.62 0 9.24 0 14 0 C13.67 1.65 13.34 3.3 13 5 C10 5 10 5 8 4.4375 C5.80883384 3.77947007 5.80883384 3.77947007 3 5 C3 4.34 3 3.68 3 3 C2.01 3 1.02 3 0 3 C0 2.01 0 1.02 0 0 Z " fill="#EF0606" transform="translate(211,1)"/>
<path d="M0 0 C2.97 0 5.94 0 9 0 C9 0.66 9 1.32 9 2 C7.35 2.33 5.7 2.66 4 3 C4.33 4.32 4.66 5.64 5 7 C3.02 7.99 3.02 7.99 1 9 C0 8 0 8 -0.09765625 6.15234375 C-0.06510417 4.1015625 -0.03255208 2.05078125 0 0 Z " fill="#E50908" transform="translate(151,211)"/>
<path d="M0 0 C1.65 0 3.3 0 5 0 C4.26656372 0.80872559 4.26656372 0.80872559 3.51831055 1.63378906 C1.61589406 4.59860987 1.65344999 6.35873298 1.70703125 9.859375 C1.71669922 10.97441406 1.72636719 12.08945312 1.73632812 13.23828125 C1.76146484 14.39714844 1.78660156 15.55601562 1.8125 16.75 C1.82603516 17.92433594 1.83957031 19.09867187 1.85351562 20.30859375 C1.8888522 23.20619298 1.93819021 26.10286427 2 29 C1.34 29.33 0.68 29.66 0 30 C0 20.1 0 10.2 0 0 Z " fill="#ED0506" transform="translate(61,331)"/>
<path d="M0 0 C8.58 0 17.16 0 26 0 C26 0.66 26 1.32 26 2 C24.7934375 1.98839844 23.586875 1.97679687 22.34375 1.96484375 C20.72916823 1.95545665 19.11458476 1.94635744 17.5 1.9375 C16.70851563 1.92912109 15.91703125 1.92074219 15.1015625 1.91210938 C9.97238283 1.89108815 5.07663894 2.26062713 0 3 C0 2.01 0 1.02 0 0 Z " fill="#0800E6" transform="translate(303,241)"/>
<path d="M0 0 C2.60444348 -0.05394705 5.20776998 -0.09364469 7.8125 -0.125 C8.55048828 -0.14175781 9.28847656 -0.15851563 10.04882812 -0.17578125 C13.91246426 -0.21074628 15.70903668 -0.19397555 19 2 C17.68 2 16.36 2 15 2 C15 2.99 15 3.98 15 5 C13.68 4.67 12.36 4.34 11 4 C11 3.67 11 3.34 11 3 C9.9275 3.04125 8.855 3.0825 7.75 3.125 C4.34252515 3.0114175 2.79260369 2.78726636 0 1 C0 0.67 0 0.34 0 0 Z " fill="#0601E4" transform="translate(130,241)"/>
<path d="M0 0 C1.16781006 0.00523682 2.33562012 0.01047363 3.53881836 0.01586914 C4.79887695 0.0190918 6.05893555 0.02231445 7.35717773 0.02563477 C8.6976732 0.03399136 10.03816799 0.04245632 11.37866211 0.05102539 C12.72306153 0.05603879 14.06746271 0.06060197 15.41186523 0.06469727 C18.71334151 0.07653051 22.01473014 0.09301568 25.31616211 0.11352539 C25.31616211 0.44352539 25.31616211 0.77352539 25.31616211 1.11352539 C24.54425537 1.12287109 23.77234863 1.1322168 22.97705078 1.1418457 C19.48526629 1.19547245 15.9948328 1.27913556 12.50366211 1.36352539 C11.2887207 1.37770508 10.0737793 1.39188477 8.82202148 1.40649414 C7.07695312 1.45483398 7.07695312 1.45483398 5.29663086 1.50415039 C3.68630981 1.53557129 3.68630981 1.53557129 2.04345703 1.56762695 C-0.82254183 1.86283101 -0.82254183 1.86283101 -2.55761719 4.15161133 C-2.92927002 4.79904297 -3.30092285 5.44647461 -3.68383789 6.11352539 C-3.72655889 4.44740634 -3.72447621 2.77969654 -3.68383789 1.11352539 C-2.68383789 0.11352539 -2.68383789 0.11352539 0 0 Z " fill="#FED513" transform="translate(124.683837890625,391.886474609375)"/>
<path d="M0 0 C3.3 0 6.6 0 10 0 C8.515 1.485 8.515 1.485 7 3 C6.34 3 5.68 3 5 3 C5 3.66 5 4.32 5 5 C4.34 5 3.68 5 3 5 C2.67 4.01 2.34 3.02 2 2 C1.34 1.34 0.68 0.68 0 0 Z " fill="#DF0C0F" transform="translate(170,211)"/>
<path d="M0 0 C0.99 0 1.98 0 3 0 C3 0.99 3 1.98 3 3 C4.65 3 6.3 3 8 3 C8.33 3.66 8.66 4.32 9 5 C3.375 5.25 3.375 5.25 0 3 C0 2.01 0 1.02 0 0 Z " fill="#E60907" transform="translate(268,208)"/>
<path d="M0 0 C3.63 0 7.26 0 11 0 C7 3 7 3 3.25 2.6875 C2.1775 2.460625 1.105 2.23375 0 2 C0 1.34 0 0.68 0 0 Z " fill="#E40A0A" transform="translate(202,91)"/>
<path d="M0 0 C1.84765625 0.33984375 1.84765625 0.33984375 4.0625 0.9375 C5.16271484 1.22947266 5.16271484 1.22947266 6.28515625 1.52734375 C7.13400391 1.76130859 7.13400391 1.76130859 8 2 C8 2.33 8 2.66 8 3 C5.69 3 3.38 3 1 3 C0.67 3.66 0.34 4.32 0 5 C-0.5625 3.0625 -0.5625 3.0625 -1 1 C-0.67 0.67 -0.34 0.34 0 0 Z " fill="#EB070B" transform="translate(60,418)"/>
<path d="M0 0 C0.33 0 0.66 0 1 0 C1 1.65 1 3.3 1 5 C-0.98 5.33 -2.96 5.66 -5 6 C-3.625 4 -3.625 4 -2 2 C-1.34 2 -0.68 2 0 2 C0 1.34 0 0.68 0 0 Z " fill="#EE0608" transform="translate(210,265)"/>
</svg>
