<?xml version="1.0" encoding="UTF-8"?>
<svg version="1.1" xmlns="http://www.w3.org/2000/svg" width="583" height="428">
<path d="M0 0 C1.01964844 -0.00257812 2.03929687 -0.00515625 3.08984375 -0.0078125 C6.67974391 0.11220383 10.23066269 0.35172237 13.81079102 0.63330078 C14.9815065 0.72491486 16.15222198 0.81652893 17.3584137 0.91091919 C18.69693642 1.01688919 18.69693642 1.01688919 20.0625 1.125 C20.07280746 1.83687973 20.08311493 2.54875946 20.09373474 3.2822113 C20.19154898 9.97782826 20.29404004 16.67335518 20.40183926 23.36881924 C20.4570988 26.8113574 20.51052347 30.253904 20.55981445 33.6965332 C20.61650801 37.65064526 20.68107495 41.60460944 20.74609375 45.55859375 C20.76280624 46.80023788 20.77951874 48.04188202 20.79673767 49.32115173 C20.81668289 50.46225906 20.83662811 51.60336639 20.85717773 52.77905273 C20.88049416 54.29462013 20.88049416 54.29462013 20.90428162 55.84080505 C20.8089473 58.09029889 20.8089473 58.09029889 22.0625 59.125 C24.79973385 59.28015316 27.51427008 59.37159953 30.25415039 59.42211914 C31.11261063 59.44177231 31.97107086 59.46142548 32.85554504 59.48167419 C35.70700105 59.54579651 38.55855303 59.60298798 41.41015625 59.66015625 C43.38171809 59.70314276 45.3532706 59.74655918 47.32481384 59.79039001 C52.52466421 59.90482944 57.7246214 60.01340278 62.92462158 60.12078857 C68.22651671 60.23130581 73.52829108 60.34732398 78.83007812 60.46289062 C89.24077602 60.68900278 99.65159954 60.90841493 110.0625 61.125 C110.0625 51.225 110.0625 41.325 110.0625 31.125 C119.9625 31.125 129.8625 31.125 140.0625 31.125 C140.0625 21.225 140.0625 11.325 140.0625 1.125 C142.74684877 -0.21717439 144.83753134 -0.00461685 147.83984375 -0.0078125 C148.99291016 -0.00910156 150.14597656 -0.01039062 151.33398438 -0.01171875 C153.14866211 -0.00591797 153.14866211 -0.00591797 155 0 C156.20591797 -0.00386719 157.41183594 -0.00773437 158.65429688 -0.01171875 C160.38583008 -0.00978516 160.38583008 -0.00978516 162.15234375 -0.0078125 C163.21316162 -0.00668457 164.27397949 -0.00555664 165.36694336 -0.00439453 C168.0625 0.125 168.0625 0.125 171.0625 1.125 C171.0625 11.025 171.0625 20.925 171.0625 31.125 C180.9625 31.125 190.8625 31.125 201.0625 31.125 C201.0625 41.025 201.0625 50.925 201.0625 61.125 C211.4854817 61.01671742 221.9084022 60.9045592 232.33126831 60.78566074 C237.17150703 60.73059911 242.01175195 60.67720686 246.85205078 60.62768555 C251.52699763 60.57979361 256.20187562 60.5274436 260.8767395 60.47205925 C262.65640539 60.45174765 264.43609007 60.43301692 266.21578979 60.41592598 C268.71684526 60.39163218 271.2177736 60.36161451 273.71875 60.33032227 C274.81172142 60.32168907 274.81172142 60.32168907 275.92677307 60.31288147 C276.96558876 60.29819824 276.96558876 60.29819824 278.02539062 60.28321838 C278.61533813 60.27676583 279.20528564 60.27031328 279.81311035 60.2636652 C283.24407943 60.05216071 286.65156259 59.55136718 290.0625 59.125 C290.3925 39.985 290.7225 20.845 291.0625 1.125 C294.3281422 0.30858945 296.58611596 -0.00333226 299.87109375 -0.0078125 C300.78310547 -0.00910156 301.69511719 -0.01039062 302.63476562 -0.01171875 C303.58029297 -0.00785156 304.52582031 -0.00398438 305.5 0 C306.44166016 -0.00386719 307.38332031 -0.00773437 308.35351562 -0.01171875 C309.7234668 -0.00978516 309.7234668 -0.00978516 311.12109375 -0.0078125 C311.94923584 -0.00668457 312.77737793 -0.00555664 313.63061523 -0.00439453 C316.18980016 0.13177332 318.55749445 0.60019565 321.0625 1.125 C321.78463328 35.5293685 322.17242257 69.92541243 322.18588257 104.33748245 C322.18749945 107.06157032 322.19105882 109.7856498 322.19506836 112.50973511 C322.20092453 116.83131011 322.20114677 121.15284975 322.19681931 125.47442627 C322.19582683 127.07359804 322.19640022 128.67277166 322.19865799 130.27194214 C322.2012176 132.47421774 322.19739398 134.67639384 322.19189453 136.87866211 C322.19070114 138.73327309 322.19070114 138.73327309 322.18948364 140.62535095 C321.83659504 150.35090496 321.83659504 150.35090496 320.0625 152.125 C317.91691173 152.21275605 315.76845579 152.23195219 313.62109375 152.22265625 C312.44603271 152.22015869 311.27097168 152.21766113 310.06030273 152.21508789 C307.80295288 152.20143188 307.80295288 152.20143188 305.5 152.1875 C300.735625 152.166875 295.97125 152.14625 291.0625 152.125 C291.0625 162.025 291.0625 171.925 291.0625 182.125 C281.1625 182.125 271.2625 182.125 261.0625 182.125 C261.0625 192.025 261.0625 201.925 261.0625 212.125 C251.1625 212.125 241.2625 212.125 231.0625 212.125 C231.0625 222.025 231.0625 231.925 231.0625 242.125 C221.1625 242.125 211.2625 242.125 201.0625 242.125 C200.42466813 235.10884946 199.92353796 228.43083541 200 221.4375 C200.00451172 220.62861328 200.00902344 219.81972656 200.01367188 218.98632812 C200.02523288 217.03251849 200.04315596 215.07874807 200.0625 213.125 C195.58334672 213.09613662 191.10421709 213.07824813 186.625 213.0625 C185.34560547 213.05412109 184.06621094 213.04574219 182.74804688 213.03710938 C181.53310547 213.03388672 180.31816406 213.03066406 179.06640625 213.02734375 C177.94049072 213.02210693 176.8145752 213.01687012 175.65454102 213.01147461 C173.13279129 212.82954552 173.13279129 212.82954552 172.0625 214.125 C171.95672464 215.65326359 171.92010683 217.18636901 171.91101074 218.71826172 C171.90266708 219.7110614 171.89432343 220.70386108 171.88572693 221.72674561 C171.8794503 223.37407684 171.8794503 223.37407684 171.87304688 225.0546875 C171.86475357 226.20414856 171.85646027 227.35360962 171.84791565 228.53790283 C171.83047008 231.04301551 171.81531576 233.54814492 171.80213928 236.05328369 C171.78119355 240.01066459 171.75416499 243.96796123 171.72546387 247.92529297 C171.66530286 256.32516049 171.6134874 264.72507254 171.5625 273.125 C171.50344576 282.85390114 171.44118044 292.58275932 171.37062073 302.31158447 C171.34393304 306.22317183 171.32318658 310.1347631 171.3026123 314.04638672 C171.28601729 316.42936403 171.26914616 318.81233943 171.25195312 321.1953125 C171.2456765 322.84264374 171.2456765 322.84264374 171.23927307 324.52325439 C171.23092941 325.51605408 171.22258575 326.50885376 171.21398926 327.53173828 C171.20883553 328.39969025 171.20368179 329.26764221 171.19837189 330.16189575 C171.0625 332.125 171.0625 332.125 170.0625 333.125 C167.28473794 333.39526874 164.53494086 333.60037725 161.75 333.75 C160.53497803 333.81755493 160.53497803 333.81755493 159.29541016 333.88647461 C152.815131 334.19539575 146.50416954 333.9459971 140.0625 333.125 C138.99899363 327.07693182 138.93380472 321.19632966 138.96484375 315.06494141 C138.96630402 313.97312561 138.96776428 312.88130981 138.9692688 311.75640869 C138.97306314 309.39543833 138.97916734 307.03447079 138.98733521 304.67351151 C139.00011661 300.94252197 139.00661835 297.21156803 139.01147461 293.4805603 C139.02288715 285.57035831 139.04211077 277.66018265 139.0625 269.75 C139.086133 260.56390152 139.10644597 251.3778155 139.11843872 242.19169235 C139.12494787 238.50607855 139.13745194 234.82051517 139.15014648 231.13491821 C139.15377633 228.89284307 139.15712839 226.65076745 139.16015625 224.40869141 C139.16790573 222.85965622 139.16790573 222.85965622 139.17581177 221.27932739 C139.17588226 220.34568359 139.17595276 219.41203979 139.17602539 218.45010376 C139.178246 217.63419077 139.18046661 216.81827778 139.18275452 215.97764015 C139.26602795 214.10858792 139.26602795 214.10858792 138.0625 213.125 C136.06467874 212.96674742 134.06161166 212.87380829 132.05859375 212.80859375 C130.96474365 212.77048584 129.87089355 212.73237793 128.74389648 212.69311523 C127.34341064 212.65001221 125.9429248 212.60690918 124.5 212.5625 C120.065625 212.418125 115.63125 212.27375 111.0625 212.125 C111.0625 222.025 111.0625 231.925 111.0625 242.125 C100.8325 242.125 90.6025 242.125 80.0625 242.125 C80.0625 232.225 80.0625 222.325 80.0625 212.125 C70.1625 212.125 60.2625 212.125 50.0625 212.125 C50.0625 202.225 50.0625 192.325 50.0625 182.125 C40.1625 182.125 30.2625 182.125 20.0625 182.125 C20.0625 172.225 20.0625 162.325 20.0625 152.125 C10.56357036 152.16459626 10.56357036 152.16459626 1.06469727 152.21508789 C-0.11036377 152.21758545 -1.2854248 152.22008301 -2.49609375 152.22265625 C-4.31065063 152.23051147 -4.31065063 152.23051147 -6.16186523 152.23852539 C-8.9375 152.125 -8.9375 152.125 -9.9375 151.125 C-10.04811675 149.41287517 -10.08880981 147.69620057 -10.10244751 145.9805603 C-10.11368149 144.86495224 -10.12491547 143.74934418 -10.13648987 142.59992981 C-10.14381638 141.36474106 -10.15114288 140.12955231 -10.15869141 138.85693359 C-10.1701973 137.56414993 -10.18170319 136.27136627 -10.19355774 134.93940735 C-10.22498599 131.37868162 -10.25006571 127.81793672 -10.2737546 124.25715208 C-10.29416703 121.27858994 -10.31771638 118.30005611 -10.34129179 115.32151759 C-10.39701008 108.27947732 -10.44769353 101.23741317 -10.49511719 94.1953125 C-10.54390936 86.96044136 -10.60023357 79.72565827 -10.66053832 72.49087465 C-10.71220129 66.26564623 -10.75946248 60.040395 -10.80322587 53.81510603 C-10.82933279 50.10399204 -10.8569289 46.39290623 -10.8885994 42.68183517 C-10.92382472 38.52278148 -10.94983552 34.363716 -10.97509766 30.20458984 C-10.98647263 28.99774033 -10.9978476 27.79089081 -11.00956726 26.54747009 C-11.05083767 18.02618831 -10.60013439 9.61642182 -9.9375 1.125 C-6.53405464 0.20874028 -3.53631622 -0.00874244 0 0 Z " fill="#DC1F25" transform="translate(135.9375,43.875)"/>
<path d="M0 0 C20.13 0 40.26 0 61 0 C61 9.9 61 19.8 61 30 C70.57 30 80.14 30 90 30 C90 20.1 90 10.2 90 0 C100.23 0 110.46 0 121 0 C121 9.9 121 19.8 121 30 C130.9 30 140.8 30 151 30 C151 20.1 151 10.2 151 0 C170.8 0 190.6 0 211 0 C211 9.9 211 19.8 211 30 C201.1 30 191.2 30 181 30 C181 39.9 181 49.8 181 60 C171.1 60 161.2 60 151 60 C151.03959728 69.82803025 151.03959728 69.82803025 151.09008789 79.65600586 C151.09383423 81.47950562 151.09383423 81.47950562 151.09765625 83.33984375 C151.10289307 84.59144287 151.10812988 85.84304199 151.11352539 87.13256836 C151 90 151 90 150 91 C147.85441173 91.08775605 145.70595579 91.10695219 143.55859375 91.09765625 C142.25341797 91.09443359 140.94824219 91.09121094 139.60351562 91.08789062 C138.2148431 91.07953401 136.82617123 91.07106905 135.4375 91.0625 C134.04492344 91.05748666 132.65234519 91.05292347 131.25976562 91.04882812 C127.8398013 91.03699434 124.41992156 91.0205088 121 91 C121.00092179 91.77213805 121.00184359 92.5442761 121.00279331 93.33981228 C121.02484721 112.100173 121.0414109 130.86053115 121.05181217 149.62090206 C121.05697543 158.69315493 121.06401869 167.76539916 121.07543945 176.83764648 C121.08538538 184.74208712 121.09185321 192.64652151 121.09408849 200.55096823 C121.09539576 204.73894719 121.09848259 208.92690827 121.10573006 213.11488152 C121.11248884 217.05215298 121.11461725 220.98939908 121.11310768 224.9266758 C121.11338407 226.37594617 121.11539004 227.82521735 121.11920547 229.27448273 C121.12414043 231.24470414 121.12239809 233.21493898 121.12025452 235.18516541 C121.12117631 236.29039519 121.1220981 237.39562498 121.12304783 238.53434658 C121 241 121 241 120 242 C117.22223794 242.27026874 114.47244086 242.47537725 111.6875 242.625 C110.47247803 242.69255493 110.47247803 242.69255493 109.23291016 242.76147461 C102.752631 243.07039575 96.44166954 242.8209971 90 242 C89.19125665 237.05115478 88.85875995 232.26630842 88.88476562 227.24829102 C88.8847908 226.49633642 88.88481598 225.74438183 88.88484192 224.96964073 C88.88666773 222.46018971 88.89623668 219.95083707 88.90625 217.44140625 C88.91005789 215.63302142 88.91367407 213.82463618 88.91711426 212.01625061 C88.97461875 189.15606651 89.22382904 166.29670696 89.46356201 143.43786621 C89.52541854 137.49570234 89.58485354 131.55351421 89.64453125 125.61132812 C89.76073675 114.0741944 89.87971199 102.53709188 90 91 C80.1 91 70.2 91 60 91 C60 81.1 60 71.2 60 61 C50.1 61 40.2 61 30 61 C30 51.1 30 41.2 30 31 C20.1 31 10.2 31 0 31 C0 20.77 0 10.54 0 0 Z " fill="#F3EC2B" transform="translate(186,135)"/>
<path d="M0 0 C1.05703125 -0.00128906 2.1140625 -0.00257812 3.203125 -0.00390625 C4.87375 0.00189453 4.87375 0.00189453 6.578125 0.0078125 C7.67640625 0.00394531 8.7746875 0.00007813 9.90625 -0.00390625 C11.49953125 -0.00197266 11.49953125 -0.00197266 13.125 0 C14.09791992 0.00112793 15.07083984 0.00225586 16.07324219 0.00341797 C18.76067674 0.12964451 21.20132906 0.57772029 23.828125 1.1328125 C24.55025828 35.537181 24.93804757 69.93322493 24.95150757 104.34529495 C24.95312445 107.06938282 24.95668382 109.7934623 24.96069336 112.51754761 C24.96654953 116.83912261 24.96677177 121.16066225 24.96244431 125.48223877 C24.96145183 127.08141054 24.96202522 128.68058416 24.96428299 130.27975464 C24.9668426 132.48203024 24.96301898 134.68420634 24.95751953 136.88647461 C24.95672394 138.12288193 24.95592834 139.35928925 24.95510864 140.63316345 C24.60222004 150.35871746 24.60222004 150.35871746 22.828125 152.1328125 C20.68253673 152.22056855 18.53408079 152.23976469 16.38671875 152.23046875 C15.21165771 152.22797119 14.03659668 152.22547363 12.82592773 152.22290039 C11.32102783 152.21379639 9.81612793 152.20469238 8.265625 152.1953125 C3.50125 152.1746875 -1.263125 152.1540625 -6.171875 152.1328125 C-6.171875 162.0328125 -6.171875 171.9328125 -6.171875 182.1328125 C-16.071875 182.1328125 -25.971875 182.1328125 -36.171875 182.1328125 C-36.171875 192.0328125 -36.171875 201.9328125 -36.171875 212.1328125 C-46.071875 212.1328125 -55.971875 212.1328125 -66.171875 212.1328125 C-66.171875 222.0328125 -66.171875 231.9328125 -66.171875 242.1328125 C-76.071875 242.1328125 -85.971875 242.1328125 -96.171875 242.1328125 C-96.80970687 235.11666196 -97.31083704 228.43864791 -97.234375 221.4453125 C-97.22986328 220.63642578 -97.22535156 219.82753906 -97.22070312 218.99414062 C-97.20914212 217.04033099 -97.19121904 215.08656057 -97.171875 213.1328125 C-101.63019482 213.10389704 -106.08849069 213.08604269 -110.546875 213.0703125 C-111.81789063 213.06193359 -113.08890625 213.05355469 -114.3984375 213.04492188 C-115.61015625 213.04169922 -116.821875 213.03847656 -118.0703125 213.03515625 C-119.19099121 213.02991943 -120.31166992 213.02468262 -121.46630859 213.01928711 C-124.14054843 212.94659784 -124.14054843 212.94659784 -126.171875 214.1328125 C-126.171875 203.5728125 -126.171875 193.0128125 -126.171875 182.1328125 C-116.601875 181.8028125 -107.031875 181.4728125 -97.171875 181.1328125 C-96.841875 171.2328125 -96.511875 161.3328125 -96.171875 151.1328125 C-86.271875 151.1328125 -76.371875 151.1328125 -66.171875 151.1328125 C-66.171875 141.2328125 -66.171875 131.3328125 -66.171875 121.1328125 C-56.271875 121.1328125 -46.371875 121.1328125 -36.171875 121.1328125 C-36.171875 111.2328125 -36.171875 101.3328125 -36.171875 91.1328125 C-26.271875 91.1328125 -16.371875 91.1328125 -6.171875 91.1328125 C-6.17711182 88.41168213 -6.18234863 85.69055176 -6.18774414 82.88696289 C-6.20427901 73.91831125 -6.21534581 64.94965895 -6.22368717 55.98099613 C-6.22891628 50.54078938 -6.23601443 45.10059819 -6.24731445 39.66040039 C-6.25814235 34.41495548 -6.26415162 29.16952558 -6.26675224 23.92407036 C-6.26860667 21.91810304 -6.27222762 19.91213658 -6.27760506 17.90617561 C-6.28481419 15.10678426 -6.285866 12.30745571 -6.28540039 9.50805664 C-6.28899567 8.67008545 -6.29259094 7.83211426 -6.29629517 6.96875 C-6.28368112 0.00731876 -6.28368112 0.00731876 0 0 Z " fill="#456AB3" transform="translate(433.171875,43.8671875)"/>
<path d="M0 0 C1.01964844 -0.00257812 2.03929687 -0.00515625 3.08984375 -0.0078125 C8.75681708 0.18164384 14.40906211 0.69012016 20.0625 1.125 C20.0625 30.825 20.0625 60.525 20.0625 91.125 C29.9625 91.125 39.8625 91.125 50.0625 91.125 C50.0625 101.355 50.0625 111.585 50.0625 122.125 C59.9625 122.125 69.8625 122.125 80.0625 122.125 C80.0625 132.025 80.0625 141.925 80.0625 152.125 C89.9625 152.125 99.8625 152.125 110.0625 152.125 C110.0625 162.025 110.0625 171.925 110.0625 182.125 C119.9625 182.125 129.8625 182.125 140.0625 182.125 C140.0625 192.685 140.0625 203.245 140.0625 214.125 C139.4025 213.795 138.7425 213.465 138.0625 213.125 C136.0317523 212.97088894 133.99643579 212.87517547 131.9609375 212.80859375 C130.86958496 212.77048584 129.77823242 212.73237793 128.65380859 212.69311523 C127.26242676 212.65001221 125.87104492 212.60690918 124.4375 212.5625 C120.02375 212.418125 115.61 212.27375 111.0625 212.125 C111.0625 222.025 111.0625 231.925 111.0625 242.125 C100.8325 242.125 90.6025 242.125 80.0625 242.125 C80.0625 232.225 80.0625 222.325 80.0625 212.125 C70.1625 212.125 60.2625 212.125 50.0625 212.125 C50.0625 202.225 50.0625 192.325 50.0625 182.125 C40.1625 182.125 30.2625 182.125 20.0625 182.125 C20.0625 172.225 20.0625 162.325 20.0625 152.125 C10.56357036 152.16459626 10.56357036 152.16459626 1.06469727 152.21508789 C-0.11036377 152.21758545 -1.2854248 152.22008301 -2.49609375 152.22265625 C-4.31065063 152.23051147 -4.31065063 152.23051147 -6.16186523 152.23852539 C-8.9375 152.125 -8.9375 152.125 -9.9375 151.125 C-10.04811675 149.41287517 -10.08880981 147.69620057 -10.10244751 145.9805603 C-10.11368149 144.86495224 -10.12491547 143.74934418 -10.13648987 142.59992981 C-10.14381638 141.36474106 -10.15114288 140.12955231 -10.15869141 138.85693359 C-10.1701973 137.56414993 -10.18170319 136.27136627 -10.19355774 134.93940735 C-10.22498599 131.37868162 -10.25006571 127.81793672 -10.2737546 124.25715208 C-10.29416703 121.27858994 -10.31771638 118.30005611 -10.34129179 115.32151759 C-10.39701008 108.27947732 -10.44769353 101.23741317 -10.49511719 94.1953125 C-10.54390936 86.96044136 -10.60023357 79.72565827 -10.66053832 72.49087465 C-10.71220129 66.26564623 -10.75946248 60.040395 -10.80322587 53.81510603 C-10.82933279 50.10399204 -10.8569289 46.39290623 -10.8885994 42.68183517 C-10.92382472 38.52278148 -10.94983552 34.363716 -10.97509766 30.20458984 C-10.98647263 28.99774033 -10.9978476 27.79089081 -11.00956726 26.54747009 C-11.05083767 18.02618831 -10.60013439 9.61642182 -9.9375 1.125 C-6.53405464 0.20874028 -3.53631622 -0.00874244 0 0 Z " fill="#456BB2" transform="translate(135.9375,43.875)"/>
<path d="M0 0 C0.99 0.495 0.99 0.495 2 1 C4.10374996 1.15441209 6.21195119 1.24992639 8.3203125 1.31640625 C9.45227051 1.35451416 10.58422852 1.39262207 11.75048828 1.43188477 C13.19407715 1.47498779 14.63766602 1.51809082 16.125 1.5625 C22.993125 1.7790625 22.993125 1.7790625 30 2 C30 12.23 30 22.46 30 33 C20.1 33 10.2 33 0 33 C0 22.11 0 11.22 0 0 Z " fill="#F3EC2C" transform="translate(156,102)"/>
<path d="M0 0 C0 10.56 0 21.12 0 32 C-9.9 32 -19.8 32 -30 32 C-30 22.1 -30 12.2 -30 2 C-24.84229548 1.35528693 -20.56726074 0.8996582 -15.5 1 C-10.27616174 1.04859384 -5.14942713 0 0 0 Z " fill="#F3ED2A" transform="translate(427,103)"/>
<path d="M0 0 C0.66 0 1.32 0 2 0 C2 9.9 2 19.8 2 30 C-7.9 30 -17.8 30 -28 30 C-27.96040272 39.82803025 -27.96040272 39.82803025 -27.90991211 49.65600586 C-27.90741455 50.87167236 -27.90491699 52.08733887 -27.90234375 53.33984375 C-27.89710693 54.59144287 -27.89187012 55.84304199 -27.88647461 57.13256836 C-28 60 -28 60 -29 61 C-31.14558827 61.08775605 -33.29404421 61.10695219 -35.44140625 61.09765625 C-36.74658203 61.09443359 -38.05175781 61.09121094 -39.39648438 61.08789062 C-40.7851569 61.07953401 -42.17382877 61.07106905 -43.5625 61.0625 C-44.95507656 61.05748666 -46.34765481 61.05292347 -47.74023438 61.04882812 C-51.1601987 61.03699434 -54.58007844 61.0205088 -58 61 C-57.99907821 61.77213805 -57.99815641 62.5442761 -57.99720669 63.33981228 C-57.97515279 82.100173 -57.9585891 100.86053115 -57.94818783 119.62090206 C-57.94302457 128.69315493 -57.93598131 137.76539916 -57.92456055 146.83764648 C-57.91461462 154.74208712 -57.90814679 162.64652151 -57.90591151 170.55096823 C-57.90460424 174.73894719 -57.90151741 178.92690827 -57.89426994 183.11488152 C-57.88751116 187.05215298 -57.88538275 190.98939908 -57.88689232 194.9266758 C-57.88661593 196.37594617 -57.88460996 197.82521735 -57.88079453 199.27448273 C-57.87585957 201.24470414 -57.87760191 203.21493898 -57.87974548 205.18516541 C-57.87882369 206.29039519 -57.8779019 207.39562498 -57.87695217 208.53434658 C-58 211 -58 211 -59 212 C-61.77776206 212.27026874 -64.52755914 212.47537725 -67.3125 212.625 C-68.52752197 212.69255493 -68.52752197 212.69255493 -69.76708984 212.76147461 C-76.247369 213.07039575 -82.55833046 212.8209971 -89 212 C-89.80874335 207.05115478 -90.14124005 202.26630842 -90.11523438 197.24829102 C-90.1152092 196.49633642 -90.11518402 195.74438183 -90.11515808 194.96964073 C-90.11333227 192.46018971 -90.10376332 189.95083707 -90.09375 187.44140625 C-90.08994211 185.63302142 -90.08632593 183.82463618 -90.08288574 182.01625061 C-90.02538125 159.15606651 -89.77617096 136.29670696 -89.53643799 113.43786621 C-89.47458146 107.49570234 -89.41514646 101.55351421 -89.35546875 95.61132812 C-89.23926326 84.07419471 -89.12051355 72.53708917 -89 61 C-88.34 61 -87.68 61 -87 61 C-87 110.17 -87 159.34 -87 210 C-78.09 210 -69.18 210 -60 210 C-59.67 160.17 -59.34 110.34 -59 59 C-49.43 59 -39.86 59 -30 59 C-30.03956318 49.87521451 -30.03956318 49.87521451 -30.09008789 40.75048828 C-30.09258545 39.61853027 -30.09508301 38.48657227 -30.09765625 37.3203125 C-30.10289307 36.15773926 -30.10812988 34.99516602 -30.11352539 33.79736328 C-30 31 -30 31 -29 29 C-19.43 29 -9.86 29 0 29 C0 19.43 0 9.86 0 0 Z " fill="#E0DE4F" transform="translate(365,165)"/>
<path d="M0 0 C10.23 0 20.46 0 31 0 C31 9.9 31 19.8 31 30 C40.9 30 50.8 30 61 30 C61 20.1 61 10.2 61 0 C80.8 0 100.6 0 121 0 C121 9.9 121 19.8 121 30 C111.1 30 101.2 30 91 30 C91 29.67 91 29.34 91 29 C100.24 29 109.48 29 119 29 C119 20.09 119 11.18 119 2 C100.52 2 82.04 2 63 2 C63.33 10.91 63.66 19.82 64 29 C63.505 30.485 63.505 30.485 63 32 C59.48726885 33.17091038 56.8811695 33.03626985 53.1796875 32.9140625 C52.19079025 32.88220352 52.19079025 32.88220352 51.18191528 32.84970093 C49.79159546 32.80352096 48.40136434 32.75459952 47.01123047 32.703125 C44.87616271 32.62504252 42.74094564 32.55801541 40.60546875 32.4921875 C39.25518558 32.44597248 37.90492407 32.39911959 36.5546875 32.3515625 C35.32218262 32.30854004 34.08967773 32.26551758 32.81982422 32.22119141 C30 32 30 32 29 31 C28.8415735 28.9291528 28.74875578 26.85321971 28.68359375 24.77734375 C28.64169922 23.51728516 28.59980469 22.25722656 28.55664062 20.95898438 C28.51682404 19.61849264 28.47711186 18.2779978 28.4375 16.9375 C28.39431958 15.59308477 28.35070544 14.2486834 28.30664062 12.90429688 C28.20014717 9.60299987 28.0995325 6.30151421 28 3 C15.13 2.505 15.13 2.505 2 2 C2 11.24 2 20.48 2 30 C1.34 30 0.68 30 0 30 C0 20.1 0 10.2 0 0 Z " fill="#F6DD4B" transform="translate(276,135)"/>
<path d="M0 0 C9.9 0 19.8 0 30 0 C30 0.66 30 1.32 30 2 C20.76 2 11.52 2 2 2 C2.01160156 4.08183594 2.02320313 6.16367188 2.03515625 8.30859375 C2.04210735 10.31746298 2.04902389 12.32633251 2.05493164 14.33520508 C2.0599708 15.73495228 2.06680216 17.1346942 2.07543945 18.53442383 C2.0875232 20.54245777 2.09269807 22.55052957 2.09765625 24.55859375 C2.10289307 25.76829834 2.10812988 26.97800293 2.11352539 28.22436523 C2 31 2 31 1 32 C-1.14558827 32.08775605 -3.29404421 32.10695219 -5.44140625 32.09765625 C-6.61646729 32.09515869 -7.79152832 32.09266113 -9.00219727 32.09008789 C-10.50709717 32.08098389 -12.01199707 32.07187988 -13.5625 32.0625 C-18.326875 32.041875 -23.09125 32.02125 -28 32 C-28 41.57 -28 51.14 -28 61 C-31.29734646 62.09911549 -33.72958745 62.1139456 -37.19921875 62.09765625 C-38.28807373 62.09515869 -39.37692871 62.09266113 -40.4987793 62.09008789 C-41.88105713 62.08098389 -43.26333496 62.07187988 -44.6875 62.0625 C-49.080625 62.041875 -53.47375 62.02125 -58 62 C-57.505 76.355 -57.505 76.355 -57 91 C-61.25910628 93.12955314 -62.8883686 93.18689234 -67.515625 92.9765625 C-68.64258789 92.93096191 -69.76955078 92.88536133 -70.93066406 92.83837891 C-72.35604492 92.76796387 -73.78142578 92.69754883 -75.25 92.625 C-79.7875 92.41875 -84.325 92.2125 -89 92 C-88.67 101.9 -88.34 111.8 -88 122 C-88.99 122.495 -88.99 122.495 -90 123 C-90 112.44 -90 101.88 -90 91 C-80.43 90.67 -70.86 90.34 -61 90 C-60.67 80.1 -60.34 70.2 -60 60 C-50.1 60 -40.2 60 -30 60 C-30 50.1 -30 40.2 -30 30 C-20.1 30 -10.2 30 0 30 C0 20.1 0 10.2 0 0 Z " fill="#688177" transform="translate(397,135)"/>
<path d="M0 0 C0.66 0 1.32 0 2 0 C2 9.9 2 19.8 2 30 C-7.9 30 -17.8 30 -28 30 C-27.96040272 39.82803025 -27.96040272 39.82803025 -27.90991211 49.65600586 C-27.90741455 50.87167236 -27.90491699 52.08733887 -27.90234375 53.33984375 C-27.89448853 55.21724243 -27.89448853 55.21724243 -27.88647461 57.13256836 C-28 60 -28 60 -29 61 C-38.57 61 -48.14 61 -58 61 C-58 110.5 -58 160 -58 211 C-58.33 211 -58.66 211 -59 211 C-59 160.84 -59 110.68 -59 59 C-49.43 59 -39.86 59 -30 59 C-30.03956318 49.87521451 -30.03956318 49.87521451 -30.09008789 40.75048828 C-30.09258545 39.61853027 -30.09508301 38.48657227 -30.09765625 37.3203125 C-30.10551147 35.57645264 -30.10551147 35.57645264 -30.11352539 33.79736328 C-30 31 -30 31 -29 29 C-19.43 29 -9.86 29 0 29 C0 19.43 0 9.86 0 0 Z " fill="#D7D969" transform="translate(365,165)"/>
<path d="M0 0 C18.48 0 36.96 0 56 0 C56 0.33 56 0.66 56 1 C38.18 1 20.36 1 2 1 C2 9.58 2 18.16 2 27 C11.24 27 20.48 27 30 27 C31.46098845 29.9219769 31.11134901 32.49893475 31.09765625 35.7578125 C31.0962413 36.42086395 31.09482635 37.08391541 31.09336853 37.76705933 C31.08776754 39.88641863 31.075215 42.00567259 31.0625 44.125 C31.05748512 45.56119639 31.05292219 46.99739444 31.04882812 48.43359375 C31.03864833 51.95580248 31.01907338 55.47778321 31 59 C40.57 59 50.14 59 60 59 C60 59.33 60 59.66 60 60 C50.1 60 40.2 60 30 60 C30 50.1 30 40.2 30 30 C20.1 30 10.2 30 0 30 C0 20.1 0 10.2 0 0 Z " fill="#D4D452" transform="translate(186,136)"/>
<path d="M0 0 C2.475 0.495 2.475 0.495 5 1 C5 1.66 5 2.32 5 3 C6.30203369 2.98428955 6.30203369 2.98428955 7.63037109 2.96826172 C10.84699528 2.93420284 14.06352767 2.90911233 17.28027344 2.89013672 C18.67320781 2.88007123 20.06612102 2.86641766 21.45898438 2.84912109 C23.4595436 2.8248978 25.46025615 2.81459186 27.4609375 2.8046875 C29.26763916 2.78897705 29.26763916 2.78897705 31.11083984 2.77294922 C34 3 34 3 36 5 C36.22705078 7.79736328 36.22705078 7.79736328 36.1953125 11.3203125 C36.18886719 12.57714844 36.18242187 13.83398438 36.17578125 15.12890625 C36.15902344 16.44761719 36.14226562 17.76632813 36.125 19.125 C36.11496983 20.46483721 36.10584404 21.80468152 36.09765625 23.14453125 C36.07402148 26.42976376 36.0381495 29.71490398 36 33 C49.365 33.495 49.365 33.495 63 34 C63 24.43 63 14.86 63 5 C63.33 5 63.66 5 64 5 C64 14.9 64 24.8 64 35 C54.1 35 44.2 35 34 35 C34 25.1 34 15.2 34 5 C23.77 5 13.54 5 3 5 C3 14.9 3 24.8 3 35 C-6.57 35 -16.14 35 -26 35 C-26 25.43 -26 15.86 -26 6 C-25.67 6 -25.34 6 -25 6 C-24.67 14.91 -24.34 23.82 -24 33 C-11.13 33.495 -11.13 33.495 2 34 C1.98839844 31.85757813 1.97679687 29.71515625 1.96484375 27.5078125 C1.95704812 25.43603666 1.95097424 23.36426245 1.94506836 21.29248047 C1.94003526 19.8510668 1.93320827 18.40965824 1.92456055 16.96826172 C1.91245017 14.89809915 1.90676153 12.82800399 1.90234375 10.7578125 C1.89448853 8.88826904 1.89448853 8.88826904 1.88647461 6.98095703 C2 4 2 4 3 2 C2.01 2 1.02 2 0 2 C0 1.34 0 0.68 0 0 Z " fill="#C93A0C" transform="translate(273,130)"/>
<path d="M0 0 C29.7 0.495 29.7 0.495 60 1 C60 1.33 60 1.66 60 2 C40.86 2 21.72 2 2 2 C2 10.91 2 19.82 2 29 C21.14 29 40.28 29 60 29 C60 29.66 60 30.32 60 31 C40.2 31 20.4 31 0 31 C0 20.77 0 10.54 0 0 Z " fill="#C83A1F" transform="translate(186,104)"/>
<path d="M0 0 C10.23 0 20.46 0 31 0 C31 9.9 31 19.8 31 30 C40.9 30 50.8 30 61 30 C60.67 30.66 60.34 31.32 60 32 C55.74585377 32.02465622 51.49174502 32.04283899 47.23754883 32.05493164 C45.78929927 32.05997101 44.34105483 32.06680253 42.89282227 32.07543945 C40.81525412 32.08752247 38.73775303 32.09323211 36.66015625 32.09765625 C35.40855713 32.10289307 34.15695801 32.10812988 32.86743164 32.11352539 C30 32 30 32 29 31 C28.8415735 28.9291528 28.74875578 26.85321971 28.68359375 24.77734375 C28.64169922 23.51728516 28.59980469 22.25722656 28.55664062 20.95898438 C28.51682404 19.61849264 28.47711186 18.2779978 28.4375 16.9375 C28.39431958 15.59308477 28.35070544 14.2486834 28.30664062 12.90429688 C28.20014717 9.60299987 28.0995325 6.30151421 28 3 C15.13 2.505 15.13 2.505 2 2 C2 11.24 2 20.48 2 30 C1.34 30 0.68 30 0 30 C0 20.1 0 10.2 0 0 Z " fill="#FAC63D" transform="translate(276,135)"/>
<path d="M0 0 C0 10.56 0 21.12 0 32 C-9.9 32 -19.8 32 -30 32 C-30 22.1 -30 12.2 -30 2 C-24.84229548 1.35528693 -20.56726074 0.8996582 -15.5 1 C-10.27616174 1.04859384 -5.14942713 0 0 0 Z M-12.9609375 3.21875 C-13.75806152 3.25935547 -14.55518555 3.29996094 -15.37646484 3.34179688 C-16.36598145 3.39400391 -17.35549805 3.44621094 -18.375 3.5 C-21.55125 3.665 -24.7275 3.83 -28 4 C-28 12.58 -28 21.16 -28 30 C-19.42 30 -10.84 30 -2 30 C-2 21.09 -2 12.18 -2 3 C-5.69004336 3 -9.28854472 3.02797635 -12.9609375 3.21875 Z " fill="#EDE353" transform="translate(427,103)"/>
<path d="M0 0 C0.99 0.495 0.99 0.495 2 1 C4.10374996 1.15441209 6.21195119 1.24992639 8.3203125 1.31640625 C9.45227051 1.35451416 10.58422852 1.39262207 11.75048828 1.43188477 C13.19407715 1.47498779 14.63766602 1.51809082 16.125 1.5625 C22.993125 1.7790625 22.993125 1.7790625 30 2 C30 12.23 30 22.46 30 33 C20.1 33 10.2 33 0 33 C0 22.11 0 11.22 0 0 Z M2 4 C2 12.91 2 21.82 2 31 C10.91 31 19.82 31 29 31 C29 22.09 29 13.18 29 4 C20.09 4 11.18 4 2 4 Z " fill="#E8E156" transform="translate(156,102)"/>
<path d="M0 0 C20.13 0 40.26 0 61 0 C61 9.9 61 19.8 61 30 C70.57 30 80.14 30 90 30 C90 30.66 90 31.32 90 32 C85.74585377 32.02465622 81.49174502 32.04283899 77.23754883 32.05493164 C75.78929927 32.05997101 74.34105483 32.06680253 72.89282227 32.07543945 C70.81525412 32.08752247 68.73775303 32.09323211 66.66015625 32.09765625 C65.40855713 32.10289307 64.15695801 32.10812988 62.86743164 32.11352539 C60 32 60 32 59 31 C59 21.43 59 11.86 59 2 C29.795 1.505 29.795 1.505 0 1 C0 0.67 0 0.34 0 0 Z " fill="#FCBE40" transform="translate(186,135)"/>
<path d="M0 0 C9.57 0 19.14 0 29 0 C29 0.33 29 0.66 29 1 C20.09 1 11.18 1 2 1 C2.495 15.355 2.495 15.355 3 30 C-1.25910628 32.12955314 -2.8883686 32.18689234 -7.515625 31.9765625 C-9.20606934 31.90816162 -9.20606934 31.90816162 -10.93066406 31.83837891 C-13.06873535 31.73275635 -13.06873535 31.73275635 -15.25 31.625 C-19.7875 31.41875 -24.325 31.2125 -29 31 C-28.67 40.9 -28.34 50.8 -28 61 C-28.99 61.495 -28.99 61.495 -30 62 C-30 51.44 -30 40.88 -30 30 C-20.43 29.67 -10.86 29.34 -1 29 C-0.67 19.43 -0.34 9.86 0 0 Z " fill="#536E81" transform="translate(337,196)"/>
<path d="M0 0 C0.33 0 0.66 0 1 0 C1 14.52 1 29.04 1 44 C6.445 43.505 6.445 43.505 12 43 C15.07293299 42.9373893 18.11758738 42.9017073 21.1875 42.9375 C21.94869141 42.94201172 22.70988281 42.94652344 23.49414062 42.95117188 C25.32946295 42.96271478 27.16474352 42.98063622 29 43 C29 38.38 29 33.76 29 29 C29.33 29 29.66 29 30 29 C30 34.28 30 39.56 30 45 C19.88962219 45.73019395 10.10086131 46.28736468 0 45 C-0.9357634 39.58391486 -1.06540515 34.48865521 -0.87890625 29.00390625 C-0.85529526 28.17036118 -0.83168427 27.3368161 -0.80735779 26.47801208 C-0.73133732 23.8393076 -0.6470516 21.2009435 -0.5625 18.5625 C-0.50921746 16.76368803 -0.45647759 14.9648599 -0.40429688 13.16601562 C-0.27580661 8.77713192 -0.13990772 4.38853398 0 0 Z " fill="#D4CF60" transform="translate(276,332)"/>
<path d="M0 0 C0.99 0 1.98 0 3 0 C3 0.66 3 1.32 3 2 C2.01 2.495 2.01 2.495 1 3 C0.67 32.04 0.34 61.08 0 91 C-0.33 91 -0.66 91 -1 91 C-1.02312215 79.28273212 -1.04091443 67.56546963 -1.05181217 55.84818363 C-1.05704128 50.40797688 -1.06413943 44.96778569 -1.07543945 39.52758789 C-1.08626735 34.28214298 -1.09227662 29.03671308 -1.09487724 23.79125786 C-1.09673167 21.78529054 -1.10035262 19.77932408 -1.10573006 17.77336311 C-1.11293919 14.97397176 -1.113991 12.17464321 -1.11352539 9.37524414 C-1.11712067 8.53727295 -1.12071594 7.69930176 -1.12442017 6.8359375 C-1.11405216 1.11405216 -1.11405216 1.11405216 0 0 Z " fill="#698186" transform="translate(428,44)"/>
<path d="M0 0 C-0.33 0.66 -0.66 1.32 -1 2 C-1.90709717 1.9388501 -1.90709717 1.9388501 -2.83251953 1.87646484 C-5.59604222 1.69709778 -8.36034348 1.53590593 -11.125 1.375 C-12.07632813 1.31054688 -13.02765625 1.24609375 -14.0078125 1.1796875 C-14.9359375 1.128125 -15.8640625 1.0765625 -16.8203125 1.0234375 C-18.09285889 0.94488525 -18.09285889 0.94488525 -19.39111328 0.86474609 C-22.63962364 0.91688953 -22.63962364 0.91688953 -28 3 C-28.33 8.28 -28.66 13.56 -29 19 C-29.66 19 -30.32 19 -31 19 C-30.67 12.73 -30.34 6.46 -30 0 C-20.35203641 -2.4119909 -9.80876514 -0.89900302 0 0 Z " fill="#49689F" transform="translate(156,45)"/>
<path d="M0 0 C16.17 0 32.34 0 49 0 C49 1.98 49 3.96 49 6 C48.34 6 47.68 6 47 6 C46.505 4.02 46.505 4.02 46 2 C30.82 1.67 15.64 1.34 0 1 C0 0.67 0 0.34 0 0 Z " fill="#D1232C" transform="translate(197,106)"/>
<path d="M0 0 C0.33 0 0.66 0 1 0 C1 5.28 1 10.56 1 16 C-4.94 16.33 -10.88 16.66 -17 17 C-17 16.01 -17 15.02 -17 14 C-11.39 14 -5.78 14 0 14 C0 9.38 0 4.76 0 0 Z " fill="#DEDC4F" transform="translate(305,361)"/>
<path d="M0 0 C0.33 0 0.66 0 1 0 C1 10.23 1 20.46 1 31 C0.67 29.68 0.34 28.36 0 27 C-0.66 27 -1.32 27 -2 27 C-1.84152588 26.45182617 -1.68305176 25.90365234 -1.51977539 25.33886719 C-0.9372438 22.71761184 -0.78793845 20.26127447 -0.68359375 17.578125 C-0.64169922 16.55332031 -0.59980469 15.52851563 -0.55664062 14.47265625 C-0.49766602 12.87744141 -0.49766602 12.87744141 -0.4375 11.25 C-0.39431641 10.17105469 -0.35113281 9.09210938 -0.30664062 7.98046875 C-0.20071011 5.32043572 -0.09863579 2.66031188 0 0 Z " fill="#F1EE46" transform="translate(277,305)"/>
<path d="M0 0 C0.99 0.33 1.98 0.66 3 1 C3 5.95 3 10.9 3 16 C2.01 16.33 1.02 16.66 0 17 C0 11.39 0 5.78 0 0 Z " fill="#4A6AA7" transform="translate(337,257)"/>
<path d="M0 0 C1.32 0 2.64 0 4 0 C3.67854004 0.54817383 3.35708008 1.09634766 3.02587891 1.66113281 C1.83099217 4.38531533 1.68485993 6.4542022 1.5859375 9.421875 C1.54726563 10.44667969 1.50859375 11.47148437 1.46875 12.52734375 C1.42234375 14.12255859 1.42234375 14.12255859 1.375 15.75 C1.33632813 16.82894531 1.29765625 17.90789062 1.2578125 19.01953125 C1.16365369 21.67951775 1.07802613 24.3394994 1 27 C0.67 27 0.34 27 0 27 C0 18.09 0 9.18 0 0 Z " fill="#EDEA36" transform="translate(278,234)"/>
<path d="M0 0 C0.99 0 1.98 0 3 0 C3 0.66 3 1.32 3 2 C2.01 2.495 2.01 2.495 1 3 C0.67 8.61 0.34 14.22 0 20 C-0.33 20 -0.66 20 -1 20 C-1.02888514 16.85418577 -1.04675923 13.70840531 -1.0625 10.5625 C-1.07087891 9.66466797 -1.07925781 8.76683594 -1.08789062 7.84179688 C-1.09111328 6.98779297 -1.09433594 6.13378906 -1.09765625 5.25390625 C-1.10551147 4.06776733 -1.10551147 4.06776733 -1.11352539 2.85766602 C-1 1 -1 1 0 0 Z " fill="#4C6699" transform="translate(428,44)"/>
<path d="M0 0 C0.33 0 0.66 0 1 0 C1 3.63 1 7.26 1 11 C0.67 9.68 0.34 8.36 0 7 C-0.66 7 -1.32 7 -2 7 C-1.42415568 4.61435923 -0.77772405 2.33317216 0 0 Z " fill="#EEE969" transform="translate(277,325)"/>
</svg>
