<?xml version="1.0" encoding="UTF-8"?>
<svg version="1.1" xmlns="http://www.w3.org/2000/svg" width="260" height="194">
<path d="M0 0 C10.11804608 -0.09260216 20.23599166 -0.16371516 30.35437489 -0.20724869 C35.05256408 -0.22814066 39.75046377 -0.25648746 44.44848633 -0.30175781 C48.98074381 -0.34515848 53.51272252 -0.36912497 58.04517174 -0.37950897 C59.77600177 -0.38691078 61.50681622 -0.40136458 63.23752785 -0.42292023 C65.65844547 -0.45187826 68.07820517 -0.45595932 70.49926758 -0.45410156 C71.57712524 -0.47567322 71.57712524 -0.47567322 72.67675781 -0.49768066 C75.89876563 -0.47085455 77.55558212 -0.42842093 79.92582703 1.85650635 C81.11851583 4.23649629 81.63475764 6.37025504 82 9 C82.556875 9.06058594 83.11375 9.12117187 83.6875 9.18359375 C85.28577015 9.35907949 86.88340145 9.54044757 88.48046875 9.7265625 C90.06333433 9.89834636 91.64961103 10.04308066 93.23828125 10.1484375 C96.56860361 10.41185283 98.69881671 10.78376584 101.4375 12.75 C103 15 103 15 103.4375 17.625 C103.623125 18.40875 103.80875 19.1925 104 20 C105.64034193 20.72904086 107.31301918 21.38655243 109 22 C112.39327522 24.93055587 113.96828158 26.72573796 115 31 C117.24349024 32.41256793 119.5875752 33.22783528 122.0625 34.1875 C125.15895291 36.09807732 126.29494157 37.56381418 127.55859375 40.96484375 C128.06150642 43.28358268 128.03501197 45.31990927 127.9375 47.6875 C127.78583043 51.26348494 127.78583043 51.26348494 129.6875 54.3125 C130.450625 54.869375 131.21375 55.42625 132 56 C135.57943284 58.70640044 138.27441518 60.78190378 140 65 C139.75837576 66.78305315 139.5141024 68.56577038 139.25991821 70.34707642 C138.7352697 75.70203944 138.9491932 81.09668436 139.01653099 86.47153282 C139.04342517 88.7376771 139.06113171 91.00372029 139.07600403 93.26997375 C139.11851821 99.70759031 139.16664149 106.14500436 139.24682617 112.58227539 C139.29538357 116.53370796 139.32434803 120.48487146 139.34057045 124.43656349 C139.35044927 125.93689348 139.36763117 127.43719434 139.39235497 128.93735313 C139.42616678 131.03368384 139.43498963 133.12877185 139.43823242 135.2253418 C139.45013107 136.41588669 139.46202972 137.60643158 139.47428894 138.83305359 C138.90348127 142.6444798 137.69008091 144.29156235 135 147 C132.859375 147.70703125 132.859375 147.70703125 130.75 147.8125 C129.5125 147.874375 128.275 147.93625 127 148 C126.938125 148.886875 126.87625 149.77375 126.8125 150.6875 C125.78073813 154.89391378 124.46991083 156.4352833 121 159 C117.3203125 159.1328125 117.3203125 159.1328125 114 159 C113.92652344 160.87945312 113.92652344 160.87945312 113.8515625 162.796875 C113.77651417 164.44793821 113.70096723 166.09897881 113.625 167.75 C113.57859375 168.9875 113.57859375 168.9875 113.53125 170.25 C113.47324219 171.44882812 113.47324219 171.44882812 113.4140625 172.671875 C113.3826416 173.4050293 113.3512207 174.13818359 113.31884766 174.89355469 C112.94941886 177.33416087 112.38453145 178.95163667 111 181 C107.375 181.75 107.375 181.75 104 182 C103.814375 183.8871875 103.814375 183.8871875 103.625 185.8125 C103.30131941 189.10325263 102.93395001 190.09907498 101 193 C98.03382763 194.10922577 95.16530309 194.13172771 92.02146912 194.14717102 C91.01902161 194.15432632 90.0165741 194.16148163 88.98374939 194.16885376 C87.89010574 194.17154266 86.7964621 194.17423157 85.66967773 194.17700195 C84.51323761 194.18357315 83.35679749 194.19014435 82.16531372 194.19691467 C78.33807309 194.2166294 74.51087156 194.22830289 70.68359375 194.23828125 C69.37813158 194.24235678 68.07266941 194.2464323 66.72764778 194.25063133 C60.53667157 194.26966238 54.34570719 194.28390226 48.15470737 194.2922433 C41.00736428 194.30203247 33.8603295 194.3284039 26.71309513 194.36874419 C21.18689598 194.39886654 15.66078549 194.41370813 10.13450581 194.41702431 C6.83392625 194.41937772 3.53375312 194.43033865 0.23324394 194.45348549 C-3.44444907 194.47768564 -7.12132498 194.47694725 -10.79907227 194.4699707 C-11.89474014 194.48278076 -12.99040802 194.49559082 -14.11927795 194.50878906 C-15.61871948 194.49837334 -15.61871948 194.49837334 -17.14845276 194.48774719 C-18.45283216 194.49132972 -18.45283216 194.49132972 -19.78356266 194.49498463 C-22 194 -22 194 -23.79150295 192.2038908 C-25.49302912 189.10088125 -25.20040425 186.4736736 -25 183 C-26.3303125 183.1546875 -26.3303125 183.1546875 -27.6875 183.3125 C-31 183 -31 183 -33.8125 181.25 C-37.65424114 175.54227031 -37.34139493 168.92624223 -36.5625 162.25 C-36.2840625 161.13625 -36.2840625 161.13625 -36 160 C-37.2375 160.061875 -38.475 160.12375 -39.75 160.1875 C-42.42047297 160.16382559 -43.98729514 160.00508194 -46.5 159 C-48.9023404 155.79687946 -48.25747761 152.92653359 -48 149 C-49.093125 149.061875 -50.18625 149.12375 -51.3125 149.1875 C-55 149 -55 149 -56.875 147.6875 C-59.46833451 143.79749824 -59.14800671 139.7684774 -59.14526367 135.28735352 C-59.14862228 134.50330139 -59.1519809 133.71924927 -59.15544128 132.91143799 C-59.16494736 130.31724467 -59.16689417 127.72311591 -59.16796875 125.12890625 C-59.17118137 123.32673618 -59.17454544 121.52456637 -59.17805481 119.72239685 C-59.18404507 115.94374995 -59.18589479 112.16512592 -59.18530273 108.38647461 C-59.18520107 103.54304091 -59.19885803 98.69975368 -59.21607494 93.85635471 C-59.22718915 90.1340416 -59.22922213 86.41176397 -59.22869301 82.68943596 C-59.22987382 80.90365023 -59.23430123 79.11786361 -59.24202538 77.33209419 C-59.25181437 74.83530515 -59.24895168 72.33883511 -59.24291992 69.84204102 C-59.24853943 69.10372543 -59.25415894 68.36540985 -59.25994873 67.60472107 C-59.23739599 63.93395817 -59.14976889 61.06086128 -57 58 C-55.0546875 56.953125 -55.0546875 56.953125 -52.875 56.25 C-52.15054688 56.00765625 -51.42609375 55.7653125 -50.6796875 55.515625 C-50.12539063 55.34546875 -49.57109375 55.1753125 -49 55 C-48.97421875 53.74703125 -48.9484375 52.4940625 -48.921875 51.203125 C-48.86558831 49.55204877 -48.8082411 47.90100845 -48.75 46.25 C-48.72873047 45.0125 -48.72873047 45.0125 -48.70703125 43.75 C-48.46128574 37.65551131 -48.46128574 37.65551131 -46.21875 34.46875 C-43.88361141 32.92295403 -42.51814366 32.43454291 -39.75 32.25 C-38.5125 32.1675 -37.275 32.085 -36 32 C-36.103125 31.0925 -36.20625 30.185 -36.3125 29.25 C-36 26 -36 26 -33.75 23.6875 C-31 22 -31 22 -28.9765625 21.703125 C-26.7731023 21.16040798 -26.7731023 21.16040798 -25.7265625 18.78515625 C-24.99382413 16.97409723 -24.26463864 15.16159659 -23.5390625 13.34765625 C-22 11 -22 11 -19.296875 9.66015625 C-15.5482012 8.90953318 -12.42686688 9.01633331 -8.625 9.375 C-7.37976563 9.48585938 -6.13453125 9.59671875 -4.8515625 9.7109375 C-3.91054687 9.80632813 -2.96953125 9.90171875 -2 10 C-2.04125 9.0925 -2.0825 8.185 -2.125 7.25 C-2.00206853 4.05378189 -1.49964451 2.71589164 0 0 Z " fill="#050304" transform="translate(91,0)"/>
<path d="M0 0 C15.18 0 30.36 0 46 0 C46 3.96 46 7.92 46 12 C53.59 12 61.18 12 69 12 C69 15.63 69 19.26 69 23 C72.63 23 76.26 23 80 23 C80 26.63 80 30.26 80 34 C83.96 34 87.92 34 92 34 C92 41.59 92 49.18 92 57 C95.63 57 99.26 57 103 57 C103 75.81 103 94.62 103 114 C95.41 114 87.82 114 80 114 C80 110.37 80 106.74 80 103 C42.38 103 4.76 103 -34 103 C-34 106.63 -34 110.26 -34 114 C-41.59 114 -49.18 114 -57 114 C-57 95.19 -57 76.38 -57 57 C-53.37 57 -49.74 57 -46 57 C-46 49.41 -46 41.82 -46 34 C-42.04 34 -38.08 34 -34 34 C-34 30.37 -34 26.74 -34 23 C-30.37 23 -26.74 23 -23 23 C-23 19.37 -23 15.74 -23 12 C-15.41 12 -7.82 12 0 12 C0 8.04 0 4.08 0 0 Z " fill="#5D8C66" transform="translate(107,17)"/>
<path d="M0 0 C10.11804608 -0.09260216 20.23599166 -0.16371516 30.35437489 -0.20724869 C35.05256408 -0.22814066 39.75046377 -0.25648746 44.44848633 -0.30175781 C48.98074381 -0.34515848 53.51272252 -0.36912497 58.04517174 -0.37950897 C59.77600177 -0.38691078 61.50681622 -0.40136458 63.23752785 -0.42292023 C65.65844547 -0.45187826 68.07820517 -0.45595932 70.49926758 -0.45410156 C71.57712524 -0.47567322 71.57712524 -0.47567322 72.67675781 -0.49768066 C75.89876563 -0.47085455 77.55558212 -0.42842093 79.92582703 1.85650635 C81.11851583 4.23649629 81.63475764 6.37025504 82 9 C82.556875 9.06058594 83.11375 9.12117187 83.6875 9.18359375 C85.28577015 9.35907949 86.88340145 9.54044757 88.48046875 9.7265625 C90.06333433 9.89834636 91.64961103 10.04308066 93.23828125 10.1484375 C96.56860361 10.41185283 98.69881671 10.78376584 101.4375 12.75 C103 15 103 15 103.4375 17.625 C103.623125 18.40875 103.80875 19.1925 104 20 C105.64034193 20.72904086 107.31301918 21.38655243 109 22 C112.39327522 24.93055587 113.96828158 26.72573796 115 31 C117.24349024 32.41256793 119.5875752 33.22783528 122.0625 34.1875 C125.15895291 36.09807732 126.29494157 37.56381418 127.55859375 40.96484375 C128.06150642 43.28358268 128.03501197 45.31990927 127.9375 47.6875 C127.78583043 51.26348494 127.78583043 51.26348494 129.6875 54.3125 C130.450625 54.869375 131.21375 55.42625 132 56 C135.57943284 58.70640044 138.27441518 60.78190378 140 65 C139.75837576 66.78305315 139.5141024 68.56577038 139.25991821 70.34707642 C138.7352697 75.70203944 138.9491932 81.09668436 139.01653099 86.47153282 C139.04342517 88.7376771 139.06113171 91.00372029 139.07600403 93.26997375 C139.11851821 99.70759031 139.16664149 106.14500436 139.24682617 112.58227539 C139.29538357 116.53370796 139.32434803 120.48487146 139.34057045 124.43656349 C139.35044927 125.93689348 139.36763117 127.43719434 139.39235497 128.93735313 C139.42616678 131.03368384 139.43498963 133.12877185 139.43823242 135.2253418 C139.45013107 136.41588669 139.46202972 137.60643158 139.47428894 138.83305359 C138.90348127 142.6444798 137.69008091 144.29156235 135 147 C132.859375 147.70703125 132.859375 147.70703125 130.75 147.8125 C129.5125 147.874375 128.275 147.93625 127 148 C126.938125 148.886875 126.87625 149.77375 126.8125 150.6875 C125.78073813 154.89391378 124.46991083 156.4352833 121 159 C117.3203125 159.1328125 117.3203125 159.1328125 114 159 C113.92652344 160.87945312 113.92652344 160.87945312 113.8515625 162.796875 C113.77651417 164.44793821 113.70096723 166.09897881 113.625 167.75 C113.57859375 168.9875 113.57859375 168.9875 113.53125 170.25 C113.47324219 171.44882812 113.47324219 171.44882812 113.4140625 172.671875 C113.3826416 173.4050293 113.3512207 174.13818359 113.31884766 174.89355469 C112.94941886 177.33416087 112.38453145 178.95163667 111 181 C107.375 181.75 107.375 181.75 104 182 C103.814375 183.8871875 103.814375 183.8871875 103.625 185.8125 C103.30131941 189.10325263 102.93395001 190.09907498 101 193 C98.03382763 194.10922577 95.16530309 194.13172771 92.02146912 194.14717102 C91.01902161 194.15432632 90.0165741 194.16148163 88.98374939 194.16885376 C87.89010574 194.17154266 86.7964621 194.17423157 85.66967773 194.17700195 C84.51323761 194.18357315 83.35679749 194.19014435 82.16531372 194.19691467 C78.33807309 194.2166294 74.51087156 194.22830289 70.68359375 194.23828125 C69.37813158 194.24235678 68.07266941 194.2464323 66.72764778 194.25063133 C60.53667157 194.26966238 54.34570719 194.28390226 48.15470737 194.2922433 C41.00736428 194.30203247 33.8603295 194.3284039 26.71309513 194.36874419 C21.18689598 194.39886654 15.66078549 194.41370813 10.13450581 194.41702431 C6.83392625 194.41937772 3.53375312 194.43033865 0.23324394 194.45348549 C-3.44444907 194.47768564 -7.12132498 194.47694725 -10.79907227 194.4699707 C-11.89474014 194.48278076 -12.99040802 194.49559082 -14.11927795 194.50878906 C-15.61871948 194.49837334 -15.61871948 194.49837334 -17.14845276 194.48774719 C-18.45283216 194.49132972 -18.45283216 194.49132972 -19.78356266 194.49498463 C-22 194 -22 194 -23.79150295 192.2038908 C-25.49302912 189.10088125 -25.20040425 186.4736736 -25 183 C-26.3303125 183.1546875 -26.3303125 183.1546875 -27.6875 183.3125 C-31 183 -31 183 -33.8125 181.25 C-37.65424114 175.54227031 -37.34139493 168.92624223 -36.5625 162.25 C-36.2840625 161.13625 -36.2840625 161.13625 -36 160 C-37.2375 160.061875 -38.475 160.12375 -39.75 160.1875 C-42.42047297 160.16382559 -43.98729514 160.00508194 -46.5 159 C-48.9023404 155.79687946 -48.25747761 152.92653359 -48 149 C-49.093125 149.061875 -50.18625 149.12375 -51.3125 149.1875 C-55 149 -55 149 -56.875 147.6875 C-59.46833451 143.79749824 -59.14800671 139.7684774 -59.14526367 135.28735352 C-59.14862228 134.50330139 -59.1519809 133.71924927 -59.15544128 132.91143799 C-59.16494736 130.31724467 -59.16689417 127.72311591 -59.16796875 125.12890625 C-59.17118137 123.32673618 -59.17454544 121.52456637 -59.17805481 119.72239685 C-59.18404507 115.94374995 -59.18589479 112.16512592 -59.18530273 108.38647461 C-59.18520107 103.54304091 -59.19885803 98.69975368 -59.21607494 93.85635471 C-59.22718915 90.1340416 -59.22922213 86.41176397 -59.22869301 82.68943596 C-59.22987382 80.90365023 -59.23430123 79.11786361 -59.24202538 77.33209419 C-59.25181437 74.83530515 -59.24895168 72.33883511 -59.24291992 69.84204102 C-59.24853943 69.10372543 -59.25415894 68.36540985 -59.25994873 67.60472107 C-59.23739599 63.93395817 -59.14976889 61.06086128 -57 58 C-55.0546875 56.953125 -55.0546875 56.953125 -52.875 56.25 C-52.15054688 56.00765625 -51.42609375 55.7653125 -50.6796875 55.515625 C-50.12539063 55.34546875 -49.57109375 55.1753125 -49 55 C-48.97421875 53.74703125 -48.9484375 52.4940625 -48.921875 51.203125 C-48.86558831 49.55204877 -48.8082411 47.90100845 -48.75 46.25 C-48.72873047 45.0125 -48.72873047 45.0125 -48.70703125 43.75 C-48.46128574 37.65551131 -48.46128574 37.65551131 -46.21875 34.46875 C-43.88361141 32.92295403 -42.51814366 32.43454291 -39.75 32.25 C-38.5125 32.1675 -37.275 32.085 -36 32 C-36.103125 31.0925 -36.20625 30.185 -36.3125 29.25 C-36 26 -36 26 -33.75 23.6875 C-31 22 -31 22 -28.9765625 21.703125 C-26.7731023 21.16040798 -26.7731023 21.16040798 -25.7265625 18.78515625 C-24.99382413 16.97409723 -24.26463864 15.16159659 -23.5390625 13.34765625 C-22 11 -22 11 -19.296875 9.66015625 C-15.5482012 8.90953318 -12.42686688 9.01633331 -8.625 9.375 C-7.37976563 9.48585938 -6.13453125 9.59671875 -4.8515625 9.7109375 C-3.91054687 9.80632813 -2.96953125 9.90171875 -2 10 C-2.04125 9.0925 -2.0825 8.185 -2.125 7.25 C-2.00206853 4.05378189 -1.49964451 2.71589164 0 0 Z M5 6 C5 9.96 5 13.92 5 18 C-2.59 18 -10.18 18 -18 18 C-18 21.63 -18 25.26 -18 29 C-21.63 29 -25.26 29 -29 29 C-29 32.63 -29 36.26 -29 40 C-32.96 40 -36.92 40 -41 40 C-41 47.59 -41 55.18 -41 63 C-44.63 63 -48.26 63 -52 63 C-52 89.07 -52 115.14 -52 142 C-48.37 142 -44.74 142 -41 142 C-41 145.63 -41 149.26 -41 153 C-37.04 153 -33.08 153 -29 153 C-29 160.59 -29 168.18 -29 176 C-25.37 176 -21.74 176 -18 176 C-18 179.96 -18 183.92 -18 188 C19.62 188 57.24 188 96 188 C96 184.04 96 180.08 96 176 C99.63 176 103.26 176 107 176 C107 168.41 107 160.82 107 153 C110.96 153 114.92 153 119 153 C119 149.37 119 145.74 119 142 C122.63 142 126.26 142 130 142 C130 115.93 130 89.86 130 63 C126.37 63 122.74 63 119 63 C119 55.41 119 47.82 119 40 C115.04 40 111.08 40 107 40 C107 36.37 107 32.74 107 29 C103.37 29 99.74 29 96 29 C96 25.37 96 21.74 96 18 C88.41 18 80.82 18 73 18 C73 14.04 73 10.08 73 6 C50.56 6 28.12 6 5 6 Z " fill="#F7F6F6" transform="translate(91,0)"/>
<path d="M0 0 C7.59 0 15.18 0 23 0 C23 7.59 23 15.18 23 23 C26.96 23 30.92 23 35 23 C35 15.41 35 7.82 35 0 C42.26 0 49.52 0 57 0 C57 7.59 57 15.18 57 23 C60.96 23 64.92 23 69 23 C69 15.41 69 7.82 69 0 C76.59 0 84.18 0 92 0 C92 3.63 92 7.26 92 11 C95.63 11 99.26 11 103 11 C103 18.59 103 26.18 103 34 C99.37 34 95.74 34 92 34 C92 37.63 92 41.26 92 45 C61.64 45 31.28 45 0 45 C0 41.37 0 37.74 0 34 C-3.63 34 -7.26 34 -11 34 C-11 26.41 -11 18.82 -11 11 C-7.37 11 -3.74 11 0 11 C0 7.37 0 3.74 0 0 Z " fill="#FDFDFD" transform="translate(84,131)"/>
<path d="M0 0 C15.18 0 30.36 0 46 0 C46 3.63 46 7.26 46 11 C49.63 11 53.26 11 57 11 C57 22.22 57 33.44 57 45 C53.37 45 49.74 45 46 45 C46 48.63 46 52.26 46 56 C30.82 56 15.64 56 0 56 C0 52.37 0 48.74 0 45 C-3.63 45 -7.26 45 -11 45 C-11 33.78 -11 22.56 -11 11 C-7.37 11 -3.74 11 0 11 C0 7.37 0 3.74 0 0 Z " fill="#FDFEFD" transform="translate(107,63)"/>
<path d="M0 0 C3.96 0 7.92 0 12 0 C12 7.26 12 14.52 12 22 C15.63 22 19.26 22 23 22 C23 33.22 23 44.44 23 56 C15.41 56 7.82 56 0 56 C0 52.37 0 48.74 0 45 C-3.63 45 -7.26 45 -11 45 C-11 37.41 -11 29.82 -11 22 C-7.37 22 -3.74 22 0 22 C0 14.74 0 7.48 0 0 Z " fill="#F9FAF9" transform="translate(187,52)"/>
<path d="M0 0 C3.96 0 7.92 0 12 0 C12 3.96 12 7.92 12 12 C19.59 12 27.18 12 35 12 C35 19.26 35 26.52 35 34 C27.41 34 19.82 34 12 34 C12 30.37 12 26.74 12 23 C8.04 23 4.08 23 0 23 C0 15.41 0 7.82 0 0 Z " fill="#F7F9F7" transform="translate(141,17)"/>
<path d="M0 0 C3.96 0 7.92 0 12 0 C12 7.59 12 15.18 12 23 C8.04 23 4.08 23 0 23 C0 26.63 0 30.26 0 34 C-7.59 34 -15.18 34 -23 34 C-23 26.74 -23 19.48 -23 12 C-15.41 12 -7.82 12 0 12 C0 8.04 0 4.08 0 0 Z " fill="#F7F9F7" transform="translate(107,17)"/>
<path d="M0 0 C0.66 0.33 1.32 0.66 2 1 C1.67 1.33 1.34 1.66 1 2 C0.90488734 4.64738089 0.87444365 7.26859001 0.88647461 9.91625977 C0.88632858 10.74545929 0.88618256 11.57465881 0.8860321 12.4289856 C0.88673149 15.18315198 0.89452507 17.93725161 0.90234375 20.69140625 C0.90420784 22.59569766 0.90563178 24.49998955 0.90663147 26.40428162 C0.91045737 31.42667963 0.92028827 36.44904892 0.93133545 41.47143555 C0.94154802 46.5922812 0.94612876 51.71313148 0.95117188 56.83398438 C0.96191047 66.88933557 0.97898776 76.9446654 1 87 C4.3 88.32 7.6 89.64 11 91 C11.12375 92.11375 11.2475 93.2275 11.375 94.375 C11.6465813 98.03103677 11.6465813 98.03103677 14 100 C16.65537372 100.56520003 19.29144713 100.73788198 22 101 C22.04898438 102.26457031 22.09796875 103.52914062 22.1484375 104.83203125 C22.2234738 106.49220947 22.29902127 108.15236464 22.375 109.8125 C22.42140625 111.06256836 22.42140625 111.06256836 22.46875 112.33789062 C22.50742187 113.14033203 22.54609375 113.94277344 22.5859375 114.76953125 C22.63306885 115.87711792 22.63306885 115.87711792 22.68115234 117.00708008 C22.90834614 119.31349588 22.90834614 119.31349588 25 122 C26.96361864 122.57748803 26.96361864 122.57748803 29.125 122.6875 C30.40375 122.790625 31.6825 122.89375 33 123 C33.09796875 123.68707031 33.1959375 124.37414062 33.296875 125.08203125 C33.44640625 125.98308594 33.5959375 126.88414062 33.75 127.8125 C33.88921875 128.70582031 34.0284375 129.59914062 34.171875 130.51953125 C35.168841 133.50572658 36.3582435 134.38380344 39 136 C36.625 135.6875 36.625 135.6875 34 135 C31.5705484 131.3558226 31.83820425 129.28758728 32 125 C31.113125 125.103125 30.22625 125.20625 29.3125 125.3125 C26 125 26 125 23.1875 123.25 C19.34575886 117.54227031 19.65860507 110.92624223 20.4375 104.25 C20.623125 103.5075 20.80875 102.765 21 102 C19.7625 102.061875 18.525 102.12375 17.25 102.1875 C14.57952703 102.16382559 13.01270486 102.00508194 10.5 101 C8.0976596 97.79687946 8.74252239 94.92653359 9 91 C7.906875 91.061875 6.81375 91.12375 5.6875 91.1875 C2 91 2 91 0.125 89.6875 C-2.46833451 85.79749824 -2.14800671 81.7684774 -2.14526367 77.28735352 C-2.14862228 76.50330139 -2.1519809 75.71924927 -2.15544128 74.91143799 C-2.16494736 72.31724467 -2.16689417 69.72311591 -2.16796875 67.12890625 C-2.17118137 65.32673618 -2.17454544 63.52456637 -2.17805481 61.72239685 C-2.18404507 57.94374995 -2.18589479 54.16512592 -2.18530273 50.38647461 C-2.18520107 45.54304091 -2.19885803 40.69975368 -2.21607494 35.85635471 C-2.22718915 32.1340416 -2.22922213 28.41176397 -2.22869301 24.68943596 C-2.22987382 22.90365023 -2.23430123 21.11786361 -2.24202538 19.33209419 C-2.25181437 16.83530515 -2.24895168 14.33883511 -2.24291992 11.84204102 C-2.24853943 11.10372543 -2.25415894 10.36540985 -2.25994873 9.60472107 C-2.23723555 5.90784472 -2.04839554 3.14049654 0 0 Z " fill="#777573" transform="translate(34,58)"/>
<path d="M0 0 C3.96 0 7.92 0 12 0 C11.67 0.66 11.34 1.32 11 2 C8.6739143 2.38063221 6.33944736 2.71269945 4 3 C3.01 3.495 3.01 3.495 2 4 C2 6.97 2 9.94 2 13 C0.68 13.33 -0.64 13.66 -2 14 C-2.33 13.67 -2.66 13.34 -3 13 C-4.48638992 12.84344973 -5.97949127 12.74933057 -7.47265625 12.68359375 C-8.82133789 12.62075195 -8.82133789 12.62075195 -10.19726562 12.55664062 C-11.14279297 12.51732422 -12.08832031 12.47800781 -13.0625 12.4375 C-14.01189453 12.39431641 -14.96128906 12.35113281 -15.93945312 12.30664062 C-18.29281353 12.20020724 -20.64628354 12.09818992 -23 12 C-23 11.67 -23 11.34 -23 11 C-15.41 11 -7.82 11 0 11 C0 7.37 0 3.74 0 0 Z " fill="#739579" transform="translate(107,40)"/>
<path d="M0 0 C0.268125 0.5775 0.53625 1.155 0.8125 1.75 C1.204375 2.4925 1.59625 3.235 2 4 C2.37125 4.721875 2.7425 5.44375 3.125 6.1875 C6.06686951 9.03130719 8.98419167 8.73666831 13 9 C13 11.64 13 14.28 13 17 C12.34 16.67 11.68 16.34 11 16 C11.33 14.02 11.66 12.04 12 10 C10.7625 10.061875 9.525 10.12375 8.25 10.1875 C5.53453903 10.16824141 4.03707115 10.01575524 1.5 8.9375 C-0.74426817 6.03865362 -0.2676336 3.54614524 0 0 Z " fill="#5F5E5E" transform="translate(43,150)"/>
<path d="M0 0 C1.6415049 3.2830098 0.51888624 6.42545033 0 10 C-0.66 10 -1.32 10 -2 10 C-2.6875 8.375 -2.6875 8.375 -3 6 C-1.5625 2.75 -1.5625 2.75 0 0 Z " fill="#878686" transform="translate(68,13)"/>
<path d="M0 0 C0.268125 0.556875 0.53625 1.11375 0.8125 1.6875 C2.10122647 4.19712523 3.52926478 6.59334236 5 9 C1.125 8.125 1.125 8.125 0 7 C-0.04092937 4.66702567 -0.04241723 2.33294775 0 0 Z " fill="#504F50" transform="translate(43,150)"/>
<path d="M0 0 C0.33 0 0.66 0 1 0 C1 3.63 1 7.26 1 11 C-0.32 10.67 -1.64 10.34 -3 10 C-2.34 9.34 -1.68 8.68 -1 8 C-0.54188325 6.02764667 -0.54188325 6.02764667 -0.375 3.875 C-0.25125 2.59625 -0.1275 1.3175 0 0 Z " fill="#6B8771" transform="translate(72,120)"/>
</svg>
