<?xml version="1.0" encoding="UTF-8"?>
<svg version="1.1" xmlns="http://www.w3.org/2000/svg" width="378" height="381">
<path d="M0 0 C37.95 0 75.9 0 115 0 C115 9.57 115 19.14 115 29 C131.5 29 148 29 165 29 C165 38.9 165 48.8 165 59 C174.9 59 184.8 59 195 59 C195.33 66.92 195.66 74.84 196 83 C207.88 83.495 207.88 83.495 220 84 C220.03738281 86.12179688 220.07476562 88.24359375 220.11328125 90.4296875 C220.15968763 92.51832531 220.2108509 94.60679728 220.26245117 96.6953125 C220.29540355 98.13042859 220.32352463 99.56566505 220.34643555 101.00097656 C220.35981624 110.53471269 220.35981624 110.53471269 222.55859375 119.73046875 C225.1069998 127.04668714 224.14196508 135.05393111 223.85400391 142.67944336 C223.74935377 145.45463732 223.6675746 148.22979247 223.58984375 151.00585938 C223.535161 152.77347841 223.47921712 154.54105899 223.421875 156.30859375 C223.39575134 157.13669052 223.36962769 157.96478729 223.3427124 158.81797791 C223.21634928 162.09485023 223.04277531 164.87167408 222 168 C229.59 168.33 237.18 168.66 245 169 C245 238.96 245 308.92 245 381 C236.75 381 228.5 381 220 381 C220 373.74 220 366.48 220 359 C210.1 359 200.2 359 190 359 C190 349.1 190 339.2 190 329 C181.75 329 173.5 329 165 329 C165 338.9 165 348.8 165 359 C156.75 359 148.5 359 140 359 C140 366.26 140 373.52 140 381 C121.85 381 103.7 381 85 381 C85 363.84 85 346.68 85 329 C65.2 329 45.4 329 25 329 C25 346.16 25 363.32 25 381 C8.5 381 -8 381 -25 381 C-25 373.74 -25 366.48 -25 359 C-34.9 359 -44.8 359 -55 359 C-55 349.1 -55 339.2 -55 329 C-63.25 329 -71.5 329 -80 329 C-80 338.9 -80 348.8 -80 359 C-89.9 359 -99.8 359 -110 359 C-110 366.26 -110 373.52 -110 381 C-117.59 381 -125.18 381 -133 381 C-133 309.39 -133 237.78 -133 164 C-125.41 164 -117.82 164 -110 164 C-110 137.6 -110 111.2 -110 84 C-100.1 84 -90.2 84 -80 84 C-80 75.75 -80 67.5 -80 59 C-71.75 59 -63.5 59 -55 59 C-55 49.1 -55 39.2 -55 29 C-36.85 29 -18.7 29 0 29 C0 19.43 0 9.86 0 0 Z " fill="#F24236" transform="translate(133,0)"/>
<path d="M0 0 C19.8 0 39.6 0 60 0 C60 8.25 60 16.5 60 25 C68.25 25 76.5 25 85 25 C85 34.9 85 44.8 85 55 C66.85 55 48.7 55 30 55 C30 73.15 30 91.3 30 110 C39.9 110 49.8 110 60 110 C60 119.9 60 129.8 60 140 C40.2 140 20.4 140 0 140 C0 130.1 0 120.2 0 110 C-8.25 110 -16.5 110 -25 110 C-25 81.95 -25 53.9 -25 25 C-16.75 25 -8.5 25 0 25 C0 16.75 0 8.5 0 0 Z " fill="#FDFCFC" transform="translate(103,84)"/>
<path d="M0 0 C16.5 0 33 0 50 0 C50 9.9 50 19.8 50 30 C59.9 30 69.8 30 80 30 C83.69731058 37.39462116 84.14200449 42.12333635 83.9140625 50.1328125 C83.89282318 51.00646454 83.87158386 51.88011658 83.84970093 52.78024292 C83.80357193 54.62098107 83.75465522 56.46165122 83.703125 58.30224609 C83.62508496 61.12193012 83.55800862 63.94172589 83.4921875 66.76171875 C83.44596615 68.55210033 83.39911287 70.34246573 83.3515625 72.1328125 C83.33171295 72.97659454 83.3118634 73.82037659 83.29141235 74.68972778 C83.19316352 78.01571351 83.05843205 80.82470386 82 84 C82.66 84.33 83.32 84.66 84 85 C82.68 85 81.36 85 80 85 C80 75.1 80 65.2 80 55 C61.85 55 43.7 55 25 55 C25 73.15 25 91.3 25 110 C33.25 110 41.5 110 50 110 C50 118.25 50 126.5 50 135 C33.5 135 17 135 0 135 C0 126.75 0 118.5 0 110 C-9.9 110 -19.8 110 -30 110 C-30 83.6 -30 57.2 -30 30 C-20.1 30 -10.2 30 0 30 C0 20.1 0 10.2 0 0 Z " fill="#FDFDFC" transform="translate(273,84)"/>
<path d="M0 0 C18.15 0 36.3 0 55 0 C55 18.15 55 36.3 55 55 C36.85 55 18.7 55 0 55 C0 36.85 0 18.7 0 0 Z " fill="#3F50B4" transform="translate(298,139)"/>
<path d="M0 0 C18.15 0 36.3 0 55 0 C55 18.15 55 36.3 55 55 C36.85 55 18.7 55 0 55 C0 36.85 0 18.7 0 0 Z " fill="#4050B1" transform="translate(133,139)"/>
<path d="M0 0 C18.15 0 36.3 0 55 0 C55 18.15 55 36.3 55 55 C36.85 55 18.7 55 0 55 C0 36.85 0 18.7 0 0 Z M47.18310547 1.09179688 C45.66076294 1.12225098 45.66076294 1.12225098 44.10766602 1.15332031 C42.50362915 1.18570801 42.50362915 1.18570801 40.8671875 1.21875 C39.39584351 1.2482373 39.39584351 1.2482373 37.89477539 1.27832031 C34.22151254 1.35199526 30.54825669 1.42601882 26.875 1.5 C14.561875 1.7475 14.561875 1.7475 2 2 C2 19.16 2 36.32 2 54 C19.16 54 36.32 54 54 54 C54 36.51 54 19.02 54 1 C51.72651216 1 49.45617224 1.04610709 47.18310547 1.09179688 Z " fill="#4C4F96" transform="translate(298,139)"/>
<path d="M0 0 C9.9 0 19.8 0 30 0 C30 0.33 30 0.66 30 1 C20.43 1 10.86 1 1 1 C1 26.74 1 52.48 1 79 C8.92 79 16.84 79 25 79 C25 77.68 25 76.36 25 75 C26.65 75 28.3 75 30 75 C30 76.65 30 78.3 30 80 C20.1 80 10.2 80 0 80 C0 53.6 0 27.2 0 0 Z " fill="#FEE1DD" transform="translate(243,114)"/>
<path d="M0 0 C0.33 0 0.66 0 1 0 C1 9.9 1 19.8 1 30 C-7.25 30 -15.5 30 -24 30 C-24 37.26 -24 44.52 -24 52 C-24.66 52 -25.32 52 -26 52 C-26.19625099 48.04204914 -26.38051982 44.08363065 -26.5625 40.125 C-26.61857422 38.99707031 -26.67464844 37.86914062 -26.73242188 36.70703125 C-26.78076172 35.63066406 -26.82910156 34.55429687 -26.87890625 33.4453125 C-26.9260376 32.45031738 -26.97316895 31.45532227 -27.02172852 30.43017578 C-27 28 -27 28 -26 26 C-25.01 26.33 -24.02 26.66 -23 27 C-21.22833025 27.14835948 -19.45232388 27.24770018 -17.67578125 27.31640625 C-16.74934814 27.35451416 -15.82291504 27.39262207 -14.8684082 27.43188477 C-13.6949585 27.47498779 -12.52150879 27.51809082 -11.3125 27.5625 C-5.7128125 27.7790625 -5.7128125 27.7790625 0 28 C0 18.76 0 9.52 0 0 Z " fill="#D6544A" transform="translate(297,329)"/>
<path d="M0 0 C1.65 0 3.3 0 5 0 C5 1.32 5 2.64 5 4 C17.54 4 30.08 4 43 4 C43 4.33 43 4.66 43 5 C27.16 5 11.32 5 -5 5 C-5 23.15 -5 41.3 -5 60 C-5.33 60 -5.66 60 -6 60 C-6 41.52 -6 23.04 -6 4 C-4.02 4 -2.04 4 0 4 C0 2.68 0 1.36 0 0 Z " fill="#ECF3FE" transform="translate(303,134)"/>
<path d="M0 0 C1.65 0 3.3 0 5 0 C4.67 1.32 4.34 2.64 4 4 C5.65 4 7.3 4 9 4 C9 4.99 9 5.98 9 7 C7.35 7 5.7 7 4 7 C3.67 5.68 3.34 4.36 3 3 C2.34 3 1.68 3 1 3 C1 25.77 1 48.54 1 72 C0.67 72 0.34 72 0 72 C0 48.24 0 24.48 0 0 Z " fill="#FFFAF5" transform="translate(244,115)"/>
<path d="M0 0 C0.33 0 0.66 0 1 0 C1 18.15 1 36.3 1 55 C-1 53 -1 53 -1.13525391 50.20263672 C-1.08288574 49.04006348 -1.03051758 47.87749023 -0.9765625 46.6796875 C-0.925 45.42285156 -0.8734375 44.16601562 -0.8203125 42.87109375 C-0.75543074 41.53905165 -0.69032366 40.2070205 -0.625 38.875 C-0.56676177 37.53519706 -0.50945844 36.19535313 -0.453125 34.85546875 C-0.31129726 31.56979268 -0.15985087 28.28484064 0 25 C-1.32 25 -2.64 25 -4 25 C-3.67 23.35 -3.34 21.7 -3 20 C-2.01 20 -1.02 20 0 20 C0 13.4 0 6.8 0 0 Z " fill="#E7ECF7" transform="translate(132,139)"/>
<path d="M0 0 C1.32 0 2.64 0 4 0 C4 1.32 4 2.64 4 4 C16.54 4 29.08 4 42 4 C42 4.33 42 4.66 42 5 C28.14 5 14.28 5 0 5 C0 3.35 0 1.7 0 0 Z " fill="#EAF1FF" transform="translate(304,134)"/>
<path d="M0 0 C9.9 0 19.8 0 30 0 C30 0.33 30 0.66 30 1 C28.35 1 26.7 1 25 1 C25 2.32 25 3.64 25 5 C23.35 5 21.7 5 20 5 C20 3.68 20 2.36 20 1 C13.4 1 6.8 1 0 1 C0 0.67 0 0.34 0 0 Z " fill="#FEE0DF" transform="translate(323,114)"/>
<path d="M0 0 C1.65 0 3.3 0 5 0 C4.67 1.32 4.34 2.64 4 4 C5.65 4 7.3 4 9 4 C9 4.99 9 5.98 9 7 C7.35 7 5.7 7 4 7 C3.67 5.68 3.34 4.36 3 3 C2.34 3 1.68 3 1 3 C1 6.3 1 9.6 1 13 C0.67 13 0.34 13 0 13 C0 8.71 0 4.42 0 0 Z " fill="#EFEEEB" transform="translate(244,115)"/>
<path d="M0 0 C5.94 0 11.88 0 18 0 C18 0.33 18 0.66 18 1 C13.38 1 8.76 1 4 1 C4 1.66 4 2.32 4 3 C2.68 3 1.36 3 0 3 C0 2.01 0 1.02 0 0 Z " fill="#E3E8F3" transform="translate(304,194)"/>
<path d="M0 0 C1.65 0 3.3 0 5 0 C5 1.65 5 3.3 5 5 C3.35 5 1.7 5 0 5 C0 3.35 0 1.7 0 0 Z " fill="#E3D9D8" transform="translate(268,189)"/>
<path d="M0 0 C0.99 0 1.98 0 3 0 C3 2.31 3 4.62 3 7 C0.69 7 -1.62 7 -4 7 C-4 6.67 -4 6.34 -4 6 C-2.02 6 -0.04 6 2 6 C2 5.34 2 4.68 2 4 C1.34 4 0.68 4 0 4 C0 2.68 0 1.36 0 0 Z " fill="#474CAE" transform="translate(184,186)"/>
<path d="M0 0 C1.65 0 3.3 0 5 0 C5 1.32 5 2.64 5 4 C3.35 4 1.7 4 0 4 C0 2.68 0 1.36 0 0 Z " fill="#DCDCDC" transform="translate(278,160)"/>
<path d="M0 0 C1.32 0 2.64 0 4 0 C4 1.65 4 3.3 4 5 C2.68 5 1.36 5 0 5 C0 3.35 0 1.7 0 0 Z " fill="#DBDCE5" transform="translate(304,134)"/>
<path d="M0 0 C1.32 0 2.64 0 4 0 C4 1.65 4 3.3 4 5 C2.68 5 1.36 5 0 5 C0 3.35 0 1.7 0 0 Z " fill="#E0E0E0" transform="translate(144,124)"/>
<path d="M0 0 C1.32 0 2.64 0 4 0 C4 1.65 4 3.3 4 5 C2.68 5 1.36 5 0 5 C0 3.35 0 1.7 0 0 Z " fill="#DDDDDD" transform="translate(93,124)"/>
<path d="M0 0 C1.65 0 3.3 0 5 0 C5 1.32 5 2.64 5 4 C3.35 4 1.7 4 0 4 C0 2.68 0 1.36 0 0 Z " fill="#E0DCDB" transform="translate(343,115)"/>
<path d="M0 0 C1.32 0 2.64 0 4 0 C4 1.65 4 3.3 4 5 C2.68 5 1.36 5 0 5 C0 3.35 0 1.7 0 0 Z " fill="#DDDDDD" transform="translate(154,114)"/>
</svg>
