<?xml version="1.0" encoding="UTF-8"?>
<svg version="1.1" xmlns="http://www.w3.org/2000/svg" width="348" height="348">
<path d="M0 0 C7.26 0 14.52 0 22 0 C22.495 10.395 22.495 10.395 23 21 C27.95 21 32.9 21 38 21 C38 28.26 38 35.52 38 43 C102.68 43 167.36 43 234 43 C234 35.74 234 28.48 234 21 C246.625 20.875 246.625 20.875 250 22 C250 14.74 250 7.48 250 0 C257.26 0 264.52 0 272 0 C272 6.93 272 13.86 272 21 C277.28 21.33 282.56 21.66 288 22 C289.08625607 29.24170716 288.75398048 35.71152198 288 43 C295.26 43 302.52 43 310 43 C310 75.67 310 108.34 310 142 C302.74 141.67 295.48 141.34 288 141 C288 148.26 288 155.52 288 163 C282.72 163 277.44 163 272 163 C272 175.54 272 188.08 272 201 C264.74 201 257.48 201 250 201 C250 188.46 250 175.92 250 163 C244.72 163 239.44 163 234 163 C234 155.74 234 148.48 234 141 C227.13359672 141.36844351 227.13359672 141.36844351 220.26782227 141.74829102 C219.41760498 141.79139404 218.5673877 141.83449707 217.69140625 141.87890625 C216.81685791 141.9260376 215.94230957 141.97316895 215.04125977 142.02172852 C213 142 213 142 212 141 C211.91138008 138.1883662 211.88477645 135.40141745 211.90234375 132.58984375 C211.90446617 131.32679161 211.90446617 131.32679161 211.90663147 130.03822327 C211.91224737 127.33794665 211.92480252 124.63775172 211.9375 121.9375 C211.94251295 120.11132932 211.94707621 118.28515734 211.95117188 116.45898438 C211.96137284 111.97259915 211.98094501 107.48639145 212 103 C201.605 103.495 201.605 103.495 191 104 C191 123.14 191 142.28 191 162 C201.395 162.495 201.395 162.495 212 163 C212 182.8 212 202.6 212 223 C205.07 223.33 198.14 223.66 191 224 C191.01160156 226.60132813 191.02320313 229.20265625 191.03515625 231.8828125 C191.042965 234.4147123 191.04903141 236.94661074 191.05493164 239.47851562 C191.05994651 241.23210251 191.06676002 242.98568524 191.07543945 244.73925781 C191.08763 247.2662865 191.09325688 249.79325968 191.09765625 252.3203125 C191.10281754 253.09867462 191.10797882 253.87703674 191.11329651 254.6789856 C191.1137272 258.9003949 190.8358664 262.84091388 190 267 C187.06243881 267.0269501 184.12512445 267.04681474 181.1875 267.0625 C180.35412109 267.07087891 179.52074219 267.07925781 178.66210938 267.08789062 C177.45844727 267.09272461 177.45844727 267.09272461 176.23046875 267.09765625 C175.12288208 267.10551147 175.12288208 267.10551147 173.99291992 267.11352539 C172 267 172 267 169 266 C169.00523682 267.145896 169.01047363 268.29179199 169.01586914 269.47241211 C169.03391717 273.70840682 169.04543128 277.94439812 169.05493164 282.18041992 C169.05997231 284.01668875 169.06680477 285.85295354 169.07543945 287.68920898 C169.08751672 290.32276401 169.09323081 292.95626616 169.09765625 295.58984375 C169.10281754 296.41588608 169.10797882 297.24192841 169.11329651 298.09300232 C169.11349205 300.06236368 169.06204152 302.03161614 169 304 C168.67 304.33 168.34 304.66 168 305 C161.07 305 154.14 305 147 305 C147 319.19 147 333.38 147 348 C139.74 348 132.48 348 125 348 C125 333.81 125 319.62 125 305 C118.07 305 111.14 305 104 305 C103 304 103 304 102.88647461 300.39819336 C102.88663375 298.79540144 102.89232937 297.1926044 102.90234375 295.58984375 C102.90446617 294.32679161 102.90446617 294.32679161 102.90663147 293.03822327 C102.91224737 290.33794665 102.92480252 287.63775172 102.9375 284.9375 C102.94251295 283.11132932 102.94707621 281.28515734 102.95117188 279.45898438 C102.96222196 274.97262458 102.97949721 270.48632616 103 266 C102.08976074 266.16298584 101.17952148 266.32597168 100.24169922 266.49389648 C96.51517658 267.07569204 92.88348461 267.10984525 89.125 267.0625 C88.43664062 267.05798828 87.74828125 267.05347656 87.0390625 267.04882812 C85.35933665 267.03716336 83.67965625 267.01923271 82 267 C81.08939636 257.37963172 80.87546191 247.84554258 80.9375 238.1875 C80.94253316 236.80143394 80.9470928 235.41536607 80.95117188 234.02929688 C80.96282037 230.68617859 80.98075 227.34308316 81 224 C70.605 223.505 70.605 223.505 60 223 C60 203.2 60 183.4 60 163 C66.93 162.67 73.86 162.34 81 162 C81 142.86 81 123.72 81 104 C74.07 103.67 67.14 103.34 60 103 C60 115.54 60 128.08 60 141 C57.54749907 142.22625047 56.15689565 142.03425355 53.4296875 141.87890625 C52.62257324 141.83580322 51.81545898 141.7927002 50.98388672 141.74829102 C49.9579541 141.68697998 48.93202148 141.62566895 47.875 141.5625 C44.61625 141.376875 41.3575 141.19125 38 141 C38 148.26 38 155.52 38 163 C32.72 163 27.44 163 22 163 C22 175.54 22 188.08 22 201 C14.74 201 7.48 201 0 201 C0 188.46 0 175.92 0 163 C-5.28 163 -10.56 163 -16 163 C-16.5898183 155.92218045 -17 149.1169066 -17 142 C-27.395 141.505 -27.395 141.505 -38 141 C-38 108.66 -38 76.32 -38 43 C-30.74 43 -23.48 43 -16 43 C-16.185625 41.02 -16.37125 39.04 -16.5625 37 C-16.97386675 31.77221421 -16.90919113 27.15208306 -16 22 C-10.72 21.67 -5.44 21.34 0 21 C0 14.07 0 7.14 0 0 Z " fill="#01017D" transform="translate(38,0)"/>
<path d="M0 0 C50.16 0 100.32 0 152 0 C152 7.26 152 14.52 152 22 C145.07 22 138.14 22 131 22 C130.67 28.93 130.34 35.86 130 43 C123.07 43 116.14 43 109 43 C109.03957157 48.22063275 109.03957157 48.22063275 109.09008789 53.44116211 C109.09723945 55.29433759 109.0502852 57.14749308 109 59 C108.67 59.33 108.34 59.66 108 60 C101.07 60 94.14 60 87 60 C87 81.45 87 102.9 87 125 C101.19 125 115.38 125 130 125 C131.14969136 147.99382716 131.14969136 147.99382716 130.5625 155.25 C130.376875 157.8075 130.19125 160.365 130 163 C123.07 163 116.14 163 109 163 C109.01160156 166.00867188 109.02320313 169.01734375 109.03515625 172.1171875 C109.0429493 175.02294815 109.04902465 177.92870764 109.05493164 180.83447266 C109.05996831 182.85791543 109.06679789 184.88135456 109.07543945 186.90478516 C109.08753412 189.80892843 109.09323488 192.71302369 109.09765625 195.6171875 C109.10281754 196.52556366 109.10797882 197.43393982 109.11329651 198.36984253 C109.11337204 199.21056305 109.11344757 200.05128357 109.11352539 200.91748047 C109.115746 201.65916473 109.11796661 202.400849 109.12025452 203.16500854 C109 205 109 205 108 207 C101.07 207 94.14 207 87 207 C87 219.21 87 231.42 87 244 C79.74 244 72.48 244 65 244 C65 231.79 65 219.58 65 207 C58.13387193 207.03958469 58.13387193 207.03958469 51.26782227 207.09008789 C49.99249634 207.09383423 49.99249634 207.09383423 48.69140625 207.09765625 C47.81685791 207.10289307 46.94230957 207.10812988 46.04125977 207.11352539 C44 207 44 207 43 206 C42.90731001 204.64905018 42.88252674 203.29332909 42.88647461 201.93920898 C42.88655014 201.07839218 42.88662567 200.21757538 42.88670349 199.33067322 C42.89186478 198.39526199 42.89702606 197.45985077 42.90234375 196.49609375 C42.9037587 195.54307877 42.90517365 194.59006378 42.90663147 193.60816956 C42.91224848 190.55124835 42.92480384 187.49439923 42.9375 184.4375 C42.94251281 182.37044376 42.94707609 180.30338638 42.95117188 178.23632812 C42.96222344 173.15752412 42.97949945 168.0787743 43 163 C42.36908447 163.00523682 41.73816895 163.01047363 41.08813477 163.01586914 C38.24626653 163.03657826 35.40441412 163.04964066 32.5625 163.0625 C31.56927734 163.07087891 30.57605469 163.07925781 29.55273438 163.08789062 C28.60849609 163.09111328 27.66425781 163.09433594 26.69140625 163.09765625 C25.81685791 163.10289307 24.94230957 163.10812988 24.04125977 163.11352539 C22 163 22 163 21 162 C20.90100439 160.19490627 20.87200849 158.38593072 20.87060547 156.578125 C20.86745331 155.42022461 20.86430115 154.26232422 20.86105347 153.06933594 C20.8630777 151.80895508 20.86510193 150.54857422 20.8671875 149.25 C20.86575241 147.32462402 20.86575241 147.32462402 20.86428833 145.36035156 C20.86281169 142.63996176 20.86496481 139.91960475 20.86962891 137.19921875 C20.87532619 133.70515331 20.87204701 130.21116467 20.86605644 126.71710205 C20.86158246 123.39472847 20.86471115 120.07237577 20.8671875 116.75 C20.86516327 115.48961914 20.86313904 114.22923828 20.86105347 112.93066406 C20.86420563 111.77276367 20.86735779 110.61486328 20.87060547 109.421875 C20.87140106 108.39674805 20.87219666 107.37162109 20.87301636 106.31542969 C21 104 21 104 22 103 C31.9 102.505 31.9 102.505 42 102 C42.33 82.86 42.66 63.72 43 44 C36.07 43.67 29.14 43.34 22 43 C21.67 36.07 21.34 29.14 21 22 C14.07 22 7.14 22 0 22 C0 14.74 0 7.48 0 0 Z " fill="#027FFD" transform="translate(98,60)"/>
<path d="M0 0 C7.26 0 14.52 0 22 0 C22 66.33 22 132.66 22 201 C14.74 201 7.48 201 0 201 C0 188.46 0 175.92 0 163 C-5.28 163 -10.56 163 -16 163 C-16.5898183 155.92218045 -17 149.1169066 -17 142 C-27.395 141.505 -27.395 141.505 -38 141 C-38 108.66 -38 76.32 -38 43 C-30.74 43 -23.48 43 -16 43 C-16.185625 41.02 -16.37125 39.04 -16.5625 37 C-16.97386675 31.77221421 -16.90919113 27.15208306 -16 22 C-10.72 21.67 -5.44 21.34 0 21 C0 14.07 0 7.14 0 0 Z " fill="#0002F7" transform="translate(38,0)"/>
<path d="M0 0 C7.26 0 14.52 0 22 0 C22 6.93 22 13.86 22 21 C27.28 21.33 32.56 21.66 38 22 C39.08625607 29.24170716 38.75398048 35.71152198 38 43 C45.26 43 52.52 43 60 43 C60 75.67 60 108.34 60 142 C52.74 141.67 45.48 141.34 38 141 C38 148.26 38 155.52 38 163 C32.72 163 27.44 163 22 163 C22 175.54 22 188.08 22 201 C14.74 201 7.48 201 0 201 C0 134.67 0 68.34 0 0 Z " fill="#0002F7" transform="translate(288,0)"/>
<path d="M0 0 C7.26 0.33 14.52 0.66 22 1 C22 22.45 22 43.9 22 66 C7.81 66 -6.38 66 -21 66 C-21 71.28 -21 76.56 -21 82 C14.97 82 50.94 82 88 82 C87.67 89.26 87.34 96.52 87 104 C80.07 104 73.14 104 66 104 C66.01160156 107.00867188 66.02320313 110.01734375 66.03515625 113.1171875 C66.0429493 116.02294815 66.04902465 118.92870764 66.05493164 121.83447266 C66.05996831 123.85791543 66.06679789 125.88135456 66.07543945 127.90478516 C66.08753412 130.80892843 66.09323488 133.71302369 66.09765625 136.6171875 C66.10281754 137.52556366 66.10797882 138.43393982 66.11329651 139.36984253 C66.11337204 140.21056305 66.11344757 141.05128357 66.11352539 141.91748047 C66.115746 142.65916473 66.11796661 143.400849 66.12025452 144.16500854 C66 146 66 146 65 148 C58.07 148 51.14 148 44 148 C44 160.21 44 172.42 44 185 C36.74 185 29.48 185 22 185 C22 172.79 22 160.58 22 148 C15.13387193 148.03958469 15.13387193 148.03958469 8.26782227 148.09008789 C6.99249634 148.09383423 6.99249634 148.09383423 5.69140625 148.09765625 C4.81685791 148.10289307 3.94230957 148.10812988 3.04125977 148.11352539 C1 148 1 148 0 147 C-0.09268999 145.64905018 -0.11747326 144.29332909 -0.11352539 142.93920898 C-0.11344986 142.07839218 -0.11337433 141.21757538 -0.11329651 140.33067322 C-0.10813522 139.39526199 -0.10297394 138.45985077 -0.09765625 137.49609375 C-0.0962413 136.54307877 -0.09482635 135.59006378 -0.09336853 134.60816956 C-0.08775152 131.55124835 -0.07519616 128.49439923 -0.0625 125.4375 C-0.05748719 123.37044376 -0.05292391 121.30338638 -0.04882812 119.23632812 C-0.03777656 114.15752412 -0.02050055 109.0787743 0 104 C-0.63091553 104.00523682 -1.26183105 104.01047363 -1.91186523 104.01586914 C-4.75373347 104.03657826 -7.59558588 104.04964066 -10.4375 104.0625 C-11.92733398 104.07506836 -11.92733398 104.07506836 -13.44726562 104.08789062 C-14.39150391 104.09111328 -15.33574219 104.09433594 -16.30859375 104.09765625 C-17.18314209 104.10289307 -18.05769043 104.10812988 -18.95874023 104.11352539 C-21 104 -21 104 -22 103 C-22.09899561 101.19490627 -22.12799151 99.38593072 -22.12939453 97.578125 C-22.13254669 96.42022461 -22.13569885 95.26232422 -22.13894653 94.06933594 C-22.1369223 92.80895508 -22.13489807 91.54857422 -22.1328125 90.25 C-22.13424759 88.32462402 -22.13424759 88.32462402 -22.13571167 86.36035156 C-22.13718831 83.63996176 -22.13503519 80.91960475 -22.13037109 78.19921875 C-22.12467381 74.70515331 -22.12795299 71.21116467 -22.13394356 67.71710205 C-22.13841754 64.39472847 -22.13528885 61.07237577 -22.1328125 57.75 C-22.13483673 56.48961914 -22.13686096 55.22923828 -22.13894653 53.93066406 C-22.13579437 52.77276367 -22.13264221 51.61486328 -22.12939453 50.421875 C-22.12820114 48.88418457 -22.12820114 48.88418457 -22.12698364 47.31542969 C-22 45 -22 45 -21 44 C-11.1 43.505 -11.1 43.505 -1 43 C-0.67 28.81 -0.34 14.62 0 0 Z " fill="#0001F9" transform="translate(141,119)"/>
<path d="M0 0 C10.89 0.495 10.89 0.495 22 1 C22 20.8 22 40.6 22 61 C11.605 61.495 11.605 61.495 1 62 C1.01160156 64.60132813 1.02320313 67.20265625 1.03515625 69.8828125 C1.042965 72.4147123 1.04903141 74.94661074 1.05493164 77.47851562 C1.05994651 79.23210251 1.06676002 80.98568524 1.07543945 82.73925781 C1.08763 85.2662865 1.09325688 87.79325968 1.09765625 90.3203125 C1.10281754 91.09867462 1.10797882 91.87703674 1.11329651 92.6789856 C1.1137272 96.9003949 0.8358664 100.84091388 0 105 C-2.93756119 105.0269501 -5.87487555 105.04681474 -8.8125 105.0625 C-10.06256836 105.07506836 -10.06256836 105.07506836 -11.33789062 105.08789062 C-12.54155273 105.09272461 -12.54155273 105.09272461 -13.76953125 105.09765625 C-14.50792236 105.10289307 -15.24631348 105.10812988 -16.00708008 105.11352539 C-18 105 -18 105 -21 104 C-20.99476318 105.145896 -20.98952637 106.29179199 -20.98413086 107.47241211 C-20.96608283 111.70840682 -20.95456872 115.94439812 -20.94506836 120.18041992 C-20.94002769 122.01668875 -20.93319523 123.85295354 -20.92456055 125.68920898 C-20.91248328 128.32276401 -20.90676919 130.95626616 -20.90234375 133.58984375 C-20.89718246 134.41588608 -20.89202118 135.24192841 -20.88670349 136.09300232 C-20.88650795 138.06236368 -20.93795848 140.03161614 -21 142 C-21.33 142.33 -21.66 142.66 -22 143 C-28.93 143 -35.86 143 -43 143 C-43 157.19 -43 171.38 -43 186 C-50.26 186 -57.52 186 -65 186 C-65 171.81 -65 157.62 -65 143 C-71.93 143 -78.86 143 -86 143 C-87 142 -87 142 -87.11352539 138.39819336 C-87.11336625 136.79540144 -87.10767063 135.1926044 -87.09765625 133.58984375 C-87.0962413 132.74780899 -87.09482635 131.90577423 -87.09336853 131.03822327 C-87.08775263 128.33794665 -87.07519748 125.63775172 -87.0625 122.9375 C-87.05748705 121.11132932 -87.05292379 119.28515734 -87.04882812 117.45898438 C-87.03862716 112.97259915 -87.01905499 108.48639145 -87 104 C-79.74 104.33 -72.48 104.66 -65 105 C-65 117.21 -65 129.42 -65 142 C-57.74 142 -50.48 142 -43 142 C-43 129.79 -43 117.58 -43 105 C-36.07 105 -29.14 105 -22 105 C-22.01160156 103.41574219 -22.02320313 101.83148438 -22.03515625 100.19921875 C-22.10069165 87.08292338 -21.82464012 74.09116183 -21 61 C-14.07 61 -7.14 61 0 61 C0 40.87 0 20.74 0 0 Z " fill="#00027C" transform="translate(228,162)"/>
<path d="M0 0 C7.26 0 14.52 0 22 0 C22 59.07 22 118.14 22 179 C14.74 179 7.48 179 0 179 C0 119.93 0 60.86 0 0 Z " fill="#027FFD" transform="translate(288,22)"/>
<path d="M0 0 C7.26 0 14.52 0 22 0 C22 59.07 22 118.14 22 179 C14.74 179 7.48 179 0 179 C0 119.93 0 60.86 0 0 Z " fill="#0081FD" transform="translate(38,22)"/>
<path d="M0 0 C0.20927429 2.39772034 0.20927429 2.39772034 0.15112305 5.44360352 C0.13417892 6.58140762 0.1172348 7.71921173 0.09977722 8.89149475 C0.07071793 10.12484055 0.04165863 11.35818634 0.01171875 12.62890625 C-0.01093552 13.88887924 -0.03358978 15.14885223 -0.05693054 16.44700623 C-0.10696236 19.11455417 -0.1608477 21.7816797 -0.22143555 24.44897461 C-0.29903285 27.8744575 -0.36336938 31.30002531 -0.42309284 34.72586155 C-0.48094463 37.98532213 -0.54720435 41.24460351 -0.61328125 44.50390625 C-0.63626785 45.73927628 -0.65925446 46.9746463 -0.68293762 48.24745178 C-0.70933823 49.38210373 -0.73573883 50.51675568 -0.76293945 51.68579102 C-0.78451614 52.69013687 -0.80609283 53.69448273 -0.82832336 54.72926331 C-1 57 -1 57 -2 58 C-11.9 58.495 -11.9 58.495 -22 59 C-22 78.14 -22 97.28 -22 117 C-15.07 117.33 -8.14 117.66 -1 118 C-1 132.19 -1 146.38 -1 161 C-5.77535612 161.79589269 -10.08611498 162.1228251 -14.875 162.0625 C-15.56335938 162.05798828 -16.25171875 162.05347656 -16.9609375 162.04882812 C-18.64066335 162.03716336 -20.32034375 162.01923271 -22 162 C-22.91060364 152.37963172 -23.12453809 142.84554258 -23.0625 133.1875 C-23.05746684 131.80143394 -23.0529072 130.41536607 -23.04882812 129.02929688 C-23.03717963 125.68617859 -23.01925 122.34308316 -23 119 C-29.93 118.67 -36.86 118.34 -44 118 C-44 98.2 -44 78.4 -44 58 C-33.605 57.505 -33.605 57.505 -23 57 C-23.00523682 55.52724609 -23.01047363 54.05449219 -23.01586914 52.53710938 C-23.0340284 47.05046196 -23.04547187 41.56381718 -23.05493164 36.07714844 C-23.05994692 33.70670118 -23.06676073 31.33625699 -23.07543945 28.96582031 C-23.08762813 25.55012247 -23.09325649 22.13446569 -23.09765625 18.71875 C-23.10539818 17.14015198 -23.10539818 17.14015198 -23.11329651 15.52966309 C-23.11371996 9.92087933 -22.83850436 4.54747521 -22 -1 C-18.70926338 -1.22531972 -15.41750581 -1.42735982 -12.125 -1.625 C-10.71927734 -1.72167969 -10.71927734 -1.72167969 -9.28515625 -1.8203125 C-8.38925781 -1.871875 -7.49335938 -1.9234375 -6.5703125 -1.9765625 C-5.74289551 -2.02893066 -4.91547852 -2.08129883 -4.06298828 -2.13525391 C-2 -2 -2 -2 0 0 Z " fill="#00007D" transform="translate(142,105)"/>
<path d="M0 0 C7.26 0.33 14.52 0.66 22 1 C22 22.45 22 43.9 22 66 C7.81 66 -6.38 66 -21 66 C-21 71.28 -21 76.56 -21 82 C14.97 82 50.94 82 88 82 C87.67 89.26 87.34 96.52 87 104 C72.81 104 58.62 104 44 104 C44 110.93 44 117.86 44 125 C43.34 125 42.68 125 42 125 C42 117.74 42 110.48 42 103 C44.73106511 102.08964496 46.29893239 101.87784287 49.10424805 101.88647461 C50.3351844 101.88658791 50.3351844 101.88658791 51.59098816 101.88670349 C52.47232925 101.89186478 53.35367035 101.89702606 54.26171875 101.90234375 C55.62040825 101.90446617 55.62040825 101.90446617 57.00654602 101.90663147 C59.90023091 101.91222999 62.79383849 101.92478219 65.6875 101.9375 C67.64908742 101.94251519 69.61067606 101.94707807 71.57226562 101.95117188 C76.38156418 101.96134813 81.19069553 101.98092387 86 102 C85.505 93.09 85.505 93.09 85 84 C50.35 83.67 15.7 83.34 -20 83 C-20 89.27 -20 95.54 -20 102 C-16.99132812 101.98839844 -13.98265625 101.97679687 -10.8828125 101.96484375 C-7.97705185 101.9570507 -5.07129236 101.95097535 -2.16552734 101.94506836 C-0.14208457 101.94003169 1.88135456 101.93320211 3.90478516 101.92456055 C6.80892843 101.91246588 9.71302369 101.90676512 12.6171875 101.90234375 C13.52556366 101.89718246 14.43393982 101.89202118 15.36984253 101.88670349 C16.21056305 101.88662796 17.05128357 101.88655243 17.91748047 101.88647461 C19.03000687 101.88314369 19.03000687 101.88314369 20.16500854 101.87974548 C22 102 22 102 24 103 C24 110.26 24 117.52 24 125 C23.34 125 22.68 125 22 125 C22 118.07 22 111.14 22 104 C18.90753906 104.01160156 15.81507813 104.02320313 12.62890625 104.03515625 C9.64705508 104.04294601 6.66520503 104.04902323 3.68334961 104.05493164 C1.60456844 104.05997288 -0.47420916 104.06680574 -2.55297852 104.07543945 C-5.53402586 104.08751422 -8.51502649 104.09323024 -11.49609375 104.09765625 C-12.89921059 104.10539818 -12.89921059 104.10539818 -14.33067322 104.11329651 C-15.62189842 104.11340981 -15.62189842 104.11340981 -16.93920898 104.11352539 C-17.70087875 104.115746 -18.46254852 104.11796661 -19.24729919 104.12025452 C-21 104 -21 104 -22 103 C-22.09899561 101.19490627 -22.12799151 99.38593072 -22.12939453 97.578125 C-22.13254669 96.42022461 -22.13569885 95.26232422 -22.13894653 94.06933594 C-22.1369223 92.80895508 -22.13489807 91.54857422 -22.1328125 90.25 C-22.13424759 88.32462402 -22.13424759 88.32462402 -22.13571167 86.36035156 C-22.13718831 83.63996176 -22.13503519 80.91960475 -22.13037109 78.19921875 C-22.12467381 74.70515331 -22.12795299 71.21116467 -22.13394356 67.71710205 C-22.13841754 64.39472847 -22.13528885 61.07237577 -22.1328125 57.75 C-22.13483673 56.48961914 -22.13686096 55.22923828 -22.13894653 53.93066406 C-22.13579437 52.77276367 -22.13264221 51.61486328 -22.12939453 50.421875 C-22.12820114 48.88418457 -22.12820114 48.88418457 -22.12698364 47.31542969 C-22 45 -22 45 -21 44 C-11.1 43.505 -11.1 43.505 -1 43 C-0.67 28.81 -0.34 14.62 0 0 Z " fill="#0000FC" transform="translate(141,119)"/>
<path d="M0 0 C4.95 0 9.9 0 15 0 C15 46.86 15 93.72 15 142 C9.72 142 4.44 142 -1 142 C-1.02311798 123.63315574 -1.04097871 105.26631645 -1.05181217 86.89946079 C-1.05697533 78.37201506 -1.06401841 69.84457851 -1.07543945 61.31713867 C-1.08538568 53.88733745 -1.09185328 46.45754287 -1.09408849 39.02773517 C-1.09539571 35.0912668 -1.09848221 31.15481747 -1.10573006 27.21835518 C-1.11248931 23.51746673 -1.11461716 19.81660525 -1.11310768 16.11571121 C-1.11351638 14.10129198 -1.11891207 12.08687573 -1.12442017 10.07246399 C-1.1230455 8.8846936 -1.12167084 7.69692322 -1.12025452 6.47315979 C-1.12117631 5.4342991 -1.1220981 4.3954384 -1.12304783 3.32509708 C-1 1 -1 1 0 0 Z " fill="#0002F7" transform="translate(61,21)"/>
<path d="M0 0 C13 0 13 0 16 1 C16 47.53 16 94.06 16 142 C10.72 142 5.44 142 0 142 C0 95.14 0 48.28 0 0 Z " fill="#0001F8" transform="translate(272,21)"/>
<path d="M0 0 C7.26 0 14.52 0 22 0 C22 32.67 22 65.34 22 99 C14.74 98.67 7.48 98.34 0 98 C0 65.66 0 33.32 0 0 Z " fill="#00007E" transform="translate(326,43)"/>
<path d="M0 0 C7.26 0 14.52 0 22 0 C22 32.67 22 65.34 22 99 C14.74 98.67 7.48 98.34 0 98 C0 65.66 0 33.32 0 0 Z " fill="#00007E" transform="translate(0,43)"/>
<path d="M0 0 C7.26 0 14.52 0 22 0 C22 14.19 22 28.38 22 43 C28.93 43 35.86 43 43 43 C44 44 44 44 44.11352539 47.41821289 C44.11336628 48.93636988 44.10767226 50.45453229 44.09765625 51.97265625 C44.0962413 52.77029892 44.09482635 53.56794159 44.09336853 54.38975525 C44.08775316 56.94737435 44.07519812 59.50490718 44.0625 62.0625 C44.05748698 63.79231645 44.05292373 65.52213426 44.04882812 67.25195312 C44.03777875 71.50133553 44.02050386 75.75065312 44 80 C43.67 80 43.34 80 43 80 C43 75.05 43 70.1 43 65 C28.81 65 14.62 65 0 65 C0 43.55 0 22.1 0 0 Z " fill="#0001FB" transform="translate(185,120)"/>
<path d="M0 0 C21.78 0 43.56 0 66 0 C66 7.26 66 14.52 66 22 C44.22 22 22.44 22 0 22 C0 14.74 0 7.48 0 0 Z " fill="#03F9FE" transform="translate(141,60)"/>
<path d="M0 0 C7.26 0 14.52 0 22 0 C22 19.8 22 39.6 22 60 C14.74 60 7.48 60 0 60 C0 40.2 0 20.4 0 0 Z " fill="#04F9FE" transform="translate(288,22)"/>
<path d="M0 0 C7.26 0 14.52 0 22 0 C22 19.8 22 39.6 22 60 C14.74 60 7.48 60 0 60 C0 40.2 0 20.4 0 0 Z " fill="#05F9FD" transform="translate(38,22)"/>
<path d="M0 0 C7.26 0 14.52 0 22 0 C22 12.54 22 25.08 22 38 C14.74 38 7.48 38 0 38 C0 25.46 0 12.92 0 0 Z " fill="#01FEFE" transform="translate(163,266)"/>
<path d="M0 0 C7.26 0 14.52 0 22 0 C22 12.54 22 25.08 22 38 C14.74 38 7.48 38 0 38 C0 25.46 0 12.92 0 0 Z " fill="#01017A" transform="translate(288,163)"/>
<path d="M0 0 C7.26 0 14.52 0 22 0 C22 12.54 22 25.08 22 38 C14.74 38 7.48 38 0 38 C0 25.46 0 12.92 0 0 Z " fill="#01017A" transform="translate(38,163)"/>
<path d="M0 0 C7.26 0 14.52 0 22 0 C22 7.26 22 14.52 22 22 C14.74 22 7.48 22 0 22 C0 28.93 0 35.86 0 43 C-5.28 43 -10.56 43 -16 43 C-16.67963716 35.75053698 -17.26613203 29.17474817 -16 22 C-10.72 21.67 -5.44 21.34 0 21 C0 14.07 0 7.14 0 0 Z " fill="#01037C" transform="translate(38,0)"/>
<path d="M0 0 C7.26 0 14.52 0 22 0 C22 6.93 22 13.86 22 21 C27.28 21.33 32.56 21.66 38 22 C39.08625607 29.24170716 38.75398048 35.71152198 38 43 C32.72 43 27.44 43 22 43 C22 36.07 22 29.14 22 22 C14.74 22 7.48 22 0 22 C0 14.74 0 7.48 0 0 Z " fill="#01037C" transform="translate(288,0)"/>
<path d="M0 0 C7.26 0.33 14.52 0.66 22 1 C22 22.45 22 43.9 22 66 C7.81 66 -6.38 66 -21 66 C-21 71.28 -21 76.56 -21 82 C14.97 82 50.94 82 88 82 C87.67 89.26 87.34 96.52 87 104 C72.81 104 58.62 104 44 104 C44 110.93 44 117.86 44 125 C43.34 125 42.68 125 42 125 C42 117.74 42 110.48 42 103 C44.73106511 102.08964496 46.29893239 101.87784287 49.10424805 101.88647461 C50.3351844 101.88658791 50.3351844 101.88658791 51.59098816 101.88670349 C52.47232925 101.89186478 53.35367035 101.89702606 54.26171875 101.90234375 C55.62040825 101.90446617 55.62040825 101.90446617 57.00654602 101.90663147 C59.90023091 101.91222999 62.79383849 101.92478219 65.6875 101.9375 C67.64908742 101.94251519 69.61067606 101.94707807 71.57226562 101.95117188 C76.38156418 101.96134813 81.19069553 101.98092387 86 102 C85.505 93.09 85.505 93.09 85 84 C50.35 83.67 15.7 83.34 -20 83 C-20 89.27 -20 95.54 -20 102 C-16.99132812 101.98839844 -13.98265625 101.97679687 -10.8828125 101.96484375 C-7.97705185 101.9570507 -5.07129236 101.95097535 -2.16552734 101.94506836 C-0.14208457 101.94003169 1.88135456 101.93320211 3.90478516 101.92456055 C6.80892843 101.91246588 9.71302369 101.90676512 12.6171875 101.90234375 C13.52556366 101.89718246 14.43393982 101.89202118 15.36984253 101.88670349 C16.21056305 101.88662796 17.05128357 101.88655243 17.91748047 101.88647461 C19.03000687 101.88314369 19.03000687 101.88314369 20.16500854 101.87974548 C22 102 22 102 24 103 C24 110.26 24 117.52 24 125 C23.34 125 22.68 125 22 125 C22 118.07 22 111.14 22 104 C18.90753906 104.01160156 15.81507813 104.02320313 12.62890625 104.03515625 C9.64705508 104.04294601 6.66520503 104.04902323 3.68334961 104.05493164 C1.60456844 104.05997288 -0.47420916 104.06680574 -2.55297852 104.07543945 C-5.53402586 104.08751422 -8.51502649 104.09323024 -11.49609375 104.09765625 C-12.89921059 104.10539818 -12.89921059 104.10539818 -14.33067322 104.11329651 C-15.62189842 104.11340981 -15.62189842 104.11340981 -16.93920898 104.11352539 C-17.70087875 104.115746 -18.46254852 104.11796661 -19.24729919 104.12025452 C-21 104 -21 104 -22 103 C-22.09899561 101.19490627 -22.12799151 99.38593072 -22.12939453 97.578125 C-22.13254669 96.42022461 -22.13569885 95.26232422 -22.13894653 94.06933594 C-22.1369223 92.80895508 -22.13489807 91.54857422 -22.1328125 90.25 C-22.13424759 88.32462402 -22.13424759 88.32462402 -22.13571167 86.36035156 C-22.13718831 83.63996176 -22.13503519 80.91960475 -22.13037109 78.19921875 C-22.12467381 74.70515331 -22.12795299 71.21116467 -22.13394356 67.71710205 C-22.13841754 64.39472847 -22.13528885 61.07237577 -22.1328125 57.75 C-22.13483673 56.48961914 -22.13686096 55.22923828 -22.13894653 53.93066406 C-22.13579437 52.77276367 -22.13264221 51.61486328 -22.12939453 50.421875 C-22.12820114 48.88418457 -22.12820114 48.88418457 -22.12698364 47.31542969 C-22 45 -22 45 -21 44 C-11.1 43.505 -11.1 43.505 -1 43 C-0.67 28.81 -0.34 14.62 0 0 Z M2 2 C2 15.86 2 29.72 2 44 C1.34 44 0.68 44 0 44 C0 44.66 0 45.32 0 46 C-6.6 46 -13.2 46 -20 46 C-20 52.27 -20 58.54 -20 65 C-14.32164603 65.02290685 -8.64345119 65.04283457 -2.96508789 65.05493164 C-1.03181415 65.05997256 0.90145576 65.06680519 2.8347168 65.07543945 C5.60726872 65.08751565 8.37977041 65.09323057 11.15234375 65.09765625 C12.02213364 65.10281754 12.89192352 65.10797882 13.78807068 65.11329651 C15.85905814 65.11349185 17.92994324 65.06208168 20 65 C21.76723811 63.23276189 21.12762833 60.6968116 21.12939453 58.30273438 C21.13412277 56.47579041 21.13412277 56.47579041 21.13894653 54.61193848 C21.13715675 53.27254195 21.1351058 51.93314576 21.1328125 50.59375 C21.1334856 49.2299396 21.13445567 47.86612932 21.13571167 46.50231934 C21.13718838 43.64069479 21.13503497 40.7791014 21.13037109 37.91748047 C21.12467381 34.24181386 21.12795296 30.56622026 21.13394356 26.89055634 C21.13754991 24.07337896 21.13641025 21.25621902 21.13381577 18.43904114 C21.1331467 17.08339937 21.13397421 15.72775604 21.13629532 14.37211609 C21.13882301 12.48049956 21.13429014 10.58887751 21.12939453 8.69726562 C21.12859894 7.61884399 21.12780334 6.54042236 21.12698364 5.42932129 C21.27438546 3.0513082 21.27438546 3.0513082 20 2 C14.06 2 8.12 2 2 2 Z " fill="#0110DF" transform="translate(141,119)"/>
<path d="M0 0 C7.26 0 14.52 0 22 0 C22 7.26 22 14.52 22 22 C14.74 22 7.48 22 0 22 C0 14.74 0 7.48 0 0 Z " fill="#0CF1FD" transform="translate(141,223)"/>
<path d="M0 0 C7.26 0 14.52 0 22 0 C22 7.26 22 14.52 22 22 C14.74 22 7.48 22 0 22 C0 14.74 0 7.48 0 0 Z " fill="#0CF0FD" transform="translate(185,223)"/>
<path d="M0 0 C1.39456867 0.00574201 2.78910972 0.01875397 4.18359375 0.03515625 C6.63796875 0.05578125 9.09234375 0.07640625 11.62109375 0.09765625 C11.62109375 7.35765625 11.62109375 14.61765625 11.62109375 22.09765625 C6.34109375 22.09765625 1.06109375 22.09765625 -4.37890625 22.09765625 C-4.40573826 18.6184389 -4.42566295 15.13942586 -4.44140625 11.66015625 C-4.44978516 10.66693359 -4.45816406 9.67371094 -4.46679688 8.65039062 C-4.47001953 7.70615234 -4.47324219 6.76191406 -4.4765625 5.7890625 C-4.48179932 4.91451416 -4.48703613 4.03996582 -4.49243164 3.13891602 C-4.29828606 -0.35194686 -3.60712831 0.10425226 0 0 Z " fill="#010179" transform="translate(64.37890625,20.90234375)"/>
<path d="M0 0 C12.625 -0.125 12.625 -0.125 16 1 C16 7.93 16 14.86 16 22 C10.72 22 5.44 22 0 22 C0 14.74 0 7.48 0 0 Z " fill="#00017A" transform="translate(272,21)"/>
<path d="M0 0 C5.28 0 10.56 0 16 0 C16 6.93 16 13.86 16 21 C10.72 21 5.44 21 0 21 C-0.67963716 13.75053698 -1.26613203 7.17474817 0 0 Z " fill="#000080" transform="translate(22,142)"/>
<path d="M0 0 C5.28 0 10.56 0 16 0 C16 6.93 16 13.86 16 21 C10.72 21 5.44 21 0 21 C0 14.07 0 7.14 0 0 Z " fill="#01017A" transform="translate(310,142)"/>
<path d="M0 0 C5.28 0 10.56 0 16 0 C16 6.93 16 13.86 16 21 C10.72 21 5.44 21 0 21 C0 14.07 0 7.14 0 0 Z " fill="#00017A" transform="translate(272,142)"/>
<path d="M0 0 C5.28 0 10.56 0 16 0 C16 6.93 16 13.86 16 21 C10.72 21 5.44 21 0 21 C0 14.07 0 7.14 0 0 Z " fill="#00017A" transform="translate(60,142)"/>
<path d="M0 0 C7.26 0 14.52 0 22 0 C22 14.19 22 28.38 22 43 C28.93 43 35.86 43 43 43 C44 44 44 44 44.11352539 47.41821289 C44.11336628 48.93636988 44.10767226 50.45453229 44.09765625 51.97265625 C44.0962413 52.77029892 44.09482635 53.56794159 44.09336853 54.38975525 C44.08775316 56.94737435 44.07519812 59.50490718 44.0625 62.0625 C44.05748698 63.79231645 44.05292373 65.52213426 44.04882812 67.25195312 C44.03777875 71.50133553 44.02050386 75.75065312 44 80 C43.67 80 43.34 80 43 80 C43 75.05 43 70.1 43 65 C28.81 65 14.62 65 0 65 C0 43.55 0 22.1 0 0 Z M2 1 C1.38702896 5.90376833 0.87529157 10.12595739 0.88647461 14.95703125 C0.88655014 16.05756836 0.88662567 17.15810547 0.88670349 18.29199219 C0.89186478 19.45375977 0.89702606 20.61552734 0.90234375 21.8125 C0.9037587 23.02196289 0.90517365 24.23142578 0.90663147 25.47753906 C0.91220291 29.31838515 0.92475016 33.1591717 0.9375 37 C0.94251869 39.6132804 0.94708095 42.22656173 0.95117188 44.83984375 C0.96216298 51.22658261 0.97887257 57.61328705 1 64 C6.67830078 64.02464705 12.35657069 64.04283462 18.03491211 64.05493164 C19.96818585 64.05997256 21.90145576 64.06680519 23.8347168 64.07543945 C26.60726872 64.08751565 29.37977041 64.09323057 32.15234375 64.09765625 C33.02213364 64.10281754 33.89192352 64.10797882 34.78807068 64.11329651 C36.85905814 64.11349185 38.92994324 64.06208168 41 64 C42.20495909 63.01592689 42.20495909 63.01592689 42.11352539 61.14233398 C42.10828857 60.35157471 42.10305176 59.56081543 42.09765625 58.74609375 C42.09515869 57.9770874 42.09266113 57.20808105 42.09008789 56.41577148 C42.08098389 55.43294189 42.07187988 54.4501123 42.0625 53.4375 C42.041875 50.323125 42.02125 47.20875 42 44 C35.07 43.67 28.14 43.34 21 43 C20.505 22.21 20.505 22.21 20 1 C14.06 1 8.12 1 2 1 Z " fill="#020ADC" transform="translate(185,120)"/>
<path d="M0 0 C0.33 0 0.66 0 1 0 C1 26.07 1 52.14 1 79 C7.27 78.67 13.54 78.34 20 78 C20.33 52.59 20.66 27.18 21 1 C21.33 1 21.66 1 22 1 C22 27.4 22 53.8 22 81 C14.74 81 7.48 81 0 81 C0 54.27 0 27.54 0 0 Z " fill="#1372FA" transform="translate(38,82)"/>
<path d="M0 0 C7.26 0 14.52 0 22 0 C22 12.54 22 25.08 22 38 C14.74 38 7.48 38 0 38 C0 25.46 0 12.92 0 0 Z M1 3 C0.91152257 5.52094076 0.88472699 8.01430893 0.90234375 10.53515625 C0.9037587 11.28840683 0.90517365 12.04165741 0.90663147 12.81773376 C0.91224624 15.2326956 0.92480117 17.64756601 0.9375 20.0625 C0.9425131 21.69596221 0.94707634 23.32942586 0.95117188 24.96289062 C0.96137125 28.9753243 0.98094355 32.98755936 1 37 C7.27 37 13.54 37 20 37 C20 25.45 20 13.9 20 2 C15.5759375 1.9690625 15.5759375 1.9690625 11.0625 1.9375 C10.13187744 1.928396 9.20125488 1.91929199 8.24243164 1.90991211 C7.14983032 1.90616577 7.14983032 1.90616577 6.03515625 1.90234375 C5.2862915 1.89710693 4.53742676 1.89187012 3.76586914 1.88647461 C1.97332261 1.80658248 1.97332261 1.80658248 1 3 Z " fill="#27D9FE" transform="translate(163,266)"/>
<path d="M0 0 C0.33 0 0.66 0 1 0 C1.02529951 6.22964615 1.04284549 12.45927912 1.05493164 18.68896484 C1.05996872 20.80941259 1.06679859 22.92985685 1.07543945 25.05029297 C1.08753234 28.09343322 1.09323447 31.13652766 1.09765625 34.1796875 C1.10281754 35.13181122 1.10797882 36.08393494 1.11329651 37.06491089 C1.11340981 38.38605392 1.11340981 38.38605392 1.11352539 39.73388672 C1.115746 40.51110077 1.11796661 41.28831482 1.12025452 42.08908081 C1 44 1 44 0 46 C-6.6 46 -13.2 46 -20 46 C-19.9896875 48.54460937 -19.979375 51.08921875 -19.96875 53.7109375 C-19.95350619 64.02123195 -20.21212539 74.31947536 -20.5 84.625 C-20.54839723 86.42186908 -20.59657528 88.21874409 -20.64453125 90.015625 C-20.76050832 94.34382201 -20.87940162 98.6719294 -21 103 C-21.33 103 -21.66 103 -22 103 C-22.02312851 95.45501767 -22.04091769 87.91003899 -22.05181217 80.36502934 C-22.05703989 76.86191115 -22.0641355 73.35881715 -22.07543945 69.85571289 C-22.08834206 65.83219159 -22.09322912 61.80869586 -22.09765625 57.78515625 C-22.10539818 55.88987938 -22.10539818 55.88987938 -22.11329651 53.95631409 C-22.11337204 52.795186 -22.11344757 51.63405792 -22.11352539 50.43774414 C-22.11685631 48.8955294 -22.11685631 48.8955294 -22.12025452 47.32215881 C-22 45 -22 45 -21 44 C-11.1 43.505 -11.1 43.505 -1 43 C-0.67 28.81 -0.34 14.62 0 0 Z " fill="#0509C1" transform="translate(141,119)"/>
<path d="M0 0 C6.93 0 13.86 0 21 0 C21 0.33 21 0.66 21 1 C14.4 1 7.8 1 1 1 C1.33 19.48 1.66 37.96 2 57 C8.27 57.33 14.54 57.66 21 58 C23 60 23 60 23.1953125 62.1640625 C23.17210938 62.97617188 23.14890625 63.78828125 23.125 64.625 C23.10695313 65.44226563 23.08890625 66.25953125 23.0703125 67.1015625 C23.04710938 67.72804688 23.02390625 68.35453125 23 69 C22.01 69.495 22.01 69.495 21 70 C21 67.03 21 64.06 21 61 C14.07 60.67 7.14 60.34 0 60 C0 40.2 0 20.4 0 0 Z " fill="#05035F" transform="translate(98,163)"/>
<path d="M0 0 C0.33 0 0.66 0 1 0 C1.33 4.62 1.66 9.24 2 14 C8.6 14.33 15.2 14.66 22 15 C22 36.12 22 57.24 22 79 C21.67 79 21.34 79 21 79 C21 58.21 21 37.42 21 16 C14.07 16 7.14 16 0 16 C-1 15 -1 15 -1.1328125 11.875 C-1.13023437 10.59625 -1.12765625 9.3175 -1.125 8 C-1.12757813 6.72125 -1.13015625 5.4425 -1.1328125 4.125 C-1 1 -1 1 0 0 Z " fill="#166AFA" transform="translate(142,104)"/>
<path d="M0 0 C0.33 0 0.66 0 1 0 C1.02464928 5.25105442 1.04283568 10.50207545 1.05493164 15.75317383 C1.05997218 17.54094021 1.06680454 19.32870245 1.07543945 21.11645508 C1.0875173 23.68051168 1.09323094 26.24451397 1.09765625 28.80859375 C1.10281754 29.6127623 1.10797882 30.41693085 1.11329651 31.24546814 C1.11349215 33.16401715 1.06201983 35.08245368 1 37 C0 38 0 38 -1.94946289 38.11352539 C-3.1984436 38.10567017 -3.1984436 38.10567017 -4.47265625 38.09765625 C-5.37177734 38.09443359 -6.27089844 38.09121094 -7.19726562 38.08789062 C-8.61555664 38.07532227 -8.61555664 38.07532227 -10.0625 38.0625 C-11.01189453 38.05798828 -11.96128906 38.05347656 -12.93945312 38.04882812 C-15.29303065 38.0370011 -17.64648477 38.02052025 -20 38 C-20 37.34 -20 36.68 -20 36 C-13.73 36 -7.46 36 -1 36 C-1.01160156 33.82019531 -1.02320313 31.64039063 -1.03515625 29.39453125 C-1.04296488 27.27303208 -1.04903136 25.15153453 -1.05493164 23.0300293 C-1.05994669 21.56062091 -1.06676033 20.09121748 -1.07543945 18.62182617 C-1.08762928 16.50438205 -1.09325669 14.38700417 -1.09765625 12.26953125 C-1.10289307 10.99698486 -1.10812988 9.72443848 -1.11352539 8.41333008 C-1.01539606 5.4629081 -0.69063835 2.86053325 0 0 Z " fill="#03035F" transform="translate(206,267)"/>
<path d="M0 0 C2.39629455 3.59444183 2.25781331 6.14861652 2.1953125 10.29296875 C2.1924826 10.99899734 2.18965271 11.70502594 2.18673706 12.43244934 C2.17555464 14.68430633 2.1504542 16.93576352 2.125 19.1875 C2.11496767 20.71548904 2.10584226 22.24348433 2.09765625 23.77148438 C2.07732428 27.51460033 2.03817373 31.2568534 2 35 C7.94 35 13.88 35 20 35 C20 35.66 20 36.32 20 37 C16.85418577 37.02888514 13.70840531 37.04675923 10.5625 37.0625 C9.66466797 37.07087891 8.76683594 37.07925781 7.84179688 37.08789062 C6.56079102 37.09272461 6.56079102 37.09272461 5.25390625 37.09765625 C4.46314697 37.10289307 3.6723877 37.10812988 2.85766602 37.11352539 C1 37 1 37 0 36 C-0.08855161 33.3337397 -0.11524673 30.69352886 -0.09765625 28.02734375 C-0.0962413 27.22970108 -0.09482635 26.43205841 -0.09336853 25.61024475 C-0.08775316 23.05262565 -0.07519812 20.49509282 -0.0625 17.9375 C-0.05748698 16.20768355 -0.05292373 14.47786574 -0.04882812 12.74804688 C-0.03777875 8.49866447 -0.02050386 4.24934688 0 0 Z " fill="#060562" transform="translate(141,268)"/>
<path d="M0 0 C0.66 0 1.32 0 2 0 C2.02480683 5.01708622 2.04291052 10.03413635 2.05493164 15.05126953 C2.05994564 16.75635399 2.0667585 18.46143418 2.07543945 20.16650391 C2.08763385 22.62403419 2.09325775 25.08150738 2.09765625 27.5390625 C2.10281754 28.29555084 2.10797882 29.05203918 2.11329651 29.83145142 C2.11374266 34.08614892 1.70833926 37.74996444 1 42 C-4.94 42 -10.88 42 -17 42 C-17 41.67 -17 41.34 -17 41 C-8.585 40.505 -8.585 40.505 0 40 C0 39.01 0 38.02 0 37 C-0.99 37 -1.98 37 -3 37 C-3 35.68 -3 34.36 -3 33 C-2.01 32.505 -2.01 32.505 -1 32 C-0.67 21.44 -0.34 10.88 0 0 Z " fill="#030261" transform="translate(227,225)"/>
<path d="M0 0 C0.33 0 0.66 0 1 0 C1 11.88 1 23.76 1 36 C0.67 36 0.34 36 0 36 C0 31.05 0 26.1 0 21 C-14.19 21 -28.38 21 -43 21 C-43 18.03 -43 15.06 -43 12 C-42.67 12 -42.34 12 -42 12 C-42 14.64 -42 17.28 -42 20 C-36.32154468 19.88207014 -30.64327605 19.75784597 -24.96508789 19.62768555 C-23.03185815 19.58426959 -21.09858841 19.54259958 -19.1652832 19.50268555 C-16.39261798 19.44514369 -13.62015543 19.3814038 -10.84765625 19.31640625 C-9.97786636 19.29969376 -9.10807648 19.28298126 -8.21192932 19.26576233 C-4.28884034 19.54973787 -4.28884034 19.54973787 -1 18 C-0.84417697 16.65984779 -0.74955858 15.31241097 -0.68359375 13.96484375 C-0.62075195 12.75151367 -0.62075195 12.75151367 -0.55664062 11.51367188 C-0.51732422 10.66353516 -0.47800781 9.81339844 -0.4375 8.9375 C-0.37272461 7.65649414 -0.37272461 7.65649414 -0.30664062 6.34960938 C-0.20023298 4.23327963 -0.09958269 2.11666187 0 0 Z " fill="#0316CB" transform="translate(228,164)"/>
<path d="M0 0 C0.33 0 0.66 0 1 0 C1.02527124 6.24795675 1.04283344 12.49590041 1.05493164 18.74389648 C1.05997298 20.87118014 1.06680591 22.99846031 1.07543945 25.12573242 C1.08751379 28.17627826 1.09323014 31.22677845 1.09765625 34.27734375 C1.10281754 35.23462875 1.10797882 36.19191376 1.11329651 37.1782074 C1.11340981 38.49946373 1.11340981 38.49946373 1.11352539 39.84741211 C1.115746 40.62684677 1.11796661 41.40628143 1.12025452 42.20933533 C1 44 1 44 0 45 C-1.41570123 45.08651611 -2.835595 45.10704904 -4.25390625 45.09765625 C-5.10791016 45.09443359 -5.96191406 45.09121094 -6.84179688 45.08789062 C-7.73962891 45.07951172 -8.63746094 45.07113281 -9.5625 45.0625 C-10.46419922 45.05798828 -11.36589844 45.05347656 -12.29492188 45.04882812 C-14.53001314 45.03700225 -16.76497437 45.0205222 -19 45 C-19 44.34 -19 43.68 -19 43 C-13.06 43 -7.12 43 -1 43 C-0.67 28.81 -0.34 14.62 0 0 Z " fill="#000092" transform="translate(140,118)"/>
<path d="M0 0 C2.48681694 3.73979009 2.10546321 7.27627499 1.75 11.5625 C1.71003906 12.23474609 1.67007813 12.90699219 1.62890625 13.59960938 C1.36608886 17.17605678 1.03049014 18.9542648 -1 22 C-3.06298828 22.34057617 -3.06298828 22.34057617 -5.5703125 22.29296875 C-6.46621094 22.28330078 -7.36210937 22.27363281 -8.28515625 22.26367188 C-9.69087891 22.2259668 -9.69087891 22.2259668 -11.125 22.1875 C-12.06988281 22.17396484 -13.01476562 22.16042969 -13.98828125 22.14648438 C-16.32608779 22.11106306 -18.66276237 22.06167271 -21 22 C-21.33 21.34 -21.66 20.68 -22 20 C-15.07 20 -8.14 20 -1 20 C-1.03952742 14.16621309 -1.03952742 14.16621309 -1.09008789 8.33251953 C-1.09258545 7.60661621 -1.09508301 6.88071289 -1.09765625 6.1328125 C-1.10551147 5.01737061 -1.10551147 5.01737061 -1.11352539 3.87939453 C-1 2 -1 2 0 0 Z " fill="#000299" transform="translate(229,203)"/>
<path d="M0 0 C1.65322266 0.01740234 1.65322266 0.01740234 3.33984375 0.03515625 C4.99693359 0.04869141 4.99693359 0.04869141 6.6875 0.0625 C7.54214844 0.07410156 8.39679688 0.08570312 9.27734375 0.09765625 C8.49609375 2.05078125 8.49609375 2.05078125 7.27734375 4.09765625 C4.21559139 4.75374604 1.40512991 5.09765625 -1.72265625 5.09765625 C-2.05265625 10.37765625 -2.38265625 15.65765625 -2.72265625 21.09765625 C-3.05265625 21.09765625 -3.38265625 21.09765625 -3.72265625 21.09765625 C-3.75153771 17.78517438 -3.76941424 14.47272458 -3.78515625 11.16015625 C-3.79353516 10.21462891 -3.80191406 9.26910156 -3.81054688 8.29492188 C-3.81376953 7.39580078 -3.81699219 6.49667969 -3.8203125 5.5703125 C-3.82554932 4.73765869 -3.83078613 3.90500488 -3.83618164 3.04711914 C-3.6555465 -0.05475523 -3.13427484 0.11242019 0 0 Z " fill="#041492" transform="translate(231.72265625,80.90234375)"/>
<path d="M0 0 C0.33 0 0.66 0 1 0 C1 6.27 1 12.54 1 19 C2.7325 18.67 4.465 18.34 6.25 18 C9.64461639 17.3534064 12.52023497 17 16 17 C16 17.99 16 18.98 16 20 C10.72 20 5.44 20 0 20 C-1.28571429 6.14285714 -1.28571429 6.14285714 0 0 Z " fill="#030360" transform="translate(22,143)"/>
<path d="M0 0 C0.66 0 1.32 0 2 0 C1.34 1.32 0.68 2.64 0 4 C-6.6 3.67 -13.2 3.34 -20 3 C-20 8.94 -20 14.88 -20 21 C-20.33 21 -20.66 21 -21 21 C-21 14.73 -21 8.46 -21 2 C-19.56785156 1.93941406 -18.13570312 1.87882813 -16.66015625 1.81640625 C-14.79425959 1.73201896 -12.92837476 1.64737007 -11.0625 1.5625 C-10.11697266 1.52318359 -9.17144531 1.48386719 -8.19726562 1.44335938 C-7.29814453 1.40146484 -6.39902344 1.35957031 -5.47265625 1.31640625 C-4.64000244 1.27974854 -3.80734863 1.24309082 -2.94946289 1.20532227 C-0.99661142 1.20632897 -0.99661142 1.20632897 0 0 Z " fill="#0108EA" transform="translate(163,244)"/>
<path d="M0 0 C0.66 1.32 1.32 2.64 2 4 C-4.93 3.67 -11.86 3.34 -19 3 C-18.67 2.34 -18.34 1.68 -18 1 C-12.06 0.67 -6.12 0.34 0 0 Z " fill="#030265" transform="translate(346,138)"/>
<path d="M0 0 C6.93 0 13.86 0 21 0 C21 0.33 21 0.66 21 1 C14.73 1 8.46 1 2 1 C1.67 5.62 1.34 10.24 1 15 C0.34 14.67 -0.32 14.34 -1 14 C-1.02694851 12.04174127 -1.04637218 10.08337774 -1.0625 8.125 C-1.07410156 7.03445312 -1.08570313 5.94390625 -1.09765625 4.8203125 C-1 2 -1 2 0 0 Z " fill="#001E9E" transform="translate(207,103)"/>
<path d="M0 0 C0.99 0 1.98 0 3 0 C2.83701416 0.57073242 2.67402832 1.14146484 2.50610352 1.72949219 C1.99631481 4.01653267 1.88564032 5.98964456 1.90234375 8.328125 C1.90556641 9.12734375 1.90878906 9.9265625 1.91210938 10.75 C1.92048828 11.575 1.92886719 12.4 1.9375 13.25 C1.94201172 14.09046875 1.94652344 14.9309375 1.95117188 15.796875 C1.96292039 17.86461401 1.98085478 19.93231624 2 22 C1.34 22 0.68 22 0 22 C0 14.74 0 7.48 0 0 Z " fill="#010889" transform="translate(250,60)"/>
<path d="M0 0 C3.3 0 6.6 0 10 0 C9.34 1.32 8.68 2.64 8 4 C5.69 4 3.38 4 1 4 C0.67 2.68 0.34 1.36 0 0 Z " fill="#000988" transform="translate(99,81)"/>
<path d="M0 0 C2.97 0 5.94 0 9 0 C9 0.99 9 1.98 9 3 C6.36 3.33 3.72 3.66 1 4 C0.67 2.68 0.34 1.36 0 0 Z " fill="#000B8E" transform="translate(110,81)"/>
<path d="M0 0 C2.31 0 4.62 0 7 0 C7.33 0.66 7.66 1.32 8 2 C7.67 2.66 7.34 3.32 7 4 C4.69 3.34 2.38 2.68 0 2 C0 1.34 0 0.68 0 0 Z " fill="#000B8E" transform="translate(242,81)"/>
</svg>
