<?xml version="1.0" encoding="UTF-8"?>
<svg version="1.1" xmlns="http://www.w3.org/2000/svg" width="3600" height="3600">
<path d="M0 0 C214.5 0 429 0 650 0 C650 71.28 650 142.56 650 216 C792.56 216 935.12 216 1082 216 C1082 287.28 1082 358.56 1082 432 C1153.28 432 1224.56 432 1298 432 C1298 503.28 1298 574.56 1298 648 C1369.28 648 1440.56 648 1514 648 C1514 719.28 1514 790.56 1514 864 C1585.28 864 1656.56 864 1730 864 C1730 935.94 1730 1007.88 1730 1082 C1658.72 1082 1587.44 1082 1514 1082 C1514 1153.28 1514 1224.56 1514 1298 C1371.44 1298 1228.88 1298 1082 1298 C1082 1369.28 1082 1440.56 1082 1514 C868.16 1514 654.32 1514 434 1514 C434 1584.62 434 1655.24 434 1728 C647.84 1728 861.68 1728 1082 1728 C1082 1799.28 1082 1870.56 1082 1944 C1224.56 1944 1367.12 1944 1514 1944 C1514 2015.28 1514 2086.56 1514 2160 C1585.28 2160 1656.56 2160 1730 2160 C1730 2231.94 1730 2303.88 1730 2378 C1658.72 2378 1587.44 2378 1514 2378 C1514 2449.28 1514 2520.56 1514 2594 C1442.72 2594 1371.44 2594 1298 2594 C1298 2665.28 1298 2736.56 1298 2810 C1226.72 2810 1155.44 2810 1082 2810 C1082 2881.28 1082 2952.56 1082 3026 C939.44 3026 796.88 3026 650 3026 C650 3097.28 650 3168.56 650 3242 C435.5 3242 221 3242 0 3242 C0 3170.72 0 3099.44 0 3026 C-142.56 3026 -285.12 3026 -432 3026 C-432 2954.72 -432 2883.44 -432 2810 C-503.28 2810 -574.56 2810 -648 2810 C-648 2738.72 -648 2667.44 -648 2594 C-719.28 2594 -790.56 2594 -864 2594 C-864 2522.72 -864 2451.44 -864 2378 C-935.28 2378 -1006.56 2378 -1080 2378 C-1080 2235.44 -1080 2092.88 -1080 1946 C-1151.28 1946 -1222.56 1946 -1296 1946 C-1296 1731.5 -1296 1517 -1296 1296 C-1224.72 1296 -1153.44 1296 -1080 1296 C-1080 1153.44 -1080 1010.88 -1080 864 C-1008.72 864 -937.44 864 -864 864 C-864 792.72 -864 721.44 -864 648 C-792.72 648 -721.44 648 -648 648 C-648 576.72 -648 505.44 -648 432 C-576.72 432 -505.44 432 -432 432 C-432 360.72 -432 289.44 -432 216 C-289.44 216 -146.88 216 0 216 C0 144.72 0 73.44 0 0 Z " fill="#FEE93B" transform="translate(1583,215)"/>
<path d="M0 0 C214.5 0 429 0 650 0 C650 71.28 650 142.56 650 216 C792.56 216 935.12 216 1082 216 C1082 287.28 1082 358.56 1082 432 C1153.28 432 1224.56 432 1298 432 C1298 503.28 1298 574.56 1298 648 C1369.28 648 1440.56 648 1514 648 C1514 719.28 1514 790.56 1514 864 C1585.28 864 1656.56 864 1730 864 C1730 935.94 1730 1007.88 1730 1082 C1658.72 1082 1587.44 1082 1514 1082 C1514 1153.28 1514 1224.56 1514 1298 C1371.44 1298 1228.88 1298 1082 1298 C1082 1369.28 1082 1440.56 1082 1514 C868.16 1514 654.32 1514 434 1514 C434 1584.62 434 1655.24 434 1728 C647.84 1728 861.68 1728 1082 1728 C1082 1799.28 1082 1870.56 1082 1944 C1224.56 1944 1367.12 1944 1514 1944 C1514 2015.28 1514 2086.56 1514 2160 C1585.28 2160 1656.56 2160 1730 2160 C1730 2231.94 1730 2303.88 1730 2378 C1658.72 2378 1587.44 2378 1514 2378 C1514 2449.28 1514 2520.56 1514 2594 C1442.72 2594 1371.44 2594 1298 2594 C1298 2665.28 1298 2736.56 1298 2810 C1226.72 2810 1155.44 2810 1082 2810 C1082 2881.28 1082 2952.56 1082 3026 C939.44 3026 796.88 3026 650 3026 C650 3097.28 650 3168.56 650 3242 C435.5 3242 221 3242 0 3242 C0 3170.72 0 3099.44 0 3026 C-142.56 3026 -285.12 3026 -432 3026 C-432 2954.72 -432 2883.44 -432 2810 C-503.28 2810 -574.56 2810 -648 2810 C-648 2738.72 -648 2667.44 -648 2594 C-719.28 2594 -790.56 2594 -864 2594 C-864 2522.72 -864 2451.44 -864 2378 C-935.28 2378 -1006.56 2378 -1080 2378 C-1080 2235.44 -1080 2092.88 -1080 1946 C-1151.28 1946 -1222.56 1946 -1296 1946 C-1296 1731.5 -1296 1517 -1296 1296 C-1224.72 1296 -1153.44 1296 -1080 1296 C-1080 1153.44 -1080 1010.88 -1080 864 C-1008.72 864 -937.44 864 -864 864 C-864 792.72 -864 721.44 -864 648 C-792.72 648 -721.44 648 -648 648 C-648 576.72 -648 505.44 -648 432 C-576.72 432 -505.44 432 -432 432 C-432 360.72 -432 289.44 -432 216 C-289.44 216 -146.88 216 0 216 C0 144.72 0 73.44 0 0 Z M1 217 C1 288.28 1 359.56 1 433 C-141.56 433 -284.12 433 -431 433 C-431 504.28 -431 575.56 -431 649 C-502.28 649 -573.56 649 -647 649 C-647 720.28 -647 791.56 -647 865 C-718.28 865 -789.56 865 -863 865 C-863 1007.56 -863 1150.12 -863 1297 C-934.28 1297 -1005.56 1297 -1079 1297 C-1079 1510.84 -1079 1724.68 -1079 1945 C-1007.72 1945 -936.44 1945 -863 1945 C-863 2087.56 -863 2230.12 -863 2377 C-791.72 2377 -720.44 2377 -647 2377 C-647 2448.28 -647 2519.56 -647 2593 C-575.72 2593 -504.44 2593 -431 2593 C-431 2664.28 -431 2735.56 -431 2809 C-288.44 2809 -145.88 2809 1 2809 C1 2880.28 1 2951.56 1 3025 C214.84 3025 428.68 3025 649 3025 C649 2953.72 649 2882.44 649 2809 C791.56 2809 934.12 2809 1081 2809 C1081 2737.72 1081 2666.44 1081 2593 C1152.28 2593 1223.56 2593 1297 2593 C1297 2521.72 1297 2450.44 1297 2377 C1368.28 2377 1439.56 2377 1513 2377 C1513 2305.72 1513 2234.44 1513 2161 C1370.44 2161 1227.88 2161 1081 2161 C1081 2089.72 1081 2018.44 1081 1945 C867.16 1945 653.32 1945 433 1945 C433 1873.72 433 1802.44 433 1729 C290.44 1729 147.88 1729 1 1729 C1 1657.72 1 1586.44 1 1513 C143.56 1513 286.12 1513 433 1513 C433 1441.72 433 1370.44 433 1297 C646.84 1297 860.68 1297 1081 1297 C1081 1225.72 1081 1154.44 1081 1081 C1223.56 1081 1366.12 1081 1513 1081 C1513 1009.72 1513 938.44 1513 865 C1441.72 865 1370.44 865 1297 865 C1297 793.72 1297 722.44 1297 649 C1225.72 649 1154.44 649 1081 649 C1081 577.72 1081 506.44 1081 433 C938.44 433 795.88 433 649 433 C649 361.72 649 290.44 649 217 C435.16 217 221.32 217 1 217 Z " fill="#000000" transform="translate(1583,215)"/>
<path d="M0 0 C71.28 0 142.56 0 216 0 C216 71.28 216 142.56 216 216 C144.72 216 73.44 216 0 216 C0 144.72 0 73.44 0 0 Z " fill="#000000" transform="translate(1800,1080)"/>
</svg>
