<?xml version="1.0" encoding="UTF-8"?>
<svg version="1.1" xmlns="http://www.w3.org/2000/svg" width="200" height="200">
<path d="M0 0 C1.50046875 0.00386719 1.50046875 0.00386719 3.03125 0.0078125 C4.0315625 0.00523438 5.031875 0.00265625 6.0625 0 C8.53125 0.1328125 8.53125 0.1328125 9.53125 1.1328125 C9.61810603 2.69453995 9.63827219 4.26010594 9.62890625 5.82421875 C9.62407227 7.24057617 9.62407227 7.24057617 9.61914062 8.68554688 C9.60657227 10.17538086 9.60657227 10.17538086 9.59375 11.6953125 C9.58923828 12.69240234 9.58472656 13.68949219 9.58007812 14.71679688 C9.56825023 17.18882737 9.55031415 19.66082722 9.53125 22.1328125 C12.83125 22.1328125 16.13125 22.1328125 19.53125 22.1328125 C19.53125 14.8728125 19.53125 7.6128125 19.53125 0.1328125 C23.16125 0.1328125 26.79125 0.1328125 30.53125 0.1328125 C31.53125 1.1328125 31.53125 1.1328125 31.64477539 3.17407227 C31.63692017 4.48589478 31.63692017 4.48589478 31.62890625 5.82421875 C31.62640869 6.67443604 31.62391113 7.52465332 31.62133789 8.40063477 C31.61223389 9.48787842 31.60312988 10.57512207 31.59375 11.6953125 C31.573125 15.1396875 31.5525 18.5840625 31.53125 22.1328125 C42.42125 22.1328125 53.31125 22.1328125 64.53125 22.1328125 C64.53125 26.4228125 64.53125 30.7128125 64.53125 35.1328125 C60.90125 35.1328125 57.27125 35.1328125 53.53125 35.1328125 C53.53125 38.7628125 53.53125 42.3928125 53.53125 46.1328125 C49.90125 46.1328125 46.27125 46.1328125 42.53125 46.1328125 C42.53125 49.4328125 42.53125 52.7328125 42.53125 56.1328125 C46.16125 56.1328125 49.79125 56.1328125 53.53125 56.1328125 C53.53125 59.7628125 53.53125 63.3928125 53.53125 67.1328125 C60.79125 67.1328125 68.05125 67.1328125 75.53125 67.1328125 C75.53125 70.7628125 75.53125 74.3928125 75.53125 78.1328125 C83.12125 78.1328125 90.71125 78.1328125 98.53125 78.1328125 C98.53125 82.0928125 98.53125 86.0528125 98.53125 90.1328125 C94.57125 90.1328125 90.61125 90.1328125 86.53125 90.1328125 C86.86125 96.7328125 87.19125 103.3328125 87.53125 110.1328125 C91.16125 110.4628125 94.79125 110.7928125 98.53125 111.1328125 C98.53125 129.9428125 98.53125 148.7528125 98.53125 168.1328125 C94.90125 168.4628125 91.27125 168.7928125 87.53125 169.1328125 C87.20125 172.7628125 86.87125 176.3928125 86.53125 180.1328125 C82.88536831 180.15964237 79.23968154 180.17956819 75.59375 180.1953125 C74.55283203 180.20369141 73.51191406 180.21207031 72.43945312 180.22070312 C71.45009766 180.22392578 70.46074219 180.22714844 69.44140625 180.23046875 C68.52496338 180.23570557 67.60852051 180.24094238 66.66430664 180.24633789 C64.53125 180.1328125 64.53125 180.1328125 63.53125 179.1328125 C63.38814713 175.4636548 63.48903338 171.80565809 63.53125 168.1328125 C59.90125 168.1328125 56.27125 168.1328125 52.53125 168.1328125 C52.20125 149.9828125 51.87125 131.8328125 51.53125 113.1328125 C48.56125 113.1328125 45.59125 113.1328125 42.53125 113.1328125 C41.53125 112.1328125 41.53125 112.1328125 41.43359375 109.62890625 C41.44519531 108.61957031 41.45679687 107.61023438 41.46875 106.5703125 C41.47777344 105.55839844 41.48679687 104.54648438 41.49609375 103.50390625 C41.50769531 102.72144531 41.51929687 101.93898438 41.53125 101.1328125 C38.23125 101.1328125 34.93125 101.1328125 31.53125 101.1328125 C31.54285156 102.70933594 31.55445312 104.28585938 31.56640625 105.91015625 C31.57578243 107.96354049 31.58488282 110.016926 31.59375 112.0703125 C31.60212891 113.11123047 31.61050781 114.15214844 31.61914062 115.22460938 C31.62236328 116.21396484 31.62558594 117.20332031 31.62890625 118.22265625 C31.63414307 119.13909912 31.63937988 120.05554199 31.64477539 120.99975586 C31.53125 123.1328125 31.53125 123.1328125 30.53125 124.1328125 C26.90125 124.1328125 23.27125 124.1328125 19.53125 124.1328125 C19.53125 116.5428125 19.53125 108.9528125 19.53125 101.1328125 C16.23125 101.1328125 12.93125 101.1328125 9.53125 101.1328125 C9.54285156 102.70933594 9.55445312 104.28585938 9.56640625 105.91015625 C9.57578243 107.96354049 9.58488282 110.016926 9.59375 112.0703125 C9.60212891 113.11123047 9.61050781 114.15214844 9.61914062 115.22460938 C9.62236328 116.21396484 9.62558594 117.20332031 9.62890625 118.22265625 C9.63414307 119.13909912 9.63937988 120.05554199 9.64477539 120.99975586 C9.53125 123.1328125 9.53125 123.1328125 8.53125 124.1328125 C6.70009117 124.23132421 4.86505067 124.26253879 3.03125 124.2578125 C2.0309375 124.26039063 1.030625 124.26296875 0 124.265625 C-2.46875 124.1328125 -2.46875 124.1328125 -3.46875 123.1328125 C-3.55575342 121.49808368 -3.57576063 119.85967195 -3.56640625 118.22265625 C-3.56157227 116.73862305 -3.56157227 116.73862305 -3.55664062 115.22460938 C-3.54407227 113.66323242 -3.54407227 113.66323242 -3.53125 112.0703125 C-3.52673828 111.02552734 -3.52222656 109.98074219 -3.51757812 108.90429688 C-3.50574927 106.31377796 -3.48781319 103.72328828 -3.46875 101.1328125 C-6.76875 101.1328125 -10.06875 101.1328125 -13.46875 101.1328125 C-13.46875 104.7628125 -13.46875 108.3928125 -13.46875 112.1328125 C-18.41875 112.6278125 -18.41875 112.6278125 -23.46875 113.1328125 C-23.79875 131.2828125 -24.12875 149.4328125 -24.46875 168.1328125 C-28.09875 168.1328125 -31.72875 168.1328125 -35.46875 168.1328125 C-35.448125 169.9271875 -35.4275 171.7215625 -35.40625 173.5703125 C-35.3849378 175.42447372 -35.39648498 177.27993748 -35.46875 179.1328125 C-37.09075515 180.75481765 -38.88898031 180.26272 -41.125 180.265625 C-42.53458984 180.26755859 -42.53458984 180.26755859 -43.97265625 180.26953125 C-44.96136719 180.26566406 -45.95007813 180.26179687 -46.96875 180.2578125 C-47.95746094 180.26167969 -48.94617188 180.26554688 -49.96484375 180.26953125 C-51.37443359 180.26759766 -51.37443359 180.26759766 -52.8125 180.265625 C-53.68068359 180.26449707 -54.54886719 180.26336914 -55.44335938 180.26220703 C-57.46875 180.1328125 -57.46875 180.1328125 -58.46875 179.1328125 C-58.61185287 175.4636548 -58.51096662 171.80565809 -58.46875 168.1328125 C-62.09875 168.1328125 -65.72875 168.1328125 -69.46875 168.1328125 C-69.46875 149.3228125 -69.46875 130.5128125 -69.46875 111.1328125 C-65.83875 111.1328125 -62.20875 111.1328125 -58.46875 111.1328125 C-58.46875 104.2028125 -58.46875 97.2728125 -58.46875 90.1328125 C-62.09875 90.1328125 -65.72875 90.1328125 -69.46875 90.1328125 C-69.46875 86.1728125 -69.46875 82.2128125 -69.46875 78.1328125 C-62.20875 78.1328125 -54.94875 78.1328125 -47.46875 78.1328125 C-47.46875 74.5028125 -47.46875 70.8728125 -47.46875 67.1328125 C-40.20875 67.1328125 -32.94875 67.1328125 -25.46875 67.1328125 C-25.46875 63.5028125 -25.46875 59.8728125 -25.46875 56.1328125 C-21.83875 56.1328125 -18.20875 56.1328125 -14.46875 56.1328125 C-14.46875 52.8328125 -14.46875 49.5328125 -14.46875 46.1328125 C-18.09875 46.1328125 -21.72875 46.1328125 -25.46875 46.1328125 C-25.46875 42.5028125 -25.46875 38.8728125 -25.46875 35.1328125 C-29.09875 35.1328125 -32.72875 35.1328125 -36.46875 35.1328125 C-36.49561553 33.15371852 -36.51508375 31.17452279 -36.53125 29.1953125 C-36.54285156 28.09316406 -36.55445313 26.99101563 -36.56640625 25.85546875 C-36.46875 23.1328125 -36.46875 23.1328125 -35.46875 22.1328125 C-33.0930648 22.0444158 -30.74666326 22.01750945 -28.37109375 22.03515625 C-27.30780602 22.03727867 -27.30780602 22.03727867 -26.22303772 22.03944397 C-23.95073288 22.04505807 -21.67852525 22.05761287 -19.40625 22.0703125 C-17.86914204 22.07532569 -16.33203255 22.07988891 -14.79492188 22.08398438 C-11.01949358 22.09503208 -7.24413829 22.11230609 -3.46875 22.1328125 C-3.47398682 21.50189697 -3.47922363 20.87098145 -3.48461914 20.22094727 C-3.50532826 17.37907903 -3.51839066 14.53722662 -3.53125 11.6953125 C-3.53962891 10.70208984 -3.54800781 9.70886719 -3.55664062 8.68554688 C-3.55986328 7.74130859 -3.56308594 6.79707031 -3.56640625 5.82421875 C-3.57164307 4.94967041 -3.57687988 4.07512207 -3.58227539 3.17407227 C-3.41391549 0.14685267 -3.04034445 0.16356283 0 0 Z " fill="#059693" transform="translate(85.46875,9.8671875)"/>
<path d="M0 0 C3.63 0 7.26 0 11 0 C11 3.63 11 7.26 11 11 C18.26 11 25.52 11 33 11 C33 14.63 33 18.26 33 22 C40.59 22 48.18 22 56 22 C56 25.96 56 29.92 56 34 C52.04 34 48.08 34 44 34 C44.33 40.6 44.66 47.2 45 54 C48.63 54.33 52.26 54.66 56 55 C56 73.81 56 92.62 56 112 C52.37 112.33 48.74 112.66 45 113 C44.67 116.63 44.34 120.26 44 124 C40.35411831 124.02682987 36.70843154 124.04675569 33.0625 124.0625 C32.02158203 124.07087891 30.98066406 124.07925781 29.90820312 124.08789062 C28.42416992 124.09272461 28.42416992 124.09272461 26.91015625 124.09765625 C25.53549194 124.10551147 25.53549194 124.10551147 24.13305664 124.11352539 C22 124 22 124 21 123 C20.85689713 119.3308423 20.95778338 115.67284559 21 112 C17.37 112 13.74 112 10 112 C9.67 93.85 9.34 75.7 9 57 C6.03 57 3.06 57 0 57 C-1 56 -1 56 -1.08229065 53.75376892 C-1.06230515 52.76115555 -1.04231964 51.76854218 -1.02172852 50.74584961 C-1.00163223 49.62476303 -0.98153595 48.50367645 -0.96083069 47.34861755 C-0.93379562 46.1288472 -0.90676056 44.90907684 -0.87890625 43.65234375 C-0.85529526 42.41078018 -0.83168427 41.16921661 -0.80735779 39.89002991 C-0.7435734 36.58387917 -0.67538609 33.27787773 -0.60510254 29.97186279 C-0.5345003 26.6004542 -0.46963489 23.22893587 -0.40429688 19.85742188 C-0.27484411 13.23816418 -0.13905991 6.61906255 0 0 Z " fill="#079695" transform="translate(128,66)"/>
<path d="M0 0 C3.63 0 7.26 0 11 0 C11.33 18.48 11.66 36.96 12 56 C7.05 56.495 7.05 56.495 2 57 C1.67 75.15 1.34 93.3 1 112 C-2.63 112 -6.26 112 -10 112 C-9.979375 113.794375 -9.95875 115.58875 -9.9375 117.4375 C-9.9161878 119.29166122 -9.92773498 121.14712498 -10 123 C-11.62200515 124.62200515 -13.42023031 124.1299075 -15.65625 124.1328125 C-17.06583984 124.13474609 -17.06583984 124.13474609 -18.50390625 124.13671875 C-19.98697266 124.13091797 -19.98697266 124.13091797 -21.5 124.125 C-22.48871094 124.12886719 -23.47742188 124.13273437 -24.49609375 124.13671875 C-25.90568359 124.13478516 -25.90568359 124.13478516 -27.34375 124.1328125 C-28.21193359 124.13168457 -29.08011719 124.13055664 -29.97460938 124.12939453 C-32 124 -32 124 -33 123 C-33.14310287 119.3308423 -33.04221662 115.67284559 -33 112 C-36.63 112 -40.26 112 -44 112 C-44 93.19 -44 74.38 -44 55 C-40.37 55 -36.74 55 -33 55 C-33 48.07 -33 41.14 -33 34 C-36.63 34 -40.26 34 -44 34 C-44 30.04 -44 26.08 -44 22 C-36.74 22 -29.48 22 -22 22 C-22 18.37 -22 14.74 -22 11 C-14.74 11 -7.48 11 0 11 C0 7.37 0 3.74 0 0 Z " fill="#059795" transform="translate(60,66)"/>
<path d="M0 0 C7.59 0 15.18 0 23 0 C23 3.3 23 6.6 23 10 C25.97 10 28.94 10 32 10 C32 6.7 32 3.4 32 0 C39.92 0 47.84 0 56 0 C56 15.18 56 30.36 56 46 C52.37 45.67 48.74 45.34 45 45 C45.01160156 46.57652344 45.02320313 48.15304688 45.03515625 49.77734375 C45.04453243 51.83072799 45.05363282 53.8841135 45.0625 55.9375 C45.07087891 56.97841797 45.07925781 58.01933594 45.08789062 59.09179688 C45.09111328 60.08115234 45.09433594 61.07050781 45.09765625 62.08984375 C45.10289307 63.00628662 45.10812988 63.92272949 45.11352539 64.86694336 C45 67 45 67 44 68 C40.37 68 36.74 68 33 68 C33 60.41 33 52.82 33 45 C29.7 45 26.4 45 23 45 C23.01160156 46.57652344 23.02320312 48.15304688 23.03515625 49.77734375 C23.04453243 51.83072799 23.05363282 53.8841135 23.0625 55.9375 C23.07087891 56.97841797 23.07925781 58.01933594 23.08789062 59.09179688 C23.09272461 60.57583008 23.09272461 60.57583008 23.09765625 62.08984375 C23.10551147 63.46450806 23.10551147 63.46450806 23.11352539 64.86694336 C23 67 23 67 22 68 C20.16884117 68.09851171 18.33380067 68.12972629 16.5 68.125 C15.4996875 68.12757813 14.499375 68.13015625 13.46875 68.1328125 C11 68 11 68 10 67 C9.91299658 65.36527118 9.89298937 63.72685945 9.90234375 62.08984375 C9.90556641 61.10048828 9.90878906 60.11113281 9.91210938 59.09179688 C9.92048828 58.05087891 9.92886719 57.00996094 9.9375 55.9375 C9.94201172 54.89271484 9.94652344 53.84792969 9.95117188 52.77148438 C9.96300073 50.18096546 9.98093681 47.59047578 10 45 C6.7 45 3.4 45 0 45 C0 30.15 0 15.3 0 0 Z " fill="#FEFE01" transform="translate(72,66)"/>
<path d="M0 0 C7.59 0 15.18 0 23 0 C23 3.3 23 6.6 23 10 C25.97 10 28.94 10 32 10 C32 6.7 32 3.4 32 0 C39.92 0 47.84 0 56 0 C56 15.18 56 30.36 56 46 C52.37 45.67 48.74 45.34 45 45 C45.01160156 46.57652344 45.02320313 48.15304688 45.03515625 49.77734375 C45.04453243 51.83072799 45.05363282 53.8841135 45.0625 55.9375 C45.07087891 56.97841797 45.07925781 58.01933594 45.08789062 59.09179688 C45.09111328 60.08115234 45.09433594 61.07050781 45.09765625 62.08984375 C45.10289307 63.00628662 45.10812988 63.92272949 45.11352539 64.86694336 C45 67 45 67 44 68 C40.37 68 36.74 68 33 68 C33 60.41 33 52.82 33 45 C29.7 45 26.4 45 23 45 C23.01160156 46.57652344 23.02320312 48.15304688 23.03515625 49.77734375 C23.04453243 51.83072799 23.05363282 53.8841135 23.0625 55.9375 C23.07087891 56.97841797 23.07925781 58.01933594 23.08789062 59.09179688 C23.09272461 60.57583008 23.09272461 60.57583008 23.09765625 62.08984375 C23.10551147 63.46450806 23.10551147 63.46450806 23.11352539 64.86694336 C23 67 23 67 22 68 C20.16884117 68.09851171 18.33380067 68.12972629 16.5 68.125 C15.4996875 68.12757813 14.499375 68.13015625 13.46875 68.1328125 C11 68 11 68 10 67 C9.91299658 65.36527118 9.89298937 63.72685945 9.90234375 62.08984375 C9.90556641 61.10048828 9.90878906 60.11113281 9.91210938 59.09179688 C9.92048828 58.05087891 9.92886719 57.00996094 9.9375 55.9375 C9.94201172 54.89271484 9.94652344 53.84792969 9.95117188 52.77148438 C9.96300073 50.18096546 9.98093681 47.59047578 10 45 C6.7 45 3.4 45 0 45 C0 30.15 0 15.3 0 0 Z M1 2 C1 15.53 1 29.06 1 43 C18.16 43 35.32 43 53 43 C53 29.47 53 15.94 53 2 C47.06 2 41.12 2 35 2 C34.67 5.3 34.34 8.6 34 12 C30.04 12 26.08 12 22 12 C21.505 7.05 21.505 7.05 21 2 C14.4 2 7.8 2 1 2 Z " fill="#E8F62D" transform="translate(72,66)"/>
<path d="M0 0 C1.79158489 -0.02696365 3.58328473 -0.04637917 5.375 -0.0625 C6.37273437 -0.07410156 7.37046875 -0.08570312 8.3984375 -0.09765625 C11 0 11 0 13 1 C13 7.93 13 14.86 13 22 C15.97 22 18.94 22 22 22 C23 23 23 23 23.11352539 26.23461914 C23.11336631 27.66814126 23.10767407 29.10166912 23.09765625 30.53515625 C23.0962413 31.28840683 23.09482635 32.04165741 23.09336853 32.81773376 C23.08775376 35.2326956 23.07519883 37.64756601 23.0625 40.0625 C23.0574869 41.69596221 23.05292366 43.32942586 23.04882812 44.96289062 C23.03862875 48.9753243 23.01905645 52.98755936 23 57 C15.41 57 7.82 57 0 57 C0 49.74 0 42.48 0 35 C3.3 35 6.6 35 10 35 C10 31.7 10 28.4 10 25 C6.7 25 3.4 25 0 25 C-1.21445591 22.57108818 -1.12924198 20.99280557 -1.1328125 18.28125 C-1.13410156 17.34925781 -1.13539063 16.41726562 -1.13671875 15.45703125 C-1.13285156 14.48121094 -1.12898437 13.50539063 -1.125 12.5 C-1.12886719 11.52417969 -1.13273438 10.54835938 -1.13671875 9.54296875 C-1.13542969 8.61097656 -1.13414062 7.67898437 -1.1328125 6.71875 C-1.13168457 5.86216797 -1.13055664 5.00558594 -1.12939453 4.12304688 C-1 2 -1 2 0 0 Z " fill="#D44A08" transform="translate(150,109)"/>
<path d="M0 0 C0.33 1.32 0.66 2.64 1 4 C1.33 3.34 1.66 2.68 2 2 C2.99 2 3.98 2 5 2 C5.33 14.54 5.66 27.08 6 40 C13.59 40 21.18 40 29 40 C29.66 38.68 30.32 37.36 31 36 C31.66 35.34 32.32 34.68 33 34 C34.65 34 36.3 34 38 34 C38 26.74 38 19.48 38 12 C38.33 12 38.66 12 39 12 C39 24.21 39 36.42 39 49 C35.37 49.33 31.74 49.66 28 50 C28.020625 51.464375 28.04125 52.92875 28.0625 54.4375 C28.08392007 55.95832518 28.07179964 57.48071962 28 59 C27.67 59.33 27.34 59.66 27 60 C24.17301765 59.93514743 21.38209223 59.80823914 18.5625 59.625 C17.77294922 59.58117187 16.98339844 59.53734375 16.16992188 59.4921875 C10.2587008 59.1293504 10.2587008 59.1293504 8 58 C8 55.36 8 52.72 8 50 C4.04 49.67 0.08 49.34 -4 49 C-4.09887183 42.66459716 -4.17147073 36.3296433 -4.21972656 29.99365234 C-4.23984276 27.83829933 -4.26713925 25.68300089 -4.30175781 23.52783203 C-4.35027486 20.42987605 -4.37296873 17.33264154 -4.390625 14.234375 C-4.41127014 13.27070007 -4.43191528 12.30702515 -4.45318604 11.31414795 C-4.45544041 4.59385211 -4.45544041 4.59385211 -1.97558594 1.36035156 C-1.32364258 0.91143555 -0.67169922 0.46251953 0 0 Z " fill="#029796" transform="translate(21,128)"/>
<path d="M0 0 C3.3 0 6.6 0 10 0 C10 3.3 10 6.6 10 10 C13.96 10 17.92 10 22 10 C22 17.26 22 24.52 22 32 C14.74 32 7.48 32 0 32 C0 21.44 0 10.88 0 0 Z " fill="#D44A08" transform="translate(28,134)"/>
<path d="M0 0 C11 0 11 0 22 1 C22 8.59 22 16.18 22 24 C14.74 24 7.48 24 0 24 C0 16.08 0 8.16 0 0 Z " fill="#CC4C0D" transform="translate(72,32)"/>
<path d="M0 0 C1.23943359 -0.00386719 1.23943359 -0.00386719 2.50390625 -0.0078125 C4.4375 0.125 4.4375 0.125 5.4375 1.125 C5.52450342 2.75972882 5.54451063 4.39814055 5.53515625 6.03515625 C5.53193359 7.02451172 5.52871094 8.01386719 5.52539062 9.03320312 C5.51701172 10.07412109 5.50863281 11.11503906 5.5 12.1875 C5.49548828 13.23228516 5.49097656 14.27707031 5.48632812 15.35351562 C5.47449927 17.94403454 5.45656319 20.53452422 5.4375 23.125 C-1.4925 23.125 -8.4225 23.125 -15.5625 23.125 C-15.5625 15.865 -15.5625 8.605 -15.5625 1.125 C-4.17836314 -0.01341369 -4.17836314 -0.01341369 0 0 Z " fill="#D24B0A" transform="translate(121.5625,31.875)"/>
<path d="M0 0 C1.79158489 -0.02696365 3.58328473 -0.04637917 5.375 -0.0625 C6.37273437 -0.07410156 7.37046875 -0.08570312 8.3984375 -0.09765625 C11 0 11 0 13 1 C13 7.93 13 14.86 13 22 C15.97 22 18.94 22 22 22 C23 23 23 23 23.11352539 26.23461914 C23.11336631 27.66814126 23.10767407 29.10166912 23.09765625 30.53515625 C23.0962413 31.28840683 23.09482635 32.04165741 23.09336853 32.81773376 C23.08775376 35.2326956 23.07519883 37.64756601 23.0625 40.0625 C23.0574869 41.69596221 23.05292366 43.32942586 23.04882812 44.96289062 C23.03777954 48.97529585 23.02050506 52.98763241 23 57 C22.67 57 22.34 57 22 57 C22 46.44 22 35.88 22 25 C18.7 25 15.4 25 12 25 C12 28.3 12 31.6 12 35 C11.34 35 10.68 35 10 35 C10 31.7 10 28.4 10 25 C6.7 25 3.4 25 0 25 C-1.21445591 22.57108818 -1.12924198 20.99280557 -1.1328125 18.28125 C-1.13410156 17.34925781 -1.13539063 16.41726562 -1.13671875 15.45703125 C-1.13285156 14.48121094 -1.12898437 13.50539063 -1.125 12.5 C-1.12886719 11.52417969 -1.13273438 10.54835938 -1.13671875 9.54296875 C-1.13542969 8.61097656 -1.13414062 7.67898437 -1.1328125 6.71875 C-1.13168457 5.86216797 -1.13055664 5.00558594 -1.12939453 4.12304688 C-1 2 -1 2 0 0 Z " fill="#388271" transform="translate(150,109)"/>
<path d="M0 0 C2.58361518 -0.05407567 5.16609255 -0.093707 7.75 -0.125 C8.84441406 -0.15013672 8.84441406 -0.15013672 9.9609375 -0.17578125 C14.13521398 -0.21372922 16.16970546 0.08485273 20 2 C20 8.6 20 15.2 20 22 C16.7 22 13.4 22 10 22 C9.67 18.04 9.34 14.08 9 10 C6.03 10 3.06 10 0 10 C0 6.7 0 3.4 0 0 Z " fill="#039796" transform="translate(51,33)"/>
<path d="M0 0 C4.29 0 8.58 0 13 0 C13.02682987 3.64588169 13.04675569 7.29156846 13.0625 10.9375 C13.07087891 11.97841797 13.07925781 13.01933594 13.08789062 14.09179688 C13.09111328 15.08115234 13.09433594 16.07050781 13.09765625 17.08984375 C13.10289307 18.00628662 13.10812988 18.92272949 13.11352539 19.86694336 C13 22 13 22 12 23 C10.16884117 23.09851171 8.33380067 23.12972629 6.5 23.125 C5.4996875 23.12757813 4.499375 23.13015625 3.46875 23.1328125 C1 23 1 23 0 22 C-0.08700342 20.36527118 -0.10701063 18.72685945 -0.09765625 17.08984375 C-0.09443359 16.10048828 -0.09121094 15.11113281 -0.08789062 14.09179688 C-0.07951172 13.05087891 -0.07113281 12.00996094 -0.0625 10.9375 C-0.05798828 9.89271484 -0.05347656 8.84792969 -0.04882812 7.77148438 C-0.03699927 5.18096546 -0.01906319 2.59047578 0 0 Z " fill="#DC4802" transform="translate(82,111)"/>
<path d="M0 0 C6.6 0 13.2 0 20 0 C20 3.3 20 6.6 20 10 C16.37 10.33 12.74 10.66 9 11 C8.67 14.63 8.34 18.26 8 22 C5.36 22 2.72 22 0 22 C0 14.74 0 7.48 0 0 Z " fill="#029798" transform="translate(129,33)"/>
<path d="M0 0 C3.96 0 7.92 0 12 0 C12.02682987 3.64588169 12.04675569 7.29156846 12.0625 10.9375 C12.07087891 11.97841797 12.07925781 13.01933594 12.08789062 14.09179688 C12.09111328 15.08115234 12.09433594 16.07050781 12.09765625 17.08984375 C12.10289307 18.00628662 12.10812988 18.92272949 12.11352539 19.86694336 C12 22 12 22 11 23 C7.37 23 3.74 23 0 23 C0 15.41 0 7.82 0 0 Z " fill="#D44D0B" transform="translate(105,111)"/>
<path d="M0 0 C0.9075 0.00257812 1.815 0.00515625 2.75 0.0078125 C4.11125 0.00394531 4.11125 0.00394531 5.5 0 C7.75 0.1328125 7.75 0.1328125 8.75 1.1328125 C8.84899523 2.68236809 8.88079524 4.23634923 8.8828125 5.7890625 C8.88474609 7.19865234 8.88474609 7.19865234 8.88671875 8.63671875 C8.88285156 9.62542969 8.87898438 10.61414063 8.875 11.6328125 C8.87886719 12.62152344 8.88273437 13.61023438 8.88671875 14.62890625 C8.88542969 15.56863281 8.88414063 16.50835937 8.8828125 17.4765625 C8.88168457 18.34474609 8.88055664 19.21292969 8.87939453 20.10742188 C8.75 22.1328125 8.75 22.1328125 7.75 23.1328125 C5.89712498 23.20507752 4.04166122 23.2166247 2.1875 23.1953125 C1.17558594 23.18628906 0.16367187 23.17726562 -0.87890625 23.16796875 C-1.66136719 23.15636719 -2.44382813 23.14476562 -3.25 23.1328125 C-3.27887512 19.48699563 -3.29675585 15.84120787 -3.3125 12.1953125 C-3.32087891 11.15439453 -3.32925781 10.11347656 -3.33789062 9.04101562 C-3.34272461 7.55698242 -3.34272461 7.55698242 -3.34765625 6.04296875 C-3.35289307 5.12652588 -3.35812988 4.21008301 -3.36352539 3.26586914 C-3.20590071 0.30422013 -2.96205799 0.1748437 0 0 Z " fill="#A35C2D" transform="translate(41.25,109.8671875)"/>
<path d="M0 0 C3.63 0 7.26 0 11 0 C12 1 12 1 12.11352539 3.04125977 C12.10828857 3.91580811 12.10305176 4.79035645 12.09765625 5.69140625 C12.09443359 6.63564453 12.09121094 7.57988281 12.08789062 8.55273438 C12.07951172 9.54595703 12.07113281 10.53917969 12.0625 11.5625 C12.05798828 12.55958984 12.05347656 13.55667969 12.04882812 14.58398438 C12.03700023 17.05601487 12.01906415 19.52801472 12 22 C8.04 22 4.08 22 0 22 C0 14.74 0 7.48 0 0 Z " fill="#0D9494" transform="translate(105,10)"/>
<path d="M0 0 C1.093125 0.00257812 2.18625 0.00515625 3.3125 0.0078125 C4.405625 0.00523438 5.49875 0.00265625 6.625 0 C9.3125 0.1328125 9.3125 0.1328125 10.3125 1.1328125 C10.39976223 2.91352496 10.41949041 4.6976439 10.41015625 6.48046875 C10.40693359 7.56005859 10.40371094 8.63964844 10.40039062 9.75195312 C10.39201172 10.88826172 10.38363281 12.02457031 10.375 13.1953125 C10.37048828 14.33548828 10.36597656 15.47566406 10.36132812 16.65039062 C10.3494976 19.47788668 10.3315615 22.30535595 10.3125 25.1328125 C6.3525 25.1328125 2.3925 25.1328125 -1.6875 25.1328125 C-1.6875 28.1028125 -1.6875 31.0728125 -1.6875 34.1328125 C1.9425 34.1328125 5.5725 34.1328125 9.3125 34.1328125 C9.3125 34.4628125 9.3125 34.7928125 9.3125 35.1328125 C5.3525 35.1328125 1.3925 35.1328125 -2.6875 35.1328125 C-2.6875 31.8328125 -2.6875 28.5328125 -2.6875 25.1328125 C-5.9875 25.1328125 -9.2875 25.1328125 -12.6875 25.1328125 C-12.6875 35.6928125 -12.6875 46.2528125 -12.6875 57.1328125 C-5.4275 57.1328125 1.8325 57.1328125 9.3125 57.1328125 C9.3125 57.7928125 9.3125 58.4528125 9.3125 59.1328125 C1.7225 59.1328125 -5.8675 59.1328125 -13.6875 59.1328125 C-15.18294542 56.14192166 -14.85029298 53.06914064 -14.85546875 49.7890625 C-14.85879715 49.06416626 -14.86212555 48.33927002 -14.86555481 47.59240723 C-14.87061925 46.05916987 -14.87296328 44.52592149 -14.87280273 42.99267578 C-14.87499138 40.64206907 -14.89315751 38.29193001 -14.91210938 35.94140625 C-14.91504292 34.45312661 -14.91702798 32.96484473 -14.91796875 31.4765625 C-14.92515427 30.77132446 -14.93233978 30.06608643 -14.93974304 29.33947754 C-14.91632848 24.36164098 -14.91632848 24.36164098 -12.6875 22.1328125 C-10.5234375 21.9375 -10.5234375 21.9375 -8.0625 22.0078125 C-6.83660156 22.03488281 -6.83660156 22.03488281 -5.5859375 22.0625 C-4.64621094 22.09730469 -4.64621094 22.09730469 -3.6875 22.1328125 C-3.69273682 21.50189697 -3.69797363 20.87098145 -3.70336914 20.22094727 C-3.72407826 17.37907903 -3.73714066 14.53722662 -3.75 11.6953125 C-3.75837891 10.70208984 -3.76675781 9.70886719 -3.77539062 8.68554688 C-3.77861328 7.74130859 -3.78183594 6.79707031 -3.78515625 5.82421875 C-3.79039307 4.94967041 -3.79562988 4.07512207 -3.80102539 3.17407227 C-3.62598731 0.02677472 -3.17877783 0.15709077 0 0 Z M-2.6875 2.1328125 C-2.77450342 3.76754132 -2.79451063 5.40595305 -2.78515625 7.04296875 C-2.78193359 8.03232422 -2.77871094 9.02167969 -2.77539062 10.04101562 C-2.76701172 11.08193359 -2.75863281 12.12285156 -2.75 13.1953125 C-2.74548828 14.24009766 -2.74097656 15.28488281 -2.73632812 16.36132812 C-2.72449913 18.9518791 -2.70801689 21.54231809 -2.6875 24.1328125 C-0.87507948 24.15968529 0.93745233 24.17914965 2.75 24.1953125 C3.75933594 24.20691406 4.76867187 24.21851563 5.80859375 24.23046875 C8.25271067 24.41893926 8.25271067 24.41893926 9.3125 23.1328125 C9.41149523 21.58325691 9.44329524 20.02927577 9.4453125 18.4765625 C9.44660156 17.53683594 9.44789062 16.59710938 9.44921875 15.62890625 C9.44535156 14.64019531 9.44148438 13.65148437 9.4375 12.6328125 C9.44136719 11.64410156 9.44523437 10.65539062 9.44921875 9.63671875 C9.44728516 8.22712891 9.44728516 8.22712891 9.4453125 6.7890625 C9.44418457 5.92087891 9.44305664 5.05269531 9.44189453 4.15820312 C9.5366537 2.13677096 9.5366537 2.13677096 8.3125 1.1328125 C6.64820949 1.03457313 4.97968069 1.00307619 3.3125 1.0078125 C2.405 1.00523438 1.4975 1.00265625 0.5625 1 C-1.65716611 0.88107471 -1.65716611 0.88107471 -2.6875 2.1328125 Z " fill="#41816F" transform="translate(40.6875,108.8671875)"/>
<path d="M0 0 C0 6.93 0 13.86 0 21 C-3.63 21 -7.26 21 -11 21 C-11.08067765 17.87448801 -11.1403399 14.75104109 -11.1875 11.625 C-11.21263672 10.73554688 -11.23777344 9.84609375 -11.26367188 8.9296875 C-11.27333984 8.07890625 -11.28300781 7.228125 -11.29296875 6.3515625 C-11.3086792 5.56604004 -11.32438965 4.78051758 -11.34057617 3.97119141 C-11.22818604 3.32069824 -11.1157959 2.67020508 -11 2 C-8 0 -8 0 0 0 Z " fill="#059597" transform="translate(94,10)"/>
<path d="M0 0 C0.91644287 0.00523682 1.83288574 0.01047363 2.77709961 0.01586914 C3.66792236 0.0183667 4.55874512 0.02086426 5.4765625 0.0234375 C7.18573853 0.03709351 7.18573853 0.03709351 8.92944336 0.05102539 C14.34350586 0.08196289 14.34350586 0.08196289 19.86694336 0.11352539 C19.86694336 8.03352539 19.86694336 15.95352539 19.86694336 24.11352539 C27.12694336 24.11352539 34.38694336 24.11352539 41.86694336 24.11352539 C41.86694336 24.44352539 41.86694336 24.77352539 41.86694336 25.11352539 C34.60694336 25.11352539 27.34694336 25.11352539 19.86694336 25.11352539 C19.86694336 27.75352539 19.86694336 30.39352539 19.86694336 33.11352539 C27.12694336 33.11352539 34.38694336 33.11352539 41.86694336 33.11352539 C41.86694336 33.44352539 41.86694336 33.77352539 41.86694336 34.11352539 C34.60694336 34.11352539 27.34694336 34.11352539 19.86694336 34.11352539 C19.86694336 48.63352539 19.86694336 63.15352539 19.86694336 78.11352539 C19.53694336 78.11352539 19.20694336 78.11352539 18.86694336 78.11352539 C18.86694336 60.29352539 18.86694336 42.47352539 18.86694336 24.11352539 C15.23694336 24.11352539 11.60694336 24.11352539 7.86694336 24.11352539 C7.86694336 20.81352539 7.86694336 17.51352539 7.86694336 14.11352539 C8.19694336 14.11352539 8.52694336 14.11352539 8.86694336 14.11352539 C8.86694336 17.08352539 8.86694336 20.05352539 8.86694336 23.11352539 C12.16694336 23.11352539 15.46694336 23.11352539 18.86694336 23.11352539 C18.86694336 16.51352539 18.86694336 9.91352539 18.86694336 3.11352539 C14.75234322 2.08487536 10.82674472 1.77787864 6.61694336 1.55102539 C5.87186523 1.5078418 5.12678711 1.4646582 4.35913086 1.42016602 C2.52859436 1.31455814 0.6977916 1.21358338 -1.13305664 1.11352539 C-1.13305664 4.41352539 -1.13305664 7.71352539 -1.13305664 11.11352539 C1.83694336 11.11352539 4.80694336 11.11352539 7.86694336 11.11352539 C7.86694336 11.77352539 7.86694336 12.43352539 7.86694336 13.11352539 C4.23694336 13.11352539 0.60694336 13.11352539 -3.13305664 13.11352539 C-3.15992217 11.13443141 -3.1793904 9.15523568 -3.19555664 7.17602539 C-3.2071582 6.07387695 -3.21875977 4.97172852 -3.23071289 3.83618164 C-3.09903265 0.1649365 -3.09903265 0.1649365 0 0 Z " fill="#2D916E" transform="translate(52.133056640625,31.886474609375)"/>
<path d="M0 0 C1.51400391 0.01740234 1.51400391 0.01740234 3.05859375 0.03515625 C4.07050781 0.04417969 5.08242187 0.05320312 6.125 0.0625 C7.29869141 0.07990234 7.29869141 0.07990234 8.49609375 0.09765625 C8.49609375 0.42765625 8.49609375 0.75765625 8.49609375 1.09765625 C5.19609375 1.09765625 1.89609375 1.09765625 -1.50390625 1.09765625 C-1.50390625 8.35765625 -1.50390625 15.61765625 -1.50390625 23.09765625 C5.42609375 23.09765625 12.35609375 23.09765625 19.49609375 23.09765625 C19.00109375 11.71265625 19.00109375 11.71265625 18.49609375 0.09765625 C26.41609375 0.09765625 34.33609375 0.09765625 42.49609375 0.09765625 C42.49609375 4.38765625 42.49609375 8.67765625 42.49609375 13.09765625 C38.86609375 13.09765625 35.23609375 13.09765625 31.49609375 13.09765625 C31.49609375 16.72765625 31.49609375 20.35765625 31.49609375 24.09765625 C26.67228573 24.12230815 21.84851408 24.14049318 17.0246582 24.15258789 C15.38239911 24.15762799 13.74014452 24.16446003 12.09790039 24.1730957 C9.74233896 24.18517551 7.38683666 24.19088764 5.03125 24.1953125 C4.29270279 24.20047379 3.55415558 24.20563507 2.79322815 24.21095276 C1.02711287 24.21114875 -0.73887771 24.15960344 -2.50390625 24.09765625 C-4.15784742 22.44371508 -3.63390308 20.49450212 -3.63671875 18.22265625 C-3.63800781 17.2378125 -3.63929687 16.25296875 -3.640625 15.23828125 C-3.63675781 14.201875 -3.63289063 13.16546875 -3.62890625 12.09765625 C-3.63470703 10.54304688 -3.63470703 10.54304688 -3.640625 8.95703125 C-3.63933594 7.9721875 -3.63804688 6.98734375 -3.63671875 5.97265625 C-3.63559082 5.06257813 -3.63446289 4.1525 -3.63330078 3.21484375 C-3.44379172 0.11404647 -3.12308348 0.12180513 0 0 Z M21.49609375 1.09765625 C21.49609375 8.35765625 21.49609375 15.61765625 21.49609375 23.09765625 C24.13609375 23.09765625 26.77609375 23.09765625 29.49609375 23.09765625 C29.82609375 19.46765625 30.15609375 15.83765625 30.49609375 12.09765625 C35.94109375 11.60265625 35.94109375 11.60265625 41.49609375 11.09765625 C41.49609375 7.79765625 41.49609375 4.49765625 41.49609375 1.09765625 C34.89609375 1.09765625 28.29609375 1.09765625 21.49609375 1.09765625 Z " fill="#418070" transform="translate(107.50390625,31.90234375)"/>
<path d="M0 0 C2.97 0 5.94 0 9 0 C9 6.93 9 13.86 9 21 C5.7 21 2.4 21 -1 21 C-1.02683436 17.68744674 -1.0467578 14.37510817 -1.0625 11.0625 C-1.07087891 10.11697266 -1.07925781 9.17144531 -1.08789062 8.19726562 C-1.09111328 7.29814453 -1.09433594 6.39902344 -1.09765625 5.47265625 C-1.10289307 4.64000244 -1.10812988 3.80734863 -1.11352539 2.94946289 C-1 1 -1 1 0 0 Z " fill="#D34B09" transform="translate(151,111)"/>
<path d="M0 0 C0.33 0 0.66 0 1 0 C1 18.15 1 36.3 1 55 C-2.63 55 -6.26 55 -10 55 C-9.979375 56.794375 -9.95875 58.58875 -9.9375 60.4375 C-9.9161878 62.29166122 -9.92773498 64.14712498 -10 66 C-11.62200515 67.62200515 -13.42023031 67.1299075 -15.65625 67.1328125 C-17.06583984 67.13474609 -17.06583984 67.13474609 -18.50390625 67.13671875 C-19.98697266 67.13091797 -19.98697266 67.13091797 -21.5 67.125 C-22.48871094 67.12886719 -23.47742188 67.13273437 -24.49609375 67.13671875 C-25.43582031 67.13542969 -26.37554687 67.13414062 -27.34375 67.1328125 C-28.21193359 67.13168457 -29.08011719 67.13055664 -29.97460938 67.12939453 C-32 67 -32 67 -33 66 C-33.07226502 64.14712498 -33.0838122 62.29166122 -33.0625 60.4375 C-33.05347656 59.42558594 -33.04445313 58.41367188 -33.03515625 57.37109375 C-33.02355469 56.58863281 -33.01195313 55.80617187 -33 55 C-32.34 55 -31.68 55 -31 55 C-31 57.64 -31 60.28 -31 63 C-24.73 63.33 -18.46 63.66 -12 64 C-12 61.03 -12 58.06 -12 55 C-11.67 54.67 -11.34 54.34 -11 54 C-7.37 54 -3.74 54 0 54 C0 36.18 0 18.36 0 0 Z " fill="#1E9191" transform="translate(60,123)"/>
<path d="M0 0 C2.31 0 4.62 0 7 0 C7 5.94 7 11.88 7 18 C4.69 18 2.38 18 0 18 C0 12.06 0 6.12 0 0 Z " fill="#DC4701" transform="translate(41,113)"/>
<path d="M0 0 C0.33 0 0.66 0 1 0 C1 3.3 1 6.6 1 10 C3.97 10 6.94 10 10 10 C10 6.7 10 3.4 10 0 C17.92 0 25.84 0 34 0 C34 15.18 34 30.36 34 46 C33.67 46 33.34 46 33 46 C33 31.15 33 16.3 33 1 C26.07 1 19.14 1 12 1 C12 4.3 12 7.6 12 11 C11 12 11 12 8.49609375 12.09765625 C5.6640625 12.06510417 2.83203125 12.03255208 0 12 C0 8.04 0 4.08 0 0 Z " fill="#71BF4B" transform="translate(94,66)"/>
<path d="M0 0 C4.29 0 8.58 0 13 0 C13.02682987 3.64588169 13.04675569 7.29156846 13.0625 10.9375 C13.07087891 11.97841797 13.07925781 13.01933594 13.08789062 14.09179688 C13.09111328 15.08115234 13.09433594 16.07050781 13.09765625 17.08984375 C13.10289307 18.00628662 13.10812988 18.92272949 13.11352539 19.86694336 C13 22 13 22 12 23 C10.16884117 23.09851171 8.33380067 23.12972629 6.5 23.125 C5.4996875 23.12757813 4.499375 23.13015625 3.46875 23.1328125 C1 23 1 23 0 22 C-0.08700342 20.36527118 -0.10701063 18.72685945 -0.09765625 17.08984375 C-0.09443359 16.10048828 -0.09121094 15.11113281 -0.08789062 14.09179688 C-0.07951172 13.05087891 -0.07113281 12.00996094 -0.0625 10.9375 C-0.05798828 9.89271484 -0.05347656 8.84792969 -0.04882812 7.77148438 C-0.03699927 5.18096546 -0.01906319 2.59047578 0 0 Z M2 2 C1.97316303 5.14588944 1.95324098 8.29155271 1.9375 11.4375 C1.92912109 12.33533203 1.92074219 13.23316406 1.91210938 14.15820312 C1.90888672 15.01220703 1.90566406 15.86621094 1.90234375 16.74609375 C1.89710693 17.53685303 1.89187012 18.3276123 1.88647461 19.14233398 C1.79504091 21.01592689 1.79504091 21.01592689 3 22 C5.97 22 8.94 22 12 22 C11.67 15.4 11.34 8.8 11 2 C8.03 2 5.06 2 2 2 Z " fill="#C25312" transform="translate(82,111)"/>
<path d="M0 0 C1.20217503 2.40435006 1.03897118 3.68381369 0.87890625 6.3515625 C0.83056641 7.20234375 0.78222656 8.053125 0.73242188 8.9296875 C0.64831055 10.26386719 0.64831055 10.26386719 0.5625 11.625 C0.51029297 12.5221875 0.45808594 13.419375 0.40429688 14.34375 C0.2744592 16.56279383 0.1378646 18.7814404 0 21 C3.63 21 7.26 21 11 21 C11 14.4 11 7.8 11 1 C11.33 1 11.66 1 12 1 C12 7.93 12 14.86 12 22 C15.3 22 18.6 22 22 22 C22 22.33 22 22.66 22 23 C18.7 23 15.4 23 12 23 C12 30.26 12 37.52 12 45 C11.67 45 11.34 45 11 45 C11 37.74 11 30.48 11 23 C7.37 23 3.74 23 0 23 C-1.62200515 21.37799485 -1.1299075 19.57976969 -1.1328125 17.34375 C-1.13410156 16.40402344 -1.13539062 15.46429688 -1.13671875 14.49609375 C-1.13285156 13.50738281 -1.12898438 12.51867187 -1.125 11.5 C-1.12886719 10.51128906 -1.13273437 9.52257812 -1.13671875 8.50390625 C-1.13542969 7.56417969 -1.13414063 6.62445312 -1.1328125 5.65625 C-1.13168457 4.78806641 -1.13055664 3.91988281 -1.12939453 3.02539062 C-1 1 -1 1 0 0 Z " fill="#2F7F77" transform="translate(83,10)"/>
<path d="M0 0 C3.63 0 7.26 0 11 0 C11 0.33 11 0.66 11 1 C7.7 1 4.4 1 1 1 C1 4.96 1 8.92 1 13 C-9.395 13.495 -9.395 13.495 -20 14 C-20.33 16.64 -20.66 19.28 -21 22 C-21.33 22 -21.66 22 -22 22 C-22 18.37 -22 14.74 -22 11 C-14.74 11 -7.48 11 0 11 C0 7.37 0 3.74 0 0 Z " fill="#279796" transform="translate(60,66)"/>
<path d="M0 0 C0.33 0 0.66 0 1 0 C1 7.26 1 14.52 1 22 C4.3 22 7.6 22 11 22 C11 22.33 11 22.66 11 23 C8.03 23 5.06 23 2 23 C2 26.3 2 29.6 2 33 C1.34 33 0.68 33 0 33 C0 29.7 0 26.4 0 23 C-3.3 23 -6.6 23 -10 23 C-10 22.34 -10 21.68 -10 21 C-6.7 21 -3.4 21 0 21 C0 14.07 0 7.14 0 0 Z " fill="#7A6B45" transform="translate(160,111)"/>
<path d="M0 0 C0.83660156 0.00386719 1.67320313 0.00773437 2.53515625 0.01171875 C3.36402344 0.00785156 4.19289063 0.00398438 5.046875 0 C5.84480469 0.00128906 6.64273438 0.00257812 7.46484375 0.00390625 C8.5628833 0.00559814 8.5628833 0.00559814 9.68310547 0.00732422 C11.66015625 0.13671875 11.66015625 0.13671875 14.66015625 1.13671875 C14.66015625 1.79671875 14.66015625 2.45671875 14.66015625 3.13671875 C14.08040039 2.97824463 13.50064453 2.81977051 12.90332031 2.65649414 C9.44795227 1.85583257 5.94105322 1.76448793 2.41015625 1.57421875 C1.66507813 1.53103516 0.92 1.48785156 0.15234375 1.44335938 C-1.67819275 1.3377515 -3.50899551 1.23677674 -5.33984375 1.13671875 C-5.33984375 4.43671875 -5.33984375 7.73671875 -5.33984375 11.13671875 C-2.36984375 11.13671875 0.60015625 11.13671875 3.66015625 11.13671875 C3.66015625 11.79671875 3.66015625 12.45671875 3.66015625 13.13671875 C0.03015625 13.13671875 -3.59984375 13.13671875 -7.33984375 13.13671875 C-7.36670928 11.15762477 -7.3861775 9.17842904 -7.40234375 7.19921875 C-7.41394531 6.09707031 -7.42554688 4.99492188 -7.4375 3.859375 C-7.253472 -1.27132558 -4.47472844 0.0072524 0 0 Z " fill="#238D8E" transform="translate(56.33984375,31.86328125)"/>
<path d="M0 0 C0.33 0 0.66 0 1 0 C1.66 6.93 2.32 13.86 3 21 C5.97 21.33 8.94 21.66 12 22 C12 22.33 12 22.66 12 23 C10.18757948 23.02687279 8.37504767 23.04633715 6.5625 23.0625 C5.55316406 23.07410156 4.54382813 23.08570313 3.50390625 23.09765625 C1 23 1 23 0 22 C-0.08700342 20.36527118 -0.10701063 18.72685945 -0.09765625 17.08984375 C-0.09443359 16.10048828 -0.09121094 15.11113281 -0.08789062 14.09179688 C-0.07951172 13.05087891 -0.07113281 12.00996094 -0.0625 10.9375 C-0.05798828 9.89271484 -0.05347656 8.84792969 -0.04882812 7.77148438 C-0.03699913 5.1809334 -0.02051689 2.59049441 0 0 Z " fill="#C95823" transform="translate(82,111)"/>
<path d="M0 0 C6.76594019 -0.11381955 13.28837062 0.11978631 20 1 C20 1.33 20 1.66 20 2 C16.37 2 12.74 2 9 2 C9 2.99 9 3.98 9 5 C8.34 5 7.68 5 7 5 C7 4.01 7 3.02 7 2 C4.69 2.33 2.38 2.66 0 3 C0 2.01 0 1.02 0 0 Z " fill="#CE5011" transform="translate(73,33)"/>
<path d="M0 0 C0.33 0 0.66 0 1 0 C1 4.62 1 9.24 1 14 C2.65 13.34 4.3 12.68 6 12 C6.99 12.99 7.98 13.98 9 15 C6.03 15 3.06 15 0 15 C0 10.05 0 5.1 0 0 Z " fill="#DD4E0F" transform="translate(106,118)"/>
<path d="M0 0 C-2.60704898 2.60704898 -4.47338241 2.23905333 -8.02734375 2.265625 C-10 2 -10 2 -13 0 C-4.57142857 -1.28571429 -4.57142857 -1.28571429 0 0 Z " fill="#0ABCBF" transform="translate(171,188)"/>
<path d="M0 0 C2.31 0 4.62 0 7 0 C6.67 1.32 6.34 2.64 6 4 C3.03 3.505 3.03 3.505 0 3 C0 2.01 0 1.02 0 0 Z " fill="#048E9F" transform="translate(107,10)"/>
<path d="" fill="#808080" transform="translate(0,0)"/>
</svg>
