<?xml version="1.0" encoding="UTF-8"?>
<svg version="1.1" xmlns="http://www.w3.org/2000/svg" width="418" height="420">
<path d="M0 0 C0.91349685 0.00092179 1.82699369 0.00184359 2.76817226 0.00279331 C3.81290203 0.00141865 4.8576318 0.00004398 5.93402004 -0.00137234 C7.08991634 0.00222294 8.24581264 0.00581821 9.43673611 0.00952244 C10.64632488 0.00937641 11.85591366 0.00923038 13.10215664 0.00907993 C16.42846172 0.0096589 19.75470541 0.0146881 23.08099961 0.02165389 C26.55369751 0.02788805 30.02639615 0.02849128 33.49909878 0.0296793 C40.07936014 0.03279243 46.65960497 0.04100557 53.23985904 0.05102879 C60.72945933 0.06219049 68.21906039 0.06770052 75.70866692 0.07272422 C91.11925524 0.08318821 106.52982077 0.10153346 121.94039822 0.12304783 C121.94039822 10.35304783 121.94039822 20.58304783 121.94039822 31.12304783 C125.24942165 31.11144627 128.55844509 31.0998447 131.96774197 31.08789158 C135.1580893 31.08010202 138.34843559 31.07402468 141.53878689 31.06811619 C143.76307553 31.06307466 145.98736085 31.0562416 148.21163845 31.04760838 C151.4011813 31.03553484 154.59068051 31.02981787 157.78024197 31.02539158 C158.78127453 31.02023029 159.78230709 31.01506901 160.81367397 31.00975132 C161.73455303 31.00967579 162.65543209 31.00960026 163.60421658 31.00952244 C164.41918102 31.00730183 165.23414547 31.00508121 166.07380581 31.00279331 C167.94039822 31.12304783 167.94039822 31.12304783 168.94039822 32.12304783 C169.09913777 34.33992777 169.19173659 36.56160081 169.25680447 38.78320408 C169.27758556 39.44767048 169.29836666 40.11213688 169.31977749 40.79673862 C169.3853348 42.92623326 169.44418607 45.05585451 169.50289822 47.18554783 C169.54607761 48.6263163 169.5896917 50.06707182 169.63375759 51.50781345 C169.74102214 55.04608823 169.84227193 58.58450652 169.94039822 62.12304783 C171.29572659 62.16063206 171.29572659 62.16063206 172.67843533 62.19897556 C176.02004102 62.293921 179.36146074 62.39316404 182.70284939 62.49536228 C184.15104061 62.53876413 185.59928476 62.58043527 187.04757595 62.62036228 C189.12529381 62.67793845 191.20274395 62.74166811 193.28024197 62.80664158 C194.53184109 62.84329929 195.78344021 62.87995701 197.07296658 62.91772556 C199.94039822 63.12304783 199.94039822 63.12304783 200.94039822 64.12304783 C201.02823363 66.34160047 201.0473443 68.56293279 201.03805447 70.78320408 C201.03593204 71.77990368 201.03593204 71.77990368 201.03376675 72.79673862 C201.0281534 74.92638682 201.01559875 77.05593122 201.00289822 79.18554783 C200.99788493 80.62630152 200.99332173 82.06705686 200.98922634 83.50781345 C200.97817966 87.04625885 200.96090613 90.58464322 200.94039822 94.12304783 C201.85265163 93.96078709 202.76490505 93.79852634 203.70480251 93.63134861 C207.40653899 93.04981874 211.017672 92.97656043 214.75289822 92.99804783 C215.41354275 92.99418064 216.07418728 92.99031345 216.75485134 92.98632908 C221.86864425 92.99622994 226.87014423 93.47647078 231.94039822 94.12304783 C232.98551287 125.12626272 233.04483786 156.10447465 232.94039822 187.12304783 C246.30539822 187.61804783 246.30539822 187.61804783 259.94039822 188.12304783 C259.94039822 264.68304783 259.94039822 341.24304783 259.94039822 420.12304783 C250.70039822 420.12304783 241.46039822 420.12304783 231.94039822 420.12304783 C231.94039822 410.55304783 231.94039822 400.98304783 231.94039822 391.12304783 C221.71039822 391.12304783 211.48039822 391.12304783 200.94039822 391.12304783 C199.50530601 388.25286342 199.82881316 385.7876106 199.84274197 382.58398533 C199.84523952 381.41142185 199.84773708 380.23885838 199.85031033 379.03076267 C199.86396633 376.78706882 199.86396633 376.78706882 199.87789822 374.49804783 C199.89852322 369.75429783 199.91914822 365.01054783 199.94039822 360.12304783 C190.04039822 360.12304783 180.14039822 360.12304783 169.94039822 360.12304783 C169.65107955 369.9509009 169.65107955 369.9509009 169.37228298 379.77905369 C169.33417507 380.99472019 169.29606716 382.2103867 169.25680447 383.46289158 C169.22014675 384.7144907 169.18348904 385.96608982 169.14572048 387.25561619 C168.94039822 390.12304783 168.94039822 390.12304783 167.94039822 391.12304783 C165.72184557 391.21088325 163.50051325 391.22999392 161.28024197 391.22070408 C160.28354237 391.21858166 160.28354237 391.21858166 159.26670742 391.21641636 C157.13705923 391.21080301 155.00751482 391.19824837 152.87789822 391.18554783 C151.43714452 391.18053454 149.99638919 391.17597134 148.55563259 391.17187595 C145.01714863 391.16167859 141.47889009 391.14210613 137.94039822 391.12304783 C137.94039822 400.69304783 137.94039822 410.26304783 137.94039822 420.12304783 C122.43039822 420.12304783 106.92039822 420.12304783 90.94039822 420.12304783 C90.61039822 400.32304783 90.28039822 380.52304783 89.94039822 360.12304783 C69.81039822 360.12304783 49.68039822 360.12304783 28.94039822 360.12304783 C28.94039822 379.92304783 28.94039822 399.72304783 28.94039822 420.12304783 C8.15039822 420.12304783 -12.63960178 420.12304783 -34.05960178 420.12304783 C-34.05960178 410.55304783 -34.05960178 400.98304783 -34.05960178 391.12304783 C-36.21362522 391.13464939 -38.36764866 391.14625095 -40.58694553 391.15820408 C-42.66531317 391.1659952 -44.74367921 391.17207164 -46.82205296 391.17797947 C-48.27030251 391.18301884 -49.71854695 391.18985036 -51.16677952 391.19848728 C-53.24434766 391.2105703 -55.32184876 391.21627994 -57.39944553 391.22070408 C-58.65104465 391.2259409 -59.90264378 391.23117771 -61.19217014 391.23657322 C-64.05960178 391.12304783 -64.05960178 391.12304783 -65.05960178 390.12304783 C-65.21834133 387.90616789 -65.31094016 385.68449485 -65.37600803 383.46289158 C-65.39678913 382.79842518 -65.41757023 382.13395878 -65.43898106 381.44935703 C-65.50453837 379.31986239 -65.56338964 377.19024115 -65.62210178 375.06054783 C-65.66528117 373.61977935 -65.70889527 372.17902384 -65.75296116 370.7382822 C-65.86104705 367.19999879 -65.96007272 363.66162385 -66.05960178 360.12304783 C-75.62960178 360.12304783 -85.19960178 360.12304783 -95.05960178 360.12304783 C-95.68417482 368.24249732 -96.17160606 375.83511945 -96.02053928 383.8945322 C-95.96128263 388.92640953 -95.96128263 388.92640953 -97.05960178 391.12304783 C-107.28960178 391.12304783 -117.51960178 391.12304783 -128.05960178 391.12304783 C-128.05960178 400.69304783 -128.05960178 410.26304783 -128.05960178 420.12304783 C-137.95960178 420.12304783 -147.85960178 420.12304783 -158.05960178 420.12304783 C-158.05960178 343.56304783 -158.05960178 267.00304783 -158.05960178 188.12304783 C-148.15960178 188.12304783 -138.25960178 188.12304783 -128.05960178 188.12304783 C-128.0648386 185.31103855 -128.07007542 182.49902927 -128.07547092 179.60180759 C-128.09200552 170.33380127 -128.10307248 161.06579432 -128.11141396 151.79777718 C-128.11664315 146.17596821 -128.12374144 140.5541743 -128.13504124 134.932374 C-128.14586884 129.51186506 -128.15187835 124.09137063 -128.15447903 118.67085171 C-128.15633351 116.59789838 -128.15995455 114.52494589 -128.16533184 112.45199871 C-128.17254059 109.5592089 -128.1735928 106.66647987 -128.17312717 103.77368259 C-128.17672245 102.90765919 -128.18031773 102.04163578 -128.18402195 101.14936924 C-128.17365395 95.23709999 -128.17365395 95.23709999 -127.05960178 94.12304783 C-124.84272184 93.96430828 -122.6210488 93.87170946 -120.39944553 93.80664158 C-119.73497913 93.78586048 -119.07051273 93.76507938 -118.38591099 93.74366856 C-116.25641635 93.67811125 -114.1267951 93.61925998 -111.99710178 93.56054783 C-110.55633331 93.51736844 -109.11557779 93.47375434 -107.67483616 93.42968845 C-104.13656138 93.3224239 -100.59814309 93.22117412 -97.05960178 93.12304783 C-97.0648386 92.56955662 -97.07007542 92.01606541 -97.07547092 91.44580173 C-97.09656422 88.87989584 -97.10936297 86.31400829 -97.12210178 83.74804783 C-97.13048069 82.87793064 -97.1388596 82.00781345 -97.14749241 81.11132908 C-97.15071507 80.24121189 -97.15393772 79.3710947 -97.15725803 78.47461033 C-97.16249485 77.68908787 -97.16773167 76.90356541 -97.17312717 76.09423923 C-97.00743629 71.75777032 -96.49141142 67.44114424 -96.05960178 63.12304783 C-86.15960178 62.79304783 -76.25960178 62.46304783 -66.05960178 62.12304783 C-65.72960178 52.22304783 -65.39960178 42.32304783 -65.05960178 32.12304783 C-61.90625352 31.07193174 -59.70447895 31.00234311 -56.39480686 31.00952244 C-55.23382984 31.00959797 -54.07285282 31.0096735 -52.87669468 31.00975132 C-50.99690166 31.01749325 -50.99690166 31.01749325 -49.07913303 31.02539158 C-47.15444439 31.027514 -47.15444439 31.027514 -45.19087315 31.0296793 C-41.78289938 31.03349378 -38.37496836 31.04331492 -34.96701145 31.05438328 C-31.48811515 31.06462039 -28.00921193 31.06918185 -24.53030491 31.0742197 C-17.70671966 31.08493816 -10.88316278 31.10200174 -4.05960178 31.12304783 C-4.02201756 29.76771946 -4.02201756 29.76771946 -3.98367405 28.38501072 C-3.88872861 25.04340502 -3.78948557 21.70198531 -3.68728733 18.36059666 C-3.64388548 16.91240543 -3.60221434 15.46416129 -3.56228733 14.01587009 C-3.50471116 11.93815224 -3.44098151 9.86070209 -3.37600803 7.78320408 C-3.32102146 5.9058054 -3.32102146 5.9058054 -3.26492405 3.99047947 C-2.99198552 0.1787517 -2.99198552 0.1787517 0 0 Z " fill="#FE0166" transform="translate(158.05960178375244,-0.1230478286743164)"/>
<path d="M0 0 C0.33 0 0.66 0 1 0 C1 9.9 1 19.8 1 30 C2.98 29.67 4.96 29.34 7 29 C9.61601097 28.90782967 12.19811756 28.85996041 14.8125 28.875 C15.8034668 28.86919922 15.8034668 28.86919922 16.81445312 28.86328125 C20.49967816 28.87041625 24.09860743 29.08359317 27.76049805 29.50830078 C28.55820114 29.59991486 29.35590424 29.69152893 30.17778015 29.78591919 C30.7791127 29.85656586 31.38044525 29.92721252 32 30 C32.14615854 35.16958078 32.28832685 40.33925281 32.42724609 45.5090332 C32.47472821 47.2571081 32.52318601 49.00515684 32.57275391 50.75317383 C33.24069468 74.36965136 32.92309598 97.95550635 32.53643799 121.57348633 C32.46397815 126.02594326 32.39405643 130.47844076 32.32368469 134.93093109 C32.21768152 141.62065287 32.10855469 148.31031696 32 155 C21.44 155 10.88 155 0 155 C0 165.23 0 175.46 0 186 C-20.46 186 -40.92 186 -62 186 C-62 175.77 -62 165.54 -62 155 C-72.23 155 -82.46 155 -93 155 C-93 123.98 -93 92.96 -93 61 C-82.77 61 -72.54 61 -62 61 C-62 50.77 -62 40.54 -62 30 C-41.54 30 -21.08 30 0 30 C0 20.1 0 10.2 0 0 Z " fill="#FDFBFD" transform="translate(358,64)"/>
<path d="M0 0 C20.79 0 41.58 0 63 0 C63 10.23 63 20.46 63 31 C73.23 31 83.46 31 94 31 C94 41.23 94 51.46 94 62 C73.21 62 52.42 62 31 62 C31 82.79 31 103.58 31 125 C41.23 125 51.46 125 62 125 C62 135.23 62 145.46 62 156 C41.54 156 21.08 156 0 156 C0 145.77 0 135.54 0 125 C-10.23 125 -20.46 125 -31 125 C-31 93.98 -31 62.96 -31 31 C-20.77 31 -10.54 31 0 31 C0 20.77 0 10.54 0 0 Z " fill="#FEFCFD" transform="translate(124,94)"/>
<path d="M0 0 C20.79 0 41.58 0 63 0 C63 20.79 63 41.58 63 63 C42.21 63 21.42 63 0 63 C0 42.21 0 21.42 0 0 Z " fill="#0154D3" transform="translate(155,156)"/>
<path d="M0 0 C20.46 0 40.92 0 62 0 C62.165 4.640625 62.33 9.28125 62.5 14.0625 C62.57831055 16.14510132 62.57831055 16.14510132 62.65820312 18.26977539 C63.15430633 33.19913521 63 48.0284986 63 63 C42.21 63 21.42 63 0 63 C0 42.21 0 21.42 0 0 Z " fill="#0154D2" transform="translate(327,156)"/>
<path d="M0 0 C9.9 0 19.8 0 30 0 C30 9.9 30 19.8 30 30 C20.1 30 10.2 30 0 30 C0 20.1 0 10.2 0 0 Z " fill="#F80264" transform="translate(359,95)"/>
<path d="M0 0 C0.91349685 0.00092179 1.82699369 0.00184359 2.76817226 0.00279331 C3.81290203 0.00141865 4.8576318 0.00004398 5.93402004 -0.00137234 C7.08991634 0.00222294 8.24581264 0.00581821 9.43673611 0.00952244 C10.64632488 0.00937641 11.85591366 0.00923038 13.10215664 0.00907993 C16.42846172 0.0096589 19.75470541 0.0146881 23.08099961 0.02165389 C26.55369751 0.02788805 30.02639615 0.02849128 33.49909878 0.0296793 C40.07936014 0.03279243 46.65960497 0.04100557 53.23985904 0.05102879 C60.72945933 0.06219049 68.21906039 0.06770052 75.70866692 0.07272422 C91.11925524 0.08318821 106.52982077 0.10153346 121.94039822 0.12304783 C121.94039822 10.35304783 121.94039822 20.58304783 121.94039822 31.12304783 C121.61039822 31.12304783 121.28039822 31.12304783 120.94039822 31.12304783 C120.94039822 21.55304783 120.94039822 11.98304783 120.94039822 2.12304783 C80.68039822 2.12304783 40.42039822 2.12304783 -1.05960178 2.12304783 C-1.05960178 11.69304783 -1.05960178 21.26304783 -1.05960178 31.12304783 C-3.05960178 33.12304783 -3.05960178 33.12304783 -5.57794285 33.36355686 C-7.17012135 33.35689503 -7.17012135 33.35689503 -8.79446507 33.35009861 C-9.99555912 33.34994755 -11.19665318 33.34979649 -12.43414402 33.34964085 C-13.73624821 33.33931828 -15.03835239 33.3289957 -16.37991428 33.31836033 C-17.72226851 33.31463059 -19.06462546 33.31178343 -20.40698338 33.30978489 C-23.94161578 33.30214527 -27.47608407 33.28249413 -31.01065159 33.26037693 C-34.61678948 33.23992548 -38.22295387 33.23078468 -41.82913303 33.22070408 C-48.90602313 33.19924843 -55.98280175 33.16510862 -63.05960178 33.12304783 C-63.04912815 33.99107029 -63.03865452 34.85909275 -63.0278635 35.75341892 C-62.99380462 38.97004311 -62.96871411 42.1865755 -62.9497385 45.40332127 C-62.93967301 46.79625564 -62.92601945 48.18916885 -62.90872288 49.5820322 C-62.88449958 51.58259142 -62.87419365 53.58330398 -62.86428928 55.58398533 C-62.85381565 56.7884531 -62.84334202 57.99292088 -62.832551 59.23388767 C-63.05960178 62.12304783 -63.05960178 62.12304783 -65.05960178 64.12304783 C-68.04055882 64.35009861 -68.04055882 64.35009861 -71.81741428 64.31836033 C-72.48046574 64.31553043 -73.14351719 64.31270054 -73.82666111 64.30978489 C-75.94615761 64.29858218 -78.06523283 64.27347834 -80.18460178 64.24804783 C-81.6207936 64.2380181 -83.05699204 64.22889224 -84.49319553 64.22070408 C-88.01546807 64.19864283 -91.53749382 64.16411276 -95.05960178 64.12304783 C-95.05436497 65.02660007 -95.04912815 65.93015232 -95.04373264 66.86108494 C-95.02672493 70.20256272 -95.01416845 73.54399474 -95.00467014 76.885499 C-94.99963077 78.33374855 -94.99279925 79.781993 -94.98416233 81.23022556 C-94.97207931 83.30779371 -94.96636967 85.3852948 -94.96194553 87.46289158 C-94.95670872 88.7144907 -94.9514719 89.96608982 -94.94607639 91.25561619 C-95.05960178 94.12304783 -95.05960178 94.12304783 -96.05960178 95.12304783 C-98.35111596 95.21095758 -100.64532703 95.22998821 -102.93850803 95.22070408 C-103.9685017 95.21858166 -103.9685017 95.21858166 -105.01930332 95.21641636 C-107.22027979 95.21080262 -109.42115587 95.1982479 -111.62210178 95.18554783 C-113.11103261 95.18053459 -114.59996503 95.17597138 -116.08889866 95.17187595 C-119.74583253 95.16082876 -123.40270737 95.14355496 -127.05960178 95.12304783 C-127.05960178 94.79304783 -127.05960178 94.46304783 -127.05960178 94.12304783 C-112.20960178 93.62804783 -112.20960178 93.62804783 -97.05960178 93.12304783 C-97.09874896 86.99140821 -97.09874896 86.99140821 -97.14968967 80.85986423 C-97.15218723 80.07273045 -97.15468479 79.28559666 -97.15725803 78.47461033 C-97.16511326 77.29632664 -97.16511326 77.29632664 -97.17312717 76.09423923 C-97.00743629 71.75777032 -96.49141142 67.44114424 -96.05960178 63.12304783 C-86.15960178 62.79304783 -76.25960178 62.46304783 -66.05960178 62.12304783 C-65.72960178 52.22304783 -65.39960178 42.32304783 -65.05960178 32.12304783 C-61.90625352 31.07193174 -59.70447895 31.00234311 -56.39480686 31.00952244 C-55.23382984 31.00959797 -54.07285282 31.0096735 -52.87669468 31.00975132 C-50.99690166 31.01749325 -50.99690166 31.01749325 -49.07913303 31.02539158 C-47.15444439 31.027514 -47.15444439 31.027514 -45.19087315 31.0296793 C-41.78289938 31.03349378 -38.37496836 31.04331492 -34.96701145 31.05438328 C-31.48811515 31.06462039 -28.00921193 31.06918185 -24.53030491 31.0742197 C-17.70671966 31.08493816 -10.88316278 31.10200174 -4.05960178 31.12304783 C-4.02201756 29.76771946 -4.02201756 29.76771946 -3.98367405 28.38501072 C-3.88872861 25.04340502 -3.78948557 21.70198531 -3.68728733 18.36059666 C-3.64388548 16.91240543 -3.60221434 15.46416129 -3.56228733 14.01587009 C-3.50471116 11.93815224 -3.44098151 9.86070209 -3.37600803 7.78320408 C-3.33935032 6.53160496 -3.3026926 5.28000584 -3.26492405 3.99047947 C-2.99198552 0.1787517 -2.99198552 0.1787517 0 0 Z " fill="#E46195" transform="translate(158.05960178375244,-0.1230478286743164)"/>
<path d="M0 0 C0.33 0 0.66 0 1 0 C1 31.02 1 62.04 1 94 C11.23 94 21.46 94 32 94 C32 104.23 32 114.46 32 125 C52.46 125 72.92 125 94 125 C94 114.77 94 104.54 94 94 C104.56 94 115.12 94 126 94 C125.96040178 83.84286908 125.96040178 83.84286908 125.90991211 73.68579102 C125.90741455 72.42951904 125.90491699 71.17324707 125.90234375 69.87890625 C125.89710693 68.5854126 125.89187012 67.29191895 125.88647461 65.95922852 C126 63 126 63 127 62 C129.00163877 61.9832207 131.00394864 62.03737459 133.00390625 62.12109375 C134.82631836 62.19360352 134.82631836 62.19360352 136.68554688 62.26757812 C137.96494141 62.32365234 139.24433594 62.37972656 140.5625 62.4375 C142.48739258 62.51581055 142.48739258 62.51581055 144.45117188 62.59570312 C147.63433391 62.7258696 150.81722004 62.86085001 154 63 C154 63.33 154 63.66 154 64 C145.09 64 136.18 64 127 64 C127.08378906 66.22621094 127.16757812 68.45242187 127.25390625 70.74609375 C127.33123312 72.89392016 127.40679226 75.04180194 127.48217773 77.18969727 C127.53566434 78.68650938 127.5909987 80.18325663 127.64819336 81.67993164 C127.72991956 83.82684332 127.8050746 85.97389793 127.87890625 88.12109375 C127.9260376 89.4145874 127.97316895 90.70808105 128.02172852 92.04077148 C128 95 128 95 127 96 C124.78144736 96.08783542 122.56011504 96.10694609 120.33984375 96.09765625 C119.12417725 96.09515869 117.90851074 96.09266113 116.65600586 96.09008789 C114.32034546 96.07643188 114.32034546 96.07643188 111.9375 96.0625 C107.008125 96.041875 102.07875 96.02125 97 96 C97 105.9 97 115.8 97 126 C93.72112251 127.09295916 91.32732427 127.12041382 87.8762207 127.11352539 C86.61513992 127.11344986 85.35405914 127.11337433 84.05476379 127.11329651 C82.67843588 127.10818989 81.30210837 127.10297389 79.92578125 127.09765625 C78.51759389 127.09579086 77.10940589 127.09436753 75.70121765 127.09336853 C71.9973267 127.08955288 68.29347505 127.07973072 64.58959961 127.06866455 C60.80908754 127.05842997 57.02856892 127.05381172 53.24804688 127.04882812 C45.83199656 127.03863844 38.41605411 127.01906441 31 127 C31 116.44 31 105.88 31 95 C20.77 95 10.54 95 0 95 C0 63.65 0 32.3 0 0 Z " fill="#DB447F" transform="translate(264,125)"/>
<path d="M0 0 C20.79 0 41.58 0 63 0 C63 20.79 63 41.58 63 63 C42.21 63 21.42 63 0 63 C0 42.21 0 21.42 0 0 Z M2 2 C2 21.8 2 41.6 2 62 C21.8 62 41.6 62 62 62 C62.0309375 47.4284375 62.0309375 47.4284375 62.0625 32.5625 C62.071604 29.49138916 62.08070801 26.42027832 62.09008789 23.25610352 C62.09300679 20.83870487 62.09555541 18.42130574 62.09765625 16.00390625 C62.10277222 14.7351062 62.10788818 13.46630615 62.11315918 12.15905762 C62.11328003 10.96131714 62.11340088 9.76357666 62.11352539 8.52954102 C62.115746 7.48363297 62.11796661 6.43772491 62.12025452 5.36012268 C62.26650985 3.04310705 62.26650985 3.04310705 61 2 C59.15881971 1.90618698 57.31402359 1.88256046 55.47045898 1.88647461 C54.27271851 1.88659546 53.07497803 1.88671631 51.84094238 1.88684082 C50.57214233 1.89195679 49.30334229 1.89707275 47.99609375 1.90234375 C46.25785339 1.90385437 46.25785339 1.90385437 44.48449707 1.90539551 C40.13548805 1.91064673 35.78649308 1.92460784 31.4375 1.9375 C21.723125 1.958125 12.00875 1.97875 2 2 Z " fill="#425DB8" transform="translate(155,156)"/>
<path d="M0 0 C20.46 0 40.92 0 62 0 C62 0.33 62 0.66 62 1 C41.87 1 21.74 1 1 1 C1 21.13 1 41.26 1 62 C8.92 61.67 16.84 61.34 25 61 C31.33664382 60.93811871 37.6645061 60.90083466 44 60.9375 C45.57682143 60.94254661 47.1536445 60.9471037 48.73046875 60.95117188 C52.4870573 60.96100588 56.24340198 60.98061389 60 61 C60.33 51.43 60.66 41.86 61 32 C61.66 32 62.32 32 63 32 C63 42.23 63 52.46 63 63 C42.21 63 21.42 63 0 63 C0 42.21 0 21.42 0 0 Z " fill="#4864BF" transform="translate(327,156)"/>
<path d="M0 0 C0.33 0 0.66 0 1 0 C1 21.45 1 42.9 1 65 C-1.87161854 65.95720618 -3.69369292 66.1287398 -6.67578125 66.1328125 C-7.58650391 66.13410156 -8.49722656 66.13539063 -9.43554688 66.13671875 C-10.85963867 66.13091797 -10.85963867 66.13091797 -12.3125 66.125 C-13.25029297 66.12886719 -14.18808594 66.13273437 -15.15429688 66.13671875 C-16.06888672 66.13542969 -16.98347656 66.13414062 -17.92578125 66.1328125 C-18.75505127 66.13168457 -19.58432129 66.13055664 -20.4387207 66.12939453 C-23.31353853 65.98416019 -26.1606808 65.47321987 -29 65 C-29 74.9 -29 84.8 -29 95 C-50.45 95 -71.9 95 -94 95 C-94 94.67 -94 94.34 -94 94 C-73.54 94 -53.08 94 -32 94 C-32 83.77 -32 73.54 -32 63 C-21.44 63 -10.88 63 0 63 C0 42.21 0 21.42 0 0 Z " fill="#D42C7D" transform="translate(218,156)"/>
<path d="M0 0 C8.17962388 -0.04628728 16.35919327 -0.08185072 24.53891563 -0.10362434 C28.33686312 -0.11407321 32.13472118 -0.12825236 35.93261719 -0.15087891 C39.59601346 -0.17256821 43.25932357 -0.18456031 46.92277908 -0.18975449 C48.32226544 -0.19345731 49.72174695 -0.20068777 51.12119675 -0.21146011 C53.07733331 -0.22592225 55.03355609 -0.22681647 56.98974609 -0.22705078 C58.66186661 -0.23371262 58.66186661 -0.23371262 60.36776733 -0.24050903 C63 0 63 0 65 2 C65.22705078 4.15478516 65.22705078 4.15478516 65.1953125 6.7890625 C65.18886719 7.73007813 65.18242187 8.67109375 65.17578125 9.640625 C65.15064453 11.11789063 65.15064453 11.11789063 65.125 12.625 C65.11597656 13.61757812 65.10695313 14.61015625 65.09765625 15.6328125 C65.07404116 18.08878134 65.04110799 20.54427168 65 23 C65.66 23 66.32 23 67 23 C67 23.66 67 24.32 67 25 C66.34 25 65.68 25 65 25 C65 27.31 65 29.62 65 32 C74.57 32 84.14 32 94 32 C94 32.33 94 32.66 94 33 C83.77 33 73.54 33 63 33 C63 22.77 63 12.54 63 2 C42.21 2 21.42 2 0 2 C0 1.34 0 0.68 0 0 Z " fill="#D71562" transform="translate(124,92)"/>
<path d="M0 0 C1.12591553 0.04713135 2.25183105 0.0942627 3.41186523 0.14282227 C5.23427734 0.21533203 5.23427734 0.21533203 7.09350586 0.28930664 C8.37290039 0.34538086 9.65229492 0.40145508 10.97045898 0.45922852 C12.89535156 0.53753906 12.89535156 0.53753906 14.85913086 0.61743164 C18.0422929 0.74759812 21.22517902 0.88257852 24.40795898 1.02172852 C24.40795898 1.35172852 24.40795898 1.68172852 24.40795898 2.02172852 C15.49795898 2.02172852 6.58795898 2.02172852 -2.59204102 2.02172852 C-2.50825195 4.24793945 -2.42446289 6.47415039 -2.33813477 8.76782227 C-2.2608079 10.91564868 -2.18524876 13.06353046 -2.10986328 15.21142578 C-2.05637667 16.7082379 -2.00104231 18.20498514 -1.94384766 19.70166016 C-1.86212146 21.84857184 -1.78696642 23.99562644 -1.71313477 26.14282227 C-1.66600342 27.43631592 -1.61887207 28.72980957 -1.5703125 30.0625 C-1.59204102 33.02172852 -1.59204102 33.02172852 -2.59204102 34.02172852 C-4.81059366 34.10956393 -7.03192598 34.1286746 -9.25219727 34.11938477 C-10.46786377 34.11688721 -11.68353027 34.11438965 -12.93603516 34.11181641 C-14.49314209 34.1027124 -16.05024902 34.0936084 -17.65454102 34.08422852 C-22.58391602 34.06360352 -27.51329102 34.04297852 -32.59204102 34.02172852 C-32.59204102 43.92172852 -32.59204102 53.82172852 -32.59204102 64.02172852 C-33.25204102 64.02172852 -33.91204102 64.02172852 -34.59204102 64.02172852 C-34.59204102 53.46172852 -34.59204102 42.90172852 -34.59204102 32.02172852 C-24.36204102 32.02172852 -14.13204102 32.02172852 -3.59204102 32.02172852 C-3.63163924 21.8645976 -3.63163924 21.8645976 -3.68212891 11.70751953 C-3.68462646 10.45124756 -3.68712402 9.19497559 -3.68969727 7.90063477 C-3.69755249 5.96039429 -3.69755249 5.96039429 -3.70556641 3.98095703 C-3.5539872 0.0297923 -3.5539872 0.0297923 0 0 Z " fill="#DA1F76" transform="translate(393.592041015625,186.978271484375)"/>
<path d="M0 0 C0.66 0.99 1.32 1.98 2 3 C1.34 3.99 0.68 4.98 0 6 C-2.98095703 6.34057617 -2.98095703 6.34057617 -6.7578125 6.29296875 C-7.42086395 6.28872391 -8.08391541 6.28447906 -8.76705933 6.28010559 C-10.88678441 6.26329971 -13.00556188 6.22564701 -15.125 6.1875 C-16.56118419 6.17245549 -17.99738328 6.15876668 -19.43359375 6.14648438 C-22.95603764 6.1133909 -26.47792636 6.0615968 -30 6 C-30.02505615 6.90355225 -30.0501123 7.80710449 -30.07592773 8.73803711 C-30.17087317 12.0796428 -30.27011621 15.42106252 -30.37231445 18.76245117 C-30.4157163 20.2106424 -30.45738744 21.65888654 -30.49731445 23.10717773 C-30.55489062 25.18489559 -30.61862028 27.26234573 -30.68359375 29.33984375 C-30.72025146 30.59144287 -30.75690918 31.84304199 -30.79467773 33.13256836 C-31 36 -31 36 -32 37 C-34.21855264 37.08783542 -36.43988496 37.10694609 -38.66015625 37.09765625 C-39.65685585 37.09553383 -39.65685585 37.09553383 -40.6736908 37.09336853 C-42.80333899 37.08775518 -44.93288339 37.07520054 -47.0625 37.0625 C-48.50325369 37.05748671 -49.94400903 37.05292351 -51.38476562 37.04882812 C-54.92321102 37.03778145 -58.46159539 37.02050792 -62 37 C-62 36.34 -62 35.68 -62 35 C-52.76 34.67 -43.52 34.34 -34 34 C-33.75069289 24.96559516 -33.75069289 24.96559516 -33.52197266 15.93066406 C-33.4863623 14.80370117 -33.45075195 13.67673828 -33.4140625 12.515625 C-33.3826416 11.36352539 -33.3512207 10.21142578 -33.31884766 9.02441406 C-33.01598825 6.15165578 -32.4911762 4.43820389 -31 2 C-30.34 2.33 -29.68 2.66 -29 3 C-26.82325217 3.15469367 -24.6421652 3.25002106 -22.4609375 3.31640625 C-21.15898437 3.35830078 -19.85703125 3.40019531 -18.515625 3.44335938 C-17.13541955 3.48317299 -15.75521117 3.52288522 -14.375 3.5625 C-12.98696585 3.60569407 -11.59894472 3.64930865 -10.2109375 3.69335938 C-6.80739744 3.79972 -3.40378222 3.90174714 0 4 C0 2.68 0 1.36 0 0 Z " fill="#EC4587" transform="translate(358,354)"/>
<path d="M0 0 C0.99 0 1.98 0 3 0 C3 9.9 3 19.8 3 30 C12.24 29.67 21.48 29.34 31 29 C31.33 29.99 31.66 30.98 32 32 C27.74585377 32.02465622 23.49174502 32.04283899 19.23754883 32.05493164 C17.78929927 32.05997101 16.34105483 32.06680253 14.89282227 32.07543945 C12.81525412 32.08752247 10.73775303 32.09323211 8.66015625 32.09765625 C7.40855713 32.10289307 6.15695801 32.10812988 4.86743164 32.11352539 C2 32 2 32 1 31 C0.84111908 28.71011219 0.74861927 26.41556559 0.68359375 24.12109375 C0.66281265 23.4344313 0.64203156 22.74776886 0.62062073 22.04029846 C0.55505857 19.83947065 0.49620985 17.63852025 0.4375 15.4375 C0.39432108 13.94855486 0.350707 12.45962227 0.30664062 10.97070312 C0.1993707 7.31393447 0.09812228 3.65702682 0 0 Z " fill="#E54A87" transform="translate(92,359)"/>
<path d="M0 0 C0.33 0 0.66 0 1 0 C1.33 9.24 1.66 18.48 2 28 C11.57 28.33 21.14 28.66 31 29 C31 29.66 31 30.32 31 31 C20.77 31 10.54 31 0 31 C-1.31168797 28.37662406 -1.12953979 26.41124455 -1.1328125 23.4765625 C-1.13410156 22.373125 -1.13539063 21.2696875 -1.13671875 20.1328125 C-1.13285156 18.97523438 -1.12898438 17.81765625 -1.125 16.625 C-1.12886719 15.47515625 -1.13273437 14.3253125 -1.13671875 13.140625 C-1.13542969 12.03460938 -1.13414062 10.92859375 -1.1328125 9.7890625 C-1.13112061 8.26853271 -1.13112061 8.26853271 -1.12939453 6.71728516 C-1.01489256 4.31274366 -0.68919091 2.29616237 0 0 Z " fill="#ED679B" transform="translate(359,360)"/>
<path d="M0 0 C0.66 0.99 1.32 1.98 2 3 C1.34 3.99 0.68 4.98 0 6 C-2.98095703 6.34057617 -2.98095703 6.34057617 -6.7578125 6.29296875 C-7.97098145 6.28547607 -9.18415039 6.2779834 -10.43408203 6.27026367 C-11.98208496 6.24295166 -13.53008789 6.21563965 -15.125 6.1875 C-20.03375 6.125625 -24.9425 6.06375 -30 6 C-30.33 15.9 -30.66 25.8 -31 36 C-31.33 36 -31.66 36 -32 36 C-32 24.78 -32 13.56 -32 2 C-31.01 2.33 -30.02 2.66 -29 3 C-26.79040747 3.15109093 -24.57699953 3.24873801 -22.36328125 3.31640625 C-21.06455078 3.35830078 -19.76582031 3.40019531 -18.42773438 3.44335938 C-17.05599239 3.48316987 -15.68424756 3.52288216 -14.3125 3.5625 C-12.92902355 3.60570835 -11.54555973 3.64932339 -10.16210938 3.69335938 C-6.77484281 3.79958028 -3.38750201 3.90162358 0 4 C0 2.68 0 1.36 0 0 Z " fill="#D93578" transform="translate(358,354)"/>
<path d="M0 0 C0.33 0 0.66 0 1 0 C1 9.9 1 19.8 1 30 C-8.57 30 -18.14 30 -28 30 C-28 29.67 -28 29.34 -28 29 C-19.09 28.67 -10.18 28.34 -1 28 C-1.03959401 19.15927137 -1.03959401 19.15927137 -1.09008789 10.31860352 C-1.09258545 9.22475342 -1.09508301 8.13090332 -1.09765625 7.00390625 C-1.10551147 5.31503296 -1.10551147 5.31503296 -1.11352539 3.59204102 C-1 1 -1 1 0 0 Z " fill="#DC0A5B" transform="translate(294,95)"/>
<path d="M0 0 C0.66 0 1.32 0 2 0 C2.19616609 4.4579968 2.38047068 8.91640535 2.5625 13.375 C2.61857422 14.64601563 2.67464844 15.91703125 2.73242188 17.2265625 C2.78076172 18.43828125 2.82910156 19.65 2.87890625 20.8984375 C2.9260376 22.01911621 2.97316895 23.13979492 3.02172852 24.29443359 C3 27 3 27 2 29 C1.34 29 0.68 29 0 29 C0 19.43 0 9.86 0 0 Z " fill="#EB4788" transform="translate(124,391)"/>
<path d="M0 0 C6.27 0 12.54 0 19 0 C19.495 15.345 19.495 15.345 20 31 C19.34 31 18.68 31 18 31 C17.13907636 23.74364359 16.90993224 16.60454532 17.03710938 9.30859375 C17.15835269 5.53004229 17.15835269 5.53004229 16 2 C13.28553021 1.68758545 10.66090639 1.48663408 7.9375 1.375 C6.79958008 1.31699219 6.79958008 1.31699219 5.63867188 1.2578125 C3.75952805 1.16326438 1.87979664 1.08053244 0 1 C0 0.67 0 0.34 0 0 Z " fill="#EF0760" transform="translate(104,220)"/>
</svg>
