<?xml version="1.0" encoding="UTF-8"?>
<svg version="1.1" xmlns="http://www.w3.org/2000/svg" width="274" height="91">
<path d="M0 0 C4.85931124 -0.16137934 9.70922778 -0.30044079 14.5690918 -0.38452148 C16.21915279 -0.41958104 17.86899854 -0.4672456 19.51831055 -0.52807617 C33.19877893 -1.0197632 33.19877893 -1.0197632 37.68310547 1.51904297 C39.48531684 3.27039829 40.8314245 4.77973822 42 7 C42 7.66 42 8.32 42 9 C42.66 9 43.32 9 44 9 C45.67648166 10.98912283 47.21434141 13.05868799 48.7578125 15.15234375 C53.30176724 18.89675244 60.90010393 18.13845909 66.5703125 18.24609375 C67.97526738 18.27900091 69.38021514 18.31221303 70.78515625 18.34570312 C72.96170712 18.39316915 75.13822286 18.43773733 77.31494141 18.47680664 C79.44200006 18.5167099 81.56854358 18.56816057 83.6953125 18.62109375 C85.5827417 18.65867798 85.5827417 18.65867798 87.50830078 18.69702148 C90.98066844 18.99832258 93.7234523 19.8698477 97 21 C99.72432078 20.76912536 102.31110519 20.43871442 105 20 C113.92027965 18.70610278 122.38743467 19.35170657 131.3125 20.3125 C132.62412109 20.44333984 133.93574219 20.57417969 135.28710938 20.70898438 C139.19539495 21.10889298 143.09721684 21.5498422 147 22 C148.14460693 22.11553223 149.28921387 22.23106445 150.46850586 22.35009766 C159.61428276 23.41816952 167.94993986 25.95926835 176.61303711 28.94824219 C178.92735234 29.74649985 181.2470365 30.52707253 183.56835938 31.3046875 C193.18212713 34.55003701 202.63138602 38.10116189 212 42 C212.64065399 42.25511353 213.28130798 42.51022705 213.94137573 42.77307129 C218.88155788 44.78401732 218.88155788 44.78401732 220.0625 46.9375 C219.98731787 49.41851016 219.27839167 50.89441372 218 53 C218.66 53.33 219.32 53.66 220 54 C218.7934375 53.9071875 218.7934375 53.9071875 217.5625 53.8125 C214.42531116 53.9776152 212.69928297 54.37402167 209.84228516 55.44091797 C205.21453467 57.03118965 200.81905082 57.70252004 195.9609375 58.1328125 C195.12575089 58.21479889 194.29056427 58.29678528 193.43006897 58.3812561 C190.74599998 58.64082749 188.06079356 58.88397991 185.375 59.125 C183.51309247 59.29839806 181.65119473 59.47190122 179.78930664 59.64550781 C167.75390567 60.74886338 155.72984806 61.72885113 143.64111328 61.94873047 C141.78503497 61.98476083 139.92919654 62.03448441 138.07373047 62.09423828 C123.51051839 62.55874849 110.19404211 61.31194316 96 58 C95.814375 59.2065625 95.814375 59.2065625 95.625 60.4375 C95.41875 61.283125 95.2125 62.12875 95 63 C94.01 63.495 94.01 63.495 93 64 C94.82946433 75.49780656 94.82946433 75.49780656 101.109375 84.578125 C103.51370396 85.52177278 103.51370396 85.52177278 107 86 C106 88 106 88 104.31689453 88.6262207 C95.87310907 90.40728985 87.4554245 90.26429975 78.875 90.1875 C77.27067178 90.17928567 75.66634231 90.17131247 74.06201172 90.16357422 C64.74716989 90.10501915 55.43433966 89.95985238 46.125 89.625 C45.17093262 89.5943042 44.21686523 89.5636084 43.23388672 89.53198242 C38.52247072 89.32340186 34.36590819 88.97170047 30 87 C29.125 84.875 29.125 84.875 29 83 C29.99 82.34 30.98 81.68 32 81 C31.35973877 80.65219482 30.71947754 80.30438965 30.05981445 79.94604492 C27.14343394 78.36098089 24.2279598 76.77425684 21.3125 75.1875 C20.30509766 74.64029297 19.29769531 74.09308594 18.25976562 73.52929688 C17.28330078 72.99755859 16.30683594 72.46582031 15.30078125 71.91796875 C14.40528564 71.43094482 13.50979004 70.9439209 12.5871582 70.44213867 C10 69 10 69 7.63671875 67.34960938 C4.15779882 65.56891777 1.40938098 65.56592392 -2.48828125 65.48828125 C-3.5430793 65.46135445 -3.5430793 65.46135445 -4.6191864 65.43388367 C-6.85023117 65.3799952 -9.0810647 65.34595588 -11.3125 65.3125 C-12.83140947 65.27930776 -14.35029114 65.24481633 -15.86914062 65.20898438 C-19.57922416 65.12428305 -23.2893817 65.05736926 -27 65 C-27.11480713 64.36989014 -27.22961426 63.73978027 -27.34790039 63.09057617 C-27.82697668 60.73609102 -27.82697668 60.73609102 -30.43359375 59.55078125 C-31.42488281 59.14214844 -32.41617188 58.73351563 -33.4375 58.3125 C-34.42621094 57.89613281 -35.41492187 57.47976562 -36.43359375 57.05078125 C-37.70396484 56.53064453 -37.70396484 56.53064453 -39 56 C-39.66 55.67 -40.32 55.34 -41 55 C-42.15300621 50.14734779 -41.99717458 45.84341939 -41 41 C-41.66 40.01 -42.32 39.02 -43 38 C-43.25760279 35.30547479 -43.08900053 32.71451625 -43 30 C-42.360625 29.731875 -41.72125 29.46375 -41.0625 29.1875 C-38.66868314 28.11332248 -38.66868314 28.11332248 -38 25 C-35.10853326 22.26494769 -33.17349883 21.63127887 -29.234375 21.70703125 C-28.34492188 21.71669922 -27.45546875 21.72636719 -26.5390625 21.73632812 C-25.61867188 21.76146484 -24.69828125 21.78660156 -23.75 21.8125 C-22.81414063 21.82603516 -21.87828125 21.83957031 -20.9140625 21.85351562 C-18.60878673 21.88880046 -16.3046894 21.93809719 -14 22 C-14.66 20.02 -15.32 18.04 -16 16 C-8.08 15.505 -8.08 15.505 0 15 C0 10.05 0 5.1 0 0 Z " fill="#383A43" transform="translate(43,1)"/>
<path d="M0 0 C0 0.66 0 1.32 0 2 C-0.99 2.33 -1.98 2.66 -3 3 C-1.35 3.33 0.3 3.66 2 4 C2 4.66 2 5.32 2 6 C2.82113281 5.83886719 3.64226562 5.67773438 4.48828125 5.51171875 C17.21479536 3.65724339 30.64212606 5.00008479 43.4515686 5.63778687 C44.95879012 5.71137185 46.46626736 5.77992843 47.97396851 5.84292603 C58.75153388 6.30539534 68.63083944 8.0218847 79 11 C76.53258609 8.35892646 74.42559084 7.20358597 71 6 C74 4 74 4 75.84765625 4.25 C76.57855469 4.4975 77.30945313 4.745 78.0625 5 C78.95195312 5.29390625 79.84140625 5.5878125 80.7578125 5.890625 C81.82773438 6.25671875 82.89765625 6.6228125 84 7 C85.33012906 7.43413465 86.6609036 7.86629473 87.9921875 8.296875 C96.2119186 10.97208239 104.37475645 13.80044122 112.5 16.75 C113.31911865 17.04358398 114.1382373 17.33716797 114.98217773 17.63964844 C116.12021851 18.05778809 116.12021851 18.05778809 117.28125 18.484375 C117.95220703 18.72897461 118.62316406 18.97357422 119.31445312 19.22558594 C121 20 121 20 123 22 C122.6730244 24.61580479 122.17960932 26.64078137 121 29 C121.66 29.33 122.32 29.66 123 30 C121.7934375 29.9071875 121.7934375 29.9071875 120.5625 29.8125 C117.42531116 29.9776152 115.69928297 30.37402167 112.84228516 31.44091797 C108.21453467 33.03118965 103.81905082 33.70252004 98.9609375 34.1328125 C98.12575089 34.21479889 97.29056427 34.29678528 96.43006897 34.3812561 C93.74599998 34.64082749 91.06079356 34.88397991 88.375 35.125 C86.51309247 35.29839806 84.65119473 35.47190122 82.78930664 35.64550781 C70.75390567 36.74886338 58.72984806 37.72885113 46.64111328 37.94873047 C44.78503497 37.98476083 42.92919654 38.03448441 41.07373047 38.09423828 C26.51051839 38.55874849 13.19404211 37.31194316 -1 34 C-1.12246094 34.79792969 -1.24492187 35.59585938 -1.37109375 36.41796875 C-2 39 -2 39 -4.0625 40.3125 C-5.0215625 40.6528125 -5.0215625 40.6528125 -6 41 C-8.125 34.25 -8.125 34.25 -7 32 C-6.01 32 -5.02 32 -4 32 C-4 30.35 -4 28.7 -4 27 C-3.67 27 -3.34 27 -3 27 C-2.71671785 23.29215146 -2.55744627 19.698875 -3 16 C-7.59820025 11.65725532 -14.00950234 11.74077134 -20.0625 11.4375 C-20.90522461 11.39431641 -21.74794922 11.35113281 -22.61621094 11.30664062 C-33.12512743 10.84639611 -43.64424428 10.94632383 -54.16040039 11.03686523 C-63.81635123 11.1029782 -73.37132335 10.72791886 -83 10 C-83.33 9.01 -83.66 8.02 -84 7 C-88.95 7.33 -93.9 7.66 -99 8 C-99 7.01 -99 6.02 -99 5 C-86.13 5 -73.26 5 -60 5 C-60 3.68 -60 2.36 -60 1 C-59.31164062 1.29648437 -58.62328125 1.59296875 -57.9140625 1.8984375 C-54.76221782 3.08988549 -51.65968312 3.87745143 -48.375 4.625 C-47.24835938 4.88539062 -46.12171875 5.14578125 -44.9609375 5.4140625 C-42.01257092 6.09706235 -42.01257092 6.09706235 -39 6 C-39 5.01 -39 4.02 -39 3 C-37.35 2.67 -35.7 2.34 -34 2 C-34.495 1.01 -34.495 1.01 -35 0 C-24.63355255 -3.45548248 -10.82785583 -0.59916989 0 0 Z " fill="#303136" transform="translate(140,25)"/>
<path d="M0 0 C4.85931124 -0.16137934 9.70922778 -0.30044079 14.5690918 -0.38452148 C16.21915279 -0.41958104 17.86899854 -0.4672456 19.51831055 -0.52807617 C33.19877893 -1.0197632 33.19877893 -1.0197632 37.68310547 1.51904297 C39.48531684 3.27039829 40.8314245 4.77973822 42 7 C42 7.66 42 8.32 42 9 C42.66 9 43.32 9 44 9 C45.67648166 10.98912283 47.21434141 13.05868799 48.7578125 15.15234375 C53.30176724 18.89675244 60.90010393 18.13845909 66.5703125 18.24609375 C67.97526738 18.27900091 69.38021514 18.31221303 70.78515625 18.34570312 C72.96170712 18.39316915 75.13822286 18.43773733 77.31494141 18.47680664 C79.44200006 18.5167099 81.56854358 18.56816057 83.6953125 18.62109375 C85.5827417 18.65867798 85.5827417 18.65867798 87.50830078 18.69702148 C90.98066844 18.99832258 93.7234523 19.8698477 97 21 C99.72432078 20.76912536 102.31110519 20.43871442 105 20 C113.92027965 18.70610278 122.38743467 19.35170657 131.3125 20.3125 C132.62412109 20.44333984 133.93574219 20.57417969 135.28710938 20.70898438 C163.99310843 23.64627642 163.99310843 23.64627642 170 27 C170.33 27.99 170.66 28.98 171 30 C171.99 30.495 172.98 30.99 174 31.5 C174.99 31.995 175.98 32.49 177 33 C177.33 33.99 177.66 34.98 178 36 C173.65181506 35.59739028 169.87399169 35.00886872 165.765625 33.53125 C158.38836057 31.27297305 150.77670053 31.16440843 143.125 30.8125 C141.55694646 30.73239939 139.98891263 30.65191201 138.42089844 30.57104492 C118.15741498 29.36388306 118.15741498 29.36388306 98 31 C98.33 30.01 98.66 29.02 99 28 C97.02 28 95.04 28 93 28 C93.33 27.34 93.66 26.68 94 26 C94.99 26 95.98 26 97 26 C97 25.34 97 24.68 97 24 C92.4793335 23.97531143 87.9587061 23.95714551 83.43798828 23.94506836 C81.89956987 23.94003448 80.36115625 23.93320692 78.82275391 23.92456055 C76.61359474 23.91245361 74.40449874 23.90676231 72.1953125 23.90234375 C71.16085495 23.89460182 71.16085495 23.89460182 70.10549927 23.88670349 C66.42940345 23.83681836 66.42940345 23.83681836 63 25 C63.99 25.99 63.99 25.99 65 27 C62.69 27.33 60.38 27.66 58 28 C58.99 28.66 59.98 29.32 61 30 C61.99 30.99 61.99 30.99 63 32 C54.0767191 31.12516854 44.58191111 30.03585191 37 25 C37.2784375 25.9590625 37.2784375 25.9590625 37.5625 26.9375 C37.7790625 27.9584375 37.7790625 27.9584375 38 29 C37 30 37 30 33.30639648 30.11352539 C31.66128708 30.11336624 30.01617269 30.10766988 28.37109375 30.09765625 C27.07474754 30.09553383 27.07474754 30.09553383 25.75221252 30.09336853 C22.98060708 30.08775239 20.2090812 30.07519719 17.4375 30.0625 C15.5631522 30.05748708 13.68880315 30.05292381 11.81445312 30.04882812 C7.20960456 30.03777772 2.60481579 30.0205023 -2 30 C-2.11214844 30.96164063 -2.22429688 31.92328125 -2.33984375 32.9140625 C-2.66662109 34.44160156 -2.66662109 34.44160156 -3 36 C-5.5625 37.375 -5.5625 37.375 -8 38 C-8 37.34 -8 36.68 -8 36 C-8.66 36 -9.32 36 -10 36 C-10 36.99 -10 37.98 -10 39 C-10.66 39 -11.32 39 -12 39 C-11.49396008 36.83125748 -11.00016187 35.00032373 -10 33 C-15.28 33 -20.56 33 -26 33 C-26.33 34.65 -26.66 36.3 -27 38 C-28.55759343 38.53532823 -30.12138045 39.05265378 -31.6875 39.5625 C-32.55761719 39.85253906 -33.42773438 40.14257812 -34.32421875 40.44140625 C-37.28204436 41.05887933 -39.13404109 40.91851222 -42 40 C-43.60725635 36.78548731 -43.05748185 33.56387464 -43 30 C-42.360625 29.731875 -41.72125 29.46375 -41.0625 29.1875 C-38.66868314 28.11332248 -38.66868314 28.11332248 -38 25 C-35.10853326 22.26494769 -33.17349883 21.63127887 -29.234375 21.70703125 C-28.34492188 21.71669922 -27.45546875 21.72636719 -26.5390625 21.73632812 C-25.61867188 21.76146484 -24.69828125 21.78660156 -23.75 21.8125 C-22.81414063 21.82603516 -21.87828125 21.83957031 -20.9140625 21.85351562 C-18.60878673 21.88880046 -16.3046894 21.93809719 -14 22 C-14.66 20.02 -15.32 18.04 -16 16 C-8.08 15.505 -8.08 15.505 0 15 C0 10.05 0 5.1 0 0 Z " fill="#2D2E35" transform="translate(43,1)"/>
<path d="M0 0 C12.28993573 -0.117171 24.57121169 -0.01401826 36.85693359 0.31838989 C38.27905409 0.35595587 39.701261 0.39038896 41.12353516 0.42160034 C43.14508668 0.46711131 45.16631564 0.52630859 47.1875 0.5859375 C48.35667969 0.6173584 49.52585938 0.6487793 50.73046875 0.68115234 C54.08695127 1.00847957 56.82111731 1.91805089 60 3 C62.72432078 2.76912536 65.31110519 2.43871442 68 2 C76.92027965 0.70610278 85.38743467 1.35170657 94.3125 2.3125 C95.62412109 2.44333984 96.93574219 2.57417969 98.28710938 2.70898438 C126.99310843 5.64627642 126.99310843 5.64627642 133 9 C133.33 9.99 133.66 10.98 134 12 C134.99 12.495 135.98 12.99 137 13.5 C137.99 13.995 138.98 14.49 140 15 C140.33 15.99 140.66 16.98 141 18 C136.65181506 17.59739028 132.87399169 17.00886872 128.765625 15.53125 C121.38836057 13.27297305 113.77670053 13.16440843 106.125 12.8125 C104.55694646 12.73239939 102.98891263 12.65191201 101.42089844 12.57104492 C81.15741498 11.36388306 81.15741498 11.36388306 61 13 C61.33 12.01 61.66 11.02 62 10 C60.02 10 58.04 10 56 10 C56.33 9.34 56.66 8.68 57 8 C57.99 8 58.98 8 60 8 C60 7.34 60 6.68 60 6 C55.4793335 5.97531143 50.9587061 5.95714551 46.43798828 5.94506836 C44.89956987 5.94003448 43.36115625 5.93320692 41.82275391 5.92456055 C39.61359474 5.91245361 37.40449874 5.90676231 35.1953125 5.90234375 C34.50567413 5.89718246 33.81603577 5.89202118 33.10549927 5.88670349 C29.42940345 5.83681836 29.42940345 5.83681836 26 7 C26.66 7.66 27.32 8.32 28 9 C25.69 9.33 23.38 9.66 21 10 C21.99 10.66 22.98 11.32 24 12 C24.66 12.66 25.32 13.32 26 14 C13.96148687 12.81975362 3.60424139 9.90398304 -7 4 C-6.67 3.01 -6.34 2.02 -6 1 C-3.03 1.495 -3.03 1.495 0 2 C0 1.34 0 0.68 0 0 Z " fill="#7F7F7E" transform="translate(80,19)"/>
<path d="M0 0 C0.73089844 0.2475 1.46179688 0.495 2.21484375 0.75 C3.54902344 1.19085937 3.54902344 1.19085937 4.91015625 1.640625 C5.98007813 2.00671875 7.05 2.3728125 8.15234375 2.75 C9.48247281 3.18413465 10.81324735 3.61629473 12.14453125 4.046875 C20.36426235 6.72208239 28.5271002 9.55044122 36.65234375 12.5 C37.4714624 12.79358398 38.29058105 13.08716797 39.13452148 13.38964844 C39.89321533 13.6684082 40.65190918 13.94716797 41.43359375 14.234375 C42.10455078 14.47897461 42.77550781 14.72357422 43.46679688 14.97558594 C45.15234375 15.75 45.15234375 15.75 47.15234375 17.75 C46.82536815 20.36580479 46.33195307 22.39078137 45.15234375 24.75 C45.81234375 25.08 46.47234375 25.41 47.15234375 25.75 C45.94578125 25.6571875 45.94578125 25.6571875 44.71484375 25.5625 C41.57935613 25.72752566 39.8797702 26.11808442 37.02978516 27.1887207 C32.21480029 28.84360818 27.60537903 29.47858946 22.55078125 29.91796875 C21.67007965 30.00250809 20.78937805 30.08704742 19.88198853 30.17414856 C18.03539526 30.349478 16.18832061 30.51980424 14.34082031 30.68530273 C11.52687024 30.93754244 8.71464924 31.20470453 5.90234375 31.47460938 C4.09773744 31.64409587 2.2930522 31.81274445 0.48828125 31.98046875 C-0.34418121 32.0585527 -1.17664368 32.13663666 -2.03433228 32.21708679 C-6.66093477 32.62871786 -11.20283405 32.82659719 -15.84765625 32.75 C-15.84765625 31.76 -15.84765625 30.77 -15.84765625 29.75 C-14.19765625 29.75 -12.54765625 29.75 -10.84765625 29.75 C-10.82053559 28.31260487 -10.80120558 26.87506137 -10.78515625 25.4375 C-10.77355469 24.63699219 -10.76195312 23.83648437 -10.75 23.01171875 C-10.7510777 20.58138666 -10.7510777 20.58138666 -11.84765625 17.75 C0.03234375 17.09 11.91234375 16.43 24.15234375 15.75 C21.51234375 15.42 18.87234375 15.09 16.15234375 14.75 C16.15234375 14.09 16.15234375 13.43 16.15234375 12.75 C12.19234375 12.42 8.23234375 12.09 4.15234375 11.75 C4.15234375 11.09 4.15234375 10.43 4.15234375 9.75 C3.45367187 9.61722656 2.755 9.48445313 2.03515625 9.34765625 C1.12507813 9.17105469 0.215 8.99445312 -0.72265625 8.8125 C-1.62757813 8.63847656 -2.5325 8.46445312 -3.46484375 8.28515625 C-5.84765625 7.75 -5.84765625 7.75 -7.84765625 6.75 C-7.84765625 6.09 -7.84765625 5.43 -7.84765625 4.75 C-4.21765625 5.41 -0.58765625 6.07 3.15234375 6.75 C0.31905388 3.91671013 -1.20212453 3.0308625 -4.84765625 1.75 C-1.84765625 -0.25 -1.84765625 -0.25 0 0 Z " fill="#333235" transform="translate(215.84765625,29.25)"/>
<path d="M0 0 C2.94381299 0.31211511 4.52193097 0.49797858 7 2 C8.95657147 5.29721363 10.00100699 8.84822873 11.125 12.5 C11.73518256 14.43267028 12.36213095 16.3601481 13.0078125 18.28125 C13.40444092 19.56612305 13.40444092 19.56612305 13.80908203 20.87695312 C15.38336954 23.68343204 16.98493602 24.10508687 20 25 C20 25.33 20 25.66 20 26 C18.86699463 25.93361328 17.73398926 25.86722656 16.56665039 25.79882812 C3.6468803 25.06647947 -9.26266365 24.70407045 -22.19946289 24.44775391 C-40.26000151 24.08235275 -40.26000151 24.08235275 -49 23 C-48.34 22.34 -47.68 21.68 -47 21 C-50.96 18.69 -54.92 16.38 -59 14 C-55.23336608 11.48891072 -53.30000796 11.7953487 -48.8046875 11.875 C-47.74436813 11.88635986 -47.74436813 11.88635986 -46.66262817 11.89794922 C-43.64588571 11.93050116 -40.62969111 11.98631389 -37.61328125 12.04101562 C-26.9034588 12.21857813 -17.71292192 12.21181176 -8 7 C-7.34 7 -6.68 7 -6 7 C-6 6.34 -6 5.68 -6 5 C-5.01 4.67 -4.02 4.34 -3 4 C-1.31461399 2.00334686 -1.31461399 2.00334686 0 0 Z " fill="#7A7A7A" transform="translate(127,61)"/>
<path d="M0 0 C7.19851802 -0.11330301 14.26692959 0.32287968 21.4375 0.9375 C22.52482422 1.02451172 23.61214844 1.11152344 24.73242188 1.20117188 C26.28606445 1.33168945 26.28606445 1.33168945 27.87109375 1.46484375 C29.27766235 1.58267212 29.27766235 1.58267212 30.71264648 1.70288086 C33 2 33 2 35 3 C35 6.96 35 10.92 35 15 C23.12 15 11.24 15 -1 15 C-1 3.75 -1 3.75 0 0 Z " fill="#0D0D0E" transform="translate(167,32)"/>
<path d="M0 0 C12.30568832 -0.11732118 24.60924123 -0.03376609 36.91186523 0.26345825 C38.3407961 0.29604271 39.76984964 0.32364454 41.19897461 0.34616089 C43.22798074 0.37951482 45.2566143 0.43354636 47.28515625 0.48828125 C48.45957275 0.51446533 49.63398926 0.54064941 50.84399414 0.56762695 C54.26888365 1.03683708 56.23244746 1.96387902 59 4 C59 4.33 59 4.66 59 5 C46.97443352 5.184693 35.0065343 4.61321066 23 4 C23.45375 4.45375 23.9075 4.9075 24.375 5.375 C25.58333333 6.58333333 26.79166667 7.79166667 28 9 C25.69 9.33 23.38 9.66 21 10 C21.99 10.66 22.98 11.32 24 12 C24.66 12.66 25.32 13.32 26 14 C13.96148687 12.81975362 3.60424139 9.90398304 -7 4 C-6.67 3.01 -6.34 2.02 -6 1 C-3.03 1.495 -3.03 1.495 0 2 C0 1.34 0 0.68 0 0 Z " fill="#999896" transform="translate(80,19)"/>
<path d="M0 0 C1.10255127 0.16371094 2.20510254 0.32742187 3.34106445 0.49609375 C8.41715305 1.12715285 13.43470766 1.1074632 18.54296875 1.0625 C19.54725418 1.05871338 20.55153961 1.05492676 21.58625793 1.05102539 C25.84002985 1.03489103 30.09370142 1.00709875 34.34741211 0.97949219 C48.6021961 0.89512465 62.7681779 1.16343813 77 2 C77 2.99 77 3.98 77 5 C68.03004393 7.43793848 59.08210377 7.26990889 49.875 7.1875 C48.27067178 7.17928567 46.66634231 7.17131247 45.06201172 7.16357422 C35.74716989 7.10501915 26.43433966 6.95985238 17.125 6.625 C16.17093262 6.5943042 15.21686523 6.5636084 14.23388672 6.53198242 C9.52247072 6.32340186 5.36590819 5.97170047 1 4 C0.125 1.875 0.125 1.875 0 0 Z " fill="#38373A" transform="translate(72,84)"/>
<path d="M0 0 C1.46953125 0.01450195 1.46953125 0.01450195 2.96875 0.02929688 C4.49242187 0.06700195 4.49242187 0.06700195 6.046875 0.10546875 C7.59375 0.12577148 7.59375 0.12577148 9.171875 0.14648438 C11.71407292 0.18179268 14.25520723 0.23110839 16.796875 0.29296875 C17.456875 2.27296875 18.116875 4.25296875 18.796875 6.29296875 C8.44084083 12.06559067 -2.85609817 10.24793885 -14.203125 9.29296875 C-13.543125 8.30296875 -12.883125 7.31296875 -12.203125 6.29296875 C-11.543125 6.29296875 -10.883125 6.29296875 -10.203125 6.29296875 C-9.873125 5.30296875 -9.543125 4.31296875 -9.203125 3.29296875 C-6.19498459 0.40276977 -4.11267829 -0.07173276 0 0 Z " fill="#878888" transform="translate(14.203125,22.70703125)"/>
<path d="M0 0 C5.23880078 0.55145271 9.97350697 1.42922093 15 3 C15 3.66 15 4.32 15 5 C15.69867188 4.98839844 16.39734375 4.97679687 17.1171875 4.96484375 C18.02726562 4.95582031 18.93734375 4.94679688 19.875 4.9375 C21.23238281 4.92009766 21.23238281 4.92009766 22.6171875 4.90234375 C25 5 25 5 27 6 C27 6.66 27 7.32 27 8 C28.918125 7.938125 28.918125 7.938125 30.875 7.875 C33.0546875 7.8046875 33.0546875 7.8046875 35 8 C35.66 8.66 36.32 9.32 37 10 C24.34218554 11.24795354 11.70457176 11.10177436 -1 11 C-1.0270043 9.54176788 -1.04639787 8.08339325 -1.0625 6.625 C-1.07410156 5.81289063 -1.08570313 5.00078125 -1.09765625 4.1640625 C-1 2 -1 2 0 0 Z " fill="#0F0F11" transform="translate(205,36)"/>
<path d="M0 0 C0 0.66 0 1.32 0 2 C-0.99 2.33 -1.98 2.66 -3 3 C-0.525 3.495 -0.525 3.495 2 4 C2 5.32 2 6.64 2 8 C1.18366089 7.76120117 1.18366089 7.76120117 0.35083008 7.51757812 C-2.34096294 6.92493079 -4.85800158 6.8037574 -7.61328125 6.71875 C-8.69673828 6.68136719 -9.78019531 6.64398437 -10.89648438 6.60546875 C-12.02376953 6.57066406 -13.15105469 6.53585938 -14.3125 6.5 C-26.81115128 6.11009407 -26.81115128 6.11009407 -31.109375 5.44140625 C-34.06873982 4.98950324 -36.1306904 5.21746102 -39 6 C-39 5.01 -39 4.02 -39 3 C-37.35 2.67 -35.7 2.34 -34 2 C-34.33 1.34 -34.66 0.68 -35 0 C-24.63355255 -3.45548248 -10.82785583 -0.59916989 0 0 Z " fill="#3D3D3E" transform="translate(140,25)"/>
<path d="M0 0 C1.4540625 0.0309375 1.4540625 0.0309375 2.9375 0.0625 C2.751875 0.701875 2.56625 1.34125 2.375 2 C2.230625 2.680625 2.08625 3.36125 1.9375 4.0625 C2.2675 4.3925 2.5975 4.7225 2.9375 5.0625 C3.00976502 6.91537502 3.0213122 8.77083878 3 10.625 C2.99097656 11.63691406 2.98195312 12.64882813 2.97265625 13.69140625 C2.96105469 14.47386719 2.94945312 15.25632812 2.9375 16.0625 C1.91269531 16.03929687 0.88789063 16.01609375 -0.16796875 15.9921875 C-1.52863851 15.97341964 -2.8893162 15.95522053 -4.25 15.9375 C-4.92353516 15.92074219 -5.59707031 15.90398438 -6.29101562 15.88671875 C-10.35057807 15.84711326 -13.41248815 16.26229998 -17.0625 18.0625 C-17.0625 16.4125 -17.0625 14.7625 -17.0625 13.0625 C-16.4025 13.0625 -15.7425 13.0625 -15.0625 13.0625 C-15.0625 12.4025 -15.0625 11.7425 -15.0625 11.0625 C-13.7425 11.0625 -12.4225 11.0625 -11.0625 11.0625 C-10.835625 10.340625 -10.60875 9.61875 -10.375 8.875 C-8.80980392 5.52100839 -6.76557284 3.55764416 -4.0625 1.0625 C-3.0625 0.0625 -3.0625 0.0625 0 0 Z " fill="#17161A" transform="translate(161.0625,31.9375)"/>
<path d="M0 0 C-3.59462331 2.25998595 -6.56595675 2.20868087 -10.75 2.125 C-11.92046875 2.10695313 -13.0909375 2.08890625 -14.296875 2.0703125 C-15.63492188 2.03550781 -15.63492188 2.03550781 -17 2 C-17 2.66 -17 3.32 -17 4 C-23.625 6.875 -23.625 6.875 -27 8 C-27.33 8.99 -27.66 9.98 -28 11 C-29.98 11 -31.96 11 -34 11 C-33.34 10.34 -32.68 9.68 -32 9 C-35.96 6.69 -39.92 4.38 -44 2 C-40.38885988 -0.40742674 -37.82573558 -0.24125854 -33.6640625 -0.16015625 C-32.94769623 -0.15495468 -32.23132996 -0.14975311 -31.49325562 -0.14439392 C-29.20363026 -0.12659261 -26.91445362 -0.09544697 -24.625 -0.0625 C-22.34273034 -0.03480255 -20.06052891 -0.01007038 -17.77816772 0.00868225 C-16.35902088 0.02084955 -14.93990675 0.03836342 -13.52090454 0.06199646 C-10.65598423 0.09075431 -8.02627348 0.00531774 -5.21240234 -0.56420898 C-3 -1 -3 -1 0 0 Z " fill="#6F6F72" transform="translate(112,73)"/>
<path d="M0 0 C11.4063601 0.5424802 22.6745023 1.54001719 34 3 C34 3.99 34 4.98 34 6 C32.2709226 6.02725341 30.54171824 6.04650987 28.8125 6.0625 C27.36810547 6.07990234 27.36810547 6.07990234 25.89453125 6.09765625 C23.14423487 6.00486622 20.67520409 5.62111685 18 5 C18 5.66 18 6.32 18 7 C12.03325384 8.32594359 6.07416385 8.0884587 0 8 C0 5.36 0 2.72 0 0 Z " fill="#525251" transform="translate(166,21)"/>
<path d="M0 0 C-2.22071943 2.55382735 -3.69479056 3.38617539 -7 4 C-8.58211573 4.06548492 -10.16670081 4.08578381 -11.75 4.0625 C-12.54921875 4.05347656 -13.3484375 4.04445313 -14.171875 4.03515625 C-14.77515625 4.02355469 -15.3784375 4.01195312 -16 4 C-16.33 5.65 -16.66 7.3 -17 9 C-18.55759343 9.53532823 -20.12138045 10.05265378 -21.6875 10.5625 C-22.55761719 10.85253906 -23.42773438 11.14257812 -24.32421875 11.44140625 C-27.28204436 12.05887933 -29.13404109 11.91851222 -32 11 C-33.4783226 8.04335481 -33.06032783 5.25770263 -33 2 C-32.37544922 2.01571045 -31.75089844 2.0314209 -31.10742188 2.04760742 C-28.23837583 2.11052044 -25.36947558 2.14916731 -22.5 2.1875 C-21.51773437 2.21263672 -20.53546875 2.23777344 -19.5234375 2.26367188 C-13.49824033 2.32392385 -5.03401606 -1.67800535 0 0 Z " fill="#313538" transform="translate(33,30)"/>
<path d="M0 0 C1.98 0.33 3.96 0.66 6 1 C6 1.66 6 2.32 6 3 C13.425 3.99 13.425 3.99 21 5 C21.495 6.485 21.495 6.485 22 8 C21.21496094 8.06058594 20.42992187 8.12117188 19.62109375 8.18359375 C14.04638852 8.62820214 8.52359384 9.12124643 3 10 C3.33 9.01 3.66 8.02 4 7 C2.02 7 0.04 7 -2 7 C-1.67 6.34 -1.34 5.68 -1 5 C-0.01 5 0.98 5 2 5 C2 4.34 2 3.68 2 3 C-2.48404564 2.975241 -6.96805481 2.95711201 -11.45214844 2.94506836 C-12.97689507 2.94004635 -14.50163691 2.9332275 -16.02636719 2.92456055 C-18.22071519 2.91240151 -20.4149994 2.90675032 -22.609375 2.90234375 C-23.92905273 2.89710693 -25.24873047 2.89187012 -26.60839844 2.88647461 C-29.30948418 2.97688671 -31.4500616 3.18118645 -34 4 C-34.33 3.01 -34.66 2.02 -35 1 C-23.45 1 -11.9 1 0 1 C0 0.67 0 0.34 0 0 Z " fill="#707072" transform="translate(138,22)"/>
<path d="M0 0 C5.76832532 0.60150986 10.81150767 2.14853191 16.25 4.125 C17.10956299 4.4334082 17.96912598 4.74181641 18.85473633 5.05957031 C20.65563063 5.70716396 22.45550544 6.35759912 24.25439453 7.01074219 C26.99508739 7.99822996 29.74411897 8.95852254 32.49609375 9.9140625 C34.22678794 10.52540383 35.95726499 11.1373603 37.6875 11.75 C38.50702148 12.03117676 39.32654297 12.31235352 40.17089844 12.60205078 C42.14782481 13.31342227 44.08006317 14.14669474 46 15 C46.495 16.485 46.495 16.485 47 18 C39.69368622 17.38957533 32.74782244 15.516657 25.68896484 13.61645508 C23.61133497 13.05883239 21.53053913 12.51436805 19.44921875 11.97070312 C18.12479106 11.61797108 16.80056449 11.26448282 15.4765625 10.91015625 C13.683396 10.43267944 13.683396 10.43267944 11.85400391 9.94555664 C9 9 9 9 7 7 C7.969375 7.144375 8.93875 7.28875 9.9375 7.4375 C12.87144971 7.85844988 15.80754319 8.21260132 18.75390625 8.53515625 C19.55256104 8.62289307 20.35121582 8.71062988 21.17407227 8.80102539 C21.77662842 8.86668701 22.37918457 8.93234863 23 9 C22.37432129 8.79842285 21.74864258 8.5968457 21.10400391 8.38916016 C18.27559649 7.47404079 15.45030667 6.54964582 12.625 5.625 C11.64015625 5.30789062 10.6553125 4.99078125 9.640625 4.6640625 C8.69960937 4.3546875 7.75859375 4.0453125 6.7890625 3.7265625 C5.91975098 3.44377441 5.05043945 3.16098633 4.15478516 2.86962891 C2 2 2 2 0 0 Z " fill="#7A7B78" transform="translate(215,30)"/>
<path d="M0 0 C6.26212704 -0.07640543 12.52413271 -0.12874837 18.78662109 -0.16479492 C20.91459648 -0.17983076 23.04254114 -0.20026483 25.17041016 -0.22631836 C28.23868417 -0.26293089 31.30654649 -0.27977881 34.375 -0.29296875 C35.31802979 -0.30845261 36.26105957 -0.32393646 37.23266602 -0.33988953 C43.1897882 -0.3413888 47.57699324 0.48244868 53 3 C55 5 55 5 55 8 C52.0625 7.625 52.0625 7.625 49 7 C48.505 6.01 48.505 6.01 48 5 C44.07422878 3.69140959 40.23209466 3.67222024 36.1328125 3.5 C34.82520462 3.4390918 34.82520462 3.4390918 33.49118042 3.37695312 C30.70262146 3.24725126 27.91386075 3.12303091 25.125 3 C21.46072037 2.83773472 17.79672681 2.67029086 14.1328125 2.5 C13.29307892 2.46455078 12.45334534 2.42910156 11.58816528 2.39257812 C7.62969204 2.20867178 3.86813333 1.93986535 0 1 C0 0.67 0 0.34 0 0 Z " fill="#838488" transform="translate(83,36)"/>
<path d="M0 0 C9.24 0 18.48 0 28 0 C28 0.33 28 0.66 28 1 C18.1 1.495 18.1 1.495 8 2 C12.26164062 2.18175781 12.26164062 2.18175781 16.609375 2.3671875 C19.36306058 2.49083092 22.11658692 2.61757922 24.87011719 2.74462891 C26.78273324 2.83121224 28.69549814 2.91457073 30.60839844 2.99462891 C33.35918008 3.11031598 36.10921655 3.23761943 38.859375 3.3671875 C39.71368103 3.40061249 40.56798706 3.43403748 41.44818115 3.46847534 C42.24870911 3.50836578 43.04923706 3.54825623 43.87402344 3.58935547 C44.57573669 3.62044403 45.27744995 3.65153259 46.00042725 3.68356323 C48.29807456 4.04717095 49.97956285 4.87001197 52 6 C52 6.66 52 7.32 52 8 C53.98 8.33 55.96 8.66 58 9 C54.79219034 10.07165134 53.15091648 9.95821741 50.0625 8.625 C44.3035906 6.17488745 39.08740871 5.89816829 32.875 6 C26.15178323 6.05498283 19.46441962 5.91499059 12.75 5.5625 C11.9647998 5.52318359 11.17959961 5.48386719 10.37060547 5.44335938 C6.18312841 5.20826025 2.12927107 4.78245742 -2 4 C-1.34 2.68 -0.68 1.36 0 0 Z " fill="#4F5056" transform="translate(80,35)"/>
<path d="M0 0 C4.18087152 -0.07441989 8.3613873 -0.12872818 12.54272461 -0.16479492 C13.96369141 -0.1798376 15.38461213 -0.20027704 16.80541992 -0.22631836 C18.85346886 -0.26290347 20.9009015 -0.27977097 22.94921875 -0.29296875 C24.79519653 -0.31653442 24.79519653 -0.31653442 26.6784668 -0.34057617 C30.254217 0.02606635 32.14557431 0.85960373 35 3 C35 3.33 35 3.66 35 4 C27.08382136 4.11454278 19.21670171 3.98419612 11.3125 3.5625 C10.14581787 3.50364624 10.14581787 3.50364624 8.95556641 3.44360352 C5.76996417 3.26085756 3.04183217 3.01394406 0 2 C0 1.34 0 0.68 0 0 Z " fill="#7A7A7A" transform="translate(104,20)"/>
<path d="M0 0 C2.25 0.3125 2.25 0.3125 4 1 C3.67 2.32 3.34 3.64 3 5 C10.59 5 18.18 5 26 5 C26 5.33 26 5.66 26 6 C21.02387127 6.17048421 16.04754326 6.3306621 11.07080078 6.48217773 C9.38549347 6.53483358 7.70026466 6.59007979 6.01513672 6.64819336 C-5.07134234 7.0283201 -15.93894917 6.92015508 -27 6 C-27 5.67 -27 5.34 -27 5 C-25.98631348 4.93268677 -25.98631348 4.93268677 -24.95214844 4.86401367 C-21.88362413 4.65240039 -18.81699567 4.42018127 -15.75 4.1875 C-14.68652344 4.11724609 -13.62304688 4.04699219 -12.52734375 3.97460938 C-10.99013672 3.85375977 -10.99013672 3.85375977 -9.421875 3.73046875 C-8.00793457 3.62835083 -8.00793457 3.62835083 -6.56542969 3.52416992 C-3.66986064 2.93254575 -2.28053452 1.8160842 0 0 Z " fill="#21242A" transform="translate(84,29)"/>
<path d="M0 0 C3.3 0 6.6 0 10 0 C10.66 1.98 11.32 3.96 12 6 C1.64396583 11.77262192 -9.65297317 9.9549701 -21 9 C-20.34 8.01 -19.68 7.02 -19 6 C-18.34 6 -17.68 6 -17 6 C-16.67 5.01 -16.34 4.02 -16 3 C-15.34 3.33 -14.68 3.66 -14 4 C-14.99 5.485 -14.99 5.485 -16 7 C-12.89614789 7.11613204 -9.79285338 7.18722029 -6.6875 7.25 C-5.80642578 7.28351562 -4.92535156 7.31703125 -4.01757812 7.3515625 C-1.61425792 7.3881149 0.62705551 7.38755991 3 7 C5.02584088 5.13805818 5.02584088 5.13805818 6 3 C6.66 3 7.32 3 8 3 C8 2.34 8 1.68 8 1 C5.36 1 2.72 1 0 1 C0 0.67 0 0.34 0 0 Z " fill="#515457" transform="translate(21,23)"/>
<path d="M0 0 C10.47829358 -0.16744804 20.85884102 0.36039619 31.3125 1 C32.93943236 1.09670407 34.56638544 1.19306043 36.19335938 1.2890625 C40.12915582 1.52204466 44.06464431 1.75969245 48 2 C45.55981995 4.44018005 44.22936904 4.25779062 40.89550781 4.27685547 C40.18749023 4.26799316 39.47947266 4.25913086 38.75 4.25 C38.01362305 4.24758301 37.27724609 4.24516602 36.51855469 4.24267578 C29.10701244 4.14309946 21.75801914 3.41126419 14.40136719 2.53613281 C7.97107741 1.77420079 7.97107741 1.77420079 2 4 C1.34 4.66 0.68 5.32 0 6 C-0.99 5.67 -1.98 5.34 -3 5 C-2.505 4.360625 -2.01 3.72125 -1.5 3.0625 C0.09802862 1.29025661 0.09802862 1.29025661 0 0 Z " fill="#373738" transform="translate(155,30)"/>
<path d="M0 0 C2.31 0.33 4.62 0.66 7 1 C7 1.99 7 2.98 7 4 C7.82201904 3.99476318 8.64403809 3.98952637 9.4909668 3.98413086 C13.22313673 3.96331607 16.95529442 3.95032545 20.6875 3.9375 C21.98107422 3.92912109 23.27464844 3.92074219 24.60742188 3.91210938 C26.47817383 3.90727539 26.47817383 3.90727539 28.38671875 3.90234375 C29.53358154 3.89710693 30.68044434 3.89187012 31.86206055 3.88647461 C34.71535171 3.9897019 37.22143832 4.38899522 40 5 C41.3268766 5.1337853 42.65683152 5.24063269 43.98828125 5.31640625 C44.69404297 5.35830078 45.39980469 5.40019531 46.12695312 5.44335938 C46.84818359 5.48267578 47.56941406 5.52199219 48.3125 5.5625 C49.05306641 5.60568359 49.79363281 5.64886719 50.55664062 5.69335938 C52.37091464 5.79870432 54.1854355 5.89978316 56 6 C56 6.33 56 6.66 56 7 C43.26507588 7.10558292 30.54075447 7.09131984 17.8125 6.625 C16.81669922 6.59414307 15.82089844 6.56328613 14.79492188 6.53149414 C9.90311342 6.32907158 5.52231557 6.07922555 1 4 C0.125 1.875 0.125 1.875 0 0 Z " fill="#232226" transform="translate(72,84)"/>
<path d="M0 0 C0 0.66 0 1.32 0 2 C-3.04135336 3.01378445 -5.11509013 3.12901562 -8.296875 3.1328125 C-9.3384375 3.13410156 -10.38 3.13539062 -11.453125 3.13671875 C-12.54109375 3.13285156 -13.6290625 3.12898438 -14.75 3.125 C-15.8225 3.12886719 -16.895 3.13273437 -18 3.13671875 C-28.90967873 3.12328319 -28.90967873 3.12328319 -34 2 C-34.33 1.34 -34.66 0.68 -35 0 C-24.63355255 -3.45548248 -10.82785583 -0.59916989 0 0 Z " fill="#232323" transform="translate(140,25)"/>
<path d="M0 0 C1.98 0 3.96 0 6 0 C6 0.66 6 1.32 6 2 C6.99 2.33 7.98 2.66 9 3 C7.68 3 6.36 3 5 3 C5.45375 3.45375 5.9075 3.9075 6.375 4.375 C7.58333333 5.58333333 8.79166667 6.79166667 10 8 C7.69 8.33 5.38 8.66 3 9 C3.99 9.66 4.98 10.32 6 11 C6.66 11.66 7.32 12.32 8 13 C6.741875 12.87625 5.48375 12.7525 4.1875 12.625 C3.47980469 12.55539063 2.77210937 12.48578125 2.04296875 12.4140625 C0 12 0 12 -3 10 C-2.39009109 6.44219804 -1.4216319 3.3171411 0 0 Z " fill="#A7A8A4" transform="translate(98,20)"/>
<path d="M0 0 C5.04746412 0.62524266 10.1360141 0.70435114 15.21533203 0.89111328 C16.31941406 0.93429688 17.42349609 0.97748047 18.56103516 1.02197266 C21.25820388 1.12705715 23.95544906 1.22920742 26.65283203 1.32861328 C19.38010887 6.17709539 7.19647892 4.97841178 -1.34716797 4.32861328 C-4.65722436 3.62746833 -7.24603488 2.70689465 -10.34716797 1.32861328 C-6.64615663 -0.82846216 -4.22959794 -0.5886241 0 0 Z " fill="#18191A" transform="translate(112.34716796875,29.67138671875)"/>
<path d="M0 0 C1.48206495 0.254496 2.96068615 0.52911762 4.4375 0.8125 C5.67306641 1.03873047 5.67306641 1.03873047 6.93359375 1.26953125 C7.95646484 1.63111328 7.95646484 1.63111328 9 2 C9.33 2.99 9.66 3.98 10 5 C10.99 5.495 11.98 5.99 13 6.5 C13.99 6.995 14.98 7.49 16 8 C16.33 8.99 16.66 9.98 17 11 C11.49191603 10.40984815 6.35121931 9.43336231 1 8 C0.67 5.36 0.34 2.72 0 0 Z " fill="#646463" transform="translate(204,26)"/>
<path d="M0 0 C1.65 0.33 3.3 0.66 5 1 C4.67 5.95 4.34 10.9 4 16 C7.3 16 10.6 16 14 16 C10.64880481 18.23413013 9.5822245 18.23847762 5.67578125 18.1953125 C4.13374023 18.18564453 4.13374023 18.18564453 2.56054688 18.17578125 C1.48869141 18.15902344 0.41683594 18.14226563 -0.6875 18.125 C-1.77095703 18.11597656 -2.85441406 18.10695313 -3.97070312 18.09765625 C-6.6473571 18.0740734 -9.32356797 18.04116126 -12 18 C-12 17.34 -12 16.68 -12 16 C-10.04174127 15.97305149 -8.08337774 15.95362782 -6.125 15.9375 C-5.03445312 15.92589844 -3.94390625 15.91429687 -2.8203125 15.90234375 C0 16 0 16 2 17 C1.85764543 15.27054347 1.71095618 13.54144346 1.5625 11.8125 C1.48128906 10.84957031 1.40007812 9.88664062 1.31640625 8.89453125 C1.02331669 6.21330454 0.55732799 3.63677022 0 1 C0 0.67 0 0.34 0 0 Z " fill="#2B2A2D" transform="translate(162,31)"/>
<path d="M0 0 C0 0.99 0 1.98 0 3 C-13.33880305 4.09848966 -26.62329823 4.10890351 -40 4 C-40 3.67 -40 3.34 -40 3 C-34.72 3 -29.44 3 -24 3 C-24 2.34 -24 1.68 -24 1 C-21.50018262 0.8301095 -19.00020399 0.66402047 -16.5 0.5 C-15.80390625 0.45230469 -15.1078125 0.40460937 -14.390625 0.35546875 C-9.58304475 0.04386633 -4.81771254 -0.04340282 0 0 Z " fill="#272729" transform="translate(200,59)"/>
<path d="M0 0 C0.33 0 0.66 0 1 0 C1 1.98 1 3.96 1 6 C1.99 6 2.98 6 4 6 C4.33 5.34 4.66 4.68 5 4 C5 4.99 5 5.98 5 7 C6.70840281 5.36587557 7.93453047 4.13093906 9 2 C11.06640625 1.5859375 11.06640625 1.5859375 13.5625 1.375 C14.38878906 1.30023438 15.21507812 1.22546875 16.06640625 1.1484375 C17.02353516 1.07496094 17.02353516 1.07496094 18 1 C17.625 3.8125 17.625 3.8125 16 7 C11.08970011 9.47711014 6.34092589 10.64981481 1 9 C-0.4783226 6.04335481 -0.06032783 3.25770263 0 0 Z " fill="#282C31" transform="translate(0,32)"/>
<path d="M0 0 C3.23771366 1.10376602 5.44151841 2.10642946 7.2890625 5.0625 C9.09587524 9.01409044 10 11.57954463 10 16 C7.67578125 15.8671875 7.67578125 15.8671875 5 15 C3.41796875 12.3828125 3.41796875 12.3828125 2.1875 9.125 C1.76855469 8.05507812 1.34960938 6.98515625 0.91796875 5.8828125 C0 3 0 3 0 0 Z " fill="#9F9F9F" transform="translate(131,69)"/>
<path d="M0 0 C0.66 0 1.32 0 2 0 C2.53229326 1.26607607 3.05044544 2.53810412 3.5625 3.8125 C3.85253906 4.52019531 4.14257812 5.22789063 4.44140625 5.95703125 C5 8 5 8 4 11 C-2.93 10.505 -2.93 10.505 -10 10 C-9.67 9.34 -9.34 8.68 -9 8 C-6.67843403 7.59270772 -4.3431213 7.25561323 -2 7 C-3.32 6.34 -4.64 5.68 -6 5 C-4.68 5 -3.36 5 -2 5 C-1.34 3.35 -0.68 1.7 0 0 Z " fill="#81817F" transform="translate(130,72)"/>
<path d="M0 0 C-3.61218692 2.25663373 -6.67833218 2.26622216 -10.8828125 2.30859375 C-12.2278693 2.33373336 -13.57292128 2.35913165 -14.91796875 2.38476562 C-17.02912351 2.41360115 -19.1401953 2.43763433 -21.25146484 2.45629883 C-23.29566132 2.4778841 -25.33893359 2.51728911 -27.3828125 2.55859375 C-29.21416748 2.57877563 -29.21416748 2.57877563 -31.08251953 2.59936523 C-32.04528809 2.73157471 -33.00805664 2.86378418 -34 3 C-34.99 4.485 -34.99 4.485 -36 6 C-38.66666667 4.66666667 -41.33333333 3.33333333 -44 2 C-40.38885988 -0.40742674 -37.82573558 -0.24125854 -33.6640625 -0.16015625 C-32.94769623 -0.15495468 -32.23132996 -0.14975311 -31.49325562 -0.14439392 C-29.20363026 -0.12659261 -26.91445362 -0.09544697 -24.625 -0.0625 C-22.34273034 -0.03480255 -20.06052891 -0.01007038 -17.77816772 0.00868225 C-16.35902088 0.02084955 -14.93990675 0.03836342 -13.52090454 0.06199646 C-10.65598423 0.09075431 -8.02627348 0.00531774 -5.21240234 -0.56420898 C-3 -1 -3 -1 0 0 Z " fill="#646468" transform="translate(112,73)"/>
<path d="M0 0 C0.66 0 1.32 0 2 0 C2 0.99 2 1.98 2 3 C2.99 3 3.98 3 5 3 C5.33 2.34 5.66 1.68 6 1 C6 1.99 6 2.98 6 4 C3.69 4 1.38 4 -1 4 C-1 4.66 -1 5.32 -1 6 C-11 6 -11 6 -13.125 5.4375 C-15.07591269 4.77180827 -15.07591269 4.77180827 -17 6 C-17 4.68 -17 3.36 -17 2 C-8.27272727 0.69090909 -8.27272727 0.69090909 -5 2 C-4.67 2.33 -4.34 2.66 -4 3 C-3.34 2.67 -2.68 2.34 -2 2 C-1.34 2.33 -0.68 2.66 0 3 C0 2.01 0 1.02 0 0 Z " fill="#2E3034" transform="translate(81,15)"/>
<path d="M0 0 C4.66839378 0.61658031 4.66839378 0.61658031 7 2 C8.52843653 4.88294753 9.31308379 7.82055924 10 11 C9.01 11 8.02 11 7 11 C6.67 10.01 6.34 9.02 6 8 C0.06 7.01 0.06 7.01 -6 6 C-4 4 -2 2 0 0 Z " fill="#6B6A6B" transform="translate(127,61)"/>
<path d="M0 0 C21.87654321 1.87654321 21.87654321 1.87654321 24 4 C25.34747084 4.23075082 26.70377565 4.41153063 28.0625 4.5625 C29.361875 4.706875 30.66125 4.85125 32 5 C32 5.33 32 5.66 32 6 C28.04 6 24.08 6 20 6 C20 5.67 20 5.34 20 5 C13.07 4.67 6.14 4.34 -1 4 C-0.67 2.68 -0.34 1.36 0 0 Z " fill="#333437" transform="translate(88,30)"/>
<path d="M0 0 C0.66 0.33 1.32 0.66 2 1 C9.86750756 4.44683963 17.81422898 7.40203367 26 10 C26 10.33 26 10.66 26 11 C23.34537359 10.76678983 20.69183405 10.52706165 18.0390625 10.2734375 C16.14049604 10.10261533 14.23922114 9.95761056 12.3359375 9.8515625 C9.9375 9.6875 9.9375 9.6875 6 9 C5.30471827 7.68136224 4.63902883 6.34679782 4 5 C2.30049572 3.89506665 2.30049572 3.89506665 0.375 3.25 C-0.73875 2.8375 -1.8525 2.425 -3 2 C-2.01 1.34 -1.02 0.68 0 0 Z " fill="#434442" transform="translate(214,29)"/>
<path d="M0 0 C1.98 0.33 3.96 0.66 6 1 C5.34 1.99 4.68 2.98 4 4 C1.49411498 4.1837097 -0.7465336 4.1840735 -3.23828125 4.0390625 C-4.31495308 3.99584366 -4.31495308 3.99584366 -5.41337585 3.95175171 C-7.71397619 3.85724434 -10.01295429 3.74222326 -12.3125 3.625 C-14.60131813 3.51810663 -16.89018649 3.41563646 -19.17948914 3.31967163 C-20.60446144 3.25891588 -22.02916543 3.19137755 -23.45344543 3.11611938 C-27.14068378 2.94818593 -30.41708783 3.08924405 -34 4 C-34.33 3.01 -34.66 2.02 -35 1 C-23.45 1 -11.9 1 0 1 C0 0.67 0 0.34 0 0 Z " fill="#4C4C4B" transform="translate(138,22)"/>
<path d="M0 0 C0 0.99 0 1.98 0 3 C-0.99 3 -1.98 3 -3 3 C-3 3.66 -3 4.32 -3 5 C-4.98 5 -6.96 5 -9 5 C-9 4.34 -9 3.68 -9 3 C-12.96 2.67 -16.92 2.34 -21 2 C-14.49518235 -1.25240882 -7.08224315 -2.36074772 0 0 Z " fill="#6E6F6A" transform="translate(165,21)"/>
<path d="M0 0 C3.3 0 6.6 0 10 0 C10 0.33 10 0.66 10 1 C8.7934375 1.185625 8.7934375 1.185625 7.5625 1.375 C6.716875 1.58125 5.87125 1.7875 5 2 C4.67 2.66 4.34 3.32 4 4 C5.32 4.33 6.64 4.66 8 5 C7.01 5.495 7.01 5.495 6 6 C6.33 6.66 6.66 7.32 7 8 C3.08428299 9.305239 1.96107003 8.32239848 -1.6875 6.5625 C-2.68136719 6.08941406 -3.67523438 5.61632812 -4.69921875 5.12890625 C-5.45847656 4.75636719 -6.21773438 4.38382813 -7 4 C-6.67 3.01 -6.34 2.02 -6 1 C-3.03 1.495 -3.03 1.495 0 2 C0 1.34 0 0.68 0 0 Z " fill="#92918F" transform="translate(80,19)"/>
<path d="M0 0 C0.350625 0.639375 0.70125 1.27875 1.0625 1.9375 C3.77351979 4.8234243 6.15134437 4.58764404 10 5 C10.99 5.66 11.98 6.32 13 7 C6.73 6.67 0.46 6.34 -6 6 C-6 5.34 -6 4.68 -6 4 C-13.92 4 -21.84 4 -30 4 C-30 3.67 -30 3.34 -30 3 C-20.1 3 -10.2 3 0 3 C0 2.01 0 1.02 0 0 Z " fill="#696969" transform="translate(134,80)"/>
<path d="M0 0 C9.24 0 18.48 0 28 0 C28 0.33 28 0.66 28 1 C18.1 1.495 18.1 1.495 8 2 C13.28 2.33 18.56 2.66 24 3 C24 3.33 24 3.66 24 4 C15.42 4 6.84 4 -2 4 C-1.34 2.68 -0.68 1.36 0 0 Z " fill="#595A60" transform="translate(80,35)"/>
<path d="M0 0 C5.27069159 0.06588364 10.47671289 1.90793626 15.125 4.3125 C15.455 5.3025 15.785 6.2925 16.125 7.3125 C0.69642857 5.88392857 0.69642857 5.88392857 -3.875 1.3125 C-2.875 0.3125 -2.875 0.3125 0 0 Z " fill="#C5C6C5" transform="translate(245.875,40.6875)"/>
<path d="M0 0 C0.66 0 1.32 0 2 0 C2 0.66 2 1.32 2 2 C1.34 2 0.68 2 0 2 C0 1.34 0 0.68 0 0 Z M-8 1 C-6 2 -6 2 -5 3 C-3.68 3 -2.36 3 -1 3 C-1 3.99 -1 4.98 -1 6 C0.98 6 2.96 6 5 6 C5 6.66 5 7.32 5 8 C2.03 7.505 2.03 7.505 -1 7 C-1.33 7.66 -1.66 8.32 -2 9 C-2.99 9.495 -2.99 9.495 -4 10 C-5.13350534 12.01669827 -5.13350534 12.01669827 -6 14 C-6.33 14 -6.66 14 -7 14 C-7.1953125 12.01432292 -7.390625 10.02864583 -7.5859375 8.04296875 C-7.92665391 5.70011858 -7.92665391 5.70011858 -10 3 C-9.34 2.34 -8.68 1.68 -8 1 Z " fill="#25262A" transform="translate(145,35)"/>
<path d="M0 0 C2.45840605 -0.02691685 4.91651882 -0.04679802 7.375 -0.0625 C8.07367188 -0.07087891 8.77234375 -0.07925781 9.4921875 -0.08789062 C14.7734375 -0.11328125 14.7734375 -0.11328125 17 1 C17 1.99 17 2.98 17 4 C13.87293041 5.5635348 10.42017557 5.39958487 7 5 C6.01 4.34 5.02 3.68 4 3 C2.34450469 2.61500109 0.6777567 2.27206865 -1 2 C-0.67 1.34 -0.34 0.68 0 0 Z " fill="#060607" transform="translate(185,34)"/>
<path d="M0 0 C1.32 0.66 2.64 1.32 4 2 C4 3.32 4 4.64 4 6 C4.99 6.33 5.98 6.66 7 7 C5.68 7 4.36 7 3 7 C2.9175 7.78375 2.835 8.5675 2.75 9.375 C2 12 2 12 -0.0625 13.3125 C-0.701875 13.539375 -1.34125 13.76625 -2 14 C-4.125 7.25 -4.125 7.25 -3 5 C-2.01 5 -1.02 5 0 5 C0 3.35 0 1.7 0 0 Z " fill="#2A292D" transform="translate(136,52)"/>
<path d="M0 0 C0.99 0.66 1.98 1.32 3 2 C1.02 2.66 -0.96 3.32 -3 4 C-3 4.33 -3 4.66 -3 5 C-0.69 5.33 1.62 5.66 4 6 C0.59659693 8.09440189 -2.04437178 8.25797575 -6 8 C-6.66 7.67 -7.32 7.34 -8 7 C-8.33 7.66 -8.66 8.32 -9 9 C-8.65547129 3.65980498 -8.65547129 3.65980498 -8 1 C-5.26096931 -1.36123335 -3.288682 -1.27303819 0 0 Z " fill="#494B50" transform="translate(10,42)"/>
<path d="M0 0 C3.04172719 -0.0271045 6.08320997 -0.04688964 9.125 -0.0625 C9.9809375 -0.07087891 10.836875 -0.07925781 11.71875 -0.08789062 C16.26678411 -0.10538306 20.52383164 0.06807642 25 1 C25 2.32 25 3.64 25 5 C24.505 4.855625 24.01 4.71125 23.5 4.5625 C20.66642489 3.9249456 17.82820958 3.58900314 14.9453125 3.25390625 C13 3 13 3 10.4375 2.4375 C7.2717272 1.86928437 4.2085987 1.9370863 1 2 C0.67 1.34 0.34 0.68 0 0 Z " fill="#484849" transform="translate(117,28)"/>
<path d="M0 0 C5.28 0 10.56 0 16 0 C15.67 0.99 15.34 1.98 15 3 C11.37 3.66 7.74 4.32 4 5 C4 4.34 4 3.68 4 3 C2.35 3 0.7 3 -1 3 C-0.67 2.01 -0.34 1.02 0 0 Z " fill="#53555E" transform="translate(17,34)"/>
<path d="M0 0 C0.33 0.66 0.66 1.32 1 2 C1.66 2 2.32 2 3 2 C3.33 1.34 3.66 0.68 4 0 C4 1.32 4 2.64 4 4 C4.66 4 5.32 4 6 4 C6 3.01 6 2.02 6 1 C8.31 1 10.62 1 13 1 C13.33 3.64 13.66 6.28 14 9 C12.04130597 8.18836991 10.08305564 7.37566899 8.125 6.5625 C7.03445312 6.11003906 5.94390625 5.65757813 4.8203125 5.19140625 C3.19441376 4.50456537 1.57868226 3.78934113 0 3 C0 2.01 0 1.02 0 0 Z " fill="#323234" transform="translate(2,53)"/>
<path d="M0 0 C2.97 0 5.94 0 9 0 C7.68 0.33 6.36 0.66 5 1 C4.87882812 1.71027344 4.75765625 2.42054687 4.6328125 3.15234375 C4.38144531 4.53099609 4.38144531 4.53099609 4.125 5.9375 C3.96257812 6.85402344 3.80015625 7.77054688 3.6328125 8.71484375 C3.42398438 9.46894531 3.21515625 10.22304688 3 11 C0.36749612 12.31625194 -0.80179056 11.74813658 -3.625 11.0625 C-4.44226563 10.86785156 -5.25953125 10.67320313 -6.1015625 10.47265625 C-6.72804688 10.31667969 -7.35453125 10.16070312 -8 10 C-7.401875 9.855625 -6.80375 9.71125 -6.1875 9.5625 C-4.43849596 9.1127561 -2.71322977 8.57107659 -1 8 C-0.67 7.34 -0.34 6.68 0 6 C-0.99 5.67 -1.98 5.34 -3 5 C-1.35 5 0.3 5 2 5 C2 4.01 2 3.02 2 2 C1.34 1.34 0.68 0.68 0 0 Z " fill="#858582" transform="translate(93,19)"/>
<path d="M0 0 C0.66 0.33 1.32 0.66 2 1 C1.01 2.485 1.01 2.485 0 4 C1.08667969 3.98259766 1.08667969 3.98259766 2.1953125 3.96484375 C7.24783323 3.91768689 12.03378767 3.92622436 17 5 C17 5.66 17 6.32 17 7 C9.74 6.67 2.48 6.34 -5 6 C-4.34 5.01 -3.68 4.02 -3 3 C-2.34 3 -1.68 3 -1 3 C-0.67 2.01 -0.34 1.02 0 0 Z " fill="#727374" transform="translate(5,26)"/>
<path d="M0 0 C4.80228456 -0.33119204 7.16417008 -0.43284049 11.5 1.8125 C12.325 2.534375 13.15 3.25625 14 4 C14 4.99 14 5.98 14 7 C11.0625 6.625 11.0625 6.625 8 6 C7.67 5.34 7.34 4.68 7 4 C4.6859378 3.26924352 2.35171131 2.59861742 0 2 C0 1.34 0 0.68 0 0 Z " fill="#8A8A8A" transform="translate(124,37)"/>
<path d="M0 0 C-0.33 0.66 -0.66 1.32 -1 2 C-3.94140625 2.6328125 -3.94140625 2.6328125 -7.5625 3.125 C-8.76003906 3.29257813 -9.95757812 3.46015625 -11.19140625 3.6328125 C-12.11824219 3.75398438 -13.04507813 3.87515625 -14 4 C-14 2.68 -14 1.36 -14 0 C-12.2300132 -0.19532961 -10.45895721 -0.38098882 -8.6875 -0.5625 C-7.70136719 -0.66691406 -6.71523437 -0.77132812 -5.69921875 -0.87890625 C-3 -1 -3 -1 0 0 Z " fill="#242425" transform="translate(150,87)"/>
<path d="M0 0 C1 3 1 3 0.0625 5.1875 C-0.4634375 6.0846875 -0.4634375 6.0846875 -1 7 C-0.34 7.33 0.32 7.66 1 8 C-1.31 7.67 -3.62 7.34 -6 7 C-6.33 5.35 -6.66 3.7 -7 2 C-4.69 1.34 -2.38 0.68 0 0 Z " fill="#393939" transform="translate(262,47)"/>
<path d="M0 0 C2.33944736 0.28730055 4.6739143 0.61936779 7 1 C7 1.66 7 2.32 7 3 C6.01 3 5.02 3 4 3 C3.67 6.63 3.34 10.26 3 14 C2.34 14 1.68 14 1 14 C1 10.04 1 6.08 1 2 C0.34 1.67 -0.32 1.34 -1 1 C-0.67 0.67 -0.34 0.34 0 0 Z " fill="#2D2D2E" transform="translate(201,33)"/>
<path d="M0 0 C-2.21564529 2.54799209 -3.69770831 3.39676845 -7 4 C-9.10644531 4.02172852 -9.10644531 4.02172852 -11.328125 3.87890625 C-12.12734375 3.83056641 -12.9265625 3.78222656 -13.75 3.73242188 C-14.575 3.67634766 -15.4 3.62027344 -16.25 3.5625 C-17.09046875 3.51029297 -17.9309375 3.45808594 -18.796875 3.40429688 C-20.8649352 3.27504311 -22.9325222 3.13825726 -25 3 C-25 2.67 -25 2.34 -25 2 C-24.0821875 2.03480469 -23.164375 2.06960937 -22.21875 2.10546875 C-15.81885163 2.24664298 -5.23218476 -1.74406159 0 0 Z " fill="#373B40" transform="translate(33,30)"/>
<path d="M0 0 C3.63 0 7.26 0 11 0 C11.33 0.99 11.66 1.98 12 3 C5.565 3.495 5.565 3.495 -1 4 C-0.67 2.68 -0.34 1.36 0 0 Z " fill="#6E6F6D" transform="translate(148,27)"/>
<path d="M0 0 C4.67802059 0.27517768 6.74638753 2.33193886 9.86328125 5.52734375 C11 7 11 7 11 9 C11.66 9.33 12.32 9.66 13 10 C12.01 10.495 12.01 10.495 11 11 C10.01 10.01 9.02 9.02 8 8 C7.01 8.33 6.02 8.66 5 9 C4.67 8.01 4.34 7.02 4 6 C4.66 6 5.32 6 6 6 C5.38125 5.38125 4.7625 4.7625 4.125 4.125 C2.75 2.75 1.375 1.375 0 0 Z " fill="#45444C" transform="translate(74,1)"/>
<path d="M0 0 C0.33 0.66 0.66 1.32 1 2 C1.99 1.67 2.98 1.34 4 1 C5.39439664 0.93334624 6.79169875 0.91461801 8.1875 0.9375 C10.0746875 0.9684375 10.0746875 0.9684375 12 1 C12.33 1.66 12.66 2.32 13 3 C9.78658631 4.60670684 6.37041032 3.82510855 2.875 3.5625 C1.74384766 3.48418945 1.74384766 3.48418945 0.58984375 3.40429688 C-1.2737937 3.27454996 -3.13694996 3.13792512 -5 3 C-5 2.67 -5 2.34 -5 2 C-3.35 2 -1.7 2 0 2 C0 1.34 0 0.68 0 0 Z " fill="#27272A" transform="translate(117,32)"/>
<path d="M0 0 C1.65 0.33 3.3 0.66 5 1 C5 1.66 5 2.32 5 3 C5.99 3.33 6.98 3.66 8 4 C7.01 4.495 7.01 4.495 6 5 C6 5.99 6 6.98 6 8 C5.34 8 4.68 8 4 8 C3.67 7.34 3.34 6.68 3 6 C2.34 6 1.68 6 1 6 C1 5.34 1 4.68 1 4 C0.34 4 -0.32 4 -1 4 C-0.67 2.68 -0.34 1.36 0 0 Z " fill="#434345" transform="translate(2,49)"/>
<path d="M0 0 C1.98 0 3.96 0 6 0 C6 0.66 6 1.32 6 2 C6.99 2.33 7.98 2.66 9 3 C7.35 3 5.7 3 4 3 C4 3.66 4 4.32 4 5 C3.38125 5.144375 2.7625 5.28875 2.125 5.4375 C-0.03258322 5.93152225 -0.03258322 5.93152225 -2 7 C-1.34 4.69 -0.68 2.38 0 0 Z " fill="#AFAEA8" transform="translate(98,20)"/>
<path d="M0 0 C5.28 0 10.56 0 16 0 C16 0.66 16 1.32 16 2 C13.89651926 2.19504458 11.79217415 2.38078496 9.6875 2.5625 C8.51574219 2.66691406 7.34398438 2.77132813 6.13671875 2.87890625 C3 3 3 3 0 2 C0 1.34 0 0.68 0 0 Z " fill="#868785" transform="translate(104,20)"/>
<path d="M0 0 C0.66 0 1.32 0 2 0 C2.33 1.65 2.66 3.3 3 5 C0.03 6.32 -2.94 7.64 -6 9 C-6 6 -6 6 -3.5625 3.375 C-2.716875 2.59125 -1.87125 1.8075 -1 1 C-0.67 0.67 -0.34 0.34 0 0 Z " fill="#56555B" transform="translate(118,63)"/>
<path d="M0 0 C0.99 0.33 1.98 0.66 3 1 C3 2.98 3 4.96 3 7 C0.03 6.67 -2.94 6.34 -6 6 C-4 4 -2 2 0 0 Z " fill="#555658" transform="translate(127,61)"/>
<path d="M0 0 C0.33 0.99 0.66 1.98 1 3 C-0.41433206 3.2236337 -1.83167618 3.42826476 -3.25 3.625 C-4.03890625 3.74101563 -4.8278125 3.85703125 -5.640625 3.9765625 C-8.32152459 4.00319395 -9.72694089 3.36592084 -12 2 C-7.82262526 0.40861915 -4.46839215 -0.21278058 0 0 Z " fill="#31333D" transform="translate(15,44)"/>
<path d="M0 0 C2.97 0 5.94 0 9 0 C8.34 1.32 7.68 2.64 7 4 C4.69 4 2.38 4 0 4 C0 2.68 0 1.36 0 0 Z " fill="#161616" transform="translate(167,32)"/>
<path d="M0 0 C0 0.66 0 1.32 0 2 C-4.65160624 3.55053541 -9.93775265 3.82489894 -14.5 2 C-14.995 1.67 -15.49 1.34 -16 1 C-10.59255982 0.22750855 -5.46137814 -0.09752461 0 0 Z " fill="#29292B" transform="translate(240,56)"/>
<path d="M0 0 C1.4540625 0.0309375 1.4540625 0.0309375 2.9375 0.0625 C2.9375 1.0525 2.9375 2.0425 2.9375 3.0625 C-2.0125 3.0625 -6.9625 3.0625 -12.0625 3.0625 C-12.0625 2.7325 -12.0625 2.4025 -12.0625 2.0625 C-10.01171875 1.83463542 -7.9609375 1.60677083 -5.91015625 1.37890625 C-3.00452994 0.88132542 -3.42063662 0.06980891 0 0 Z " fill="#676767" transform="translate(100.0625,81.9375)"/>
<path d="M0 0 C2.9375 1.25 2.9375 1.25 6 3 C6.875 5.1875 6.875 5.1875 7 7 C6.01 7 5.02 7 4 7 C3.01 7.495 3.01 7.495 2 8 C0.74335022 5.09399739 0 3.20395416 0 0 Z " fill="#949492" transform="translate(131,69)"/>
<path d="M0 0 C4.62 0 9.24 0 14 0 C10.05362794 2.63091471 6.27397897 3.40815007 1.5625 2.5625 C1.046875 2.376875 0.53125 2.19125 0 2 C0 1.34 0 0.68 0 0 Z " fill="#171719" transform="translate(125,31)"/>
<path d="M0 0 C1.31571603 0.2547514 2.62760376 0.52934141 3.9375 0.8125 C4.66839844 0.96332031 5.39929687 1.11414063 6.15234375 1.26953125 C6.76207031 1.51058594 7.37179688 1.75164062 8 2 C8.33 2.99 8.66 3.98 9 5 C10.65 5.33 12.3 5.66 14 6 C14 6.66 14 7.32 14 8 C8.76481294 6.56032356 4.36973991 4.18303389 0 1 C0 0.67 0 0.34 0 0 Z " fill="#34353A" transform="translate(56,70)"/>
<path d="M0 0 C2.0625 0.6875 2.0625 0.6875 5.0625 2.6875 C1.44276598 4.00376692 -1.03317131 4.6875 -4.9375 4.6875 C-4.5625 2.75 -4.5625 2.75 -3.9375 0.6875 C-1.9375 -0.3125 -1.9375 -0.3125 0 0 Z " fill="#4E5158" transform="translate(7.9375,41.3125)"/>
<path d="M0 0 C0.33 0.66 0.66 1.32 1 2 C2.98 1.34 4.96 0.68 7 0 C6.67 1.32 6.34 2.64 6 4 C4.68 4.33 3.36 4.66 2 5 C2 4.34 2 3.68 2 3 C1.34 3 0.68 3 0 3 C0 3.99 0 4.98 0 6 C-0.66 6 -1.32 6 -2 6 C-1.49396008 3.83125748 -1.00016187 2.00032373 0 0 Z " fill="#2A2C38" transform="translate(33,34)"/>
<path d="M0 0 C1.77007714 -0.08114106 3.54122098 -0.13925505 5.3125 -0.1875 C6.29863281 -0.22230469 7.28476563 -0.25710937 8.30078125 -0.29296875 C11 0 11 0 12.85546875 1.51171875 C13.23316406 2.00285156 13.61085937 2.49398437 14 3 C10.45332822 4.25127906 8.27746562 3.72285053 4.75 2.5625 C3.85796875 2.27503906 2.9659375 1.98757812 2.046875 1.69140625 C1.37140625 1.46324219 0.6959375 1.23507813 0 1 C0 0.67 0 0.34 0 0 Z " fill="#8C8C8B" transform="translate(207,33)"/>
<path d="M0 0 C3.3 0 6.6 0 10 0 C10 0.33 10 0.66 10 1 C8.7934375 1.185625 8.7934375 1.185625 7.5625 1.375 C6.716875 1.58125 5.87125 1.7875 5 2 C4.67 2.66 4.34 3.32 4 4 C5.32 4.33 6.64 4.66 8 5 C5.36 5 2.72 5 0 5 C0.66 4.67 1.32 4.34 2 4 C2 3.34 2 2.68 2 2 C1.34 2 0.68 2 0 2 C0 1.34 0 0.68 0 0 Z " fill="#828281" transform="translate(80,19)"/>
<path d="M0 0 C0.8353125 0.556875 0.8353125 0.556875 1.6875 1.125 C-0.8779594 3.6904594 -2.78936668 3.66546087 -6.3125 4.125 C-6.6425 3.135 -6.9725 2.145 -7.3125 1.125 C-2.88173077 -1.09038462 -2.88173077 -1.09038462 0 0 Z " fill="#2B2B2B" transform="translate(255.3125,52.875)"/>
<path d="M0 0 C1.48117801 0.28127421 2.95993249 0.57533732 4.4375 0.875 C5.67306641 1.11863281 5.67306641 1.11863281 6.93359375 1.3671875 C7.61550781 1.57601563 8.29742187 1.78484375 9 2 C9.33 2.66 9.66 3.32 10 4 C3.375 4.125 3.375 4.125 0 3 C0 2.01 0 1.02 0 0 Z " fill="#484848" transform="translate(204,26)"/>
<path d="M0 0 C2.97 0.495 2.97 0.495 6 1 C6.33 1.99 6.66 2.98 7 4 C9.97 4.495 9.97 4.495 13 5 C10.44855176 5.93045933 9.25993522 6.08564091 6.640625 5.22265625 C5.85171875 4.83980469 5.0628125 4.45695312 4.25 4.0625 C3.45078125 3.68222656 2.6515625 3.30195312 1.828125 2.91015625 C1.22484375 2.60980469 0.6215625 2.30945312 0 2 C0 1.34 0 0.68 0 0 Z " fill="#5B5C5D" transform="translate(125,39)"/>
<path d="M0 0 C-0.33 1.32 -0.66 2.64 -1 4 C-1.33 3.34 -1.66 2.68 -2 2 C-2.66 1.67 -3.32 1.34 -4 1 C-2 0 -2 0 0 0 Z M-7 2 C-6.01 2.33 -5.02 2.66 -4 3 C-4.33 3.33 -4.66 3.66 -5 4 C-4.01 4.66 -3.02 5.32 -2 6 C-4.31 6 -6.62 6 -9 6 C-9 5.01 -9 4.02 -9 3 C-8.34 2.67 -7.68 2.34 -7 2 Z " fill="#4A4B50" transform="translate(106,68)"/>
<path d="M0 0 C2.97 0.495 2.97 0.495 6 1 C6.33 1.99 6.66 2.98 7 4 C4.36 3.67 1.72 3.34 -1 3 C-0.67 2.01 -0.34 1.02 0 0 Z " fill="#B8B8B8" transform="translate(255,44)"/>
<path d="M0 0 C3.63 0 7.26 0 11 0 C11 0.66 11 1.32 11 2 C6.98195309 2.84098656 3.98196457 3.05404945 0 2 C0 1.34 0 0.68 0 0 Z " fill="#7E8188" transform="translate(18,34)"/>
<path d="M0 0 C-0.33 0.66 -0.66 1.32 -1 2 C-4.99179743 3.33059914 -7.26317891 2.81502739 -11 1 C-7.2297564 -1.56376565 -4.32597804 -0.83191885 0 0 Z " fill="#242426" transform="translate(113,30)"/>
<path d="M0 0 C-0.66 1.32 -1.32 2.64 -2 4 C-2.99 4 -3.98 4 -5 4 C-5.33 2.68 -5.66 1.36 -6 0 C-3.50907189 -1.24546405 -2.58919267 -0.7767578 0 0 Z " fill="#474A53" transform="translate(64,67)"/>
<path d="M0 0 C0.66 0.33 1.32 0.66 2 1 C1.01 2.485 1.01 2.485 0 4 C0.99 4.33 1.98 4.66 3 5 C3 5.33 3 5.66 3 6 C0.36 6 -2.28 6 -5 6 C-4.34 5.01 -3.68 4.02 -3 3 C-2.34 3 -1.68 3 -1 3 C-0.67 2.01 -0.34 1.02 0 0 Z " fill="#656666" transform="translate(5,26)"/>
<path d="M0 0 C2.01920337 1.30406884 4.01924973 2.63823419 6 4 C6 4.33 6 4.66 6 5 C-0.625 6 -0.625 6 -4 6 C-3.525625 5.566875 -3.05125 5.13375 -2.5625 4.6875 C-0.76313043 2.97690387 -0.76313043 2.97690387 0 0 Z " fill="#9E9E9A" transform="translate(102,23)"/>
<path d="M0 0 C1.98 0.495 1.98 0.495 4 1 C3.67 2.65 3.34 4.3 3 6 C1.68 5.67 0.36 5.34 -1 5 C-0.67 3.35 -0.34 1.7 0 0 Z " fill="#7F7F7F" transform="translate(144,25)"/>
<path d="M0 0 C2.97 0.495 2.97 0.495 6 1 C6 1.99 6 2.98 6 4 C3.69 3.67 1.38 3.34 -1 3 C-0.67 2.01 -0.34 1.02 0 0 Z " fill="#4A4C46" transform="translate(159,20)"/>
<path d="M0 0 C-0.33 0.66 -0.66 1.32 -1 2 C-3.375 2.75 -3.375 2.75 -6 3 C-6.99 2.34 -7.98 1.68 -9 1 C-3.375 -1.125 -3.375 -1.125 0 0 Z " fill="#2A2A2A" transform="translate(150,87)"/>
<path d="M0 0 C0.99 1.32 1.98 2.64 3 4 C1.625 5.5 1.625 5.5 0 7 C-0.66 7 -1.32 7 -2 7 C-2 5.35 -2 3.7 -2 2 C-1.34 2 -0.68 2 0 2 C0 1.34 0 0.68 0 0 Z " fill="#242428" transform="translate(146,43)"/>
<path d="M0 0 C4.3177458 0.50797009 8.03302114 1.19682779 12 3 C12 3.33 12 3.66 12 4 C7.12335991 4.34833144 4.22949995 3.41685712 0 1 C0 0.67 0 0.34 0 0 Z " fill="#2B2C29" transform="translate(228,36)"/>
<path d="M0 0 C0.99 0 1.98 0 3 0 C3.66 2.31 4.32 4.62 5 7 C3.68 6.67 2.36 6.34 1 6 C0.67 4.02 0.34 2.04 0 0 Z " fill="#B5B5B5" transform="translate(201,26)"/>
<path d="M0 0 C3.96 0 7.92 0 12 0 C12 0.66 12 1.32 12 2 C10.02 2.99 10.02 2.99 8 4 C7.67 3.34 7.34 2.68 7 2 C4.67843403 1.59270772 2.3431213 1.25561323 0 1 C0 0.67 0 0.34 0 0 Z " fill="#939496" transform="translate(17,24)"/>
<path d="M0 0 C1.35158203 0.15275391 1.35158203 0.15275391 2.73046875 0.30859375 C3.41753906 0.39238281 4.10460937 0.47617188 4.8125 0.5625 C4.8125 0.8925 4.8125 1.2225 4.8125 1.5625 C3.39816794 1.7861337 1.98082382 1.99076476 0.5625 2.1875 C-0.22640625 2.30351563 -1.0153125 2.41953125 -1.828125 2.5390625 C-4.50902459 2.56569395 -5.91444089 1.92842084 -8.1875 0.5625 C-4.98734144 -0.50421952 -3.30205706 -0.38595472 0 0 Z " fill="#2D2C32" transform="translate(107.1875,88.4375)"/>
<path d="M0 0 C0.99 0 1.98 0 3 0 C3.33 0.99 3.66 1.98 4 3 C0.30458414 3.95024979 -2.30458414 3.95024979 -6 3 C-6 2.67 -6 2.34 -6 2 C-4.02 2 -2.04 2 0 2 C0 1.34 0 0.68 0 0 Z " fill="#28272A" transform="translate(242,44)"/>
<path d="M0 0 C0.33 0 0.66 0 1 0 C1.0825 0.9075 1.165 1.815 1.25 2.75 C2.09248732 6.40077839 3.17881618 7.63384583 6 10 C3.5625 9.625 3.5625 9.625 1 9 C-0.4783226 6.04335481 -0.06032783 3.25770263 0 0 Z " fill="#0B0E12" transform="translate(0,32)"/>
<path d="M0 0 C2.8203125 -0.29296875 2.8203125 -0.29296875 6.125 -0.1875 C7.76855469 -0.14689453 7.76855469 -0.14689453 9.4453125 -0.10546875 C10.28835937 -0.07066406 11.13140625 -0.03585938 12 0 C12 0.33 12 0.66 12 1 C11.11248047 1.09087891 11.11248047 1.09087891 10.20703125 1.18359375 C6.09021792 1.62012371 2.04455467 2.08671346 -2 3 C-1.34 2.01 -0.68 1.02 0 0 Z " fill="#6E6E6E" transform="translate(9,23)"/>
<path d="M0 0 C0.33 0.99 0.66 1.98 1 3 C-5.0546875 3.1953125 -5.0546875 3.1953125 -7 3 C-7.66 2.34 -8.32 1.68 -9 1 C-5.94152152 0.45627049 -3.11227195 0 0 0 Z " fill="#45454D" transform="translate(132,59)"/>
<path d="M0 0 C2.875 0.25 2.875 0.25 6 1 C7.375 3.0625 7.375 3.0625 8 5 C4.62496331 3.8141763 2.35277269 2.72426311 0 0 Z " fill="#B0B1AF" transform="translate(130,38)"/>
<path d="M0 0 C1.65 0 3.3 0 5 0 C2.12835434 2.70272533 0.69008159 3.94791837 -3.3125 4.25 C-4.199375 4.1675 -5.08625 4.085 -6 4 C-5.34 3.34 -4.68 2.68 -4 2 C-2.68 2 -1.36 2 0 2 C0 1.34 0 0.68 0 0 Z " fill="#44474E" transform="translate(16,37)"/>
<path d="M0 0 C0.33 0.99 0.66 1.98 1 3 C1.99 2.67 2.98 2.34 4 2 C4.99 2.66 5.98 3.32 7 4 C6 5 6 5 3.625 5.25 C1 5 1 5 -0.8125 3.5 C-1.204375 3.005 -1.59625 2.51 -2 2 C-1.34 2 -0.68 2 0 2 C0 1.34 0 0.68 0 0 Z " fill="#212429" transform="translate(4,36)"/>
<path d="M0 0 C2.31 0.33 4.62 0.66 7 1 C6.34 2.32 5.68 3.64 5 5 C2.525 4.01 2.525 4.01 0 3 C0 2.01 0 1.02 0 0 Z " fill="#828080" transform="translate(73,20)"/>
<path d="M0 0 C1.98 0 3.96 0 6 0 C6.33 0.66 6.66 1.32 7 2 C6.01 3.485 6.01 3.485 5 5 C4.34 5 3.68 5 3 5 C2.67 4.01 2.34 3.02 2 2 C1.34 1.34 0.68 0.68 0 0 Z " fill="#33323C" transform="translate(70,2)"/>
<path d="M0 0 C2 1 2 1 2 1 Z M-1 1 C0.2077558 4.62326739 -0.45688872 5.64146369 -2 9 C-2.66 8.01 -3.32 7.02 -4 6 C-3.01 4.35 -2.02 2.7 -1 1 Z " fill="#2B2B2F" transform="translate(153,32)"/>
<path d="M0 0 C1.32 0.33 2.64 0.66 4 1 C2.515 2.485 2.515 2.485 1 4 C0.01 3.67 -0.98 3.34 -2 3 C-1.34 2.01 -0.68 1.02 0 0 Z M-5 4 C-3 5 -3 5 -3 5 Z " fill="#202020" transform="translate(158,32)"/>
<path d="M0 0 C0 0.99 0 1.98 0 3 C-2.31 3.33 -4.62 3.66 -7 4 C-7 3.01 -7 2.02 -7 1 C-3.535 0.505 -3.535 0.505 0 0 Z " fill="#505150" transform="translate(108,27)"/>
<path d="M0 0 C2.31 0.33 4.62 0.66 7 1 C6.67 1.66 6.34 2.32 6 3 C2 3 2 3 0 2 C0 1.34 0 0.68 0 0 Z " fill="#424346" transform="translate(68,18)"/>
</svg>
